<?xml version="1.0" encoding="utf-8"?>
<!-- Generator: Adobe Illustrator 16.0.0, SVG Export Plug-In . SVG Version: 6.00 Build 0)  -->
<!DOCTYPE svg PUBLIC "-//W3C//DTD SVG 1.1//EN" "http://www.w3.org/Graphics/SVG/1.1/DTD/svg11.dtd">
<svg version="1.1" id="Capa_1" xmlns="http://www.w3.org/2000/svg" xmlns:xlink="http://www.w3.org/1999/xlink" x="0px" y="0px"
	 width="30px" height="40px" viewBox="0 0 30 40" enable-background="new 0 0 30 40" xml:space="preserve">
<g>
	<radialGradient id="SVGID_1_" cx="5.5005" cy="10.8828" r="24.1253" gradientUnits="userSpaceOnUse">
		<stop  offset="0" style="stop-color:#98CDEB"/>
		<stop  offset="1" style="stop-color:#2880C1"/>
	</radialGradient>
	<rect x="0" y="4.758" fill="url(#SVGID_1_)" width="30" height="30"/>
	<g>
		<path fill="#1D84C6" d="M9.35,15.64l-0.027-0.07c-0.027-0.066-0.123-0.131-0.193-0.152c-0.021-0.008-0.047-0.01-0.072-0.01H7.73
			c-0.023,0-0.09,0.016-0.115,0.023c-0.023,0.01-0.045,0.02-0.066,0.035l-0.053,0.043c-0.037,0.025-0.064,0.061-0.082,0.102
			l-0.738,1.861l-0.863-1.873c-0.006-0.01-0.039-0.062-0.045-0.074c-0.033-0.049-0.084-0.084-0.143-0.1
			c-0.02-0.004-0.09-0.018-0.109-0.018H4.258c-0.025,0-0.09,0.014-0.115,0.021c-0.053,0.02-0.125,0.096-0.154,0.141
			c-0.025,0.039-0.037,0.084-0.037,0.131v2.221l-1.031-2.33c-0.01-0.025-0.051-0.076-0.068-0.096
			c-0.031-0.033-0.074-0.061-0.119-0.07c-0.02-0.004-0.092-0.018-0.111-0.018h-1.07c-0.018,0-0.09,0.014-0.109,0.018
			c-0.043,0.01-0.107,0.062-0.141,0.094c-0.02,0.02-0.035,0.043-0.049,0.07L0,18.345v1.205h0.811c0.025,0,0.09-0.02,0.113-0.027
			c0.021-0.006,0.082-0.041,0.1-0.055c0.037-0.023,0.066-0.059,0.084-0.1l0.287-0.645h1.371l0.273,0.602
			c0.004,0.014,0.037,0.064,0.043,0.074c0.016,0.023,0.037,0.047,0.061,0.064l0.055,0.039c0.041,0.029,0.09,0.047,0.141,0.047h1.664
			c0.037,0,0.072-0.012,0.107-0.027l0.08-0.039c0.08-0.039,0.131-0.123,0.131-0.213v-1.41l0.721,1.525
			c0.023,0.051,0.092,0.102,0.143,0.127c0.01,0.004,0.061,0.021,0.07,0.023c0.025,0.008,0.047,0.014,0.072,0.014H6.99
			c0.018,0,0.092-0.018,0.109-0.021c0.045-0.01,0.109-0.061,0.141-0.092c0.02-0.02,0.035-0.041,0.047-0.066l0.652-1.41v1.279
			c0,0.039,0.01,0.074,0.025,0.109l0.027,0.055c0.031,0.062,0.088,0.109,0.158,0.125c0.016,0.004,0.088,0.021,0.109,0.021h0.785
			c0.035,0,0.07-0.008,0.104-0.025L9.201,19.5c0.051-0.025,0.09-0.062,0.113-0.113l0.027-0.055c0.014-0.033,0.023-0.066,0.023-0.105
			v-3.5C9.365,15.699,9.359,15.667,9.35,15.64z"/>
		<path fill="#1D84C6" d="M9.693,19.55c-0.037,0-0.072-0.008-0.105-0.027c-0.047-0.02-0.111-0.072-0.135-0.117
			c-0.016-0.033-0.041-0.1-0.041-0.135v-3.57c0-0.027,0.006-0.053,0.014-0.076c0.023-0.072,0.096-0.17,0.166-0.193
			c0.023-0.008,0.088-0.023,0.113-0.023h2.746c0.039,0,0.076,0.008,0.109,0.023c0.045,0.023,0.111,0.078,0.133,0.125
			c0.016,0.031,0.037,0.096,0.037,0.131v0.742c0,0.084-0.045,0.162-0.115,0.207c-0.047,0.041-0.105,0.074-0.164,0.074h-1.639v0.062
			h1.625c0.061,0,0.121,0.021,0.166,0.066l0.055,0.053c0.047,0.045,0.072,0.107,0.072,0.172v0.717c0,0.061-0.023,0.121-0.066,0.166
			c-0.045,0.062-0.148,0.143-0.227,0.143h-1.6v0.104h1.613c0.039,0,0.076,0.006,0.109,0.025c0.043,0.021,0.105,0.07,0.129,0.115
			c0.02,0.035,0.041,0.098,0.041,0.135v0.803c0,0.062-0.025,0.123-0.07,0.168s-0.145,0.111-0.209,0.111H9.693z"/>
		<g>
			<path fill="#1D84C6" d="M26.609,19.55c-0.062,0-0.123-0.027-0.166-0.068c-0.014-0.014-0.068-0.068-0.076-0.086l-1.049-1.684
				v1.559c0,0.033-0.008,0.068-0.02,0.102c-0.025,0.047-0.076,0.115-0.125,0.141c-0.033,0.016-0.096,0.037-0.133,0.037h-1.73
				c-0.064,0-0.123-0.027-0.166-0.068c-0.002,0-0.086-0.086-0.086-0.086c-0.02-0.021-0.037-0.045-0.049-0.07l-0.254-0.568
				l-1.412-0.006l-0.26,0.611c-0.014,0.029-0.029,0.053-0.051,0.074c-0.031,0.031-0.096,0.082-0.141,0.092
				c-0.018,0.004-0.092,0.021-0.109,0.021h-1.166l-0.199-0.031l-0.354-0.104l-0.336-0.164c-0.027-0.014-0.051-0.031-0.072-0.053
				l-0.23-0.258l-0.215-0.285c-0.014-0.02-0.025-0.041-0.033-0.064l-0.096-0.271l-0.115-0.467l-0.02-0.512l0.068-0.498l0.162-0.48
				c0.006-0.016,0.014-0.035,0.025-0.051l0.08-0.121l0.227-0.299c0.012-0.014,0.025-0.027,0.041-0.043l0.258-0.203
				c0.018-0.012,0.035-0.021,0.055-0.033l0.326-0.133l0.375-0.07l1.176-0.002c0.037,0,0.072,0.008,0.105,0.021
				c0.082,0.041,0.162,0.137,0.162,0.229v0.412l0.221-0.48c0.01-0.025,0.023-0.045,0.041-0.064c0.031-0.035,0.102-0.09,0.146-0.1
				c0.018-0.004,0.092-0.018,0.111-0.018h1.066c0.02,0,0.092,0.014,0.109,0.018c0.045,0.01,0.084,0.035,0.115,0.064
				c0.021,0.021,0.064,0.074,0.076,0.102l0.975,2.207v-2.111c0-0.037,0.008-0.076,0.025-0.107c0.029-0.059,0.092-0.129,0.154-0.148
				c0.023-0.008,0.088-0.023,0.113-0.023h1.203c0.039,0,0.078,0.008,0.109,0.025l0.082,0.041c0.037,0.021,0.07,0.051,0.092,0.086
				l1.088,1.738v-1.611c0-0.104,0.066-0.223,0.164-0.256c0.025-0.008,0.09-0.023,0.115-0.023h0.811c0.025,0,0.051,0.002,0.076,0.012
				c0.098,0.031,0.205,0.137,0.205,0.238v3.613c0,0.104-0.068,0.219-0.166,0.252c-0.023,0.008-0.09,0.027-0.115,0.027H26.609z
				 M19.881,18.207h0.15l0.658-1.441h-0.826l-0.178,0.008l-0.137,0.08l-0.102,0.1l-0.051,0.139l-0.066,0.273v0.307l0.072,0.281
				l0.059,0.098l0.121,0.088l0.156,0.057L19.881,18.207z"/>
		</g>
		<g>
			<path fill="#1D84C6" d="M15.602,19.55c-0.037,0-0.076-0.012-0.107-0.027c-0.043-0.021-0.105-0.072-0.129-0.113
				c-0.018-0.035-0.041-0.096-0.041-0.137l-0.016-0.701v-0.127l-0.043-0.088L15.188,18.3l-0.125-0.029l-0.832,0.004v0.996
				c0,0.045-0.014,0.09-0.039,0.131c-0.045,0.066-0.145,0.148-0.227,0.148H13.17c-0.035,0-0.07-0.008-0.102-0.023
				c-0.051-0.023-0.117-0.076-0.141-0.123c-0.018-0.035-0.039-0.098-0.039-0.133v-3.584c0-0.104,0.066-0.225,0.166-0.258
				c0.025-0.008,0.09-0.021,0.115-0.021h2.338l0.33,0.057c0.025,0.006,0.053,0.016,0.076,0.031l0.271,0.162
				c0.018,0.01,0.033,0.021,0.049,0.035l0.186,0.189c0.014,0.014,0.027,0.031,0.039,0.047l0.146,0.262l0.105,0.334
				c0.006,0.021,0.01,0.045,0.01,0.066v0.271c0,0.025-0.004,0.051-0.012,0.074l-0.096,0.297c-0.008,0.021-0.018,0.045-0.033,0.062
				l-0.16,0.23l-0.031,0.033l0.051,0.045c0.02,0.016,0.035,0.035,0.049,0.059l0.105,0.189c0.012,0.021,0.018,0.039,0.023,0.059
				l0.043,0.162l0.061,1.186c0.002,0.037-0.006,0.076-0.021,0.113c-0.031,0.059-0.094,0.131-0.158,0.15
				c-0.023,0.008-0.09,0.027-0.113,0.027H15.602z M15.117,16.976l0.037-0.012l0.061-0.021l0.027-0.018l0.029-0.057l-0.016-0.047
				l-0.049-0.055l-0.057-0.033h-0.92v0.238L15.117,16.976z"/>
		</g>
		<g>
			<path fill="#1D84C6" d="M20.592,25.673c-0.033,0-0.068-0.008-0.102-0.021c-0.049-0.023-0.115-0.076-0.139-0.125
				c-0.016-0.033-0.039-0.094-0.039-0.131v-3.57c0-0.025,0.006-0.049,0.014-0.07c0.02-0.074,0.09-0.172,0.162-0.199
				c0.025-0.008,0.09-0.023,0.115-0.023h2.734c0.023,0,0.049,0.002,0.072,0.012c0.1,0.029,0.207,0.135,0.207,0.24v0.77
				c0,0.039-0.01,0.078-0.027,0.111c-0.041,0.08-0.137,0.156-0.227,0.156h-1.666v0.074h1.627c0.062,0,0.123,0.025,0.168,0.07
				l0.055,0.055c0.045,0.047,0.07,0.105,0.07,0.17v0.717c0,0.025-0.004,0.055-0.012,0.078c-0.025,0.07-0.096,0.164-0.164,0.189
				c-0.023,0.008-0.092,0.025-0.117,0.025h-1.6v0.119h1.613c0.023,0,0.047,0.004,0.068,0.008c0.102,0.033,0.211,0.139,0.211,0.24
				v0.828c0,0.037-0.01,0.078-0.027,0.111c-0.025,0.047-0.078,0.109-0.123,0.131c-0.033,0.014-0.094,0.035-0.129,0.035H20.592z"/>
		</g>
		<g>
			<path fill="#1D84C6" d="M23.85,25.673c-0.059,0-0.119-0.023-0.164-0.066c-0.018-0.018-0.045-0.051-0.059-0.072
				c-0.02-0.035-0.041-0.102-0.041-0.139v-0.799c0-0.062,0.023-0.121,0.068-0.166s0.133-0.1,0.195-0.1h1.787l0.006-0.055
				l-0.006-0.021l-0.562,0.012l-0.213-0.016l-0.51-0.082c-0.021-0.002-0.045-0.012-0.066-0.021l-0.277-0.133
				c-0.029-0.012-0.053-0.031-0.074-0.053l-0.189-0.203l-0.078-0.111c-0.012-0.018-0.023-0.037-0.029-0.061l-0.094-0.297
				l-0.039-0.35c0-0.006,0-0.182,0-0.182l0.057-0.34c0.004-0.021,0.01-0.043,0.02-0.062l0.125-0.258l0.061-0.09l0.24-0.217
				c0.018-0.014,0.035-0.025,0.053-0.035l0.23-0.107c0.02-0.01,0.037-0.016,0.057-0.02l0.205-0.041l0.49-0.055l1.639-0.002
				c0.047,0,0.094,0.014,0.133,0.041c0.064,0.045,0.146,0.146,0.146,0.225v0.811c0,0.102-0.066,0.221-0.164,0.252
				c-0.025,0.01-0.09,0.027-0.115,0.027h-1.664l0.002,0.008h0.551l0.209,0.016l0.48,0.086l0.115,0.037l0.246,0.137
				c0.018,0.012,0.035,0.023,0.051,0.039l0.189,0.189c0.014,0.014,0.027,0.031,0.039,0.049l0.055,0.096l0.115,0.346
				c0.006,0.02,0.008,0.039,0.01,0.061l0.014,0.297v0.188l-0.041,0.316c-0.004,0.02-0.01,0.041-0.018,0.059l-0.121,0.285
				c-0.008,0.02-0.018,0.037-0.031,0.051l-0.039,0.057c-0.014,0.014-0.027,0.029-0.043,0.041l-0.203,0.162l-0.275,0.137
				l-0.225,0.068l-0.5,0.061c-0.008,0-0.018,0.002-0.027,0.002H23.85z"/>
		</g>
		<g>
			<path fill="#1D84C6" d="M12.18,25.673c-0.035,0-0.072-0.01-0.105-0.025l-0.135-0.064c-0.025-0.016-0.051-0.035-0.074-0.059
				l-0.75-0.855l-0.828,0.9c-0.027,0.031-0.062,0.055-0.105,0.066l-0.08,0.027c-0.021,0.006-0.047,0.01-0.07,0.01H6.717
				c-0.023,0-0.047-0.004-0.068-0.01c-0.102-0.033-0.209-0.137-0.209-0.242v-3.596c0-0.111,0.074-0.25,0.182-0.273
				c0.018-0.004,0.092-0.02,0.111-0.02h3.436c0.023,0,0.047,0.002,0.072,0.012c0.037,0.01,0.113,0.045,0.141,0.076l0.785,0.92
				l0.738-0.883c0.004-0.006,0.049-0.049,0.055-0.055c0.045-0.045,0.105-0.07,0.17-0.07h2.945l0.244,0.014l0.35,0.074
				c0.021,0.004,0.043,0.01,0.061,0.023L16,21.789l0.275,0.236c0.023,0.023,0.043,0.049,0.059,0.078l0.148,0.326l0.084,0.361
				l0.006,0.375c0,0.02-0.002,0.039-0.008,0.059l-0.082,0.324l-0.146,0.346c-0.01,0.023-0.023,0.045-0.039,0.064l-0.098,0.107
				l-0.27,0.197l-0.309,0.146c-0.021,0.01-0.045,0.016-0.068,0.021l-0.297,0.037l-1.184,0.002v0.926c0,0.062-0.025,0.123-0.07,0.168
				c-0.002,0.004-0.045,0.043-0.047,0.045c-0.045,0.041-0.102,0.064-0.162,0.064H12.18z M9.547,24.32l0.639-0.715l-0.658-0.783
				H7.836v0.074h1.613c0.055,0,0.105,0.018,0.15,0.055l0.068,0.055c0.057,0.045,0.09,0.111,0.09,0.186v0.717
				c0,0.047-0.016,0.096-0.045,0.135c-0.027,0.045-0.098,0.113-0.146,0.133c-0.023,0.008-0.09,0.025-0.117,0.025H7.852v0.119H9.547z
				 M12.686,24.298V22.98L12.1,23.603L12.686,24.298z M14.895,23.22l0.133-0.031l0.105-0.074l0.012-0.035l-0.008-0.1l-0.002-0.008
				l-0.068-0.053l-0.096-0.031h-0.898v0.332H14.895z"/>
		</g>
		<g>
			<path fill="#1D84C6" d="M19.199,25.673c-0.09,0-0.172-0.051-0.213-0.131c-0.041-0.041-0.051-0.076-0.053-0.137l-0.027-0.705
				v-0.135l-0.043-0.074l-0.076-0.066L18.662,24.4l-0.818,0.002v0.994c0,0.049-0.018,0.1-0.047,0.141
				c-0.045,0.061-0.146,0.137-0.221,0.137h-0.824c-0.057,0-0.113-0.021-0.156-0.061c-0.004-0.002-0.047-0.045-0.053-0.045
				c-0.045-0.047-0.07-0.107-0.07-0.172v-3.584c0-0.037,0.008-0.07,0.021-0.102c0.025-0.051,0.08-0.121,0.131-0.145
				c0.031-0.012,0.096-0.033,0.127-0.033h2.367c0.018,0,0.037,0.002,0.057,0.006l0.271,0.068l0.318,0.152
				c0.021,0.014,0.039,0.025,0.055,0.039l0.219,0.203c0.018,0.016,0.033,0.035,0.043,0.057l0.148,0.256
				c0.012,0.02,0.02,0.041,0.025,0.062l0.066,0.27c0.006,0.018,0.008,0.037,0.008,0.057v0.299c0,0.023-0.004,0.043-0.008,0.066
				l-0.082,0.283c-0.006,0.018-0.016,0.039-0.025,0.057l-0.148,0.244c-0.012,0.021-0.025,0.039-0.043,0.055l0.029,0.023
				c0.014,0.018,0.027,0.031,0.037,0.049l0.123,0.189c0.016,0.027,0.027,0.057,0.033,0.088l0.039,0.229l0.045,1.102
				c0.004,0.064-0.021,0.127-0.064,0.174c-0.006,0.004-0.047,0.045-0.051,0.049c-0.045,0.041-0.105,0.064-0.162,0.064H19.199z
				 M18.713,23.085l0.109-0.008l0.035-0.016l0.029-0.029l0.004-0.023l-0.025-0.078l-0.043-0.045l-0.072-0.039h-0.906v0.238H18.713z"
				/>
		</g>
		<g>
			<path fill="#1D84C6" d="M16.941,19.55c-0.037,0-0.072-0.008-0.104-0.025c-0.053-0.023-0.117-0.078-0.143-0.131
				c-0.014-0.031-0.033-0.09-0.033-0.123v-3.584c0-0.104,0.066-0.223,0.164-0.256c0.021-0.008,0.09-0.023,0.115-0.023h0.811
				c0.035,0,0.072,0.008,0.104,0.021c0.049,0.023,0.115,0.076,0.139,0.127c0.018,0.031,0.037,0.096,0.037,0.131v3.584
				c0,0.062-0.023,0.123-0.068,0.168c-0.004,0.002-0.047,0.045-0.051,0.047c-0.043,0.041-0.1,0.064-0.16,0.064H16.941z"/>
		</g>
		<polygon fill="#FFFFFF" points="2.08,16.621 2.066,16.605 2.051,16.605 2.025,16.621 2.014,16.632 1.58,17.566 1.58,17.593 
			1.592,17.605 1.607,17.621 2.5,17.621 2.514,17.605 2.525,17.593 2.525,17.566 2.094,16.632 		"/>
		<polygon fill="#FFFFFF" points="21.58,17.621 22.473,17.621 22.486,17.605 22.498,17.593 22.498,17.566 22.066,16.632 
			22.053,16.621 22.039,16.605 22.025,16.605 21.998,16.621 21.998,16.632 21.566,17.566 21.566,17.593 21.58,17.605 		"/>
		<polygon fill="#FFFFFF" points="14.049,17.214 15.117,17.214 15.197,17.199 15.32,17.162 15.428,17.091 15.494,16.957 
			15.521,16.863 15.467,16.701 15.357,16.578 15.211,16.496 15.117,16.496 14.049,16.496 14.006,16.496 13.992,16.525 
			13.992,17.175 14.006,17.199 		"/>
		<polygon fill="#FFFFFF" points="12.924,22.73 12.912,22.595 12.885,22.527 12.83,22.5 12.789,22.527 11.816,23.556 11.816,23.583 
			11.816,23.638 12.764,24.761 12.844,24.773 12.885,24.732 12.912,24.691 12.924,24.583 12.926,24.585 12.926,22.691 
			12.926,22.537 12.924,22.533 		"/>
		<polygon fill="#FFFFFF" points="15.332,22.826 15.182,22.703 15.008,22.648 14.926,22.648 13.857,22.648 13.844,22.664 
			13.832,22.691 13.832,23.421 13.844,23.449 13.857,23.46 14.926,23.46 15.129,23.408 15.305,23.285 15.332,23.271 15.387,23.111 
			15.373,22.921 		"/>
		<polygon fill="#FFFFFF" points="9.477,22.582 8.998,22.582 7.637,22.582 7.596,22.595 7.596,22.636 7.596,23.097 7.637,23.138 
			9.449,23.138 9.518,23.191 9.518,23.908 9.49,23.947 9.449,23.962 7.637,23.962 7.613,24.003 7.613,24.515 7.637,24.558 
			9.477,24.558 9.611,24.558 9.666,24.542 10.479,23.638 10.479,23.583 9.641,22.582 		"/>
		<polygon fill="#FFFFFF" points="18.969,22.691 18.807,22.609 18.713,22.609 17.658,22.609 17.631,22.636 17.605,22.648 
			17.605,23.285 17.631,23.326 17.658,23.326 18.713,23.326 18.891,23.314 18.998,23.257 19.078,23.177 19.119,23.111 
			19.131,22.988 19.078,22.812 		"/>
		<path fill="#FFFFFF" d="M28.018,15.205l-0.041-0.014c-0.049-0.016-0.1-0.021-0.15-0.021h-0.811c-0.051,0-0.102,0.006-0.15,0.021
			l-0.039,0.014c-0.195,0.064-0.328,0.246-0.328,0.453v0.809l-0.646-1.033c-0.045-0.072-0.109-0.133-0.188-0.17l-0.08-0.043
			c-0.068-0.033-0.141-0.051-0.219-0.051h-1.203c-0.049,0-0.1,0.006-0.148,0.021l-0.041,0.014c-0.119,0.039-0.221,0.125-0.277,0.24
			l-0.014,0.025c-0.033,0.068-0.051,0.141-0.051,0.217v0.979l-0.518-1.17c-0.023-0.055-0.057-0.102-0.098-0.143l-0.025-0.029
			c-0.064-0.064-0.143-0.107-0.23-0.129l-0.053-0.014c-0.037-0.01-0.076-0.012-0.113-0.012h-1.066c-0.039,0-0.076,0.002-0.111,0.012
			l-0.055,0.014c-0.094,0.021-0.18,0.07-0.242,0.141h-0.002c-0.039-0.043-0.086-0.078-0.139-0.105l-0.027-0.014
			c-0.066-0.031-0.137-0.047-0.211-0.047h-1.135c-0.027,0-0.053,0-0.08,0.006l-0.324,0.055c-0.037,0.002-0.072,0.014-0.105,0.029
			l-0.324,0.135c-0.039,0.016-0.078,0.039-0.111,0.066l-0.258,0.203c-0.031,0.023-0.059,0.053-0.082,0.086l-0.049,0.062v-0.125
			c0-0.074-0.018-0.143-0.047-0.207l-0.016-0.029c-0.045-0.098-0.125-0.176-0.223-0.221l-0.027-0.014
			c-0.064-0.031-0.135-0.047-0.207-0.047h-0.811c-0.053,0-0.104,0.006-0.15,0.021l-0.041,0.014
			c-0.164,0.055-0.266,0.203-0.299,0.369l-0.047-0.049c-0.029-0.027-0.061-0.055-0.096-0.072l-0.271-0.162
			c-0.047-0.031-0.102-0.049-0.156-0.061l-0.285-0.055c-0.027-0.006-0.057-0.006-0.088-0.006h-0.162H13.17
			c-0.049,0-0.1,0.006-0.146,0.021l-0.041,0.014c-0.076,0.025-0.131,0.076-0.186,0.133c-0.035-0.037-0.059-0.086-0.105-0.105
			l-0.025-0.016c-0.066-0.031-0.139-0.047-0.215-0.047H9.705c-0.049,0-0.1,0.006-0.146,0.021l-0.041,0.014
			c-0.051,0.018-0.092,0.049-0.133,0.08c-0.043-0.033-0.088-0.066-0.141-0.082l-0.043-0.014c-0.047-0.014-0.094-0.02-0.145-0.02
			H7.73c-0.049,0-0.1,0.006-0.148,0.021l-0.039,0.014c-0.049,0.016-0.094,0.041-0.135,0.072l-0.057,0.039
			c-0.07,0.055-0.125,0.125-0.158,0.205l-0.535,1.346L6.029,15.5c-0.01-0.021-0.021-0.045-0.037-0.064l-0.025-0.041
			c-0.066-0.1-0.168-0.17-0.285-0.199l-0.053-0.014c-0.037-0.01-0.078-0.012-0.113-0.012H4.258c-0.051,0-0.098,0.006-0.146,0.021
			L4.07,15.205c-0.105,0.033-0.197,0.102-0.256,0.197l-0.027,0.041c-0.049,0.076-0.074,0.166-0.074,0.258v1.09l-0.574-1.295
			c-0.02-0.049-0.049-0.094-0.086-0.133l-0.025-0.027c-0.064-0.07-0.148-0.119-0.238-0.141l-0.057-0.014
			c-0.037-0.01-0.074-0.012-0.111-0.012h-1.07c-0.037,0-0.076,0.002-0.113,0.012l-0.053,0.014c-0.084,0.021-0.162,0.064-0.223,0.125
			l-0.029,0.029c-0.041,0.041-0.074,0.086-0.098,0.141L0,17.769v1.152l1.469-3.234L1.5,15.658l0.051-0.012h1.07l0.055,0.012
			l0.025,0.029l1.287,2.904l0.107,0.082h0.094v-2.973l0.027-0.043l0.041-0.012h1.258l0.051,0.012l0.029,0.043l1.014,2.201
			l0.068,0.027l0.082-0.027l0.877-2.201l0.055-0.043l0.039-0.012h1.326L9.1,15.658l0.027,0.068v3.5L9.1,19.285L9.045,19.31H8.26
			l-0.053-0.014L8.178,19.24V17.05l-0.039-0.025L8.098,17.05L7.07,19.271l-0.027,0.025L6.99,19.31H6.326l-0.041-0.014l-0.027-0.012
			l-1.068-2.26l-0.066-0.014L5.082,17.05v2.221l-0.08,0.039H3.338l-0.055-0.039l-0.027-0.045l-0.324-0.713l-0.025-0.016
			l-0.055-0.012H1.27L1.24,18.498l-0.012,0.016l-0.338,0.758l-0.039,0.025L0.811,19.31H0v0.479h0.811
			c0.049,0,0.098-0.008,0.146-0.023l0.041-0.016c0.041-0.012,0.08-0.029,0.115-0.055l0.041-0.027
			c0.076-0.049,0.137-0.119,0.172-0.203l0.225-0.502h1.061l0.209,0.463c0.01,0.021,0.021,0.043,0.035,0.062l0.027,0.041
			c0.031,0.051,0.072,0.092,0.119,0.129l0.055,0.037c0.08,0.061,0.182,0.094,0.281,0.094h1.664c0.074,0,0.146-0.018,0.215-0.051
			l0.078-0.041c0.164-0.08,0.266-0.246,0.266-0.426v-0.344l0.264,0.561c0.049,0.1,0.131,0.18,0.23,0.227l0.027,0.014
			c0.02,0.01,0.039,0.018,0.059,0.021l0.041,0.016c0.047,0.016,0.098,0.023,0.145,0.023H6.99c0.037,0,0.074-0.006,0.109-0.014
			l0.055-0.014c0.088-0.021,0.168-0.066,0.23-0.131l0.027-0.027c0.037-0.039,0.068-0.084,0.09-0.133l0.199-0.426v0.195
			c0,0.076,0.018,0.15,0.051,0.215l0.027,0.055c0.062,0.125,0.176,0.219,0.312,0.252l0.053,0.012
			c0.037,0.01,0.076,0.016,0.115,0.016h0.785c0.07,0,0.141-0.018,0.205-0.049l0.057-0.027c0.029-0.014,0.041-0.047,0.068-0.068
			c0.029,0.027,0.047,0.064,0.082,0.082l0.025,0.012c0.068,0.033,0.139,0.051,0.211,0.051h2.758c0.127,0,0.25-0.051,0.34-0.141
			l0.031-0.033c0.039,0.039,0.064,0.09,0.117,0.113l0.025,0.012c0.062,0.033,0.135,0.049,0.205,0.049h0.795
			c0.162,0,0.312-0.082,0.4-0.217l0.025-0.039c0.051-0.078,0.08-0.17,0.08-0.262v-0.754h0.592l0.01,0.002v0.047l0.012,0.713
			c0.004,0.076,0.021,0.15,0.057,0.215l0.014,0.027c0.045,0.086,0.117,0.156,0.205,0.199c0.066,0.035,0.166,0.068,0.242,0.068h0.826
			c0.049,0,0.098-0.008,0.143-0.023l0.043-0.012c0.027-0.01,0.051-0.029,0.076-0.045c0.008,0.004,0.01,0.016,0.016,0.02l0.029,0.012
			c0.064,0.031,0.135,0.049,0.207,0.049h0.811c0.119,0,0.234-0.045,0.322-0.129c0.008-0.002,0.025-0.02,0.029-0.025l0.027-0.025
			c0.09-0.09,0.141-0.213,0.141-0.338v-0.145l0.207,0.232c0.041,0.045,0.088,0.082,0.143,0.107l0.297,0.148
			c0.025,0.012,0.051,0.023,0.078,0.033l0.326,0.092c0.018,0.008,0.039,0.01,0.059,0.016l0.162,0.027
			c0.025,0.002,0.051,0.006,0.074,0.006h1.166c0.035,0,0.074-0.006,0.109-0.014l0.055-0.014c0.088-0.021,0.168-0.066,0.23-0.131
			l0.027-0.027c0.041-0.041,0.076-0.09,0.1-0.146l0.197-0.465h1.096l0.193,0.432c0.025,0.051,0.057,0.1,0.096,0.141l0.043,0.041
			l0.049,0.047c0.088,0.088,0.207,0.137,0.332,0.137h1.188h0.475h0.068c0.072,0,0.145-0.018,0.211-0.051l0.027-0.012
			c0.096-0.049,0.176-0.129,0.223-0.227l0.012-0.025c0.029-0.064,0.045-0.135,0.045-0.203V18.55l0.605,0.973
			c0.02,0.031,0.045,0.062,0.072,0.09l0.041,0.039c0.09,0.088,0.207,0.137,0.332,0.137h1.217c0.051,0,0.102-0.01,0.15-0.023
			l0.041-0.016c0.195-0.062,0.328-0.246,0.328-0.453v-3.609C28.346,15.48,28.213,15.269,28.018,15.205z M12.492,16.429l-0.027,0.014
			l-0.014,0.027h-1.838h-0.027l-0.014,0.025v0.461l0.041,0.055h1.824l0.055,0.053v0.717l-0.027,0.029l-0.027,0.039h-1.812
			L10.6,17.878v0.512l0.025,0.041h1.826l0.027,0.012l0.014,0.025v0.803l-0.027,0.025l-0.014,0.014H9.693l-0.027-0.014l-0.014-0.025
			v-3.57l0.014-0.043l0.039-0.012h2.746l0.027,0.012l0.014,0.029V16.429z M16.428,19.31h-0.826l-0.025-0.014l-0.014-0.025
			l-0.014-0.705V18.39l-0.096-0.191l-0.162-0.119l-0.174-0.041h-0.055h-1.014l-0.043,0.014l-0.014,0.014v1.205l-0.027,0.039H13.17
			l-0.029-0.014l-0.014-0.025v-3.584v-0.029l0.043-0.012h2.176h0.162l0.283,0.055l0.273,0.162l0.188,0.189l0.148,0.256l0.023,0.082
			v0.652l-0.037,0.119l-0.162,0.229l-0.203,0.203l0.094,0.039l0.164,0.148l0.107,0.191l0.037,0.146v1.152
			c0,0.014,0.008,0.025,0.008,0.039H16.428z M17.793,19.271l-0.027,0.025l-0.014,0.014h-0.857c0.002-0.021,0.008-3.623,0.008-3.623
			v-0.029l0.039-0.012h0.811l0.027,0.012l0.014,0.029V19.271z M27.867,15.687v3.584v0.025l-0.041,0.014h-1.217l-0.041-0.039
			l-1.445-2.328H25.08v2.328l-0.012,0.025l-0.027,0.014h-0.068h-0.475h-1.188l-0.041-0.039l-0.041-0.045l-0.299-0.66l-0.037-0.039
			l-0.057-0.014h-1.594h-0.055l-0.014,0.025l-0.309,0.732l-0.027,0.025l-0.055,0.014h-1.166l-0.16-0.025l-0.326-0.096l-0.297-0.148
			l-0.229-0.258l-0.203-0.27l-0.094-0.271l-0.037-0.152v-1.271l0.131-0.375l0.08-0.123l0.217-0.281l0.258-0.203l0.324-0.135
			l0.324-0.055h1.135l0.027,0.012v0.016v0.822v0.014l-0.027,0.016h-0.877l-0.246,0.012l-0.215,0.125l-0.16,0.16l-0.07,0.189
			l-0.082,0.324v0.365l0.082,0.311l0.109,0.203l0.189,0.137l0.215,0.08l0.178,0.012h0.322l1.26-2.756l0.025-0.029l0.057-0.012h1.066
			l0.055,0.012l0.027,0.029l1.283,2.904l0.092,0.07h0.043l0.014-0.025v-2.949l0.014-0.029l0.041-0.012h1.203l0.08,0.041l1.488,2.379
			h0.043v-2.379v-0.029l0.039-0.012h0.811l0.041,0.012V15.687z M20.318,17.001l-0.439,0.967l-0.09-0.01l-0.094-0.035l-0.045-0.031
			l-0.029-0.055l-0.053-0.197v-0.246l0.061-0.242l0.023-0.066l0.043-0.041l0.059-0.035l0.135-0.008H20.318z"/>
		<path fill="#1D84C6" d="M30,23.242l-0.031-0.031c-0.014-0.016-0.029-0.027-0.049-0.039l-0.248-0.137l-0.111-0.037l-0.475-0.086
			l-0.217-0.016h-0.551l-0.004-0.008h1.662c0.006,0,0.016-0.006,0.023-0.008v-1.346c-0.004,0-0.006-0.002-0.008-0.002l-1.65,0.002
			l-0.492,0.059l-0.203,0.037c-0.02,0.004-0.039,0.01-0.057,0.02l-0.229,0.107c-0.02,0.01-0.039,0.021-0.057,0.035l-0.203,0.176
			c-0.021,0.021-0.043,0.045-0.057,0.074l-0.158,0.309c-0.014,0.02-0.021,0.045-0.023,0.066l-0.059,0.342c0,0,0,0.176,0,0.182
			l0.037,0.35l0.094,0.295c0.01,0.031,0.025,0.061,0.047,0.082l0.244,0.287c0.023,0.027,0.053,0.049,0.084,0.062l0.25,0.117
			c0.029,0.018,0.061,0.029,0.092,0.035l0.51,0.082l0.211,0.016l0.566-0.012l0.01,0.043l-0.006,0.033h-1.791
			c-0.064,0-0.152,0.055-0.197,0.1s-0.07,0.104-0.07,0.166v0.799c0,0.037,0.023,0.104,0.043,0.139
			c0.012,0.021,0.039,0.055,0.059,0.072c0.045,0.043,0.104,0.066,0.166,0.066h1.717c0.008,0,0.018-0.002,0.025-0.002l0.498-0.061
			l0.227-0.068l0.277-0.137L30,25.32V23.242z"/>
		<g>
			<polygon fill="#FFFFFF" points="28.289,22.648 28.234,22.648 28.193,22.675 28.139,22.703 28.098,22.785 28.07,22.892 
				28.098,23.001 28.139,23.097 28.178,23.111 28.219,23.138 28.258,23.138 28.869,23.138 29.07,23.15 29.518,23.23 29.584,23.257 
				29.801,23.38 29.992,23.57 30,23.583 30,22.638 29.977,22.648 			"/>
			<path fill="#FFFFFF" d="M30,24.986l-0.008,0.018l-0.043,0.053l-0.201,0.164l-0.23,0.109l-0.191,0.051l-0.457,0.053h-1.717
				l-0.014-0.012l-0.016-0.025v-0.191c0.004-0.006,0.008-0.01,0.01-0.014l0.121-0.285c0.014-0.039,0.027-0.08,0.031-0.123
				l0.031-0.215h1.621l0.094-0.01l0.08-0.043l0.055-0.08l0.025-0.137l-0.025-0.135l-0.055-0.094l-0.053-0.027l-0.068-0.029h-0.053
				l-0.57,0.016c0,0-1.316,0.096-1.316-1.326c0-0.982,1.316-0.93,1.316-0.93h1.625L30,21.785v-0.49
				c-0.004,0-0.006-0.002-0.008-0.002h-1.625c-0.018,0-0.035,0.002-0.057,0.004l-0.471,0.055c-0.014,0-0.025,0.004-0.037,0.008
				l-0.201,0.037c-0.041,0.008-0.076,0.02-0.113,0.035l-0.23,0.109c-0.037,0.021-0.074,0.043-0.107,0.072
				c-0.035-0.082-0.084-0.158-0.162-0.209l-0.039-0.025c-0.08-0.057-0.174-0.086-0.27-0.086h-1.611
				c-0.018,0-0.037,0.002-0.057,0.004l-0.471,0.055c-0.014,0-0.025,0.004-0.037,0.008l-0.205,0.037
				c-0.037,0.008-0.074,0.02-0.109,0.035l-0.23,0.109c-0.041,0.021-0.076,0.043-0.109,0.07l-0.045,0.037
				c-0.049-0.143-0.137-0.273-0.281-0.32l-0.041-0.012c-0.047-0.016-0.096-0.023-0.145-0.023h-2.734c-0.051,0-0.1,0.008-0.15,0.023
				l-0.037,0.014c-0.148,0.049-0.262,0.164-0.307,0.312l-0.014,0.041c-0.004,0.012-0.002,0.027-0.006,0.039l-0.105-0.098
				c-0.033-0.031-0.072-0.057-0.111-0.076l-0.27-0.137c-0.031-0.016-0.064-0.027-0.098-0.035l-0.271-0.068
				c-0.039-0.01-0.078-0.016-0.115-0.016h-0.178h-2.189c-0.066,0-0.137,0.018-0.199,0.043l-0.027,0.014
				c-0.104,0.047-0.186,0.131-0.234,0.23l-0.012,0.029c-0.012,0.025-0.012,0.057-0.018,0.084l-0.059-0.051
				c-0.027-0.023-0.057-0.045-0.09-0.062l-0.27-0.148c-0.037-0.02-0.082-0.035-0.125-0.045l-0.311-0.07
				c-0.025-0.006-0.051-0.006-0.076-0.008l-0.23-0.014c-0.01-0.002-0.02-0.002-0.027-0.002h-2.148h-0.758h-0.039
				c-0.129,0-0.25,0.053-0.34,0.141l-0.041,0.043c-0.008,0.01-0.018,0.018-0.027,0.029l-0.557,0.666l-0.566-0.668l-0.041-0.045
				c-0.057-0.062-0.127-0.107-0.203-0.131l-0.041-0.012c-0.047-0.016-0.098-0.023-0.145-0.023H9.477H8.998H6.732
				c-0.039,0-0.074,0.004-0.113,0.014l-0.053,0.012c-0.215,0.053-0.367,0.244-0.367,0.467v0.041v3.57
				c0,0.209,0.137,0.422,0.338,0.482l0.041,0.014c0.047,0.014,0.092,0.021,0.139,0.021h3.236h0.078c0.049,0,0.096-0.008,0.145-0.023
				l0.082-0.025c0.076-0.025,0.15-0.07,0.205-0.133l0.65-0.705l0.574,0.656c0.041,0.047,0.09,0.086,0.146,0.111l0.135,0.068
				c0.064,0.031,0.139,0.051,0.211,0.051h1.613c0.119,0,0.238-0.049,0.326-0.131l0.027-0.023c0.002-0.006,0.02-0.021,0.025-0.027
				c0.088-0.088,0.137-0.211,0.137-0.336V24.71h0.914c0.023,0,0.043-0.004,0.064-0.006l0.299-0.039
				c0.045-0.008,0.09-0.02,0.133-0.039l0.271-0.123c0.027-0.012,0.053-0.025,0.076-0.043l0.168-0.119v1.055
				c0,0.127,0.053,0.25,0.143,0.342l0.027,0.025c0.008,0.006,0.027,0.025,0.033,0.031c0.086,0.074,0.199,0.119,0.314,0.119h0.824
				c0.152,0,0.295-0.074,0.385-0.195l0.029-0.039c0.059-0.084,0.092-0.184,0.092-0.283v-0.754h0.58h0.006v0.049l0.027,0.723
				c0.004,0.115,0.053,0.229,0.131,0.311c0.094,0.111,0.232,0.189,0.373,0.189h0.854c0.098,0,0.191-0.039,0.273-0.096
				c0.016,0.01,0.02,0.029,0.037,0.037l0.027,0.012c0.062,0.031,0.133,0.047,0.201,0.047h2.746c0.07,0,0.139-0.016,0.203-0.047
				l0.025-0.012c0.014-0.006,0.02-0.021,0.031-0.031c0.076,0.051,0.166,0.09,0.252,0.09h1.719c0.02,0,0.037-0.002,0.055-0.006
				l0.461-0.053c0.027-0.002,0.053-0.006,0.078-0.016l0.188-0.053c0.025-0.008,0.049-0.016,0.072-0.027l0.229-0.107
				c0.018-0.01,0.033-0.021,0.051-0.033c0,0.002,0,0.002,0,0.002l0.014,0.025c0.025,0.045,0.057,0.086,0.092,0.119
				c0.09,0.088,0.223,0.148,0.346,0.148h1.717c0.018,0,0.035-0.002,0.055-0.006l0.459-0.053c0.025-0.002,0.051-0.006,0.074-0.016
				l0.189-0.053c0.025-0.008,0.049-0.016,0.074-0.027l0.23-0.107c0.018-0.008,0.031-0.021,0.049-0.031V24.986z M16.234,23.529
				L16.115,23.8l-0.094,0.107l-0.23,0.162l-0.27,0.123l-0.299,0.039h-1.365l-0.014,0.027l-0.012,0.014v1.123l-0.012,0.012
				l-0.027,0.025H12.18l-0.133-0.066l-0.879-1l-0.041-0.014l-0.055,0.014l-0.961,1.041l-0.08,0.025H9.953H6.717l-0.039-0.012v-0.025
				v-3.57v-0.041l0.055-0.012h2.266h0.479h0.691l0.039,0.012l0.027,0.027l0.906,1.068l0.027,0.012l0.025-0.012l0.895-1.068
				l0.041-0.039h0.039h0.756h0.002h2.148l0.23,0.012l0.312,0.068L15.885,22l0.23,0.205l0.119,0.254V23.529z M20.053,25.433h-0.854
				l-0.014-0.025l-0.014-0.012l-0.025-0.705v-0.189l-0.096-0.162l-0.15-0.135l-0.188-0.041h-0.041h-1.014h-0.027l-0.025,0.014v1.219
				l-0.029,0.037h-0.824l-0.014-0.012l-0.027-0.025v-3.584l0.012-0.027l0.029-0.012h2.189h0.178l0.271,0.064l0.268,0.137
				l0.219,0.203l0.146,0.256l0.051,0.205v0.422l-0.062,0.225l-0.148,0.244l-0.232,0.188l0.084,0.029l0.174,0.162l0.123,0.188
				l0.041,0.23l0.021,0.615v0.455c0,0.004,0.002,0.01,0.002,0.014L20.053,25.433z M23.379,21.812v0.412l-0.014,0.029
				c-0.02,0.039-0.031,0.082-0.039,0.125l-0.035,0.203h-1.779l-0.041,0.014l-0.012,0.041v0.461l0.053,0.041h1.771l0.01,0.121
				c0.004,0.035,0.012,0.07,0.021,0.104l0.064,0.199v0.346l-0.016,0.039l-0.039,0.016h-1.812l-0.025,0.041v0.512l0.025,0.043h1.826
				l0.016,0.004c0,0.014-0.008,0.025-0.008,0.035v0.799c0,0.012,0.008,0.02,0.008,0.029l-0.016,0.008l-2.773-0.012l-0.004-0.006
				c0.002-0.012-0.01-3.59-0.01-3.59l0.014-0.041l0.039-0.012h2.734l0.041,0.012V21.812z M25.568,25.433H23.85l-0.002-0.002
				c0-0.012,0.008-0.023,0.008-0.035v-0.799c0-0.01-0.004-0.018-0.004-0.029h1.785l0.094-0.01l0.082-0.043l0.055-0.08l0.014-0.137
				l-0.014-0.135l-0.055-0.094l-0.053-0.027l-0.068-0.029h-0.055l-0.568,0.016l-0.189-0.016c0,0-1.141,0.006-1.137-1.129
				c0.004-1.209,1.326-1.111,1.326-1.111h1.611l0.039,0.025l0.023,0.85h-1.754h-0.07l-0.039,0.027l-0.039,0.027l-0.041,0.082
				l-0.029,0.107l0.029,0.109l0.041,0.096l0.039,0.014l0.039,0.027h0.043h0.607l0.191,0.012c0,0,1.09,0.074,1.09,1.068
				C26.85,25.396,25.568,25.433,25.568,25.433z"/>
		</g>
	</g>
</g>
</svg>
