<?xml version="1.0" encoding="utf-8"?>
<!-- Generator: Adobe Illustrator 16.0.0, SVG Export Plug-In . SVG Version: 6.00 Build 0)  -->
<!DOCTYPE svg PUBLIC "-//W3C//DTD SVG 1.1//EN" "http://www.w3.org/Graphics/SVG/1.1/DTD/svg11.dtd">
<svg version="1.1" id="Capa_1" xmlns="http://www.w3.org/2000/svg" xmlns:xlink="http://www.w3.org/1999/xlink" x="0px" y="0px"
	 width="32px" height="40px" viewBox="0 0 32 40" enable-background="new 0 0 32 40" xml:space="preserve">
<g>
	<g>
		<path fill="#000100" d="M4.428,34.498H3.79L3.348,33H1.4l-0.441,1.498H0.351l1.64-5.373h0.799L4.428,34.498z M3.164,32.388
			l-0.79-2.639l-0.792,2.639H3.164z"/>
		<path fill="#000100" d="M7.173,31.206H7.144c-0.085-0.024-0.167-0.041-0.246-0.051c-0.082-0.01-0.175-0.017-0.284-0.017
			c-0.175,0-0.345,0.047-0.508,0.14c-0.163,0.092-0.319,0.213-0.471,0.357v2.862H5.065v-4.031h0.569v0.596
			c0.226-0.217,0.425-0.37,0.597-0.461c0.172-0.089,0.349-0.135,0.527-0.135c0.099,0,0.172,0.004,0.215,0.01
			c0.046,0.006,0.111,0.019,0.199,0.034V31.206z"/>
		<path fill="#000100" d="M10.449,34.039c0,0.683-0.131,1.184-0.391,1.505c-0.261,0.322-0.66,0.479-1.201,0.479
			c-0.178,0-0.354-0.015-0.523-0.045c-0.172-0.03-0.339-0.072-0.503-0.127v-0.693H7.86C7.951,35.2,8.1,35.255,8.303,35.317
			c0.2,0.065,0.402,0.098,0.604,0.098c0.191,0,0.353-0.028,0.479-0.083c0.126-0.055,0.227-0.134,0.298-0.232
			c0.069-0.093,0.12-0.203,0.151-0.34c0.029-0.131,0.044-0.278,0.044-0.442v-0.368c-0.171,0.165-0.336,0.286-0.492,0.366
			c-0.155,0.079-0.354,0.121-0.596,0.121c-0.404,0-0.724-0.174-0.96-0.521c-0.238-0.347-0.356-0.839-0.356-1.469
			c0-0.35,0.041-0.646,0.122-0.896c0.082-0.254,0.193-0.469,0.336-0.653c0.129-0.17,0.289-0.303,0.477-0.397
			c0.188-0.096,0.375-0.145,0.56-0.145c0.196,0,0.36,0.024,0.491,0.071c0.133,0.047,0.271,0.119,0.419,0.217l0.036-0.176h0.533
			V34.039z M9.88,33.388v-2.196c-0.152-0.08-0.291-0.139-0.422-0.173c-0.129-0.035-0.26-0.053-0.389-0.053
			c-0.312,0-0.559,0.125-0.737,0.376c-0.18,0.248-0.27,0.612-0.27,1.089c0,0.452,0.066,0.796,0.2,1.028s0.353,0.35,0.662,0.35
			c0.164,0,0.331-0.038,0.496-0.115C9.589,33.621,9.742,33.518,9.88,33.388z"/>
		<path fill="#000100" d="M14.395,32.552h-2.487c0,0.249,0.03,0.465,0.093,0.648c0.062,0.186,0.148,0.335,0.256,0.453
			c0.106,0.117,0.23,0.201,0.373,0.26c0.147,0.057,0.305,0.088,0.477,0.088c0.231,0,0.464-0.056,0.696-0.166
			c0.232-0.107,0.397-0.216,0.497-0.322h0.028v0.74c-0.19,0.095-0.387,0.176-0.586,0.241c-0.199,0.066-0.408,0.099-0.629,0.099
			c-0.561,0-0.998-0.183-1.312-0.545c-0.314-0.362-0.474-0.875-0.474-1.543c0-0.658,0.151-1.181,0.454-1.567
			c0.3-0.388,0.697-0.583,1.189-0.583c0.456,0,0.807,0.16,1.056,0.478c0.244,0.317,0.368,0.768,0.368,1.354V32.552z M13.842,32.034
			c-0.002-0.355-0.078-0.63-0.226-0.828c-0.147-0.194-0.373-0.291-0.676-0.291c-0.305,0-0.547,0.107-0.728,0.321
			c-0.18,0.214-0.282,0.479-0.306,0.798H13.842z"/>
		<path fill="#000100" d="M18.082,34.498h-0.57v-2.297c0-0.183-0.009-0.356-0.026-0.519c-0.018-0.163-0.051-0.288-0.101-0.382
			c-0.05-0.102-0.122-0.176-0.217-0.225c-0.097-0.048-0.219-0.074-0.369-0.074c-0.154,0-0.316,0.047-0.485,0.137
			c-0.17,0.091-0.333,0.207-0.489,0.351v3.009h-0.568v-4.031h0.568v0.448c0.178-0.176,0.362-0.313,0.552-0.412
			c0.188-0.098,0.384-0.148,0.584-0.148c0.363,0,0.643,0.133,0.834,0.395c0.192,0.263,0.288,0.641,0.288,1.132V34.498z"/>
		<path fill="#000100" d="M21.675,34.243c-0.189,0.11-0.369,0.193-0.541,0.255c-0.17,0.061-0.352,0.091-0.543,0.091
			c-0.243,0-0.467-0.045-0.671-0.129c-0.204-0.086-0.377-0.217-0.523-0.389c-0.148-0.172-0.262-0.392-0.341-0.655
			c-0.082-0.264-0.121-0.575-0.121-0.927c0-0.658,0.151-1.177,0.455-1.552c0.304-0.376,0.702-0.562,1.201-0.562
			c0.195,0,0.384,0.032,0.57,0.096c0.187,0.064,0.357,0.146,0.514,0.238v0.754h-0.031c-0.174-0.16-0.353-0.285-0.538-0.37
			c-0.183-0.087-0.362-0.131-0.539-0.131c-0.322,0-0.577,0.129-0.763,0.388c-0.187,0.261-0.28,0.639-0.28,1.14
			c0,0.484,0.091,0.858,0.274,1.119c0.183,0.261,0.439,0.393,0.769,0.393c0.115,0,0.233-0.021,0.351-0.056
			c0.119-0.034,0.227-0.082,0.322-0.141c0.081-0.051,0.159-0.105,0.231-0.159c0.072-0.057,0.131-0.106,0.173-0.146h0.031V34.243z"/>
		<path fill="#000100" d="M25.026,34.498h-0.563v-0.429c-0.051,0.038-0.119,0.097-0.205,0.17c-0.085,0.072-0.169,0.133-0.25,0.175
			c-0.094,0.058-0.202,0.103-0.326,0.141c-0.122,0.036-0.268,0.054-0.432,0.054c-0.305,0-0.562-0.118-0.774-0.359
			c-0.212-0.242-0.318-0.548-0.318-0.922c0-0.305,0.055-0.551,0.165-0.741c0.109-0.188,0.268-0.335,0.47-0.444
			c0.206-0.107,0.453-0.18,0.742-0.221c0.288-0.038,0.597-0.068,0.929-0.086v-0.106c0-0.151-0.022-0.28-0.068-0.381
			c-0.046-0.102-0.11-0.183-0.196-0.239c-0.08-0.054-0.177-0.092-0.29-0.11c-0.112-0.021-0.231-0.028-0.353-0.028
			c-0.15,0-0.316,0.022-0.498,0.07c-0.186,0.047-0.375,0.113-0.57,0.204h-0.03v-0.688c0.11-0.036,0.271-0.077,0.481-0.122
			c0.21-0.042,0.416-0.064,0.62-0.064c0.237,0,0.444,0.024,0.621,0.071c0.176,0.047,0.328,0.127,0.456,0.24
			c0.128,0.11,0.227,0.255,0.292,0.428c0.066,0.176,0.099,0.395,0.099,0.652V34.498z M24.463,33.505v-1.121
			c-0.174,0.011-0.378,0.028-0.613,0.053c-0.234,0.024-0.421,0.061-0.56,0.104c-0.163,0.057-0.294,0.143-0.394,0.26
			c-0.103,0.114-0.151,0.275-0.151,0.48c0,0.231,0.058,0.404,0.175,0.521c0.115,0.116,0.295,0.175,0.536,0.175
			c0.198,0,0.381-0.046,0.546-0.139S24.32,33.637,24.463,33.505z"/>
		<path fill="#000100" d="M28.23,31.206h-0.032c-0.083-0.024-0.165-0.041-0.246-0.051c-0.078-0.01-0.173-0.017-0.282-0.017
			c-0.174,0-0.346,0.047-0.508,0.14c-0.162,0.092-0.32,0.213-0.472,0.357v2.862h-0.568v-4.031h0.568v0.596
			c0.226-0.217,0.427-0.37,0.598-0.461c0.174-0.089,0.348-0.135,0.527-0.135c0.099,0,0.171,0.004,0.216,0.01
			c0.043,0.006,0.11,0.019,0.199,0.034V31.206z"/>
		<path fill="#000100" d="M31.505,34.498h-0.568v-0.423c-0.164,0.168-0.334,0.299-0.511,0.395c-0.178,0.093-0.37,0.139-0.578,0.139
			c-0.404,0-0.723-0.186-0.96-0.553c-0.236-0.372-0.355-0.886-0.355-1.543c0-0.342,0.041-0.646,0.121-0.913
			c0.084-0.266,0.193-0.493,0.334-0.683c0.136-0.182,0.296-0.321,0.479-0.416c0.183-0.098,0.37-0.146,0.566-0.146
			c0.178,0,0.335,0.022,0.474,0.066c0.136,0.046,0.278,0.114,0.431,0.209v-1.746h0.568V34.498z M30.937,33.505v-2.313
			c-0.153-0.08-0.29-0.137-0.411-0.167c-0.121-0.032-0.253-0.049-0.396-0.049c-0.318,0-0.567,0.133-0.745,0.398
			c-0.176,0.264-0.265,0.638-0.265,1.125c0,0.479,0.067,0.841,0.204,1.092c0.138,0.248,0.357,0.373,0.658,0.373
			c0.163,0,0.326-0.043,0.491-0.129C30.639,33.75,30.793,33.639,30.937,33.505z"/>
	</g>
	<path fill="#E52633" d="M31.897,13.929c-0.892-5.597-7.667-9.952-15.896-9.952C7.162,3.977,0,8.994,0,15.186
		c0,6.189,7.162,11.207,16.001,11.207c0.901,0,1.785-0.053,2.646-0.151l3.924-6.325H8.381V10.42h15.892v9.496v6.293H32v-12.28
		H31.897z"/>
</g>
</svg>
