<?xml version="1.0" encoding="utf-8"?>
<!-- Generator: Adobe Illustrator 16.0.0, SVG Export Plug-In . SVG Version: 6.00 Build 0)  -->
<!DOCTYPE svg PUBLIC "-//W3C//DTD SVG 1.1//EN" "http://www.w3.org/Graphics/SVG/1.1/DTD/svg11.dtd">
<svg version="1.1" id="Capa_1" xmlns="http://www.w3.org/2000/svg" xmlns:xlink="http://www.w3.org/1999/xlink" x="0px" y="0px"
	 width="86.311px" height="40px" viewBox="0 0 86.311 40" enable-background="new 0 0 86.311 40" xml:space="preserve">
<g>
	<path fill-rule="evenodd" clip-rule="evenodd" fill="#2F2C7D" d="M26.568,16.369c0.208-0.034,0.533-0.077,1.133-0.077
		c1.13,0,1.799,0.355,1.799,1.14c0,0.74-0.671,1.223-2.071,1.223h-0.86V16.369L26.568,16.369z M24.165,24.853
		c0.537,0.079,1.451,0.161,2.727,0.161c2.152,0,3.455-0.315,4.258-0.905c0.688-0.504,1.174-1.258,1.174-2.229
		c0-1.382-0.95-2.24-2.115-2.541v-0.033c1.198-0.422,1.75-1.271,1.75-2.168c0-1.01-0.599-1.718-1.373-2.071
		c-0.769-0.384-1.615-0.528-3.183-0.528c-1.264,0-2.63,0.109-3.237,0.229V24.853L24.165,24.853z M26.568,20.371h0.913
		c1.28,0,2.277,0.366,2.277,1.394c0,1.094-1.018,1.473-2.149,1.473c-0.47,0-0.788,0-1.041-0.04V20.371L26.568,20.371z"/>
	<path fill-rule="evenodd" clip-rule="evenodd" fill="#2F2C7D" d="M83.808,24.898l-0.807-1.322
		c-0.288-0.473-0.581-0.997-0.732-1.301c-0.139,0.304-0.457,0.845-0.73,1.301l-0.802,1.322h-2.505l2.837-4.325l-2.408-3.671h2.498
		l0.38,0.649c0.292,0.474,0.578,0.996,0.73,1.295c0.151-0.299,0.459-0.821,0.732-1.295l0.387-0.649h2.49l-2.404,3.671l2.837,4.325
		H83.808L83.808,24.898z"/>
	<path fill-rule="evenodd" clip-rule="evenodd" fill="#2F2C7D" d="M38.134,22.55c-0.233,0.384-0.779,0.732-1.467,0.732
		c-0.899,0-1.219-0.505-1.219-1.064c0-0.641,0.434-1.003,1.253-1.003c0.815,0,1.312,0.274,1.433,0.329V22.55L38.134,22.55z
		 M40.235,24.898v-5.362c0-1.795-1.278-2.809-3.379-2.809c-1.564,0-2.595,0.646-2.871,0.815L34.794,19
		c0.175-0.092,0.938-0.556,2.013-0.556c0.944,0,1.327,0.46,1.327,1.016v0.429c-0.188-0.082-0.689-0.325-1.632-0.325
		c-1.676,0-3.156,0.889-3.156,2.654c0,1.934,1.48,2.85,2.905,2.85c1.13,0,1.713-0.562,1.883-0.699v0.53H40.235L40.235,24.898z"/>
	<path fill-rule="evenodd" clip-rule="evenodd" fill="#2F2C7D" d="M54.811,22.55c-0.226,0.384-0.774,0.732-1.463,0.732
		c-0.897,0-1.216-0.505-1.216-1.064c0-0.641,0.433-1.003,1.254-1.003c0.81,0,1.31,0.274,1.425,0.329V22.55L54.811,22.55z
		 M56.915,24.898v-5.362c0-1.795-1.271-2.809-3.377-2.809c-1.567,0-2.595,0.646-2.87,0.815L51.479,19
		c0.171-0.092,0.93-0.556,2.007-0.556c0.949,0,1.325,0.46,1.325,1.016v0.429c-0.182-0.082-0.682-0.325-1.626-0.325
		c-1.681,0-3.157,0.889-3.157,2.654c0,1.934,1.477,2.85,2.903,2.85c1.135,0,1.721-0.562,1.88-0.699v0.53H56.915L56.915,24.898z"/>
	<path fill-rule="evenodd" clip-rule="evenodd" fill="#2F2C7D" d="M46.721,24.898v-4.554c0-1.282-0.669-1.633-1.357-1.633
		c-0.654,0-1.371,0.384-1.371,1.586v4.601h-2.102v-7.996h2.102v0.527c0.168-0.153,0.766-0.702,1.935-0.702
		c1.67,0,2.896,0.893,2.896,3.095v5.076H46.721L46.721,24.898z"/>
	<path fill-rule="evenodd" clip-rule="evenodd" fill="#2F2C7D" d="M67.928,24.898v-4.463c0-1.274-0.464-1.724-1.278-1.724
		c-0.694,0-1.297,0.426-1.297,1.682v4.505h-2.105v-4.463c0-1.25-0.476-1.724-1.282-1.724c-0.741,0-1.294,0.432-1.294,1.682v4.505
		h-2.096v-7.996h2.096v0.527c0.153-0.129,0.803-0.702,1.914-0.702c1.337,0,1.925,0.868,2.053,1.023
		c0.133-0.116,0.996-1.023,2.48-1.023c1.687,0,2.914,1.008,2.914,3.146v5.024H67.928L67.928,24.898z"/>
	<path fill-rule="evenodd" clip-rule="evenodd" fill="#2F2C7D" d="M76.123,19.998h-2.745c0.036-0.646,0.422-1.436,1.361-1.436
		C75.681,18.562,76.062,19.279,76.123,19.998L76.123,19.998z M78.214,20.906c0-2.462-1.281-4.179-3.415-4.179
		c-2.025,0-3.564,1.724-3.564,4.179c0,2.531,1.462,4.161,3.765,4.161c1.063,0,2.226-0.47,2.861-1.297l-1.253-1.181
		c-0.106,0.113-0.61,0.692-1.593,0.692c-0.863,0-1.586-0.607-1.661-1.705h4.827C78.198,21.421,78.214,21.215,78.214,20.906
		L78.214,20.906z"/>
	<path fill-rule="evenodd" clip-rule="evenodd" fill="#E10717" d="M6.612,23.563c-0.339,0.194-0.819,0.425-1.366,0.642
		c0.601,0.579,2.01,1.729,4.117,1.729c0.464,0,0.629-0.243,0.629-0.503c0-0.354-0.348-0.544-0.889-0.708
		c-0.69-0.213-1.864-0.496-1.864-1.395c0-0.09,0.015-0.173,0.043-0.251C7.086,23.292,6.843,23.425,6.612,23.563L6.612,23.563z
		 M13.02,14.891c-0.26,0-0.462,0.232-0.462,0.474c0,0.235,0.154,0.502,0.392,0.825c0.334,0.434,0.867,1.08,0.867,1.681
		c0,0.375-0.222,0.626-0.364,0.72c0.119-0.025,0.24-0.027,0.358-0.027c0.425,0,1.178,0.11,1.957,0.308
		c-0.15-0.812-0.614-2.578-2.315-3.812C13.289,14.931,13.144,14.891,13.02,14.891L13.02,14.891z M12.258,23.869
		c0.081,0.381,0.146,0.902,0.187,1.492c0.514-0.279,1.411-0.849,2.146-1.847c0.526-0.777,0.819-1.511,0.819-1.825
		c0-0.354-0.291-0.492-0.482-0.492c-0.268,0-0.521,0.26-0.801,0.659c-0.413,0.584-1.048,1.614-1.896,1.341
		c-0.09-0.028-0.166-0.072-0.236-0.119C12.14,23.324,12.196,23.601,12.258,23.869L12.258,23.869z M11.946,20.522
		c0.344-1.074,0.741-1.573,1.152-1.799c-0.522,0.063-1.265-0.272-2.091-0.876c-0.912-0.659-1.266-1.195-1.353-1.648
		c-0.097,0.519-0.65,1.119-1.474,1.718c-0.914,0.662-1.531,0.833-1.987,0.772c0.466,0.255,0.859,0.967,1.173,1.938
		c0.19,0.569,0.271,1.025,0.271,1.384c0,0.312-0.052,0.557-0.146,0.742c0.389-0.355,1.183-0.521,2.204-0.521
		c1.131,0,1.725,0.229,2.065,0.544c-0.086-0.178-0.121-0.41-0.121-0.673C11.64,21.675,11.747,21.126,11.946,20.522L11.946,20.522z
		 M12.521,27.685c0,1.691-1.873,1.815-2.944,1.815c-1.006,0-2.25-0.192-3.211-0.638c-1.154-0.527-1.504-1.054-1.504-2.42
		c0-0.715,0.049-1.603,0.084-2.113c-0.594,0.235-1.248,0.467-1.886,0.669c-1.605,0.527-2.309-1.223-2.638-2.237
		C0.112,21.809,0,20.871,0,20.121c0-1.767,0.552-2.36,1.879-2.794c0.674-0.216,1.532-0.445,2.032-0.572
		c-0.407-0.49-0.831-1.038-1.222-1.586c-0.235-0.319-0.339-0.64-0.339-0.94c0-0.973,0.993-1.78,1.648-2.259
		c0.817-0.589,2.396-1.47,3.763-1.47c0.754,0,1.24,0.332,1.856,1.175c0.42,0.57,0.899,1.325,1.173,1.755
		c0.343-0.537,0.733-1.112,1.131-1.652c0.36-0.493,0.804-0.68,1.254-0.68c0.811,0,1.646,0.552,2.194,0.94
		c0.816,0.598,1.71,1.482,2.228,2.414c0.289,0.504,0.437,0.912,0.435,1.316c0,0.469-0.209,0.927-0.646,1.524
		c-0.412,0.573-0.977,1.261-1.305,1.656c0.617,0.159,1.281,0.355,1.92,0.561c0.877,0.288,1.141,0.969,1.141,1.688
		c0,1.411-0.93,3.466-1.923,4.542c-0.568,0.607-1.021,0.89-1.639,0.89c-0.322,0-0.688-0.064-1.134-0.214
		c-0.675-0.215-1.503-0.537-1.979-0.727C12.511,26.325,12.521,27.012,12.521,27.685L12.521,27.685z M9.716,13.641
		c-0.95,0-2.216,0.213-3.44,1.089C6.04,14.9,5.958,15.077,5.958,15.223c0,0.144,0.117,0.488,0.532,0.488
		c0.588,0,1.373-0.518,2.182-0.518c0.758,0,0.943,0.546,0.969,0.628c0.028-0.352,0.336-1.104,0.979-2.114
		C10.388,13.669,10.078,13.641,9.716,13.641L9.716,13.641z M4.117,17.007c-0.359,0.752-1.021,2.443-0.369,4.445
		c0.146,0.445,0.424,0.528,0.673,0.445c0.337-0.109,0.41-0.498,0.399-1.062c-0.014-0.728-0.102-1.929,0.742-2.202
		c0.091-0.033,0.178-0.049,0.261-0.045C5.428,18.419,4.847,17.852,4.117,17.007L4.117,17.007z"/>
</g>
</svg>
