<?xml version="1.0" encoding="utf-8"?>
<!-- Generator: Adobe Illustrator 16.0.0, SVG Export Plug-In . SVG Version: 6.00 Build 0)  -->
<!DOCTYPE svg PUBLIC "-//W3C//DTD SVG 1.1//EN" "http://www.w3.org/Graphics/SVG/1.1/DTD/svg11.dtd">
<svg version="1.1" id="Capa_1" xmlns="http://www.w3.org/2000/svg" xmlns:xlink="http://www.w3.org/1999/xlink" x="0px" y="0px"
	 width="99.48px" height="40px" viewBox="0 0 99.48 40" enable-background="new 0 0 99.48 40" xml:space="preserve">
<g>
	<g>
		<path fill="#002F87" d="M36.908,25.15V14.773h3.008c0.51,0,1,0.043,1.436,0.166c0.432,0.107,0.824,0.297,1.141,0.57
			c0.211,0.176,0.389,0.4,0.518,0.668c0.172,0.348,0.266,0.775,0.266,1.268c0,0.535-0.119,0.965-0.328,1.314
			c-0.205,0.342-0.508,0.592-0.842,0.783c-0.072,0.039-0.146,0.078-0.223,0.111c0.17,0.057,0.336,0.117,0.496,0.197
			c0.314,0.145,0.598,0.352,0.82,0.615c0.15,0.178,0.273,0.381,0.373,0.627c0.123,0.314,0.191,0.686,0.191,1.127
			c0,0.568-0.121,1.051-0.346,1.459c-0.221,0.402-0.543,0.723-0.947,0.951c-0.262,0.156-0.561,0.273-0.893,0.354
			c-0.43,0.113-0.914,0.166-1.428,0.166H36.908 M40.129,24.156c0.422,0,0.799-0.047,1.133-0.15c0.33-0.096,0.609-0.246,0.824-0.447
			c0.139-0.133,0.258-0.291,0.344-0.475c0.115-0.242,0.18-0.541,0.18-0.896c0-0.41-0.078-0.734-0.221-0.996
			c-0.148-0.262-0.355-0.467-0.641-0.617c-0.184-0.098-0.4-0.184-0.646-0.24c-0.332-0.082-0.715-0.117-1.141-0.117h-1.936v3.939
			H40.129z M39.873,19.223c0.373,0,0.709-0.037,1.012-0.115c0.305-0.082,0.562-0.211,0.756-0.383
			c0.133-0.113,0.244-0.248,0.326-0.42c0.111-0.221,0.172-0.49,0.172-0.834c0-0.385-0.078-0.68-0.211-0.912
			c-0.139-0.223-0.33-0.389-0.574-0.514c-0.162-0.088-0.352-0.152-0.555-0.195c-0.271-0.057-0.572-0.086-0.896-0.086h-1.877v3.459
			H39.873z"/>
		<path fill="#002F87" d="M50.627,18.492c-0.096-0.221-0.23-0.412-0.396-0.57c-0.24-0.234-0.551-0.404-0.912-0.508
			c-0.354-0.102-0.756-0.145-1.195-0.145c-1.484,0.01-2.322,0.439-2.867,0.748c0.402,0.85,0.828,0.645,1.377,0.406
			c0.424-0.184,0.91-0.256,1.424-0.256c0.236,0,0.494,0.053,0.746,0.105c0.148,0.041,0.279,0.096,0.391,0.158
			c0.18,0.113,0.309,0.252,0.406,0.432c0.094,0.182,0.146,0.422,0.146,0.725v1.113c-0.562-0.127-1.129-0.182-1.775-0.182
			c-0.449,0-0.865,0.043-1.25,0.135c-0.279,0.068-0.533,0.164-0.777,0.289c-0.348,0.188-0.631,0.445-0.834,0.77
			c-0.199,0.33-0.303,0.719-0.303,1.172c0,0.367,0.066,0.713,0.189,1.004c0.191,0.436,0.523,0.779,0.934,1
			c0.416,0.225,0.906,0.338,1.457,0.338h0.002c0.637,0,1.141-0.119,1.57-0.318c0.295-0.146,0.551-0.32,0.787-0.531
			c0.006,0.102,0.012,0.188,0.025,0.264c0.012,0.086,0.033,0.16,0.07,0.23c0.025,0.051,0.059,0.104,0.104,0.141
			c0.068,0.055,0.146,0.092,0.227,0.111c0.08,0.021,0.174,0.027,0.271,0.027h0.377v-5.607C50.82,19.139,50.754,18.795,50.627,18.492
			 M49.746,23.211c-0.273,0.316-0.562,0.588-0.9,0.77c-0.357,0.199-0.783,0.318-1.361,0.318c-0.232,0-0.451-0.027-0.65-0.084
			c-0.145-0.039-0.27-0.102-0.387-0.176c-0.166-0.107-0.301-0.256-0.4-0.451c-0.098-0.201-0.154-0.449-0.154-0.76
			c0-0.266,0.051-0.475,0.154-0.646c0.078-0.133,0.174-0.242,0.295-0.35c0.178-0.146,0.416-0.252,0.707-0.328
			c0.279-0.074,0.604-0.109,0.969-0.109c0.639,0,1.203,0.084,1.729,0.199V23.211z"/>
		<path fill="#002F87" d="M57.791,25.15v-5.637c0-0.316-0.043-0.551-0.127-0.725c-0.078-0.174-0.184-0.289-0.316-0.379
			c-0.092-0.055-0.197-0.1-0.312-0.129c-0.166-0.041-0.35-0.053-0.547-0.053c-0.518,0-1.025,0.141-1.518,0.367
			c-0.457,0.217-0.9,0.5-1.295,0.801v5.754H52.6v-7.799h0.512c0.053,0.004,0.105,0.004,0.156,0.012
			c0.051,0.006,0.105,0.021,0.16,0.053c0.035,0.021,0.066,0.045,0.09,0.074c0.041,0.041,0.07,0.09,0.088,0.141
			c0.023,0.072,0.043,0.148,0.055,0.229c0.012,0.113,0.016,0.244,0.016,0.414v0.082c0.355-0.264,0.754-0.498,1.203-0.693
			c0.566-0.24,1.197-0.393,1.889-0.393c0.307,0,0.604,0.033,0.881,0.121c0.271,0.088,0.527,0.236,0.729,0.467
			c0.137,0.148,0.242,0.332,0.332,0.539c0.107,0.291,0.168,0.633,0.168,1.043v5.711H57.791"/>
		<path fill="#002F87" d="M68.611,24.605c-0.576-0.4-1.018-0.988-1.27-1.719c-0.174-0.49-0.262-1.039-0.262-1.645
			c0-0.896,0.203-1.686,0.574-2.32s0.916-1.107,1.584-1.385c0.447-0.176,0.938-0.268,1.48-0.268
			c0.809-0.004,1.529,0.209,2.109,0.617c0.58,0.396,1.018,0.984,1.277,1.717c0.164,0.484,0.254,1.039,0.254,1.639
			c0,0.906-0.197,1.695-0.576,2.326c-0.369,0.627-0.916,1.1-1.58,1.369c-0.449,0.178-0.947,0.275-1.484,0.275
			C69.912,25.213,69.195,24.998,68.611,24.605 M69.215,18.645c-0.395,0.293-0.697,0.727-0.875,1.291
			c-0.121,0.379-0.18,0.814-0.18,1.307c0,0.75,0.141,1.361,0.395,1.834c0.262,0.475,0.625,0.814,1.09,1.008
			c0.312,0.131,0.668,0.205,1.074,0.205c0.602,0,1.102-0.158,1.502-0.447c0.393-0.291,0.688-0.715,0.871-1.283
			c0.115-0.377,0.18-0.818,0.18-1.316c0-0.732-0.143-1.35-0.404-1.82c-0.252-0.482-0.613-0.826-1.084-1.031
			c-0.305-0.133-0.666-0.201-1.064-0.201C70.111,18.189,69.609,18.344,69.215,18.645z"/>
		<path fill="#002F87" d="M85.221,25.15v-5.684c0-0.301-0.041-0.52-0.107-0.689c-0.068-0.168-0.156-0.279-0.279-0.367
			c-0.082-0.051-0.178-0.096-0.289-0.127c-0.146-0.039-0.324-0.055-0.531-0.055c-0.492,0-0.941,0.133-1.367,0.346
			c-0.396,0.203-0.773,0.469-1.133,0.754v5.822h-1.078v-5.684c0-0.297-0.041-0.52-0.113-0.689c-0.07-0.164-0.164-0.277-0.285-0.367
			c-0.082-0.051-0.174-0.096-0.285-0.127c-0.148-0.039-0.316-0.055-0.502-0.055c-0.514,0-0.969,0.131-1.396,0.344
			c-0.402,0.201-0.775,0.471-1.141,0.766v5.812h-1.072v-7.799h0.506c0.055,0.004,0.105,0.004,0.162,0.012
			c0.057,0.006,0.107,0.021,0.164,0.053c0.035,0.016,0.068,0.045,0.09,0.074c0.045,0.041,0.07,0.09,0.092,0.141
			c0.02,0.072,0.035,0.148,0.043,0.229c0.016,0.113,0.016,0.246,0.016,0.414v0.014c0.301-0.215,0.648-0.43,1.031-0.613
			c0.518-0.242,1.109-0.404,1.76-0.404c0.318,0,0.635,0.045,0.922,0.162c0.293,0.119,0.549,0.312,0.742,0.57
			c0.076,0.109,0.143,0.23,0.197,0.365c0.344-0.271,0.732-0.514,1.168-0.715c0.523-0.232,1.111-0.383,1.738-0.383
			c0.305,0,0.596,0.039,0.861,0.131c0.26,0.092,0.502,0.246,0.693,0.459c0.127,0.141,0.232,0.309,0.312,0.5
			c0.098,0.264,0.15,0.561,0.15,0.906v5.885H85.221"/>
		<path fill="#002F87" d="M26.635,21.389l1.418-4.732l1.436,4.732H26.635 M30.299,15.83c-0.285-0.852-0.447-1.053-1.26-1.053h-1.982
			L23.881,25.15h1.617l0.682-2.232h3.771l0.686,2.232h2.811L30.299,15.83z"/>
		<path fill="#002F87" d="M11.221,23.77v-7.643h1.334c0.643,0,1.197,0.529,1.197,1.17c0,0.225-0.043,0.436-0.262,0.752l-0.865,1.295
			c0.904,0.219,1.508,0.906,1.508,2.193c0,1.564-0.936,2.232-2.172,2.232H11.221 M14.578,18.842l0.51-0.75
			c1.068-1.592,0.332-3.316-1.787-3.316H8.779v10.379h4.361C16.975,25.154,18.125,20.689,14.578,18.842"/>
		<path fill="#002F87" d="M3.178,23.77H2.445v-7.643h1.326c0.645,0,1.201,0.529,1.201,1.17c0,0.225-0.041,0.436-0.264,0.752
			L3.84,19.344c0.908,0.219,1.51,0.906,1.51,2.193C5.35,23.102,4.416,23.77,3.178,23.77 M5.795,18.842l0.506-0.75
			c1.074-1.592,0.34-3.316-1.785-3.316H0v10.379h4.361C8.191,25.154,9.352,20.689,5.795,18.842"/>
		<path fill="#002F87" d="M19.141,16.127c-0.369-1.168-0.555-1.352-1.264-1.352h-1.834l3.396,10.375h2.494l3.16-10.375h-1.639
			l-2.344,7.881L19.141,16.127"/>
		<line fill="#002F87" x1="0" y1="14.775" x2="4.359" y2="14.775"/>
		<path fill="#002F87" d="M66.291,18.076c-0.4,0.85-0.787,0.57-1.334,0.334c-0.295-0.123-0.678-0.209-1.184-0.209
			c-0.592,0-1.098,0.154-1.504,0.449c-0.406,0.291-0.719,0.719-0.9,1.279c-0.129,0.375-0.201,0.807-0.201,1.299
			c0,0.557,0.084,1.047,0.23,1.453c0.152,0.41,0.367,0.738,0.643,0.992c0.186,0.168,0.393,0.301,0.631,0.4
			c0.322,0.131,0.682,0.199,1.102,0.199c0.553,0,0.975-0.123,1.295-0.279c0.533-0.275,0.896-0.588,1.357,0.23
			c-0.195,0.186-0.521,0.438-0.873,0.605c-0.053,0.025-0.107,0.047-0.164,0.07c-0.432,0.182-0.982,0.312-1.648,0.312h-0.002
			c-0.848,0-1.574-0.217-2.158-0.617c-0.582-0.408-1.008-0.996-1.256-1.73c-0.162-0.488-0.244-1.043-0.244-1.637
			c-0.002-0.91,0.207-1.699,0.594-2.328c0.383-0.627,0.945-1.094,1.619-1.369c0.451-0.17,0.955-0.262,1.492-0.262
			C64.094,17.283,65.195,17.184,66.291,18.076"/>
		<path fill="#002F87" d="M93.986,19.305c-0.113-0.346-0.264-0.646-0.459-0.908c-0.287-0.383-0.656-0.668-1.086-0.865
			c-0.434-0.176-0.93-0.262-1.455-0.262c-0.502,0-0.969,0.094-1.395,0.281c-0.631,0.277-1.16,0.756-1.525,1.396
			c-0.361,0.635-0.561,1.424-0.561,2.328c0,0.586,0.076,1.127,0.236,1.615c0.236,0.723,0.654,1.309,1.238,1.709
			c0.576,0.398,1.32,0.613,2.186,0.613h0.004c0.693,0,1.26-0.111,1.721-0.275c0.736-0.277,1.113-0.617,1.297-0.814
			c-0.504-0.732-0.787-0.439-1.371-0.172c-0.338,0.17-0.99,0.311-1.578,0.311c-0.449,0-0.838-0.066-1.162-0.191
			c-0.246-0.09-0.457-0.219-0.643-0.379c-0.271-0.242-0.486-0.555-0.625-0.959c-0.129-0.357-0.199-0.783-0.213-1.279h5.613v-0.178
			c0,0,0-0.02,0-0.045c0-0.066,0.01-0.189,0.01-0.309C94.219,20.305,94.143,19.77,93.986,19.305 M88.627,20.545
			c0.049-0.355,0.131-0.668,0.244-0.947c0.201-0.482,0.49-0.834,0.844-1.068c0.359-0.242,0.779-0.357,1.271-0.357
			c0.324,0,0.625,0.045,0.877,0.135c0.191,0.072,0.365,0.166,0.516,0.299c0.229,0.191,0.406,0.445,0.541,0.799
			c0.111,0.309,0.191,0.68,0.217,1.141H88.627z"/>
		<path fill="#002F87" d="M98.809,17.299c-0.57-0.002-1.074,0.176-1.504,0.443c-0.279,0.174-0.535,0.381-0.76,0.604
			c0-0.186-0.004-0.33-0.021-0.449c-0.004-0.094-0.021-0.168-0.047-0.246c-0.016-0.047-0.041-0.1-0.08-0.146
			c-0.027-0.029-0.059-0.057-0.094-0.078c-0.051-0.033-0.105-0.053-0.166-0.061c-0.049-0.006-0.102-0.006-0.154-0.014h-0.514v7.803
			h1.076v-5.598c0.377-0.447,0.727-0.723,0.969-0.873c0.006-0.006,0.014-0.01,0.023-0.016c0.436-0.275,0.783-0.352,1.061-0.379
			c0.498-0.049,0.836-0.113,0.883-0.891C99.281,17.338,99.053,17.303,98.809,17.299"/>
	</g>
</g>
</svg>
