<?xml version="1.0" encoding="utf-8"?>
<!-- Generator: Adobe Illustrator 16.0.0, SVG Export Plug-In . SVG Version: 6.00 Build 0)  -->
<!DOCTYPE svg PUBLIC "-//W3C//DTD SVG 1.1//EN" "http://www.w3.org/Graphics/SVG/1.1/DTD/svg11.dtd">
<svg version="1.1" id="Capa_1" xmlns="http://www.w3.org/2000/svg" xmlns:xlink="http://www.w3.org/1999/xlink" x="0px" y="0px"
	 width="80.578px" height="40px" viewBox="0 0 80.578 40" enable-background="new 0 0 80.578 40" xml:space="preserve">
<g>
	<path fill="#E32016" d="M11.711,20.808l0.083,0.57c1.25,0.455,2.051,1.154,2.051,1.938c0,1.376-2.469,2.49-5.514,2.49
		s-5.514-1.114-5.514-2.49c0-0.787,0.808-1.488,2.068-1.945c0.018-0.173,0.043-0.405,0.06-0.562
		c-2.897,0.71-4.916,2.302-4.916,4.151c0,2.511,3.717,4.546,8.302,4.546s8.302-2.035,8.302-4.546
		C16.632,23.108,14.611,21.517,11.711,20.808z"/>
</g>
<g>
	<g>
		<g>
			<path fill="#215384" d="M18.667,25.987V16.34h4.742c2.234,0,4.018,0.519,4.018,2.436c0,0.988-0.662,1.712-1.3,2.097
				c1.071,0.269,1.657,1.164,1.657,2.215c0,2.147-1.7,2.9-4.28,2.9H18.667z M21.918,18.597v1.602h1.352
				c0.653,0,1.118-0.273,1.118-0.839c0-0.744-0.632-0.763-1.321-0.763H21.918z M21.918,21.956v1.78h1.422
				c0.8,0,1.409-0.157,1.409-0.878c0-0.853-0.763-0.902-1.795-0.902H21.918z"/>
		</g>
		<g>
			<path fill="#215384" d="M33.937,25.987l-0.142-0.779c-0.827,0.766-1.66,0.989-2.754,0.989c-1.394,0-2.619-0.683-2.619-2.218
				c0-3.316,5.217-1.815,5.217-3.179c0-0.532-0.64-0.603-0.944-0.603c-0.407,0-0.955,0.077-1.024,0.705h-2.804
				c0-1.548,1.107-2.453,3.999-2.453c3.472,0,3.688,1.28,3.688,3.032v3.434c0,0.412,0.006,0.628,0.391,0.936v0.136H33.937z
				 M33.639,22.74c-0.944,0.458-2.203,0.24-2.203,1.193c0,0.357,0.343,0.61,0.92,0.61C33.376,24.544,33.715,23.747,33.639,22.74z"/>
		</g>
		<g>
			<path fill="#215384" d="M37.582,18.656h2.666v1.146c0.651-0.875,1.367-1.352,2.47-1.352c1.937,0,2.841,1.126,2.841,3.147v4.39
				h-2.909v-3.878c0-0.729-0.198-1.363-1.021-1.363c-0.9,0-1.139,0.564-1.139,1.502v3.739h-2.907V18.656z"/>
		</g>
		<g>
			<path fill="#215384" d="M49.473,22.98c0,0.865,0.684,1.44,1.448,1.44c0.458,0,0.882-0.212,1.088-0.643H54.8
				c-0.51,1.82-2.354,2.419-4.067,2.419c-2.35,0-4.171-1.346-4.171-3.799c0-2.413,1.807-3.948,4.158-3.948
				c2.717,0,4.353,1.874,4.315,4.53H49.473z M52.123,21.497c0-0.671-0.606-1.274-1.288-1.274c-0.871,0-1.362,0.493-1.362,1.274
				H52.123z"/>
		</g>
		<g>
			<path fill="#215384" d="M58.168,23.71c0,0.292,0.105,0.515,0.306,0.667c0.186,0.146,0.43,0.228,0.716,0.228
				c0.443,0,0.919-0.146,0.919-0.658c0-1.171-4.494-0.236-4.494-3.08c0-1.871,1.946-2.416,3.475-2.416
				c1.597,0,3.468,0.359,3.64,2.301h-2.65c-0.022-0.237-0.123-0.397-0.276-0.528c-0.149-0.12-0.359-0.182-0.587-0.182
				c-0.505,0-0.825,0.157-0.825,0.52c0,1.022,4.63,0.339,4.63,3.078c0,1.521-1.258,2.559-3.949,2.559
				c-1.67,0-3.522-0.517-3.677-2.487H58.168z"/>
		</g>
		<g>
			<path fill="#215384" d="M68.718,21.456c-0.018-0.315-0.132-0.571-0.31-0.757c-0.184-0.189-0.437-0.29-0.76-0.29
				c-1.091,0-1.274,1.124-1.274,1.995c0,1.104,0.421,1.835,1.274,1.835c0.76,0,1.052-0.513,1.135-1.092h2.94
				c-0.253,2.232-2.045,3.05-4.075,3.05c-2.365,0-4.183-1.33-4.183-3.799c0-2.515,1.765-3.948,4.183-3.948
				c1.957,0,3.81,0.837,4.017,3.006H68.718z"/>
		</g>
		<g>
			<path fill="#215384" d="M76.393,18.45c2.587,0,4.186,1.517,4.186,3.798c0,2.689-1.82,3.949-4.168,3.949
				c-2.35,0-4.171-1.281-4.171-3.793C72.239,19.861,73.921,18.45,76.393,18.45z M75.151,22.248c0,1.391,0.513,1.991,1.259,1.991
				c0.781,0,1.26-0.601,1.26-1.991c0-1.074-0.479-1.888-1.23-1.839C75.443,20.409,75.151,21.429,75.151,22.248z"/>
		</g>
	</g>
	<path fill="#E32016" d="M10.947,21.669c0,1.466-1.19,2.656-2.655,2.656c-1.472,0-2.662-1.19-2.662-2.656
		c0-1.471,1.19-2.653,2.662-2.653C9.757,19.016,10.947,20.198,10.947,21.669z"/>
	<path fill="#215384" d="M10.818,14.881c-1.488,0-2.684,1.209-2.684,2.694c0,0.182,0.009,0.342,0.048,0.513
		c0.05-0.002,0.117-0.002,0.171-0.002c1.431,0,2.653,0.853,3.205,2.076c1.128-0.322,1.952-1.361,1.952-2.587
		C13.511,16.09,12.311,14.881,10.818,14.881z"/>
	<path fill="#2A9E38" d="M9.151,13.156c0,1.462-1.191,2.652-2.657,2.652c-1.469,0-2.66-1.19-2.66-2.652
		c0-1.463,1.191-2.656,2.66-2.656C7.96,10.5,9.151,11.693,9.151,13.156z"/>
</g>
</svg>
