<?xml version="1.0" encoding="utf-8"?>
<!-- Generator: Adobe Illustrator 16.0.0, SVG Export Plug-In . SVG Version: 6.00 Build 0)  -->
<!DOCTYPE svg PUBLIC "-//W3C//DTD SVG 1.1//EN" "http://www.w3.org/Graphics/SVG/1.1/DTD/svg11.dtd">
<svg version="1.1" id="Capa_1" xmlns="http://www.w3.org/2000/svg" xmlns:xlink="http://www.w3.org/1999/xlink" x="0px" y="0px"
	 width="94.031px" height="40px" viewBox="0 0 94.031 40" enable-background="new 0 0 94.031 40" xml:space="preserve">
<g>
	<g>
		<g>
			<path fill="#002F87" d="M26.594,21.397l1.416-4.729l1.436,4.729H26.594 M30.254,15.847c-0.285-0.852-0.447-1.051-1.258-1.051
				h-1.98l-3.17,10.355h1.613l0.68-2.23h3.768l0.684,2.23h2.809L30.254,15.847z"/>
			<path fill="#002F87" d="M11.205,23.771v-7.627h1.33c0.643,0,1.195,0.525,1.195,1.164c0,0.225-0.043,0.436-0.262,0.75
				l-0.863,1.295c0.904,0.217,1.506,0.904,1.506,2.191c0,1.562-0.934,2.227-2.168,2.227H11.205 M14.557,18.853l0.508-0.748
				c1.068-1.59,0.332-3.311-1.783-3.311H8.766v10.359h4.355C16.951,25.153,18.098,20.694,14.557,18.853"/>
			<path fill="#002F87" d="M3.172,23.771h-0.73v-7.627h1.324c0.643,0,1.199,0.525,1.199,1.164c0,0.225-0.041,0.436-0.264,0.75
				l-0.867,1.295c0.906,0.217,1.508,0.904,1.508,2.191C5.342,23.106,4.408,23.771,3.172,23.771 M5.787,18.853l0.506-0.748
				c1.072-1.59,0.338-3.311-1.783-3.311H0v10.359h4.355C8.178,25.153,9.338,20.694,5.787,18.853"/>
			<path fill="#002F87" d="M19.113,16.144c-0.367-1.168-0.555-1.35-1.264-1.35h-1.83l3.391,10.357h2.49l3.156-10.357H23.42
				l-2.34,7.867L19.113,16.144"/>
			<line fill="#002F87" x1="0" y1="14.794" x2="4.354" y2="14.794"/>
		</g>
	</g>
	<g>
		<path fill-rule="evenodd" clip-rule="evenodd" fill="#002F87" d="M41.684,15.228c-0.627-0.275-1.293-0.361-1.969-0.369
			c-0.881-0.008-1.764,0-2.645,0c-0.264,0-0.264,0-0.264,0.268c0,2.934,0,5.867,0,8.803c0,0.322,0.01,0.643-0.004,0.963
			c-0.01,0.195,0.064,0.254,0.248,0.242c0.209-0.014,0.418-0.012,0.625,0c0.166,0.01,0.227-0.039,0.225-0.221
			c-0.008-1.234-0.006-2.469-0.006-3.703c0-0.068,0-0.135,0-0.219c0.1-0.008,0.18-0.018,0.26-0.018c0.416,0,0.83,0.004,1.246,0
			c0.568-0.006,1.133-0.025,1.686-0.168c0.979-0.252,1.707-0.785,2.01-1.793c0.158-0.525,0.18-1.066,0.125-1.607
			C43.121,16.396,42.635,15.646,41.684,15.228z M41.982,18.88c-0.27,0.682-0.832,1-1.506,1.064c-0.812,0.076-1.633,0.061-2.447,0.09
			c-0.158,0.006-0.135-0.098-0.135-0.189c0-0.838,0-1.676,0-2.514c0-0.496,0-0.99,0-1.521c0.941,0.047,1.855-0.084,2.758,0.115
			c0.963,0.215,1.439,0.777,1.492,1.77C42.166,18.099,42.133,18.499,41.982,18.88z"/>
		<path fill-rule="evenodd" clip-rule="evenodd" fill="#002F87" d="M91.299,19.228c-0.074-0.902-0.58-1.529-1.453-1.764
			c-0.936-0.252-1.869-0.178-2.795,0.062c-0.432,0.111-0.838,0.289-1.217,0.521c0.186,0.537,0.527,0.701,1.031,0.518
			c0.066-0.025,0.131-0.053,0.193-0.08c0.65-0.287,1.326-0.365,2.027-0.248c0.512,0.088,0.953,0.289,1.113,0.826
			c0.162,0.533,0.076,1.084,0.086,1.652c-0.084-0.01-0.145-0.016-0.203-0.025c-0.932-0.16-1.863-0.219-2.793-0.012
			c-1.066,0.236-1.891,0.906-1.92,2.119c-0.018,0.668,0.137,1.275,0.646,1.748c0.467,0.434,1.035,0.617,1.666,0.652
			c0.906,0.051,1.736-0.137,2.453-0.723c0.037-0.027,0.08-0.047,0.125-0.074c0.014,0.035,0.025,0.051,0.027,0.066
			c0.035,0.613,0.309,0.672,0.768,0.662c0.02,0,0.039,0,0.057,0c0.172,0.023,0.225-0.043,0.223-0.219
			c-0.006-1.625-0.002-3.252-0.006-4.875C91.328,19.767,91.32,19.497,91.299,19.228z M90.016,23.511
			c-0.701,0.693-1.545,0.91-2.494,0.752c-0.674-0.113-1.078-0.602-1.102-1.285c-0.025-0.809,0.373-1.299,1.219-1.488
			c0.643-0.146,1.285-0.104,1.93-0.023c0.193,0.025,0.383,0.068,0.576,0.098c0.104,0.018,0.15,0.07,0.148,0.178
			c-0.008,0.227-0.004,0.453-0.004,0.68h0.002c0,0.145-0.016,0.291,0.004,0.434C90.332,23.136,90.207,23.323,90.016,23.511z"/>
		<path fill-rule="evenodd" clip-rule="evenodd" fill="#002F87" d="M54.18,17.704c-0.699-0.354-1.445-0.449-2.219-0.357
			c-1.25,0.146-2.168,0.764-2.705,1.906c-0.43,0.916-0.484,1.885-0.346,2.879c0.268,1.865,1.633,3.059,3.521,3.057
			c0.094,0,0.188,0.004,0.281-0.002s0.188-0.018,0.283-0.031c1.307-0.168,2.24-0.854,2.738-2.076
			c0.434-1.07,0.443-2.172,0.129-3.273C55.598,18.874,55.055,18.146,54.18,17.704z M54.635,23.028
			c-0.404,0.795-1.072,1.201-1.943,1.27c-0.744,0.059-1.428-0.109-1.979-0.652c-0.43-0.43-0.65-0.969-0.744-1.557
			c-0.121-0.746-0.102-1.492,0.141-2.217c0.424-1.258,1.482-1.781,2.68-1.646c1.199,0.131,1.916,0.965,2.131,2.115
			c0.059,0.307,0.074,0.621,0.109,0.932C55.012,21.888,54.914,22.478,54.635,23.028z"/>
		<path fill-rule="evenodd" clip-rule="evenodd" fill="#002F87" d="M73.832,18.954c-0.08-0.822-0.602-1.406-1.4-1.57
			c-0.869-0.176-1.703-0.02-2.504,0.326c-0.412,0.178-0.799,0.416-1.232,0.646c0-0.1,0.006-0.193,0-0.285
			c-0.008-0.1-0.02-0.199-0.037-0.299c-0.043-0.229-0.164-0.34-0.396-0.357c-0.137-0.012-0.275,0.002-0.414-0.008
			c-0.148-0.01-0.193,0.047-0.191,0.195c0.008,0.625,0.004,1.248,0.004,1.871c0,1.801,0,3.602,0,5.404c0,0.252,0,0.252,0.26,0.252
			c0.176,0,0.354,0,0.529,0c0.246,0,0.248,0,0.248-0.248c0-1.758,0-3.514-0.004-5.271c0-0.141,0.037-0.238,0.158-0.311
			c0.373-0.221,0.73-0.473,1.117-0.664c0.596-0.293,1.223-0.457,1.896-0.367c0.553,0.074,0.877,0.385,0.936,0.941
			c0.018,0.174,0.029,0.352,0.029,0.527c0.002,1.713,0.002,3.426,0.002,5.139c0,0.254,0,0.254,0.262,0.254
			c0.184,0,0.365-0.01,0.547,0.004c0.18,0.014,0.234-0.043,0.234-0.23c-0.006-1.744-0.002-3.488-0.006-5.232
			C73.869,19.433,73.857,19.192,73.832,18.954z"/>
		<path fill-rule="evenodd" clip-rule="evenodd" fill="#002F87" d="M62.211,17.989c-0.693,1.785-1.404,3.566-2.109,5.348
			c-0.023,0.061-0.051,0.117-0.096,0.211c-0.049-0.117-0.082-0.191-0.111-0.268c-0.699-1.764-1.398-3.529-2.088-5.297
			c-0.246-0.625-0.65-0.729-1.299-0.537c0.021,0.059,0.039,0.105,0.057,0.15c0.387,0.984,0.773,1.967,1.162,2.947
			c0.578,1.467,1.16,2.934,1.736,4.402c0.053,0.137,0.123,0.197,0.275,0.188c0.182-0.014,0.367-0.012,0.547,0
			c0.139,0.006,0.211-0.037,0.264-0.176c0.967-2.457,1.938-4.912,2.906-7.367c0.02-0.049,0.031-0.1,0.049-0.15
			C62.852,17.257,62.455,17.366,62.211,17.989z"/>
		<path fill-rule="evenodd" clip-rule="evenodd" fill="#002F87" d="M80.383,23.862c-0.584,0.334-1.199,0.465-1.865,0.406
			c-0.854-0.072-1.527-0.449-1.908-1.223c-0.516-1.053-0.539-2.152-0.137-3.242c0.355-0.965,1.074-1.484,2.105-1.572
			c0.613-0.055,1.184,0.07,1.736,0.33c0.441,0.205,0.705,0.096,0.934-0.328c0.057-0.098,0.045-0.158-0.051-0.215
			c-0.178-0.105-0.346-0.23-0.531-0.324c-0.738-0.375-1.525-0.436-2.334-0.348c-1.275,0.141-2.234,0.766-2.768,1.938
			c-0.559,1.232-0.549,2.508-0.09,3.768c0.373,1.023,1.107,1.693,2.162,1.99c0.77,0.215,1.541,0.203,2.311,0.004
			c0.564-0.146,1.061-0.414,1.49-0.824C81.146,23.69,80.865,23.589,80.383,23.862z"/>
		<path fill-rule="evenodd" clip-rule="evenodd" fill="#002F87" d="M48.367,17.409c-0.291-0.023-0.59-0.064-0.879-0.037
			c-0.67,0.068-1.219,0.408-1.715,0.842c-0.053,0.047-0.109,0.086-0.18,0.137c-0.023-0.215-0.035-0.398-0.062-0.576
			c-0.037-0.221-0.152-0.338-0.371-0.361c-0.199-0.021-0.4-0.02-0.627-0.031c0,0.113,0,0.188,0,0.264c0,1.17,0,2.34,0,3.512
			c0,1.26,0.002,2.52-0.004,3.777c-0.002,0.148,0.041,0.205,0.189,0.199c0.201-0.012,0.404-0.004,0.605-0.004
			c0.248,0,0.25,0,0.25-0.248c0-1.699,0-3.398-0.002-5.098c0-0.141,0.033-0.25,0.131-0.355c0.584-0.639,1.254-1.096,2.15-1.158
			c0.406-0.029,0.629-0.301,0.625-0.711C48.479,17.507,48.41,17.415,48.367,17.409z"/>
		<path fill-rule="evenodd" clip-rule="evenodd" fill="#002F87" d="M94.014,15.294c-0.023-0.242-0.127-0.365-0.367-0.41
			c-0.129-0.025-0.262-0.023-0.395-0.025C93,14.854,93,14.858,93,15.116c0,1.623,0,3.246,0,4.871c0,1.139,0,2.277,0,3.416
			c0,0.51,0.004,1.021-0.002,1.531c-0.002,0.143,0.043,0.207,0.193,0.199c0.184-0.012,0.367-0.004,0.549-0.004
			c0.291,0,0.291,0,0.291-0.285c0-3.072,0-6.145,0-9.213C94.031,15.521,94.025,15.405,94.014,15.294z"/>
		<path fill-rule="evenodd" clip-rule="evenodd" fill="#002F87" d="M65.152,17.407c-0.025,0-0.049,0-0.074,0
			c-0.254,0-0.254,0-0.254,0.246c0,1.201,0,2.404,0,3.607c0,1.221,0.004,2.445-0.002,3.666c-0.002,0.152,0.041,0.215,0.201,0.207
			c0.205-0.012,0.414-0.014,0.621,0c0.174,0.01,0.221-0.053,0.221-0.225c-0.004-2.262-0.002-4.521-0.002-6.783
			C65.863,17.556,65.715,17.407,65.152,17.407z"/>
		<path fill-rule="evenodd" clip-rule="evenodd" fill="#002F87" d="M83.924,21.347c0-1.037,0.002-2.076-0.002-3.113
			c-0.004-0.705-0.129-0.82-0.805-0.83c-0.195-0.002-0.24,0.064-0.236,0.248c0.008,1.203,0.004,2.406,0.004,3.607
			c0,1.215,0.004,2.43-0.004,3.645c-0.004,0.184,0.055,0.242,0.234,0.23c0.189-0.014,0.379-0.014,0.566,0
			c0.182,0.012,0.248-0.035,0.246-0.236C83.918,23.714,83.924,22.53,83.924,21.347z"/>
		<path fill-rule="evenodd" clip-rule="evenodd" fill="#002F87" d="M65.346,15.306c-0.357,0.006-0.637,0.291-0.635,0.658
			c0.002,0.361,0.283,0.629,0.654,0.625c0.371-0.002,0.645-0.27,0.646-0.639C66.014,15.591,65.715,15.304,65.346,15.306z"/>
		<path fill-rule="evenodd" clip-rule="evenodd" fill="#002F87" d="M83.406,15.306c-0.367,0.002-0.635,0.275-0.635,0.645
			c0,0.381,0.256,0.637,0.631,0.641c0.385,0.002,0.656-0.268,0.65-0.646C84.049,15.579,83.771,15.306,83.406,15.306z"/>
	</g>
</g>
</svg>
