<?xml version="1.0" encoding="utf-8"?>
<!-- Generator: Adobe Illustrator 16.0.0, SVG Export Plug-In . SVG Version: 6.00 Build 0)  -->
<!DOCTYPE svg PUBLIC "-//W3C//DTD SVG 1.1//EN" "http://www.w3.org/Graphics/SVG/1.1/DTD/svg11.dtd">
<svg version="1.1" id="Capa_1" xmlns="http://www.w3.org/2000/svg" xmlns:xlink="http://www.w3.org/1999/xlink" x="0px" y="0px"
	 width="67.07px" height="40px" viewBox="0 0 67.07 40" enable-background="new 0 0 67.07 40" xml:space="preserve">
<g id="g99_1_">
	<g id="g101_1_">
		<path id="path103_1_" fill="#F29220" d="M13.79,21.692c-0.929,3.755-4.729,6.035-8.481,5.095C1.555,25.86-0.728,22.062,0.21,18.31
			c0.933-3.757,4.733-6.037,8.481-5.099C12.446,14.14,14.729,17.938,13.79,21.692z"/>
		<g id="g105_1_">
			<g id="g107_1_">
				<path id="path109_1_" fill="#FFFFFF" d="M10.088,18.998c0.142-0.931-0.568-1.43-1.539-1.765l0.316-1.262l-0.772-0.194
					l-0.305,1.238c-0.204-0.06-0.411-0.104-0.616-0.147l0.312-1.235l-0.771-0.191l-0.318,1.255c-0.162-0.033-0.33-0.069-0.484-0.112
					v-0.006L4.85,16.313l-0.206,0.825c0,0,0.568,0.131,0.557,0.142c0.315,0.068,0.371,0.275,0.36,0.444L5.2,19.16
					c0.021,0.008,0.054,0.018,0.08,0.021c-0.021-0.001-0.053-0.007-0.08-0.013L4.695,21.18c-0.033,0.096-0.134,0.232-0.347,0.18
					c0.007,0.013-0.562-0.141-0.562-0.141l-0.379,0.884l1.002,0.247c0.184,0.043,0.363,0.1,0.543,0.144l-0.319,1.271l0.771,0.198
					l0.315-1.264c0.209,0.055,0.41,0.105,0.609,0.151l-0.312,1.26L6.783,24.3l0.322-1.267c1.31,0.245,2.292,0.144,2.706-1.035
					c0.335-0.961-0.015-1.509-0.704-1.868C9.606,20.018,9.989,19.687,10.088,18.998L10.088,18.998z M8.336,21.467
					c-0.242,0.949-1.846,0.437-2.367,0.307l0.421-1.69C6.91,20.213,8.58,20.471,8.336,21.467z M8.569,18.984
					c-0.217,0.869-1.551,0.432-1.986,0.326l0.384-1.537C7.399,17.878,8.8,18.081,8.569,18.984z"/>
			</g>
		</g>
	</g>
</g>
<path id="path113_1_" fill="#4E4E4E" d="M20.523,17.233c0.563,0,1.053,0.108,1.464,0.309c0.418,0.198,0.763,0.464,1.031,0.811
	c0.269,0.344,0.472,0.746,0.6,1.208c0.13,0.46,0.193,0.953,0.193,1.484c0,0.821-0.141,1.589-0.449,2.316
	c-0.297,0.731-0.71,1.356-1.229,1.897c-0.521,0.538-1.139,0.956-1.846,1.269C19.582,26.845,18.815,27,17.983,27
	c-0.103,0-0.288-0.004-0.556-0.011c-0.266-0.007-0.569-0.027-0.91-0.079c-0.347-0.049-0.708-0.121-1.093-0.208
	c-0.387-0.097-0.745-0.229-1.091-0.389l3.064-12.891l2.747-0.421l-1.098,4.571c0.239-0.104,0.476-0.188,0.707-0.246
	C19.997,17.27,20.249,17.233,20.523,17.233L20.523,17.233z M18.218,24.818c0.414,0,0.805-0.099,1.166-0.298
	c0.365-0.199,0.689-0.472,0.953-0.81c0.264-0.34,0.471-0.719,0.628-1.139c0.156-0.43,0.227-0.871,0.227-1.333
	c0-0.563-0.09-1.012-0.279-1.332c-0.188-0.317-0.539-0.473-1.044-0.473c-0.173,0-0.386,0.027-0.65,0.082
	c-0.265,0.06-0.508,0.188-0.714,0.381l-1.176,4.852c0.07,0.008,0.133,0.023,0.188,0.036c0.056,0.014,0.112,0.023,0.169,0.027
	c0.061,0.002,0.129,0.006,0.218,0.006C17.982,24.818,18.088,24.818,18.218,24.818L18.218,24.818z"/>
<path id="path115_1_" fill="#4E4E4E" d="M26.666,26.753h-2.623l2.213-9.323H28.9L26.666,26.753z M27.938,16.3
	c-0.361,0-0.695-0.114-0.988-0.328c-0.298-0.219-0.448-0.554-0.448-1.001c0-0.247,0.056-0.485,0.153-0.702
	c0.104-0.217,0.234-0.404,0.401-0.57c0.16-0.153,0.356-0.282,0.572-0.379c0.225-0.097,0.452-0.144,0.702-0.144
	c0.369,0,0.7,0.11,0.99,0.327c0.298,0.223,0.448,0.559,0.448,1.006c0,0.244-0.057,0.479-0.151,0.698
	c-0.107,0.222-0.239,0.408-0.399,0.568c-0.17,0.158-0.364,0.282-0.572,0.383C28.421,16.248,28.193,16.3,27.938,16.3L27.938,16.3z"/>
<path id="path117_1_" fill="#4E4E4E" d="M31.2,15.113l2.747-0.431l-0.679,2.747h2.941l-0.532,2.16h-2.922l-0.777,3.26
	c-0.072,0.272-0.112,0.525-0.122,0.767c-0.016,0.234,0.012,0.438,0.081,0.608c0.07,0.176,0.196,0.309,0.385,0.396
	c0.186,0.099,0.447,0.145,0.785,0.145c0.283,0,0.561-0.021,0.83-0.083c0.265-0.05,0.534-0.125,0.807-0.215l0.195,2.02
	c-0.358,0.13-0.741,0.238-1.158,0.339c-0.412,0.087-0.901,0.143-1.463,0.143c-0.82,0-1.45-0.124-1.897-0.369
	c-0.456-0.239-0.775-0.57-0.964-0.996c-0.187-0.412-0.272-0.896-0.247-1.442c0.027-0.536,0.104-1.115,0.247-1.712L31.2,15.113z"/>
<path id="path119_1_" fill="#4E4E4E" d="M36.097,23.035c0-0.807,0.129-1.562,0.39-2.276c0.258-0.709,0.629-1.322,1.118-1.857
	c0.481-0.528,1.071-0.952,1.763-1.258c0.685-0.302,1.464-0.46,2.313-0.46c0.532,0,1.004,0.047,1.426,0.153
	c0.419,0.097,0.802,0.229,1.139,0.4l-0.903,2.05c-0.231-0.093-0.477-0.178-0.731-0.258c-0.257-0.081-0.566-0.111-0.928-0.111
	c-0.881,0-1.568,0.296-2.086,0.901c-0.517,0.604-0.775,1.416-0.775,2.428c0,0.605,0.13,1.087,0.392,1.466
	c0.259,0.369,0.74,0.553,1.435,0.553c0.346,0,0.677-0.03,0.992-0.102c0.321-0.072,0.605-0.165,0.852-0.266l0.196,2.11
	c-0.332,0.129-0.692,0.241-1.098,0.339C41.188,26.95,40.705,27,40.156,27c-0.735,0-1.353-0.104-1.865-0.317
	c-0.506-0.217-0.924-0.495-1.253-0.86c-0.329-0.356-0.574-0.784-0.72-1.271C36.174,24.071,36.097,23.566,36.097,23.035
	L36.097,23.035z"/>
<path id="path121_1_" fill="#4E4E4E" d="M47.746,27c-0.623,0-1.166-0.091-1.629-0.284c-0.46-0.191-0.839-0.457-1.146-0.793
	c-0.298-0.345-0.524-0.75-0.677-1.219c-0.158-0.47-0.234-0.984-0.234-1.547c0-0.708,0.117-1.422,0.347-2.132
	c0.229-0.708,0.568-1.343,1.019-1.909c0.452-0.569,0.998-1.035,1.648-1.392c0.649-0.365,1.396-0.543,2.231-0.543
	c0.617,0,1.159,0.101,1.622,0.288c0.467,0.188,0.851,0.457,1.156,0.795c0.295,0.339,0.527,0.744,0.678,1.213
	c0.155,0.467,0.232,0.984,0.232,1.548c0,0.71-0.11,1.424-0.336,2.132c-0.223,0.705-0.555,1.34-0.994,1.916
	c-0.435,0.563-0.984,1.027-1.64,1.382C49.369,26.82,48.612,27,47.748,27H47.746z M49.06,19.416c-0.389,0-0.735,0.11-1.025,0.338
	c-0.3,0.219-0.546,0.507-0.746,0.852c-0.203,0.345-0.352,0.716-0.453,1.127c-0.103,0.399-0.152,0.789-0.152,1.157
	c0,0.592,0.101,1.053,0.286,1.385c0.188,0.329,0.533,0.491,1.026,0.491c0.39,0,0.732-0.11,1.029-0.34
	c0.294-0.217,0.54-0.505,0.742-0.85c0.202-0.336,0.356-0.717,0.451-1.122c0.104-0.404,0.153-0.791,0.153-1.163
	c0-0.589-0.098-1.052-0.287-1.384C49.896,19.576,49.557,19.416,49.06,19.416z"/>
<path id="path123_1_" fill="#4E4E4E" d="M55.85,26.753h-2.624l2.217-9.323h2.639L55.85,26.753z M57.129,16.3
	c-0.367,0-0.7-0.114-0.993-0.328c-0.297-0.219-0.443-0.554-0.443-1.001c0-0.247,0.05-0.485,0.15-0.702
	c0.1-0.217,0.234-0.404,0.398-0.57c0.167-0.153,0.36-0.282,0.575-0.379c0.217-0.097,0.455-0.144,0.701-0.144
	c0.362,0,0.693,0.11,0.993,0.327c0.291,0.223,0.442,0.559,0.442,1.006c0,0.244-0.052,0.479-0.154,0.698
	c-0.095,0.222-0.229,0.408-0.396,0.568c-0.164,0.158-0.355,0.282-0.576,0.383C57.607,16.248,57.375,16.3,57.129,16.3z"/>
<path id="path125_1_" fill="#4E4E4E" d="M59.971,17.861c0.201-0.059,0.426-0.128,0.663-0.207c0.246-0.078,0.515-0.148,0.82-0.214
	c0.297-0.065,0.637-0.117,1.008-0.158c0.374-0.045,0.794-0.065,1.267-0.065c1.384,0,2.337,0.399,2.865,1.206
	c0.523,0.807,0.616,1.902,0.274,3.299l-1.206,5.031h-2.639l1.166-4.929c0.073-0.304,0.128-0.607,0.172-0.894
	c0.041-0.291,0.039-0.542-0.011-0.766c-0.051-0.212-0.157-0.395-0.326-0.525c-0.176-0.135-0.438-0.205-0.791-0.205
	c-0.342,0-0.691,0.033-1.044,0.105l-1.72,7.213h-2.644L59.971,17.861L59.971,17.861z"/>
</svg>
