<?xml version="1.0" encoding="utf-8"?>
<!-- Generator: Adobe Illustrator 16.0.0, SVG Export Plug-In . SVG Version: 6.00 Build 0)  -->
<!DOCTYPE svg PUBLIC "-//W3C//DTD SVG 1.1//EN" "http://www.w3.org/Graphics/SVG/1.1/DTD/svg11.dtd">
<svg version="1.1" id="Capa_1" xmlns="http://www.w3.org/2000/svg" xmlns:xlink="http://www.w3.org/1999/xlink" x="0px" y="0px"
	 width="35.963px" height="40px" viewBox="0 0 35.963 40" enable-background="new 0 0 35.963 40" xml:space="preserve">
<g>
	<g>
		<rect x="2.852" y="7.5" fill="#221E20" width="0.924" height="14.067"/>
		<rect x="4.79" y="7.5" fill="#221E20" width="0.922" height="14.067"/>
		<rect x="9.469" y="7.5" fill="#221E20" width="0.925" height="14.067"/>
		<rect x="11.385" y="7.5" fill="#221E20" width="0.924" height="14.067"/>
		<rect x="13.258" y="7.5" fill="#221E20" width="0.922" height="14.067"/>
		<rect x="20.828" y="7.5" fill="#221E20" width="0.923" height="14.067"/>
		<rect x="22.721" y="7.5" fill="#221E20" width="0.922" height="14.067"/>
		<rect x="24.593" y="7.5" fill="#221E20" width="0.924" height="14.067"/>
		<rect x="26.487" y="7.5" fill="#221E20" width="0.923" height="14.067"/>
		<rect x="31.232" y="7.5" fill="#221E20" width="0.922" height="14.067"/>
		<rect x="33.106" y="7.5" fill="#221E20" width="0.923" height="14.067"/>
		<rect x="34.997" y="7.5" fill="#221E20" width="0.924" height="14.067"/>
		<rect y="7.5" fill="#221E20" width="1.903" height="14.067"/>
		<rect x="6.663" y="7.5" fill="#221E20" width="1.903" height="14.067"/>
		<rect x="15.151" y="7.5" fill="#221E20" width="1.903" height="14.067"/>
		<rect x="17.98" y="7.5" fill="#221E20" width="1.905" height="14.067"/>
		<rect x="28.389" y="7.5" fill="#221E20" width="1.901" height="14.067"/>
	</g>
	<g>
		<path fill="#000100" d="M5.914,27.871c-0.132-0.095-0.273-0.178-0.428-0.253c0.029-0.021,0.062-0.043,0.089-0.064
			c0.559-0.422,0.849-1.036,0.845-1.773c0.002-0.643-0.243-1.191-0.72-1.585c-0.474-0.399-1.099-0.595-1.841-0.595H0.742L0,23.603
			v0.179v8.554h0.742h2.858c0.979,0,1.766-0.226,2.339-0.698c0.58-0.472,0.871-1.146,0.867-1.962
			C6.812,28.919,6.505,28.298,5.914,27.871z M5.323,29.629c-0.002,0.507-0.141,0.837-0.39,1.046
			c-0.252,0.213-0.686,0.338-1.312,0.336h-2.13v-2.568H3.54c0.659,0,1.122,0.109,1.389,0.297
			C5.188,28.922,5.319,29.192,5.323,29.629z M1.491,27.17v-2.241h1.99c0.545-0.004,0.922,0.098,1.132,0.257
			c0.21,0.157,0.317,0.393,0.32,0.776c0,0.446-0.125,0.73-0.359,0.911c-0.232,0.185-0.643,0.299-1.238,0.297H1.491z"/>
		<path fill="#000100" d="M13.287,26.648c-0.55-0.631-1.299-0.951-2.191-0.948c-0.885-0.003-1.629,0.317-2.182,0.948
			c-0.555,0.631-0.828,1.459-0.828,2.455c0,0.991,0.273,1.818,0.828,2.448c0.553,0.631,1.297,0.954,2.182,0.948
			c0.006,0,0.008,0,0.008,0c0.89,0,1.636-0.321,2.184-0.948c0.555-0.63,0.826-1.457,0.826-2.448
			C14.113,28.107,13.842,27.279,13.287,26.648z M12.385,30.807L12.243,30.7c-0.294,0.38-0.653,0.556-1.147,0.562
			c-0.492-0.006-0.852-0.182-1.142-0.562c-0.287-0.382-0.439-0.906-0.439-1.597c0-0.692,0.15-1.216,0.439-1.601
			c0.29-0.383,0.649-0.558,1.142-0.563c0.494,0.006,0.854,0.181,1.147,0.563c0.287,0.385,0.443,0.908,0.443,1.601
			c0,0.687-0.156,1.215-0.443,1.595L12.385,30.807L12.385,30.807z"/>
		<polygon fill="#000100" points="16.397,23.601 15.707,23.601 15.707,23.781 15.707,32.335 16.397,32.335 17.09,32.335 
			17.09,23.601 		"/>
		<path fill="#000100" d="M24.657,29.109c0-1.001-0.255-1.825-0.778-2.457c-0.519-0.631-1.226-0.955-2.068-0.953
			c-0.921-0.002-1.686,0.324-2.239,0.97c-0.558,0.644-0.828,1.511-0.826,2.566c-0.002,0.991,0.254,1.797,0.786,2.388
			c0.525,0.583,1.263,0.877,2.155,0.877c0,0,0.01,0,0.012,0c0.746,0.002,1.376-0.184,1.868-0.563
			c0.494-0.379,0.821-0.934,0.979-1.632l0.025-0.111h-1.388l-0.025,0.145c-0.059,0.303-0.184,0.432-0.443,0.628
			c-0.263,0.196-0.562,0.296-0.919,0.296c-0.59-0.006-0.975-0.177-1.224-0.511c-0.184-0.245-0.311-0.613-0.363-1.104h4.429
			L24.657,29.109z M21.769,26.974c0.497,0.004,0.838,0.154,1.079,0.458c0.194,0.241,0.322,0.585,0.369,1.033h-3
			c0.066-0.396,0.201-0.711,0.395-0.956C20.908,27.149,21.272,26.978,21.769,26.974z"/>
		<path fill="#000100" d="M28.881,27.073V25.88h-0.965v-1.709h-1.38v1.709h-0.845v1.193h0.845v3.842
			c0.002,0.504,0.091,0.886,0.323,1.142c0.238,0.253,0.607,0.353,1.076,0.353c0.183,0,0.438-0.029,0.795-0.082l0.15-0.023v-0.15
			v-0.972h-0.543c-0.158,0-0.261-0.035-0.331-0.084c-0.067-0.056-0.087-0.095-0.091-0.183v-3.842H28.881z"/>
		<path fill="#000100" d="M35.139,26.648c-0.552-0.631-1.299-0.951-2.19-0.948c-0.887-0.003-1.628,0.317-2.183,0.948
			c-0.556,0.631-0.828,1.459-0.828,2.455c0,0.991,0.272,1.818,0.828,2.448c0.555,0.631,1.296,0.95,2.183,0.948c0,0,0.006,0,0.01,0
			c0.888,0,1.635-0.317,2.181-0.948c0.555-0.63,0.826-1.457,0.824-2.448C35.965,28.107,35.693,27.279,35.139,26.648z M34.234,30.807
			L34.093,30.7c-0.291,0.38-0.65,0.556-1.145,0.562c-0.492-0.006-0.854-0.182-1.142-0.562c-0.291-0.382-0.439-0.91-0.439-1.597
			c0-0.692,0.148-1.216,0.439-1.601c0.29-0.383,0.649-0.558,1.142-0.563c0.494,0.006,0.854,0.181,1.145,0.563
			c0.29,0.385,0.443,0.908,0.445,1.601c-0.002,0.687-0.155,1.215-0.445,1.595L34.234,30.807z"/>
	</g>
</g>
</svg>
