<?xml version="1.0" encoding="utf-8"?>
<!-- Generator: Adobe Illustrator 16.0.0, SVG Export Plug-In . SVG Version: 6.00 Build 0)  -->
<!DOCTYPE svg PUBLIC "-//W3C//DTD SVG 1.1//EN" "http://www.w3.org/Graphics/SVG/1.1/DTD/svg11.dtd">
<svg version="1.1" id="Capa_1" xmlns="http://www.w3.org/2000/svg" xmlns:xlink="http://www.w3.org/1999/xlink" x="0px" y="0px"
	 width="32px" height="40px" viewBox="0 0 32 40" enable-background="new 0 0 32 40" xml:space="preserve">
<g>
	<g>
		<g>
			<g>
				<radialGradient id="SVGID_1_" cx="22.1362" cy="15.6162" r="17.8488" gradientUnits="userSpaceOnUse">
					<stop  offset="0" style="stop-color:#2582C5"/>
					<stop  offset="0.4906" style="stop-color:#005C8A"/>
					<stop  offset="0.9852" style="stop-color:#29265A"/>
				</radialGradient>
				<circle fill="url(#SVGID_1_)" cx="16" cy="20" r="16"/>
				<g>
					<path fill="#E98623" d="M12.964,7.696c0.195,0.264,0.666,0.246,1.05-0.038c0.386-0.286,0.537-0.729,0.346-0.992l-1.22-1.652
						c-0.193-0.264-0.664-0.247-1.05,0.036c-0.386,0.286-0.541,0.729-0.345,0.996L12.964,7.696z"/>
					<path fill="#E98623" d="M10.386,9.696c0.286,0.246,0.777,0.152,1.094-0.217c0.315-0.366,0.34-0.865,0.052-1.113L9.733,6.813
						C9.445,6.564,8.954,6.662,8.64,7.03C8.32,7.396,8.298,7.896,8.583,8.144L10.386,9.696z"/>
					<path fill="#E98623" d="M6.004,11.311l2.438,1.196c0.388,0.193,0.887-0.018,1.105-0.469c0.219-0.449,0.087-0.971-0.305-1.165
						L6.808,9.678c-0.391-0.192-0.887,0.019-1.109,0.47C5.479,10.599,5.612,11.121,6.004,11.311z"/>
					<path fill="#E98623" d="M4.487,15.292l2.946,0.529c0.471,0.085,0.92-0.259,0.998-0.771c0.081-0.511-0.237-0.994-0.71-1.075
						l-2.946-0.531c-0.472-0.085-0.915,0.259-0.996,0.77C3.7,14.724,4.016,15.205,4.487,15.292z"/>
					<path fill="#E98623" d="M7.244,19.28c0.491-0.032,0.869-0.453,0.848-0.946c-0.026-0.487-0.449-0.861-0.94-0.831l-3.084,0.19
						c-0.491,0.03-0.87,0.448-0.847,0.942c0.027,0.489,0.447,0.861,0.938,0.833L7.244,19.28z"/>
					<path fill="#E98623" d="M8.7,21.372c-0.147-0.451-0.641-0.692-1.109-0.545l-2.915,0.948c-0.467,0.149-0.723,0.638-0.576,1.086
						c0.143,0.451,0.64,0.693,1.105,0.542l2.916-0.946C8.587,22.307,8.847,21.819,8.7,21.372z"/>
					<path fill="#E98623" d="M10.008,24.326c-0.229-0.374-0.755-0.468-1.173-0.218l-2.612,1.594
						c-0.42,0.256-0.574,0.767-0.346,1.143c0.23,0.372,0.753,0.47,1.171,0.215l2.616-1.593
						C10.079,25.211,10.234,24.702,10.008,24.326z"/>
					<path fill="#E98623" d="M11.998,26.706c-0.309-0.305-0.817-0.288-1.142,0.037l-2.029,2.036
						c-0.328,0.324-0.344,0.835-0.038,1.142c0.305,0.302,0.813,0.286,1.138-0.04l2.031-2.034
						C12.282,27.521,12.3,27.012,11.998,26.706z"/>
					<path fill="#E98623" d="M14.441,28.407c-0.334-0.174-0.758-0.021-0.948,0.343l-1.195,2.278
						c-0.19,0.367-0.075,0.801,0.259,0.978c0.334,0.175,0.756,0.02,0.946-0.348l1.193-2.278
						C14.891,29.017,14.775,28.579,14.441,28.407z"/>
					<path fill="#E98623" d="M17.374,29.428c-0.344-0.067-0.683,0.173-0.758,0.534l-0.451,2.273
						c-0.073,0.363,0.149,0.715,0.493,0.784c0.348,0.066,0.688-0.171,0.759-0.534l0.452-2.274
						C17.94,29.851,17.722,29.499,17.374,29.428z"/>
					<path fill="#E98623" d="M20.411,29.696c-0.296,0.002-0.532,0.27-0.526,0.598l0.018,2.035c0.002,0.325,0.243,0.585,0.539,0.583
						c0.294,0,0.531-0.27,0.53-0.594l-0.021-2.036C20.95,29.954,20.706,29.693,20.411,29.696z"/>
					<path fill="#E98623" d="M23.797,29.735c-0.062-0.284-0.324-0.469-0.594-0.409c-0.265,0.054-0.436,0.328-0.375,0.608
						l0.371,1.755c0.058,0.281,0.319,0.466,0.59,0.408c0.263-0.056,0.434-0.33,0.374-0.61L23.797,29.735z"/>
					<path fill="#E98623" d="M26.19,28.724c-0.099-0.219-0.35-0.32-0.561-0.227c-0.212,0.094-0.304,0.35-0.208,0.568l0.612,1.368
						c0.097,0.221,0.346,0.324,0.559,0.229c0.212-0.094,0.304-0.348,0.204-0.568L26.19,28.724z"/>
					<path fill="#E98623" d="M28.305,27.171c-0.102-0.167-0.349-0.203-0.543-0.083c-0.201,0.125-0.276,0.355-0.171,0.522l0.642,1.04
						c0.1,0.167,0.346,0.202,0.543,0.081c0.196-0.121,0.272-0.355,0.175-0.524L28.305,27.171z"/>
					<path fill="#E98623" d="M29.797,25.452c-0.102-0.122-0.296-0.122-0.429-0.005c-0.134,0.115-0.155,0.303-0.054,0.42l0.64,0.739
						c0.105,0.117,0.294,0.119,0.428,0.004c0.133-0.115,0.155-0.306,0.056-0.424L29.797,25.452z"/>
					<path fill="#E98623" d="M16.835,6.531c0.357-0.188,0.539-0.537,0.409-0.781l-0.809-1.517c-0.131-0.243-0.52-0.285-0.873-0.095
						c-0.355,0.188-0.539,0.535-0.409,0.777l0.807,1.518C16.088,6.678,16.483,6.72,16.835,6.531z"/>
					<path fill="#E98623" d="M18.344,4.348l0.483,1.453c0.077,0.233,0.417,0.334,0.755,0.219c0.341-0.111,0.555-0.392,0.476-0.626
						l-0.316-0.948c-0.459-0.111-0.926-0.203-1.399-0.272C18.328,4.232,18.326,4.292,18.344,4.348z"/>
					<path fill="#E98623" d="M22.407,6.255c0.293-0.098,0.476-0.339,0.408-0.539l-0.076-0.23c-0.442-0.203-0.895-0.392-1.359-0.559
						l0.376,1.141C21.825,6.267,22.115,6.352,22.407,6.255z"/>
					<path fill="#E98623" d="M31.519,23.895l-0.401-0.317c-0.133-0.104-0.326-0.068-0.441,0.077
						c-0.115,0.146-0.105,0.346,0.026,0.447l0.624,0.497l0.004,0.004c0.071-0.232,0.137-0.464,0.194-0.702L31.519,23.895z"/>
					<path fill="#E98623" d="M31.912,21.693l-0.127-0.055c-0.149-0.066-0.322-0.005-0.388,0.137
						c-0.058,0.139,0.014,0.306,0.167,0.37l0.271,0.121l0.012,0.004c0.028-0.189,0.054-0.382,0.074-0.574L31.912,21.693z"/>
				</g>
			</g>
		</g>
		<g>
			<path fill="#FFFFFF" d="M13.587,17.925c-0.474,0.125-0.915,0.194-1.32,0.208c-0.68,0.022-1.225-0.133-1.629-0.462
				c-0.407-0.329-0.622-0.792-0.642-1.383c-0.016-0.599,0.171-1.073,0.568-1.425c0.394-0.349,0.951-0.536,1.67-0.56
				c0.346-0.01,0.748,0.025,1.203,0.104l0.023,0.714c-0.477-0.115-0.854-0.169-1.135-0.159c-0.346,0.009-0.62,0.132-0.823,0.365
				c-0.203,0.235-0.298,0.538-0.284,0.915c0.014,0.386,0.137,0.687,0.368,0.911c0.236,0.225,0.542,0.33,0.92,0.317
				c0.344-0.01,0.696-0.087,1.06-0.229L13.587,17.925z"/>
			<path fill="#FFFFFF" d="M16.564,17.399c-0.346,0.303-0.718,0.461-1.115,0.468c-0.342,0.008-0.62-0.082-0.839-0.265
				c-0.215-0.179-0.324-0.416-0.328-0.71c-0.008-0.382,0.159-0.678,0.499-0.893c0.342-0.211,0.831-0.326,1.472-0.336l0.278-0.006
				l-0.004-0.314c-0.007-0.358-0.241-0.534-0.7-0.526c-0.409,0.008-0.821,0.117-1.238,0.328l-0.011-0.639
				c0.472-0.169,0.94-0.257,1.408-0.265c1.02-0.018,1.532,0.335,1.547,1.054l0.027,1.529c0.006,0.271,0.105,0.405,0.3,0.399
				c0.036,0,0.082-0.004,0.14-0.014l0.034,0.524c-0.223,0.061-0.42,0.092-0.585,0.096c-0.434,0.008-0.714-0.136-0.84-0.432H16.564z
				 M16.553,16.895l-0.01-0.701l-0.249,0.006c-0.68,0.01-1.014,0.206-1.008,0.584c0.004,0.129,0.054,0.236,0.153,0.32
				c0.102,0.087,0.221,0.127,0.363,0.125C16.05,17.225,16.3,17.113,16.553,16.895z"/>
			<path fill="#FFFFFF" d="M18.859,17.639l-0.061-3.281l0.951-0.02l0.012,0.618c0.236-0.467,0.608-0.706,1.113-0.714
				c0.06,0,0.117,0.002,0.177,0.013l0.014,0.791c-0.135-0.044-0.263-0.063-0.378-0.062c-0.379,0.009-0.684,0.189-0.916,0.552
				l0.038,2.083L18.859,17.639z"/>
			<path fill="#FFFFFF" d="M21.797,18.397l0.063-0.612c0.351,0.159,0.685,0.238,0.999,0.238c0.312,0,0.538-0.067,0.676-0.2
				c0.141-0.134,0.212-0.353,0.212-0.65v-0.43c-0.208,0.452-0.546,0.678-1.021,0.678c-0.372,0-0.672-0.139-0.891-0.419
				c-0.217-0.28-0.328-0.658-0.328-1.137c0-0.503,0.125-0.903,0.368-1.207c0.248-0.303,0.574-0.456,0.983-0.456
				c0.318,0,0.615,0.13,0.889,0.393l0.086-0.318h0.762v2.399c0,0.481-0.028,0.827-0.086,1.04c-0.06,0.209-0.173,0.392-0.34,0.537
				c-0.28,0.248-0.68,0.371-1.192,0.371C22.612,18.624,22.219,18.548,21.797,18.397z M23.747,16.25v-1.164
				c-0.204-0.228-0.419-0.343-0.642-0.343c-0.215,0-0.382,0.098-0.509,0.289c-0.126,0.198-0.188,0.457-0.188,0.787
				c0,0.614,0.197,0.924,0.589,0.924C23.272,16.743,23.519,16.579,23.747,16.25z"/>
			<path fill="#FFFFFF" d="M27.004,16.831c-0.242,0.265-0.513,0.401-0.801,0.409c-0.245,0.006-0.443-0.067-0.603-0.224
				c-0.157-0.156-0.24-0.364-0.243-0.621c-0.01-0.326,0.109-0.588,0.351-0.771c0.244-0.183,0.596-0.282,1.058-0.295l0.202-0.003
				l-0.008-0.274c-0.007-0.312-0.177-0.461-0.509-0.455c-0.296,0.01-0.591,0.105-0.889,0.29l-0.014-0.557
				c0.34-0.146,0.678-0.225,1.014-0.23c0.733-0.021,1.107,0.284,1.123,0.906l0.032,1.326c0.008,0.234,0.079,0.35,0.221,0.346
				c0.027-0.002,0.06-0.005,0.1-0.012l0.029,0.451c-0.159,0.056-0.3,0.084-0.423,0.087c-0.309,0.007-0.512-0.12-0.608-0.375
				L27.004,16.831z M26.994,16.396l-0.014-0.604l-0.18,0.002c-0.49,0.012-0.728,0.18-0.722,0.509c0,0.113,0.042,0.203,0.113,0.277
				c0.073,0.073,0.161,0.108,0.263,0.106C26.636,16.68,26.812,16.583,26.994,16.396z"/>
			<path fill="#FFFFFF" d="M12.271,23.893l-1.744-3.469l1.283-0.095l1.248,2.429l1.125-2.664l0.773-0.058l-1.482,3.676
				L12.271,23.893z"/>
			<path fill="#FFFFFF" d="M15.756,19.348L15.71,18.57l1.091-0.039l-0.004,0.781L15.756,19.348z M15.847,23.382l-0.081-3.455
				l1.046-0.111l0.065,3.453L15.847,23.382z"/>
			<path fill="#FFFFFF" d="M18.086,23.073l-0.013-3.344l0.965-0.107l0.004,0.643c0.25-0.509,0.628-0.72,1.141-0.779
				c0.06-0.006,0.119,0.008,0.178,0.012l0.004,0.738c-0.134-0.033-0.263-0.043-0.38-0.031c-0.388,0.044-0.654,0.265-0.896,0.659
				l0.014,2.101L18.086,23.073z"/>
			<path fill="#FFFFFF" d="M22.808,22.457c-0.213,0.062-0.376,0.13-0.499,0.13c-0.773,0-1.157-0.066-1.167-0.953v-1.63l-0.374,0.032
				l0.002-0.516l0.372-0.083v-0.531l0.895-0.148v0.628l0.707-0.044v0.505l-0.707,0.034v1.642c0,0.388,0.165,0.46,0.495,0.46
				c0.078,0,0.171-0.015,0.276-0.04V22.457z"/>
			<path fill="#FFFFFF" d="M25.438,22.079v-0.564c-0.267,0.443-0.616,0.683-1.044,0.721c-0.271,0.023-0.489-0.04-0.646-0.197
				c-0.158-0.157-0.236-0.378-0.236-0.672V19.25l0.825-0.071v1.917c0,0.34,0.117,0.499,0.348,0.481
				c0.259-0.026,0.514-0.228,0.754-0.609v-1.887l0.827-0.069v2.992L25.438,22.079z"/>
			<path fill="#FFFFFF" d="M28.537,21.329c-0.241,0.279-0.505,0.435-0.783,0.466c-0.237,0.024-0.43-0.03-0.581-0.167
				c-0.146-0.139-0.22-0.33-0.22-0.578c0-0.316,0.118-0.579,0.357-0.779c0.24-0.199,0.582-0.324,1.027-0.374l0.197-0.023
				l-0.002-0.263c0-0.3-0.159-0.432-0.483-0.394c-0.284,0.029-0.572,0.147-0.861,0.355l-0.004-0.54
				c0.332-0.172,0.66-0.274,0.984-0.311c0.71-0.082,1.065,0.181,1.065,0.783l0.004,1.28c0,0.229,0.07,0.334,0.205,0.318
				c0.025-0.004,0.058-0.01,0.098-0.024l0.018,0.436c-0.155,0.067-0.293,0.107-0.411,0.124c-0.299,0.032-0.491-0.074-0.577-0.314
				L28.537,21.329z M28.537,20.908l-0.002-0.584l-0.175,0.018c-0.47,0.052-0.708,0.237-0.706,0.553c0,0.109,0.033,0.193,0.104,0.259
				c0.069,0.067,0.152,0.095,0.254,0.082C28.183,21.215,28.359,21.107,28.537,20.908z"/>
			<path fill="#FFFFFF" d="M30.075,21.424v-4.006l0.722-0.019v3.898L30.075,21.424z"/>
		</g>
	</g>
</g>
</svg>
