<?xml version="1.0" encoding="utf-8"?>
<!-- Generator: Adobe Illustrator 16.0.0, SVG Export Plug-In . SVG Version: 6.00 Build 0)  -->
<!DOCTYPE svg PUBLIC "-//W3C//DTD SVG 1.1//EN" "http://www.w3.org/Graphics/SVG/1.1/DTD/svg11.dtd">
<svg version="1.1" id="Capa_1" xmlns="http://www.w3.org/2000/svg" xmlns:xlink="http://www.w3.org/1999/xlink" x="0px" y="0px"
	 width="30px" height="40px" viewBox="0 0 30 40" enable-background="new 0 0 30 40" xml:space="preserve">
<g>
	<polygon fill-rule="evenodd" clip-rule="evenodd" fill="#343379" points="30,35 30,5 0,5 0,35 30,35 	"/>
	<polygon fill-rule="evenodd" clip-rule="evenodd" fill="#FFFFFF" points="19.488,17.104 15.399,21.2 15.399,24.971 23.267,17.099 
		15.399,9.229 15.399,13.012 19.488,17.104 	"/>
	<polygon fill-rule="evenodd" clip-rule="evenodd" fill="#FFFFFF" points="10.481,17.104 14.581,13.012 14.581,9.225 6.705,17.099 
		14.581,24.975 14.581,21.202 10.481,17.104 	"/>
	<path fill-rule="evenodd" clip-rule="evenodd" fill="#FFFFFF" d="M8.574,26.371H8.7l-0.339,1.465h-0.13
		c-0.016-0.396-0.118-0.698-0.297-0.893s-0.415-0.289-0.706-0.289c-0.309,0-0.626,0.128-0.935,0.397
		c-0.309,0.266-0.572,0.681-0.788,1.229c-0.172,0.446-0.26,0.885-0.26,1.319c0,0.388,0.094,0.687,0.289,0.894
		c0.19,0.206,0.45,0.307,0.78,0.307c0.275,0,0.521-0.06,0.74-0.178c0.226-0.115,0.446-0.309,0.677-0.572h0.163
		c-0.283,0.419-0.566,0.715-0.852,0.888c-0.289,0.169-0.638,0.254-1.055,0.254c-0.553,0-0.999-0.168-1.338-0.506
		c-0.34-0.334-0.513-0.773-0.513-1.316c0-0.507,0.14-0.991,0.405-1.453c0.27-0.46,0.66-0.83,1.168-1.119
		c0.502-0.281,1.011-0.427,1.511-0.427c0.187,0,0.425,0.043,0.706,0.122c0.146,0.043,0.248,0.062,0.303,0.062
		C8.348,26.556,8.458,26.493,8.574,26.371L8.574,26.371z"/>
	<path fill-rule="evenodd" clip-rule="evenodd" fill="#FFFFFF" d="M11.237,27.82l-0.087,1.503H9.953L11.237,27.82L11.237,27.82z
		 M11.024,30.718c-0.053,0.095-0.109,0.163-0.171,0.195c-0.035,0.014-0.146,0.031-0.342,0.047l-0.044,0.128h1.999L12.5,30.96
		c-0.144-0.01-0.246-0.051-0.307-0.118c-0.063-0.074-0.097-0.185-0.097-0.342c0-0.036,0.006-0.158,0.014-0.353l0.149-3.776H12.11
		l-3.267,3.9c-0.242,0.285-0.419,0.47-0.551,0.559c-0.097,0.066-0.199,0.11-0.325,0.13l-0.033,0.128h1.373V30.96
		c-0.134-0.004-0.227-0.033-0.289-0.079c-0.053-0.047-0.081-0.096-0.081-0.149c0-0.053,0.006-0.104,0.032-0.159
		c0.031-0.066,0.078-0.142,0.142-0.227l0.322-0.391l0.287-0.354h1.43l-0.029,0.586C11.107,30.438,11.076,30.615,11.024,30.718
		L11.024,30.718z"/>
	<path fill-rule="evenodd" clip-rule="evenodd" fill="#FFFFFF" d="M15.799,26.721c0.183-0.008,0.334,0.05,0.444,0.16
		c0.108,0.107,0.165,0.253,0.165,0.431c0,0.19-0.051,0.387-0.161,0.598c-0.106,0.212-0.252,0.368-0.425,0.46
		c-0.185,0.091-0.423,0.142-0.731,0.144l0.519-1.788L15.799,26.721L15.799,26.721z M14.451,26.697
		c0.069,0.052,0.097,0.116,0.097,0.195c0,0.096-0.04,0.289-0.126,0.576l-0.814,2.836c-0.069,0.227-0.132,0.378-0.179,0.448
		c-0.05,0.071-0.11,0.122-0.193,0.156c-0.078,0.035-0.21,0.051-0.399,0.051l-0.043,0.128h1.918c0.716,0,1.21-0.056,1.485-0.159
		c0.268-0.104,0.479-0.271,0.645-0.498c0.163-0.23,0.244-0.46,0.244-0.692c0-0.252-0.081-0.47-0.244-0.655
		c-0.171-0.188-0.46-0.342-0.893-0.464c0.411-0.091,0.714-0.194,0.912-0.305c0.201-0.108,0.351-0.252,0.445-0.419
		c0.104-0.173,0.153-0.337,0.153-0.502c0-0.194-0.062-0.375-0.186-0.535c-0.126-0.153-0.305-0.261-0.536-0.314
		c-0.172-0.041-0.461-0.068-0.87-0.068h-1.821l-0.035,0.128C14.239,26.613,14.382,26.643,14.451,26.697l1.168,2.145
		c0.118,0.043,0.215,0.126,0.294,0.245c0.076,0.12,0.109,0.256,0.109,0.409c0,0.323-0.096,0.624-0.295,0.905
		c-0.198,0.281-0.551,0.427-1.05,0.427c-0.062,0-0.146-0.004-0.256-0.012l0.586-2.05c0.287,0,0.485,0.027,0.611,0.075L14.451,26.697
		L14.451,26.697z"/>
	<path fill-rule="evenodd" clip-rule="evenodd" fill="#FFFFFF" d="M20.521,27.82l-0.087,1.503h-1.191L20.521,27.82L20.521,27.82z
		 M20.307,30.718c-0.055,0.095-0.11,0.163-0.171,0.195c-0.029,0.014-0.144,0.031-0.344,0.047l-0.034,0.128h1.991l0.037-0.128
		c-0.147-0.01-0.25-0.051-0.312-0.118c-0.063-0.074-0.089-0.185-0.089-0.342c0-0.036,0-0.158,0.008-0.353l0.149-3.776h-0.149
		l-3.27,3.9c-0.231,0.285-0.419,0.47-0.542,0.559c-0.097,0.066-0.207,0.11-0.329,0.13l-0.035,0.128h1.379V30.96
		c-0.138-0.004-0.232-0.033-0.287-0.079c-0.062-0.047-0.089-0.096-0.089-0.149c0-0.053,0.012-0.104,0.035-0.159
		c0.028-0.066,0.075-0.142,0.138-0.227l0.329-0.391l0.287-0.354h1.426l-0.031,0.586C20.388,30.438,20.362,30.615,20.307,30.718
		L20.307,30.718z"/>
	<path fill-rule="evenodd" clip-rule="evenodd" fill="#FFFFFF" d="M26.288,29.793l-0.509,1.295h-3.683l0.035-0.128
		c0.225,0,0.382-0.039,0.48-0.126c0.104-0.085,0.2-0.275,0.283-0.574l0.855-2.958c0.051-0.166,0.07-0.292,0.07-0.384
		c0-0.093-0.027-0.165-0.104-0.217c-0.062-0.053-0.199-0.088-0.397-0.098l0.043-0.128h2.209l-0.037,0.128
		c-0.217,0.006-0.376,0.053-0.479,0.146c-0.105,0.09-0.198,0.275-0.281,0.553l-0.782,2.708c-0.097,0.343-0.151,0.553-0.151,0.63
		c0,0.043,0.029,0.088,0.076,0.126c0.056,0.037,0.138,0.062,0.25,0.062c0.374,0,0.737-0.091,1.088-0.264
		c0.352-0.169,0.647-0.427,0.887-0.771H26.288L26.288,29.793z"/>
</g>
</svg>
