<?xml version="1.0" encoding="utf-8"?>
<!-- Generator: Adobe Illustrator 16.0.0, SVG Export Plug-In . SVG Version: 6.00 Build 0)  -->
<!DOCTYPE svg PUBLIC "-//W3C//DTD SVG 1.1//EN" "http://www.w3.org/Graphics/SVG/1.1/DTD/svg11.dtd">
<svg version="1.1" id="Capa_1" xmlns="http://www.w3.org/2000/svg" xmlns:xlink="http://www.w3.org/1999/xlink" x="0px" y="0px"
	 width="40.137px" height="40px" viewBox="0 0 40.137 40" enable-background="new 0 0 40.137 40" xml:space="preserve">
<g>
	<path fill="#3FAE2A" d="M38.852,23.65c0.701-0.004,1.285-0.572,1.285-1.27c0-0.4-0.162-0.674-0.354-0.863l0.113-0.119l-0.113,0.119
		l-3.793-3.791l0.303-0.066c2.039-0.424,3.406-1.711,3.412-4.188c-0.004-2.887-2.414-4.48-4.828-4.49h-5.152v12.982l2.455-0.354
		V11.453h2.801c1.205,0.004,2.244,0.861,2.25,2.002c0.01,1.133-0.84,1.717-2.037,2.004c-1.219,0.318-1.768,1.168-1.773,2.09
		c0,0.58,0.227,1.193,0.682,1.705c0.445,0.549,0.697,0.773,0.701,0.785l3.348,3.406C38.346,23.566,38.578,23.65,38.852,23.65
		 M26.305,8.488c-1.045,0-1.643,0.74-2.104,1.715l-2.928,6.234l-3.266-5.572l-3.688,0.52v10.988c0,0.686,0.578,1.246,1.27,1.248
		c0.682-0.002,1.26-0.562,1.26-1.248v-8.445l4.482,7.502l4.35-8.855v9.959l2.531-0.355v-11.77
		C28.213,9.363,27.342,8.492,26.305,8.488 M0,15.275c0.012,4.047,3.295,7.332,7.336,7.344c2.719,0,4.494-1.438,5.314-2.297
		l0.061-0.057c0.041-0.049,0.072-0.104,0.109-0.174c0.01-0.012,0.021-0.033,0.037-0.057l0.004-0.014l0.006-0.006l0.064,0.027
		l-0.055-0.045c0.086-0.156,0.139-0.316,0.164-0.477c0.008-0.049,0.012-0.092,0.014-0.137c0-0.025,0.002-0.055,0.002-0.076
		c-0.016-0.432-0.236-0.83-0.59-1.066c-0.219-0.137-0.467-0.207-0.707-0.207c-0.299,0-0.598,0.105-0.83,0.305l-0.008,0.008
		c-0.023,0.027-0.045,0.049-0.072,0.078c-0.084,0.086-0.244,0.244-0.303,0.303c-0.879,0.816-2.02,1.266-3.211,1.266
		c-2.611-0.004-4.74-2.131-4.74-4.752c0-2.613,2.129-4.744,4.74-4.744c0.875,0.008,2.105,0.166,3.156,1.217l2.561-0.432
		c0,0-1.527-3.412-5.945-3.361C3.064,7.928,0.012,11.227,0,15.275 M12.867,20.016c0.004-0.008,0.01-0.006,0.01-0.006L12.867,20.016z
		"/>
	<path fill="#3FAE2A" d="M10.467,29.537H9.523c-0.117,0-0.234,0.006-0.359,0.016c-0.135,0.012-0.254,0.051-0.369,0.109
		c-0.115,0.064-0.211,0.146-0.289,0.26c-0.07,0.111-0.113,0.271-0.113,0.463c0,0.285,0.1,0.48,0.287,0.592
		c0.191,0.115,0.447,0.174,0.762,0.174c0.045,0,0.111-0.002,0.191-0.008c0.084-0.006,0.166-0.008,0.26-0.025
		c0.094-0.01,0.189-0.027,0.291-0.051c0.105-0.016,0.201-0.043,0.283-0.078V29.537z M11.635,31.408c0,0.156-0.062,0.266-0.189,0.328
		c-0.143,0.062-0.301,0.117-0.463,0.164c-0.174,0.045-0.344,0.084-0.523,0.109c-0.178,0.025-0.355,0.045-0.525,0.053
		c-0.178,0.012-0.348,0.016-0.5,0.016c-0.439,0-0.795-0.043-1.086-0.133c-0.283-0.092-0.514-0.205-0.68-0.355
		c-0.17-0.15-0.285-0.326-0.352-0.525c-0.062-0.201-0.104-0.414-0.104-0.635c0-0.236,0.047-0.455,0.119-0.67
		c0.076-0.215,0.197-0.408,0.371-0.566c0.18-0.162,0.391-0.291,0.666-0.389c0.277-0.102,0.607-0.152,1.002-0.152h1.105v-0.164
		c0-0.125-0.012-0.244-0.037-0.348c-0.027-0.107-0.076-0.199-0.15-0.277c-0.078-0.076-0.186-0.141-0.309-0.18
		c-0.139-0.045-0.307-0.068-0.518-0.068c-0.225,0-0.469,0.02-0.732,0.062c-0.266,0.033-0.473,0.082-0.641,0.137
		c-0.076,0.016-0.133,0.02-0.158,0.014c-0.031-0.016-0.049-0.053-0.068-0.117l-0.139-0.562c-0.029-0.104,0-0.172,0.09-0.207
		c0.275-0.098,0.576-0.174,0.904-0.221c0.332-0.043,0.639-0.062,0.932-0.062c0.688,0,1.186,0.152,1.508,0.453
		c0.316,0.303,0.477,0.746,0.477,1.328V31.408z"/>
	<path fill="#3FAE2A" d="M17.842,29.537h-0.949c-0.113,0-0.232,0.006-0.361,0.016c-0.127,0.012-0.25,0.051-0.365,0.109
		c-0.113,0.064-0.207,0.146-0.287,0.26c-0.072,0.111-0.111,0.271-0.111,0.463c0,0.285,0.09,0.48,0.287,0.592
		c0.188,0.115,0.445,0.174,0.76,0.174c0.049,0,0.109-0.002,0.191-0.008s0.174-0.008,0.26-0.025c0.096-0.01,0.195-0.027,0.293-0.051
		c0.107-0.016,0.195-0.043,0.283-0.078V29.537z M19.006,31.408c0,0.156-0.061,0.266-0.188,0.328
		c-0.143,0.062-0.305,0.117-0.465,0.164c-0.172,0.045-0.342,0.084-0.52,0.109c-0.182,0.025-0.359,0.045-0.535,0.053
		c-0.168,0.012-0.338,0.016-0.488,0.016c-0.445,0-0.797-0.043-1.088-0.133c-0.287-0.092-0.518-0.205-0.682-0.355
		c-0.168-0.15-0.285-0.326-0.35-0.525c-0.07-0.201-0.105-0.414-0.105-0.635c0-0.236,0.043-0.455,0.123-0.67
		c0.074-0.215,0.193-0.408,0.365-0.566c0.178-0.162,0.395-0.291,0.668-0.389c0.275-0.102,0.607-0.152,1-0.152h1.107v-0.164
		c0-0.125-0.01-0.244-0.041-0.348c-0.025-0.107-0.076-0.199-0.15-0.277c-0.078-0.076-0.184-0.141-0.311-0.18
		c-0.135-0.045-0.303-0.068-0.516-0.068c-0.225,0-0.467,0.02-0.73,0.062c-0.264,0.033-0.477,0.082-0.639,0.137
		c-0.076,0.016-0.129,0.02-0.158,0.014c-0.035-0.016-0.053-0.053-0.072-0.117l-0.135-0.562c-0.033-0.104,0-0.172,0.082-0.207
		c0.283-0.098,0.584-0.174,0.912-0.221c0.33-0.043,0.637-0.062,0.926-0.062c0.688,0,1.189,0.152,1.508,0.453
		c0.324,0.303,0.48,0.746,0.48,1.328V31.408z"/>
	<path fill="#3FAE2A" d="M27.076,27.615c-0.174,0-0.334,0.035-0.467,0.104c-0.146,0.072-0.262,0.168-0.359,0.285
		c-0.094,0.119-0.178,0.252-0.238,0.402s-0.094,0.309-0.096,0.475h2.271c0-0.178-0.02-0.342-0.051-0.494
		c-0.037-0.148-0.086-0.283-0.174-0.398c-0.084-0.115-0.189-0.209-0.33-0.277C27.484,27.65,27.303,27.615,27.076,27.615
		 M27.061,26.658c0.756,0,1.32,0.195,1.688,0.582c0.363,0.389,0.543,0.92,0.543,1.604c0,0.172-0.016,0.311-0.059,0.426
		c-0.043,0.109-0.096,0.197-0.166,0.268c-0.072,0.062-0.154,0.111-0.25,0.133c-0.1,0.029-0.201,0.045-0.314,0.045h-2.625
		c0.006,0.26,0.041,0.471,0.117,0.648c0.07,0.174,0.17,0.316,0.293,0.424c0.127,0.109,0.271,0.188,0.434,0.232
		c0.166,0.047,0.35,0.07,0.537,0.07c0.211,0,0.422-0.025,0.621-0.078c0.205-0.051,0.383-0.115,0.535-0.191
		c0.104-0.045,0.178-0.025,0.217,0.061l0.271,0.562c0.041,0.105,0.018,0.182-0.07,0.23c-0.252,0.154-0.523,0.258-0.824,0.318
		c-0.295,0.057-0.58,0.084-0.854,0.084c-0.791,0-1.406-0.213-1.822-0.645c-0.416-0.424-0.633-1.104-0.633-2.035
		c0-0.436,0.064-0.824,0.178-1.162c0.117-0.34,0.281-0.627,0.484-0.857c0.215-0.238,0.463-0.418,0.748-0.533
		C26.4,26.721,26.721,26.658,27.061,26.658"/>
	<path fill="#3FAE2A" d="M37.783,29.537h-0.949c-0.115,0-0.232,0.006-0.361,0.016c-0.131,0.012-0.25,0.051-0.367,0.109
		c-0.115,0.064-0.207,0.146-0.287,0.26c-0.07,0.111-0.107,0.271-0.107,0.463c0,0.285,0.092,0.48,0.279,0.592
		c0.189,0.115,0.451,0.174,0.762,0.174c0.049,0,0.113-0.002,0.195-0.008c0.08-0.006,0.168-0.008,0.26-0.025
		c0.096-0.01,0.191-0.027,0.295-0.051c0.102-0.016,0.197-0.043,0.281-0.078V29.537z M38.947,31.408c0,0.156-0.061,0.266-0.188,0.328
		c-0.143,0.062-0.293,0.117-0.467,0.164c-0.17,0.045-0.342,0.084-0.518,0.109c-0.182,0.025-0.357,0.045-0.531,0.053
		c-0.176,0.012-0.34,0.016-0.498,0.016c-0.432,0-0.795-0.043-1.082-0.133c-0.289-0.092-0.514-0.205-0.682-0.355
		c-0.166-0.15-0.281-0.326-0.35-0.525c-0.068-0.201-0.102-0.414-0.102-0.635c0-0.236,0.039-0.455,0.113-0.67
		s0.203-0.408,0.375-0.566c0.168-0.162,0.391-0.291,0.666-0.389c0.273-0.102,0.607-0.152,1.002-0.152h1.104v-0.164
		c0-0.125-0.008-0.244-0.041-0.348c-0.023-0.107-0.076-0.199-0.148-0.277c-0.078-0.076-0.18-0.141-0.312-0.18
		c-0.133-0.045-0.305-0.068-0.512-0.068c-0.223,0-0.471,0.02-0.736,0.062c-0.26,0.033-0.475,0.082-0.639,0.137
		c-0.072,0.016-0.123,0.02-0.158,0.014c-0.033-0.016-0.057-0.053-0.068-0.117l-0.141-0.562c-0.023-0.104,0-0.172,0.09-0.207
		c0.277-0.098,0.58-0.174,0.906-0.221c0.332-0.043,0.646-0.062,0.932-0.062c0.682,0,1.186,0.152,1.508,0.453
		c0.314,0.303,0.477,0.746,0.477,1.328V31.408z"/>
	<path fill="#3FAE2A" d="M7.416,25.088C7.4,25.047,7.34,25.035,7.25,25.035H4.465c-0.328,0-0.611,0.047-0.834,0.148
		c-0.225,0.096-0.404,0.232-0.539,0.398c-0.143,0.164-0.238,0.354-0.293,0.566c-0.055,0.211-0.084,0.434-0.084,0.672v4.938
		c0,0.086,0.018,0.146,0.059,0.174c0.039,0.025,0.098,0.037,0.17,0.037h0.312c0.215-0.014,0.66-0.125,0.66-0.766v-2.281h2.965
		c0.088,0,0.141-0.02,0.162-0.061c0.025-0.039,0.039-0.094,0.039-0.168v-0.562c0-0.098-0.014-0.15-0.039-0.178
		c-0.021-0.031-0.074-0.051-0.162-0.051H3.916v-1.156c0-0.209,0.053-0.371,0.16-0.48c0.096-0.107,0.275-0.164,0.521-0.164H7.25
		c0.082,0,0.139-0.02,0.164-0.049c0.029-0.033,0.045-0.092,0.045-0.18V25.26C7.459,25.184,7.443,25.123,7.416,25.088"/>
	<path fill="#3FAE2A" d="M23.016,30.168c-0.068,0.217-0.16,0.398-0.277,0.539c-0.121,0.133-0.264,0.236-0.434,0.297
		c-0.172,0.068-0.359,0.092-0.566,0.092c-0.131,0-0.281-0.002-0.455-0.023c-0.17-0.016-0.33-0.049-0.494-0.102v-3.17
		c0.215-0.064,0.414-0.104,0.602-0.123c0.203-0.02,0.344-0.033,0.451-0.033c0.398,0,0.705,0.143,0.938,0.43
		c0.219,0.281,0.33,0.719,0.33,1.295C23.109,29.682,23.076,29.949,23.016,30.168 M24.164,28.256c-0.09-0.33-0.227-0.611-0.406-0.846
		c-0.184-0.238-0.414-0.424-0.699-0.555c-0.289-0.135-0.629-0.197-1.023-0.197c-0.18,0-0.379,0.01-0.607,0.043
		c-0.227,0.031-0.438,0.072-0.627,0.133l-0.012-1.918c0-0.078-0.008-0.129-0.035-0.146c-0.029-0.023-0.076-0.031-0.152-0.031h-0.307
		c-0.219,0.018-0.641,0.127-0.648,0.744v6.002c0,0.057,0.006,0.105,0.029,0.145c0.018,0.037,0.061,0.068,0.117,0.088
		c0.293,0.137,0.621,0.229,0.971,0.277c0.354,0.059,0.695,0.082,1.035,0.082c0.432,0,0.807-0.066,1.129-0.203
		c0.311-0.137,0.572-0.332,0.777-0.582c0.205-0.246,0.355-0.535,0.449-0.875c0.096-0.338,0.143-0.703,0.143-1.098
		C24.297,28.936,24.252,28.58,24.164,28.256"/>
	<path fill="#3FAE2A" d="M31.838,31.736l-0.07-0.559c-0.006-0.057-0.02-0.084-0.043-0.102c-0.023-0.02-0.061-0.023-0.117-0.016
		c-0.045,0.006-0.102,0.012-0.174,0.021c-0.062,0.008-0.127,0.008-0.178,0.008c-0.135,0-0.223-0.033-0.268-0.096
		c-0.045-0.061-0.07-0.18-0.07-0.35v-5.738c0-0.074-0.016-0.115-0.045-0.137c-0.029-0.023-0.082-0.031-0.152-0.031H30.4
		c-0.215,0.02-0.623,0.129-0.65,0.717v5.465c0,0.428,0.088,0.729,0.258,0.898c0.176,0.176,0.441,0.26,0.812,0.26
		c0.131,0,0.277-0.012,0.447-0.023c0.166-0.02,0.318-0.051,0.449-0.107c0.07-0.033,0.105-0.059,0.121-0.084
		C31.85,31.844,31.85,31.799,31.838,31.736"/>
	<path fill="#3FAE2A" d="M34.365,31.736l-0.068-0.559c-0.008-0.057-0.018-0.084-0.041-0.102c-0.025-0.02-0.064-0.023-0.115-0.016
		c-0.049,0.006-0.102,0.012-0.174,0.021c-0.064,0.008-0.129,0.008-0.178,0.008c-0.133,0-0.223-0.033-0.27-0.096
		c-0.047-0.061-0.062-0.18-0.062-0.35v-5.738c0-0.074-0.021-0.115-0.051-0.137c-0.027-0.023-0.08-0.031-0.156-0.031h-0.311
		c-0.225,0.02-0.65,0.133-0.656,0.754v5.428c0,0.428,0.086,0.729,0.256,0.898c0.174,0.176,0.439,0.26,0.814,0.26
		c0.131,0,0.275-0.012,0.449-0.023c0.164-0.02,0.314-0.051,0.451-0.107c0.062-0.033,0.105-0.059,0.111-0.084
		C34.383,31.844,34.383,31.799,34.365,31.736"/>
	<path fill="#3FAE2A" d="M14.441,31.736l-0.066-0.559c-0.01-0.057-0.02-0.084-0.043-0.102c-0.021-0.02-0.061-0.023-0.113-0.016
		c-0.047,0.006-0.107,0.012-0.176,0.021c-0.072,0.008-0.131,0.008-0.182,0.008c-0.131,0-0.221-0.033-0.264-0.096
		c-0.049-0.061-0.076-0.18-0.076-0.35v-5.738c0-0.074-0.01-0.115-0.043-0.137c-0.029-0.023-0.076-0.031-0.148-0.031h-0.32
		c-0.219,0.02-0.646,0.133-0.65,0.766v5.416c0,0.428,0.086,0.729,0.252,0.898c0.176,0.176,0.445,0.26,0.818,0.26
		c0.131,0,0.275-0.012,0.451-0.023c0.162-0.02,0.316-0.051,0.447-0.107c0.064-0.033,0.102-0.059,0.113-0.084
		C14.455,31.844,14.455,31.799,14.441,31.736"/>
</g>
</svg>
