<?xml version="1.0" encoding="utf-8"?>
<!-- Generator: Adobe Illustrator 16.0.0, SVG Export Plug-In . SVG Version: 6.00 Build 0)  -->
<!DOCTYPE svg PUBLIC "-//W3C//DTD SVG 1.1//EN" "http://www.w3.org/Graphics/SVG/1.1/DTD/svg11.dtd">
<svg version="1.1" id="Capa_1" xmlns="http://www.w3.org/2000/svg" xmlns:xlink="http://www.w3.org/1999/xlink" x="0px" y="0px"
	 width="82.235px" height="40px" viewBox="0 0 82.235 40" enable-background="new 0 0 82.235 40" xml:space="preserve">
<g>
	<g>
		<path fill="#3FAE2A" d="M28.334,21.484c0.512-0.002,0.938-0.416,0.938-0.926c0-0.291-0.119-0.49-0.258-0.629l0.084-0.086
			l-0.084,0.086l-2.768-2.764l0.221-0.051c1.488-0.309,2.484-1.246,2.49-3.053c-0.004-2.105-1.762-3.268-3.521-3.275h-3.758v9.469
			l1.789-0.258V12.59h2.045c0.877,0.002,1.637,0.629,1.641,1.459c0.006,0.828-0.613,1.252-1.488,1.463
			c-0.887,0.23-1.287,0.852-1.291,1.523c0,0.422,0.164,0.871,0.496,1.244c0.324,0.4,0.51,0.562,0.512,0.572l2.441,2.484
			C27.967,21.424,28.135,21.484,28.334,21.484 M19.184,10.428c-0.764,0-1.197,0.539-1.535,1.25l-2.133,4.549l-2.385-4.064
			l-2.688,0.379v8.012c0,0.502,0.422,0.91,0.926,0.91c0.498,0,0.918-0.408,0.918-0.91v-6.158l3.27,5.471l3.174-6.457v7.262
			l1.844-0.26v-8.582C20.574,11.066,19.939,10.43,19.184,10.428 M0,15.377c0.01,2.951,2.402,5.348,5.35,5.355
			c1.982,0,3.279-1.047,3.875-1.674l0.045-0.043c0.029-0.035,0.053-0.074,0.08-0.127c0.006-0.008,0.016-0.023,0.027-0.041
			l0.002-0.01l0.004-0.004l0.047,0.021l-0.039-0.033c0.062-0.115,0.102-0.232,0.119-0.348c0.006-0.035,0.01-0.066,0.01-0.1
			c0.002-0.02,0.004-0.039,0.004-0.055c-0.014-0.316-0.174-0.607-0.432-0.779c-0.158-0.1-0.34-0.15-0.516-0.15
			c-0.217,0-0.436,0.076-0.605,0.221l-0.006,0.006c-0.018,0.02-0.033,0.035-0.053,0.059c-0.061,0.061-0.178,0.178-0.221,0.221
			c-0.641,0.594-1.473,0.922-2.342,0.922c-1.904-0.004-3.457-1.553-3.457-3.465c0-1.906,1.553-3.461,3.457-3.461
			c0.639,0.006,1.537,0.121,2.301,0.889l1.869-0.316c0,0-1.115-2.486-4.336-2.449C2.234,10.018,0.01,12.424,0,15.377 M9.383,18.834
			c0.004-0.004,0.008-0.004,0.008-0.004L9.383,18.834z"/>
		<path fill="#3FAE2A" d="M7.633,25.777H6.945c-0.086,0-0.172,0.006-0.264,0.012c-0.098,0.008-0.184,0.037-0.268,0.08
			c-0.084,0.049-0.154,0.107-0.211,0.189c-0.053,0.082-0.082,0.197-0.082,0.338c0,0.207,0.072,0.352,0.209,0.432
			c0.139,0.084,0.326,0.127,0.557,0.127c0.031,0,0.08-0.002,0.139-0.006c0.061-0.004,0.121-0.008,0.189-0.02
			c0.068-0.008,0.137-0.02,0.211-0.035c0.078-0.014,0.148-0.031,0.207-0.059V25.777z M8.484,27.143c0,0.113-0.045,0.193-0.137,0.238
			c-0.104,0.047-0.221,0.088-0.338,0.121c-0.125,0.033-0.252,0.061-0.381,0.078c-0.131,0.02-0.26,0.033-0.385,0.041
			c-0.129,0.008-0.254,0.01-0.365,0.01c-0.318,0-0.578-0.031-0.791-0.096c-0.205-0.066-0.375-0.15-0.496-0.26
			c-0.123-0.109-0.209-0.238-0.256-0.385C5.291,26.744,5.26,26.59,5.26,26.43c0-0.174,0.035-0.332,0.086-0.49
			c0.057-0.154,0.145-0.295,0.271-0.41c0.131-0.119,0.285-0.215,0.486-0.285c0.203-0.074,0.443-0.111,0.73-0.111h0.807v-0.119
			c0-0.092-0.01-0.178-0.027-0.254c-0.02-0.078-0.055-0.146-0.109-0.203c-0.059-0.055-0.135-0.102-0.227-0.131
			c-0.1-0.031-0.223-0.051-0.377-0.051c-0.162,0-0.34,0.016-0.533,0.047c-0.193,0.025-0.346,0.061-0.467,0.1
			c-0.057,0.012-0.098,0.016-0.115,0.01c-0.023-0.012-0.037-0.037-0.051-0.084l-0.102-0.41c-0.021-0.076,0-0.127,0.066-0.15
			c0.201-0.072,0.42-0.129,0.658-0.162c0.244-0.031,0.467-0.045,0.682-0.045c0.5,0,0.863,0.109,1.098,0.328
			c0.232,0.221,0.348,0.545,0.348,0.971V27.143z"/>
		<path fill="#3FAE2A" d="M13.012,25.777h-0.693c-0.082,0-0.17,0.006-0.264,0.012c-0.092,0.008-0.18,0.037-0.266,0.08
			c-0.082,0.049-0.15,0.107-0.209,0.189c-0.051,0.082-0.08,0.197-0.08,0.338c0,0.207,0.064,0.352,0.209,0.432
			c0.135,0.084,0.324,0.127,0.553,0.127c0.037,0,0.082-0.002,0.141-0.006c0.061-0.004,0.127-0.008,0.189-0.02
			c0.07-0.008,0.143-0.02,0.213-0.035c0.08-0.014,0.143-0.031,0.207-0.059V25.777z M13.861,27.143c0,0.113-0.045,0.193-0.139,0.238
			c-0.104,0.047-0.221,0.088-0.338,0.121c-0.125,0.033-0.25,0.061-0.379,0.078c-0.133,0.02-0.262,0.033-0.391,0.041
			c-0.123,0.008-0.244,0.01-0.355,0.01c-0.324,0-0.58-0.031-0.793-0.096c-0.209-0.066-0.377-0.15-0.498-0.26
			s-0.209-0.238-0.256-0.385c-0.049-0.146-0.076-0.301-0.076-0.461c0-0.174,0.031-0.332,0.09-0.49
			c0.055-0.154,0.143-0.295,0.268-0.41c0.129-0.119,0.287-0.215,0.484-0.285c0.203-0.074,0.445-0.111,0.732-0.111h0.807v-0.119
			c0-0.092-0.008-0.178-0.031-0.254c-0.018-0.078-0.055-0.146-0.107-0.203c-0.059-0.055-0.135-0.102-0.227-0.131
			c-0.1-0.031-0.221-0.051-0.377-0.051c-0.164,0-0.34,0.016-0.533,0.047c-0.191,0.025-0.348,0.061-0.467,0.1
			c-0.055,0.012-0.094,0.016-0.113,0.01c-0.025-0.012-0.039-0.037-0.053-0.084l-0.1-0.41c-0.023-0.076,0-0.127,0.061-0.15
			c0.205-0.072,0.426-0.129,0.664-0.162c0.24-0.031,0.465-0.045,0.676-0.045c0.502,0,0.867,0.109,1.1,0.328
			c0.236,0.221,0.352,0.545,0.352,0.971V27.143z"/>
		<path fill="#3FAE2A" d="M19.746,24.375c-0.127,0-0.244,0.025-0.342,0.076c-0.105,0.055-0.189,0.125-0.26,0.209
			c-0.07,0.088-0.131,0.184-0.176,0.293c-0.043,0.111-0.066,0.227-0.068,0.346h1.656c0-0.129-0.014-0.248-0.037-0.359
			c-0.027-0.109-0.062-0.207-0.125-0.291s-0.141-0.152-0.242-0.201C20.045,24.4,19.912,24.375,19.746,24.375 M19.736,23.68
			c0.551,0,0.961,0.141,1.23,0.422c0.264,0.285,0.395,0.672,0.395,1.17c0,0.127-0.012,0.227-0.043,0.311
			c-0.031,0.08-0.068,0.145-0.121,0.195c-0.051,0.047-0.111,0.082-0.182,0.098c-0.072,0.021-0.148,0.033-0.229,0.033h-1.916
			c0.004,0.189,0.031,0.342,0.086,0.473c0.053,0.127,0.123,0.229,0.213,0.309c0.094,0.078,0.199,0.137,0.318,0.17
			c0.121,0.035,0.252,0.051,0.391,0.051c0.154,0,0.307-0.018,0.453-0.057c0.148-0.037,0.277-0.086,0.389-0.139
			c0.076-0.033,0.131-0.02,0.158,0.043l0.199,0.41c0.029,0.078,0.014,0.133-0.053,0.168c-0.184,0.113-0.381,0.189-0.6,0.232
			c-0.215,0.041-0.424,0.062-0.623,0.062c-0.576,0-1.025-0.156-1.328-0.471c-0.303-0.309-0.461-0.805-0.461-1.484
			c0-0.318,0.045-0.602,0.129-0.848c0.084-0.248,0.205-0.457,0.354-0.627c0.156-0.172,0.338-0.303,0.545-0.387
			C19.252,23.725,19.488,23.68,19.736,23.68"/>
		<path fill="#3FAE2A" d="M27.555,25.777h-0.691c-0.086,0-0.17,0.006-0.264,0.012c-0.096,0.008-0.184,0.037-0.268,0.08
			c-0.086,0.049-0.152,0.107-0.209,0.189c-0.053,0.082-0.08,0.197-0.08,0.338c0,0.207,0.068,0.352,0.203,0.432
			c0.139,0.084,0.33,0.127,0.557,0.127c0.035,0,0.082-0.002,0.143-0.006c0.059-0.004,0.123-0.008,0.189-0.02
			c0.068-0.008,0.139-0.02,0.215-0.035c0.074-0.014,0.143-0.031,0.205-0.059V25.777z M28.404,27.143
			c0,0.113-0.045,0.193-0.139,0.238c-0.104,0.047-0.213,0.088-0.338,0.121s-0.25,0.061-0.379,0.078
			c-0.131,0.02-0.262,0.033-0.387,0.041c-0.129,0.008-0.248,0.01-0.363,0.01c-0.314,0-0.58-0.031-0.789-0.096
			c-0.211-0.066-0.375-0.15-0.498-0.26c-0.121-0.109-0.205-0.238-0.254-0.385c-0.051-0.146-0.074-0.301-0.074-0.461
			c0-0.174,0.027-0.332,0.082-0.49c0.055-0.154,0.148-0.295,0.273-0.41c0.123-0.119,0.283-0.215,0.486-0.285
			c0.199-0.074,0.443-0.111,0.73-0.111h0.805v-0.119c0-0.092-0.006-0.178-0.029-0.254c-0.018-0.078-0.055-0.146-0.107-0.203
			c-0.059-0.055-0.133-0.102-0.229-0.131c-0.098-0.031-0.223-0.051-0.375-0.051c-0.162,0-0.342,0.016-0.537,0.047
			c-0.188,0.025-0.346,0.061-0.465,0.1c-0.053,0.012-0.09,0.016-0.115,0.01c-0.025-0.012-0.041-0.037-0.049-0.084l-0.104-0.41
			c-0.016-0.076,0-0.127,0.064-0.15c0.203-0.072,0.424-0.129,0.662-0.162c0.242-0.031,0.471-0.045,0.678-0.045
			c0.5,0,0.865,0.109,1.102,0.328c0.229,0.221,0.348,0.545,0.348,0.971V27.143z"/>
		<path fill="#3FAE2A" d="M5.408,22.533c-0.012-0.029-0.057-0.037-0.121-0.037H3.256c-0.24,0-0.445,0.033-0.607,0.107
			c-0.164,0.07-0.295,0.168-0.395,0.289C2.15,23.014,2.08,23.15,2.041,23.307C2,23.461,1.98,23.623,1.98,23.797v3.602
			c0,0.062,0.01,0.107,0.041,0.127c0.029,0.018,0.072,0.025,0.125,0.025h0.227c0.158-0.01,0.484-0.09,0.484-0.559v-1.664h2.16
			c0.064,0,0.102-0.014,0.119-0.043s0.027-0.066,0.027-0.121v-0.41c0-0.072-0.01-0.111-0.027-0.131
			c-0.018-0.021-0.055-0.037-0.119-0.037h-2.16v-0.844c0-0.152,0.037-0.271,0.115-0.35c0.07-0.078,0.201-0.119,0.379-0.119h1.936
			c0.059,0,0.102-0.014,0.119-0.037c0.023-0.023,0.033-0.066,0.033-0.131v-0.447C5.439,22.604,5.43,22.559,5.408,22.533"/>
		<path fill="#3FAE2A" d="M16.785,26.238c-0.049,0.158-0.117,0.291-0.203,0.393c-0.088,0.098-0.191,0.172-0.316,0.217
			c-0.123,0.049-0.262,0.066-0.412,0.066c-0.096,0-0.205,0-0.332-0.016c-0.123-0.012-0.242-0.035-0.361-0.076v-2.311
			c0.158-0.047,0.303-0.076,0.439-0.09c0.148-0.016,0.252-0.023,0.33-0.023c0.291,0,0.514,0.104,0.682,0.312
			c0.162,0.205,0.242,0.525,0.242,0.945C16.854,25.885,16.83,26.078,16.785,26.238 M17.623,24.844
			c-0.066-0.24-0.166-0.445-0.297-0.617c-0.133-0.174-0.303-0.311-0.51-0.404c-0.211-0.098-0.459-0.143-0.746-0.143
			c-0.131,0-0.277,0.006-0.443,0.029s-0.32,0.053-0.457,0.098l-0.01-1.398c0-0.057-0.006-0.094-0.025-0.107
			c-0.021-0.016-0.055-0.021-0.109-0.021h-0.225c-0.16,0.012-0.467,0.092-0.473,0.543v4.377c0,0.041,0.004,0.076,0.021,0.104
			c0.012,0.027,0.043,0.051,0.086,0.064c0.213,0.102,0.451,0.168,0.707,0.203c0.258,0.043,0.508,0.061,0.756,0.061
			c0.312,0,0.588-0.051,0.822-0.15c0.227-0.1,0.418-0.24,0.566-0.422c0.15-0.182,0.26-0.391,0.328-0.639
			c0.07-0.248,0.105-0.514,0.105-0.801C17.721,25.34,17.686,25.08,17.623,24.844"/>
		<path fill="#3FAE2A" d="M23.219,27.381l-0.051-0.406c-0.006-0.039-0.016-0.061-0.031-0.072c-0.018-0.016-0.045-0.02-0.086-0.014
			c-0.033,0.006-0.074,0.01-0.127,0.016c-0.045,0.006-0.094,0.006-0.131,0.006c-0.096,0-0.16-0.023-0.193-0.07
			c-0.033-0.043-0.051-0.131-0.051-0.254V22.4c0-0.053-0.014-0.084-0.033-0.1c-0.021-0.016-0.059-0.021-0.111-0.021H22.17
			c-0.156,0.014-0.455,0.094-0.473,0.523v3.984c0,0.311,0.064,0.531,0.188,0.656c0.127,0.127,0.32,0.188,0.592,0.188
			c0.096,0,0.201-0.008,0.326-0.018c0.121-0.014,0.232-0.035,0.328-0.076c0.049-0.025,0.076-0.043,0.088-0.062
			C23.227,27.461,23.227,27.428,23.219,27.381"/>
		<path fill="#3FAE2A" d="M25.062,27.381l-0.051-0.406c-0.006-0.039-0.012-0.061-0.029-0.072c-0.018-0.016-0.047-0.02-0.084-0.014
			c-0.035,0.006-0.074,0.01-0.129,0.016c-0.045,0.006-0.092,0.006-0.127,0.006c-0.098,0-0.164-0.023-0.197-0.07
			c-0.035-0.043-0.045-0.131-0.045-0.254V22.4c0-0.053-0.016-0.084-0.039-0.1c-0.018-0.016-0.057-0.021-0.111-0.021h-0.229
			c-0.162,0.014-0.475,0.096-0.479,0.551v3.957c0,0.311,0.062,0.531,0.188,0.656c0.127,0.127,0.32,0.188,0.594,0.188
			c0.094,0,0.201-0.008,0.328-0.018c0.117-0.014,0.229-0.035,0.328-0.076c0.047-0.025,0.076-0.043,0.082-0.062
			C25.074,27.461,25.074,27.428,25.062,27.381"/>
		<path fill="#3FAE2A" d="M10.531,27.381l-0.049-0.406c-0.006-0.039-0.014-0.061-0.031-0.072c-0.016-0.016-0.043-0.02-0.082-0.014
			c-0.033,0.006-0.078,0.01-0.127,0.016c-0.053,0.006-0.098,0.006-0.135,0.006c-0.094,0-0.158-0.023-0.191-0.07
			c-0.035-0.043-0.055-0.131-0.055-0.254V22.4c0-0.053-0.008-0.084-0.031-0.1c-0.021-0.016-0.057-0.021-0.109-0.021H9.486
			c-0.16,0.014-0.471,0.096-0.471,0.559v3.949c0,0.311,0.061,0.531,0.182,0.656c0.127,0.127,0.326,0.188,0.596,0.188
			c0.096,0,0.201-0.008,0.33-0.018c0.119-0.014,0.23-0.035,0.326-0.076c0.047-0.025,0.074-0.043,0.082-0.062
			C10.543,27.461,10.543,27.428,10.531,27.381"/>
	</g>
	<g>
		<path fill="#676767" d="M35.577,16.735l-1.941-5.012h0.717l1.303,3.641c0.104,0.291,0.192,0.564,0.264,0.82
			c0.077-0.273,0.167-0.547,0.27-0.82l1.354-3.641h0.677l-1.962,5.012H35.577z"/>
		<path fill="#676767" d="M38.926,16.735v-5.012h0.664v5.012H38.926z"/>
		<path fill="#676767" d="M40.532,15.126l0.625-0.055c0.03,0.25,0.099,0.455,0.207,0.615c0.108,0.162,0.276,0.291,0.504,0.391
			c0.229,0.1,0.484,0.148,0.77,0.148c0.253,0,0.477-0.037,0.67-0.113c0.193-0.074,0.338-0.178,0.433-0.309s0.142-0.273,0.142-0.43
			s-0.046-0.295-0.137-0.412s-0.241-0.215-0.451-0.295c-0.135-0.053-0.432-0.135-0.893-0.244c-0.46-0.111-0.782-0.215-0.967-0.312
			c-0.239-0.125-0.418-0.281-0.535-0.467s-0.176-0.395-0.176-0.623c0-0.254,0.072-0.49,0.215-0.711
			c0.145-0.219,0.354-0.387,0.629-0.5c0.276-0.113,0.583-0.17,0.92-0.17c0.371,0,0.699,0.059,0.982,0.178
			c0.284,0.121,0.502,0.297,0.654,0.529c0.153,0.232,0.235,0.496,0.246,0.789l-0.635,0.049c-0.035-0.318-0.15-0.557-0.348-0.719
			s-0.488-0.242-0.873-0.242c-0.401,0-0.693,0.072-0.877,0.221c-0.184,0.146-0.275,0.324-0.275,0.531
			c0,0.18,0.065,0.328,0.195,0.443c0.128,0.117,0.461,0.236,1,0.357c0.539,0.123,0.908,0.229,1.109,0.32
			c0.291,0.135,0.507,0.305,0.646,0.51c0.139,0.207,0.208,0.445,0.208,0.713s-0.076,0.518-0.229,0.754s-0.372,0.42-0.658,0.551
			s-0.607,0.197-0.965,0.197c-0.454,0-0.834-0.066-1.141-0.199s-0.547-0.33-0.721-0.596C40.633,15.761,40.541,15.46,40.532,15.126z"
			/>
		<path fill="#676767" d="M44.878,16.735l1.924-5.012h0.715l2.051,5.012h-0.756l-0.584-1.518h-2.096l-0.551,1.518H44.878z
			 M46.323,14.677h1.699l-0.523-1.387c-0.159-0.422-0.278-0.768-0.355-1.039c-0.063,0.32-0.154,0.641-0.27,0.957L46.323,14.677z"/>
		<path fill="#676767" d="M34.124,27.735v-5.012h0.998l1.186,3.549c0.109,0.33,0.189,0.578,0.24,0.742
			c0.057-0.184,0.146-0.451,0.266-0.805l1.2-3.486h0.892v5.012h-0.639v-4.193l-1.456,4.193h-0.599l-1.449-4.266v4.266H34.124z"/>
		<path fill="#676767" d="M39.426,27.735l1.924-5.012h0.715l2.051,5.012h-0.756l-0.584-1.518H40.68l-0.551,1.518H39.426z
			 M40.871,25.677h1.699l-0.523-1.387c-0.159-0.422-0.278-0.768-0.355-1.039c-0.063,0.32-0.154,0.641-0.27,0.957L40.871,25.677z"/>
		<path fill="#676767" d="M44.419,26.126l0.625-0.055c0.03,0.25,0.099,0.455,0.207,0.615c0.108,0.162,0.276,0.291,0.504,0.391
			c0.229,0.1,0.484,0.148,0.77,0.148c0.253,0,0.477-0.037,0.67-0.113c0.193-0.074,0.338-0.178,0.433-0.309s0.142-0.273,0.142-0.43
			s-0.046-0.295-0.137-0.412s-0.241-0.215-0.451-0.295c-0.135-0.053-0.432-0.135-0.893-0.244c-0.46-0.111-0.782-0.215-0.967-0.312
			c-0.239-0.125-0.418-0.281-0.535-0.467s-0.176-0.395-0.176-0.623c0-0.254,0.072-0.49,0.215-0.711
			c0.145-0.219,0.354-0.387,0.629-0.5c0.276-0.113,0.583-0.17,0.92-0.17c0.371,0,0.699,0.059,0.982,0.178
			c0.284,0.121,0.502,0.297,0.654,0.529c0.153,0.232,0.235,0.496,0.246,0.789l-0.635,0.049c-0.035-0.318-0.15-0.557-0.348-0.719
			s-0.488-0.242-0.873-0.242c-0.401,0-0.693,0.072-0.877,0.221c-0.184,0.146-0.275,0.324-0.275,0.531
			c0,0.18,0.065,0.328,0.195,0.443c0.128,0.117,0.461,0.236,1,0.357c0.539,0.123,0.908,0.229,1.109,0.32
			c0.291,0.135,0.507,0.305,0.646,0.51c0.139,0.207,0.208,0.445,0.208,0.713s-0.076,0.518-0.229,0.754s-0.372,0.42-0.658,0.551
			s-0.607,0.197-0.965,0.197c-0.454,0-0.834-0.066-1.141-0.199s-0.547-0.33-0.721-0.596C44.52,26.761,44.428,26.46,44.419,26.126z"
			/>
		<path fill="#676767" d="M50.588,27.735v-4.42h-1.65v-0.592h3.972v0.592h-1.657v4.42H50.588z"/>
		<path fill="#676767" d="M53.604,27.735v-5.012h3.623v0.592h-2.96v1.535h2.771v0.588h-2.771v1.705h3.076v0.592H53.604z"/>
		<path fill="#676767" d="M58.269,27.735v-5.012h2.221c0.447,0,0.787,0.045,1.02,0.135s0.418,0.25,0.557,0.479
			c0.139,0.227,0.209,0.479,0.209,0.754c0,0.355-0.115,0.656-0.346,0.9c-0.23,0.242-0.586,0.398-1.066,0.465
			c0.176,0.084,0.309,0.166,0.4,0.248c0.193,0.178,0.377,0.4,0.55,0.668l0.872,1.363h-0.834l-0.664-1.043
			c-0.193-0.301-0.353-0.531-0.479-0.689c-0.125-0.16-0.237-0.271-0.336-0.336c-0.1-0.064-0.2-0.107-0.303-0.133
			c-0.075-0.016-0.198-0.023-0.369-0.023h-0.77v2.225H58.269z M58.931,24.937h1.426c0.303,0,0.54-0.033,0.711-0.096
			s0.301-0.162,0.39-0.301c0.089-0.137,0.134-0.287,0.134-0.449c0-0.236-0.087-0.432-0.259-0.584s-0.443-0.229-0.815-0.229h-1.586
			V24.937z"/>
		<path fill="#676767" d="M66.889,25.978l0.663,0.168c-0.139,0.545-0.389,0.959-0.75,1.246c-0.361,0.285-0.803,0.43-1.325,0.43
			c-0.539,0-0.979-0.111-1.317-0.33c-0.338-0.221-0.596-0.539-0.772-0.955c-0.177-0.418-0.265-0.865-0.265-1.344
			c0-0.521,0.1-0.977,0.299-1.365s0.483-0.684,0.852-0.887c0.368-0.201,0.772-0.301,1.215-0.301c0.501,0,0.923,0.127,1.265,0.383
			c0.342,0.254,0.58,0.613,0.715,1.076l-0.653,0.154c-0.116-0.365-0.285-0.631-0.506-0.797s-0.499-0.25-0.834-0.25
			c-0.385,0-0.707,0.092-0.966,0.277c-0.259,0.184-0.44,0.432-0.545,0.742c-0.104,0.312-0.157,0.633-0.157,0.963
			c0,0.426,0.062,0.799,0.187,1.115c0.124,0.318,0.317,0.557,0.579,0.713c0.262,0.158,0.546,0.236,0.851,0.236
			c0.372,0,0.687-0.107,0.943-0.32C66.623,26.718,66.798,26.399,66.889,25.978z"/>
		<path fill="#676767" d="M67.819,27.735l1.924-5.012h0.715l2.051,5.012h-0.756l-0.584-1.518h-2.096l-0.551,1.518H67.819z
			 M69.265,25.677h1.699L70.44,24.29c-0.159-0.422-0.278-0.768-0.355-1.039c-0.063,0.32-0.154,0.641-0.27,0.957L69.265,25.677z"/>
		<path fill="#676767" d="M73.048,27.735v-5.012h2.221c0.447,0,0.787,0.045,1.02,0.135s0.418,0.25,0.557,0.479
			c0.139,0.227,0.209,0.479,0.209,0.754c0,0.355-0.115,0.656-0.346,0.9c-0.23,0.242-0.586,0.398-1.066,0.465
			c0.176,0.084,0.309,0.166,0.4,0.248c0.193,0.178,0.377,0.4,0.55,0.668l0.872,1.363H76.63l-0.664-1.043
			c-0.193-0.301-0.353-0.531-0.479-0.689c-0.125-0.16-0.237-0.271-0.336-0.336c-0.1-0.064-0.2-0.107-0.303-0.133
			c-0.075-0.016-0.198-0.023-0.369-0.023h-0.77v2.225H73.048z M73.71,24.937h1.426c0.303,0,0.54-0.033,0.711-0.096
			s0.301-0.162,0.39-0.301c0.089-0.137,0.134-0.287,0.134-0.449c0-0.236-0.087-0.432-0.259-0.584s-0.443-0.229-0.815-0.229H73.71
			V24.937z"/>
		<path fill="#676767" d="M78.093,27.735v-5.012h1.726c0.391,0,0.688,0.025,0.893,0.072c0.287,0.066,0.532,0.186,0.734,0.359
			c0.265,0.223,0.463,0.508,0.594,0.855s0.196,0.744,0.196,1.191c0,0.381-0.044,0.719-0.134,1.012
			c-0.088,0.295-0.202,0.537-0.342,0.73c-0.139,0.191-0.291,0.344-0.456,0.453c-0.165,0.111-0.364,0.195-0.598,0.252
			s-0.502,0.086-0.806,0.086H78.093z M78.756,27.144h1.07c0.33,0,0.589-0.031,0.777-0.092c0.188-0.062,0.338-0.148,0.449-0.26
			c0.157-0.158,0.279-0.369,0.367-0.635s0.132-0.588,0.132-0.965c0-0.525-0.086-0.928-0.258-1.209s-0.382-0.469-0.628-0.564
			c-0.178-0.068-0.463-0.104-0.857-0.104h-1.053V27.144z"/>
	</g>
</g>
</svg>
