<?xml version="1.0" encoding="utf-8"?>
<!-- Generator: Adobe Illustrator 16.0.0, SVG Export Plug-In . SVG Version: 6.00 Build 0)  -->
<!DOCTYPE svg PUBLIC "-//W3C//DTD SVG 1.1//EN" "http://www.w3.org/Graphics/SVG/1.1/DTD/svg11.dtd">
<svg version="1.1" id="Capa_1" xmlns="http://www.w3.org/2000/svg" xmlns:xlink="http://www.w3.org/1999/xlink" x="0px" y="0px"
	 width="64.113px" height="40px" viewBox="0 0 64.113 40" enable-background="new 0 0 64.113 40" xml:space="preserve">
<g>
	<path fill="#007852" d="M11.141,17.336c-2.754,0-4.725,2.619-4.799,5.67c-0.486,0.449-1.066,0.844-1.621,1.123
		c-0.246,0.123-0.611,0.262-0.832,0.307c-0.146,0.029-0.307,0.053-0.49,0.053c-0.828,0-1.252-0.422-1.252-1.354
		c0-2.162,0.914-4.107,2.436-4.107c1.066,0,1.336,0.422,1.488,0.422c0.051,0,0.102-0.018,0.152-0.102l0.643-1.049
		c0.035-0.051,0.102-0.15,0.102-0.203c0-0.168-0.947-0.76-2.266-0.76C2.131,17.336,0,19.482,0,22.967
		c0,2.199,1.285,3.299,3.145,3.299c0.832,0,2.359-0.344,3.48-1.461c0.436,1.01,1.346,1.461,2.588,1.461
		c2.74,0,4.701-2.723,4.701-5.852C13.914,18.248,12.85,17.336,11.141,17.336 M9.518,24.574c-0.729,0-1.031-0.439-1.031-1.234
		c0-1.641,0.676-4.312,2.25-4.312c0.727,0,1.029,0.439,1.029,1.234C11.766,21.902,11.09,24.574,9.518,24.574z"/>
	<path fill="#007852" d="M19.607,19.398l0.709-1.707c0.018-0.051,0.035-0.086,0.035-0.137c0-0.15-0.322-0.219-0.576-0.219
		c-1.301,0-2.164,1.201-2.621,1.709c0-0.949-0.152-1.709-0.338-1.709c-0.086,0-0.119,0.033-0.17,0.051l-1.352,0.523
		c-0.086,0.035-0.203,0.068-0.203,0.186c0,0.307,0.152,0.543,0.152,1.049c0,0.541-0.119,0.965-0.203,1.387l-1.15,5.092
		c-0.018,0.066-0.033,0.135-0.018,0.186c0,0.135,0.084,0.168,0.221,0.168h1.572c0.17,0,0.186-0.018,0.238-0.203l0.727-3.348
		c0.236-1.133,0.996-3.061,2.299-3.061c0.271,0,0.457,0.117,0.574,0.117C19.539,19.482,19.59,19.432,19.607,19.398z"/>
	<path fill="#007852" d="M25.891,23.609l1.996-9.367c0.018-0.102,0.051-0.238,0.051-0.322c0-0.135-0.018-0.186-0.086-0.186
		c-0.049,0-0.168,0.033-0.236,0.051l-1.486,0.303c-0.254,0.053-0.271,0.119-0.305,0.289l-0.729,3.381
		c-0.27-0.152-0.643-0.422-1.471-0.422c-2.926,0-4.295,3.686-4.295,6.393c0,1.691,0.643,2.537,1.842,2.537
		c1.506,0,2.283-1.033,2.707-1.523c0,0.846,0.135,1.523,0.32,1.523c0.086,0,0.152-0.035,0.203-0.051l1.354-0.525
		c0.084-0.033,0.203-0.066,0.203-0.186c0-0.203-0.119-0.609-0.135-1.016C25.824,24.285,25.807,23.982,25.891,23.609z M24.199,22.037
		c-0.254,1.219-0.998,2.537-2.027,2.537c-0.525,0-0.812-0.439-0.812-1.168c0-1.758,0.625-4.465,2.35-4.465
		c0.576,0,0.947,0.236,1.082,0.305L24.199,22.037z"/>
	<path fill="#007852" d="M31.783,17.336c-2.809,0-4.803,2.723-4.803,5.852c0,2.164,1.1,3.078,2.875,3.078
		c2.74,0,4.701-2.723,4.701-5.852C34.557,18.248,33.492,17.336,31.783,17.336z M30.16,24.574c-0.729,0-1.031-0.439-1.031-1.234
		c0-1.641,0.676-4.312,2.248-4.312c0.729,0,1.031,0.439,1.031,1.234C32.408,21.902,31.732,24.574,30.16,24.574z"/>
	<path fill="#007852" d="M40.412,17.336c-1.336,0-2.166,0.896-2.385,1.252l-0.033-0.035l0.945-4.311
		c0.018-0.102,0.051-0.221,0.051-0.34c0-0.117,0-0.168-0.084-0.168c-0.051,0-0.17,0.033-0.236,0.051l-1.488,0.303
		c-0.254,0.053-0.271,0.119-0.305,0.289l-2.215,10.332c-0.018,0.068-0.033,0.135-0.033,0.254c0,0.355,1.91,1.303,3.348,1.303
		c3.01,0,4.465-3.467,4.465-6.309C42.441,18.553,41.916,17.336,40.412,17.336z M38.197,24.742c-0.678,0-1.201-0.338-1.387-0.457
		l0.607-2.908c0.221-1.082,0.762-2.35,2.08-2.35c0.643,0,0.914,0.404,0.914,1.133C40.412,21.732,39.701,24.742,38.197,24.742z"/>
	<path fill="#007852" d="M63.928,17.623h-1.336c-0.119,0-0.186,0.035-0.236,0.17l-0.186,0.455c-0.271-0.287-0.779-0.912-1.879-0.912
		c-2.146,0-4.008,2.789-4.008,6.139c0,1.775,0.643,2.791,1.877,2.791c1.473,0,2.352-1.1,2.723-1.523
		c0,0.846,0.137,1.523,0.322,1.523c0.084,0,0.15-0.035,0.203-0.051l1.352-0.525c0.086-0.033,0.203-0.066,0.203-0.186
		c0-0.203-0.117-0.609-0.135-1.016c0-0.252,0.051-0.828,0.135-1.199l1.117-5.295c0.016-0.066,0.033-0.135,0.033-0.201
		C64.113,17.709,64.062,17.623,63.928,17.623z M61.154,22.223c-0.238,1.066-0.879,2.352-2.131,2.352
		c-0.457,0-0.711-0.355-0.711-1.016c0-1.758,0.744-4.701,2.182-4.701c0.609,0,0.998,0.406,1.252,0.609L61.154,22.223z"/>
	<path fill="#007852" d="M53.822,17.336c-1.928,0-3.23,1.201-3.23,2.992c0,1.168,0.559,1.488,1.455,1.98
		c0.879,0.49,1.641,0.557,1.641,1.301c0,0.727-0.508,1.133-1.506,1.133c-0.688,0-1.256-0.232-1.65-0.404
		c-0.512-0.232-1.182-0.602-1.182-0.602c-0.037-0.018-0.07-0.031-0.1-0.041c-0.016-0.008-0.033-0.016-0.061-0.016
		c-0.254,0-1.338,0.811-2.795,0.809c-1.588-0.004-1.516-1.217-1.516-1.725c0.963,0,5.26,0,5.26-3.195
		c0-1.354-0.914-2.232-2.504-2.232c-2.604,0-4.785,2.402-4.785,5.783c0,1.877,0.975,3.129,3.006,3.127
		c1.555-0.002,2.736-0.426,3.385-0.785c0.365,0.18,0.832,0.395,1.158,0.49l0,0c0.531,0.17,1.232,0.314,1.885,0.314
		c2.148,0,3.348-1.219,3.348-2.994c0-1.1-0.406-1.471-1.232-1.945c-0.744-0.422-1.861-0.574-1.861-1.42
		c0-0.574,0.406-1.049,1.318-1.049c0.779,0,1.336,0.49,1.658,0.49c0.033,0,0.084-0.016,0.135-0.117l0.355-0.982
		c0.018-0.049,0.033-0.084,0.033-0.135C56.037,17.674,54.701,17.336,53.822,17.336z M47.332,18.857c0.506,0,0.777,0.389,0.777,0.828
		c0,1.557-2.268,1.557-2.994,1.557C45.268,20.617,45.742,18.857,47.332,18.857z"/>
</g>
</svg>
