<?xml version="1.0" encoding="utf-8"?>
<!-- Generator: Adobe Illustrator 16.0.0, SVG Export Plug-In . SVG Version: 6.00 Build 0)  -->
<!DOCTYPE svg PUBLIC "-//W3C//DTD SVG 1.1//EN" "http://www.w3.org/Graphics/SVG/1.1/DTD/svg11.dtd">
<svg version="1.1" id="Capa_1" xmlns="http://www.w3.org/2000/svg" xmlns:xlink="http://www.w3.org/1999/xlink" x="0px" y="0px"
	 width="94.945px" height="40px" viewBox="0 0 94.945 40" enable-background="new 0 0 94.945 40" xml:space="preserve">
<g>
	<g>
		<path fill="#E10717" d="M57.617,17.578L57.617,17.578c0.344,0,0.627,0.284,0.627,0.626v5.187c0,0.346-0.283,0.627-0.627,0.627l0,0
			c-0.345,0-0.626-0.281-0.626-0.627v-5.187C56.991,17.862,57.273,17.578,57.617,17.578L57.617,17.578z"/>
	</g>
	<g>
		<path fill="#E10717" d="M65.854,17.786c0.344,0.058,0.576,0.262,0.519,0.605c-0.057,0.344-0.383,0.575-0.726,0.518
			c-1.264-0.216-2.384-0.31-3.274-0.13c-0.797,0.164-1.412,0.501-1.774,1.159c-0.188,0.343-0.319,0.591-0.339,0.871
			c-0.021,0.241-0.072,0.577,0.115,0.844l0.122-0.088c0.115,0.164,0.148,0.406,0.334,0.55c0.196,0.153,0.426,0.291,0.677,0.411
			c1.365,0.652,3.423,0.839,4.991,0.25c0.326-0.125,0.688,0.041,0.812,0.367c0.122,0.325,0.019,0.568-0.308,0.692
			c-1.883,0.705-4.28,0.521-5.92-0.267c-0.334-0.159-0.641-0.344-0.905-0.549c-0.28-0.219-0.52-0.459-0.712-0.726v-0.002
			c-0.379-0.531-0.509-1.049-0.469-1.577c0.039-0.491,0.224-0.959,0.495-1.446c0.648-0.955,1.495-1.309,2.654-1.544
			C63.214,17.509,64.452,17.547,65.854,17.786L65.854,17.786z"/>
	</g>
	<g>
		<path fill="#E10717" d="M63.467,20.422h-3.868v0.926h3.868c0.262,0,0.476-0.209,0.476-0.463l0,0
			C63.942,20.632,63.729,20.422,63.467,20.422L63.467,20.422z"/>
	</g>
	<g>
		<path fill="#E10717" d="M69.339,19.475v3.916c0,0.346-0.281,0.627-0.625,0.627l0,0c-0.344,0-0.583-0.281-0.583-0.627v-3.523
			c-0.172-1.488,1.322-3.183,3.023-1.597c0.022,0.021,0.042,0.042,0.06,0.062l0,0h0.002c0.01,0.016,0.022,0.029,0.031,0.044
			c0.926,1.21,1.591,2.522,2.434,3.784v0.004l0.004,0.004l0,0l0.002,0.002l0.009,0.014c0.053,0.086,0.097,0.166,0.143,0.25
			c0.499,0.741,1.213,0.729,1.233-0.19c0.02-0.806,0.02-3.02-0.052-3.952c-0.022-0.342,0.282-0.626,0.625-0.626l0,0
			c0.347,0,0.54,0.282,0.54,0.626v3.284c0.063,1.024-0.24,1.872-0.487,2.118c-0.342,0.384-0.782,0.49-1.259,0.482
			c-0.086-0.004-0.17-0.012-0.248-0.029c-0.957-0.201-2.839-3.545-3.169-4.019c-0.128-0.189-0.254-0.368-0.369-0.527
			c-0.103-0.138-0.21-0.286-0.33-0.441C69.771,18.678,69.341,19.069,69.339,19.475L69.339,19.475z M73.695,22.184
			c0.051,0.09,0.075,0.187,0.079,0.284L73.695,22.184L73.695,22.184z"/>
	</g>
	<g>
		<path fill="#E10717" d="M47.732,17.996c-0.134-0.319-0.505-0.47-0.827-0.334c-0.318,0.136-0.469,0.506-0.33,0.827
			c0.633,1.482,1.597,3.001,2.646,4.202c0.693,0.793,1.338,1.381,2.006,1.461c0.691,0.08,1.278-0.334,2.113-1.077
			c0.756-0.673,1.224-1.415,1.725-2.257c0.489-0.822,0.875-1.638,1.167-2.283c0.143-0.319,0-0.691-0.316-0.835
			c-0.318-0.14-0.691,0.002-0.834,0.321c-0.275,0.614-0.667,1.387-1.124,2.15c-0.37,0.625-1.764,2.833-2.651,2.728
			C50.204,22.768,48.316,19.353,47.732,17.996L47.732,17.996z"/>
	</g>
	<g>
		<path fill="#E10717" d="M45.337,17.578L45.337,17.578c0.344,0,0.626,0.284,0.626,0.626v5.187c0,0.346-0.282,0.627-0.626,0.627l0,0
			c-0.346,0-0.625-0.281-0.625-0.627v-5.187C44.712,17.862,44.991,17.578,45.337,17.578L45.337,17.578z"/>
	</g>
	<g>
		<path fill="#E10717" d="M18.766,19.071c-0.335,0.096-0.686-0.059-0.783-0.394c-0.094-0.334,0.102-0.684,0.437-0.779
			c2.898-0.552,4.648-0.139,6.074,0.537c0.583,0.372,1.151,0.803,1.433,1.303c0.294,0.525,0.42,1.015,0.365,1.571
			c-0.08,0.854-0.569,1.651-1.498,2.193c-0.458,0.264-0.943,0.434-1.442,0.545c-0.479,0.108-0.961,0.158-1.433,0.188
			c-0.483,0.031-0.893,0.043-1.299-0.01c-0.431-0.054-0.849-0.172-1.325-0.402c-0.187-0.088-0.407-0.26-0.445-0.445l-0.018,0.048
			c0-1.175,0-2.396,0-3.57c0.214-0.618,1.081-0.434,1.087,0L20,22.764c-0.138,0.596,1.485,0.385,1.84,0.361
			c0.424-0.025,0.845-0.068,1.238-0.158c0.376-0.084,0.743-0.212,1.081-0.406c0.548-0.319,0.835-0.914,0.879-1.369
			c0.025-0.297-0.046-0.615-0.213-0.917c-0.186-0.327-0.479-0.637-0.879-0.893C22.854,18.766,21.271,18.403,18.766,19.071
			L18.766,19.071z"/>
	</g>
	<g>
		<path fill="#E10717" d="M35.507,17.996c-0.136-0.319-0.505-0.47-0.825-0.334c-0.321,0.136-0.472,0.506-0.333,0.827
			c0.633,1.482,1.596,3.001,2.646,4.202c0.692,0.793,1.339,1.381,2.009,1.461c0.688,0.08,1.275-0.334,2.108-1.077
			c0.757-0.673,1.226-1.415,1.728-2.257c0.491-0.822,0.877-1.638,1.167-2.283c0.142-0.319,0-0.691-0.318-0.835
			c-0.316-0.14-0.688,0.002-0.833,0.321c-0.272,0.614-0.667,1.387-1.123,2.15c-0.371,0.625-1.764,2.833-2.652,2.728
			C37.98,22.768,36.091,19.353,35.507,17.996L35.507,17.996z"/>
	</g>
	<g>
		<path fill="#E10717" d="M34.636,23.777c0.136,0.322,0.508,0.473,0.827,0.337c0.322-0.14,0.47-0.509,0.332-0.829
			c-0.634-1.483-1.597-3.001-2.646-4.204c-0.69-0.791-1.337-1.379-2.008-1.459c-0.688-0.084-1.275,0.336-2.107,1.077
			c-0.758,0.674-1.226,1.413-1.727,2.256c-0.492,0.82-0.88,1.639-1.167,2.286c-0.142,0.317,0,0.69,0.317,0.831
			c0.316,0.144,0.69,0,0.833-0.318c0.273-0.615,0.668-1.389,1.123-2.15c0.372-0.627,1.765-2.833,2.652-2.729
			C32.166,19.007,34.055,22.422,34.636,23.777L34.636,23.777z"/>
	</g>
	<g>
		<path fill="#E10717" d="M77.879,19.071c-0.334,0.096-0.685-0.059-0.779-0.394c-0.096-0.334,0.098-0.684,0.435-0.779
			c2.898-0.552,4.648-0.139,6.073,0.537c0.583,0.372,1.152,0.803,1.434,1.303c0.293,0.525,0.419,1.015,0.364,1.571
			c-0.079,0.854-0.57,1.651-1.498,2.193c-0.455,0.264-0.94,0.434-1.44,0.545c-0.481,0.108-0.963,0.158-1.438,0.188
			c-0.48,0.031-0.891,0.043-1.297-0.01c-0.431-0.054-0.847-0.172-1.323-0.402c-0.187-0.088-0.407-0.26-0.445-0.445l-0.02,0.048
			c0-1.175,0-2.396,0-3.57c0.215-0.618,1.079-0.434,1.088,0l0.081,2.909c-0.136,0.596,1.486,0.385,1.84,0.361
			c0.425-0.025,0.845-0.068,1.239-0.158c0.378-0.084,0.743-0.212,1.081-0.406c0.547-0.319,0.835-0.914,0.877-1.369
			c0.03-0.297-0.044-0.615-0.212-0.917c-0.186-0.327-0.478-0.637-0.877-0.893C81.969,18.766,80.387,18.403,77.879,19.071
			L77.879,19.071z"/>
	</g>
	<g>
		<path fill="#E10717" d="M86.396,23.777c-0.136,0.322-0.508,0.473-0.827,0.337c-0.321-0.14-0.472-0.509-0.334-0.829
			c0.637-1.483,1.6-3.001,2.646-4.204c0.695-0.791,1.337-1.379,2.008-1.459c0.689-0.084,1.278,0.336,2.112,1.077
			c0.755,0.674,1.223,1.413,1.724,2.256c0.49,0.82,0.877,1.639,1.167,2.286c0.143,0.317,0,0.69-0.316,0.831
			c-0.317,0.144-0.691,0-0.831-0.318c-0.278-0.615-0.67-1.389-1.125-2.15c-0.372-0.627-1.766-2.833-2.651-2.729
			C88.866,19.007,86.978,22.422,86.396,23.777L86.396,23.777z"/>
	</g>
	<g>
		<path fill="#E10717" d="M12.244,18.951c-0.029,0.26-0.113,1.507,0.898,2.726c1.874,2.257-0.663,4.675-3.551,4.091
			c0,0-1.16,0.232-2.437,0.232c-1.273,0-2.44-0.232-2.44-0.232c-2.889,0.584-5.479-1.834-3.604-4.091
			c1.014-1.219,0.933-2.466,0.899-2.726H12.244L12.244,18.951z"/>
		<path fill="#1D1E1C" d="M7.156,26.118c-1.171,0-2.267-0.197-2.44-0.229c-0.29,0.057-0.585,0.086-0.878,0.086
			c-1.454,0-2.769-0.72-3.272-1.791c-0.394-0.839-0.233-1.756,0.454-2.583c0.998-1.2,0.902-2.405,0.873-2.634l-0.017-0.134h10.502
			l-0.015,0.132c-0.026,0.233-0.108,1.457,0.872,2.636c0.693,0.835,0.856,1.76,0.46,2.604c-0.497,1.059-1.793,1.77-3.227,1.77
			c-0.291,0-0.585-0.029-0.876-0.086C9.419,25.921,8.329,26.118,7.156,26.118z M4.715,25.646l0.023,0.005
			c0.012,0.002,1.171,0.23,2.417,0.23c1.249,0,2.402-0.229,2.413-0.23l0.023-0.005l0.023,0.005c0.282,0.057,0.569,0.086,0.852,0.086
			c1.343,0,2.554-0.656,3.012-1.633c0.355-0.757,0.203-1.592-0.428-2.352c-0.913-1.101-0.964-2.215-0.936-2.683H2.14
			c0.027,0.426-0.006,1.562-0.938,2.683c-0.625,0.751-0.774,1.579-0.422,2.33c0.465,0.989,1.693,1.654,3.058,1.654
			c0.285,0,0.572-0.029,0.854-0.086L4.715,25.646z"/>
	</g>
	<g>
		<path fill="#E10717" d="M9.373,25.297c0,0,0.164-0.439,0.5-0.693c0.163-0.125,0.438-0.08,0.302,0.17
			c-0.038,0.067-0.438,0.332-0.706,0.647C9.421,25.479,9.373,25.297,9.373,25.297L9.373,25.297z M5.451,25.003L5.451,25.003
			c0,0-0.068-0.464-0.345-0.783c-0.134-0.155-0.413-0.168-0.329,0.106c0.021,0.07,0.357,0.41,0.554,0.775
			C5.367,25.171,5.451,25.003,5.451,25.003L5.451,25.003z M4.934,25.297L4.934,25.297c0,0-0.162-0.439-0.499-0.693
			c-0.164-0.125-0.438-0.08-0.3,0.17c0.038,0.067,0.436,0.332,0.705,0.647C4.888,25.479,4.934,25.297,4.934,25.297L4.934,25.297z
			 M8.857,25.003L8.857,25.003c0,0,0.068-0.464,0.345-0.783c0.134-0.155,0.414-0.168,0.329,0.106
			c-0.021,0.07-0.356,0.41-0.554,0.775C8.941,25.171,8.857,25.003,8.857,25.003L8.857,25.003z"/>
		<path fill="#1D1E1C" d="M9.449,25.551c-0.089,0-0.151-0.073-0.191-0.224l-0.01-0.036l0.013-0.035
			c0.007-0.02,0.181-0.476,0.54-0.747c0.161-0.123,0.413-0.116,0.498,0.026c0.034,0.057,0.058,0.153-0.02,0.295
			c-0.025,0.045-0.077,0.088-0.201,0.188c-0.143,0.116-0.359,0.291-0.519,0.479l-0.035,0.041L9.449,25.551z M10.066,24.655
			c-0.04,0-0.086,0.016-0.12,0.042c-0.162,0.123-0.282,0.295-0.358,0.43c0.123-0.115,0.247-0.216,0.341-0.292
			c0.062-0.051,0.133-0.108,0.147-0.127c0.015-0.027,0.017-0.046,0.018-0.053C10.09,24.659,10.079,24.655,10.066,24.655z
			 M4.86,25.551L4.86,25.551H4.804l-0.055-0.054c-0.159-0.187-0.365-0.354-0.516-0.477c-0.125-0.103-0.177-0.146-0.202-0.188
			c-0.079-0.143-0.056-0.24-0.022-0.297c0.083-0.143,0.333-0.149,0.497-0.026c0.36,0.271,0.531,0.728,0.539,0.747l0.013,0.034
			l-0.009,0.036C5.01,25.478,4.948,25.551,4.86,25.551z M4.213,24.659c0.003,0.004,0.007,0.023,0.026,0.057
			c0.01,0.012,0.081,0.069,0.144,0.12c0.093,0.076,0.215,0.176,0.336,0.289c-0.076-0.135-0.195-0.306-0.356-0.427
			C4.315,24.661,4.233,24.651,4.213,24.659z M5.354,25.237C5.354,25.237,5.354,25.237,5.354,25.237H5.281l-0.055-0.081
			c-0.117-0.218-0.293-0.434-0.409-0.576c-0.103-0.127-0.14-0.173-0.153-0.219c-0.043-0.143-0.01-0.229,0.026-0.277
			c0.102-0.14,0.366-0.105,0.506,0.059c0.295,0.341,0.369,0.822,0.372,0.843l0.006,0.037l-0.017,0.033
			C5.468,25.235,5.383,25.237,5.354,25.237z M4.885,24.228c-0.004,0-0.007,0.02,0.006,0.063c0.007,0.012,0.062,0.079,0.111,0.139
			c0.077,0.095,0.178,0.22,0.275,0.358c-0.047-0.147-0.128-0.339-0.26-0.49C4.977,24.251,4.906,24.224,4.885,24.228z M8.955,25.237
			c-0.028,0-0.114,0-0.204-0.182l-0.017-0.033l0.006-0.037c0.003-0.021,0.077-0.502,0.372-0.844c0.14-0.162,0.404-0.197,0.507-0.058
			c0.036,0.048,0.069,0.136,0.025,0.277c-0.014,0.046-0.05,0.092-0.154,0.22c-0.116,0.143-0.291,0.358-0.409,0.577l-0.034,0.062
			L8.955,25.237z M9.426,24.222c-0.04,0.007-0.096,0.03-0.135,0.075c-0.133,0.153-0.214,0.346-0.26,0.494
			c0.097-0.141,0.198-0.266,0.275-0.359c0.049-0.061,0.104-0.129,0.115-0.149C9.433,24.241,9.427,24.223,9.426,24.222z"/>
	</g>
	<g>
		<path fill="#FDEA14" d="M8.5,24.947c0,0,0.858-2.747-0.438-4.385c-0.118-0.021-0.236-0.094-0.367-0.18
			c0,0-0.143-0.252-0.483-0.254c-0.337,0.002-0.595,0.254-0.595,0.254c-0.15,0.102-0.292,0.164-0.425,0.18
			C4.893,22.2,5.779,24.96,5.779,24.96C7.147,24.445,8.468,24.934,8.5,24.947L8.5,24.947z"/>
		<path fill="#1D1E1C" d="M5.704,25.115l-0.038-0.119c-0.037-0.115-0.89-2.839,0.433-4.507l0.03-0.039l0.049-0.005
			c0.109-0.013,0.234-0.067,0.372-0.16c0,0,0,0,0,0c-0.002,0,0.282-0.272,0.661-0.274c0.338,0.002,0.516,0.21,0.569,0.287
			c0.107,0.07,0.211,0.132,0.303,0.149l0.044,0.008l0.028,0.035c1.32,1.667,0.494,4.379,0.458,4.494l-0.039,0.125l-0.121-0.051
			c-0.004-0.002-0.568-0.213-1.333-0.213c-0.462,0-0.899,0.076-1.301,0.228L5.704,25.115z M6.256,20.673
			c-1.058,1.385-0.544,3.601-0.398,4.133c0.395-0.133,0.819-0.199,1.264-0.199c0.603,0,1.081,0.122,1.298,0.188
			c0.14-0.53,0.635-2.742-0.425-4.126C7.87,20.636,7.75,20.562,7.63,20.482l-0.038-0.041c-0.004-0.007-0.117-0.192-0.381-0.194
			c-0.282,0.001-0.509,0.218-0.512,0.22C6.532,20.583,6.391,20.647,6.256,20.673z"/>
	</g>
	<g>
		<path fill="#FFFFFF" d="M8.104,23.031c0-0.129,0.104-0.232,0.231-0.232c0.132,0,0.235,0.104,0.235,0.232
			c0,0.128-0.104,0.232-0.235,0.232C8.208,23.266,8.104,23.159,8.104,23.031L8.104,23.031z"/>
		<path fill="#1D1E1C" d="M8.332,23.383c-0.191,0-0.347-0.158-0.347-0.352s0.157-0.351,0.35-0.351c0.195,0,0.354,0.157,0.354,0.351
			s-0.159,0.352-0.354,0.352H8.332z M8.335,22.917c-0.062,0-0.113,0.052-0.113,0.114c0,0.062,0.05,0.114,0.109,0.114v0.118
			l0.001-0.118c0.067,0,0.119-0.051,0.119-0.114S8.401,22.917,8.335,22.917z"/>
	</g>
	<g>
		<path fill="#1288C9" d="M2.61,20.749h1.666c0.265,0,0.479,0.214,0.479,0.474v1.115c0,0.262-0.214,0.477-0.479,0.477H2.61
			c-0.264,0-0.478-0.215-0.478-0.477v-1.115C2.133,20.963,2.347,20.749,2.61,20.749L2.61,20.749z"/>
		<path fill="#1D1E1C" d="M4.276,22.933H2.61c-0.329,0-0.596-0.267-0.596-0.595v-1.115c0.001-0.327,0.269-0.593,0.596-0.593h1.666
			c0.329,0,0.597,0.267,0.597,0.593v1.115C4.873,22.666,4.605,22.933,4.276,22.933z M2.61,20.867c-0.197,0-0.358,0.16-0.359,0.355
			v1.115c0,0.197,0.161,0.357,0.359,0.357h1.666c0.198,0,0.36-0.16,0.36-0.357v-1.115c0-0.195-0.162-0.355-0.36-0.355H2.61z"/>
	</g>
	<g>
		<path fill="#1D1E1C" d="M2.802,21.018H4.12c0.197,0,0.359,0.162,0.359,0.357v0.814c0,0.195-0.162,0.355-0.359,0.355H2.802
			c-0.2,0-0.361-0.16-0.361-0.355v-0.814C2.44,21.18,2.602,21.018,2.802,21.018L2.802,21.018z"/>
		<path fill="#1D1E1C" d="M4.12,22.663H2.802c-0.265,0-0.48-0.212-0.48-0.474v-0.814c0-0.125,0.048-0.244,0.138-0.334
			c0.091-0.092,0.212-0.142,0.342-0.142H4.12c0.264,0,0.478,0.213,0.478,0.476v0.814C4.598,22.451,4.384,22.663,4.12,22.663z
			 M2.802,21.136c-0.066,0-0.127,0.026-0.174,0.072c-0.044,0.046-0.069,0.104-0.069,0.166v0.815c0,0.131,0.109,0.237,0.243,0.237
			H4.12c0.133,0,0.241-0.106,0.241-0.237v-0.814c0-0.13-0.11-0.239-0.241-0.239H2.802z"/>
	</g>
	<g>
		<path fill="#F19106" d="M4.48,21.986c-0.596-0.062-0.804-0.752-0.854-0.971H4.12c0.197,0,0.359,0.162,0.359,0.358V21.986
			L4.48,21.986z"/>
		<path fill="#1D1E1C" d="M4.598,22.118l-0.131-0.014c-0.68-0.07-0.904-0.831-0.957-1.062l-0.033-0.145H4.12
			c0.264,0,0.478,0.214,0.478,0.477V22.118z M3.781,21.134c0.075,0.233,0.242,0.6,0.58,0.707v-0.467c0-0.13-0.11-0.24-0.241-0.24
			H3.781z"/>
	</g>
	<g>
		<path fill="#F19106" d="M3.304,21.018c-0.04,0.197-0.229,0.94-0.863,0.972v-0.613c0-0.196,0.161-0.358,0.361-0.358H3.304
			L3.304,21.018z"/>
		<path fill="#1D1E1C" d="M2.322,22.114v-0.738c0-0.263,0.215-0.477,0.48-0.477h0.647L3.42,21.041
			c-0.049,0.241-0.264,1.032-0.974,1.066L2.322,22.114z M2.802,21.136c-0.134,0-0.243,0.108-0.243,0.24v0.477
			c0.356-0.09,0.523-0.475,0.593-0.717H2.802z"/>
	</g>
	<g>
		<path fill="#1288C9" d="M10.022,20.749h1.664c0.268,0,0.479,0.214,0.479,0.474v1.115c0,0.262-0.213,0.477-0.479,0.477h-1.664
			c-0.264,0-0.478-0.215-0.478-0.477v-1.115C9.545,20.963,9.759,20.749,10.022,20.749L10.022,20.749z"/>
		<path fill="#1D1E1C" d="M11.686,22.933h-1.664c-0.329,0-0.596-0.267-0.596-0.595v-1.115c0.001-0.327,0.269-0.593,0.596-0.593
			h1.664c0.33,0,0.598,0.267,0.598,0.593v1.115C12.284,22.666,12.015,22.933,11.686,22.933z M10.022,20.867
			c-0.197,0-0.358,0.16-0.359,0.355v1.115c0,0.197,0.161,0.357,0.359,0.357h1.664c0.199,0,0.361-0.16,0.361-0.357v-1.115
			c0-0.195-0.162-0.355-0.361-0.355H10.022z"/>
	</g>
	<g>
		<path fill="#1D1E1C" d="M10.215,21.018h1.318c0.198,0,0.358,0.162,0.358,0.357v0.814c0,0.195-0.16,0.355-0.358,0.355h-1.318
			c-0.2,0-0.362-0.16-0.362-0.355v-0.814C9.853,21.18,10.015,21.018,10.215,21.018L10.215,21.018z"/>
		<path fill="#1D1E1C" d="M11.533,22.663h-1.318c-0.265,0-0.481-0.212-0.481-0.474v-0.814c0-0.263,0.216-0.476,0.481-0.476h1.318
			c0.263,0,0.477,0.213,0.477,0.476v0.814C12.01,22.451,11.797,22.663,11.533,22.663z M10.215,21.136
			c-0.134,0-0.244,0.107-0.244,0.239v0.814c0,0.131,0.109,0.237,0.244,0.237h1.318c0.132,0,0.24-0.106,0.24-0.237v-0.814
			c0-0.132-0.107-0.239-0.24-0.239H10.215z"/>
	</g>
	<g>
		<path fill="#F19106" d="M11.893,21.986c-0.596-0.062-0.803-0.752-0.853-0.971h0.493c0.198,0,0.358,0.162,0.358,0.358
			L11.893,21.986L11.893,21.986z"/>
		<path fill="#1D1E1C" d="M12.01,22.118l-0.124-0.014l-0.417-0.151c-0.364-0.251-0.504-0.734-0.544-0.911l-0.033-0.145h0.642
			c0.263,0,0.477,0.214,0.477,0.477v0.505V22.118z M11.196,21.134c0.074,0.233,0.242,0.599,0.578,0.707v-0.467
			c0-0.132-0.107-0.24-0.24-0.24H11.196z"/>
	</g>
	<g>
		<path fill="#F19106" d="M10.716,21.018c-0.04,0.197-0.229,0.94-0.863,0.972v-0.613c0-0.196,0.162-0.358,0.362-0.358H10.716
			L10.716,21.018z"/>
		<path fill="#1D1E1C" d="M9.734,22.114v-0.738c0-0.263,0.216-0.477,0.481-0.477h0.646l-0.029,0.142
			c-0.049,0.241-0.264,1.032-0.974,1.066L9.734,22.114z M10.215,21.136c-0.134,0-0.244,0.108-0.244,0.24v0.477
			c0.356-0.09,0.523-0.475,0.593-0.717H10.215z"/>
	</g>
	<g>
		<path fill="#ED7E06" d="M5.459,24.785c0,0-0.453,0.06-0.619,0.332c-0.168,0.273,0.022,0.599,0.226,0.648
			c0.851,0.207,2.034,0.201,2.062,0.188c0.024,0.014,1.265,0.05,2.071-0.188c0.197-0.059,0.394-0.375,0.226-0.648
			c-0.167-0.272-0.621-0.332-0.621-0.332C8.762,24.531,5.501,24.639,5.459,24.785L5.459,24.785z"/>
		<path fill="#1D1E1C" d="M7.44,26.083c-0.178,0-0.265-0.004-0.311-0.009c-0.029,0.002-0.077,0.004-0.167,0.004
			c-0.114,0-1.137-0.006-1.923-0.197c-0.142-0.034-0.271-0.156-0.336-0.316c-0.07-0.171-0.056-0.356,0.038-0.51
			c0.193-0.316,0.684-0.385,0.705-0.387l0,0.003c0.301-0.128,1.219-0.157,2.002-0.157c1.062,0,1.35,0.08,1.436,0.165
			c0.142,0.028,0.489,0.122,0.645,0.377c0.091,0.147,0.106,0.321,0.042,0.487c-0.062,0.162-0.194,0.294-0.335,0.336
			C8.611,26.063,7.772,26.083,7.44,26.083z M7.179,25.84c0.042,0.003,0.129,0.006,0.26,0.006c0.251,0,1.117-0.014,1.726-0.194
			c0.058-0.017,0.14-0.085,0.181-0.193c0.026-0.067,0.043-0.171-0.023-0.278c-0.113-0.185-0.425-0.263-0.536-0.277l-0.087-0.011
			l-0.008-0.051c-0.092-0.037-0.434-0.09-1.247-0.09c-0.866,0-1.696,0.06-1.886,0.113l-0.008,0.028l-0.077,0.01
			c-0.111,0.016-0.422,0.094-0.533,0.276c-0.074,0.12-0.045,0.236-0.021,0.295c0.036,0.088,0.107,0.16,0.173,0.177
			c0.76,0.185,1.756,0.19,1.867,0.19c0.078,0,0.129-0.001,0.146-0.003l0.055-0.024L7.179,25.84z"/>
	</g>
	<g>
		<path fill="#1D1E1C" d="M8.81,24.897c-1.949-0.245-3.329-0.005-3.342-0.003L5.426,24.66c0.057-0.01,1.424-0.248,3.414,0.001
			L8.81,24.897z"/>
	</g>
	<g>
		<path fill="#E10717" d="M10.554,15.758l-0.002-1.349l1.619-0.094l0.064,2.128C11.359,15.862,11.333,16.12,10.554,15.758
			L10.554,15.758z"/>
		<path fill="#1D1E1C" d="M12.555,17.018l-0.487-0.323c-0.472-0.312-0.658-0.355-0.893-0.409c-0.188-0.043-0.401-0.092-0.749-0.254
			l-0.175-0.082l-0.002-1.827l2.215-0.129L12.555,17.018z M10.856,15.56c0.191,0.076,0.324,0.107,0.455,0.137
			c0.178,0.041,0.35,0.08,0.606,0.208l-0.039-1.269l-1.023,0.06L10.856,15.56z"/>
	</g>
	<g>
		<path fill="#1D1E1C" d="M7.156,26.303c-1.14,0-2.181-0.179-2.44-0.228C3.024,26.4,1.264,25.734,0.521,24.49
			c-0.569-0.953-0.439-2.049,0.357-3.007c0.97-1.166,0.849-2.361,0.832-2.494l0.601-0.077c0.033,0.26,0.143,1.624-0.967,2.958
			c-0.631,0.76-0.739,1.58-0.303,2.31c0.536,0.896,1.952,1.628,3.615,1.291l0.06-0.012l0.06,0.012
			c0.011,0.003,1.155,0.227,2.381,0.227c1.229,0,2.366-0.224,2.377-0.227l0.06-0.012l0.06,0.012c1.65,0.334,3.041-0.387,3.568-1.27
			c0.439-0.734,0.329-1.562-0.31-2.331c-1.061-1.278-1.008-2.583-0.966-2.953l0.602,0.067c-0.025,0.22-0.102,1.376,0.831,2.499
			c0.803,0.968,0.936,2.071,0.364,3.027c-0.746,1.248-2.445,1.888-4.148,1.565C9.333,26.124,8.297,26.303,7.156,26.303z"/>
	</g>
	<g>
		<path fill="#ED7E06" d="M7.115,14c-0.137,0-0.42,0.088-0.42,0.088s-3.903,1.347-6.059,3.482c-0.607,0.604-0.344,1.381,0.424,1.381
			c0.599,0,6.055,0,6.055,0s5.456,0,6.055,0c0.761,0,1.03-0.777,0.423-1.381c-2.153-2.136-6.058-3.482-6.058-3.482
			S7.251,14,7.115,14L7.115,14z"/>
		<path fill="#1D1E1C" d="M13.17,19.254H1.061c-0.464,0-0.833-0.225-0.989-0.602c-0.17-0.414-0.036-0.911,0.352-1.296
			c2.18-2.159,6.011-3.498,6.173-3.554c0.085-0.026,0.349-0.104,0.519-0.104c0.168,0,0.433,0.078,0.509,0.102
			c0.171,0.059,4.004,1.396,6.181,3.556c0.387,0.385,0.521,0.882,0.351,1.296C14.001,19.028,13.632,19.254,13.17,19.254z
			 M7.115,14.303c-0.052,0-0.217,0.039-0.33,0.074c-0.029,0.01-3.855,1.348-5.936,3.408c-0.21,0.209-0.294,0.454-0.219,0.637
			c0.06,0.145,0.216,0.227,0.43,0.227H13.17c0.211,0,0.367-0.083,0.427-0.228c0.076-0.184-0.008-0.427-0.218-0.636
			c-2.078-2.061-5.904-3.397-5.943-3.41C7.318,14.337,7.163,14.303,7.115,14.303z"/>
	</g>
	<g>
		<path fill="#1288C9" d="M7.814,20.048c0.33,0.178,0.628,0.443,0.819,0.722c0.286,0.412,0.861,1.446,0.58,2.775
			c0,0,0.352,0.346,0.992,0.98c0.372,0.369-0.217,0.938-0.481,1.301h-0.71c0,0,0.258-0.336,0.086-0.646
			c-0.118-0.219-0.539-0.289-0.539-0.289s0.197-0.442-0.122-0.549c0,0,0.615-1.601-0.065-3.053
			c-0.221-0.466-0.565-0.905-1.114-0.989c-0.132-0.01-0.267,0.006-0.402,0.052c-0.49,0.171-0.738,0.523-0.965,1
			c-0.669,1.414-0.02,2.99-0.02,2.99c-0.322,0.105-0.124,0.549-0.124,0.549s-0.42,0.07-0.54,0.289
			c-0.17,0.312,0.088,0.646,0.088,0.646H4.582c-0.179-0.242-0.757-0.926-0.567-1.358c0.231-0.418,1.081-0.923,1.081-0.923
			c-0.26-1.219,0.206-2.191,0.505-2.664c0.23-0.361,0.634-0.697,1.069-0.885C7.113,19.807,7.385,19.818,7.814,20.048L7.814,20.048z"
			/>
		<path fill="#1D1E1C" d="M9.783,25.944H8.778l0.143-0.189c0.002-0.003,0.208-0.28,0.077-0.519
			c-0.074-0.137-0.361-0.214-0.456-0.229l-0.149-0.025l0.061-0.139c0.022-0.051,0.077-0.22,0.034-0.317
			c-0.01-0.022-0.029-0.053-0.085-0.072l-0.117-0.038L8.329,24.3c0.006-0.016,0.588-1.573-0.062-2.961
			c-0.26-0.548-0.605-0.858-1.025-0.923c-0.013,0-0.035-0.001-0.056-0.001c-0.097,0-0.195,0.017-0.291,0.049
			c-0.449,0.158-0.676,0.476-0.896,0.939c-0.639,1.351-0.023,2.879-0.017,2.895l0.048,0.117l-0.121,0.04
			c-0.058,0.019-0.077,0.05-0.087,0.071c-0.043,0.098,0.011,0.267,0.034,0.317l0.061,0.139l-0.149,0.025
			c-0.094,0.016-0.381,0.093-0.457,0.229c-0.13,0.238,0.076,0.516,0.079,0.519l0.143,0.188l-1.01,0.001l-0.097-0.13
			c-0.251-0.329-0.718-0.94-0.519-1.394c0.21-0.38,0.842-0.798,1.058-0.934c-0.23-1.216,0.234-2.191,0.537-2.669
			c0.246-0.386,0.665-0.733,1.122-0.93c0.501-0.213,0.769-0.199,1.246,0.056c0.343,0.185,0.656,0.461,0.861,0.759
			c0.273,0.394,0.873,1.446,0.611,2.803c0.114,0.112,0.44,0.434,0.947,0.936c0.386,0.383-0.023,0.893-0.321,1.264
			c-0.055,0.068-0.106,0.132-0.148,0.19L9.783,25.944z M9.213,25.708h0.452c0.037-0.047,0.077-0.098,0.119-0.149
			c0.314-0.392,0.556-0.733,0.338-0.949c-0.64-0.635-0.992-0.98-0.992-0.98l-0.046-0.045l0.013-0.063
			c0.274-1.297-0.301-2.309-0.562-2.684c-0.184-0.269-0.468-0.518-0.779-0.686c-0.413-0.222-0.613-0.231-1.041-0.047
			c-0.409,0.176-0.799,0.498-1.017,0.84c-0.29,0.458-0.739,1.403-0.489,2.576l0.018,0.082l-0.073,0.044
			c-0.008,0.005-0.825,0.493-1.038,0.878c-0.138,0.317,0.306,0.898,0.495,1.147l0.028,0.036h0.456
			c-0.063-0.149-0.109-0.368,0.008-0.585c0.1-0.181,0.338-0.274,0.491-0.317c-0.026-0.104-0.044-0.25,0.011-0.375
			c0.026-0.06,0.066-0.108,0.119-0.146c-0.134-0.379-0.533-1.73,0.06-2.984c0.239-0.503,0.506-0.876,1.032-1.06
			c0.149-0.05,0.301-0.07,0.45-0.058c0.512,0.078,0.917,0.433,1.212,1.056c0.604,1.289,0.229,2.666,0.104,3.046
			c0.052,0.037,0.093,0.087,0.119,0.146c0.055,0.125,0.037,0.271,0.011,0.374c0.153,0.044,0.392,0.138,0.49,0.319
			C9.323,25.339,9.276,25.559,9.213,25.708z"/>
	</g>
</g>
</svg>
