<?xml version="1.0" encoding="utf-8"?>
<!-- Generator: Adobe Illustrator 16.0.0, SVG Export Plug-In . SVG Version: 6.00 Build 0)  -->
<!DOCTYPE svg PUBLIC "-//W3C//DTD SVG 1.1//EN" "http://www.w3.org/Graphics/SVG/1.1/DTD/svg11.dtd">
<svg version="1.1" id="Capa_1" xmlns="http://www.w3.org/2000/svg" xmlns:xlink="http://www.w3.org/1999/xlink" x="0px" y="0px"
	 width="82.078px" height="40px" viewBox="0 0 82.078 40" enable-background="new 0 0 82.078 40" xml:space="preserve">
<g>
	<path fill="#004A97" d="M15.727,30.632c5.812,0.029,11.119-4.738,11.119-10.539c0-6.342-5.307-10.729-11.119-10.725h-5.002
		C4.842,9.364,0,13.751,0,20.093c0,5.803,4.842,10.568,10.725,10.539H15.727z"/>
	<path fill="#FFFFFF" d="M12.957,25.741V14.224c2.314,0.889,3.957,3.129,3.961,5.758C16.914,22.61,15.271,24.851,12.957,25.741
		 M4.58,19.981c0.004-2.627,1.645-4.867,3.959-5.758v11.514C6.225,24.849,4.584,22.608,4.58,19.981 M10.748,10.247
		c-5.377,0.002-9.73,4.357-9.73,9.734c0,5.375,4.354,9.732,9.73,9.734c5.375-0.002,9.732-4.359,9.734-9.734
		C20.48,14.604,16.123,10.249,10.748,10.247"/>
	<path fill="#1D1E1C" d="M31.35,19.188c0,0.861,0.617,0.963,1.164,0.963c2.418,0,3.211-1.824,3.211-3.49
		c0-2.092-1.342-3.6-3.502-3.6c-0.459,0-0.67,0.031-0.873,0.043V19.188z M30.254,13.942c0-1.004-0.523-0.939-1.025-0.949v-0.291
		c0.434,0.021,0.881,0.021,1.318,0.021c0.469,0,1.107-0.021,1.936-0.021c2.896,0,4.473,1.934,4.473,3.916
		c0,1.105-0.648,3.889-4.607,3.889c-0.57,0-1.096-0.02-1.621-0.02c-0.504,0-0.996,0.01-1.498,0.02v-0.289
		c0.67-0.066,0.994-0.09,1.025-0.852V13.942z"/>
	<path fill="#1D1E1C" d="M38.545,13.673c-0.293,0-0.549-0.266-0.549-0.557c0-0.279,0.268-0.539,0.549-0.539
		c0.289,0,0.547,0.236,0.547,0.539C39.092,13.417,38.846,13.673,38.545,13.673 M37.348,20.218h0.213c0.311,0,0.535,0,0.535-0.369
		v-3.033c0-0.49-0.166-0.559-0.582-0.781v-0.18c0.525-0.156,1.154-0.369,1.199-0.4c0.076-0.047,0.143-0.059,0.199-0.059
		s0.08,0.068,0.08,0.158v4.295c0,0.369,0.246,0.369,0.557,0.369h0.193v0.289c-0.383,0-0.773-0.02-1.178-0.02
		c-0.4,0-0.803,0.01-1.217,0.02V20.218z"/>
	<path fill="#1D1E1C" d="M40.801,16.884c0-0.412-0.121-0.525-0.646-0.738v-0.211c0.48-0.156,0.938-0.303,1.475-0.539
		c0.033,0,0.068,0.025,0.068,0.113v0.727c0.637-0.457,1.188-0.84,1.936-0.84c0.951,0,1.285,0.695,1.285,1.566v2.887
		c0,0.369,0.246,0.369,0.561,0.369h0.201v0.289c-0.393,0-0.783-0.02-1.186-0.02s-0.807,0.01-1.207,0.02v-0.289h0.201
		c0.312,0,0.535,0,0.535-0.369v-2.896c0-0.639-0.391-0.951-1.029-0.951c-0.357,0-0.928,0.291-1.297,0.537v3.311
		c0,0.369,0.246,0.369,0.561,0.369h0.201v0.289c-0.393,0-0.783-0.02-1.188-0.02c-0.402,0-0.805,0.01-1.207,0.02v-0.289h0.203
		c0.311,0,0.533,0,0.533-0.369V16.884z"/>
	<path fill="#1D1E1C" d="M48.51,17.063c0.279,0,0.312-0.145,0.312-0.279c0-0.57-0.348-1.029-0.973-1.029
		c-0.684,0-1.152,0.502-1.287,1.309H48.51z M46.531,17.421c-0.025,0.104-0.025,0.27,0,0.648c0.062,1.062,0.748,1.936,1.643,1.936
		c0.615,0,1.096-0.334,1.51-0.748l0.156,0.156c-0.514,0.682-1.152,1.264-2.068,1.264c-1.779,0-2.137-1.723-2.137-2.439
		c0-2.191,1.475-2.842,2.258-2.842c0.906,0,1.881,0.572,1.891,1.756c0,0.068,0,0.137-0.01,0.203l-0.102,0.066H46.531z"/>
	<path fill="#1D1E1C" d="M50.039,20.218h0.305c0.312,0,0.535,0,0.535-0.369v-3.143c0-0.348-0.414-0.414-0.58-0.504v-0.168
		c0.814-0.348,1.264-0.639,1.365-0.639c0.064,0,0.1,0.035,0.1,0.148v1.004h0.021c0.281-0.434,0.75-1.152,1.434-1.152
		c0.277,0,0.637,0.191,0.637,0.594c0,0.303-0.213,0.57-0.525,0.57c-0.348,0-0.348-0.268-0.738-0.268
		c-0.189,0-0.818,0.256-0.818,0.928v2.629c0,0.369,0.225,0.369,0.537,0.369h0.627v0.289c-0.615-0.01-1.084-0.02-1.566-0.02
		c-0.457,0-0.928,0.01-1.332,0.02V20.218z"/>
	<path fill="#1D1E1C" d="M54.348,18.954c0.145,0.736,0.592,1.363,1.408,1.363c0.658,0,0.904-0.4,0.904-0.793
		c0-1.32-2.436-0.896-2.436-2.695c0-0.627,0.502-1.434,1.732-1.434c0.357,0,0.84,0.104,1.275,0.326l0.08,1.141h-0.26
		c-0.109-0.705-0.504-1.107-1.217-1.107c-0.449,0-0.873,0.258-0.873,0.738c0,1.311,2.594,0.906,2.594,2.662
		c0,0.736-0.594,1.521-1.924,1.521c-0.447,0-0.975-0.158-1.363-0.381l-0.123-1.285L54.348,18.954z"/>
	<path fill="#1D1E1C" d="M67.656,14.726h-0.279c-0.213-1.309-1.141-1.834-2.395-1.834c-1.287,0-3.154,0.861-3.154,3.545
		c0,2.26,1.611,3.881,3.334,3.881c1.105,0,2.023-0.76,2.248-1.934l0.256,0.066l-0.256,1.631c-0.471,0.293-1.734,0.596-2.473,0.596
		c-2.617,0-4.271-1.689-4.271-4.205c0-2.295,2.047-3.939,4.24-3.939c0.904,0,1.777,0.293,2.637,0.594L67.656,14.726z"/>
	<path fill="#1D1E1C" d="M68.059,20.218h0.213c0.312,0,0.537,0,0.537-0.369V13.62c0-0.729-0.168-0.75-0.594-0.873v-0.178
		c0.449-0.146,0.916-0.348,1.152-0.482c0.121-0.066,0.213-0.123,0.244-0.123c0.07,0,0.092,0.068,0.092,0.156v7.729
		c0,0.369,0.246,0.369,0.561,0.369h0.188v0.289c-0.379,0-0.77-0.02-1.174-0.02c-0.402,0-0.805,0.01-1.219,0.02V20.218z"/>
	<path fill="#1D1E1C" d="M75.238,19.892c0,0.203,0.123,0.213,0.314,0.213c0.133,0,0.303-0.01,0.447-0.01v0.234
		c-0.48,0.045-1.398,0.279-1.613,0.348l-0.053-0.035v-0.904c-0.672,0.549-1.188,0.939-1.98,0.939c-0.605,0-1.23-0.391-1.23-1.33
		v-2.865c0-0.289-0.045-0.57-0.672-0.627v-0.211c0.402-0.012,1.297-0.078,1.445-0.078c0.123,0,0.123,0.078,0.123,0.324v2.885
		c0,0.336,0,1.297,0.973,1.297c0.379,0,0.883-0.291,1.352-0.682v-3.008c0-0.225-0.537-0.348-0.938-0.459v-0.201
		c1.006-0.068,1.631-0.156,1.744-0.156c0.088,0,0.088,0.078,0.088,0.201V19.892z"/>
	<path fill="#1D1E1C" d="M77.465,19.243c0,0.428,0.402,1.143,1.152,1.143c1.197,0,1.699-1.176,1.699-2.17
		c0-1.207-0.916-2.215-1.789-2.215c-0.416,0-0.762,0.268-1.062,0.525V19.243z M77.465,16.202c0.447-0.381,1.053-0.807,1.668-0.807
		c1.297,0,2.08,1.131,2.08,2.35c0,1.465-1.076,2.932-2.674,2.932c-0.828,0-1.266-0.27-1.557-0.391l-0.334,0.256l-0.234-0.123
		c0.1-0.66,0.156-1.309,0.156-1.99V13.62c0-0.729-0.168-0.75-0.594-0.873v-0.178c0.449-0.146,0.918-0.348,1.154-0.482
		c0.123-0.066,0.211-0.123,0.244-0.123c0.068,0,0.09,0.068,0.09,0.156V16.202z"/>
	<path fill="#1D1E1C" d="M29.215,27.011h0.086c0.219,0,0.449-0.029,0.449-0.346v-3.189c0-0.316-0.23-0.348-0.449-0.348h-0.086
		v-0.182c0.236,0,0.602,0.023,0.9,0.023c0.305,0,0.668-0.023,0.955-0.023v0.182h-0.084c-0.219,0-0.451,0.031-0.451,0.348v3.189
		c0,0.316,0.232,0.346,0.451,0.346h0.084v0.184c-0.291,0-0.658-0.021-0.961-0.021c-0.297,0-0.658,0.021-0.895,0.021V27.011z"/>
	<path fill="#1D1E1C" d="M31.045,27.167v-0.131h-0.059c-0.219,0-0.477-0.035-0.479-0.371v-3.189c0.002-0.334,0.26-0.375,0.479-0.375
		h0.059v-0.127c-0.281,0-0.635,0.023-0.93,0.023c-0.289,0-0.639-0.021-0.873-0.023v0.127h0.059c0.215,0,0.475,0.041,0.475,0.375
		v3.189c0,0.336-0.26,0.371-0.475,0.371h-0.059v0.131c0.234-0.002,0.58-0.023,0.867-0.023
		C30.406,27.144,30.758,27.165,31.045,27.167 M31.07,27.22c-0.293,0-0.658-0.023-0.961-0.023c-0.297,0-0.656,0.023-0.895,0.023
		h-0.027v-0.025v-0.184v-0.027h0.027h0.086c0.221-0.004,0.42-0.02,0.422-0.318v-3.189c-0.002-0.297-0.201-0.316-0.422-0.322h-0.113
		v-0.025v-0.209h0.027c0.238,0,0.605,0.023,0.9,0.023c0.303,0,0.666-0.023,0.955-0.023h0.027v0.027v0.207H31.07h-0.084
		c-0.223,0.006-0.424,0.025-0.426,0.322v3.189c0.002,0.299,0.203,0.314,0.426,0.318h0.111v0.027v0.209H31.07z"/>
	<path fill="#1D1E1C" d="M35.252,25.993l0.012-0.01V23.7c0-0.498-0.348-0.572-0.529-0.572H34.6v-0.182
		c0.287,0,0.566,0.023,0.852,0.023c0.25,0,0.5-0.023,0.75-0.023v0.182h-0.092c-0.254,0-0.541,0.051-0.541,0.775v2.768
		c0,0.213,0.006,0.426,0.037,0.613h-0.232l-3.133-3.492V26.3c0,0.529,0.102,0.711,0.57,0.711h0.104v0.184
		c-0.262,0-0.523-0.021-0.785-0.021c-0.271,0-0.553,0.021-0.828,0.021v-0.184h0.086c0.42,0,0.549-0.285,0.549-0.773v-2.561
		c0-0.342-0.281-0.549-0.553-0.549h-0.082v-0.182c0.232,0,0.469,0.023,0.699,0.023c0.184,0,0.361-0.023,0.543-0.023L35.252,25.993z"
		/>
	<path fill="#1D1E1C" d="M35.236,25.981v-0.002l-0.004-0.004L35.236,25.981z M35.252,25.993l0.02-0.018L35.252,25.993z
		 M35.373,27.259h0.201c-0.027-0.184-0.031-0.385-0.031-0.588v-2.768c0-0.732,0.305-0.803,0.566-0.803h0.064v-0.127
		c-0.24,0.002-0.48,0.023-0.723,0.023c-0.277,0-0.549-0.021-0.824-0.023v0.127h0.107c0.188,0,0.557,0.084,0.557,0.6l-0.01,2.301
		l-0.012,0.012l-0.02,0.021l-2.707-3.061c-0.182,0-0.357,0.023-0.543,0.023c-0.223,0-0.451-0.021-0.672-0.023v0.127h0.055
		c0.285,0,0.578,0.221,0.578,0.576v2.561c0,0.488-0.137,0.799-0.574,0.801l-0.059-0.002v0.131c0.266-0.002,0.535-0.023,0.801-0.023
		c0.254,0,0.508,0.021,0.76,0.023v-0.129h-0.078c-0.479-0.002-0.598-0.209-0.598-0.738v-2.576L35.373,27.259z M35.605,27.312
		l-0.252-0.01l-3.088-3.441V26.3c0.008,0.529,0.086,0.68,0.545,0.684h0.131v0.027v0.209h-0.027c-0.264,0-0.525-0.023-0.785-0.023
		c-0.271,0-0.551,0.023-0.828,0.023h-0.025v-0.025v-0.211h0.025h0.086c0.4,0,0.518-0.26,0.523-0.746v-2.561
		c-0.002-0.324-0.268-0.523-0.527-0.523h-0.107v-0.025v-0.209h0.025c0.234,0,0.471,0.025,0.699,0.025
		c0.182,0,0.359-0.025,0.562-0.016l2.674,3.01V23.7c-0.002-0.482-0.324-0.541-0.502-0.547h-0.16v-0.025v-0.209H34.6
		c0.289,0,0.568,0.025,0.852,0.025c0.248,0,0.498-0.025,0.75-0.025h0.027v0.027v0.207h-0.027h-0.092
		c-0.252,0.008-0.508,0.029-0.516,0.75v2.768c0,0.211,0.006,0.426,0.035,0.609l0.006,0.031H35.605z"/>
	<path fill="#1D1E1C" d="M37.113,23.251c-0.457,0-0.477,0.109-0.566,0.553h-0.184c0.025-0.17,0.055-0.34,0.074-0.516
		c0.025-0.172,0.037-0.342,0.037-0.518h0.145c0.051,0.184,0.201,0.176,0.365,0.176h3.139c0.166,0,0.318-0.006,0.33-0.188
		l0.145,0.023c-0.021,0.164-0.047,0.328-0.064,0.492c-0.012,0.166-0.012,0.33-0.012,0.494l-0.184,0.066
		c-0.012-0.225-0.043-0.584-0.449-0.584h-0.998v3.236c0,0.471,0.215,0.523,0.504,0.523h0.117v0.184
		c-0.238,0-0.664-0.021-0.992-0.021c-0.367,0-0.793,0.021-1.029,0.021v-0.184h0.115c0.334,0,0.506-0.029,0.506-0.51v-3.25H37.113z"
		/>
	<path fill="#1D1E1C" d="M39.512,27.22c-0.238,0-0.666-0.023-0.992-0.023c-0.365,0-0.791,0.023-1.029,0.023h-0.025v-0.025v-0.211
		h0.025h0.115c0.334-0.006,0.471-0.01,0.479-0.482v-3.225h-0.971v-0.025v-0.029h1.023v3.279c0,0.488-0.197,0.535-0.531,0.537h-0.09
		v0.129c0.24-0.002,0.65-0.023,1.004-0.023c0.318,0,0.725,0.021,0.963,0.023v-0.129h-0.088c-0.293-0.002-0.531-0.072-0.531-0.551
		v-3.266h1.025c0.408,0.002,0.461,0.352,0.475,0.574l0.131-0.047c0-0.158,0-0.316,0.012-0.479c0.018-0.154,0.041-0.312,0.064-0.467
		l-0.094-0.014c-0.027,0.178-0.199,0.186-0.354,0.184h-3.139h-0.031c-0.143,0-0.299-0.006-0.354-0.178h-0.1
		c-0.002,0.17-0.014,0.332-0.037,0.496c-0.016,0.164-0.045,0.326-0.068,0.486h0.131c0.08-0.424,0.135-0.561,0.588-0.557v0.029v0.025
		c-0.451,0.01-0.441,0.086-0.541,0.535l-0.006,0.02h-0.02h-0.213l0.004-0.033c0.023-0.168,0.055-0.338,0.072-0.516
		c0.025-0.168,0.037-0.338,0.037-0.512v-0.029h0.027h0.166l0.004,0.021c0.041,0.152,0.152,0.154,0.309,0.156h0.031h3.139
		c0.17-0.002,0.295-0.004,0.305-0.162l0.004-0.031l0.025,0.006l0.172,0.027l-0.004,0.027c-0.021,0.162-0.047,0.328-0.064,0.49
		c-0.014,0.162-0.014,0.326-0.014,0.492v0.018l-0.016,0.006l-0.217,0.08l-0.002-0.037c-0.016-0.227-0.039-0.559-0.424-0.559h-0.973
		v3.211c0.006,0.461,0.189,0.492,0.479,0.496h0.143v0.027v0.209H39.512z"/>
	<path fill="#1D1E1C" d="M40.793,27.011h0.086c0.219,0,0.451-0.029,0.451-0.346v-3.189c0-0.316-0.232-0.348-0.451-0.348h-0.086
		v-0.182c0.371,0,1.006,0.023,1.516,0.023c0.514,0,1.145-0.023,1.557-0.023c-0.01,0.262-0.004,0.664,0.014,0.932l-0.182,0.047
		c-0.031-0.395-0.104-0.711-0.742-0.711h-0.846v1.596h0.723c0.365,0,0.445-0.207,0.48-0.537h0.184
		c-0.012,0.238-0.018,0.475-0.018,0.713c0,0.232,0.006,0.463,0.018,0.693l-0.184,0.035c-0.035-0.363-0.053-0.602-0.473-0.602h-0.73
		v1.42c0,0.395,0.352,0.395,0.742,0.395c0.729,0,1.053-0.051,1.234-0.742l0.17,0.041c-0.08,0.324-0.152,0.646-0.207,0.969
		c-0.391,0-1.09-0.021-1.637-0.021s-1.271,0.021-1.619,0.021V27.011z"/>
	<path fill="#1D1E1C" d="M44.025,27.167c0.055-0.309,0.125-0.613,0.199-0.922l-0.121-0.029c-0.182,0.68-0.533,0.742-1.252,0.738
		c-0.385,0-0.768,0-0.77-0.422v-1.445h0.758c0.424-0.006,0.467,0.25,0.496,0.598l0.133-0.027c-0.014-0.223-0.018-0.449-0.018-0.672
		c0-0.229,0.004-0.457,0.018-0.686h-0.133c-0.033,0.316-0.133,0.539-0.504,0.535h-0.75v-1.648h0.873
		c0.633-0.004,0.738,0.324,0.764,0.705l0.133-0.033c-0.012-0.174-0.018-0.393-0.018-0.596c0-0.107,0.002-0.203,0.006-0.289
		c-0.414,0.002-1.029,0.023-1.531,0.023s-1.115-0.021-1.488-0.023v0.127h0.059c0.217,0,0.477,0.041,0.479,0.375v3.189
		c-0.002,0.336-0.262,0.371-0.479,0.373H40.82v0.129c0.354-0.002,1.057-0.023,1.592-0.023
		C42.949,27.144,43.633,27.165,44.025,27.167 M44.049,27.22c-0.391,0-1.09-0.023-1.637-0.023s-1.271,0.023-1.619,0.023h-0.025
		v-0.025v-0.184v-0.027h0.025h0.086c0.221-0.002,0.42-0.02,0.426-0.318v-3.189c-0.006-0.297-0.205-0.316-0.426-0.322h-0.111v-0.025
		v-0.209h0.025c0.373,0,1.006,0.025,1.516,0.025c0.514,0,1.145-0.025,1.557-0.025h0.027v0.029c-0.006,0.09-0.008,0.199-0.008,0.314
		c0,0.209,0.008,0.439,0.021,0.613v0.02l-0.021,0.01l-0.213,0.055l-0.002-0.033c-0.037-0.395-0.09-0.68-0.715-0.688h-0.82v1.543
		h0.697c0.352-0.004,0.414-0.184,0.455-0.512l0.004-0.023h0.021h0.211v0.025c-0.012,0.238-0.021,0.475-0.021,0.713
		c0,0.232,0.01,0.463,0.021,0.693V25.7L43.5,25.704l-0.209,0.041l-0.004-0.027c-0.041-0.371-0.045-0.574-0.447-0.58h-0.705v1.395
		c0,0.367,0.318,0.365,0.717,0.367c0.732-0.004,1.025-0.041,1.209-0.725l0.006-0.021l0.025,0.004l0.195,0.049l-0.006,0.027
		c-0.078,0.32-0.152,0.643-0.205,0.967l-0.006,0.02H44.049z"/>
	<path fill="#1D1E1C" d="M45.855,25.003h0.299c0.611,0,0.936-0.23,0.936-0.949c0-0.543-0.346-0.889-0.887-0.889
		c-0.182,0-0.262,0.018-0.348,0.025V25.003z M45.076,23.591c0-0.443-0.242-0.461-0.432-0.461h-0.109v-0.184
		c0.195,0,0.572,0.025,0.943,0.025c0.365,0,0.658-0.025,0.98-0.025c0.766,0,1.447,0.205,1.447,1.072c0,0.545-0.365,0.881-0.844,1.07
		l1.039,1.557c0.172,0.258,0.293,0.33,0.59,0.365v0.184c-0.201,0-0.395-0.021-0.594-0.021c-0.191,0-0.387,0.021-0.574,0.021
		c-0.469-0.615-0.869-1.271-1.266-1.973h-0.402v1.303c0,0.469,0.221,0.486,0.5,0.486h0.109v0.184c-0.348,0-0.699-0.021-1.047-0.021
		c-0.293,0-0.578,0.021-0.883,0.021v-0.184h0.109c0.229,0,0.432-0.102,0.432-0.328V23.591z"/>
	<path fill="#1D1E1C" d="M46.154,24.976c0.604-0.004,0.906-0.213,0.91-0.922c-0.002-0.531-0.332-0.859-0.861-0.863
		c-0.164,0-0.242,0.016-0.32,0.023v1.762H46.154z M45.855,25.03H45.83v-1.865l0.021-0.004c0.086-0.006,0.168-0.02,0.352-0.02
		c0.555,0,0.914,0.359,0.914,0.912c0,0.729-0.35,0.975-0.963,0.977H45.855z M45.855,25.194h0.416l0.01,0.016
		c0.396,0.699,0.795,1.355,1.242,1.957c0.186,0,0.383-0.023,0.572-0.023c0.193,0,0.381,0.021,0.57,0.023v-0.133
		c-0.287-0.035-0.42-0.121-0.586-0.373l-1.059-1.586l0.029-0.01c0.477-0.188,0.83-0.514,0.83-1.049c0-0.844-0.656-1.041-1.422-1.043
		c-0.32,0-0.613,0.023-0.98,0.023c-0.357,0-0.717-0.021-0.916-0.023v0.127h0.082c0.189,0,0.459,0.033,0.459,0.49v3.092
		c0,0.244-0.229,0.355-0.459,0.355h-0.082v0.129c0.291-0.002,0.57-0.023,0.855-0.023c0.342,0,0.682,0.021,1.02,0.023v-0.129h-0.082
		c-0.277,0-0.525-0.035-0.525-0.514v-1.33H45.855z M48.691,27.22c-0.203,0-0.396-0.023-0.596-0.023
		c-0.188,0-0.381,0.023-0.594,0.014c-0.467-0.613-0.867-1.266-1.262-1.961h-0.357v1.275c0.006,0.459,0.189,0.455,0.473,0.459h0.135
		v0.027v0.209h-0.025c-0.348,0-0.701-0.023-1.047-0.023c-0.291,0-0.576,0.023-0.883,0.023H44.51v-0.025v-0.211h0.025h0.109
		c0.221,0,0.404-0.096,0.404-0.301v-3.092c-0.004-0.432-0.215-0.43-0.404-0.438H44.51v-0.025v-0.209h0.025
		c0.197,0,0.574,0.025,0.943,0.025c0.363,0,0.656-0.025,0.98-0.025c0.768,0.002,1.475,0.215,1.475,1.098
		c0,0.549-0.363,0.893-0.832,1.084l1.021,1.529c0.17,0.254,0.277,0.318,0.572,0.354l0.023,0.004v0.023v0.209H48.691z"/>
	<path fill="#1D1E1C" d="M52.824,25.993l0.01-0.01V23.7c0-0.498-0.344-0.572-0.527-0.572h-0.133v-0.182
		c0.285,0,0.562,0.023,0.85,0.023c0.25,0,0.498-0.023,0.75-0.023v0.182h-0.092c-0.254,0-0.541,0.051-0.541,0.775v2.768
		c0,0.213,0.008,0.426,0.035,0.613h-0.229l-3.137-3.492V26.3c0,0.529,0.104,0.711,0.572,0.711h0.104v0.184
		c-0.26,0-0.521-0.021-0.785-0.021c-0.273,0-0.553,0.021-0.828,0.021v-0.184h0.086c0.42,0,0.547-0.285,0.547-0.773v-2.561
		c0-0.342-0.279-0.549-0.553-0.549h-0.08v-0.182c0.23,0,0.471,0.023,0.701,0.023c0.182,0,0.359-0.023,0.541-0.023L52.824,25.993z"/>
	<path fill="#1D1E1C" d="M52.807,25.983v-0.004l-0.002-0.004L52.807,25.983z M52.824,25.993l0.018-0.018L52.824,25.993z
		 M52.947,27.259h0.199c-0.027-0.184-0.033-0.385-0.033-0.588v-2.768c0-0.732,0.309-0.801,0.568-0.803h0.064v-0.127
		c-0.238,0.002-0.48,0.023-0.723,0.023c-0.279,0-0.551-0.021-0.824-0.023v0.127h0.107c0.188,0.002,0.555,0.084,0.555,0.6
		l-0.006,2.301l-0.014,0.012l-0.02,0.021l-2.707-3.061c-0.18,0-0.357,0.023-0.541,0.023c-0.227,0-0.453-0.021-0.676-0.023v0.127
		h0.055c0.285,0.002,0.578,0.219,0.578,0.576v2.561c0,0.488-0.137,0.799-0.574,0.801l-0.059-0.002v0.131
		c0.264-0.002,0.535-0.023,0.803-0.023c0.256,0,0.51,0.021,0.76,0.023v-0.129h-0.078c-0.479-0.002-0.598-0.209-0.6-0.738v-2.576
		L52.947,27.259z M53.176,27.31l-0.248-0.008l-3.092-3.441V26.3c0.008,0.529,0.088,0.68,0.547,0.684h0.131v0.027v0.209h-0.027
		c-0.264,0-0.523-0.023-0.785-0.023c-0.271,0-0.553,0.023-0.828,0.023h-0.025v-0.025v-0.211h0.025h0.084
		c0.404,0,0.518-0.26,0.523-0.746v-2.561c-0.002-0.326-0.268-0.523-0.527-0.523h-0.105v-0.025v-0.209h0.025
		c0.232,0,0.471,0.023,0.701,0.023c0.178,0,0.355-0.023,0.559-0.016l2.674,3.012V23.7c0-0.482-0.322-0.545-0.5-0.547h-0.162v-0.025
		v-0.209h0.027c0.287,0,0.568,0.023,0.852,0.023c0.248,0,0.498-0.023,0.75-0.023h0.025v0.027v0.207h-0.025h-0.092
		c-0.252,0.008-0.508,0.029-0.516,0.75v2.768c0,0.211,0.008,0.424,0.037,0.611l0.004,0.027H53.176z"/>
	<path fill="#1D1E1C" d="M55.641,23.628h-0.012l-0.566,1.723h1.137L55.641,23.628z M54.752,26.325
		c-0.061,0.207-0.137,0.363-0.137,0.473c0,0.184,0.258,0.213,0.459,0.213h0.066v0.184c-0.242-0.012-0.492-0.021-0.736-0.021
		c-0.219,0-0.438,0.01-0.656,0.021v-0.184h0.035c0.238,0,0.439-0.139,0.531-0.396l0.973-2.793c0.078-0.225,0.189-0.527,0.227-0.754
		c0.193-0.064,0.438-0.188,0.555-0.26c0.016-0.008,0.027-0.014,0.047-0.014c0.018,0,0.029,0,0.043,0.02
		c0.018,0.047,0.035,0.102,0.055,0.152l1.119,3.184c0.074,0.211,0.145,0.436,0.225,0.619c0.074,0.172,0.201,0.242,0.402,0.242h0.037
		v0.184c-0.275-0.012-0.549-0.021-0.84-0.021c-0.299,0-0.604,0.01-0.912,0.021v-0.184h0.064c0.143,0,0.379-0.023,0.379-0.178
		c0-0.078-0.057-0.24-0.123-0.436l-0.236-0.707h-1.381L54.752,26.325z"/>
	<path fill="#1D1E1C" d="M55.613,23.636l0.016-0.004L55.613,23.636z M55.098,25.323h1.064l-0.529-1.629L55.098,25.323z
		 M55.023,25.378l0.586-1.777h0.02h0.012v0.027l-0.008,0.002l0.008-0.002v-0.027h0.018l0.578,1.777H55.023z M56.27,27.165
		c0.299-0.01,0.596-0.021,0.887-0.021c0.281,0,0.547,0.012,0.812,0.021v-0.127h-0.01c-0.209,0-0.352-0.08-0.428-0.258
		c-0.078-0.188-0.15-0.412-0.223-0.625l-1.121-3.182c-0.02-0.049-0.037-0.104-0.053-0.146c-0.006-0.008-0.004-0.008-0.01-0.008
		h-0.01c-0.012,0-0.02,0.004-0.037,0.01c-0.117,0.076-0.359,0.197-0.541,0.242c-0.037,0.229-0.146,0.535-0.225,0.76l-0.975,2.793
		c-0.092,0.264-0.307,0.414-0.555,0.414h-0.008v0.127c0.205-0.01,0.418-0.021,0.629-0.021c0.234,0,0.477,0.012,0.707,0.021v-0.127
		h-0.037c-0.199-0.002-0.477-0.023-0.482-0.24c0-0.121,0.074-0.275,0.133-0.48l0.027,0.008l-0.027-0.01l0.203-0.65h1.418
		l0.244,0.723c0.066,0.195,0.123,0.357,0.123,0.447c-0.008,0.186-0.266,0.201-0.404,0.203H56.27V27.165z M57.996,27.22
		c-0.275-0.012-0.551-0.023-0.84-0.023c-0.301,0-0.602,0.012-0.912,0.023l-0.029,0.002v-0.027v-0.211h0.029h0.064
		c0.143,0,0.35-0.031,0.352-0.148c0-0.07-0.053-0.236-0.121-0.432l-0.232-0.688h-1.34l-0.189,0.615
		c-0.062,0.209-0.137,0.369-0.137,0.467c0.004,0.15,0.23,0.186,0.434,0.186h0.094v0.027v0.211l-0.029-0.002
		c-0.242-0.012-0.492-0.023-0.734-0.023c-0.217,0-0.438,0.012-0.654,0.023l-0.029,0.002v-0.027v-0.211h0.027h0.035
		c0.229,0,0.416-0.129,0.504-0.375l0.975-2.793c0.078-0.227,0.189-0.529,0.24-0.771c0.191-0.068,0.436-0.189,0.555-0.264
		c0.018-0.006,0.033-0.014,0.059-0.014c0.014,0,0.047,0.004,0.066,0.035c0.018,0.051,0.035,0.105,0.055,0.152l1.121,3.186
		c0.072,0.213,0.145,0.438,0.223,0.617c0.072,0.164,0.186,0.227,0.379,0.227h0.062v0.027v0.211L57.996,27.22z"/>
	<path fill="#1D1E1C" d="M58.264,23.251c-0.455,0-0.475,0.109-0.566,0.553h-0.184c0.023-0.17,0.055-0.34,0.074-0.516
		c0.025-0.172,0.035-0.342,0.035-0.518h0.146c0.049,0.184,0.201,0.176,0.365,0.176h3.141c0.164,0,0.316-0.006,0.33-0.188
		l0.143,0.023c-0.021,0.164-0.045,0.328-0.066,0.492c-0.012,0.166-0.012,0.33-0.012,0.494l-0.182,0.066
		c-0.014-0.225-0.043-0.584-0.451-0.584h-0.996v3.236c0,0.471,0.213,0.523,0.504,0.523h0.115v0.184c-0.236,0-0.662-0.021-0.99-0.021
		c-0.367,0-0.793,0.021-1.029,0.021v-0.184h0.115c0.336,0,0.504-0.029,0.504-0.51v-3.25H58.264z"/>
	<path fill="#1D1E1C" d="M60.66,27.22c-0.238,0-0.664-0.023-0.99-0.023c-0.363,0-0.791,0.023-1.029,0.023h-0.027v-0.025v-0.211
		h0.027h0.115c0.336-0.006,0.469-0.01,0.479-0.482v-3.225h-0.971v-0.025v-0.029h1.021v3.279c0,0.488-0.195,0.535-0.529,0.535h-0.09
		v0.131c0.242-0.002,0.65-0.023,1.004-0.023c0.316,0,0.725,0.021,0.965,0.023v-0.131h-0.09c-0.293,0-0.531-0.07-0.531-0.549v-3.266
		h1.023c0.41,0.002,0.463,0.352,0.475,0.574l0.131-0.047c0-0.158,0.002-0.316,0.016-0.477c0.016-0.156,0.037-0.314,0.061-0.467
		l-0.092-0.016c-0.027,0.178-0.199,0.186-0.352,0.184h-3.141h-0.031c-0.143,0.002-0.297-0.006-0.354-0.18h-0.1
		c-0.002,0.172-0.014,0.334-0.037,0.498c-0.018,0.166-0.047,0.326-0.07,0.486h0.133c0.08-0.424,0.133-0.562,0.588-0.557v0.029v0.025
		c-0.451,0.008-0.441,0.086-0.543,0.535l-0.002,0.02h-0.021h-0.215l0.004-0.031c0.027-0.17,0.057-0.34,0.074-0.516
		c0.023-0.17,0.035-0.34,0.035-0.514v-0.029h0.027h0.168l0.004,0.021c0.043,0.152,0.152,0.154,0.309,0.156c0.01,0,0.021,0,0.031,0
		h3.141c0.168-0.002,0.291-0.004,0.303-0.162l0.002-0.031l0.027,0.006l0.172,0.027l-0.004,0.027
		c-0.025,0.162-0.047,0.328-0.066,0.49c-0.014,0.162-0.014,0.328-0.014,0.492v0.018l-0.018,0.006l-0.215,0.08l-0.002-0.037
		c-0.014-0.227-0.039-0.559-0.424-0.559h-0.973v3.211c0.008,0.461,0.189,0.492,0.48,0.496h0.141v0.027v0.209H60.66z"/>
	<path fill="#1D1E1C" d="M61.975,27.011h0.084c0.221,0,0.451-0.029,0.451-0.346v-3.189c0-0.316-0.23-0.348-0.451-0.348h-0.084
		v-0.182c0.238,0,0.602,0.023,0.9,0.023c0.305,0,0.67-0.023,0.955-0.023v0.182h-0.084c-0.219,0-0.451,0.031-0.451,0.348v3.189
		c0,0.316,0.232,0.346,0.451,0.346h0.084v0.184c-0.293,0-0.656-0.021-0.961-0.021c-0.299,0-0.656,0.021-0.895,0.021V27.011z"/>
	<path fill="#1D1E1C" d="M63.805,27.167v-0.131h-0.059c-0.219,0-0.477-0.035-0.477-0.371v-3.189c0-0.334,0.258-0.375,0.477-0.375
		h0.059v-0.127c-0.283,0.002-0.635,0.023-0.93,0.023c-0.291,0-0.639-0.021-0.875-0.023v0.127h0.059c0.217,0,0.477,0.041,0.477,0.375
		v3.189c0,0.336-0.26,0.371-0.477,0.371H62v0.131c0.236-0.002,0.58-0.023,0.869-0.023C63.164,27.144,63.518,27.165,63.805,27.167
		 M63.83,27.22c-0.295,0-0.658-0.023-0.961-0.023c-0.299,0-0.656,0.023-0.895,0.023h-0.027v-0.025v-0.184v-0.027h0.027h0.084
		c0.221-0.002,0.422-0.02,0.424-0.318v-3.189c-0.002-0.297-0.203-0.316-0.424-0.322h-0.111v-0.025v-0.209h0.027
		c0.238,0,0.604,0.025,0.9,0.025c0.303,0,0.668-0.025,0.955-0.025h0.027v0.027v0.207H63.83h-0.084
		c-0.223,0.006-0.422,0.025-0.426,0.322v3.189c0.004,0.299,0.203,0.316,0.426,0.318h0.111v0.027v0.209H63.83z"/>
	<path fill="#1D1E1C" d="M66.35,27.019c1.182,0,1.387-1.043,1.387-1.93c0-0.889-0.48-1.967-1.492-1.967
		c-1.064,0-1.379,0.951-1.379,1.766C64.865,25.976,65.363,27.019,66.35,27.019 M66.258,22.854c1.295,0,2.33,0.805,2.33,2.1
		c0,1.4-1.004,2.33-2.299,2.33c-1.291,0-2.277-0.875-2.277-2.184C64.012,23.835,64.99,22.854,66.258,22.854"/>
	<path fill="#1D1E1C" d="M64.838,24.888c0.002-0.818,0.32-1.791,1.406-1.791c1.035,0,1.518,1.098,1.52,1.992
		c-0.002,0.887-0.211,1.955-1.414,1.955v-0.025v-0.027c1.156-0.002,1.359-1.016,1.359-1.902c0-0.883-0.475-1.938-1.465-1.939
		c-1.043,0.002-1.352,0.928-1.354,1.738c0,1.084,0.494,2.102,1.459,2.104v0.027v0.025C65.34,27.04,64.84,25.981,64.838,24.888
		 M63.984,25.101c0.004-1.281,0.994-2.27,2.273-2.271v0.025v0.025c-1.252,0-2.219,0.969-2.221,2.221
		c0.002,1.293,0.973,2.156,2.252,2.158c1.283-0.002,2.273-0.918,2.275-2.305c-0.002-1.279-1.021-2.072-2.307-2.074v-0.025v-0.025
		c1.307,0.002,2.354,0.814,2.357,2.125c-0.002,1.414-1.02,2.354-2.326,2.355C64.988,27.308,63.988,26.423,63.984,25.101"/>
	<path fill="#1D1E1C" d="M72.688,25.993l0.016-0.01V23.7c0-0.498-0.35-0.572-0.531-0.572h-0.133v-0.182
		c0.287,0,0.566,0.023,0.852,0.023c0.25,0,0.5-0.023,0.748-0.023v0.182h-0.09c-0.256,0-0.543,0.051-0.543,0.775v2.768
		c0,0.213,0.006,0.426,0.037,0.613h-0.232l-3.133-3.492V26.3c0,0.529,0.102,0.711,0.572,0.711h0.104v0.184
		c-0.264,0-0.525-0.021-0.787-0.021c-0.271,0-0.553,0.021-0.826,0.021v-0.184h0.086c0.42,0,0.547-0.285,0.547-0.773v-2.561
		c0-0.342-0.277-0.549-0.555-0.549H68.74v-0.182c0.23,0,0.469,0.023,0.699,0.023c0.182,0,0.357-0.023,0.543-0.023L72.688,25.993z"/>
	<path fill="#1D1E1C" d="M72.676,25.983v-0.004l-0.006-0.004L72.676,25.983z M72.688,25.993l0.02-0.018L72.688,25.993z
		 M72.811,27.259h0.201c-0.027-0.184-0.031-0.385-0.031-0.588v-2.768c0-0.734,0.307-0.801,0.566-0.803h0.066v-0.127
		c-0.24,0.002-0.48,0.023-0.723,0.023c-0.279,0-0.549-0.021-0.826-0.023v0.127h0.107c0.189,0.002,0.557,0.086,0.557,0.6
		l-0.008,2.301l-0.014,0.012l-0.02,0.021l-2.705-3.061c-0.182,0-0.357,0.023-0.543,0.023c-0.225,0-0.453-0.021-0.676-0.023v0.127
		h0.055c0.285,0.002,0.58,0.219,0.58,0.576v2.561c0,0.488-0.137,0.799-0.572,0.801l-0.062-0.002v0.131
		c0.266-0.002,0.537-0.023,0.803-0.023c0.256,0,0.508,0.021,0.762,0.023v-0.129h-0.08c-0.479-0.002-0.596-0.209-0.596-0.738v-2.576
		L72.811,27.259z M73.043,27.31l-0.252-0.008l-3.088-3.441V26.3c0.008,0.529,0.088,0.68,0.545,0.684h0.131v0.027v0.209h-0.025
		c-0.264,0-0.525-0.023-0.787-0.023c-0.271,0-0.551,0.023-0.826,0.023h-0.027v-0.025v-0.211h0.027h0.086
		c0.4,0,0.518-0.26,0.52-0.746v-2.561c0-0.326-0.266-0.523-0.527-0.523h-0.105v-0.025v-0.209h0.027c0.23,0,0.469,0.023,0.699,0.023
		c0.18,0,0.355-0.023,0.561-0.014l2.676,3.01V23.7c-0.002-0.482-0.326-0.541-0.504-0.547h-0.16v-0.025v-0.209h0.027
		c0.287,0,0.568,0.023,0.852,0.023c0.25,0,0.498-0.023,0.748-0.023h0.027v0.027v0.207h-0.027h-0.092
		c-0.25,0.008-0.51,0.031-0.514,0.75v2.768c0,0.211,0.004,0.426,0.033,0.611l0.004,0.027H73.043z"/>
	<path fill="#1D1E1C" d="M75.506,23.628h-0.012l-0.568,1.723h1.141L75.506,23.628z M74.615,26.325
		c-0.057,0.207-0.131,0.363-0.131,0.473c0,0.184,0.254,0.213,0.455,0.213h0.068v0.184c-0.244-0.012-0.492-0.021-0.736-0.021
		c-0.221,0-0.438,0.01-0.656,0.021v-0.184h0.035c0.236,0,0.439-0.139,0.529-0.396l0.975-2.793c0.078-0.225,0.188-0.527,0.225-0.754
		c0.193-0.064,0.438-0.188,0.553-0.26c0.018-0.008,0.031-0.014,0.049-0.014c0.02,0,0.031,0,0.043,0.02
		c0.02,0.047,0.037,0.102,0.055,0.152l1.119,3.184c0.072,0.211,0.146,0.436,0.227,0.619c0.072,0.172,0.201,0.242,0.402,0.242h0.037
		v0.184c-0.275-0.012-0.551-0.021-0.842-0.021c-0.297,0-0.602,0.01-0.912,0.021v-0.184h0.066c0.139,0,0.377-0.023,0.377-0.178
		c0-0.078-0.055-0.24-0.123-0.436l-0.236-0.707h-1.381L74.615,26.325z"/>
	<path fill="#1D1E1C" d="M75.482,23.636l0.012-0.004L75.482,23.636z M74.965,25.323h1.064L75.5,23.694L74.965,25.323z
		 M74.891,25.374l0.584-1.773h0.02h0.012v0.027L75.5,23.63l0.006-0.002v-0.027h0.02l0.576,1.773H74.891z M76.135,27.165
		c0.301-0.01,0.598-0.021,0.887-0.021c0.283,0,0.549,0.012,0.812,0.021v-0.127h-0.01c-0.205,0-0.352-0.08-0.424-0.258
		c-0.082-0.188-0.156-0.412-0.227-0.623l-1.121-3.184c-0.018-0.049-0.035-0.104-0.051-0.146c-0.004-0.008-0.004-0.008-0.01-0.008
		H75.98c-0.012,0-0.02,0.006-0.033,0.01c-0.119,0.074-0.363,0.197-0.543,0.242c-0.035,0.229-0.148,0.535-0.227,0.76l-0.975,2.793
		c-0.094,0.264-0.305,0.414-0.553,0.414h-0.012v0.127c0.213-0.01,0.422-0.021,0.633-0.021c0.234,0,0.475,0.012,0.709,0.021v-0.127
		h-0.041c-0.197-0.002-0.475-0.023-0.484-0.24c0.002-0.121,0.08-0.275,0.137-0.48l0.023,0.008l-0.023-0.01l0.201-0.65h1.418
		l0.244,0.723c0.068,0.197,0.123,0.357,0.123,0.447c-0.008,0.186-0.264,0.201-0.402,0.203h-0.041V27.165z M77.859,27.22
		c-0.273-0.01-0.547-0.023-0.838-0.023c-0.297,0-0.602,0.014-0.912,0.023l-0.027,0.002v-0.027v-0.211h0.027h0.066
		c0.141,0,0.352-0.031,0.352-0.148c0.002-0.07-0.055-0.234-0.121-0.432l-0.232-0.688H74.83l-0.188,0.615
		C74.58,26.54,74.51,26.7,74.51,26.798c0,0.15,0.229,0.186,0.43,0.186h0.092v0.027v0.211l-0.025-0.002
		c-0.242-0.01-0.492-0.023-0.734-0.023c-0.217,0-0.438,0.014-0.656,0.023l-0.027,0.002v-0.027v-0.211h0.027h0.035
		c0.227,0,0.414-0.129,0.504-0.375l0.975-2.793c0.078-0.227,0.188-0.529,0.242-0.771c0.189-0.068,0.436-0.189,0.553-0.264
		c0.016-0.006,0.031-0.012,0.057-0.012c0.018-0.002,0.049,0.002,0.068,0.035c0.018,0.049,0.037,0.104,0.057,0.15l1.119,3.186
		c0.07,0.213,0.143,0.438,0.223,0.617c0.072,0.164,0.184,0.227,0.377,0.227h0.062v0.027v0.211L77.859,27.22z"/>
	<path fill="#1D1E1C" d="M79.396,26.597c0,0.244,0.168,0.318,0.363,0.344c0.25,0.018,0.523,0.018,0.805-0.014
		c0.256-0.031,0.473-0.176,0.582-0.33c0.098-0.133,0.152-0.303,0.191-0.438h0.174c-0.066,0.348-0.152,0.689-0.225,1.035
		c-0.535,0-1.072-0.021-1.605-0.021c-0.537,0-1.072,0.021-1.605,0.021v-0.184h0.082c0.219,0,0.459-0.029,0.459-0.406v-3.129
		c0-0.316-0.24-0.348-0.459-0.348h-0.082v-0.182c0.318,0,0.639,0.023,0.957,0.023c0.314,0,0.617-0.023,0.926-0.023v0.182h-0.15
		c-0.232,0-0.412,0.006-0.412,0.33V26.597z"/>
	<path fill="#1D1E1C" d="M81.266,27.167c0.07-0.328,0.15-0.654,0.215-0.982h-0.125c-0.037,0.133-0.092,0.297-0.188,0.43
		c-0.113,0.156-0.34,0.307-0.604,0.34c-0.16,0.016-0.316,0.023-0.465,0.023c-0.119,0-0.234-0.006-0.342-0.012
		c-0.199-0.021-0.393-0.107-0.389-0.369v-3.139c0-0.34,0.213-0.357,0.439-0.357h0.125v-0.127c-0.299,0.002-0.596,0.023-0.898,0.023
		c-0.314,0-0.623-0.021-0.936-0.023v0.127h0.059c0.217,0,0.484,0.041,0.484,0.375v3.129c0,0.393-0.266,0.432-0.484,0.432H78.1v0.131
		c0.525-0.002,1.053-0.023,1.582-0.023C80.209,27.144,80.738,27.165,81.266,27.167 M81.287,27.22c-0.537,0-1.072-0.023-1.605-0.023
		c-0.537,0-1.072,0.023-1.607,0.023h-0.025v-0.025v-0.211h0.025h0.084c0.219-0.004,0.428-0.018,0.432-0.379v-3.129
		c-0.004-0.297-0.211-0.316-0.432-0.322h-0.109v-0.025v-0.209h0.025c0.322,0,0.641,0.025,0.961,0.025
		c0.311,0,0.613-0.025,0.924-0.025h0.025v0.027v0.207h-0.025h-0.15c-0.238,0.008-0.385-0.002-0.389,0.305v3.139
		c0.004,0.229,0.15,0.289,0.34,0.316c0.109,0.008,0.221,0.01,0.34,0.01c0.148,0,0.301-0.006,0.459-0.023
		c0.248-0.027,0.463-0.17,0.568-0.316c0.092-0.131,0.145-0.297,0.184-0.43l0.006-0.021h0.02h0.207l-0.004,0.035
		c-0.068,0.346-0.152,0.688-0.227,1.033l-0.008,0.02H81.287z"/>
	<path fill="#1D1E1C" d="M81.336,23.415h0.076c0.082,0,0.121-0.062,0.121-0.162c0-0.102-0.061-0.137-0.127-0.137h-0.07V23.415z
		 M81.119,23.755v-0.033c0.078-0.01,0.094-0.008,0.094-0.057V23.19c0-0.066-0.008-0.09-0.09-0.086v-0.031h0.326
		c0.115,0,0.217,0.053,0.217,0.168c0,0.096-0.064,0.168-0.152,0.193l0.107,0.148c0.047,0.066,0.104,0.129,0.141,0.15v0.021h-0.125
		c-0.061,0-0.113-0.127-0.23-0.297h-0.07v0.215c0,0.041,0.016,0.039,0.094,0.049v0.033H81.119z M81.438,23.937
		c0.287,0,0.506-0.244,0.506-0.521c0-0.273-0.217-0.523-0.506-0.523c-0.287,0-0.508,0.25-0.508,0.523
		C80.93,23.692,81.15,23.937,81.438,23.937 M81.438,22.774c0.365,0,0.641,0.281,0.641,0.641s-0.275,0.641-0.641,0.641
		c-0.367,0-0.643-0.281-0.643-0.641S81.07,22.774,81.438,22.774"/>
	<path fill="#004A97" d="M15.727,30.632c5.812,0.029,11.119-4.738,11.119-10.539c0-6.342-5.307-10.729-11.119-10.725h-5.002
		C4.842,9.364,0,13.751,0,20.093c0,5.803,4.842,10.568,10.725,10.539H15.727z"/>
	<path fill="#FFFFFF" d="M12.957,25.741V14.224c2.314,0.889,3.957,3.129,3.961,5.758C16.914,22.61,15.271,24.851,12.957,25.741
		 M4.58,19.981c0.004-2.627,1.645-4.867,3.959-5.758v11.514C6.225,24.849,4.584,22.608,4.58,19.981 M10.748,10.247
		c-5.377,0.002-9.73,4.357-9.73,9.734c0,5.375,4.354,9.732,9.73,9.734c5.375-0.002,9.732-4.359,9.734-9.734
		C20.48,14.604,16.123,10.249,10.748,10.247"/>
	<path fill="#1D1E1C" d="M31.35,19.188c0,0.861,0.617,0.963,1.164,0.963c2.418,0,3.211-1.824,3.211-3.49
		c0-2.092-1.342-3.6-3.502-3.6c-0.459,0-0.67,0.031-0.873,0.043V19.188z M30.254,13.942c0-1.004-0.523-0.939-1.025-0.949v-0.291
		c0.434,0.021,0.881,0.021,1.318,0.021c0.469,0,1.107-0.021,1.936-0.021c2.896,0,4.473,1.934,4.473,3.916
		c0,1.105-0.648,3.889-4.607,3.889c-0.57,0-1.096-0.02-1.621-0.02c-0.504,0-0.996,0.01-1.498,0.02v-0.289
		c0.67-0.066,0.994-0.09,1.025-0.852V13.942z"/>
	<path fill="#1D1E1C" d="M38.545,13.673c-0.293,0-0.549-0.266-0.549-0.557c0-0.279,0.268-0.539,0.549-0.539
		c0.289,0,0.547,0.236,0.547,0.539C39.092,13.417,38.846,13.673,38.545,13.673 M37.348,20.218h0.213c0.311,0,0.535,0,0.535-0.369
		v-3.033c0-0.49-0.166-0.559-0.582-0.781v-0.18c0.525-0.156,1.154-0.369,1.199-0.4c0.076-0.047,0.143-0.059,0.199-0.059
		s0.08,0.068,0.08,0.158v4.295c0,0.369,0.246,0.369,0.557,0.369h0.193v0.289c-0.383,0-0.773-0.02-1.178-0.02
		c-0.4,0-0.803,0.01-1.217,0.02V20.218z"/>
	<path fill="#1D1E1C" d="M40.801,16.884c0-0.412-0.121-0.525-0.646-0.738v-0.211c0.48-0.156,0.938-0.303,1.475-0.539
		c0.033,0,0.068,0.025,0.068,0.113v0.727c0.637-0.457,1.188-0.84,1.936-0.84c0.951,0,1.285,0.695,1.285,1.566v2.887
		c0,0.369,0.246,0.369,0.561,0.369h0.201v0.289c-0.393,0-0.783-0.02-1.186-0.02s-0.807,0.01-1.207,0.02v-0.289h0.201
		c0.312,0,0.535,0,0.535-0.369v-2.896c0-0.639-0.391-0.951-1.029-0.951c-0.357,0-0.928,0.291-1.297,0.537v3.311
		c0,0.369,0.246,0.369,0.561,0.369h0.201v0.289c-0.393,0-0.783-0.02-1.188-0.02c-0.402,0-0.805,0.01-1.207,0.02v-0.289h0.203
		c0.311,0,0.533,0,0.533-0.369V16.884z"/>
	<path fill="#1D1E1C" d="M48.51,17.063c0.279,0,0.312-0.145,0.312-0.279c0-0.57-0.348-1.029-0.973-1.029
		c-0.684,0-1.152,0.502-1.287,1.309H48.51z M46.531,17.421c-0.025,0.104-0.025,0.27,0,0.648c0.062,1.062,0.748,1.936,1.643,1.936
		c0.615,0,1.096-0.334,1.51-0.748l0.156,0.156c-0.514,0.682-1.152,1.264-2.068,1.264c-1.779,0-2.137-1.723-2.137-2.439
		c0-2.191,1.475-2.842,2.258-2.842c0.906,0,1.881,0.572,1.891,1.756c0,0.068,0,0.137-0.01,0.203l-0.102,0.066H46.531z"/>
	<path fill="#1D1E1C" d="M50.039,20.218h0.305c0.312,0,0.535,0,0.535-0.369v-3.143c0-0.348-0.414-0.414-0.58-0.504v-0.168
		c0.814-0.348,1.264-0.639,1.365-0.639c0.064,0,0.1,0.035,0.1,0.148v1.004h0.021c0.281-0.434,0.75-1.152,1.434-1.152
		c0.277,0,0.637,0.191,0.637,0.594c0,0.303-0.213,0.57-0.525,0.57c-0.348,0-0.348-0.268-0.738-0.268
		c-0.189,0-0.818,0.256-0.818,0.928v2.629c0,0.369,0.225,0.369,0.537,0.369h0.627v0.289c-0.615-0.01-1.084-0.02-1.566-0.02
		c-0.457,0-0.928,0.01-1.332,0.02V20.218z"/>
	<path fill="#1D1E1C" d="M54.348,18.954c0.145,0.736,0.592,1.363,1.408,1.363c0.658,0,0.904-0.4,0.904-0.793
		c0-1.32-2.436-0.896-2.436-2.695c0-0.627,0.502-1.434,1.732-1.434c0.357,0,0.84,0.104,1.275,0.326l0.08,1.141h-0.26
		c-0.109-0.705-0.504-1.107-1.217-1.107c-0.449,0-0.873,0.258-0.873,0.738c0,1.311,2.594,0.906,2.594,2.662
		c0,0.736-0.594,1.521-1.924,1.521c-0.447,0-0.975-0.158-1.363-0.381l-0.123-1.285L54.348,18.954z"/>
	<path fill="#1D1E1C" d="M67.656,14.726h-0.279c-0.213-1.309-1.141-1.834-2.395-1.834c-1.287,0-3.154,0.861-3.154,3.545
		c0,2.26,1.611,3.881,3.334,3.881c1.105,0,2.023-0.76,2.248-1.934l0.256,0.066l-0.256,1.631c-0.471,0.293-1.734,0.596-2.473,0.596
		c-2.617,0-4.271-1.689-4.271-4.205c0-2.295,2.047-3.939,4.24-3.939c0.904,0,1.777,0.293,2.637,0.594L67.656,14.726z"/>
	<path fill="#1D1E1C" d="M68.059,20.218h0.213c0.312,0,0.537,0,0.537-0.369V13.62c0-0.729-0.168-0.75-0.594-0.873v-0.178
		c0.449-0.146,0.916-0.348,1.152-0.482c0.121-0.066,0.213-0.123,0.244-0.123c0.07,0,0.092,0.068,0.092,0.156v7.729
		c0,0.369,0.246,0.369,0.561,0.369h0.188v0.289c-0.379,0-0.77-0.02-1.174-0.02c-0.402,0-0.805,0.01-1.219,0.02V20.218z"/>
	<path fill="#1D1E1C" d="M75.238,19.892c0,0.203,0.123,0.213,0.314,0.213c0.133,0,0.303-0.01,0.447-0.01v0.234
		c-0.48,0.045-1.398,0.279-1.613,0.348l-0.053-0.035v-0.904c-0.672,0.549-1.188,0.939-1.98,0.939c-0.605,0-1.23-0.391-1.23-1.33
		v-2.865c0-0.289-0.045-0.57-0.672-0.627v-0.211c0.402-0.012,1.297-0.078,1.445-0.078c0.123,0,0.123,0.078,0.123,0.324v2.885
		c0,0.336,0,1.297,0.973,1.297c0.379,0,0.883-0.291,1.352-0.682v-3.008c0-0.225-0.537-0.348-0.938-0.459v-0.201
		c1.006-0.068,1.631-0.156,1.744-0.156c0.088,0,0.088,0.078,0.088,0.201V19.892z"/>
	<path fill="#1D1E1C" d="M77.465,19.243c0,0.428,0.402,1.143,1.152,1.143c1.197,0,1.699-1.176,1.699-2.17
		c0-1.207-0.916-2.215-1.789-2.215c-0.416,0-0.762,0.268-1.062,0.525V19.243z M77.465,16.202c0.447-0.381,1.053-0.807,1.668-0.807
		c1.297,0,2.08,1.131,2.08,2.35c0,1.465-1.076,2.932-2.674,2.932c-0.828,0-1.266-0.27-1.557-0.391l-0.334,0.256l-0.234-0.123
		c0.1-0.66,0.156-1.309,0.156-1.99V13.62c0-0.729-0.168-0.75-0.594-0.873v-0.178c0.449-0.146,0.918-0.348,1.154-0.482
		c0.123-0.066,0.211-0.123,0.244-0.123c0.068,0,0.09,0.068,0.09,0.156V16.202z"/>
	<path fill="#1D1E1C" d="M29.215,27.011h0.086c0.219,0,0.449-0.029,0.449-0.346v-3.189c0-0.316-0.23-0.348-0.449-0.348h-0.086
		v-0.182c0.236,0,0.602,0.023,0.9,0.023c0.305,0,0.668-0.023,0.955-0.023v0.182h-0.084c-0.219,0-0.451,0.031-0.451,0.348v3.189
		c0,0.316,0.232,0.346,0.451,0.346h0.084v0.184c-0.291,0-0.658-0.021-0.961-0.021c-0.297,0-0.658,0.021-0.895,0.021V27.011z"/>
	<path fill="#1D1E1C" d="M31.045,27.167v-0.131h-0.059c-0.219,0-0.477-0.035-0.479-0.371v-3.189c0.002-0.334,0.26-0.375,0.479-0.375
		h0.059v-0.127c-0.281,0-0.635,0.023-0.93,0.023c-0.289,0-0.639-0.021-0.873-0.023v0.127h0.059c0.215,0,0.475,0.041,0.475,0.375
		v3.189c0,0.336-0.26,0.371-0.475,0.371h-0.059v0.131c0.234-0.002,0.58-0.023,0.867-0.023
		C30.406,27.144,30.758,27.165,31.045,27.167 M31.07,27.22c-0.293,0-0.658-0.023-0.961-0.023c-0.297,0-0.656,0.023-0.895,0.023
		h-0.027v-0.025v-0.184v-0.027h0.027h0.086c0.221-0.004,0.42-0.02,0.422-0.318v-3.189c-0.002-0.297-0.201-0.316-0.422-0.322h-0.113
		v-0.025v-0.209h0.027c0.238,0,0.605,0.023,0.9,0.023c0.303,0,0.666-0.023,0.955-0.023h0.027v0.027v0.207H31.07h-0.084
		c-0.223,0.006-0.424,0.025-0.426,0.322v3.189c0.002,0.299,0.203,0.314,0.426,0.318h0.111v0.027v0.209H31.07z"/>
	<path fill="#1D1E1C" d="M35.252,25.993l0.012-0.01V23.7c0-0.498-0.348-0.572-0.529-0.572H34.6v-0.182
		c0.287,0,0.566,0.023,0.852,0.023c0.25,0,0.5-0.023,0.75-0.023v0.182h-0.092c-0.254,0-0.541,0.051-0.541,0.775v2.768
		c0,0.213,0.006,0.426,0.037,0.613h-0.232l-3.133-3.492V26.3c0,0.529,0.102,0.711,0.57,0.711h0.104v0.184
		c-0.262,0-0.523-0.021-0.785-0.021c-0.271,0-0.553,0.021-0.828,0.021v-0.184h0.086c0.42,0,0.549-0.285,0.549-0.773v-2.561
		c0-0.342-0.281-0.549-0.553-0.549h-0.082v-0.182c0.232,0,0.469,0.023,0.699,0.023c0.184,0,0.361-0.023,0.543-0.023L35.252,25.993z"
		/>
	<path fill="#1D1E1C" d="M35.236,25.981v-0.002l-0.004-0.004L35.236,25.981z M35.252,25.993l0.02-0.018L35.252,25.993z
		 M35.373,27.259h0.201c-0.027-0.184-0.031-0.385-0.031-0.588v-2.768c0-0.732,0.305-0.803,0.566-0.803h0.064v-0.127
		c-0.24,0.002-0.48,0.023-0.723,0.023c-0.277,0-0.549-0.021-0.824-0.023v0.127h0.107c0.188,0,0.557,0.084,0.557,0.6l-0.01,2.301
		l-0.012,0.012l-0.02,0.021l-2.707-3.061c-0.182,0-0.357,0.023-0.543,0.023c-0.223,0-0.451-0.021-0.672-0.023v0.127h0.055
		c0.285,0,0.578,0.221,0.578,0.576v2.561c0,0.488-0.137,0.799-0.574,0.801l-0.059-0.002v0.131c0.266-0.002,0.535-0.023,0.801-0.023
		c0.254,0,0.508,0.021,0.76,0.023v-0.129h-0.078c-0.479-0.002-0.598-0.209-0.598-0.738v-2.576L35.373,27.259z M35.605,27.312
		l-0.252-0.01l-3.088-3.441V26.3c0.008,0.529,0.086,0.68,0.545,0.684h0.131v0.027v0.209h-0.027c-0.264,0-0.525-0.023-0.785-0.023
		c-0.271,0-0.551,0.023-0.828,0.023h-0.025v-0.025v-0.211h0.025h0.086c0.4,0,0.518-0.26,0.523-0.746v-2.561
		c-0.002-0.324-0.268-0.523-0.527-0.523h-0.107v-0.025v-0.209h0.025c0.234,0,0.471,0.025,0.699,0.025
		c0.182,0,0.359-0.025,0.562-0.016l2.674,3.01V23.7c-0.002-0.482-0.324-0.541-0.502-0.547h-0.16v-0.025v-0.209H34.6
		c0.289,0,0.568,0.025,0.852,0.025c0.248,0,0.498-0.025,0.75-0.025h0.027v0.027v0.207h-0.027h-0.092
		c-0.252,0.008-0.508,0.029-0.516,0.75v2.768c0,0.211,0.006,0.426,0.035,0.609l0.006,0.031H35.605z"/>
	<path fill="#1D1E1C" d="M37.113,23.251c-0.457,0-0.477,0.109-0.566,0.553h-0.184c0.025-0.17,0.055-0.34,0.074-0.516
		c0.025-0.172,0.037-0.342,0.037-0.518h0.145c0.051,0.184,0.201,0.176,0.365,0.176h3.139c0.166,0,0.318-0.006,0.33-0.188
		l0.145,0.023c-0.021,0.164-0.047,0.328-0.064,0.492c-0.012,0.166-0.012,0.33-0.012,0.494l-0.184,0.066
		c-0.012-0.225-0.043-0.584-0.449-0.584h-0.998v3.236c0,0.471,0.215,0.523,0.504,0.523h0.117v0.184
		c-0.238,0-0.664-0.021-0.992-0.021c-0.367,0-0.793,0.021-1.029,0.021v-0.184h0.115c0.334,0,0.506-0.029,0.506-0.51v-3.25H37.113z"
		/>
	<path fill="#1D1E1C" d="M39.512,27.22c-0.238,0-0.666-0.023-0.992-0.023c-0.365,0-0.791,0.023-1.029,0.023h-0.025v-0.025v-0.211
		h0.025h0.115c0.334-0.006,0.471-0.01,0.479-0.482v-3.225h-0.971v-0.025v-0.029h1.023v3.279c0,0.488-0.197,0.535-0.531,0.537h-0.09
		v0.129c0.24-0.002,0.65-0.023,1.004-0.023c0.318,0,0.725,0.021,0.963,0.023v-0.129h-0.088c-0.293-0.002-0.531-0.072-0.531-0.551
		v-3.266h1.025c0.408,0.002,0.461,0.352,0.475,0.574l0.131-0.047c0-0.158,0-0.316,0.012-0.479c0.018-0.154,0.041-0.312,0.064-0.467
		l-0.094-0.014c-0.027,0.178-0.199,0.186-0.354,0.184h-3.139h-0.031c-0.143,0-0.299-0.006-0.354-0.178h-0.1
		c-0.002,0.17-0.014,0.332-0.037,0.496c-0.016,0.164-0.045,0.326-0.068,0.486h0.131c0.08-0.424,0.135-0.561,0.588-0.557v0.029v0.025
		c-0.451,0.01-0.441,0.086-0.541,0.535l-0.006,0.02h-0.02h-0.213l0.004-0.033c0.023-0.168,0.055-0.338,0.072-0.516
		c0.025-0.168,0.037-0.338,0.037-0.512v-0.029h0.027h0.166l0.004,0.021c0.041,0.152,0.152,0.154,0.309,0.156h0.031h3.139
		c0.17-0.002,0.295-0.004,0.305-0.162l0.004-0.031l0.025,0.006l0.172,0.027l-0.004,0.027c-0.021,0.162-0.047,0.328-0.064,0.49
		c-0.014,0.162-0.014,0.326-0.014,0.492v0.018l-0.016,0.006l-0.217,0.08l-0.002-0.037c-0.016-0.227-0.039-0.559-0.424-0.559h-0.973
		v3.211c0.006,0.461,0.189,0.492,0.479,0.496h0.143v0.027v0.209H39.512z"/>
	<path fill="#1D1E1C" d="M40.793,27.011h0.086c0.219,0,0.451-0.029,0.451-0.346v-3.189c0-0.316-0.232-0.348-0.451-0.348h-0.086
		v-0.182c0.371,0,1.006,0.023,1.516,0.023c0.514,0,1.145-0.023,1.557-0.023c-0.01,0.262-0.004,0.664,0.014,0.932l-0.182,0.047
		c-0.031-0.395-0.104-0.711-0.742-0.711h-0.846v1.596h0.723c0.365,0,0.445-0.207,0.48-0.537h0.184
		c-0.012,0.238-0.018,0.475-0.018,0.713c0,0.232,0.006,0.463,0.018,0.693l-0.184,0.035c-0.035-0.363-0.053-0.602-0.473-0.602h-0.73
		v1.42c0,0.395,0.352,0.395,0.742,0.395c0.729,0,1.053-0.051,1.234-0.742l0.17,0.041c-0.08,0.324-0.152,0.646-0.207,0.969
		c-0.391,0-1.09-0.021-1.637-0.021s-1.271,0.021-1.619,0.021V27.011z"/>
	<path fill="#1D1E1C" d="M44.025,27.167c0.055-0.309,0.125-0.613,0.199-0.922l-0.121-0.029c-0.182,0.68-0.533,0.742-1.252,0.738
		c-0.385,0-0.768,0-0.77-0.422v-1.445h0.758c0.424-0.006,0.467,0.25,0.496,0.598l0.133-0.027c-0.014-0.223-0.018-0.449-0.018-0.672
		c0-0.229,0.004-0.457,0.018-0.686h-0.133c-0.033,0.316-0.133,0.539-0.504,0.535h-0.75v-1.648h0.873
		c0.633-0.004,0.738,0.324,0.764,0.705l0.133-0.033c-0.012-0.174-0.018-0.393-0.018-0.596c0-0.107,0.002-0.203,0.006-0.289
		c-0.414,0.002-1.029,0.023-1.531,0.023s-1.115-0.021-1.488-0.023v0.127h0.059c0.217,0,0.477,0.041,0.479,0.375v3.189
		c-0.002,0.336-0.262,0.371-0.479,0.373H40.82v0.129c0.354-0.002,1.057-0.023,1.592-0.023
		C42.949,27.144,43.633,27.165,44.025,27.167 M44.049,27.22c-0.391,0-1.09-0.023-1.637-0.023s-1.271,0.023-1.619,0.023h-0.025
		v-0.025v-0.184v-0.027h0.025h0.086c0.221-0.002,0.42-0.02,0.426-0.318v-3.189c-0.006-0.297-0.205-0.316-0.426-0.322h-0.111v-0.025
		v-0.209h0.025c0.373,0,1.006,0.025,1.516,0.025c0.514,0,1.145-0.025,1.557-0.025h0.027v0.029c-0.006,0.09-0.008,0.199-0.008,0.314
		c0,0.209,0.008,0.439,0.021,0.613v0.02l-0.021,0.01l-0.213,0.055l-0.002-0.033c-0.037-0.395-0.09-0.68-0.715-0.688h-0.82v1.543
		h0.697c0.352-0.004,0.414-0.184,0.455-0.512l0.004-0.023h0.021h0.211v0.025c-0.012,0.238-0.021,0.475-0.021,0.713
		c0,0.232,0.01,0.463,0.021,0.693V25.7L43.5,25.704l-0.209,0.041l-0.004-0.027c-0.041-0.371-0.045-0.574-0.447-0.58h-0.705v1.395
		c0,0.367,0.318,0.365,0.717,0.367c0.732-0.004,1.025-0.041,1.209-0.725l0.006-0.021l0.025,0.004l0.195,0.049l-0.006,0.027
		c-0.078,0.32-0.152,0.643-0.205,0.967l-0.006,0.02H44.049z"/>
	<path fill="#1D1E1C" d="M45.855,25.003h0.299c0.611,0,0.936-0.23,0.936-0.949c0-0.543-0.346-0.889-0.887-0.889
		c-0.182,0-0.262,0.018-0.348,0.025V25.003z M45.076,23.591c0-0.443-0.242-0.461-0.432-0.461h-0.109v-0.184
		c0.195,0,0.572,0.025,0.943,0.025c0.365,0,0.658-0.025,0.98-0.025c0.766,0,1.447,0.205,1.447,1.072c0,0.545-0.365,0.881-0.844,1.07
		l1.039,1.557c0.172,0.258,0.293,0.33,0.59,0.365v0.184c-0.201,0-0.395-0.021-0.594-0.021c-0.191,0-0.387,0.021-0.574,0.021
		c-0.469-0.615-0.869-1.271-1.266-1.973h-0.402v1.303c0,0.469,0.221,0.486,0.5,0.486h0.109v0.184c-0.348,0-0.699-0.021-1.047-0.021
		c-0.293,0-0.578,0.021-0.883,0.021v-0.184h0.109c0.229,0,0.432-0.102,0.432-0.328V23.591z"/>
	<path fill="#1D1E1C" d="M46.154,24.976c0.604-0.004,0.906-0.213,0.91-0.922c-0.002-0.531-0.332-0.859-0.861-0.863
		c-0.164,0-0.242,0.016-0.32,0.023v1.762H46.154z M45.855,25.03H45.83v-1.865l0.021-0.004c0.086-0.006,0.168-0.02,0.352-0.02
		c0.555,0,0.914,0.359,0.914,0.912c0,0.729-0.35,0.975-0.963,0.977H45.855z M45.855,25.194h0.416l0.01,0.016
		c0.396,0.699,0.795,1.355,1.242,1.957c0.186,0,0.383-0.023,0.572-0.023c0.193,0,0.381,0.021,0.57,0.023v-0.133
		c-0.287-0.035-0.42-0.121-0.586-0.373l-1.059-1.586l0.029-0.01c0.477-0.188,0.83-0.514,0.83-1.049c0-0.844-0.656-1.041-1.422-1.043
		c-0.32,0-0.613,0.023-0.98,0.023c-0.357,0-0.717-0.021-0.916-0.023v0.127h0.082c0.189,0,0.459,0.033,0.459,0.49v3.092
		c0,0.244-0.229,0.355-0.459,0.355h-0.082v0.129c0.291-0.002,0.57-0.023,0.855-0.023c0.342,0,0.682,0.021,1.02,0.023v-0.129h-0.082
		c-0.277,0-0.525-0.035-0.525-0.514v-1.33H45.855z M48.691,27.22c-0.203,0-0.396-0.023-0.596-0.023
		c-0.188,0-0.381,0.023-0.594,0.014c-0.467-0.613-0.867-1.266-1.262-1.961h-0.357v1.275c0.006,0.459,0.189,0.455,0.473,0.459h0.135
		v0.027v0.209h-0.025c-0.348,0-0.701-0.023-1.047-0.023c-0.291,0-0.576,0.023-0.883,0.023H44.51v-0.025v-0.211h0.025h0.109
		c0.221,0,0.404-0.096,0.404-0.301v-3.092c-0.004-0.432-0.215-0.43-0.404-0.438H44.51v-0.025v-0.209h0.025
		c0.197,0,0.574,0.025,0.943,0.025c0.363,0,0.656-0.025,0.98-0.025c0.768,0.002,1.475,0.215,1.475,1.098
		c0,0.549-0.363,0.893-0.832,1.084l1.021,1.529c0.17,0.254,0.277,0.318,0.572,0.354l0.023,0.004v0.023v0.209H48.691z"/>
	<path fill="#1D1E1C" d="M52.824,25.993l0.01-0.01V23.7c0-0.498-0.344-0.572-0.527-0.572h-0.133v-0.182
		c0.285,0,0.562,0.023,0.85,0.023c0.25,0,0.498-0.023,0.75-0.023v0.182h-0.092c-0.254,0-0.541,0.051-0.541,0.775v2.768
		c0,0.213,0.008,0.426,0.035,0.613h-0.229l-3.137-3.492V26.3c0,0.529,0.104,0.711,0.572,0.711h0.104v0.184
		c-0.26,0-0.521-0.021-0.785-0.021c-0.273,0-0.553,0.021-0.828,0.021v-0.184h0.086c0.42,0,0.547-0.285,0.547-0.773v-2.561
		c0-0.342-0.279-0.549-0.553-0.549h-0.08v-0.182c0.23,0,0.471,0.023,0.701,0.023c0.182,0,0.359-0.023,0.541-0.023L52.824,25.993z"/>
	<path fill="#1D1E1C" d="M52.807,25.983v-0.004l-0.002-0.004L52.807,25.983z M52.824,25.993l0.018-0.018L52.824,25.993z
		 M52.947,27.259h0.199c-0.027-0.184-0.033-0.385-0.033-0.588v-2.768c0-0.732,0.309-0.801,0.568-0.803h0.064v-0.127
		c-0.238,0.002-0.48,0.023-0.723,0.023c-0.279,0-0.551-0.021-0.824-0.023v0.127h0.107c0.188,0.002,0.555,0.084,0.555,0.6
		l-0.006,2.301l-0.014,0.012l-0.02,0.021l-2.707-3.061c-0.18,0-0.357,0.023-0.541,0.023c-0.227,0-0.453-0.021-0.676-0.023v0.127
		h0.055c0.285,0.002,0.578,0.219,0.578,0.576v2.561c0,0.488-0.137,0.799-0.574,0.801l-0.059-0.002v0.131
		c0.264-0.002,0.535-0.023,0.803-0.023c0.256,0,0.51,0.021,0.76,0.023v-0.129h-0.078c-0.479-0.002-0.598-0.209-0.6-0.738v-2.576
		L52.947,27.259z M53.176,27.31l-0.248-0.008l-3.092-3.441V26.3c0.008,0.529,0.088,0.68,0.547,0.684h0.131v0.027v0.209h-0.027
		c-0.264,0-0.523-0.023-0.785-0.023c-0.271,0-0.553,0.023-0.828,0.023h-0.025v-0.025v-0.211h0.025h0.084
		c0.404,0,0.518-0.26,0.523-0.746v-2.561c-0.002-0.326-0.268-0.523-0.527-0.523h-0.105v-0.025v-0.209h0.025
		c0.232,0,0.471,0.023,0.701,0.023c0.178,0,0.355-0.023,0.559-0.016l2.674,3.012V23.7c0-0.482-0.322-0.545-0.5-0.547h-0.162v-0.025
		v-0.209h0.027c0.287,0,0.568,0.023,0.852,0.023c0.248,0,0.498-0.023,0.75-0.023h0.025v0.027v0.207h-0.025h-0.092
		c-0.252,0.008-0.508,0.029-0.516,0.75v2.768c0,0.211,0.008,0.424,0.037,0.611l0.004,0.027H53.176z"/>
	<path fill="#1D1E1C" d="M55.641,23.628h-0.012l-0.566,1.723h1.137L55.641,23.628z M54.752,26.325
		c-0.061,0.207-0.137,0.363-0.137,0.473c0,0.184,0.258,0.213,0.459,0.213h0.066v0.184c-0.242-0.012-0.492-0.021-0.736-0.021
		c-0.219,0-0.438,0.01-0.656,0.021v-0.184h0.035c0.238,0,0.439-0.139,0.531-0.396l0.973-2.793c0.078-0.225,0.189-0.527,0.227-0.754
		c0.193-0.064,0.438-0.188,0.555-0.26c0.016-0.008,0.027-0.014,0.047-0.014c0.018,0,0.029,0,0.043,0.02
		c0.018,0.047,0.035,0.102,0.055,0.152l1.119,3.184c0.074,0.211,0.145,0.436,0.225,0.619c0.074,0.172,0.201,0.242,0.402,0.242h0.037
		v0.184c-0.275-0.012-0.549-0.021-0.84-0.021c-0.299,0-0.604,0.01-0.912,0.021v-0.184h0.064c0.143,0,0.379-0.023,0.379-0.178
		c0-0.078-0.057-0.24-0.123-0.436l-0.236-0.707h-1.381L54.752,26.325z"/>
	<path fill="#1D1E1C" d="M55.613,23.636l0.016-0.004L55.613,23.636z M55.098,25.323h1.064l-0.529-1.629L55.098,25.323z
		 M55.023,25.378l0.586-1.777h0.02h0.012v0.027l-0.008,0.002l0.008-0.002v-0.027h0.018l0.578,1.777H55.023z M56.27,27.165
		c0.299-0.01,0.596-0.021,0.887-0.021c0.281,0,0.547,0.012,0.812,0.021v-0.127h-0.01c-0.209,0-0.352-0.08-0.428-0.258
		c-0.078-0.188-0.15-0.412-0.223-0.625l-1.121-3.182c-0.02-0.049-0.037-0.104-0.053-0.146c-0.006-0.008-0.004-0.008-0.01-0.008
		h-0.01c-0.012,0-0.02,0.004-0.037,0.01c-0.117,0.076-0.359,0.197-0.541,0.242c-0.037,0.229-0.146,0.535-0.225,0.76l-0.975,2.793
		c-0.092,0.264-0.307,0.414-0.555,0.414h-0.008v0.127c0.205-0.01,0.418-0.021,0.629-0.021c0.234,0,0.477,0.012,0.707,0.021v-0.127
		h-0.037c-0.199-0.002-0.477-0.023-0.482-0.24c0-0.121,0.074-0.275,0.133-0.48l0.027,0.008l-0.027-0.01l0.203-0.65h1.418
		l0.244,0.723c0.066,0.195,0.123,0.357,0.123,0.447c-0.008,0.186-0.266,0.201-0.404,0.203H56.27V27.165z M57.996,27.22
		c-0.275-0.012-0.551-0.023-0.84-0.023c-0.301,0-0.602,0.012-0.912,0.023l-0.029,0.002v-0.027v-0.211h0.029h0.064
		c0.143,0,0.35-0.031,0.352-0.148c0-0.07-0.053-0.236-0.121-0.432l-0.232-0.688h-1.34l-0.189,0.615
		c-0.062,0.209-0.137,0.369-0.137,0.467c0.004,0.15,0.23,0.186,0.434,0.186h0.094v0.027v0.211l-0.029-0.002
		c-0.242-0.012-0.492-0.023-0.734-0.023c-0.217,0-0.438,0.012-0.654,0.023l-0.029,0.002v-0.027v-0.211h0.027h0.035
		c0.229,0,0.416-0.129,0.504-0.375l0.975-2.793c0.078-0.227,0.189-0.529,0.24-0.771c0.191-0.068,0.436-0.189,0.555-0.264
		c0.018-0.006,0.033-0.014,0.059-0.014c0.014,0,0.047,0.004,0.066,0.035c0.018,0.051,0.035,0.105,0.055,0.152l1.121,3.186
		c0.072,0.213,0.145,0.438,0.223,0.617c0.072,0.164,0.186,0.227,0.379,0.227h0.062v0.027v0.211L57.996,27.22z"/>
	<path fill="#1D1E1C" d="M58.264,23.251c-0.455,0-0.475,0.109-0.566,0.553h-0.184c0.023-0.17,0.055-0.34,0.074-0.516
		c0.025-0.172,0.035-0.342,0.035-0.518h0.146c0.049,0.184,0.201,0.176,0.365,0.176h3.141c0.164,0,0.316-0.006,0.33-0.188
		l0.143,0.023c-0.021,0.164-0.045,0.328-0.066,0.492c-0.012,0.166-0.012,0.33-0.012,0.494l-0.182,0.066
		c-0.014-0.225-0.043-0.584-0.451-0.584h-0.996v3.236c0,0.471,0.213,0.523,0.504,0.523h0.115v0.184c-0.236,0-0.662-0.021-0.99-0.021
		c-0.367,0-0.793,0.021-1.029,0.021v-0.184h0.115c0.336,0,0.504-0.029,0.504-0.51v-3.25H58.264z"/>
	<path fill="#1D1E1C" d="M60.66,27.22c-0.238,0-0.664-0.023-0.99-0.023c-0.363,0-0.791,0.023-1.029,0.023h-0.027v-0.025v-0.211
		h0.027h0.115c0.336-0.006,0.469-0.01,0.479-0.482v-3.225h-0.971v-0.025v-0.029h1.021v3.279c0,0.488-0.195,0.535-0.529,0.535h-0.09
		v0.131c0.242-0.002,0.65-0.023,1.004-0.023c0.316,0,0.725,0.021,0.965,0.023v-0.131h-0.09c-0.293,0-0.531-0.07-0.531-0.549v-3.266
		h1.023c0.41,0.002,0.463,0.352,0.475,0.574l0.131-0.047c0-0.158,0.002-0.316,0.016-0.477c0.016-0.156,0.037-0.314,0.061-0.467
		l-0.092-0.016c-0.027,0.178-0.199,0.186-0.352,0.184h-3.141h-0.031c-0.143,0.002-0.297-0.006-0.354-0.18h-0.1
		c-0.002,0.172-0.014,0.334-0.037,0.498c-0.018,0.166-0.047,0.326-0.07,0.486h0.133c0.08-0.424,0.133-0.562,0.588-0.557v0.029v0.025
		c-0.451,0.008-0.441,0.086-0.543,0.535l-0.002,0.02h-0.021h-0.215l0.004-0.031c0.027-0.17,0.057-0.34,0.074-0.516
		c0.023-0.17,0.035-0.34,0.035-0.514v-0.029h0.027h0.168l0.004,0.021c0.043,0.152,0.152,0.154,0.309,0.156c0.01,0,0.021,0,0.031,0
		h3.141c0.168-0.002,0.291-0.004,0.303-0.162l0.002-0.031l0.027,0.006l0.172,0.027l-0.004,0.027
		c-0.025,0.162-0.047,0.328-0.066,0.49c-0.014,0.162-0.014,0.328-0.014,0.492v0.018l-0.018,0.006l-0.215,0.08l-0.002-0.037
		c-0.014-0.227-0.039-0.559-0.424-0.559h-0.973v3.211c0.008,0.461,0.189,0.492,0.48,0.496h0.141v0.027v0.209H60.66z"/>
	<path fill="#1D1E1C" d="M61.975,27.011h0.084c0.221,0,0.451-0.029,0.451-0.346v-3.189c0-0.316-0.23-0.348-0.451-0.348h-0.084
		v-0.182c0.238,0,0.602,0.023,0.9,0.023c0.305,0,0.67-0.023,0.955-0.023v0.182h-0.084c-0.219,0-0.451,0.031-0.451,0.348v3.189
		c0,0.316,0.232,0.346,0.451,0.346h0.084v0.184c-0.293,0-0.656-0.021-0.961-0.021c-0.299,0-0.656,0.021-0.895,0.021V27.011z"/>
	<path fill="#1D1E1C" d="M63.805,27.167v-0.131h-0.059c-0.219,0-0.477-0.035-0.477-0.371v-3.189c0-0.334,0.258-0.375,0.477-0.375
		h0.059v-0.127c-0.283,0.002-0.635,0.023-0.93,0.023c-0.291,0-0.639-0.021-0.875-0.023v0.127h0.059c0.217,0,0.477,0.041,0.477,0.375
		v3.189c0,0.336-0.26,0.371-0.477,0.371H62v0.131c0.236-0.002,0.58-0.023,0.869-0.023C63.164,27.144,63.518,27.165,63.805,27.167
		 M63.83,27.22c-0.295,0-0.658-0.023-0.961-0.023c-0.299,0-0.656,0.023-0.895,0.023h-0.027v-0.025v-0.184v-0.027h0.027h0.084
		c0.221-0.002,0.422-0.02,0.424-0.318v-3.189c-0.002-0.297-0.203-0.316-0.424-0.322h-0.111v-0.025v-0.209h0.027
		c0.238,0,0.604,0.025,0.9,0.025c0.303,0,0.668-0.025,0.955-0.025h0.027v0.027v0.207H63.83h-0.084
		c-0.223,0.006-0.422,0.025-0.426,0.322v3.189c0.004,0.299,0.203,0.316,0.426,0.318h0.111v0.027v0.209H63.83z"/>
	<path fill="#1D1E1C" d="M66.35,27.019c1.182,0,1.387-1.043,1.387-1.93c0-0.889-0.48-1.967-1.492-1.967
		c-1.064,0-1.379,0.951-1.379,1.766C64.865,25.976,65.363,27.019,66.35,27.019 M66.258,22.854c1.295,0,2.33,0.805,2.33,2.1
		c0,1.4-1.004,2.33-2.299,2.33c-1.291,0-2.277-0.875-2.277-2.184C64.012,23.835,64.99,22.854,66.258,22.854"/>
	<path fill="#1D1E1C" d="M64.838,24.888c0.002-0.818,0.32-1.791,1.406-1.791c1.035,0,1.518,1.098,1.52,1.992
		c-0.002,0.887-0.211,1.955-1.414,1.955v-0.025v-0.027c1.156-0.002,1.359-1.016,1.359-1.902c0-0.883-0.475-1.938-1.465-1.939
		c-1.043,0.002-1.352,0.928-1.354,1.738c0,1.084,0.494,2.102,1.459,2.104v0.027v0.025C65.34,27.04,64.84,25.981,64.838,24.888
		 M63.984,25.101c0.004-1.281,0.994-2.27,2.273-2.271v0.025v0.025c-1.252,0-2.219,0.969-2.221,2.221
		c0.002,1.293,0.973,2.156,2.252,2.158c1.283-0.002,2.273-0.918,2.275-2.305c-0.002-1.279-1.021-2.072-2.307-2.074v-0.025v-0.025
		c1.307,0.002,2.354,0.814,2.357,2.125c-0.002,1.414-1.02,2.354-2.326,2.355C64.988,27.308,63.988,26.423,63.984,25.101"/>
	<path fill="#1D1E1C" d="M72.688,25.993l0.016-0.01V23.7c0-0.498-0.35-0.572-0.531-0.572h-0.133v-0.182
		c0.287,0,0.566,0.023,0.852,0.023c0.25,0,0.5-0.023,0.748-0.023v0.182h-0.09c-0.256,0-0.543,0.051-0.543,0.775v2.768
		c0,0.213,0.006,0.426,0.037,0.613h-0.232l-3.133-3.492V26.3c0,0.529,0.102,0.711,0.572,0.711h0.104v0.184
		c-0.264,0-0.525-0.021-0.787-0.021c-0.271,0-0.553,0.021-0.826,0.021v-0.184h0.086c0.42,0,0.547-0.285,0.547-0.773v-2.561
		c0-0.342-0.277-0.549-0.555-0.549H68.74v-0.182c0.23,0,0.469,0.023,0.699,0.023c0.182,0,0.357-0.023,0.543-0.023L72.688,25.993z"/>
	<path fill="#1D1E1C" d="M72.676,25.983v-0.004l-0.006-0.004L72.676,25.983z M72.688,25.993l0.02-0.018L72.688,25.993z
		 M72.811,27.259h0.201c-0.027-0.184-0.031-0.385-0.031-0.588v-2.768c0-0.734,0.307-0.801,0.566-0.803h0.066v-0.127
		c-0.24,0.002-0.48,0.023-0.723,0.023c-0.279,0-0.549-0.021-0.826-0.023v0.127h0.107c0.189,0.002,0.557,0.086,0.557,0.6
		l-0.008,2.301l-0.014,0.012l-0.02,0.021l-2.705-3.061c-0.182,0-0.357,0.023-0.543,0.023c-0.225,0-0.453-0.021-0.676-0.023v0.127
		h0.055c0.285,0.002,0.58,0.219,0.58,0.576v2.561c0,0.488-0.137,0.799-0.572,0.801l-0.062-0.002v0.131
		c0.266-0.002,0.537-0.023,0.803-0.023c0.256,0,0.508,0.021,0.762,0.023v-0.129h-0.08c-0.479-0.002-0.596-0.209-0.596-0.738v-2.576
		L72.811,27.259z M73.043,27.31l-0.252-0.008l-3.088-3.441V26.3c0.008,0.529,0.088,0.68,0.545,0.684h0.131v0.027v0.209h-0.025
		c-0.264,0-0.525-0.023-0.787-0.023c-0.271,0-0.551,0.023-0.826,0.023h-0.027v-0.025v-0.211h0.027h0.086
		c0.4,0,0.518-0.26,0.52-0.746v-2.561c0-0.326-0.266-0.523-0.527-0.523h-0.105v-0.025v-0.209h0.027c0.23,0,0.469,0.023,0.699,0.023
		c0.18,0,0.355-0.023,0.561-0.014l2.676,3.01V23.7c-0.002-0.482-0.326-0.541-0.504-0.547h-0.16v-0.025v-0.209h0.027
		c0.287,0,0.568,0.023,0.852,0.023c0.25,0,0.498-0.023,0.748-0.023h0.027v0.027v0.207h-0.027h-0.092
		c-0.25,0.008-0.51,0.031-0.514,0.75v2.768c0,0.211,0.004,0.426,0.033,0.611l0.004,0.027H73.043z"/>
	<path fill="#1D1E1C" d="M75.506,23.628h-0.012l-0.568,1.723h1.141L75.506,23.628z M74.615,26.325
		c-0.057,0.207-0.131,0.363-0.131,0.473c0,0.184,0.254,0.213,0.455,0.213h0.068v0.184c-0.244-0.012-0.492-0.021-0.736-0.021
		c-0.221,0-0.438,0.01-0.656,0.021v-0.184h0.035c0.236,0,0.439-0.139,0.529-0.396l0.975-2.793c0.078-0.225,0.188-0.527,0.225-0.754
		c0.193-0.064,0.438-0.188,0.553-0.26c0.018-0.008,0.031-0.014,0.049-0.014c0.02,0,0.031,0,0.043,0.02
		c0.02,0.047,0.037,0.102,0.055,0.152l1.119,3.184c0.072,0.211,0.146,0.436,0.227,0.619c0.072,0.172,0.201,0.242,0.402,0.242h0.037
		v0.184c-0.275-0.012-0.551-0.021-0.842-0.021c-0.297,0-0.602,0.01-0.912,0.021v-0.184h0.066c0.139,0,0.377-0.023,0.377-0.178
		c0-0.078-0.055-0.24-0.123-0.436l-0.236-0.707h-1.381L74.615,26.325z"/>
	<path fill="#1D1E1C" d="M75.482,23.636l0.012-0.004L75.482,23.636z M74.965,25.323h1.064L75.5,23.694L74.965,25.323z
		 M74.891,25.374l0.584-1.773h0.02h0.012v0.027L75.5,23.63l0.006-0.002v-0.027h0.02l0.576,1.773H74.891z M76.135,27.165
		c0.301-0.01,0.598-0.021,0.887-0.021c0.283,0,0.549,0.012,0.812,0.021v-0.127h-0.01c-0.205,0-0.352-0.08-0.424-0.258
		c-0.082-0.188-0.156-0.412-0.227-0.623l-1.121-3.184c-0.018-0.049-0.035-0.104-0.051-0.146c-0.004-0.008-0.004-0.008-0.01-0.008
		H75.98c-0.012,0-0.02,0.006-0.033,0.01c-0.119,0.074-0.363,0.197-0.543,0.242c-0.035,0.229-0.148,0.535-0.227,0.76l-0.975,2.793
		c-0.094,0.264-0.305,0.414-0.553,0.414h-0.012v0.127c0.213-0.01,0.422-0.021,0.633-0.021c0.234,0,0.475,0.012,0.709,0.021v-0.127
		h-0.041c-0.197-0.002-0.475-0.023-0.484-0.24c0.002-0.121,0.08-0.275,0.137-0.48l0.023,0.008l-0.023-0.01l0.201-0.65h1.418
		l0.244,0.723c0.068,0.197,0.123,0.357,0.123,0.447c-0.008,0.186-0.264,0.201-0.402,0.203h-0.041V27.165z M77.859,27.22
		c-0.273-0.01-0.547-0.023-0.838-0.023c-0.297,0-0.602,0.014-0.912,0.023l-0.027,0.002v-0.027v-0.211h0.027h0.066
		c0.141,0,0.352-0.031,0.352-0.148c0.002-0.07-0.055-0.234-0.121-0.432l-0.232-0.688H74.83l-0.188,0.615
		C74.58,26.54,74.51,26.7,74.51,26.798c0,0.15,0.229,0.186,0.43,0.186h0.092v0.027v0.211l-0.025-0.002
		c-0.242-0.01-0.492-0.023-0.734-0.023c-0.217,0-0.438,0.014-0.656,0.023l-0.027,0.002v-0.027v-0.211h0.027h0.035
		c0.227,0,0.414-0.129,0.504-0.375l0.975-2.793c0.078-0.227,0.188-0.529,0.242-0.771c0.189-0.068,0.436-0.189,0.553-0.264
		c0.016-0.006,0.031-0.012,0.057-0.012c0.018-0.002,0.049,0.002,0.068,0.035c0.018,0.049,0.037,0.104,0.057,0.15l1.119,3.186
		c0.07,0.213,0.143,0.438,0.223,0.617c0.072,0.164,0.184,0.227,0.377,0.227h0.062v0.027v0.211L77.859,27.22z"/>
	<path fill="#1D1E1C" d="M79.396,26.597c0,0.244,0.168,0.318,0.363,0.344c0.25,0.018,0.523,0.018,0.805-0.014
		c0.256-0.031,0.473-0.176,0.582-0.33c0.098-0.133,0.152-0.303,0.191-0.438h0.174c-0.066,0.348-0.152,0.689-0.225,1.035
		c-0.535,0-1.072-0.021-1.605-0.021c-0.537,0-1.072,0.021-1.605,0.021v-0.184h0.082c0.219,0,0.459-0.029,0.459-0.406v-3.129
		c0-0.316-0.24-0.348-0.459-0.348h-0.082v-0.182c0.318,0,0.639,0.023,0.957,0.023c0.314,0,0.617-0.023,0.926-0.023v0.182h-0.15
		c-0.232,0-0.412,0.006-0.412,0.33V26.597z"/>
	<path fill="#1D1E1C" d="M81.266,27.167c0.07-0.328,0.15-0.654,0.215-0.982h-0.125c-0.037,0.133-0.092,0.297-0.188,0.43
		c-0.113,0.156-0.34,0.307-0.604,0.34c-0.16,0.016-0.316,0.023-0.465,0.023c-0.119,0-0.234-0.006-0.342-0.012
		c-0.199-0.021-0.393-0.107-0.389-0.369v-3.139c0-0.34,0.213-0.357,0.439-0.357h0.125v-0.127c-0.299,0.002-0.596,0.023-0.898,0.023
		c-0.314,0-0.623-0.021-0.936-0.023v0.127h0.059c0.217,0,0.484,0.041,0.484,0.375v3.129c0,0.393-0.266,0.432-0.484,0.432H78.1v0.131
		c0.525-0.002,1.053-0.023,1.582-0.023C80.209,27.144,80.738,27.165,81.266,27.167 M81.287,27.22c-0.537,0-1.072-0.023-1.605-0.023
		c-0.537,0-1.072,0.023-1.607,0.023h-0.025v-0.025v-0.211h0.025h0.084c0.219-0.004,0.428-0.018,0.432-0.379v-3.129
		c-0.004-0.297-0.211-0.316-0.432-0.322h-0.109v-0.025v-0.209h0.025c0.322,0,0.641,0.025,0.961,0.025
		c0.311,0,0.613-0.025,0.924-0.025h0.025v0.027v0.207h-0.025h-0.15c-0.238,0.008-0.385-0.002-0.389,0.305v3.139
		c0.004,0.229,0.15,0.289,0.34,0.316c0.109,0.008,0.221,0.01,0.34,0.01c0.148,0,0.301-0.006,0.459-0.023
		c0.248-0.027,0.463-0.17,0.568-0.316c0.092-0.131,0.145-0.297,0.184-0.43l0.006-0.021h0.02h0.207l-0.004,0.035
		c-0.068,0.346-0.152,0.688-0.227,1.033l-0.008,0.02H81.287z"/>
	<path fill="#1D1E1C" d="M81.336,23.415h0.076c0.082,0,0.121-0.062,0.121-0.162c0-0.102-0.061-0.137-0.127-0.137h-0.07V23.415z
		 M81.119,23.755v-0.033c0.078-0.01,0.094-0.008,0.094-0.057V23.19c0-0.066-0.008-0.09-0.09-0.086v-0.031h0.326
		c0.115,0,0.217,0.053,0.217,0.168c0,0.096-0.064,0.168-0.152,0.193l0.107,0.148c0.047,0.066,0.104,0.129,0.141,0.15v0.021h-0.125
		c-0.061,0-0.113-0.127-0.23-0.297h-0.07v0.215c0,0.041,0.016,0.039,0.094,0.049v0.033H81.119z M81.438,23.937
		c0.287,0,0.506-0.244,0.506-0.521c0-0.273-0.217-0.523-0.506-0.523c-0.287,0-0.508,0.25-0.508,0.523
		C80.93,23.692,81.15,23.937,81.438,23.937 M81.438,22.774c0.365,0,0.641,0.281,0.641,0.641s-0.275,0.641-0.641,0.641
		c-0.367,0-0.643-0.281-0.643-0.641S81.07,22.774,81.438,22.774"/>
</g>
</svg>
