<?xml version="1.0" encoding="utf-8"?>
<!-- Generator: Adobe Illustrator 16.0.0, SVG Export Plug-In . SVG Version: 6.00 Build 0)  -->
<!DOCTYPE svg PUBLIC "-//W3C//DTD SVG 1.1//EN" "http://www.w3.org/Graphics/SVG/1.1/DTD/svg11.dtd">
<svg version="1.1" id="Capa_1" xmlns="http://www.w3.org/2000/svg" xmlns:xlink="http://www.w3.org/1999/xlink" x="0px" y="0px"
	 width="30.075px" height="40px" viewBox="0 0 30.075 40" enable-background="new 0 0 30.075 40" xml:space="preserve">
<g>
	
		<path fill-rule="evenodd" clip-rule="evenodd" fill="#080710" stroke="#221E20" stroke-width="0.0756" stroke-miterlimit="22.9256" d="
		M15.038,5c8.282,0,15,6.718,15,15s-6.718,15-15,15s-15-6.718-15-15S6.755,5,15.038,5L15.038,5z"/>
	<g>
		<path fill-rule="evenodd" clip-rule="evenodd" fill="#FFFFFF" d="M8.059,15.593c-2.825,0-5.121,2.296-5.121,5.125
			c0,1.049,0.315,2.026,0.86,2.841l9.245-4.044C12.501,17.265,10.475,15.593,8.059,15.593z M5.145,20.985
			c-0.008-0.089,0.004-3.148,2.914-3.197c0.878-0.018,1.662,0.383,2.203,0.992L5.145,20.985z"/>
		<path fill-rule="evenodd" clip-rule="evenodd" fill="#FFFFFF" d="M6.452,23.169l-1.205,1.83c2.133,1.296,4.562,1.126,6.396-0.618
			l-1.532-1.564C8.885,23.775,7.668,23.892,6.452,23.169z"/>
	</g>
	<path fill-rule="evenodd" clip-rule="evenodd" fill="#FFFFFF" d="M13.537,23.093l-0.012-9.685h1.834v9.421
		c0,0.094,0.013,0.174,0.133,0.218l1.595,0.624l-0.72,1.869l-1.871-0.79C13.789,24.447,13.539,24.016,13.537,23.093L13.537,23.093z"
		/>
	<g>
		<path fill-rule="evenodd" clip-rule="evenodd" fill="#029BD6" d="M20.448,22.933c-0.688-0.537-1.131-1.369-1.131-2.311
			c0-0.833,0.353-1.587,0.912-2.121l-1.186-1.918c-1.191,0.941-1.957,2.404-1.957,4.039c0,1.766,0.89,3.323,2.242,4.256
			L20.448,22.933z"/>
		<path fill-rule="evenodd" clip-rule="evenodd" fill="#F9E925" d="M21.251,17.871c0.308-0.113,0.644-0.171,0.991-0.171
			c1.247,0,2.319,0.789,2.735,1.892l2.269-0.19c-0.548-2.257-2.58-3.932-5.004-3.932c-0.688,0-1.34,0.135-1.938,0.378L21.251,17.871
			z"/>
		<path fill-rule="evenodd" clip-rule="evenodd" fill="#E33513" d="M25.16,20.766c-0.073,1.549-1.351,2.779-2.917,2.779
			c-0.247,0-0.485-0.029-0.715-0.085l-0.889,2.061c0.504,0.167,1.04,0.258,1.604,0.258c2.771,0,5.036-2.194,5.146-4.943
			L25.16,20.766z"/>
	</g>
</g>
</svg>
