<?xml version="1.0" encoding="utf-8"?>
<!-- Generator: Adobe Illustrator 16.0.0, SVG Export Plug-In . SVG Version: 6.00 Build 0)  -->
<!DOCTYPE svg PUBLIC "-//W3C//DTD SVG 1.1//EN" "http://www.w3.org/Graphics/SVG/1.1/DTD/svg11.dtd">
<svg version="1.1" id="Capa_1" xmlns="http://www.w3.org/2000/svg" xmlns:xlink="http://www.w3.org/1999/xlink" x="0px" y="0px"
	 width="78px" height="40px" viewBox="0 0 78 40" enable-background="new 0 0 78 40" xml:space="preserve">
<g>
	<g>
		<path fill="#1D1E1C" d="M9.785,19.504v-4.422c0-0.578-0.302-1.215-1.749-1.215v-0.378h5.515v0.378
			c-1.447,0-1.744,0.637-1.744,1.215v9.96c0,0.572,0.297,1.209,1.744,1.209v0.378H8.036v-0.378c1.447,0,1.749-0.637,1.749-1.209
			V20.32H3.771v4.722c0,0.572,0.3,1.209,1.749,1.209v0.378H0v-0.378c1.449,0,1.747-0.637,1.747-1.209v-9.96
			c0-0.578-0.298-1.215-1.747-1.215v-0.378h5.52v0.378c-1.449,0-1.749,0.637-1.749,1.215v4.422H9.785"/>
		<path fill="#1D1E1C" d="M14.017,22.639h0.458c0.613,1.847,2.004,3.515,4.107,3.515c1.605,0,2.698-1.39,2.243-2.936
			c-0.817-2.779-6.235-2.897-6.235-6.687c0-1.971,1.57-3.314,3.513-3.314c2.106,0,3.056,1.467,3.534,0h0.415l0.438,4.229h-0.496
			c-0.458-1.849-1.768-3.416-3.609-3.416c-1.194,0-2.087,0.654-2.087,1.904c0,1.148,1.254,1.965,2.102,2.481
			c2.702,1.625,4.527,2.478,4.527,4.859c0,1.789-1.487,3.631-4.186,3.631c-2.065,0-3.492-1.448-3.694,0h-0.435L14.017,22.639"/>
		<path fill="#1D1E1C" d="M29.484,19.366c2.006,0,3.173-0.853,3.173-2.457c0-1.515-0.947-2.325-2.34-2.585
			c-1.825-0.116-2.462-0.153-2.462,0.536v4.506H29.484 M27.855,24.842c0,0.694,0.182,1.055,1.629,1.055
			c2.063,0,3.593-0.615,3.593-2.938c0-2.361-2.361-2.8-4.23-2.8h-0.991V24.842z M25.832,15.082c0-0.578-0.295-1.215-1.901-1.215
			v-0.378h5.315c3.057,0,5.438,0.82,5.438,3.354c0,1.67-1.116,2.522-2.642,2.858v0.042c1.707,0.316,3.314,1.365,3.314,3.272
			c0,2.382-2.063,3.612-5.177,3.612h-6.25v-0.378c1.606,0,1.901-0.637,1.901-1.209V15.082z"/>
		<path fill="#1D1E1C" d="M47.266,17.58H46.79c-0.576-2.186-2.025-3.671-4.287-3.671c-3.272,0-4.683,2.635-4.683,6.206
			c0,2.781,1.448,5.775,4.704,5.775c1.942,0,3.274-0.633,4.644-1.982l0.333,0.396c-1.207,1.487-3.251,2.482-5.156,2.482
			c-3.867,0-6.823-2.482-6.823-6.827c0-3.952,2.796-6.865,6.786-6.865c2.717,0,3.71,1.626,4.364,0.017h0.416L47.266,17.58"/>
		<rect x="57.982" y="13.135" fill="#FFFFFF" width="13.346" height="13.348"/>
		<polyline fill="#E52713" points="57.982,13.125 71.328,13.125 64.654,19.798 57.982,13.125 		"/>
		<polyline fill="#E52713" points="57.982,26.471 71.328,26.471 64.654,19.798 57.982,26.471 		"/>
		<polyline fill="#E52713" points="57.982,13.125 57.982,26.471 51.308,19.798 57.982,13.125 		"/>
		<polyline fill="#E52713" points="71.328,13.125 71.328,26.471 78,19.798 71.328,13.125 		"/>
	</g>
</g>
</svg>
