<?xml version="1.0" encoding="utf-8"?>
<!-- Generator: Adobe Illustrator 16.0.0, SVG Export Plug-In . SVG Version: 6.00 Build 0)  -->
<!DOCTYPE svg PUBLIC "-//W3C//DTD SVG 1.1//EN" "http://www.w3.org/Graphics/SVG/1.1/DTD/svg11.dtd">
<svg version="1.1" id="Capa_1" xmlns="http://www.w3.org/2000/svg" xmlns:xlink="http://www.w3.org/1999/xlink" x="0px" y="0px"
	 width="52.838px" height="40px" viewBox="0 0 52.838 40" enable-background="new 0 0 52.838 40" xml:space="preserve">
<g>
	<path id="fundo_1_" fill-rule="evenodd" clip-rule="evenodd" fill="#961C1F" d="M14.505,8.5c-1.823,0-5.477,0-5.477,0
		C6.609,8.613,4.63,9.589,4.06,11.598c-0.299,1.049-0.461,2.199-0.695,3.286C2.181,20.408,1.132,26.086,0,31.5h42.634
		c3.297,0,5.559-0.697,6.171-3.312c0.283-1.216,0.558-2.592,0.828-3.928c1.06-5.205,2.12-10.411,3.205-15.76H14.505z"/>
	<path id="hipercard_1_" fill-rule="evenodd" clip-rule="evenodd" fill="#FFFFFF" d="M14.078,16.676
		c0.229-0.159,0.523-0.879,0.185-1.178c-0.105-0.095-0.283-0.121-0.532-0.081c-0.23,0.042-0.365,0.119-0.454,0.242
		c-0.146,0.196-0.277,0.794-0.055,1.017C13.441,16.89,13.933,16.773,14.078,16.676z M10.817,15.498
		c-0.164,1.066-0.35,2.109-0.534,3.152c-1.188,0.014-2.404,0.059-3.552-0.026c0.216-1.021,0.371-2.104,0.588-3.126H6.036
		c-0.459,2.604-0.877,5.25-1.389,7.8h1.308c0.206-1.308,0.398-2.629,0.669-3.872c1.117-0.026,2.453-0.076,3.526,0.026
		c-0.221,1.292-0.489,2.54-0.695,3.846h1.31c0.42-2.641,0.864-5.262,1.39-7.8H10.817z M29.331,17.743
		c-1.019-0.412-1.819,0.284-2.19,0.934c0.083-0.289,0.119-0.629,0.188-0.934h-1.017c-0.248,1.924-0.612,3.73-0.962,5.555h1.15
		c0.161-1.083,0.229-2.542,0.586-3.579c0.285-0.826,1.034-1.533,2.111-1.147C29.212,18.265,29.299,18.032,29.331,17.743z
		 M29.972,21.99c-0.105-0.272-0.134-0.726-0.107-1.068c0.061-0.772,0.34-1.714,0.774-2.137c0.6-0.588,1.78-0.49,2.726-0.161
		c0.028-0.317,0.093-0.601,0.134-0.909c-1.548-0.251-3.016-0.094-3.793,0.723c-0.763,0.799-1.262,2.636-0.908,3.793
		c0.411,1.353,2.266,1.427,3.767,0.908c0.065-0.271,0.1-0.576,0.16-0.855C31.903,22.71,30.337,22.934,29.972,21.99z M42.874,17.77
		c-1.015-0.508-1.859,0.345-2.19,0.854c0.095-0.263,0.101-0.612,0.188-0.881h-1.017c-0.272,1.907-0.604,3.759-0.987,5.555h1.176
		c0.008-0.735,0.153-1.279,0.267-2.003c0.246-1.541,0.606-3.232,2.406-2.724C42.774,18.311,42.799,18.014,42.874,17.77z
		 M12.902,17.743c-0.032,0.004-0.03,0.042-0.028,0.08c-0.251,1.892-0.596,3.696-0.962,5.475h1.149
		c0.277-1.905,0.593-3.771,0.988-5.555H12.902z M23,17.636c-0.831,0.064-1.532,0.303-2.031,0.828
		c-0.61,0.645-1.107,2.069-0.96,3.367c0.206,1.851,2.51,1.782,4.352,1.335c0.032-0.325,0.112-0.604,0.163-0.909
		c-0.76,0.285-2.079,0.682-2.861,0.187c-0.588-0.372-0.592-1.315-0.398-2.136c1.237-0.039,2.526-0.031,3.767,0
		c0.079-0.584,0.304-1.215,0.105-1.791C24.877,17.759,23.945,17.563,23,17.636z M24.095,19.665h-2.697
		c0.085-0.619,0.643-1.302,1.521-1.334C23.747,18.299,24.34,18.634,24.095,19.665z M18.646,17.743
		c-0.973-0.366-2.158,0.07-2.67,0.486c0.002,0.017-0.014,0.019-0.028,0.021c0.008-0.008,0.019-0.016,0.028-0.021
		c-0.002-0.002-0.002-0.004-0.002-0.006c0.01-0.178,0.071-0.303,0.081-0.48h-0.99c-0.41,2.74-0.899,5.403-1.415,8.04h1.148
		c0.166-1.026,0.278-2.111,0.509-3.073c0.263,1.013,1.975,0.818,2.696,0.429C19.496,22.332,20.647,18.494,18.646,17.743z
		 M17.736,22.257c-0.614,0.651-2.126,0.643-2.243-0.454c-0.053-0.476,0.125-0.975,0.214-1.47c0.089-0.499,0.151-0.978,0.24-1.416
		c0.604-0.739,2.385-0.828,2.564,0.402C18.669,20.386,18.245,21.718,17.736,22.257z M47.149,15.34
		c-0.101,0.861-0.23,1.691-0.402,2.483c-2.816-0.893-4.544,1.181-4.514,3.737c0.006,0.496,0.091,0.987,0.4,1.339
		c0.533,0.601,2.061,0.746,2.831,0.239c0.149-0.098,0.303-0.277,0.403-0.4c0.071-0.095,0.19-0.338,0.211-0.269
		c-0.039,0.271-0.1,0.523-0.105,0.828h1.041c0.201-2.878,0.822-5.339,1.281-7.958H47.149z M44.585,22.686
		c-0.775,0.015-1.159-0.463-1.176-1.257c-0.03-1.389,0.578-2.933,1.816-3.071c0.574-0.064,0.992,0.068,1.415,0.214
		C46.253,20.132,46.392,22.646,44.585,22.686z M34.672,17.743c-0.057,0.317-0.142,0.604-0.213,0.907
		c0.678-0.17,2.789-0.691,2.993,0.212c0.068,0.303-0.051,0.622-0.134,0.856c-1.909-0.18-3.465,0.138-3.875,1.496
		c-0.273,0.911,0.032,1.807,0.616,2.059c1.123,0.479,2.491-0.07,2.964-0.83c-0.05,0.263-0.095,0.529-0.08,0.854h0.989
		c0.009-0.945,0.148-1.712,0.293-2.562c0.124-0.726,0.358-1.446,0.32-2.085C38.461,17.184,36.033,17.704,34.672,17.743z
		 M36.543,22.23c-0.594,0.58-2.255,0.744-2.084-0.641c0.142-1.151,1.395-1.396,2.753-1.229C37.11,20.99,36.995,21.788,36.543,22.23z
		"/>
</g>
</svg>
