<?xml version="1.0" encoding="utf-8"?>
<!-- Generator: Adobe Illustrator 16.0.0, SVG Export Plug-In . SVG Version: 6.00 Build 0)  -->
<!DOCTYPE svg PUBLIC "-//W3C//DTD SVG 1.1//EN" "http://www.w3.org/Graphics/SVG/1.1/DTD/svg11.dtd">
<svg version="1.1" id="Capa_1" xmlns="http://www.w3.org/2000/svg" xmlns:xlink="http://www.w3.org/1999/xlink" x="0px" y="0px"
	 width="55.859px" height="40px" viewBox="0 0 55.859 40" enable-background="new 0 0 55.859 40" xml:space="preserve">
<g>
	<path fill-rule="evenodd" clip-rule="evenodd" fill="#075744" d="M0.02,9c18.609,0,37.229,0,55.84,0c0,7.338,0,14.662,0,22
		c-18.605,0-37.214,0-55.824,0C0.016,31.002,0.006,30.992,0,30.981c0-7.31,0-14.619,0-21.925C0,9.031-0.002,9.005,0.02,9z"/>
	<path fill-rule="evenodd" clip-rule="evenodd" fill="#7E161B" d="M20.728,20.226c0,4.479-3.651,8.107-8.159,8.107
		s-8.164-3.629-8.164-8.107c0-4.48,3.656-8.109,8.164-8.109S20.728,15.746,20.728,20.226z"/>
	<rect x="26.636" y="13.758" fill-rule="evenodd" clip-rule="evenodd" fill="#FFFFFF" width="3" height="12"/>
	<path fill-rule="evenodd" clip-rule="evenodd" fill="#FFFFFF" d="M36.809,18.474c0.244-0.267,2.038-2.542,2.719-3.383
		c0.924,0,1.846,0,2.77,0c0.045,0-4.148,4.799-4.219,4.92c0.766,0.992,4.092,5.28,4.075,5.305c-0.878,0-3.103,0-3.103,0
		s-2.227-3.267-2.503-3.668c-0.048,0.015-2.216,2.842-2.876,3.668c-0.953,0-1.908,0-2.855,0c-0.092-0.008,3.691-4.348,4.463-5.238
		c-0.02-0.066-3.947-4.955-3.936-4.986c0.793,0,3.101,0,3.101,0"/>
	<path fill-rule="evenodd" clip-rule="evenodd" fill="#FFFFFF" d="M35.279,16.254c0.003,0.001,0.027,0.009,0.029,0.019"/>
	<path fill-rule="evenodd" clip-rule="evenodd" fill="#FFFFFF" d="M34.996,15.81c0.007,0.016,0.006,0.021,0.014,0.036"/>
	<path fill-rule="evenodd" clip-rule="evenodd" fill="#FFFFFF" d="M34.904,15.691"/>
	<path fill-rule="evenodd" clip-rule="evenodd" fill="#FFFFFF" d="M34.873,15.632"/>
	<path fill-rule="evenodd" clip-rule="evenodd" fill="#FFFFFF" d="M34.607,15.266"/>
	<g>
		<g>
			<path fill-rule="evenodd" clip-rule="evenodd" fill="#F6A514" d="M21.822,20.523c0.004-0.156,0.086-0.318,0.086-0.445
				c0-0.07-0.041-0.17-0.055-0.26c-0.031-0.199-0.068-0.383-0.09-0.551c-0.026-0.209-0.029-0.371-0.069-0.525
				c-0.044-0.203-0.107-0.424-0.142-0.584c-0.009-0.053-0.008-0.107-0.014-0.143c-0.023-0.066-0.066-0.121-0.09-0.173
				c-0.056-0.13,0.029-0.323,0-0.46c-0.014-0.07-0.078-0.117-0.121-0.18c-0.016-0.014-0.014-0.037-0.021-0.048
				c-0.033-0.058-0.078-0.086-0.086-0.146c-0.016-0.057,0.014-0.175,0-0.229c-0.02-0.054-0.068-0.097-0.106-0.16
				c-0.013-0.016-0.009-0.037-0.021-0.047c-0.001-0.016-0.022-0.027-0.03-0.04c-0.039-0.064-0.057-0.124-0.092-0.172
				c-0.033-0.064-0.088-0.116-0.121-0.163c-0.027-0.03-0.036-0.052-0.057-0.088c-0.025-0.071-0.022-0.164-0.049-0.243
				c-0.017-0.042-0.053-0.064-0.072-0.107c-0.059-0.122-0.111-0.267-0.178-0.354c-0.041-0.054-0.11-0.097-0.154-0.161
				c-0.055-0.06-0.094-0.128-0.146-0.192c-0.055-0.074-0.132-0.166-0.175-0.23c0,0-0.017-0.01-0.019-0.016
				c-0.041-0.043-0.055-0.102-0.088-0.14c-0.08-0.103-0.199-0.167-0.28-0.263c-0.02-0.033-0.022-0.07-0.038-0.092
				c-0.002-0.008-0.025-0.011-0.031-0.016c-0.017-0.021-0.004-0.053-0.017-0.072c-0.041-0.055-0.103-0.073-0.146-0.121
				c-0.026-0.037-0.041-0.081-0.068-0.105c-0.064-0.062-0.166-0.084-0.232-0.146c-0.067-0.057-0.111-0.143-0.175-0.211
				c-0.011-0.012-0.04-0.021-0.05-0.031c-0.02-0.02-0.016-0.051-0.036-0.074c-0.013-0.012-0.043-0.02-0.052-0.031
				c-0.02-0.023-0.018-0.059-0.034-0.074c-0.04-0.03-0.103-0.055-0.147-0.088c-0.041-0.028-0.067-0.05-0.088-0.071
				c-0.031-0.03-0.072-0.043-0.105-0.067c-0.047-0.041-0.094-0.068-0.137-0.104c-0.111-0.095-0.199-0.193-0.299-0.284
				c-0.02-0.017-0.049-0.017-0.074-0.038c-0.03-0.026-0.064-0.069-0.09-0.086c-0.014-0.013-0.021-0.021-0.031-0.038
				c-0.098-0.074-0.217-0.104-0.339-0.155c-0.218-0.103-0.452-0.216-0.649-0.32c-0.047-0.021-0.096-0.063-0.124-0.066
				c-0.075-0.021-0.157,0.003-0.229-0.02c-0.005,0-0.026-0.028-0.035-0.038c-0.056-0.026-0.099-0.059-0.142-0.088
				c-0.101-0.066-0.163-0.121-0.28-0.137c-0.051-0.01-0.08-0.006-0.128-0.017c-0.087-0.026-0.193-0.085-0.259-0.107
				c-0.106-0.043-0.276-0.058-0.373-0.069c-0.131-0.023-0.277-0.06-0.389-0.074c-0.161-0.028-0.242-0.113-0.373-0.137
				c-0.098-0.025-0.211-0.013-0.314-0.021c-0.217-0.021-0.42-0.043-0.617-0.069c-0.1-0.017-0.186-0.06-0.283-0.074
				c-0.209-0.028-0.438,0.02-0.652-0.014c-0.107-0.02-0.194-0.107-0.301-0.107c-0.018,0-0.029,0.008-0.051,0.018
				c-0.064,0.016-0.164,0.032-0.25,0.054c-0.089,0.021-0.182,0.069-0.244,0.065c-0.081-0.001-0.164-0.082-0.248-0.087
				c-0.029,0-0.074,0.028-0.123,0.04c-0.041,0.003-0.097,0.006-0.138,0.018c-0.19,0.028-0.385,0.049-0.567,0.088
				c-0.203,0.047-0.434,0.15-0.6,0.211c-0.092,0.03-0.185,0.052-0.266,0.072c-0.152,0.022-0.324,0.022-0.438,0.065
				c-0.063,0.022-0.131,0.086-0.193,0.129c-0.066,0.041-0.126,0.086-0.195,0.122c-0.098,0.043-0.21,0.064-0.317,0.105
				c-0.167,0.062-0.294,0.18-0.514,0.159c-0.085,0.071-0.163,0.151-0.247,0.229c-0.021,0.018-0.047,0.012-0.072,0.031
				c-0.069,0.06-0.11,0.146-0.193,0.18c-0.039,0.01-0.096,0.009-0.137,0.014c-0.043,0.016-0.086,0.017-0.124,0.038
				c-0.129,0.063-0.224,0.237-0.341,0.337c-0.107,0.093-0.256,0.16-0.387,0.243c-0.062,0.043-0.129,0.086-0.193,0.128
				c-0.041,0.022-0.108,0.053-0.123,0.065C6.32,13.484,6.32,13.468,6.3,13.485c-0.054,0.026-0.075,0.065-0.089,0.107
				c-0.004,0-0.035,0.007-0.038,0.017c-0.02,0.026-0.028,0.072-0.05,0.105c-0.021,0.028-0.051,0.051-0.074,0.088
				c-0.023,0.027-0.046,0.078-0.069,0.105c-0.026,0.028-0.083,0.05-0.126,0.09c-0.031,0.027-0.067,0.07-0.104,0.105
				c-0.057,0.048-0.133,0.1-0.177,0.137c-0.023,0.021-0.054,0.04-0.068,0.057c-0.061,0.066-0.084,0.162-0.144,0.213
				c-0.021,0.014-0.072,0.016-0.105,0.031c-0.031,0.019-0.052,0.043-0.088,0.057c-0.066,0.117-0.153,0.293-0.244,0.389
				c-0.027,0.023-0.06,0.021-0.072,0.031C4.77,15.095,4.834,15.352,4.8,15.459c-0.009,0.028-0.032,0.043-0.054,0.067
				c-0.142,0.19-0.279,0.35-0.389,0.553c-0.078,0.029-0.164,0.051-0.211,0.102c-0.015,0.014-0.015,0.072-0.034,0.105
				c-0.021,0.037-0.064,0.068-0.071,0.09c-0.025,0.078-0.025,0.215-0.036,0.332c-0.011,0.123-0.032,0.238-0.034,0.34
				c-0.006,0.074,0.025,0.193,0.015,0.227c-0.011,0.057-0.086,0.119-0.138,0.18c-0.068,0.066-0.122,0.082-0.144,0.174
				c-0.021,0.086,0.021,0.207,0,0.32c-0.011,0.065-0.083,0.131-0.086,0.194c-0.002,0.011,0.015,0.042,0.017,0.064
				c0.023,0.171,0.048,0.317,0.035,0.495c-0.006,0.063-0.006,0.16-0.018,0.214c-0.008,0.021-0.039,0.044-0.054,0.069
				c-0.019,0.038-0.021,0.081-0.034,0.105c-0.03,0.062-0.075,0.109-0.092,0.176c-0.018,0.113-0.005,0.25-0.014,0.373
				c-0.013,0.125,0.002,0.26-0.034,0.371c-0.02,0.049-0.054,0.088-0.071,0.121c-0.041,0.072-0.088,0.139-0.144,0.213
				c0.069,0.139,0.089,0.34,0.126,0.494c0.022,0.095,0.057,0.145,0.089,0.209c0.06,0.133,0.06,0.335,0.066,0.512
				c0.021,0.326,0.041,0.627,0.073,0.897c0.016,0.172,0.047,0.247,0.088,0.356c0.018,0.045,0.025,0.084,0.033,0.123
				c0.002,0.008,0.035,0.027,0.038,0.036c0.021,0.054,0.028,0.118,0.05,0.173c0.068,0.171,0.141,0.32,0.212,0.479
				c0.052,0.107,0.129,0.207,0.161,0.314c0.023,0.086,0.009,0.184,0.033,0.268c0.033,0.097,0.147,0.201,0.212,0.316
				c0.046,0.081,0.084,0.188,0.127,0.285c0.045,0.107,0.107,0.269,0.155,0.354c0.076,0.119,0.131,0.221,0.193,0.33
				c0.066,0.122,0.103,0.165,0.193,0.229c0.103,0.071,0.158,0.134,0.231,0.214c0.081,0.086,0.193,0.186,0.249,0.262
				c0.073,0.115,0.188,0.189,0.281,0.27c0.069,0.055,0.176,0.135,0.213,0.195c0.021,0.033,0.052,0.046,0.071,0.068
				c0.007,0.016,0.002,0.039,0.017,0.051c0.014,0.02,0.052,0.035,0.071,0.056c0.007,0.013,0.005,0.04,0.017,0.05
				c0.026,0.037,0.069,0.061,0.105,0.092c0.052,0.043,0.095,0.086,0.139,0.119c0.057,0.045,0.102,0.086,0.146,0.126
				c0.073,0.064,0.14,0.155,0.21,0.214c0.02,0.016,0.057,0.018,0.09,0.031c0.003,0.01,0.004,0.033,0.016,0.035
				c0.012,0.014,0.037,0.012,0.052,0.021c0.084,0.052,0.15,0.093,0.231,0.142c0.024,0.01,0.045,0.035,0.069,0.052
				c0.05,0.024,0.127,0.042,0.175,0.067c0.066,0.043,0.102,0.111,0.159,0.164c0.053,0.045,0.134,0.086,0.196,0.119
				c0.136,0.079,0.27,0.165,0.42,0.229c0.185,0.086,0.389,0.15,0.568,0.233c0.023,0.006,0.043,0.039,0.069,0.049
				c0.038,0.019,0.075,0.019,0.107,0.04c0.064,0.043,0.107,0.114,0.155,0.153c0.027,0.023,0.055,0.019,0.088,0.039
				c0.182,0.096,0.475,0.184,0.67,0.26c0.094,0.041,0.084,0.047,0.161,0.04c0.277-0.04,0.431,0.003,0.62,0.067
				c0.067,0.023,0.145,0.062,0.207,0.072c0.174,0.029,0.365,0.008,0.547,0.016c0.193,0.017,0.387,0,0.564,0.018
				c0.045,0.004,0.09,0.025,0.144,0.039c0.054,0.006,0.129,0.004,0.173,0.016c0.092,0.029,0.156,0.096,0.25,0.121
				c0.114-0.047,0.139-0.09,0.265-0.104c0.136-0.02,0.271,0.014,0.407,0.016c0.281,0.016,0.547-0.023,0.809-0.033
				c0.146-0.008,0.289,0.008,0.424-0.016c0.075-0.018,0.148-0.053,0.226-0.072c0.274-0.072,0.602-0.159,0.849-0.227
				c0.211-0.063,0.397-0.146,0.584-0.213c0.08-0.035,0.168-0.076,0.227-0.087c0.06-0.02,0.141,0.001,0.193-0.02
				c0.01,0,0.029-0.032,0.038-0.038c0.019-0.007,0.034-0.005,0.054-0.018c0.059-0.033,0.115-0.09,0.159-0.119
				c0.013-0.018,0.034-0.008,0.05-0.019c0.015-0.013,0.021-0.043,0.038-0.056c0.064-0.052,0.157-0.098,0.212-0.138
				c0.01-0.013,0.021-0.024,0.033-0.04c0.075-0.049,0.092-0.053,0.178-0.088c0.134-0.045,0.25-0.108,0.349-0.173
				c0.052-0.036,0.097-0.06,0.146-0.087c0.018-0.018,0.031-0.042,0.049-0.057c0.031-0.018,0.063-0.018,0.088-0.033
				c0.021-0.017,0.035-0.038,0.059-0.057c0.024-0.016,0.066-0.02,0.088-0.031c0.125-0.1,0.194-0.264,0.299-0.299
				c0.064-0.025,0.133,0,0.193-0.018c0.143-0.171,0.303-0.359,0.455-0.493c0.016-0.017,0.042-0.013,0.057-0.021
				c0.012-0.014,0.021-0.043,0.031-0.053c0.04-0.035,0.104-0.076,0.126-0.105c0.013-0.016,0.022-0.02,0.038-0.035
				c0.057-0.078,0.104-0.16,0.155-0.232c0.005-0.004,0.03-0.005,0.04-0.018c0.006-0.01,0.001-0.033,0.014-0.051
				c0.01-0.006,0.03-0.008,0.033-0.02c0.018-0.01,0.008-0.037,0.021-0.049c0.019-0.02,0.054-0.037,0.067-0.059
				c0.016-0.008,0.012-0.039,0.019-0.047c0.034-0.042,0.112-0.105,0.146-0.126c0.008-0.009,0.037-0.005,0.047-0.021
				c0.047-0.039,0.085-0.09,0.128-0.137c0.093-0.104,0.236-0.217,0.279-0.337c0.021-0.058,0.036-0.097,0.056-0.144
				c0.021-0.047,0.052-0.092,0.072-0.119c0.016-0.029,0.022-0.053,0.031-0.072c0.037-0.064,0.098-0.123,0.123-0.159
				c0.019-0.021,0.019-0.052,0.039-0.067c0.025-0.039,0.074-0.062,0.105-0.09c0.066-0.068,0.113-0.152,0.211-0.193
				c0.023-0.182,0.135-0.311,0.213-0.463c0.031-0.067,0.068-0.153,0.102-0.227c0.041-0.08,0.104-0.152,0.123-0.229
				c0.035-0.119,0.002-0.255,0.041-0.371c0.001-0.031,0.035-0.077,0.049-0.104c0.078-0.146,0.146-0.33,0.193-0.461
				c0.037-0.094,0.062-0.179,0.088-0.244c0.035-0.096,0.061-0.164,0.076-0.268c0.012-0.174,0.024-0.314,0.047-0.477
				c0.033-0.199,0.085-0.415,0.088-0.615c0.004-0.137-0.024-0.256-0.031-0.391C21.828,20.818,21.809,20.666,21.822,20.523z
				 M20.019,20.628c0.001,0.048,0,0.123,0,0.176c0.003,0.098,0.04,0.199,0.038,0.301c-0.002,0.15-0.051,0.33-0.074,0.492
				c-0.008,0.087-0.027,0.162-0.031,0.246c-0.014,0.077-0.002,0.176-0.019,0.249c-0.019,0.062-0.063,0.129-0.087,0.193
				c-0.02,0.032-0.023,0.071-0.041,0.107c-0.029,0.079-0.062,0.193-0.105,0.3c-0.024,0.064-0.067,0.108-0.087,0.173
				c-0.024,0.107,0,0.235-0.032,0.339c-0.011,0.023-0.037,0.059-0.054,0.088c-0.005,0.006-0.009,0.039-0.021,0.047
				c-0.003,0.012-0.027,0.016-0.033,0.021c-0.032,0.062-0.041,0.126-0.072,0.173c-0.059,0.125-0.148,0.212-0.175,0.34
				c0,0.053-0.086,0.064-0.107,0.107c-0.001,0.002,0.005,0.025,0,0.033c-0.013,0.012-0.042,0.006-0.05,0.014
				c-0.014,0.016-0.012,0.031-0.016,0.04c-0.085,0.085-0.182,0.214-0.254,0.335c-0.035,0.072-0.062,0.138-0.102,0.211
				c-0.008,0.008,0.008,0.031,0,0.034c-0.008,0.005-0.03-0.003-0.035,0c-0.014,0.013-0.012,0.024-0.018,0.036
				c-0.025,0.028-0.068,0.066-0.106,0.107c-0.05,0.055-0.086,0.114-0.157,0.178c-0.037,0.025-0.086,0.047-0.123,0.087
				c-0.041,0.034-0.061,0.081-0.088,0.124c-0.019,0.02-0.037,0.026-0.059,0.049c-0.01,0.021-0.021,0.057-0.029,0.072
				c-0.047,0.057-0.09,0.105-0.146,0.18c0,0.005-0.03,0.006-0.034,0.012c-0.02,0.051-0.039,0.049-0.09,0.092
				c-0.039,0.033-0.072,0.074-0.121,0.121c-0.02,0.02-0.034,0.055-0.056,0.074c-0.009,0.007-0.04,0.007-0.048,0.014
				c-0.062,0.051-0.144,0.165-0.211,0.229c-0.076-0.014-0.092,0.027-0.162,0.022c-0.107,0.091-0.195,0.19-0.299,0.259
				c-0.066,0.047-0.138,0.102-0.211,0.147c-0.013,0.003-0.037,0.001-0.056,0.017c-0.023,0.014-0.043,0.053-0.067,0.07
				c-0.023,0.012-0.062,0.004-0.088,0.018c-0.031,0.008-0.043,0.024-0.072,0.033c-0.045,0.014-0.096,0.033-0.139,0.056
				c-0.088,0.044-0.154,0.13-0.234,0.193c-0.029,0.022-0.082,0.062-0.121,0.087c-0.039,0.027-0.09,0.072-0.121,0.086
				c-0.081,0.037-0.167,0.029-0.252,0.057c-0.117,0.033-0.237,0.093-0.348,0.137c-0.186,0.068-0.362,0.149-0.551,0.195
				c-0.069,0.019-0.137,0.019-0.209,0.039c-0.123,0.025-0.244,0.084-0.373,0.105c-0.133,0.023-0.287,0.006-0.438,0.018
				c-0.141,0.007-0.271,0.029-0.406,0.029c-0.144,0.002-0.283-0.035-0.443-0.016c-0.043,0.01-0.078,0.018-0.123,0.036
				c-0.028,0.015-0.071,0.04-0.105,0.038c-0.055,0-0.135-0.061-0.229-0.088c-0.07-0.02-0.169-0.049-0.248-0.057
				c-0.27-0.025-0.598,0.021-0.843-0.018c-0.128-0.014-0.233-0.091-0.339-0.105c-0.089-0.01-0.215-0.01-0.318,0
				c-0.028,0.006-0.039,0.023-0.07,0.018c-0.004-0.003-0.025-0.031-0.035-0.033c-0.138-0.043-0.295-0.119-0.438-0.18
				c-0.023-0.005-0.043-0.026-0.07-0.029c-0.036-0.019-0.073-0.012-0.091-0.019c-0.074-0.043-0.118-0.13-0.193-0.177
				c-0.034-0.023-0.094-0.037-0.14-0.059c-0.046-0.02-0.083-0.045-0.126-0.065c-0.092-0.042-0.193-0.064-0.282-0.106
				c-0.126-0.061-0.236-0.139-0.365-0.215c-0.042-0.021-0.097-0.029-0.129-0.049c-0.062-0.043-0.107-0.119-0.172-0.164
				c-0.088-0.059-0.191-0.086-0.282-0.135c-0.021-0.018-0.037-0.04-0.057-0.059c-0.024-0.016-0.048-0.021-0.067-0.031
				c-0.023-0.014-0.048-0.021-0.071-0.034c-0.01-0.005-0.015-0.036-0.017-0.04c-0.052-0.021-0.077-0.053-0.127-0.105
				c-0.112-0.112-0.301-0.22-0.405-0.37c-0.018-0.021-0.056-0.046-0.089-0.086c-0.03-0.042-0.04-0.064-0.086-0.107
				c-0.06-0.044-0.144-0.114-0.214-0.173c-0.014-0.016-0.021-0.043-0.035-0.055c-0.014-0.01-0.037-0.008-0.052-0.018
				c-0.013-0.013-0.021-0.039-0.038-0.056c-0.043-0.052-0.114-0.138-0.176-0.212c-0.046-0.059-0.094-0.119-0.173-0.175
				c-0.043-0.026-0.091-0.038-0.126-0.067c-0.012-0.019-0.046-0.126-0.067-0.16c-0.05-0.09-0.107-0.159-0.163-0.267
				c-0.03-0.069-0.068-0.149-0.102-0.231c-0.051-0.096-0.103-0.24-0.18-0.348c-0.026-0.042-0.064-0.062-0.09-0.128
				c-0.022-0.064-0.008-0.136-0.031-0.21C5.795,23.15,5.74,23.059,5.7,22.973c-0.093-0.204-0.191-0.435-0.282-0.669
				c-0.038-0.096-0.04-0.135-0.057-0.283c-0.003-0.047-0.026-0.08-0.033-0.123c-0.029-0.201-0.026-0.386-0.036-0.6
				c-0.002-0.092,0-0.214-0.019-0.3c-0.015-0.081-0.082-0.15-0.105-0.231c-0.007-0.025-0.008-0.068-0.02-0.107
				c-0.007-0.069-0.005-0.129-0.031-0.209c-0.027-0.09-0.055-0.09,0-0.178c0.01-0.02,0.023-0.047,0.031-0.068
				c0.024-0.041,0.077-0.076,0.092-0.127c0.011-0.045,0.009-0.115,0.016-0.174c0.017-0.133,0.036-0.281,0-0.441
				c0.115-0.154,0.199-0.285,0.193-0.546c-0.002-0.05-0.026-0.107-0.031-0.159c-0.012-0.047-0.021-0.119-0.019-0.16
				c0.002-0.086,0.056-0.11,0.067-0.195c0.025-0.135-0.029-0.252,0.038-0.334c0.042-0.051,0.154-0.117,0.174-0.193
				c0.04-0.133,0.002-0.355,0.021-0.492c0.015-0.141,0.036-0.268,0.122-0.373c0.021-0.024,0.007-0.033,0.031-0.049
				c0.035-0.019,0.107-0.04,0.146-0.072c0.011-0.011,0.021-0.053,0.036-0.072c0.004-0.003,0.03-0.012,0.032-0.018
				c0.039-0.078,0.11-0.16,0.175-0.243c0.038-0.043,0.079-0.071,0.09-0.107c0.034-0.103-0.021-0.206,0.018-0.321
				c0.025-0.076,0.124-0.114,0.176-0.194c0.013-0.013,0.01-0.021,0.018-0.034c0.017-0.012,0.02-0.033,0.038-0.052
				s0.046-0.089,0.067-0.142c0.06-0.021,0.098-0.057,0.162-0.072c0.029-0.062,0.071-0.125,0.119-0.173
				c0.06-0.056,0.137-0.089,0.195-0.144c0.033-0.025,0.058-0.061,0.092-0.09C7.29,15.164,7.342,15.094,7.409,15
				c0.031-0.049,0.064-0.102,0.104-0.141c0.035-0.031,0.105-0.059,0.163-0.085c0.127-0.081,0.288-0.171,0.419-0.265
				c0.037-0.035,0.093-0.064,0.123-0.105c0.036-0.049,0.101-0.162,0.163-0.195c0.021-0.015,0.045-0.008,0.066-0.018
				c0.007-0.004,0.032-0.039,0.038-0.039c0.048-0.006,0.093,0.021,0.139,0c0.061-0.022,0.15-0.121,0.211-0.173
				c0.033-0.028,0.072-0.063,0.106-0.087c0.038-0.035,0.06-0.08,0.087-0.09c0.055-0.021,0.139,0.002,0.195-0.017
				c0.057-0.021,0.102-0.083,0.16-0.107c0.03-0.017,0.071-0.003,0.105-0.021c0.032-0.008,0.049-0.022,0.073-0.035
				c0.056-0.019,0.114-0.03,0.153-0.052c0.113-0.05,0.193-0.155,0.301-0.193c0.131-0.043,0.298-0.034,0.443-0.069
				c0.1-0.025,0.2-0.074,0.299-0.105c0.293-0.104,0.623-0.147,0.974-0.232c0.073,0.027,0.132,0.068,0.208,0.072
				c0.059,0,0.141-0.033,0.213-0.052c0.086-0.021,0.152-0.043,0.245-0.056c0.001-0.018,0.019-0.009,0.019,0
				c0.067,0.012,0.104,0.056,0.158,0.074c0.154,0.039,0.33-0.006,0.511,0.018c0.077,0.007,0.147,0.05,0.231,0.071
				c0.119,0.021,0.258,0.021,0.388,0.034c0.062,0.008,0.129,0.009,0.193,0.014c0.063,0.008,0.132,0.01,0.175,0.018
				c0.086,0.021,0.147,0.085,0.232,0.106c0.043,0.017,0.108,0.013,0.154,0.021c0.055,0.003,0.096,0.021,0.145,0.034
				c0.096,0.016,0.209,0.01,0.301,0.031c0.072,0.021,0.153,0.066,0.227,0.09c0.043,0.017,0.086,0.028,0.122,0.038
				c0.054,0.011,0.11,0.001,0.146,0.019c0.047,0.02,0.089,0.072,0.139,0.105c0.051,0.027,0.111,0.069,0.16,0.09
				c0.111,0.043,0.197,0.031,0.301,0.087c0.025,0.015,0.062,0.04,0.088,0.05c0.174,0.096,0.428,0.197,0.6,0.299
				c0.026,0.018,0.048,0.017,0.067,0.038c0.019,0.015,0.023,0.042,0.038,0.052c0.016,0.013,0.048,0.013,0.071,0.034
				c0.013,0.017,0.02,0.043,0.034,0.054c0.021,0.016,0.052,0.018,0.071,0.033c0.013,0.018,0.021,0.042,0.034,0.059
				c0.021,0.012,0.051,0.01,0.072,0.029c0.012,0.019,0.021,0.041,0.033,0.059c0.018,0.012,0.053,0.014,0.072,0.031
				c0.027,0.034,0.051,0.057,0.105,0.088c0.005,0.008,0.008,0.034,0.016,0.035c0.043,0.021,0.094,0.057,0.14,0.088
				c0.112,0.083,0.215,0.188,0.321,0.299c0.004,0.016,0.023,0.027,0.035,0.04c0.006,0.003,0.009,0.044,0.014,0.05
				c0.059,0.047,0.141,0.059,0.193,0.104c0.008,0.008,0.017,0.035,0.018,0.04c0.021,0.021,0.1,0.086,0.128,0.124
				c0.043,0.048,0.063,0.121,0.106,0.177c0.064,0.077,0.16,0.129,0.229,0.212c0.039,0.046,0.07,0.109,0.105,0.153
				c0.075,0.101,0.143,0.193,0.227,0.301c0.016,0.021,0.004,0.043,0.021,0.054c0.013,0.012,0.04,0.008,0.054,0.018
				c0.053,0.051,0.094,0.145,0.14,0.229c0.024,0.046,0.067,0.101,0.086,0.144c0.042,0.084,0.038,0.18,0.073,0.265
				c0.013,0.03,0.031,0.04,0.055,0.067c0.031,0.045,0.049,0.082,0.086,0.146c0.062,0.097,0.131,0.228,0.214,0.331
				c0.002,0.082-0.03,0.113-0.02,0.178c0.003,0.041,0.022,0.029,0.054,0.072c0.014,0.021,0.018,0.064,0.032,0.086
				c0.043,0.059,0.099,0.09,0.105,0.141c0.021,0.082-0.03,0.203-0.019,0.318c0.016,0.08,0.066,0.148,0.088,0.228
				c0.018,0.064,0.02,0.144,0.039,0.215c0.016,0.064,0.041,0.129,0.051,0.193c0.034,0.129,0.076,0.267,0.09,0.386
				c0.009,0.062-0.008,0.129,0,0.193c0.016,0.211,0.107,0.424,0.104,0.621c0,0.121-0.059,0.238-0.07,0.352
				C19.998,20.517,20.019,20.57,20.019,20.628z"/>
		</g>
	</g>
	<g>
		<g>
			<path fill-rule="evenodd" clip-rule="evenodd" fill="#F6A514" d="M17.743,20.062c-0.017-0.084-0.017-0.158-0.034-0.211
				c-0.018-0.055-0.115-0.162-0.139-0.211c-0.021-0.027-0.023-0.078-0.04-0.09c-0.05-0.059-0.174-0.098-0.228-0.141
				c-0.075-0.061-0.109-0.129-0.193-0.174c-0.121-0.074-0.195-0.086-0.354-0.107c-0.129-0.019-0.343-0.006-0.438-0.037
				c-0.131-0.041-0.281,0.019-0.422,0.019c-0.084,0-0.162-0.034-0.25-0.036c-0.043-0.002-0.111,0.015-0.155,0.018
				c-0.063,0.004-0.122,0.016-0.177,0.019c-0.299,0.022-0.631,0.013-0.865,0c-0.062,0-0.14-0.021-0.18-0.019
				c-0.057,0.006-0.107,0.049-0.175,0.055c-0.067,0.007-0.172-0.004-0.212-0.036c-0.003,0,0.004-0.028,0-0.036
				c-0.003-0.007-0.029-0.007-0.035-0.016c-0.043-0.086-0.027-0.182-0.033-0.285c-0.031-0.367,0.006-0.822,0-1.124
				c-0.004-0.13-0.039-0.272-0.039-0.407c0-0.203,0.027-0.473,0.019-0.601c-0.005-0.122-0.034-0.272-0.034-0.387
				c-0.002-0.124,0.033-0.204,0.016-0.322c0-0.043-0.031-0.095-0.049-0.153c-0.02-0.064-0.019-0.147-0.037-0.18
				c-0.035-0.07-0.123-0.115-0.195-0.178c-0.078-0.068-0.133-0.134-0.211-0.177c-0.139-0.064-0.305-0.086-0.494-0.14
				c-0.033-0.031-0.139,0.054-0.173,0.055c-0.086,0.006-0.146-0.064-0.249-0.055c-0.021,0.006-0.062,0.035-0.105,0.055
				c-0.061,0.021-0.14,0.037-0.16,0.053c-0.027,0.029-0.059,0.035-0.087,0.054c-0.142,0.069-0.15,0.091-0.247,0.212
				c-0.049,0.055-0.111,0.107-0.14,0.154c-0.019,0.025-0.021,0.068-0.038,0.106c-0.026,0.067-0.059,0.129-0.088,0.193
				c-0.039,0.097-0.067,0.226-0.067,0.322c-0.002,0.087,0.03,0.185,0.034,0.279c0.002,0.107-0.039,0.222-0.034,0.337
				c0,0.093,0.028,0.178,0.034,0.264c0.01,0.234-0.034,0.422-0.034,0.602c-0.002,0.162,0.032,0.344,0.034,0.472
				c0,0.062-0.021,0.104-0.018,0.161c0.008,0.226,0.041,0.445,0,0.655c-0.141,0.12-0.328,0.103-0.511,0.104
				c-0.084,0.003-0.213,0.018-0.267,0.018c-0.066,0-0.183-0.036-0.247-0.036c-0.077,0-0.15,0.038-0.229,0.036
				c-0.059,0-0.114-0.029-0.178-0.036c-0.194-0.024-0.342,0.003-0.527,0.019c-0.097,0.004-0.199,0.003-0.299,0
				c-0.162-0.002-0.33-0.019-0.442,0c-0.043,0.004-0.086,0.012-0.124,0.018c-0.088,0.01-0.189,0.018-0.243,0.033
				c-0.062,0.02-0.124,0.08-0.194,0.105c-0.083,0.037-0.19,0.039-0.252,0.072c-0.051,0.031-0.087,0.096-0.137,0.139
				c-0.053,0.049-0.094,0.098-0.162,0.127c-0.018,0.139-0.115,0.217-0.137,0.334c-0.017,0.076-0.008,0.205,0,0.316
				c0.005,0.162,0.017,0.312,0.048,0.387c0.058,0.125,0.124,0.256,0.177,0.357c0.015,0.02,0.038,0.024,0.057,0.049
				c0.02,0.033,0.021,0.074,0.033,0.09c0.092,0.088,0.23,0.074,0.267,0.193c0.109-0.029,0.177,0.041,0.262,0.072
				c0.086,0.026,0.211,0.068,0.282,0.069c0.125,0.005,0.264-0.052,0.404-0.052c0.085,0,0.221,0.031,0.34,0.03
				c0.105,0,0.229-0.03,0.348-0.03c0.096,0,0.192,0.035,0.283,0.03c0.154,0,0.307-0.043,0.461-0.03c0.041,0.004,0.093,0,0.105,0
				c0.041,0,0.076,0.018,0.121,0.014c0.164-0.003,0.582-0.033,0.657,0c0.002,0.006,0.04,0.038,0.05,0.057
				c0.017,0.025-0.014,0.033,0,0.067c0.021,0.062,0.062,0.116,0.072,0.161c0.03,0.183-0.006,0.395-0.018,0.582
				c-0.017,0.195-0.051,0.387-0.037,0.584c0.004,0.091,0.035,0.178,0.037,0.283c0.003,0.078-0.016,0.164-0.017,0.244
				c-0.007,0.068-0.002,0.131,0,0.193c0,0.088,0.013,0.164,0.017,0.248c0.005,0.088-0.021,0.174-0.017,0.26
				c0,0.045,0.024,0.096,0.034,0.146c0.021,0.164,0.035,0.326,0.088,0.438c0.023,0.053,0.051,0.072,0.071,0.092
				c0.011,0.011,0.003,0.035,0.017,0.054c0.021,0.021,0.048,0.032,0.069,0.048c0.043,0.038,0.107,0.064,0.159,0.105
				c0.056,0.045,0.12,0.119,0.161,0.146c0.088,0.057,0.14,0.087,0.243,0.123c0.15,0.05,0.217,0.007,0.406,0
				c0.111-0.012,0.238,0.007,0.319,0c0.114-0.016,0.22-0.121,0.3-0.164c0.043-0.022,0.088-0.022,0.105-0.031
				c0.023-0.018,0.043-0.074,0.068-0.105c0.104-0.135,0.217-0.271,0.268-0.423c0.031-0.097,0.071-0.193,0.088-0.282
				c0.035-0.199-0.014-0.357-0.018-0.564c-0.006-0.14-0.018-0.287-0.021-0.422c0-0.111,0.024-0.215,0.021-0.319
				c-0.004-0.093-0.039-0.175-0.039-0.265c0.002-0.104,0.029-0.208,0.039-0.315c0.004-0.063-0.01-0.122,0-0.179
				c0.004-0.058,0.031-0.105,0.033-0.16c0.002-0.033-0.011-0.086-0.016-0.121c-0.02-0.206-0.033-0.32,0.088-0.442
				c0.107,0.015,0.209-0.011,0.316-0.021c0.109-0.003,0.224-0.009,0.334-0.017c0.169-0.005,0.354,0.012,0.533,0
				c0.049-0.003,0.121-0.018,0.173-0.014c0.104,0.006,0.193,0.052,0.301,0.052c0.13,0,0.364-0.058,0.493-0.052
				c0.102,0.004,0.195,0.03,0.301,0.03c0.194,0.001,0.495-0.02,0.619-0.048c0.109-0.031,0.291-0.141,0.389-0.195
				c0.121-0.077,0.111-0.078,0.173-0.191c0.044-0.101,0.083-0.164,0.128-0.25c0.055-0.117,0.065-0.16,0.086-0.316
				C17.785,20.294,17.768,20.197,17.743,20.062z M17.021,20.468c-0.012,0.021-0.055,0.055-0.092,0.088
				c-0.087,0.1-0.108,0.098-0.28,0.143c-0.063,0.016-0.129,0.043-0.193,0.051c-0.151,0.02-0.322,0.013-0.456,0.018
				c-0.296,0.006-0.592-0.008-0.883,0c-0.165,0.006-0.309-0.016-0.444-0.018c-0.138-0.002-0.279,0.018-0.421,0.018
				c-0.148,0-0.312-0.023-0.479,0c-0.068,0.012-0.152,0.059-0.244,0.088c-0.09,0.035-0.199,0.047-0.248,0.088
				c-0.008,0.012-0.006,0.043-0.018,0.056c-0.006,0.003-0.029,0.011-0.033,0.019c-0.027,0.046-0.033,0.11-0.057,0.174
				c-0.057,0.164-0.041,0.473-0.049,0.742c-0.01,0.207-0.02,0.417-0.02,0.615c0.003,0.439,0.046,0.876,0.02,1.271
				c-0.014,0.152-0.059,0.307-0.105,0.44c-0.027,0.064-0.039,0.146-0.072,0.193c-0.032,0.044-0.107,0.107-0.14,0.126
				c-0.028,0.006-0.198,0.043-0.249,0.033c-0.138-0.021-0.209-0.18-0.283-0.301c-0.08-0.138-0.112-0.35-0.121-0.598
				c-0.018-0.504-0.018-1.043-0.018-1.482c0-0.129,0.01-0.247,0.018-0.375c0.01-0.254,0.016-0.459-0.072-0.701
				c-0.064-0.179-0.069-0.238-0.263-0.316c-0.021-0.012-0.073-0.025-0.107-0.035c-0.179-0.066-0.559-0.042-0.757-0.055
				c-0.137-0.008-0.254,0.018-0.373,0.018c-0.267-0.002-0.522-0.018-0.775-0.018c-0.133,0-0.271,0.035-0.406,0.035
				c-0.073,0-0.166-0.025-0.265-0.035c-0.15-0.008-0.279-0.008-0.405-0.033c-0.132-0.031-0.314-0.1-0.406-0.193
				c-0.016-0.018-0.061-0.059-0.069-0.072c-0.02-0.041-0.023-0.053-0.036-0.105c-0.007-0.035-0.021-0.094-0.016-0.121
				c0.02-0.168,0.159-0.213,0.283-0.268c0.035-0.018,0.053-0.043,0.089-0.053c0.058-0.021,0.14-0.012,0.226-0.037
				c0.029-0.006,0.056-0.027,0.088-0.033c0.113-0.016,0.238-0.014,0.354-0.016c0.372-0.021,0.752-0.018,1.146-0.021
				c0.337,0,0.684,0.051,1.023,0.021c0.143-0.018,0.298-0.062,0.441-0.107c0.098-0.033,0.125-0.049,0.179-0.143
				c0.002-0.008,0.03-0.029,0.032-0.033c0.013-0.041,0.016-0.1,0.035-0.145c0.072-0.173,0.055-0.514,0.055-0.826
				c0-0.228,0.012-0.463,0.018-0.672c0.002-0.148-0.021-0.309-0.018-0.479c0-0.076,0-0.15,0-0.227
				c-0.004-0.406,0.002-0.825,0.176-1.107c0.012-0.021,0.005-0.021,0.018-0.04c0.033-0.038,0.088-0.128,0.178-0.155
				c0.047-0.017,0.239-0.029,0.301,0c0.068,0.027,0.135,0.177,0.193,0.283c0.111,0.213,0.078,0.678,0.086,0.987
				c0.006,0.279-0.008,0.563,0,0.86c0,0.057,0.021,0.107,0.02,0.16c-0.004,0.097-0.035,0.197-0.038,0.299
				c-0.005,0.206-0.028,0.447,0,0.672c0.011,0.064,0.054,0.162,0.087,0.264c0.066,0.189,0.062,0.256,0.25,0.318
				c0.021,0.004,0.057,0.004,0.09,0.018c0.354,0.115,1.057,0.039,1.514,0.051c0.226,0.006,0.432,0.02,0.634,0.021
				c0.06,0,0.118-0.021,0.177-0.021c0.129,0.004,0.339,0,0.511,0.021c0.083,0.004,0.148,0.039,0.215,0.049
				c0.17,0.037,0.296,0.025,0.406,0.123c0.034,0.035,0.089,0.105,0.106,0.16C17.099,20.259,17.066,20.392,17.021,20.468z"/>
		</g>
	</g>
	<g>
		<g>
			<path fill-rule="evenodd" clip-rule="evenodd" fill="#FFFFFF" d="M51.188,16.34c-0.594-0.739-1.428-1.265-2.559-1.461
				c-1.52-0.274-2.959,0.108-3.881,0.737c-0.021,0.015-0.055,0.023-0.07,0.036c-0.062,0.043-0.122,0.107-0.163,0.142
				c-0.021,0.018-0.045,0.016-0.067,0.031c-0.049,0.042-0.094,0.086-0.141,0.106c-0.007,0.003-0.012,0.034-0.018,0.042
				c-0.062,0.049-0.121,0.087-0.178,0.137c-0.107,0.101-0.217,0.221-0.299,0.316c-0.014,0.021-0.031,0.031-0.053,0.055
				c-0.019,0.018-0.021,0.052-0.037,0.073c-0.027,0.032-0.072,0.064-0.105,0.106c-0.104,0.13-0.223,0.289-0.299,0.42
				c-0.043,0.074-0.09,0.137-0.123,0.193c-0.015,0.025-0.006,0.051-0.016,0.073c-0.014,0.021-0.042,0.026-0.055,0.048
				c-0.025,0.047-0.049,0.102-0.073,0.146c-0.19,0.381-0.358,0.828-0.438,1.288c-0.006,0.021-0.033,0.043-0.035,0.065
				c-0.061,0.291-0.088,0.615-0.105,0.938c-0.053,0.99,0.141,1.971,0.493,2.77c0.651,1.477,1.97,2.539,3.706,2.877
				c0.459,0.086,1.035,0.112,1.553,0.086c0.566-0.033,1.117-0.164,1.569-0.281c0.157-0.045,0.32-0.088,0.473-0.144
				c0.153-0.056,0.315-0.124,0.444-0.173c0.068-0.033,0.152-0.064,0.209-0.09c0.375-0.154,0.679-0.382,1.04-0.532
				c-0.028-0.12-0.114-0.212-0.173-0.319c-0.019-0.023-0.019-0.053-0.04-0.088c-0.086-0.15-0.194-0.343-0.279-0.472
				c-0.04-0.063-0.06-0.107-0.087-0.159c-0.019-0.027-0.042-0.045-0.057-0.072c-0.028-0.048-0.033-0.134-0.104-0.156
				c-0.516,0.262-1.131,0.517-1.814,0.635c-0.665,0.113-1.432,0.041-1.941-0.105c-0.322-0.098-0.609-0.225-0.849-0.373
				c-0.03-0.02-0.052-0.048-0.086-0.069c-0.028-0.021-0.084-0.034-0.108-0.052c-0.021-0.018-0.043-0.056-0.068-0.074
				c-0.143-0.11-0.301-0.244-0.406-0.368c-0.016-0.015-0.008-0.043-0.019-0.052c-0.011-0.014-0.043-0.02-0.052-0.034
				c-0.013-0.017-0.013-0.043-0.016-0.056c-0.038-0.052-0.083-0.082-0.107-0.123c-0.068-0.1-0.126-0.201-0.178-0.299
				c-0.209-0.41-0.34-0.922-0.354-1.498c2.356,0,4.703,0,7.06,0C52.361,18.751,51.992,17.349,51.188,16.34z M49.794,19.074
				c-1.525,0-3.049,0-4.572,0c0.054-0.78,0.32-1.432,0.707-1.904c0.015-0.014,0.235-0.258,0.353-0.335
				c0.015-0.011,0.039-0.034,0.072-0.054c0.016-0.011,0.041-0.032,0.068-0.054c0.344-0.228,0.773-0.43,1.396-0.387
				c0.124,0.009,0.243,0.04,0.367,0.069c0.212,0.06,0.384,0.124,0.55,0.231c0.049,0.03,0.116,0.095,0.176,0.14
				c0.082,0.066,0.134,0.109,0.213,0.195C49.527,17.435,49.812,18.181,49.794,19.074z"/>
		</g>
	</g>
	<g>
		<g>
			<path fill-rule="evenodd" clip-rule="evenodd" fill="#F6A514" d="M10.512,16.662c-0.01-0.063-0.001-0.123-0.018-0.164
				c-0.014-0.037-0.069-0.071-0.105-0.121c-0.009-0.016-0.021-0.053-0.031-0.072c-0.104-0.148-0.221-0.309-0.34-0.372
				c-0.078-0.036-0.151-0.048-0.229-0.086c-0.095-0.043-0.202-0.128-0.283-0.142c-0.111-0.021-0.225,0.012-0.33,0.018
				c-0.016,0.002-0.027-0.002-0.04,0c-0.226,0.008-0.333,0.059-0.473,0.146c-0.026,0.011-0.064,0.032-0.088,0.048
				c-0.11,0.068-0.211,0.188-0.301,0.266c-0.036,0.03-0.081,0.052-0.087,0.073c-0.038,0.046-0.038,0.14-0.074,0.212
				c-0.006,0.006-0.028,0.021-0.032,0.031c-0.021,0.037-0.039,0.062-0.058,0.09c-0.045,0.076-0.024,0.234-0.031,0.334
				c-0.015,0.201-0.018,0.35,0.031,0.492c0.015,0.029,0.04,0.043,0.058,0.072c0.015,0.035,0.021,0.082,0.032,0.105
				c0.032,0.051,0.079,0.088,0.123,0.145c0.042,0.045,0.083,0.109,0.128,0.156c0.173,0.188,0.318,0.262,0.6,0.337
				c0.043,0.011,0.105,0.021,0.155,0.034c0.135,0.03,0.158,0.021,0.266,0c0.154-0.033,0.351-0.051,0.438-0.105
				c0.062-0.035,0.086-0.062,0.129-0.09c0.024-0.012,0.046-0.021,0.065-0.031c0.07-0.044,0.128-0.092,0.178-0.129
				c0.062-0.043,0.058-0.041,0.088-0.086c0.031-0.043,0.061-0.084,0.09-0.125c0.035-0.055,0.096-0.121,0.121-0.176
				c0.027-0.061,0.036-0.15,0.058-0.229c0.021-0.086,0.048-0.168,0.048-0.229C10.6,16.961,10.532,16.751,10.512,16.662z
				 M9.136,17.609c-0.174-0.043-0.425-0.239-0.473-0.422c-0.026-0.092-0.041-0.245-0.021-0.353c0.005-0.03,0.04-0.064,0.054-0.107
				c0.016-0.038,0.032-0.099,0.035-0.106c0.006-0.002,0.045-0.008,0.057-0.018c0.026-0.018,0.069-0.076,0.102-0.105
				c0.032-0.02,0.059-0.029,0.092-0.05c0.076-0.052,0.121-0.064,0.282-0.071c0.002,0,0.019-0.021,0.032-0.015
				c0.096,0.019,0.217,0.064,0.301,0.104c0.035,0.016,0.084,0.027,0.088,0.031c0.014,0.015,0.014,0.049,0.033,0.076
				c0.039,0.039,0.117,0.089,0.146,0.153c0.02,0.048,0.003,0.107,0.014,0.161c0.012,0.055,0.035,0.1,0.033,0.14
				C9.909,17.361,9.544,17.708,9.136,17.609z"/>
		</g>
	</g>
	<g>
		<g>
			<path fill-rule="evenodd" clip-rule="evenodd" fill="#F6A514" d="M17.303,16.904c-0.016-0.135-0.035-0.211-0.072-0.301
				c-0.014-0.043-0.018-0.086-0.033-0.121c-0.037-0.096-0.123-0.185-0.176-0.249c-0.088-0.103-0.2-0.258-0.267-0.301
				c-0.015-0.005-0.04-0.005-0.05-0.017c-0.076-0.045-0.143-0.07-0.266-0.105c-0.08-0.02-0.184-0.047-0.263-0.05
				c-0.077-0.005-0.193,0.021-0.282,0.019c-0.051-0.006-0.141-0.059-0.146-0.019c-0.092,0.028-0.178,0.065-0.259,0.107
				c-0.038,0.011-0.067,0.032-0.107,0.048c-0.048,0.02-0.086,0.017-0.127,0.038c-0.015,0.009-0.06,0.079-0.066,0.086
				c-0.015,0.016-0.043,0.005-0.056,0.021c-0.052,0.043-0.119,0.123-0.176,0.193c-0.027,0.036-0.069,0.122-0.088,0.14
				c-0.064,0.064-0.078,0.119-0.107,0.209c-0.067,0.215-0.074,0.436-0.033,0.654c0.014,0.076,0.03,0.166,0.052,0.229
				c0.026,0.078,0.064,0.109,0.107,0.178c0.023,0.045,0.043,0.1,0.069,0.139c0.06,0.094,0.146,0.193,0.193,0.234
				c0.038,0.021,0.16,0.08,0.195,0.106c0.041,0.022,0.079,0.052,0.122,0.064c0.116,0.043,0.37,0.058,0.515,0.073
				c0.065,0.012,0.143,0.018,0.194,0.016c0.172-0.003,0.204-0.046,0.333-0.104c0.08-0.035,0.199-0.066,0.245-0.107
				c0.066-0.049,0.149-0.1,0.195-0.137c0.062-0.055,0.122-0.115,0.142-0.162c0.004-0.008,0.03-0.009,0.035-0.018
				c0.07-0.098,0.103-0.162,0.122-0.283c0.024-0.146,0.067-0.293,0.069-0.404C17.322,17.029,17.312,16.968,17.303,16.904z
				 M16.617,17.155c-0.01,0.065-0.021,0.12-0.054,0.193c-0.021,0.032-0.044,0.095-0.054,0.106c-0.01,0.004-0.043,0.006-0.054,0.016
				c-0.021,0.018-0.064,0.062-0.107,0.088c-0.116,0.07-0.175,0.102-0.387,0.091c-0.097-0.011-0.165-0.028-0.229-0.058
				c-0.033-0.014-0.071-0.027-0.105-0.049c-0.041-0.029-0.119-0.107-0.159-0.178c-0.056-0.107-0.127-0.295-0.086-0.461
				c0.03-0.134,0.069-0.198,0.14-0.283c0.072-0.084,0.183-0.162,0.333-0.193c0.052-0.008,0.15-0.012,0.251,0
				c0.136,0.021,0.199,0.021,0.283,0.088c0.012,0.018,0.016,0.023,0.033,0.04c0.018,0.009,0.064,0.056,0.088,0.086
				c0.011,0.019,0.008,0.042,0.016,0.052c0.027,0.031,0.049,0.068,0.074,0.142c0.029,0.101,0.026,0.129,0.018,0.263
				c-0.004,0.016,0.02,0.018,0.012,0.037C16.629,17.136,16.617,17.134,16.617,17.155z"/>
		</g>
	</g>
	<g>
		<g>
			<path fill-rule="evenodd" clip-rule="evenodd" fill="#F6A514" d="M17.215,23.292c-0.018-0.07-0.028-0.147-0.052-0.213
				c-0.021-0.053-0.064-0.106-0.087-0.16c-0.008-0.012,0.001-0.035,0-0.054c-0.002-0.005-0.033-0.022-0.04-0.036
				c-0.015-0.035-0.021-0.082-0.032-0.104c-0.02-0.032-0.088-0.086-0.105-0.105c-0.012-0.013-0.023-0.043-0.034-0.056
				c-0.017-0.011-0.063-0.015-0.088-0.034c-0.03-0.016-0.046-0.037-0.071-0.052c-0.056-0.026-0.12-0.05-0.18-0.071
				c-0.225-0.078-0.412-0.115-0.703-0.104c-0.1,0.003-0.226-0.004-0.301,0.016c-0.09,0.025-0.161,0.104-0.247,0.159
				c-0.084,0.054-0.165,0.107-0.265,0.159c-0.036,0.182-0.152,0.283-0.229,0.402c-0.026,0.047-0.075,0.104-0.086,0.146
				c-0.021,0.065-0.017,0.188-0.021,0.28c0,0.107-0.013,0.239,0,0.335c0.015,0.072,0.064,0.154,0.089,0.225
				c0.031,0.096,0.049,0.182,0.057,0.27c0.068,0.053,0.114,0.123,0.191,0.193c0.066,0.055,0.148,0.139,0.213,0.179
				c0.057,0.026,0.14,0.04,0.225,0.064c0.146,0.048,0.257,0.099,0.429,0.107c0.086,0.005,0.161,0.005,0.229,0
				c0.088-0.005,0.166-0.043,0.264-0.067c0.094-0.025,0.205-0.039,0.28-0.072c0.062-0.032,0.105-0.092,0.161-0.14
				c0.082-0.086,0.166-0.171,0.226-0.249c0.017-0.014,0.009-0.033,0.02-0.052c0.011-0.017,0.043-0.021,0.054-0.038
				c0.014-0.026,0.034-0.069,0.054-0.104c0.043-0.092,0.054-0.137,0.067-0.229c0.012-0.047,0.018-0.088,0.019-0.123
				C17.279,23.544,17.26,23.455,17.215,23.292z M16.582,23.697c-0.008,0.049-0.033,0.088-0.057,0.123
				c-0.031,0.055-0.07,0.133-0.121,0.193c-0.066,0.078-0.249,0.17-0.422,0.178c-0.149,0.005-0.278-0.038-0.371-0.09
				c-0.049-0.031-0.096-0.051-0.122-0.088c-0.013-0.011-0.009-0.039-0.021-0.053c-0.021-0.029-0.064-0.043-0.067-0.053
				c-0.014-0.021-0.025-0.096-0.04-0.141c-0.021-0.094-0.048-0.227-0.015-0.369c0.017-0.082,0.064-0.103,0.088-0.146
				c0.041-0.069,0.035-0.13,0.142-0.193c0.056-0.03,0.129-0.065,0.231-0.086c0.16-0.03,0.414-0.007,0.542,0.067
				c0.011,0.008,0.015,0.037,0.021,0.039c0.082,0.035,0.096,0.094,0.141,0.213C16.563,23.421,16.606,23.489,16.582,23.697z"/>
		</g>
	</g>
	<g>
		<g>
			<path fill-rule="evenodd" clip-rule="evenodd" fill="#F6A514" d="M10.566,23.414c-0.025-0.139-0.056-0.238-0.09-0.316
				c-0.037-0.103-0.094-0.156-0.138-0.211c-0.021-0.021-0.021-0.059-0.038-0.072c-0.076-0.088-0.211-0.185-0.301-0.249
				c-0.037-0.024-0.072-0.069-0.105-0.086c-0.031-0.021-0.104-0.03-0.157-0.054c-0.056-0.021-0.11-0.059-0.159-0.074
				c-0.129-0.025-0.381-0.022-0.477,0c-0.098,0.031-0.245,0.061-0.314,0.092c-0.084,0.037-0.18,0.08-0.251,0.122
				c-0.107,0.064-0.233,0.142-0.281,0.193c-0.003,0.009,0.003,0.03,0,0.04c0,0.003-0.03,0.008-0.036,0.016
				c-0.005,0.009,0.006,0.027,0,0.031c-0.004,0.012-0.028,0.016-0.031,0.021c-0.033,0.054-0.038,0.147-0.074,0.231
				c-0.011,0.035-0.035,0.069-0.05,0.107c-0.042,0.091-0.064,0.15-0.071,0.263c-0.012,0.106,0.012,0.235,0.016,0.353
				c0.002,0.045-0.021,0.08-0.016,0.119c0.007,0.084,0.053,0.191,0.071,0.214c0.011,0.021,0.001,0.046,0.018,0.069
				c0.101,0.197,0.306,0.27,0.421,0.461c0.161,0.023,0.254,0.139,0.387,0.179c0.054,0.013,0.137,0.001,0.195,0.017
				c0.062,0.008,0.129,0.049,0.179,0.049c0.011,0,0.064-0.022,0.106-0.031c0.094-0.021,0.156-0.037,0.227-0.056
				c0.09-0.021,0.121-0.028,0.161-0.05c0.015-0.015,0.03-0.012,0.05-0.018C9.888,24.73,9.932,24.679,10,24.647
				c0.039-0.021,0.1-0.019,0.124-0.034c0.013-0.009,0.037-0.035,0.054-0.052c0.054-0.046,0.105-0.108,0.14-0.142
				c0.007-0.009,0.03,0.006,0.04,0c0.003-0.009-0.008-0.03,0-0.035c0.016-0.025,0.022-0.047,0.031-0.072
				c0.027-0.052,0.07-0.102,0.088-0.138c0.064-0.126,0.057-0.364,0.09-0.514c0.009-0.043,0.033-0.097,0.033-0.128
				C10.6,23.51,10.573,23.455,10.566,23.414z M9.771,24.027c-0.013,0.016-0.025,0.012-0.034,0.02
				c-0.069,0.066-0.271,0.188-0.407,0.193c-0.065,0.004-0.186-0.018-0.262-0.033c-0.064-0.012-0.168-0.086-0.232-0.14
				c-0.061-0.048-0.119-0.106-0.141-0.146c-0.011-0.023-0.008-0.043-0.014-0.068c-0.01-0.012-0.038-0.043-0.04-0.051
				C8.629,23.74,8.64,23.49,8.663,23.414c0.005-0.032,0.046-0.068,0.067-0.105c0.025-0.049,0.045-0.119,0.057-0.121
				c0,0,0.048-0.014,0.088-0.041c0.031-0.022,0.067-0.059,0.121-0.087c0.059-0.026,0.14-0.043,0.247-0.05
				c0.185-0.015,0.331,0.05,0.456,0.157c0.146,0.126,0.197,0.236,0.195,0.442C9.895,23.742,9.866,23.951,9.771,24.027z"/>
		</g>
	</g>
</g>
</svg>
