<?xml version="1.0" encoding="utf-8"?>
<!-- Generator: Adobe Illustrator 16.0.0, SVG Export Plug-In . SVG Version: 6.00 Build 0)  -->
<!DOCTYPE svg PUBLIC "-//W3C//DTD SVG 1.1//EN" "http://www.w3.org/Graphics/SVG/1.1/DTD/svg11.dtd">
<svg version="1.1" id="Capa_1" xmlns="http://www.w3.org/2000/svg" xmlns:xlink="http://www.w3.org/1999/xlink" x="0px" y="0px"
	 width="51.582px" height="40px" viewBox="0 0 51.582 40" enable-background="new 0 0 51.582 40" xml:space="preserve">
<g>
	<path fill="#3C276D" d="M26.977,27.271c0,0.366-0.242,0.758-0.349,0.758h-2.481c-0.106,0-0.17-0.392-0.17-0.758V17.134
		c0-0.366,0.063-1.105,0.17-1.105h2.481c0.106,0,0.349,0.739,0.349,1.105V27.271z"/>
	<path fill="#3C276D" d="M10.345,27.317c-0.051-0.192-0.248-0.512-0.444-0.703l-4.436-4.442c-0.195-0.193-0.193-0.509,0.001-0.702
		l4.198-4.161c0.192-0.192,0.353-0.432,0.353-0.529c0-0.1-0.225-0.179-0.499-0.179H6.611c-0.274,0-0.648,0.166-0.832,0.368
		l-2.615,2.904v-6.114c0,0-0.26-2.079-2.432-2.079c-0.023,0-0.233,0-0.233,0C0.226,11.68,0,11.904,0,12.178v14.995
		c0,0.272,0.226,0.498,0.499,0.498h2.167c0.272,0,0.498-0.226,0.498-0.498V23.92l3.069,3.381c0.184,0.203,0.559,0.37,0.832,0.37
		h2.871C10.21,27.671,10.394,27.513,10.345,27.317z"/>
	<path fill="#3C276D" d="M48.82,16.601c-0.273,0-0.497,0.224-0.497,0.498l0.001,5.859c0,0-0.012,0.225-0.033,0.498
		c0,0-0.073,1.052-1.751,1.052c-1.677,0-1.834-0.968-1.834-0.968c-0.045-0.271-0.079-0.492-0.078-0.492
		c0.002,0,0.004-5.949,0.004-5.949c0-0.274-0.225-0.498-0.498-0.498h-2.342c-0.273,0-0.497,0.224-0.493,0.498l0.051,6.032
		c0.004,0.273,0.042,0.719,0.087,0.988c0,0,0.572,3.463,5.191,3.463c4.62,0,4.887-3.457,4.887-3.457
		c0.021-0.273,0.038-0.721,0.04-0.994l0.027-6.032c0.001-0.274-0.222-0.498-0.497-0.498H48.82z"/>
	<circle fill="#43BDDF" cx="25.455" cy="12.764" r="2.143"/>
	<path fill="#3C276D" d="M21.613,21.937c0.062-1.301-0.113-5.355-4.692-5.355c-1.292,0-2.067,0.361-2.513,0.704v-3.526
		c0,0-0.258-2.079-2.43-2.079c-0.023,0-0.233,0-0.233,0c-0.275,0-0.499,0.225-0.499,0.498v14.995c0,0.272,0.224,0.498,0.499,0.498
		h2.165c0.274,0,0.498-0.226,0.498-0.498v-6.309c0.354-0.614,0.937-1.141,1.909-1.141c2.499,0,1.982,1.913,2.071,2.2
		c-0.006,0.03-0.01,0.062-0.01,0.094v5.155c0,0.272,0.225,0.498,0.498,0.498h2.247c0.272,0,0.496-0.226,0.496-0.498v-5.155
		C21.62,21.99,21.616,21.964,21.613,21.937z"/>
	<path fill="#3C276D" d="M34.968,16.601h-5.384c-0.276,0-0.415,0.224-0.415,0.498v14.115c0,0.273,0.139,0.499,0.415,0.499
		c0,0,0.385,0,0.411,0c2.541,0.035,2.513-2.08,2.513-2.08v-2.051h0.999l1.461-0.019c0,0,4.833-0.065,4.833-5.447
		C39.801,16.735,34.968,16.601,34.968,16.601z M34.968,24.489l-2.46,0.015v-4.917h2.46c0,0,1.58,0.047,1.58,2.355
		C36.548,24.248,34.968,24.489,34.968,24.489z"/>
</g>
</svg>
