<?xml version="1.0" encoding="utf-8"?>
<!-- Generator: Adobe Illustrator 16.0.0, SVG Export Plug-In . SVG Version: 6.00 Build 0)  -->
<!DOCTYPE svg PUBLIC "-//W3C//DTD SVG 1.1//EN" "http://www.w3.org/Graphics/SVG/1.1/DTD/svg11.dtd">
<svg version="1.1" id="Capa_1" xmlns="http://www.w3.org/2000/svg" xmlns:xlink="http://www.w3.org/1999/xlink" x="0px" y="0px"
	 width="33px" height="40px" viewBox="0 0 33 40" enable-background="new 0 0 33 40" xml:space="preserve">
<g>
	<circle fill="#FAD108" cx="16.5" cy="20.001" r="16.5"/>
	<path fill="#176332" d="M31.094,20.001c0,8.061-6.533,14.594-14.596,14.594c-8.059,0-14.59-6.533-14.59-14.594
		S8.439,5.405,16.498,5.405C24.561,5.405,31.094,11.94,31.094,20.001z"/>
	<polygon fill="#FFCB16" points="4.487,15.83 6.285,15.83 6.285,22.75 9.787,22.75 9.787,24.547 4.4,24.547 	"/>
	<polygon fill="#FFCB16" points="10.355,15.873 12.372,15.873 12.372,24.458 10.444,24.458 	"/>
	<polygon fill="#FFCB16" points="13.584,15.802 15.788,15.786 18.94,21.7 18.984,15.743 20.736,15.743 20.756,24.52 18.652,24.52 
		15.393,18.59 15.352,24.567 13.509,24.547 	"/>
	<path fill="#FAD108" d="M29.334,11.911L23.84,19.45l-0.066-3.674H21.84v8.755h1.955v-3.258l0.683-0.462l2.003,3.696h2.506
		l-3.057-4.86l4.238-5.602C30.168,14.046,30.854,11.865,29.334,11.911z"/>
	<circle fill="#E52C2A" cx="11.555" cy="13.093" r="1.356"/>
</g>
</svg>
