<?xml version="1.0" encoding="utf-8"?>
<!-- Generator: Adobe Illustrator 16.0.0, SVG Export Plug-In . SVG Version: 6.00 Build 0)  -->
<!DOCTYPE svg PUBLIC "-//W3C//DTD SVG 1.1//EN" "http://www.w3.org/Graphics/SVG/1.1/DTD/svg11.dtd">
<svg version="1.1" id="Capa_1" xmlns="http://www.w3.org/2000/svg" xmlns:xlink="http://www.w3.org/1999/xlink" x="0px" y="0px"
	 width="44.45px" height="40px" viewBox="0 0 44.45 40" enable-background="new 0 0 44.45 40" xml:space="preserve">
<g>
	<polygon fill-rule="evenodd" clip-rule="evenodd" fill="#A5A7AA" points="0.002,6 44.448,6 44.448,34 0.002,34 0.002,6 	"/>
	<polygon fill-rule="evenodd" clip-rule="evenodd" fill="#004779" points="2.281,22.901 6.976,15.496 42.169,15.496 37.275,22.901 
		2.281,22.901 	"/>
	<polygon fill-rule="evenodd" clip-rule="evenodd" fill="#004779" points="12.74,6 7.279,14.879 42.57,14.879 44.448,11.829 
		44.448,11.49 42.471,14.658 7.71,14.658 12.994,6 12.74,6 	"/>
	<g>
		<polygon fill="#FFFFFF" points="8.767,20.136 8.767,16.275 7.524,16.275 3.686,22.312 4.93,22.312 7.524,18.04 7.524,22.312 
			8.767,22.312 11.281,18.054 11.281,22.312 12.517,22.312 12.517,16.275 11.281,16.275 		"/>
		<path fill="#FFFFFF" d="M15.414,16.275l-2.554,6.036h1.397l0.614-1.543h2.078l0.623,1.543h1.304l-2.554-6.036H15.414z
			 M15.287,19.665l0.588-1.637l0.622,1.637H15.287z"/>
		<path fill="#FFFFFF" d="M21.137,20.335c0.773,0,1.551,0,2.332,0c-0.781,1.643-3.704,1.03-3.69-0.997
			c0.02-2.054,2.653-2.675,3.571-1.124c0.467,0,0.936,0,1.41,0c-0.33-1.082-1.257-1.979-2.977-1.972
			c-1.891-0.013-3.169,1.317-3.169,2.956c0,1.938,1.565,3.242,3.242,3.209c1.452,0.039,3.165-1.178,3.138-3.209
			c-1.325,0-2.647,0-3.973,0C21.055,19.572,21.096,19.952,21.137,20.335z"/>
		<polygon fill="#FFFFFF" points="29.145,20.542 26.633,16.275 25.42,16.275 25.42,22.312 26.633,22.312 26.633,18.214 
			29.145,22.312 30.349,22.312 30.349,16.275 29.145,16.275 		"/>
		<path fill="#FFFFFF" d="M33.436,16.275l-2.659,6.036h1.271l0.7-1.543h2.013l0.657,1.543h1.301l-2.425-6.036H33.436z
			 M33.182,19.665c0,0,0.644-1.451,0.644-1.617l0.587,1.617H33.182z"/>
		<path fill="#FFFFFF" d="M38.973,16.275c-0.461,0-0.829,0.375-0.829,0.829c0,0.461,0.368,0.835,0.829,0.835
			c0.455,0,0.831-0.374,0.831-0.835C39.804,16.65,39.428,16.275,38.973,16.275z M38.973,17.782c-0.374,0-0.674-0.302-0.674-0.678
			c0-0.366,0.3-0.673,0.674-0.673c0.368,0,0.674,0.307,0.674,0.673C39.647,17.48,39.341,17.782,38.973,17.782z"/>
		<path fill="#FFFFFF" d="M39.141,17.185c-0.015-0.015-0.034-0.025-0.061-0.04c0.073-0.013,0.133-0.031,0.167-0.073
			c0.039-0.04,0.059-0.093,0.059-0.147c0-0.046-0.011-0.084-0.031-0.117c-0.027-0.043-0.055-0.068-0.095-0.081
			c-0.033-0.017-0.093-0.021-0.16-0.021h-0.36v0.809h0.106v-0.36h0.125c0.029,0,0.048,0,0.055,0.006c0.02,0,0.035,0.008,0.055,0.019
			c0.014,0.015,0.032,0.027,0.053,0.055s0.046,0.066,0.073,0.112l0.108,0.169h0.14l-0.14-0.221
			C39.202,17.252,39.172,17.211,39.141,17.185z M38.995,17.059h-0.229v-0.268h0.254c0.061,0,0.106,0.016,0.134,0.039
			c0.026,0.029,0.04,0.056,0.04,0.094c0,0.027-0.005,0.055-0.021,0.074c-0.011,0.02-0.031,0.033-0.065,0.049
			C39.081,17.059,39.047,17.059,38.995,17.059z"/>
	</g>
</g>
</svg>
