<?xml version="1.0" encoding="utf-8"?>
<!-- Generator: Adobe Illustrator 16.0.0, SVG Export Plug-In . SVG Version: 6.00 Build 0)  -->
<!DOCTYPE svg PUBLIC "-//W3C//DTD SVG 1.1//EN" "http://www.w3.org/Graphics/SVG/1.1/DTD/svg11.dtd">
<svg version="1.1" id="Capa_1" xmlns="http://www.w3.org/2000/svg" xmlns:xlink="http://www.w3.org/1999/xlink" x="0px" y="0px"
	 width="50.552px" height="40px" viewBox="0 0 50.552 40" enable-background="new 0 0 50.552 40" xml:space="preserve">
<g>
	<g>
		<g>
			<path fill="#E40520" d="M30.405,20c0,8.282-6.708,15-14.989,15c-8.288,0-15-6.718-15-15c0-8.28,6.712-15,15-15
				C23.697,5,30.405,11.72,30.405,20z"/>
			<g>
				<path fill="#FAB31E" d="M35.546,5c-3.874,0-7.4,1.468-10.067,3.887c-0.54,0.487-1.047,1.022-1.511,1.589h3.031
					c0.414,0.505,0.792,1.029,1.141,1.586h-5.312c-0.325,0.504-0.615,1.037-0.867,1.585h7.04c0.246,0.52,0.458,1.047,0.643,1.589
					h-8.317c-0.175,0.522-0.317,1.046-0.438,1.596h9.184c0.224,1.011,0.334,2.077,0.334,3.169c0,1.668-0.261,3.266-0.762,4.765
					h-8.317c0.183,0.544,0.39,1.071,0.635,1.591h7.04c-0.254,0.546-0.545,1.081-0.861,1.585h-5.312
					c0.34,0.555,0.727,1.081,1.14,1.584h3.031c-0.466,0.568-0.974,1.102-1.521,1.596C28.146,33.531,31.672,35,35.546,35
					c8.28,0,15.006-6.718,15.006-15C50.552,11.72,43.826,5,35.546,5z"/>
			</g>
		</g>
		<path fill="#FAB31E" d="M48.544,28.353c0-0.258,0.218-0.479,0.488-0.479c0.269,0,0.479,0.222,0.479,0.479
			c0,0.267-0.211,0.49-0.479,0.49C48.762,28.843,48.544,28.619,48.544,28.353z M49.032,28.728c0.205,0,0.367-0.168,0.367-0.375
			c0-0.199-0.162-0.36-0.367-0.36s-0.37,0.161-0.37,0.36C48.662,28.56,48.827,28.728,49.032,28.728z M48.97,28.577h-0.105v-0.432
			h0.181c0.035,0,0.077,0,0.111,0.026c0.031,0.017,0.054,0.06,0.054,0.098c0,0.054-0.032,0.095-0.075,0.111l0.079,0.196H49.1
			l-0.062-0.172H48.97V28.577z M48.97,28.331h0.047c0.023,0,0.05,0,0.062-0.008c0.018-0.009,0.022-0.034,0.022-0.054
			c0-0.008-0.009-0.032-0.022-0.039c-0.01-0.008-0.042-0.006-0.065-0.006H48.97V28.331z"/>
	</g>
	<g>
		<g>
			<path fill="#06326E" d="M11.91,21.642c-0.169-0.026-0.248-0.028-0.358-0.028c-0.921,0-1.388,0.319-1.388,0.945
				c0,0.387,0.223,0.627,0.576,0.627C11.399,23.186,11.889,22.557,11.91,21.642z M13.098,24.4c-0.22,0-1.351,0-1.351,0l0.033-0.65
				c-0.414,0.515-0.959,0.754-1.702,0.754c-0.89,0-1.489-0.686-1.489-1.687c0-1.508,1.051-2.384,2.851-2.384
				c0.191,0,0.429,0.016,0.667,0.041c0.048-0.198,0.061-0.288,0.061-0.396c0-0.408-0.276-0.568-1.037-0.568
				c-0.802-0.005-1.46,0.2-1.724,0.284c0.017-0.104,0.223-1.391,0.223-1.391c0.809-0.246,1.351-0.334,1.943-0.334
				c1.401,0,2.141,0.638,2.141,1.812c0.001,0.326-0.049,0.715-0.129,1.229C13.446,22.016,13.133,23.928,13.098,24.4z"/>
			<polygon fill="#06326E" points="7.905,24.4 6.276,24.4 7.205,18.551 5.131,24.4 4.014,24.4 3.876,18.584 2.902,24.4 1.374,24.4 
				2.646,16.788 4.982,16.788 5.133,21.049 6.558,16.788 9.168,16.788 			"/>
			<path fill="#06326E" d="M37.556,21.642c-0.164-0.026-0.243-0.028-0.355-0.028c-0.929,0-1.394,0.319-1.394,0.945
				c0,0.387,0.228,0.627,0.585,0.627C37.06,23.186,37.532,22.557,37.556,21.642z M38.747,24.4c-0.217,0-1.355,0-1.355,0l0.035-0.65
				c-0.41,0.515-0.958,0.754-1.707,0.754c-0.879,0-1.487-0.686-1.487-1.687c0-1.508,1.053-2.384,2.856-2.384
				c0.185,0,0.423,0.016,0.667,0.041c0.048-0.198,0.06-0.288,0.06-0.396c0-0.408-0.281-0.568-1.043-0.568
				c-0.792-0.005-1.446,0.2-1.726,0.284c0.022-0.104,0.227-1.391,0.227-1.391c0.811-0.246,1.35-0.334,1.953-0.334
				c1.399,0,2.14,0.638,2.14,1.812c0,0.326-0.055,0.715-0.139,1.229C39.089,22.016,38.791,23.928,38.747,24.4z"/>
			<path fill="#06326E" d="M20.333,24.308c-0.448,0.139-0.791,0.196-1.173,0.196c-0.829,0-1.282-0.474-1.282-1.358
				c-0.01-0.273,0.114-0.986,0.223-1.646c0.093-0.58,0.7-4.223,0.7-4.223h1.623l-0.187,0.938h0.973l-0.222,1.489h-0.976
				c-0.192,1.17-0.464,2.643-0.467,2.832c0,0.32,0.172,0.46,0.563,0.46c0.184,0,0.333-0.017,0.434-0.067L20.333,24.308z"/>
			<path fill="#06326E" d="M25.299,24.248c-0.567,0.173-1.096,0.26-1.66,0.256c-1.813-0.002-2.762-0.939-2.762-2.754
				c0-2.121,1.209-3.681,2.832-3.681c1.341,0,2.185,0.878,2.185,2.242c0,0.456-0.055,0.894-0.194,1.527h-3.226
				c-0.114,0.893,0.462,1.264,1.409,1.264c0.579,0,1.097-0.113,1.68-0.386L25.299,24.248z M24.386,20.587
				c0.009-0.133,0.173-1.108-0.749-1.108c-0.521,0-0.889,0.4-1.045,1.108H24.386z"/>
			<path fill="#06326E" d="M14.071,20.169c0,0.776,0.375,1.324,1.246,1.728c0.655,0.304,0.762,0.396,0.762,0.685
				c0,0.38-0.297,0.558-0.938,0.558c-0.487,0-0.942-0.079-1.457-0.24c0,0-0.219,1.354-0.229,1.423
				c0.372,0.079,0.702,0.16,1.696,0.183c1.72,0,2.51-0.658,2.51-2.071c0-0.843-0.331-1.343-1.147-1.728
				c-0.678-0.303-0.755-0.377-0.755-0.661c0-0.332,0.265-0.505,0.794-0.505c0.318,0,0.762,0.029,1.173,0.09l0.23-1.436
				c-0.427-0.063-1.06-0.124-1.439-0.124C14.695,18.069,14.066,19.028,14.071,20.169z"/>
			<path fill="#06326E" d="M33.211,18.234c0.453,0,0.881,0.12,1.46,0.41l0.255-1.647c-0.237-0.092-1.07-0.651-1.783-0.651
				c-1.095,0-2.003,0.55-2.659,1.438c-0.944-0.309-1.329,0.317-1.812,0.949l-0.418,0.096c0.031-0.202,0.063-0.411,0.05-0.614h-1.498
				c-0.197,1.908-0.562,3.849-0.848,5.773L25.883,24.4h1.634c0.27-1.77,0.416-2.897,0.508-3.667l0.616-0.336
				c0.094-0.346,0.374-0.455,0.948-0.442c-0.072,0.403-0.111,0.826-0.111,1.268c0,2.025,1.089,3.281,2.841,3.281
				c0.461,0,0.843-0.056,1.443-0.223l0.282-1.732c-0.534,0.267-0.979,0.385-1.38,0.385c-0.947,0-1.522-0.686-1.522-1.848
				C31.142,19.411,31.992,18.234,33.211,18.234z"/>
			<path fill="#06326E" d="M46.996,16.788l-0.362,2.202c-0.439-0.587-0.93-1.006-1.553-1.006c-0.822,0-1.574,0.614-2.06,1.539
				c-0.688-0.142-1.387-0.388-1.387-0.388l-0.002,0.005c0.055-0.506,0.079-0.825,0.075-0.926h-1.499
				c-0.198,1.908-0.568,3.849-0.843,5.773L39.284,24.4h1.636c0.216-1.423,0.385-2.621,0.503-3.552
				c0.564-0.504,0.84-0.946,1.399-0.912c-0.247,0.601-0.392,1.292-0.392,1.998c0,1.556,0.783,2.569,1.966,2.569
				c0.597,0,1.057-0.2,1.502-0.68l-0.08,0.576h1.542l1.237-7.612H46.996z M44.96,22.968c-0.557,0-0.833-0.409-0.833-1.214
				c0-1.217,0.519-2.08,1.257-2.08c0.562,0,0.87,0.424,0.87,1.207C46.254,22.104,45.715,22.968,44.96,22.968z"/>
		</g>
		<g>
			<polygon fill="#FFFFFF" points="8.372,23.946 6.742,23.946 7.682,18.098 5.594,23.946 4.487,23.946 4.344,18.136 3.367,23.946 
				1.848,23.946 3.112,16.339 5.459,16.339 5.521,21.049 7.104,16.339 9.633,16.339 			"/>
			<path fill="#FFFFFF" d="M12.384,21.195c-0.167-0.021-0.246-0.026-0.367-0.026c-0.921,0-1.386,0.316-1.386,0.934
				c0,0.391,0.222,0.635,0.585,0.635C11.875,22.737,12.354,22.103,12.384,21.195z M13.563,23.946c-0.21,0-1.344,0-1.344,0
				l0.026-0.637c-0.411,0.505-0.959,0.743-1.703,0.743c-0.881,0-1.488-0.688-1.488-1.69c0-1.501,1.051-2.389,2.855-2.389
				c0.188,0,0.424,0.022,0.662,0.057c0.059-0.209,0.062-0.297,0.062-0.402c0-0.409-0.273-0.567-1.038-0.567
				c-0.8-0.004-1.453,0.187-1.723,0.283c0.017-0.107,0.221-1.392,0.221-1.392c0.81-0.236,1.352-0.327,1.955-0.327
				c1.399,0,2.14,0.621,2.138,1.814c0.003,0.318-0.059,0.705-0.136,1.227C13.912,21.556,13.608,23.484,13.563,23.946z"/>
			<path fill="#FFFFFF" d="M35.401,16.546l-0.269,1.649c-0.576-0.291-1.003-0.411-1.446-0.411c-1.226,0-2.073,1.177-2.073,2.852
				c0,1.151,0.578,1.855,1.516,1.855c0.403,0,0.849-0.129,1.385-0.394l-0.287,1.73c-0.601,0.164-0.981,0.225-1.441,0.225
				c-1.742,0-2.842-1.262-2.842-3.281c0-2.713,1.517-4.615,3.664-4.615C34.328,16.156,35.165,16.452,35.401,16.546z"/>
			<path fill="#FFFFFF" d="M38.028,21.195c-0.17-0.021-0.242-0.026-0.361-0.026c-0.931,0-1.395,0.316-1.395,0.934
				c0,0.391,0.228,0.635,0.586,0.635C37.524,22.737,37.998,22.103,38.028,21.195z M39.213,23.946c-0.218,0-1.347,0-1.347,0
				l0.029-0.637c-0.414,0.505-0.96,0.743-1.711,0.743c-0.879,0-1.481-0.688-1.481-1.69c0-1.501,1.048-2.389,2.853-2.389
				c0.183,0,0.422,0.022,0.664,0.057c0.056-0.209,0.069-0.297,0.069-0.402c0-0.409-0.29-0.567-1.052-0.567
				c-0.791-0.004-1.445,0.187-1.72,0.283c0.019-0.107,0.229-1.392,0.229-1.392c0.814-0.236,1.343-0.327,1.953-0.327
				c1.396,0,2.137,0.621,2.135,1.814c0.004,0.318-0.056,0.705-0.139,1.227C39.552,21.556,39.258,23.484,39.213,23.946z"/>
			<path fill="#FFFFFF" d="M20.8,23.854c-0.438,0.139-0.789,0.199-1.174,0.199c-0.825,0-1.283-0.475-1.283-1.36
				c-0.01-0.267,0.123-0.993,0.223-1.646c0.096-0.582,0.713-4.216,0.713-4.216h1.611l-0.188,0.931h0.829l-0.22,1.481h-0.833
				c-0.191,1.178-0.452,2.651-0.457,2.844c0,0.318,0.173,0.457,0.557,0.457c0.191,0,0.332-0.023,0.441-0.057L20.8,23.854z"/>
			<path fill="#FFFFFF" d="M25.765,23.809c-0.558,0.172-1.097,0.246-1.661,0.244c-1.812,0-2.752-0.948-2.752-2.762
				c0-2.112,1.197-3.666,2.823-3.666c1.34,0,2.193,0.867,2.193,2.239c0,0.452-0.064,0.896-0.204,1.517h-3.225
				c-0.107,0.897,0.468,1.28,1.406,1.28c0.584,0,1.111-0.125,1.692-0.399L25.765,23.809z M24.851,20.136
				c0.016-0.13,0.174-1.103-0.749-1.103c-0.521,0-0.887,0.391-1.033,1.103H24.851z"/>
			<path fill="#FFFFFF" d="M14.538,19.715c0,0.784,0.384,1.316,1.244,1.725c0.656,0.32,0.762,0.411,0.762,0.688
				c0,0.384-0.293,0.557-0.937,0.557c-0.488,0-0.934-0.078-1.459-0.246c0,0-0.208,1.37-0.222,1.432
				c0.365,0.082,0.696,0.15,1.69,0.183c1.72,0,2.52-0.649,2.52-2.064c0-0.854-0.332-1.351-1.148-1.724
				c-0.689-0.314-0.762-0.386-0.762-0.672c0-0.334,0.271-0.508,0.791-0.508c0.319,0,0.761,0.038,1.174,0.094l0.229-1.438
				c-0.427-0.064-1.061-0.115-1.431-0.115C15.173,17.625,14.532,18.568,14.538,19.715z"/>
			<path fill="#FFFFFF" d="M47.835,23.946h-1.55l0.078-0.575c-0.44,0.471-0.905,0.682-1.492,0.682c-1.189,0-1.97-1.016-1.97-2.563
				c0-2.056,1.216-3.796,2.645-3.796c0.635,0,1.116,0.261,1.553,0.848l0.363-2.202h1.61L47.835,23.946z M45.431,22.514
				c0.763,0,1.289-0.852,1.289-2.076c0-0.794-0.301-1.217-0.854-1.217c-0.743,0-1.271,0.865-1.271,2.072
				C44.595,22.103,44.878,22.514,45.431,22.514z"/>
			<path fill="#FFFFFF" d="M40.682,17.762c-0.204,1.914-0.574,3.848-0.848,5.764l-0.075,0.421h1.629
				c0.583-3.781,0.723-4.522,1.634-4.423c0.144-0.785,0.418-1.454,0.622-1.799c-0.688-0.142-1.068,0.248-1.562,0.979
				c0.037-0.317,0.105-0.635,0.092-0.942H40.682z"/>
			<path fill="#FFFFFF" d="M27.274,17.762c-0.2,1.914-0.566,3.848-0.845,5.764l-0.07,0.421h1.624
				c0.583-3.781,0.723-4.522,1.634-4.423c0.143-0.785,0.417-1.454,0.618-1.799c-0.676-0.142-1.065,0.248-1.563,0.979
				c0.041-0.317,0.116-0.635,0.098-0.942H27.274z"/>
			<g>
				<path fill="#FFFFFF" d="M48.544,23.462c0-0.272,0.218-0.479,0.486-0.479c0.271,0,0.479,0.206,0.479,0.479
					c0,0.267-0.209,0.484-0.479,0.484C48.762,23.946,48.544,23.729,48.544,23.462z M49.03,23.828c0.207,0,0.369-0.165,0.369-0.366
					c0-0.209-0.162-0.369-0.369-0.369c-0.203,0-0.368,0.16-0.368,0.369C48.662,23.663,48.827,23.828,49.03,23.828z M48.968,23.676
					h-0.105v-0.427h0.183c0.035,0,0.077,0,0.111,0.022c0.031,0.028,0.054,0.062,0.054,0.105c0,0.044-0.032,0.09-0.075,0.113
					l0.079,0.186H49.1l-0.062-0.172h-0.07V23.676z M48.968,23.431h0.045c0.025,0,0.054,0.002,0.065-0.01
					c0.014-0.008,0.022-0.021,0.022-0.044c0-0.016-0.009-0.04-0.022-0.043c-0.01-0.002-0.042,0-0.065,0h-0.045V23.431z"/>
			</g>
		</g>
	</g>
</g>
</svg>
