<?xml version="1.0" encoding="utf-8"?>
<!-- Generator: Adobe Illustrator 16.0.0, SVG Export Plug-In . SVG Version: 6.00 Build 0)  -->
<!DOCTYPE svg PUBLIC "-//W3C//DTD SVG 1.1//EN" "http://www.w3.org/Graphics/SVG/1.1/DTD/svg11.dtd">
<svg version="1.1" id="Capa_1" xmlns="http://www.w3.org/2000/svg" xmlns:xlink="http://www.w3.org/1999/xlink" x="0px" y="0px"
	 width="84.228px" height="40px" viewBox="0 0 84.228 40" enable-background="new 0 0 84.228 40" xml:space="preserve">
<g>
	<g>
		<g>
			<g>
				<path fill="#E40520" d="M29.989,20c0,8.282-6.708,15-14.989,15C6.712,35,0,28.282,0,20C0,11.72,6.712,5,15,5
					C23.281,5,29.989,11.72,29.989,20z"/>
				<g>
					<path fill="#FAB31E" d="M35.13,5c-3.874,0-7.4,1.468-10.067,3.887c-0.54,0.487-1.047,1.022-1.511,1.589h3.031
						c0.414,0.505,0.792,1.029,1.141,1.586h-5.312c-0.325,0.504-0.615,1.037-0.867,1.585h7.04c0.246,0.52,0.458,1.047,0.643,1.589
						H20.91c-0.175,0.522-0.317,1.046-0.438,1.596h9.184c0.224,1.011,0.334,2.077,0.334,3.169c0,1.668-0.261,3.266-0.762,4.765
						H20.91c0.183,0.544,0.39,1.071,0.635,1.591h7.04c-0.254,0.546-0.545,1.081-0.861,1.585h-5.312
						c0.34,0.555,0.727,1.081,1.14,1.584h3.031c-0.466,0.568-0.974,1.102-1.521,1.596C27.729,33.531,31.256,35,35.13,35
						c8.28,0,15.006-6.718,15.006-15C50.136,11.72,43.41,5,35.13,5z"/>
				</g>
			</g>
			<path fill="#FAB31E" d="M48.128,28.353c0-0.258,0.218-0.479,0.488-0.479c0.269,0,0.479,0.222,0.479,0.479
				c0,0.267-0.211,0.49-0.479,0.49C48.346,28.843,48.128,28.619,48.128,28.353z M48.616,28.728c0.205,0,0.367-0.168,0.367-0.375
				c0-0.199-0.162-0.36-0.367-0.36s-0.37,0.161-0.37,0.36C48.246,28.56,48.411,28.728,48.616,28.728z M48.554,28.577h-0.105v-0.432
				h0.181c0.035,0,0.077,0,0.111,0.026c0.031,0.017,0.054,0.06,0.054,0.098c0,0.054-0.032,0.095-0.075,0.111l0.079,0.196h-0.114
				l-0.062-0.172h-0.068V28.577z M48.554,28.331h0.047c0.023,0,0.05,0,0.062-0.008c0.018-0.009,0.022-0.034,0.022-0.054
				c0-0.008-0.009-0.032-0.022-0.039c-0.01-0.008-0.042-0.006-0.065-0.006h-0.043V28.331z"/>
		</g>
		<g>
			<g>
				<path fill="#06326E" d="M11.494,21.642c-0.169-0.026-0.248-0.028-0.358-0.028c-0.921,0-1.388,0.319-1.388,0.945
					c0,0.387,0.223,0.627,0.576,0.627C10.983,23.186,11.473,22.557,11.494,21.642z M12.682,24.4c-0.22,0-1.351,0-1.351,0l0.033-0.65
					c-0.414,0.515-0.959,0.754-1.702,0.754c-0.89,0-1.489-0.686-1.489-1.687c0-1.508,1.051-2.384,2.851-2.384
					c0.191,0,0.429,0.016,0.667,0.041c0.048-0.198,0.061-0.288,0.061-0.396c0-0.408-0.276-0.568-1.037-0.568
					c-0.802-0.005-1.46,0.2-1.724,0.284c0.017-0.104,0.223-1.391,0.223-1.391c0.809-0.246,1.351-0.334,1.943-0.334
					c1.401,0,2.141,0.638,2.141,1.812c0.001,0.326-0.049,0.715-0.129,1.229C13.03,22.016,12.717,23.928,12.682,24.4z"/>
				<polygon fill="#06326E" points="7.489,24.4 5.86,24.4 6.789,18.551 4.715,24.4 3.598,24.4 3.46,18.584 2.486,24.4 0.958,24.4 
					2.23,16.788 4.566,16.788 4.717,21.049 6.142,16.788 8.752,16.788 				"/>
				<path fill="#06326E" d="M37.14,21.642c-0.164-0.026-0.243-0.028-0.355-0.028c-0.929,0-1.394,0.319-1.394,0.945
					c0,0.387,0.228,0.627,0.585,0.627C36.644,23.186,37.116,22.557,37.14,21.642z M38.331,24.4c-0.217,0-1.355,0-1.355,0l0.035-0.65
					c-0.41,0.515-0.958,0.754-1.707,0.754c-0.879,0-1.487-0.686-1.487-1.687c0-1.508,1.053-2.384,2.856-2.384
					c0.185,0,0.423,0.016,0.667,0.041c0.048-0.198,0.06-0.288,0.06-0.396c0-0.408-0.281-0.568-1.043-0.568
					c-0.792-0.005-1.446,0.2-1.726,0.284c0.022-0.104,0.227-1.391,0.227-1.391c0.811-0.246,1.35-0.334,1.953-0.334
					c1.399,0,2.14,0.638,2.14,1.812c0,0.326-0.055,0.715-0.139,1.229C38.673,22.016,38.375,23.928,38.331,24.4z"/>
				<path fill="#06326E" d="M19.917,24.308c-0.448,0.139-0.791,0.196-1.173,0.196c-0.829,0-1.282-0.474-1.282-1.358
					c-0.01-0.273,0.114-0.986,0.223-1.646c0.093-0.58,0.7-4.223,0.7-4.223h1.623l-0.187,0.938h0.973l-0.222,1.489h-0.976
					c-0.192,1.17-0.464,2.643-0.467,2.832c0,0.32,0.172,0.46,0.563,0.46c0.184,0,0.333-0.017,0.434-0.067L19.917,24.308z"/>
				<path fill="#06326E" d="M24.883,24.248c-0.567,0.173-1.096,0.26-1.66,0.256c-1.813-0.002-2.762-0.939-2.762-2.754
					c0-2.121,1.209-3.681,2.832-3.681c1.341,0,2.185,0.878,2.185,2.242c0,0.456-0.055,0.894-0.194,1.527h-3.226
					c-0.114,0.893,0.462,1.264,1.409,1.264c0.579,0,1.097-0.113,1.68-0.386L24.883,24.248z M23.97,20.587
					c0.009-0.133,0.173-1.108-0.749-1.108c-0.521,0-0.889,0.4-1.045,1.108H23.97z"/>
				<path fill="#06326E" d="M13.655,20.169c0,0.776,0.375,1.324,1.246,1.728c0.655,0.304,0.762,0.396,0.762,0.685
					c0,0.38-0.297,0.558-0.938,0.558c-0.487,0-0.942-0.079-1.457-0.24c0,0-0.219,1.354-0.229,1.423
					c0.372,0.079,0.702,0.16,1.696,0.183c1.72,0,2.51-0.658,2.51-2.071c0-0.843-0.331-1.343-1.147-1.728
					c-0.678-0.303-0.755-0.377-0.755-0.661c0-0.332,0.265-0.505,0.794-0.505c0.318,0,0.762,0.029,1.173,0.09l0.23-1.436
					c-0.427-0.063-1.06-0.124-1.439-0.124C14.279,18.069,13.65,19.028,13.655,20.169z"/>
				<path fill="#06326E" d="M32.795,18.234c0.453,0,0.881,0.12,1.46,0.41l0.255-1.647c-0.237-0.092-1.07-0.651-1.783-0.651
					c-1.095,0-2.003,0.55-2.659,1.438c-0.944-0.309-1.329,0.317-1.812,0.949l-0.418,0.096c0.031-0.202,0.063-0.411,0.05-0.614H26.39
					c-0.197,1.908-0.562,3.849-0.848,5.773L25.467,24.4h1.634c0.27-1.77,0.416-2.897,0.508-3.667l0.616-0.336
					c0.094-0.346,0.374-0.455,0.948-0.442c-0.072,0.403-0.111,0.826-0.111,1.268c0,2.025,1.089,3.281,2.841,3.281
					c0.461,0,0.843-0.056,1.443-0.223l0.282-1.732c-0.534,0.267-0.979,0.385-1.38,0.385c-0.947,0-1.522-0.686-1.522-1.848
					C30.726,19.411,31.576,18.234,32.795,18.234z"/>
				<path fill="#06326E" d="M46.58,16.788l-0.362,2.202c-0.439-0.587-0.93-1.006-1.553-1.006c-0.822,0-1.574,0.614-2.06,1.539
					c-0.688-0.142-1.387-0.388-1.387-0.388l-0.002,0.005c0.055-0.506,0.079-0.825,0.075-0.926h-1.499
					c-0.198,1.908-0.568,3.849-0.843,5.773L38.868,24.4h1.636c0.216-1.423,0.385-2.621,0.503-3.552
					c0.564-0.504,0.84-0.946,1.399-0.912c-0.247,0.601-0.392,1.292-0.392,1.998c0,1.556,0.783,2.569,1.966,2.569
					c0.597,0,1.057-0.2,1.502-0.68l-0.08,0.576h1.542l1.237-7.612H46.58z M44.544,22.968c-0.557,0-0.833-0.409-0.833-1.214
					c0-1.217,0.519-2.08,1.257-2.08c0.562,0,0.87,0.424,0.87,1.207C45.838,22.104,45.299,22.968,44.544,22.968z"/>
			</g>
			<g>
				<polygon fill="#FFFFFF" points="7.956,23.946 6.326,23.946 7.266,18.098 5.178,23.946 4.071,23.946 3.928,18.136 2.951,23.946 
					1.432,23.946 2.696,16.339 5.043,16.339 5.105,21.049 6.688,16.339 9.217,16.339 				"/>
				<path fill="#FFFFFF" d="M11.968,21.195c-0.167-0.021-0.246-0.026-0.367-0.026c-0.921,0-1.386,0.316-1.386,0.934
					c0,0.391,0.222,0.635,0.585,0.635C11.459,22.737,11.938,22.103,11.968,21.195z M13.147,23.946c-0.21,0-1.344,0-1.344,0
					l0.026-0.637c-0.411,0.505-0.959,0.743-1.703,0.743c-0.881,0-1.488-0.688-1.488-1.69c0-1.501,1.051-2.389,2.855-2.389
					c0.188,0,0.424,0.022,0.662,0.057c0.059-0.209,0.062-0.297,0.062-0.402c0-0.409-0.273-0.567-1.038-0.567
					c-0.8-0.004-1.453,0.187-1.723,0.283c0.017-0.107,0.221-1.392,0.221-1.392c0.81-0.236,1.352-0.327,1.955-0.327
					c1.399,0,2.14,0.621,2.138,1.814c0.003,0.318-0.059,0.705-0.136,1.227C13.496,21.556,13.192,23.484,13.147,23.946z"/>
				<path fill="#FFFFFF" d="M34.985,16.546l-0.269,1.649c-0.576-0.291-1.003-0.411-1.446-0.411c-1.226,0-2.073,1.177-2.073,2.852
					c0,1.151,0.578,1.855,1.516,1.855c0.403,0,0.849-0.129,1.385-0.394l-0.287,1.73c-0.601,0.164-0.981,0.225-1.441,0.225
					c-1.742,0-2.842-1.262-2.842-3.281c0-2.713,1.517-4.615,3.664-4.615C33.912,16.156,34.749,16.452,34.985,16.546z"/>
				<path fill="#FFFFFF" d="M37.612,21.195c-0.17-0.021-0.242-0.026-0.361-0.026c-0.931,0-1.395,0.316-1.395,0.934
					c0,0.391,0.228,0.635,0.586,0.635C37.108,22.737,37.582,22.103,37.612,21.195z M38.797,23.946c-0.218,0-1.347,0-1.347,0
					l0.029-0.637c-0.414,0.505-0.96,0.743-1.711,0.743c-0.879,0-1.481-0.688-1.481-1.69c0-1.501,1.048-2.389,2.853-2.389
					c0.183,0,0.422,0.022,0.664,0.057c0.056-0.209,0.069-0.297,0.069-0.402c0-0.409-0.29-0.567-1.052-0.567
					c-0.791-0.004-1.445,0.187-1.72,0.283c0.019-0.107,0.229-1.392,0.229-1.392c0.814-0.236,1.343-0.327,1.953-0.327
					c1.396,0,2.137,0.621,2.135,1.814c0.004,0.318-0.056,0.705-0.139,1.227C39.136,21.556,38.842,23.484,38.797,23.946z"/>
				<path fill="#FFFFFF" d="M20.384,23.854c-0.438,0.139-0.789,0.199-1.174,0.199c-0.825,0-1.283-0.475-1.283-1.36
					c-0.01-0.267,0.123-0.993,0.223-1.646c0.096-0.582,0.713-4.216,0.713-4.216h1.611l-0.188,0.931h0.829l-0.22,1.481h-0.833
					c-0.191,1.178-0.452,2.651-0.457,2.844c0,0.318,0.173,0.457,0.557,0.457c0.191,0,0.332-0.023,0.441-0.057L20.384,23.854z"/>
				<path fill="#FFFFFF" d="M25.349,23.809c-0.558,0.172-1.097,0.246-1.661,0.244c-1.812,0-2.752-0.948-2.752-2.762
					c0-2.112,1.197-3.666,2.823-3.666c1.34,0,2.193,0.867,2.193,2.239c0,0.452-0.064,0.896-0.204,1.517h-3.225
					c-0.107,0.897,0.468,1.28,1.406,1.28c0.584,0,1.111-0.125,1.692-0.399L25.349,23.809z M24.435,20.136
					c0.016-0.13,0.174-1.103-0.749-1.103c-0.521,0-0.887,0.391-1.033,1.103H24.435z"/>
				<path fill="#FFFFFF" d="M14.122,19.715c0,0.784,0.384,1.316,1.244,1.725c0.656,0.32,0.762,0.411,0.762,0.688
					c0,0.384-0.293,0.557-0.937,0.557c-0.488,0-0.934-0.078-1.459-0.246c0,0-0.208,1.37-0.222,1.432
					c0.365,0.082,0.696,0.15,1.69,0.183c1.72,0,2.52-0.649,2.52-2.064c0-0.854-0.332-1.351-1.148-1.724
					c-0.689-0.314-0.762-0.386-0.762-0.672c0-0.334,0.271-0.508,0.791-0.508c0.319,0,0.761,0.038,1.174,0.094l0.229-1.438
					c-0.427-0.064-1.061-0.115-1.431-0.115C14.757,17.625,14.116,18.568,14.122,19.715z"/>
				<path fill="#FFFFFF" d="M47.419,23.946h-1.55l0.078-0.575c-0.44,0.471-0.905,0.682-1.492,0.682c-1.189,0-1.97-1.016-1.97-2.563
					c0-2.056,1.216-3.796,2.645-3.796c0.635,0,1.116,0.261,1.553,0.848l0.363-2.202h1.61L47.419,23.946z M45.015,22.514
					c0.763,0,1.289-0.852,1.289-2.076c0-0.794-0.301-1.217-0.854-1.217c-0.743,0-1.271,0.865-1.271,2.072
					C44.179,22.103,44.462,22.514,45.015,22.514z"/>
				<path fill="#FFFFFF" d="M40.266,17.762c-0.204,1.914-0.574,3.848-0.848,5.764l-0.075,0.421h1.629
					c0.583-3.781,0.723-4.522,1.634-4.423c0.144-0.785,0.418-1.454,0.622-1.799c-0.688-0.142-1.068,0.248-1.562,0.979
					c0.037-0.317,0.105-0.635,0.092-0.942H40.266z"/>
				<path fill="#FFFFFF" d="M26.858,17.762c-0.2,1.914-0.566,3.848-0.845,5.764l-0.07,0.421h1.624
					c0.583-3.781,0.723-4.522,1.634-4.423c0.143-0.785,0.417-1.454,0.618-1.799c-0.676-0.142-1.065,0.248-1.563,0.979
					c0.041-0.317,0.116-0.635,0.098-0.942H26.858z"/>
				<g>
					<path fill="#FFFFFF" d="M48.128,23.462c0-0.272,0.218-0.479,0.486-0.479c0.271,0,0.479,0.206,0.479,0.479
						c0,0.267-0.209,0.484-0.479,0.484C48.346,23.946,48.128,23.729,48.128,23.462z M48.614,23.828c0.207,0,0.369-0.165,0.369-0.366
						c0-0.209-0.162-0.369-0.369-0.369c-0.203,0-0.368,0.16-0.368,0.369C48.246,23.663,48.411,23.828,48.614,23.828z M48.552,23.676
						h-0.105v-0.427h0.183c0.035,0,0.077,0,0.111,0.022c0.031,0.028,0.054,0.062,0.054,0.105c0,0.044-0.032,0.09-0.075,0.113
						l0.079,0.186h-0.114l-0.062-0.172h-0.07V23.676z M48.552,23.431h0.045c0.025,0,0.054,0.002,0.065-0.01
						c0.014-0.008,0.022-0.021,0.022-0.044c0-0.016-0.009-0.04-0.022-0.043c-0.01-0.002-0.042,0-0.065,0h-0.045V23.431z"/>
				</g>
			</g>
		</g>
	</g>
	<g>
		<g>
			<path fill="#676767" d="M59.149,22.003v-5.012h1.727c0.391,0,0.688,0.025,0.893,0.072c0.287,0.066,0.531,0.186,0.734,0.359
				c0.264,0.223,0.463,0.508,0.594,0.855s0.195,0.744,0.195,1.191c0,0.381-0.043,0.719-0.133,1.012
				c-0.088,0.295-0.203,0.537-0.342,0.73c-0.139,0.191-0.291,0.344-0.457,0.453c-0.164,0.111-0.363,0.195-0.598,0.252
				c-0.232,0.057-0.502,0.086-0.805,0.086H59.149z M59.813,21.411h1.07c0.33,0,0.588-0.031,0.777-0.092
				c0.188-0.062,0.338-0.148,0.449-0.26c0.156-0.158,0.279-0.369,0.367-0.635s0.131-0.588,0.131-0.965
				c0-0.525-0.086-0.928-0.258-1.209s-0.381-0.469-0.627-0.564c-0.178-0.068-0.463-0.104-0.857-0.104h-1.053V21.411z"/>
			<path fill="#676767" d="M64.218,22.003v-5.012h3.623v0.592h-2.959v1.535h2.771v0.588h-2.771v1.705h3.076v0.592H64.218z
				 M65.585,16.685l0.455-0.957h0.807l-0.752,0.957H65.585z"/>
			<path fill="#676767" d="M68.847,22.003v-5.012h1.881c0.383,0,0.689,0.051,0.92,0.152c0.232,0.102,0.414,0.258,0.545,0.469
				s0.195,0.432,0.195,0.662c0,0.213-0.057,0.414-0.174,0.604c-0.115,0.189-0.291,0.342-0.525,0.459
				c0.303,0.088,0.535,0.24,0.697,0.455c0.164,0.213,0.246,0.467,0.246,0.758c0,0.234-0.051,0.453-0.15,0.654
				c-0.098,0.201-0.221,0.357-0.367,0.467c-0.145,0.109-0.328,0.191-0.549,0.248c-0.219,0.055-0.488,0.084-0.807,0.084H68.847z
				 M69.511,19.097h1.084c0.293,0,0.504-0.02,0.631-0.057c0.17-0.051,0.297-0.135,0.381-0.25c0.086-0.117,0.129-0.262,0.129-0.438
				c0-0.166-0.039-0.312-0.119-0.439s-0.193-0.213-0.342-0.26s-0.402-0.07-0.762-0.07h-1.002V19.097z M69.511,21.411h1.248
				c0.213,0,0.363-0.008,0.451-0.023c0.152-0.027,0.279-0.074,0.383-0.137c0.102-0.064,0.186-0.156,0.252-0.279
				c0.066-0.121,0.1-0.262,0.1-0.422c0-0.188-0.049-0.35-0.145-0.486c-0.096-0.139-0.229-0.236-0.398-0.291
				c-0.17-0.057-0.414-0.084-0.732-0.084h-1.158V21.411z"/>
			<path fill="#676767" d="M73.655,22.003v-5.012h0.664v5.012H73.655z"/>
			<path fill="#676767" d="M76.763,22.003v-4.42h-1.65v-0.592h3.971v0.592h-1.656v4.42H76.763z"/>
			<path fill="#676767" d="M79.435,19.562c0-0.832,0.225-1.482,0.67-1.953c0.447-0.471,1.023-0.705,1.73-0.705
				c0.463,0,0.879,0.109,1.25,0.332c0.373,0.221,0.656,0.527,0.85,0.924c0.195,0.395,0.293,0.844,0.293,1.346
				c0,0.508-0.104,0.961-0.309,1.363c-0.205,0.4-0.494,0.705-0.871,0.91c-0.375,0.207-0.781,0.311-1.217,0.311
				c-0.471,0-0.893-0.115-1.264-0.342c-0.371-0.229-0.654-0.539-0.846-0.934S79.435,20.001,79.435,19.562z M80.118,19.573
				c0,0.604,0.164,1.078,0.488,1.426s0.732,0.521,1.221,0.521c0.5,0,0.91-0.176,1.232-0.525c0.322-0.352,0.484-0.85,0.484-1.494
				c0-0.408-0.068-0.764-0.207-1.068c-0.137-0.305-0.34-0.541-0.605-0.707c-0.266-0.168-0.562-0.252-0.893-0.252
				c-0.471,0-0.873,0.162-1.213,0.484C80.288,18.28,80.118,18.817,80.118,19.573z"/>
		</g>
	</g>
</g>
</svg>
