<?xml version="1.0" encoding="utf-8"?>
<!-- Generator: Adobe Illustrator 16.0.0, SVG Export Plug-In . SVG Version: 6.00 Build 0)  -->
<!DOCTYPE svg PUBLIC "-//W3C//DTD SVG 1.1//EN" "http://www.w3.org/Graphics/SVG/1.1/DTD/svg11.dtd">
<svg version="1.1" id="Capa_1" xmlns="http://www.w3.org/2000/svg" xmlns:xlink="http://www.w3.org/1999/xlink" x="0px" y="0px"
	 width="81.272px" height="40px" viewBox="0 0 81.272 40" enable-background="new 0 0 81.272 40" xml:space="preserve">
<g>
	<path fill="#F7AB1C" d="M61.617,21.553c0,0.002,0,0.004,0,0.004c0.004,0,0.006-0.002,0.012-0.004H61.617z"/>
	<g>
		<g>
			<g>
				<path fill="#234F8C" d="M9.1,24.184l0.707-4.973c0.156-1.082,0.377-2.572,0.643-3.875h-0.047
					c-0.549,1.24-1.176,2.604-1.758,3.717l-2.604,5.006H4.629L4.08,19.133c-0.125-1.176-0.219-2.541-0.283-3.797H3.766
					c-0.281,1.209-0.596,2.809-0.863,3.875l-1.207,4.973H0l2.684-10.574H5.1l0.564,4.943c0.078,0.939,0.188,2.039,0.205,3.041h0.062
					c0.377-1.002,0.877-2.117,1.334-3.025l2.557-4.959h2.447l-1.396,10.574H9.1z"/>
				<path fill="#234F8C" d="M18.656,23.744c-0.754,0.393-1.773,0.611-2.699,0.611c-2.117,0-3.137-1.301-3.137-3.168
					c0-2.307,1.693-4.816,4.33-4.816c1.506,0,2.463,0.879,2.463,2.15c0,1.961-2.057,2.588-5.006,2.525
					c-0.031,0.266,0.033,0.783,0.205,1.082c0.297,0.518,0.848,0.785,1.568,0.785c0.863,0,1.555-0.221,2.102-0.504L18.656,23.744z
					 M17.887,18.521c0-0.486-0.391-0.785-0.971-0.785c-1.146,0-1.9,1.02-2.119,1.943c1.883,0.033,3.09-0.234,3.09-1.143V18.521z"/>
				<path fill="#234F8C" d="M20.068,24.184l0.895-4.707c0.205-1.08,0.299-2.242,0.393-2.932h1.584
					c-0.047,0.518-0.094,1.051-0.172,1.615h0.047c0.518-1.035,1.35-1.789,2.4-1.789c0.125,0,0.268,0.016,0.393,0.031l-0.361,1.789
					c-0.094-0.016-0.219-0.031-0.346-0.031c-1.301,0-2.133,1.316-2.432,2.949l-0.58,3.074H20.068z"/>
				<path fill="#234F8C" d="M30.801,23.918c-0.439,0.219-1.225,0.438-2.197,0.438c-1.914,0-3.09-1.238-3.09-3.059
					c0-2.666,2.023-4.926,4.863-4.926c0.674,0,1.271,0.174,1.553,0.299l-0.471,1.428c-0.281-0.125-0.643-0.236-1.145-0.236
					c-1.771,0-2.887,1.631-2.887,3.217c0,1.145,0.658,1.787,1.678,1.787c0.707,0,1.24-0.188,1.633-0.359L30.801,23.918z"/>
				<path fill="#234F8C" d="M36.795,24.184c0.016-0.455,0.078-1.066,0.141-1.727h-0.047c-0.752,1.414-1.758,1.898-2.73,1.898
					c-1.363,0-2.258-1.066-2.258-2.604c0-2.605,1.818-5.381,5.381-5.381c0.83,0,1.727,0.158,2.307,0.346l-0.785,3.984
					c-0.219,1.145-0.344,2.572-0.314,3.482H36.795z M37.547,17.861c-0.188-0.047-0.422-0.078-0.752-0.078
					c-1.695,0-2.998,1.896-2.998,3.639c0,0.801,0.299,1.459,1.1,1.459c0.848,0,1.883-1.066,2.244-3.012L37.547,17.861z"/>
				<path fill="#234F8C" d="M40.184,24.184l0.99-5.271c0.188-0.908,0.297-1.709,0.391-2.367h1.617l-0.158,1.381h0.031
					c0.707-1.037,1.68-1.555,2.746-1.555c1.082,0,1.945,0.658,1.945,2.104c0,0.344-0.062,0.877-0.141,1.27l-0.848,4.439h-1.82
					l0.816-4.314c0.047-0.283,0.094-0.611,0.094-0.91c0-0.627-0.234-1.098-0.957-1.098c-0.83,0-1.898,1.004-2.227,2.793l-0.66,3.529
					H40.184z"/>
				<path fill="#234F8C" d="M52.596,14.582l-0.377,1.963h1.727l-0.283,1.412h-1.711l-0.611,3.09
					c-0.062,0.344-0.125,0.752-0.125,1.066c0,0.424,0.189,0.689,0.676,0.689c0.219,0,0.438-0.016,0.625-0.047l-0.172,1.443
					c-0.266,0.094-0.752,0.156-1.191,0.156c-1.256,0-1.82-0.705-1.82-1.584c0-0.424,0.047-0.848,0.172-1.412l0.66-3.402h-1.037
					l0.268-1.412h1.035l0.268-1.412L52.596,14.582z"/>
				<path fill="#234F8C" d="M53.818,24.184l1.461-7.639h1.82l-1.461,7.639H53.818z M56.486,15.445c-0.549,0-0.926-0.408-0.926-0.973
					c0-0.66,0.502-1.113,1.1-1.113c0.564,0,0.973,0.406,0.973,0.988c-0.018,0.674-0.518,1.098-1.131,1.098H56.486z"/>
				<path fill="#234F8C" d="M57.617,24.184l2.133-11.139h1.82l-2.119,11.139H57.617z"/>
			</g>
		</g>
	</g>
	<g>
		<linearGradient id="SVGID_1_" gradientUnits="userSpaceOnUse" x1="76.8291" y1="21.5039" x2="71.8565" y2="11.851">
			<stop  offset="0" style="stop-color:#1478B8"/>
			<stop  offset="1" style="stop-color:#293677"/>
		</linearGradient>
		<path fill="url(#SVGID_1_)" d="M79.033,15.775c-0.11-1.793-1.834-2.961-2.077-3.119c-4.63-2.775-11.308-2.279-11.308-2.279
			s9.82,2.865,7.956,11.826c0,0-0.02,0.094-0.062,0.26C78.649,20.23,79.109,17.01,79.033,15.775z"/>
		<linearGradient id="SVGID_2_" gradientUnits="userSpaceOnUse" x1="71.1465" y1="26.0947" x2="66.3192" y2="25.3636">
			<stop  offset="0" style="stop-color:#F7A81C"/>
			<stop  offset="1" style="stop-color:#ED7224"/>
		</linearGradient>
		<path fill="url(#SVGID_2_)" d="M73.542,22.463c-2.156,0.859-7.364,1.9-10.537,2.174c0,0,4.557,1.555,5.296,5.021
			C71.967,27.73,73.263,23.543,73.542,22.463z"/>
		<linearGradient id="SVGID_3_" gradientUnits="userSpaceOnUse" x1="78.1245" y1="14.9492" x2="74.6139" y2="25.9199">
			<stop  offset="0" style="stop-color:#F7A81C"/>
			<stop  offset="1" style="stop-color:#ED7224"/>
		</linearGradient>
		<path fill="url(#SVGID_3_)" d="M81.203,18.977c-0.041-0.318-0.329-3.67-4.08-6.215c-0.051-0.035-0.104-0.066-0.156-0.098
			c-0.002,0-0.003-0.002-0.004-0.002c-0.002-0.002-0.004-0.004-0.007-0.006c0.243,0.158,1.967,1.326,2.077,3.119
			c0.076,1.234-0.384,4.455-5.491,6.688c-0.279,1.08-1.575,5.268-5.241,7.195C68.301,29.658,82.375,27.91,81.203,18.977z"/>
	</g>
</g>
</svg>
