<?xml version="1.0" encoding="utf-8"?>
<!-- Generator: Adobe Illustrator 16.0.0, SVG Export Plug-In . SVG Version: 6.00 Build 0)  -->
<!DOCTYPE svg PUBLIC "-//W3C//DTD SVG 1.1//EN" "http://www.w3.org/Graphics/SVG/1.1/DTD/svg11.dtd">
<svg version="1.1" id="Capa_1" xmlns="http://www.w3.org/2000/svg" xmlns:xlink="http://www.w3.org/1999/xlink" x="0px" y="0px"
	 width="85px" height="40px" viewBox="0 0 85 40" enable-background="new 0 0 85 40" xml:space="preserve">
<g>
	<g>
		<path fill="#060E9F" d="M31.128,19.114c0-5.624-6.967-10.196-15.564-10.196c-8.595,0-15.562,4.572-15.562,10.196
			C0.002,19.251,0,19.648,0,19.709c0,5.947,6.089,10.768,15.563,10.768c9.528,0,15.564-4.818,15.564-10.768
			C31.128,19.494,31.128,19.377,31.128,19.114z"/>
		<path fill="#199BD8" d="M30.527,19.108c0,5.277-6.692,9.565-14.961,9.565c-8.266,0-14.962-4.288-14.962-9.565
			c0-5.293,6.696-9.583,14.962-9.583C23.835,9.525,30.527,13.815,30.527,19.108z"/>
		<g>
			<path fill="#FFFFFF" d="M10.6,16.077c-0.01,0.02-0.16,0.17-0.063,0.31c0.235,0.289,0.969,0.467,1.707,0.301
				c0.432-0.104,0.999-0.548,1.55-0.973c0.591-0.488,1.172-0.948,1.763-1.146c0.621-0.179,1.021-0.094,1.285-0.015
				c0.292,0.089,0.633,0.257,1.178,0.672c1.021,0.77,5.141,4.37,5.851,4.98c0.574-0.249,3.124-1.338,6.575-2.104
				c-0.289-1.855-1.417-3.54-3.111-4.923c-2.379,0.998-5.278,1.525-8.114,0.138c-0.015,0-1.552-0.747-3.058-0.695
				c-2.253,0.04-3.231,1.027-4.258,2.05L10.6,16.077z"/>
			<path fill="#FFFFFF" d="M23.703,20.616c-0.05-0.059-4.837-4.239-5.922-5.058c-0.634-0.481-0.984-0.585-1.352-0.651
				c-0.188-0.013-0.453,0.014-0.635,0.07c-0.504,0.141-1.162,0.581-1.751,1.046c-0.614,0.479-1.186,0.946-1.717,1.048
				c-0.679,0.147-1.507-0.019-1.888-0.268c-0.15-0.106-0.255-0.238-0.307-0.342c-0.143-0.322,0.116-0.585,0.156-0.644l1.322-1.422
				c0.15-0.166,0.312-0.315,0.469-0.46c-0.428,0.045-0.818,0.162-1.204,0.278c-0.477,0.125-0.94,0.265-1.405,0.265
				c-0.199,0-1.233-0.168-1.444-0.24c-1.192-0.328-2.241-0.641-3.812-1.368c-1.872,1.394-3.135,3.146-3.496,5.083
				c0.265,0.067,0.707,0.183,0.883,0.237c4.258,0.937,5.584,1.925,5.824,2.111c0.262-0.273,0.639-0.463,1.06-0.463
				c0.461,0.002,0.888,0.233,1.15,0.612c0.239-0.203,0.577-0.367,1.014-0.367c0.196,0,0.405,0.039,0.607,0.116
				c0.479,0.162,0.725,0.479,0.854,0.753c0.158-0.07,0.365-0.112,0.597-0.11c0.224,0,0.467,0.04,0.704,0.15
				c0.786,0.338,0.909,1.116,0.84,1.699c0.051-0.008,0.108-0.012,0.168-0.012c0.925,0,1.686,0.759,1.684,1.676
				c0,0.293-0.069,0.571-0.201,0.807c0.255,0.131,0.896,0.451,1.472,0.384c0.449-0.048,0.615-0.2,0.68-0.287
				c0.042-0.073,0.086-0.147,0.046-0.186l-1.203-1.336c0,0-0.19-0.195-0.133-0.263c0.063-0.071,0.195,0.045,0.278,0.11
				c0.611,0.516,1.358,1.269,1.358,1.269c0.01,0.007,0.061,0.109,0.336,0.166c0.237,0.04,0.66,0.007,0.954-0.229
				c0.069-0.054,0.139-0.125,0.206-0.202c-0.006,0.006-0.012,0.014-0.015,0.016c0.311-0.415-0.033-0.808-0.033-0.808l-1.399-1.571
				c0,0-0.211-0.194-0.136-0.265c0.057-0.056,0.186,0.045,0.274,0.116c0.446,0.369,1.067,1,1.678,1.593
				c0.114,0.087,0.637,0.413,1.342-0.062c0.423-0.259,0.51-0.608,0.498-0.871c-0.033-0.344-0.298-0.585-0.298-0.585l-1.911-1.929
				c0,0-0.198-0.178-0.131-0.268c0.05-0.07,0.186,0.046,0.272,0.115c0.607,0.516,2.264,2.035,2.264,2.035
				c0.02,0.008,0.591,0.423,1.298-0.035c0.249-0.158,0.415-0.399,0.427-0.695C24.047,20.894,23.703,20.616,23.703,20.616z"/>
			<path fill="#FFFFFF" d="M14.418,23.04c-0.297-0.011-0.615,0.174-0.664,0.155c-0.028-0.008,0.014-0.142,0.049-0.203
				c0.022-0.065,0.415-1.247-0.541-1.652c-0.726-0.307-1.17,0.029-1.328,0.195c-0.04,0.042-0.054,0.038-0.06-0.004
				c-0.02-0.229-0.112-0.798-0.735-0.992c-0.905-0.263-1.486,0.353-1.63,0.581c-0.071-0.5-0.498-0.913-1.024-0.913
				c-0.575,0-1.051,0.477-1.051,1.054c0,0.571,0.476,1.03,1.049,1.03c0.274,0,0.53-0.092,0.714-0.277
				c0.008,0.008,0.01,0.02,0.006,0.02c-0.042,0.262-0.121,1.208,0.865,1.577c0.388,0.166,0.726,0.056,1.002-0.151
				c0.081-0.048,0.096-0.017,0.085,0.061c-0.035,0.239,0.011,0.755,0.739,1.042c0.542,0.216,0.87-0.008,1.085-0.204
				c0.095-0.083,0.117-0.078,0.121,0.069c0.039,0.678,0.614,1.257,1.316,1.257c0.723,0,1.313-0.587,1.313-1.326
				C15.729,23.629,15.141,23.048,14.418,23.04z"/>
		</g>
		<path fill="#060E9F" d="M23.887,20.112c-1.475-1.306-4.89-4.263-5.816-4.969c-0.522-0.389-0.882-0.585-1.196-0.682
			c-0.146-0.059-0.336-0.097-0.591-0.097c-0.239,0-0.488,0.031-0.753,0.114c-0.603,0.196-1.195,0.664-1.776,1.131l-0.022,0.031
			c-0.535,0.415-1.091,0.853-1.506,0.949c-0.186,0.047-0.381,0.056-0.562,0.056c-0.475,0-0.897-0.125-1.054-0.341
			c-0.021-0.016-0.01-0.083,0.058-0.166h0.006l1.304-1.411c1.014-0.996,1.977-1.97,4.185-2.008c0.041,0,0.075-0.002,0.112-0.002
			c1.376,0.002,2.759,0.599,2.907,0.682c1.291,0.635,2.625,0.947,3.959,0.949c1.399,0,2.838-0.35,4.359-1.032
			c-0.17-0.161-0.35-0.288-0.537-0.415c-1.33,0.577-2.593,0.853-3.82,0.853c-1.247-0.002-2.498-0.289-3.698-0.884
			c-0.069-0.043-1.587-0.749-3.17-0.749c-0.043,0-0.083,0-0.126,0.002c-1.853,0.031-2.903,0.695-3.605,1.276
			c-0.689,0.011-1.278,0.177-1.801,0.332c-0.474,0.131-0.879,0.249-1.267,0.249c-0.162,0-0.458-0.014-0.486-0.014
			c-0.458-0.02-2.739-0.575-4.563-1.274c-0.18,0.126-0.361,0.274-0.539,0.403c1.899,0.794,4.22,1.383,4.948,1.437
			c0.2,0.018,0.421,0.029,0.639,0.029c0.479,0,0.961-0.134,1.427-0.251c0.281-0.081,0.579-0.164,0.911-0.247
			c-0.089,0.083-0.176,0.166-0.263,0.26l-1.314,1.433c-0.114,0.112-0.332,0.383-0.188,0.724c0.056,0.157,0.184,0.28,0.354,0.404
			c0.307,0.196,0.864,0.334,1.396,0.334c0.197,0,0.382,0,0.554-0.051c0.559-0.115,1.138-0.587,1.745-1.073
			c0.49-0.38,1.195-0.872,1.724-1.034c0.147-0.029,0.332-0.064,0.476-0.064c0.044,0,0.087,0,0.123,0.01
			c0.357,0.055,0.701,0.164,1.306,0.634c1.08,0.809,5.876,4.987,5.916,5.044c0.006,0.004,0.314,0.271,0.292,0.686
			c-0.004,0.249-0.147,0.482-0.381,0.623c-0.2,0.124-0.415,0.207-0.627,0.207c-0.32,0-0.543-0.166-0.56-0.166
			c-0.01-0.01-1.658-1.52-2.257-2.029c-0.103-0.077-0.199-0.146-0.292-0.146c-0.046,0-0.093,0.018-0.117,0.05
			c-0.101,0.132,0,0.292,0.125,0.383l1.923,1.932c0.004,0.002,0.235,0.227,0.272,0.525c0.004,0.314-0.145,0.591-0.46,0.78
			c-0.229,0.166-0.449,0.247-0.681,0.247c-0.298,0-0.502-0.151-0.551-0.166l-0.272-0.276c-0.505-0.494-1.021-1.012-1.401-1.324
			c-0.093-0.073-0.194-0.141-0.283-0.141c-0.049,0-0.087,0-0.132,0.04c-0.034,0.043-0.069,0.126,0.049,0.288
			c0.034,0.052,0.089,0.087,0.089,0.087l1.405,1.577c0.004,0.013,0.283,0.341,0.026,0.664l-0.048,0.083
			c-0.044,0.038-0.089,0.083-0.131,0.117c-0.24,0.207-0.561,0.215-0.678,0.215c-0.075,0-0.14,0-0.199-0.002
			c-0.133-0.035-0.224-0.081-0.272-0.128l-0.019-0.025c-0.073-0.077-0.782-0.789-1.367-1.27c-0.075-0.069-0.176-0.152-0.267-0.152
			c-0.05,0-0.097,0.009-0.125,0.058c-0.124,0.115,0.048,0.312,0.125,0.378l1.199,1.308c-0.002,0.019-0.023,0.056-0.051,0.083
			c-0.038,0.079-0.187,0.218-0.615,0.26c-0.056,0.01-0.112,0.014-0.156,0.014c-0.454,0-0.927-0.206-1.17-0.35
			c0.108-0.233,0.17-0.496,0.17-0.754c0-0.985-0.804-1.774-1.784-1.776c-0.022,0-0.038,0.002-0.067,0.002
			c0.033-0.458-0.029-1.297-0.899-1.676c-0.251-0.119-0.502-0.162-0.743-0.162c-0.199,0-0.377,0.041-0.547,0.104
			c-0.185-0.359-0.482-0.618-0.876-0.739c-0.214-0.071-0.431-0.122-0.637-0.122c-0.365,0-0.701,0.114-0.996,0.314
			c-0.29-0.345-0.715-0.56-1.166-0.56c-0.403,0-0.786,0.156-1.071,0.448c-0.373-0.298-1.84-1.229-5.788-2.134
			c-0.192-0.028-0.629-0.175-0.905-0.247c-0.034,0.232-0.077,0.437-0.097,0.653c0,0,0.727,0.166,0.875,0.21
			c4.03,0.89,5.362,1.826,5.585,2.006c-0.075,0.188-0.116,0.366-0.118,0.581c0,0.832,0.682,1.516,1.518,1.516
			c0.089,0,0.18-0.01,0.272-0.033c0.125,0.618,0.521,1.075,1.145,1.311c0.172,0.065,0.353,0.114,0.532,0.114
			c0.118,0,0.232-0.02,0.34-0.06c0.124,0.299,0.373,0.664,0.946,0.894c0.192,0.079,0.392,0.103,0.589,0.103
			c0.166,0,0.314-0.004,0.455-0.083c0.282,0.664,0.927,1.119,1.654,1.119c0.478,0,0.938-0.206,1.274-0.538
			c0.287,0.166,0.89,0.443,1.514,0.445c0.079,0,0.148-0.008,0.222-0.02c0.608-0.077,0.892-0.309,1.023-0.5
			c0.022-0.015,0.04-0.062,0.062-0.092c0.139,0.038,0.305,0.083,0.48,0.083c0.332,0,0.654-0.122,0.979-0.355
			c0.315-0.226,0.545-0.558,0.572-0.84c0.001-0.002,0.003-0.008,0.003-0.014c0.103,0.029,0.223,0.045,0.327,0.045
			c0.343,0,0.683-0.116,0.999-0.33c0.624-0.415,0.729-0.929,0.729-1.286c0.101,0.033,0.208,0.041,0.326,0.041
			c0.318,0,0.627-0.093,0.935-0.296c0.388-0.245,0.611-0.617,0.648-1.052c0.026-0.312-0.049-0.606-0.209-0.869
			c1.043-0.439,3.423-1.311,6.22-1.934c-0.016-0.232-0.04-0.433-0.083-0.664C27.045,18.72,24.521,19.818,23.887,20.112z
			 M14.418,25.587c-0.664-0.002-1.196-0.518-1.218-1.166c-0.004-0.063-0.012-0.215-0.135-0.215c-0.059,0-0.093,0.039-0.146,0.075
			c-0.148,0.153-0.328,0.276-0.6,0.276c-0.124,0-0.257-0.034-0.393-0.085c-0.698-0.281-0.698-0.765-0.68-0.945
			c0.01-0.059,0.014-0.103-0.019-0.157l-0.049-0.022h-0.034c-0.049,0-0.083,0.014-0.132,0.038c-0.2,0.142-0.392,0.223-0.585,0.223
			c-0.113,0-0.22-0.029-0.328-0.081c-0.915-0.34-0.846-1.215-0.799-1.479c0.01-0.042-0.01-0.098-0.041-0.104l-0.067-0.07
			L9.137,21.95c-0.182,0.166-0.409,0.249-0.652,0.249c-0.533,0-0.956-0.415-0.956-0.938c0-0.533,0.425-0.964,0.958-0.964
			c0.465,0,0.868,0.365,0.933,0.828l0.026,0.257l0.143-0.204c0.016-0.033,0.4-0.612,1.103-0.612c0.142,0,0.282,0.031,0.413,0.057
			c0.567,0.177,0.658,0.688,0.676,0.913c0.014,0.113,0.103,0.123,0.114,0.123c0.048,0,0.083-0.04,0.113-0.048
			c0.103-0.118,0.336-0.313,0.699-0.313c0.166,0,0.346,0.055,0.521,0.134c0.899,0.37,0.492,1.516,0.492,1.516
			c-0.083,0.192-0.083,0.273-0.012,0.332h0.029h0.024c0.041,0,0.093,0,0.176-0.029c0.122-0.054,0.309-0.114,0.48-0.112l0,0
			c0.67,0.01,1.219,0.557,1.219,1.221C15.635,25.021,15.082,25.587,14.418,25.587z"/>
	</g>
	<g>
		<path fill="#060E9F" d="M84.152,12.626c-0.554-0.72-1.413-1.052-2.552-1.052c-1.145,0-1.998,0.332-2.556,1.052
			c-0.565,0.691-0.844,1.521-0.844,2.496c0,0.969,0.278,1.805,0.844,2.51c0.558,0.673,1.411,1.026,2.556,1.026
			c1.139,0,1.998-0.354,2.552-1.026C84.722,16.927,85,16.091,85,15.122C85,14.147,84.722,13.317,84.152,12.626z M82.769,16.65
			c-0.278,0.373-0.662,0.561-1.176,0.561c-0.512,0-0.897-0.188-1.178-0.561c-0.271-0.345-0.413-0.86-0.413-1.528
			s0.142-1.188,0.413-1.556c0.28-0.34,0.666-0.525,1.178-0.525c0.514,0,0.897,0.186,1.176,0.525
			c0.267,0.368,0.407,0.888,0.407,1.556S83.035,16.306,82.769,16.65z"/>
		<path fill="#060E9F" d="M69.798,12.035c-0.565-0.295-1.212-0.442-1.955-0.442c-1.124,0-1.915,0.312-2.385,0.895
			c-0.287,0.368-0.451,0.843-0.49,1.426h1.682c0.043-0.264,0.126-0.449,0.247-0.596c0.178-0.217,0.473-0.325,0.892-0.325
			c0.375,0,0.652,0.07,0.842,0.159c0.201,0.105,0.288,0.303,0.288,0.581c0,0.22-0.124,0.384-0.373,0.498
			c-0.135,0.056-0.374,0.094-0.696,0.15l-0.591,0.069c-0.684,0.087-1.205,0.224-1.547,0.435c-0.643,0.351-0.957,0.949-0.957,1.766
			c0,0.651,0.197,1.138,0.595,1.481c0.394,0.332,0.899,0.492,1.504,0.498c3.809,0.175,3.768-1.992,3.809-2.448V13.67
			C70.661,12.875,70.371,12.321,69.798,12.035z M68.918,15.834c-0.01,0.585-0.178,0.982-0.498,1.219
			c-0.328,0.214-0.674,0.332-1.059,0.332c-0.239,0-0.438-0.083-0.607-0.209c-0.17-0.123-0.253-0.352-0.253-0.641
			c0-0.332,0.135-0.583,0.409-0.737c0.164-0.101,0.431-0.18,0.805-0.239l0.394-0.083c0.197-0.033,0.354-0.083,0.476-0.116
			c0.107-0.05,0.218-0.104,0.334-0.172V15.834z"/>
		<path fill="#060E9F" d="M61.115,13.087c0.435,0,0.747,0.147,0.953,0.396c0.146,0.214,0.237,0.428,0.271,0.675h1.882
			c-0.105-0.93-0.438-1.59-0.992-1.982c-0.569-0.354-1.283-0.554-2.166-0.554c-1.032,0-1.854,0.312-2.436,0.948
			c-0.585,0.645-0.881,1.522-0.881,2.656c0,1.017,0.259,1.839,0.798,2.49c0.532,0.629,1.364,0.941,2.488,0.941
			c1.131,0,1.99-0.368,2.565-1.133c0.359-0.473,0.556-0.971,0.601-1.508h-1.877c-0.036,0.355-0.141,0.625-0.328,0.865
			c-0.174,0.208-0.48,0.328-0.917,0.328c-0.604,0-1.016-0.286-1.237-0.832c-0.117-0.313-0.176-0.695-0.176-1.18
			c0-0.516,0.059-0.923,0.176-1.226C60.074,13.393,60.491,13.087,61.115,13.087z"/>
		<path fill="#060E9F" d="M57.238,11.622c-3.858,0-3.641,3.423-3.641,3.423v3.469h1.759v-3.265c0-0.521,0.073-0.936,0.199-1.185
			c0.249-0.45,0.712-0.672,1.411-0.672c0.056,0,0.123,0.006,0.208,0.008c0.083,0,0.188,0,0.296,0.007V11.64
			c-0.075-0.008-0.132-0.01-0.149-0.014C57.299,11.624,57.271,11.622,57.238,11.622z"/>
		<path fill="#060E9F" d="M50.803,16.705c-0.069,0.099-0.145,0.182-0.233,0.265c-0.249,0.192-0.587,0.249-0.99,0.249
			c-0.375,0-0.664-0.051-0.925-0.219c-0.444-0.279-0.691-0.714-0.713-1.384h4.848c0.01-0.571-0.016-1.02-0.056-1.316
			c-0.083-0.531-0.255-0.982-0.535-1.397c-0.295-0.427-0.684-0.753-1.146-0.979c-0.465-0.19-0.982-0.301-1.56-0.301
			c-0.982,0-1.778,0.299-2.386,0.925c-0.606,0.604-0.919,1.504-0.919,2.65c0,1.228,0.339,2.104,1.019,2.668
			c0.672,0.534,1.46,0.816,2.342,0.816c1.069,0,1.907-0.32,2.51-0.965c0.316-0.342,0.518-0.68,0.603-1.012H50.803z M48.449,13.433
			c0.247-0.255,0.583-0.366,1.043-0.366c0.411,0,0.751,0.102,1.028,0.334c0.274,0.249,0.427,0.596,0.47,1.075h-3.004
			C48.042,14.035,48.202,13.688,48.449,13.433z"/>
		<g>
			<path fill="#060E9F" d="M45.484,18.514h-1.599v-4.034c0-0.363-0.117-1.245-1.178-1.245c-0.704,0-1.218,0.498-1.218,1.245v4.034
				h-1.599v-4.034c0-0.363-0.107-1.245-1.164-1.245c-0.718,0-1.216,0.498-1.216,1.245v4.034h-1.597V14.52
				c0-1.666,1.101-2.927,2.812-2.927c0.842,0,1.543,0.363,1.988,0.933c0.479-0.569,1.178-0.933,1.992-0.933
				c1.747,0,2.776,1.221,2.776,2.927V18.514z"/>
		</g>
		<path fill="#060E9F" d="M77.676,9.508c0,0-1.765-0.175-1.765,1.236v1.882c-0.19-0.307-0.447-0.554-0.768-0.731
			c-0.31-0.18-0.664-0.272-1.075-0.272c-0.875,0-1.569,0.324-2.091,0.969c-0.527,0.644-0.778,1.597-0.778,2.724
			c0,0.991,0.253,1.81,0.79,2.427c0.534,0.64,1.577,0.901,2.494,0.901c3.233,0,3.192-2.752,3.192-2.752V9.508z M75.576,16.672
			c-0.257,0.377-0.638,0.547-1.126,0.547c-0.492,0-0.859-0.17-1.093-0.551c-0.247-0.362-0.372-0.903-0.372-1.524
			c0-0.572,0.125-1.041,0.358-1.415c0.238-0.4,0.608-0.577,1.122-0.577c0.334,0,0.627,0.083,0.884,0.314
			c0.407,0.35,0.614,0.971,0.614,1.777C75.964,15.828,75.832,16.306,75.576,16.672z"/>
	</g>
	<g>
		<g>
			<path fill="#199BD8" d="M48.7,29.633c0,0.235-0.083,0.45-0.251,0.618c-0.172,0.166-0.374,0.249-0.613,0.249h-0.879v-6.089
				c0-1.193,0.399-1.933,1.053-2.435c0.436-0.33,1.081-0.643,2.295-0.643c0.812,0,1.774,0.312,2.293,0.948
				c0.581,0.71,0.82,1.494,0.82,2.532c0,1.067-0.254,1.938-0.768,2.601c-0.518,0.639-1.178,0.953-1.988,0.953
				c-0.419,0-0.802-0.073-1.132-0.22c-0.344-0.17-0.615-0.438-0.83-0.803V29.633z M51.646,24.888c0-0.658-0.132-1.168-0.39-1.526
				c-0.259-0.342-0.628-0.523-1.104-0.523c-0.468,0-0.822,0.182-1.083,0.523c-0.237,0.332-0.369,0.83-0.369,1.526
				c0,0.641,0.132,1.13,0.395,1.462c0.254,0.332,0.625,0.519,1.1,0.519c0.456,0,0.804-0.187,1.062-0.519
				C51.515,25.986,51.646,25.514,51.646,24.888"/>
			<path fill="#199BD8" d="M65.03,27.812v-0.435c-0.306,0.466-0.719,0.778-1.227,0.881c-0.517,0.131-1.028,0.083-1.526-0.114
				c-0.508-0.218-0.95-0.579-1.309-1.131c-0.359-0.557-0.545-1.272-0.545-2.164c0-1.066,0.237-1.903,0.722-2.567
				c0.481-0.653,1.255-0.937,2.314-0.978c1.053-0.019,1.657,0.225,2.255,0.658c0.649,0.494,1.039,1.257,1.039,2.45V28
				c0.004,1.133-0.796,3.247-3.294,3.071c-1.548-0.124-2.405-0.745-2.886-2.191h1.85c0.135,0.233,0.346,0.419,0.62,0.541
				c0.271,0.133,0.562,0.166,0.833,0.098c0.274-0.048,0.529-0.216,0.765-0.492C64.864,28.757,64.995,28.342,65.03,27.812
				 M62.149,24.89c0,1.17,0.334,1.811,1.004,1.956c0.678,0.111,1.176-0.043,1.492-0.496c0.16-0.166,0.265-0.466,0.328-0.855
				c0.073-0.394,0.081-0.805,0.016-1.189c-0.056-0.382-0.197-0.733-0.417-1.028c-0.22-0.321-0.54-0.472-0.967-0.472
				c-0.565,0-0.956,0.225-1.162,0.64C62.24,23.859,62.149,24.357,62.149,24.89"/>
			<path fill="#199BD8" d="M58.924,21.784c-0.567-0.272-1.214-0.415-1.957-0.415c-1.122,0-1.913,0.283-2.383,0.874
				c-0.289,0.371-0.453,0.863-0.492,1.448h1.684c0.045-0.261,0.126-0.479,0.247-0.624c0.178-0.204,0.473-0.297,0.89-0.297
				c0.377,0,0.653,0.04,0.844,0.154c0.199,0.104,0.29,0.277,0.29,0.56c0,0.216-0.126,0.382-0.375,0.496
				c-0.135,0.052-0.372,0.122-0.698,0.146l-0.587,0.064c-0.686,0.096-1.205,0.249-1.551,0.443c-0.641,0.379-0.955,0.968-0.955,1.794
				c0,0.621,0.195,1.107,0.597,1.457c0.392,0.35,0.896,0.486,1.502,0.525c3.811,0.172,3.768-2.016,3.807-2.477v-2.49
				C59.785,22.623,59.497,22.089,58.924,21.784 M58.046,25.603c-0.014,0.581-0.18,0.992-0.498,1.202
				c-0.328,0.209-0.676,0.328-1.061,0.328c-0.239,0-0.439-0.058-0.609-0.202c-0.168-0.128-0.251-0.332-0.251-0.647
				c0-0.336,0.135-0.581,0.411-0.737c0.162-0.099,0.431-0.178,0.803-0.233l0.393-0.075c0.198-0.05,0.354-0.073,0.475-0.133
				c0.109-0.025,0.218-0.083,0.338-0.166V25.603z"/>
			<path fill="#199BD8" d="M73.375,22.355c-0.556-0.721-1.417-1.069-2.554-1.069c-1.148,0-1.996,0.349-2.567,1.069
				c-0.557,0.687-0.832,1.517-0.832,2.494c0,0.971,0.275,1.807,0.832,2.496c0.571,0.687,1.419,1.04,2.567,1.04
				c1.137,0,1.998-0.354,2.554-1.04c0.565-0.689,0.846-1.525,0.846-2.496C74.221,23.872,73.94,23.042,73.375,22.355 M71.989,26.38
				c-0.278,0.373-0.664,0.551-1.174,0.551c-0.514,0-0.901-0.178-1.18-0.551c-0.272-0.362-0.411-0.862-0.411-1.53
				s0.139-1.184,0.411-1.555c0.278-0.349,0.666-0.524,1.18-0.524c0.51,0,0.896,0.176,1.174,0.524
				c0.269,0.371,0.409,0.887,0.409,1.555S72.258,26.018,71.989,26.38"/>
		</g>
	</g>
</g>
</svg>
