<?xml version="1.0" encoding="utf-8"?>
<!-- Generator: Adobe Illustrator 16.0.0, SVG Export Plug-In . SVG Version: 6.00 Build 0)  -->
<!DOCTYPE svg PUBLIC "-//W3C//DTD SVG 1.1//EN" "http://www.w3.org/Graphics/SVG/1.1/DTD/svg11.dtd">
<svg version="1.1" id="Capa_1" xmlns="http://www.w3.org/2000/svg" xmlns:xlink="http://www.w3.org/1999/xlink" x="0px" y="0px"
	 width="27.797px" height="40px" viewBox="0 0 27.797 40" enable-background="new 0 0 27.797 40" xml:space="preserve">
<g>
	<path fill-rule="evenodd" clip-rule="evenodd" fill="#FFFFFF" d="M27.367,24.501c-0.02-0.008-0.023-0.025-0.037-0.037v-0.682
		c0.004-0.053,0.01-0.104,0.01-0.158c0.002-5.617-0.002-11.234,0.002-16.852c0.002-0.924-0.652-2.062-1.75-2.387
		c-0.045-0.014-0.1-0.016-0.125-0.066l-0.012,0.008c-0.049-0.008-0.105,0.008-0.148-0.029c-0.082-0.033-0.184,0.023-0.258-0.051
		c-0.338,0-0.678,0-1.018,0c-0.352,0.08-0.701,0.176-1.057,0.236c-0.061,0.012-0.102,0.029-0.135,0.051L22.48,4.616
		c-0.025,0-0.057,0.004-0.094,0.016c-0.242,0.064-0.488,0.119-0.734,0.176L6.723,8.269C6.705,8.271,6.691,8.271,6.67,8.276
		C5.754,8.495,4.834,8.702,3.916,8.905c-0.043,0.01-0.074,0.023-0.104,0.039l-0.34,0.078c-0.02-0.006-0.041-0.006-0.076,0.004
		C2.848,9.175,2.275,9.239,1.748,9.46C0.965,9.792,0.359,10.278,0.1,11.089c-0.035,0.107-0.031,0.227-0.1,0.324
		c0,5.719,0,11.439,0,17.16c0.008,0.012,0.02,0.021,0.023,0.035c0.182,0.947,0.801,1.543,1.689,1.926
		c0.428,0.184,0.885,0.27,1.336,0.373l0,0l0.025,0.004c0.033,0.008,0.064,0.016,0.098,0.023c0.008,0.002,0.012,0.002,0.02,0.004
		l0.559,0.125c0.018,0.004,0.031,0.01,0.049,0.014c1.203,0.264,2.404,0.533,3.607,0.797l1.498,0.334
		c0.012,0.002,0.021,0.006,0.033,0.01c1.141,0.248,2.279,0.504,3.42,0.758c0.307,0.068,0.615,0.135,0.928,0.205l1.34,0.297
		c0.006,0.002,0.01,0.004,0.016,0.006c1.189,0.258,2.373,0.531,3.562,0.791c0.424,0.092,0.846,0.203,1.273,0.281l0.713,0.158
		c0.01,0.004,0.016,0.01,0.025,0.012c1.115,0.242,2.227,0.492,3.338,0.738c0.414,0.092,0.828,0.184,1.242,0.273
		c0.041,0,0.084,0,0.127,0c0.244-0.039,0.49-0.074,0.732-0.125c0.168-0.035,0.334-0.088,0.465-0.207
		c-0.002-0.004-0.004-0.006-0.006-0.01l0.18-0.107c0.004,0.004,0.004,0.008,0.006,0.012c0.09-0.027,0.16-0.08,0.227-0.143
		c0.572-0.539,0.801-1.225,0.805-1.961c0.02-2.664,0.01-5.328,0.012-7.992C27.342,24.97,27.33,24.733,27.367,24.501z"/>
	<path fill-rule="evenodd" clip-rule="evenodd" fill="#EA5B26" d="M24.795,35.737c-0.414-0.09-0.828-0.182-1.242-0.273
		c-1.111-0.246-2.223-0.496-3.338-0.738c-0.117-0.025-0.174-0.082-0.217-0.186c-0.998-2.311-1.863-4.664-2.609-7.059
		c-0.041-0.133-0.016-0.184,0.133-0.162c0.107,0.016,0.15-0.025,0.146-0.135c-0.016-0.424,0.01-0.848-0.018-1.273
		c-0.02-0.328-0.008-0.662,0.111-0.979c0.092-0.244,0.24-0.443,0.516-0.523c0.432-0.127,0.766,0.066,0.834,0.496
		c0.023,0.158,0.037,0.32,0.039,0.482c0.004,0.594,0.004,1.186-0.002,1.779c0,0.125,0.033,0.166,0.166,0.16
		c0.225-0.01,0.453-0.008,0.678,0c0.111,0.004,0.143-0.035,0.143-0.139c-0.004-0.756,0.002-1.512-0.006-2.266
		c-0.002-0.223-0.053-0.441-0.152-0.648c-0.166-0.334-0.436-0.541-0.818-0.604c-0.607-0.1-1.131,0.037-1.531,0.508
		c-0.018-0.021-0.029-0.031-0.029-0.039c-0.01-0.416-0.01-0.416-0.449-0.416c-0.211,0-0.424-0.004-0.635,0.004
		c-0.115,0.002-0.172-0.025-0.201-0.146c-0.412-1.686-0.764-3.381-1.055-5.09c-0.23-1.35-0.424-2.703-0.576-4.062
		c-0.137-1.207-0.24-2.416-0.318-3.625c-0.088-1.348-0.127-2.691-0.162-4.039c-0.004-0.16,0.033-0.23,0.213-0.27
		c1.168-0.262,2.33-0.535,3.494-0.809c0.139-0.033,0.191-0.031,0.207,0.129c0.084,0.947,0.176,1.893,0.275,2.836
		c0.139,1.32,0.33,2.635,0.539,3.947c0.346,2.145,0.777,4.27,1.287,6.383c0.09,0.367,0.186,0.734,0.275,1.1
		c0.035,0.139,0.029,0.281,0.02,0.42c-0.02,0.266,0.062,0.49,0.27,0.668c0.01,0.014,0.02,0.027,0.029,0.041l-0.002-0.004
		c0.01,0.061,0.014,0.121,0.031,0.18c0.203,0.713,0.404,1.428,0.617,2.139c0.039,0.131,0.021,0.172-0.121,0.162
		c-0.133-0.01-0.27,0.01-0.402-0.006c-0.184-0.02-0.219,0.053-0.219,0.215c0.008,1.334,0.006,2.67,0.004,4.004
		c0,0.107-0.016,0.217-0.027,0.322c-0.02,0.182-0.141,0.271-0.316,0.305c-0.062,0.012-0.127,0.008-0.188,0.021
		c-0.094,0.018-0.086,0.094-0.096,0.16c-0.01,0.061,0.006,0.092,0.076,0.115c0.672,0.225,1.35-0.143,1.494-0.807
		c0.078-0.361,0.039-0.727,0.043-1.09c0.006-0.822,0.002-1.646,0.002-2.471c0.057,0.076,0.088,0.154,0.113,0.236
		c0.939,2.943,2.045,5.828,3.336,8.648c0.314,0.689,0.643,1.377,0.963,2.064c-0.131,0.119-0.297,0.172-0.465,0.207
		c-0.242,0.051-0.488,0.086-0.732,0.125C24.879,35.737,24.836,35.737,24.795,35.737z"/>
	<path fill-rule="evenodd" clip-rule="evenodd" fill="#EA5B26" d="M0,11.413c0.012-0.102,0.008-0.279,0.043-0.387
		c0.258-0.811,0.922-1.234,1.705-1.566c0.527-0.221,1.1-0.285,1.648-0.434c0.119-0.029,0.121,0.02,0.1,0.117
		c-0.205,0.963-0.393,1.932-0.553,2.9c-0.205,1.244-0.371,2.492-0.49,3.748c-0.139,1.443-0.213,2.889-0.225,4.338
		c-0.018,1.807,0.07,3.609,0.258,5.406c0.186,1.764,0.471,3.512,0.861,5.246c0.043,0.188,0,0.195-0.176,0.152
		c-0.49-0.119-0.992-0.201-1.459-0.4c-0.889-0.383-1.525-0.932-1.707-1.879C0.004,28.642,0.008,28.585,0,28.573
		C0,22.853,0,17.132,0,11.413z"/>
	<path fill-rule="evenodd" clip-rule="evenodd" fill="#C51D21" d="M27.34,23.624c0.002-5.617-0.002-11.234,0.002-16.852
		c0.002-0.924-0.652-2.062-1.75-2.387c-0.045-0.014-0.43-0.074-0.455-0.123c0.082,0.012,0.498,0.068,0.582,0.086
		c1.209,0.256,2.078,1.311,2.078,2.529c0,8.629,0,17.256,0,25.883c0,0.385-0.031,0.768-0.125,1.145
		c-0.219,0.879-0.699,1.455-1.639,1.793c-0.088,0.031-0.34,0.09-0.459,0.09c-0.297,0-0.453-0.014-0.732-0.045
		c0.244-0.039,0.438-0.076,0.678-0.129c0.168-0.035,0.34-0.111,0.6-0.209c0.08-0.047,0.109-0.061,0.18-0.105
		c0.09-0.027,0.16-0.08,0.227-0.143c0.572-0.539,0.801-1.225,0.805-1.961c0.02-2.664,0.01-5.328,0.012-7.992
		C27.342,24.97,27.34,23.72,27.34,23.624z"/>
	<path fill-rule="evenodd" clip-rule="evenodd" fill="#EA5B26" d="M25.025,16.69c-0.391-1.5-0.748-3.008-1.057-4.527
		c-0.377-1.844-0.701-3.693-0.955-5.557c-0.084-0.607-0.158-1.215-0.248-1.822c-0.025-0.174,0.002-0.264,0.209-0.301
		c0.355-0.061,0.705-0.156,1.057-0.236c0.721-0.082,1.166,0,1.248,0.031c0.098,0.021,0.268,0.094,0.312,0.107
		c1.098,0.324,1.752,1.463,1.75,2.387c-0.004,5.617,0,11.234-0.002,16.852c0,0.096-0.006,0.221-0.012,0.314
		c-0.023-0.049-0.055-0.129-0.074-0.178c-0.344-0.932-0.678-1.867-0.975-2.812c-0.314-1.004-0.619-2.01-0.926-3.014
		c-0.004-0.08-0.01-0.162-0.006-0.24C25.365,17.323,25.375,16.956,25.025,16.69z"/>
	<path fill-rule="evenodd" clip-rule="evenodd" fill="#EA5B26" d="M19.789,34.608c-0.537-0.072-1.059-0.219-1.586-0.334
		c-1.189-0.26-2.373-0.533-3.562-0.791c-0.135-0.029-0.188-0.09-0.227-0.199c-0.994-2.727-1.791-5.502-2.408-8.326
		c-0.059-0.262-0.002-0.336,0.279-0.398c0.201-0.043,0.391,0.004,0.604,0.043c0-0.283-0.002-0.559,0.002-0.832
		c0.004-0.105-0.062-0.117-0.146-0.127c-0.393-0.043-0.684,0.111-0.914,0.463c-0.09-0.463-0.176-0.881-0.252-1.301
		c-0.279-1.584-0.51-3.17-0.674-4.766c-0.125-1.223-0.217-2.445-0.275-3.672c-0.086-1.73-0.09-3.463-0.059-5.193
		c0.01-0.561,0.049-1.119,0.064-1.678c0.004-0.104,0.051-0.141,0.143-0.162c1.041-0.238,2.084-0.479,3.123-0.721
		c0.184-0.043,0.123,0.086,0.125,0.152c0.02,0.641,0.025,1.281,0.047,1.92c0.051,1.447,0.145,2.893,0.281,4.336
		c0.143,1.504,0.33,3.002,0.559,4.496c0.357,2.32,0.832,4.619,1.42,6.895c0.881,3.418,2.016,6.758,3.416,10.014
		c0.023,0.055,0.062,0.109,0.049,0.174L19.789,34.608z M15.295,26.819c0.127,0.375,0.379,0.543,0.775,0.508
		c0.088-0.008,0.139-0.006,0.131-0.121c-0.049-0.752-0.041-1.508-0.059-2.262c-0.018-0.773-0.42-1.178-1.213-1.279
		c-0.508-0.064-0.996,0.01-1.479,0.154c-0.176,0.055-0.264,0.123-0.23,0.311c0.021,0.133,0.014,0.27,0.01,0.402
		c-0.004,0.146,0.023,0.186,0.172,0.096c0.395-0.234,0.82-0.354,1.291-0.271c0.35,0.062,0.539,0.271,0.559,0.613
		c0.006,0.092-0.02,0.135-0.125,0.133c-0.197-0.006-0.396-0.006-0.594,0c-0.396,0.014-0.789,0.053-1.146,0.236
		c-0.398,0.209-0.574,0.547-0.584,0.965c-0.01,0.406,0.18,0.713,0.547,0.918C13.998,27.585,14.736,27.44,15.295,26.819z"/>
	<path fill-rule="evenodd" clip-rule="evenodd" fill="#EA5B26" d="M7.23,25.53c-0.17-0.975-0.293-1.918-0.398-2.861
		c-0.146-1.299-0.244-2.604-0.295-3.91c-0.07-1.852-0.045-3.703,0.062-5.557c0.086-1.48,0.229-2.955,0.398-4.428
		c0.068-0.586,0.062-0.586,0.664-0.723c0.926-0.211,1.85-0.424,2.746-0.629c0,0.432,0.014,0.861-0.002,1.289
		c-0.039,1.004-0.045,2.008-0.033,3.012c0.012,0.836,0.025,1.672,0.064,2.508c0.084,1.842,0.244,3.684,0.484,5.516
		c0.168,1.283,0.375,2.561,0.619,3.832c0.029,0.15-0.016,0.172-0.15,0.166c-0.189-0.014-0.381-0.012-0.57-0.023
		c-0.109-0.004-0.146,0.031-0.146,0.139c0.002,1.113,0.002,2.225,0,3.338c0,0.096,0.031,0.131,0.131,0.129
		c0.234-0.006,0.469-0.008,0.701,0c0.123,0.006,0.154-0.037,0.152-0.148c-0.006-0.461-0.004-0.918-0.002-1.377
		c0-0.277,0.027-0.551,0.156-0.867c0.631,2.895,1.434,5.689,2.447,8.461c-0.658-0.146-1.281-0.281-1.902-0.42
		c-1.141-0.254-2.279-0.51-3.42-0.758c-0.16-0.035-0.227-0.102-0.271-0.254c-0.43-1.516-0.797-3.045-1.105-4.584
		c-0.006-0.033-0.004-0.066-0.008-0.107c0.727,0.254,1.355,0.174,1.852-0.428c0.07,0.01,0.049,0.072,0.064,0.109
		c0.139,0.303,0.475,0.457,0.805,0.369c0.07-0.016,0.072-0.055,0.066-0.102c-0.08-0.754-0.023-1.508-0.064-2.264
		c-0.055-1.021-0.648-1.254-1.346-1.309C8.432,23.61,7.947,23.69,7.479,23.86C7.377,23.896,7.34,23.937,7.35,24.05
		c0.02,0.213,0.006,0.428,0.006,0.682c0.332-0.209,0.641-0.344,0.988-0.389c0.191-0.025,0.383-0.016,0.566,0.029
		c0.303,0.074,0.492,0.348,0.471,0.641c-0.01,0.117-0.086,0.086-0.148,0.088c-0.381,0.002-0.762-0.008-1.141,0.057
		C7.781,25.21,7.5,25.323,7.23,25.53z"/>
	<path fill-rule="evenodd" clip-rule="evenodd" fill="#EA5B26" d="M20.479,19.261c-0.57-2.305-1.039-4.633-1.412-6.977
		c-0.273-1.725-0.488-3.457-0.658-5.193c-0.043-0.428-0.061-0.861-0.113-1.289c-0.02-0.166,0.037-0.219,0.191-0.254
		c1.049-0.242,2.096-0.486,3.141-0.732c0.256-0.061,0.508-0.117,0.76-0.184c0.131-0.037,0.184-0.023,0.201,0.123
		c0.465,3.945,1.191,7.848,2.189,11.701c0.014,0.051,0.025,0.104,0.037,0.156c-0.076,0.049-0.164,0.031-0.248,0.031
		c-1.094,0-2.188,0-3.283,0c-0.518,0-0.77,0.238-0.77,0.727c-0.002,0.562,0.002,1.121-0.002,1.68
		C20.512,19.12,20.543,19.2,20.479,19.261z"/>
	<path fill-rule="evenodd" clip-rule="evenodd" fill="#EA5B26" d="M5.699,25.903c-0.205-0.371-0.412-0.74-0.617-1.111
		c-0.402-0.727-0.807-1.451-1.203-2.182c-0.066-0.123-0.145-0.172-0.293-0.168C3.27,22.456,2.949,22.44,2.633,22.45
		c-0.143,0.004-0.199-0.033-0.205-0.178c-0.045-1.922-0.016-3.842,0.145-5.758c0.209-2.48,0.592-4.936,1.111-7.373
		c0.029-0.141,0.088-0.203,0.232-0.236c0.918-0.203,1.838-0.41,2.754-0.629c0.193-0.047,0.215,0.006,0.191,0.166
		c-0.184,1.342-0.312,2.691-0.404,4.043c-0.055,0.807-0.078,1.613-0.115,2.422c-0.041,0.936-0.037,1.873-0.016,2.811
		c0.033,1.482,0.111,2.961,0.271,4.436c0.031,0.295,0.035,0.295-0.277,0.295c-0.156,0-0.312,0.002-0.467-0.002
		c-0.09-0.002-0.125,0.033-0.125,0.119c0.006,0.809,0.01,1.619,0.01,2.428c0.004,0.299,0,0.602,0,0.898
		C5.727,25.897,5.713,25.901,5.699,25.903z"/>
	<path fill-rule="evenodd" clip-rule="evenodd" fill="#EA5B26" d="M8.52,32.116c-0.381-0.082-0.729-0.154-1.076-0.232
		c-1.215-0.268-2.428-0.543-3.645-0.807c-0.16-0.035-0.225-0.1-0.26-0.256c-0.234-1.068-0.432-2.143-0.604-3.221
		c-0.041-0.258-0.041-0.271,0.236-0.264c0.219,0.008,0.275-0.062,0.273-0.271c-0.014-1.039-0.006-2.078-0.006-3.117
		c0-0.064,0-0.129,0-0.193c0.014-0.006,0.025-0.01,0.039-0.012c0.102,0.184,0.205,0.371,0.305,0.559
		c0.514,0.959,1.027,1.916,1.537,2.879c0.059,0.115,0.131,0.15,0.26,0.146c0.34-0.008,0.678-0.01,1.018,0
		c0.146,0.006,0.188-0.035,0.188-0.178c-0.008-0.965-0.004-1.928-0.004-2.893c0-0.074,0-0.148,0-0.223
		C7.186,26.751,7.752,29.435,8.52,32.116z"/>
	<path fill-rule="evenodd" clip-rule="evenodd" fill="#98A1A9" d="M20.479,19.261c0.064-0.061,0.033-0.141,0.033-0.211
		c0.004-0.559,0-1.117,0.002-1.68c0-0.488,0.252-0.727,0.77-0.727c1.096,0,2.189,0,3.283,0c0.084,0,0.172,0.018,0.248-0.031
		c0.055,0.066,0.117,0.109,0.211,0.078c0.35,0.266,0.34,0.633,0.322,1.004c-0.004,0.078,0.002,0.16,0.006,0.24
		c-0.002,0.232-0.006,0.467-0.006,0.699c0,0.635-0.021,1.268,0.004,1.9c0.021,0.49-0.334,0.752-0.779,0.746
		c-1.092-0.012-2.184-0.002-3.277-0.004c-0.098,0-0.195-0.018-0.293-0.025c-0.066-0.008-0.121-0.066-0.193-0.045l0.002,0.004
		c-0.01-0.014-0.02-0.027-0.029-0.041c-0.207-0.178-0.289-0.402-0.27-0.668c0.01-0.139,0.016-0.281-0.02-0.42
		C20.535,19.808,20.521,19.534,20.479,19.261z M24.412,17.442L24.412,17.442c-0.119,0.004-0.154,0.127-0.254,0.164
		c-0.035-0.154-0.123-0.283-0.199-0.418c-0.111-0.197-0.285-0.205-0.438-0.029c-0.057,0.039-0.111,0.082-0.168,0.125
		c-0.033-0.012-0.068-0.02-0.096-0.037c-0.482-0.32-0.973-0.412-1.514-0.113c-0.365,0.203-0.541,0.508-0.627,0.879
		c-0.012,0.041,0.014,0.064,0.047,0.082c-0.02,0.037-0.039,0.078-0.059,0.117c-0.154,0.127-0.26,0.281-0.254,0.484
		c-0.072,0.152-0.057,0.291,0.033,0.434c0.52,0.84,1.725,1.068,2.541,0.521c0.059-0.041,0.166-0.057,0.162-0.141
		c-0.002-0.105-0.131-0.074-0.193-0.125c0-0.018,0.002-0.039,0.002-0.061c-0.002-0.027,0-0.053-0.008-0.078
		c-0.107-0.473,0.174-0.74,0.672-0.639c0.039,0.006,0.068,0.01,0.09-0.027c0.199-0.234,0.117-0.49,0.059-0.742
		c0.098,0.029,0.193,0.059,0.289,0.088c0.016,0.014,0.031,0.027,0.045,0.041c-0.012,0.273,0.035,0.551-0.068,0.816
		c-0.02,0.051-0.016,0.121-0.078,0.137c-0.088,0.02-0.064-0.072-0.092-0.109c-0.037-0.049-0.055-0.109-0.129-0.125
		c-0.078,0.262-0.203,0.498-0.4,0.695c-0.027,0.027-0.08,0.045-0.057,0.094c0.02,0.043,0.074,0.021,0.111,0.031
		c0.092,0.023,0.174-0.057,0.279-0.014c-0.074,0.146-0.209,0.23-0.322,0.336c-0.133,0.123-0.336,0.162-0.432,0.328
		c-0.193-0.127-0.322-0.047-0.424,0.121c-0.328,0.037-0.656,0.064-0.984,0c-0.326-0.092-0.646-0.193-0.879-0.451
		c-0.154-0.209-0.23-0.449-0.322-0.721c-0.035,0.299-0.002,0.443,0.15,0.727c0.141,0.307,0.311,0.596,0.635,0.764
		c0.027,0.059,0.064,0.117,0.135,0.111c0.254-0.025,0.441,0.158,0.715,0.166c-0.066,0.053-0.102,0.08-0.15,0.119
		c0.711,0.191,1.361,0.105,1.957-0.285c0.277-0.182,0.531-0.396,0.648-0.719l0,0c0.057-0.02,0.086-0.061,0.08-0.121
		c0.066-0.082,0.074-0.186,0.105-0.277c0.172-0.322,0.135-0.67,0.086-1.004c-0.037-0.23-0.08-0.477-0.271-0.656
		c-0.047-0.219-0.268-0.314-0.383-0.486C24.441,17.413,24.428,17.411,24.412,17.442z"/>
	<path fill-rule="evenodd" clip-rule="evenodd" fill="#EA5B26" d="M9.006,25.665c0.006,0,0.014,0,0.021,0
		c0.396,0,0.416,0.025,0.316,0.395c-0.129,0.465-0.496,0.707-0.994,0.652c-0.244-0.029-0.418-0.154-0.459-0.332
		c-0.049-0.211,0.049-0.434,0.258-0.553C8.41,25.675,8.709,25.667,9.006,25.665z"/>
	<path fill-rule="evenodd" clip-rule="evenodd" fill="#EA5B26" d="M19.797,34.601"/>
	<path fill-rule="evenodd" clip-rule="evenodd" fill="#FFFBFA" d="M20.781,21.169c0.01,0.014,0.02,0.027,0.029,0.041
		C20.801,21.196,20.791,21.183,20.781,21.169z"/>
	<path fill-rule="evenodd" clip-rule="evenodd" fill="#EA5B26" d="M25.348,18.634c0.201,0.525,0.334,1.066,0.5,1.6
		c0.434,1.379,1.451,4.174,1.496,4.262c0,0.242-0.002,0.475-0.002,0.709c-0.002,2.664,0.008,5.328-0.012,7.992
		c-0.004,0.736-0.232,1.422-0.805,1.961c-0.066,0.062-0.137,0.115-0.227,0.143c-0.697-1.373-1.322-2.781-1.92-4.197
		c-0.488-1.162-0.943-2.334-1.375-3.518c-0.064-0.176-0.029-0.199,0.15-0.184c0.539,0.045,0.977-0.145,1.301-0.574
		c0.172,0.334,0.434,0.504,0.811,0.498c0.086-0.002,0.127-0.014,0.117-0.111c-0.074-0.754-0.016-1.51-0.061-2.264
		c-0.055-0.855-0.486-1.254-1.398-1.307c-0.473-0.027-0.926,0.055-1.371,0.201c-0.121,0.039-0.182,0.096-0.164,0.234
		c0.025,0.199,0.023,0.4,0.035,0.625c0.131-0.066,0.248-0.131,0.369-0.188c0.346-0.156,0.705-0.229,1.088-0.158
		c0.336,0.062,0.527,0.281,0.541,0.607c0.004,0.107-0.033,0.137-0.141,0.137c-0.326-0.002-0.652-0.014-0.975,0.027
		c-0.326,0.043-0.641,0.111-0.902,0.312c-0.109,0.084-0.131,0.037-0.162-0.059c-0.449-1.369-0.875-2.742-1.24-4.133
		c0.098,0.008,0.195,0.025,0.293,0.025c1.094,0.002,2.186-0.008,3.277,0.004c0.445,0.006,0.801-0.256,0.779-0.746
		C25.326,19.901,25.348,19.269,25.348,18.634z"/>
	<path fill-rule="evenodd" clip-rule="evenodd" fill="#D6DDE0" d="M21.105,18.212c0.02-0.039,0.039-0.08,0.059-0.117
		c0.172-0.086,0.311-0.221,0.494-0.287c0.252-0.045,0.529-0.119,0.746,0.006c0.361,0.209,0.523,0.02,0.686-0.23
		c0.004-0.006,0.006-0.014,0.008-0.02c0.055-0.074,0.109-0.148,0.213-0.162c0.297,0.311,0.369,0.684,0.338,1.086
		c-0.256,0.094-0.375,0.275-0.387,0.533c-0.07,0.01-0.129,0.045-0.188,0.084c-0.172,0.109-0.354,0.189-0.568,0.16
		c0.014-0.082,0.057-0.158,0.041-0.244c0.029-0.15-0.051-0.264-0.137-0.377c-0.008-0.012-0.02-0.02-0.031-0.025l-0.002-0.002
		c-0.027-0.014-0.057-0.027-0.084-0.041l0.002,0.002c-0.273-0.234-0.738-0.041-0.809,0.322c-0.168,0.008-0.193-0.127-0.252-0.227
		C21.152,18.528,21.176,18.356,21.105,18.212z"/>
	<path fill-rule="evenodd" clip-rule="evenodd" fill="#727D83" d="M24.836,17.931c0.191,0.18,0.234,0.426,0.271,0.656
		c0.049,0.334,0.086,0.682-0.086,1.004c-0.02-0.002-0.039-0.004-0.061-0.006c0.119-0.348,0.219-0.695,0.02-1.049
		c0.004,0.346-0.014,0.684-0.146,1.01c-0.033,0.08-0.094,0.154-0.08,0.246V19.79c-0.014,0.014-0.029,0.027-0.043,0.043v-0.002
		c-0.033,0.016-0.041,0.047-0.043,0.078c-0.385,0.334-0.824,0.416-1.312,0.248c0.096-0.166,0.299-0.205,0.432-0.328
		c0.113-0.105,0.248-0.189,0.322-0.336c-0.105-0.043-0.188,0.037-0.279,0.014c-0.037-0.01-0.092,0.012-0.111-0.031
		c-0.023-0.049,0.029-0.066,0.057-0.094c0.197-0.197,0.322-0.434,0.4-0.695c0.074,0.016,0.092,0.076,0.129,0.125
		c0.027,0.037,0.004,0.129,0.092,0.109c0.062-0.016,0.059-0.086,0.078-0.137c0.104-0.266,0.057-0.543,0.068-0.816
		c0.145,0.088,0.236,0.227,0.367,0.35C24.938,18.163,24.803,18.063,24.836,17.931z"/>
	<path fill-rule="evenodd" clip-rule="evenodd" fill="#727D83" d="M21.947,20.278c0.328,0.064,0.656,0.037,0.984,0
		c-0.07,0.203-0.248,0.322-0.391,0.467c-0.025,0.029-0.07,0.057-0.059,0.102c0.016,0.049,0.066,0.035,0.107,0.037
		c0.578,0.045,1.098-0.096,1.553-0.447c0.217-0.168,0.43-0.344,0.693-0.447c-0.117,0.322-0.371,0.537-0.648,0.719
		c-0.596,0.391-1.246,0.477-1.957,0.285c0.049-0.039,0.084-0.066,0.15-0.119c-0.273-0.008-0.461-0.191-0.715-0.166
		c-0.07,0.006-0.107-0.053-0.135-0.111C21.67,20.491,21.809,20.384,21.947,20.278z"/>
	<path fill-rule="evenodd" clip-rule="evenodd" fill="#BDC5CB" d="M21.105,18.212c0.07,0.145,0.047,0.316,0.129,0.461
		c0.059,0.1,0.084,0.234,0.252,0.227c0.012,0.156-0.021,0.326,0.129,0.445l0,0c0.014,0.012,0.027,0.023,0.041,0.035
		c0.309,0.221,0.609,0.176,0.803-0.115c0.014,0,0.031,0,0.047,0c0.215,0.029,0.396-0.051,0.568-0.16
		c0.059-0.039,0.117-0.074,0.188-0.084c0.018,0.111,0.035,0.225,0.135,0.305c0,0.021-0.002,0.043-0.002,0.061
		c-0.023,0.025-0.043,0.055-0.07,0.074c-0.322,0.232-0.693,0.271-1.082,0.252c-0.316-0.018-0.578-0.133-0.82-0.324
		c-0.244-0.193-0.379-0.461-0.57-0.691C20.846,18.493,20.951,18.339,21.105,18.212z"/>
	<path fill-rule="evenodd" clip-rule="evenodd" fill="#56636B" d="M24.836,19.989c-0.264,0.104-0.477,0.279-0.693,0.447
		c-0.455,0.352-0.975,0.492-1.553,0.447c-0.041-0.002-0.092,0.012-0.107-0.037c-0.012-0.045,0.033-0.072,0.059-0.102
		c0.143-0.145,0.32-0.264,0.391-0.467c0.102-0.168,0.23-0.248,0.424-0.121c0.488,0.168,0.928,0.086,1.312-0.248
		c0.033-0.016,0.047-0.043,0.043-0.078v0.002c0.014-0.016,0.029-0.029,0.043-0.043v0.002c0.102-0.037,0.123-0.15,0.207-0.207
		c0.021,0.002,0.041,0.004,0.061,0.006c-0.031,0.092-0.039,0.195-0.105,0.277C24.836,19.878,24.834,19.933,24.836,19.989
		L24.836,19.989z"/>
	<path fill-rule="evenodd" clip-rule="evenodd" fill="#AEB9C0" d="M23.311,17.401c-0.104,0.014-0.158,0.088-0.213,0.162
		c-0.057-0.021-0.121-0.035-0.17-0.066c-0.266-0.176-0.555-0.18-0.84-0.086c-0.195,0.064-0.387,0.166-0.43,0.396
		c-0.184,0.066-0.322,0.201-0.494,0.287c-0.033-0.018-0.059-0.041-0.047-0.082c0.086-0.371,0.262-0.676,0.627-0.879
		c0.541-0.299,1.031-0.207,1.514,0.113c0.027,0.018,0.062,0.025,0.096,0.037C23.34,17.323,23.326,17.362,23.311,17.401z"/>
	<path fill-rule="evenodd" clip-rule="evenodd" fill="#AEB9C0" d="M20.852,18.696c0.191,0.23,0.326,0.498,0.57,0.691
		c0.242,0.191,0.504,0.307,0.82,0.324c0.389,0.02,0.76-0.02,1.082-0.252c0.027-0.02,0.047-0.049,0.07-0.074
		c0.062,0.051,0.191,0.02,0.193,0.125c0.004,0.084-0.104,0.1-0.162,0.141c-0.816,0.547-2.021,0.318-2.541-0.521
		C20.795,18.987,20.779,18.849,20.852,18.696z"/>
	<path fill-rule="evenodd" clip-rule="evenodd" fill="#BDC5CB" d="M23.311,17.401c0.016-0.039,0.029-0.078,0.043-0.117
		c0.057-0.043,0.111-0.086,0.168-0.125c0.041,0.035,0.086,0.068,0.121,0.109c0.324,0.354,0.377,0.777,0.346,1.225
		c-0.113-0.004-0.225-0.033-0.34-0.006C23.68,18.085,23.607,17.712,23.311,17.401z"/>
	<path fill-rule="evenodd" clip-rule="evenodd" fill="#AEB9C0" d="M23.988,18.493c0.031-0.447-0.021-0.871-0.346-1.225
		c-0.035-0.041-0.08-0.074-0.121-0.109c0.152-0.176,0.326-0.168,0.438,0.029c0.076,0.135,0.164,0.264,0.199,0.418
		c-0.037,0.059-0.158,0.066-0.143,0.146c0.016,0.078,0.125,0.029,0.178,0.074c0.006,0.004,0.012,0.008,0.016,0.012
		c0.059,0.252,0.141,0.508-0.059,0.742C24.096,18.55,24.043,18.522,23.988,18.493z"/>
	<path fill-rule="evenodd" clip-rule="evenodd" fill="#56636B" d="M21.947,20.278c-0.139,0.105-0.277,0.213-0.416,0.318
		c-0.324-0.168-0.494-0.457-0.635-0.764c0.057-0.002,0.115-0.004,0.172-0.006C21.301,20.085,21.621,20.187,21.947,20.278z"/>
	<path fill-rule="evenodd" clip-rule="evenodd" fill="#56636B" d="M24.836,17.931c-0.033,0.133,0.102,0.232,0.074,0.387
		c-0.131-0.123-0.223-0.262-0.367-0.35c-0.014-0.014-0.029-0.027-0.045-0.041c0.025-0.17-0.035-0.326-0.086-0.484l0,0l0.021,0.002
		h0.02C24.568,17.616,24.789,17.712,24.836,17.931z"/>
	<path fill-rule="evenodd" clip-rule="evenodd" fill="#56636B" d="M23.988,18.493c0.055,0.029,0.107,0.057,0.162,0.088
		c-0.021,0.037-0.051,0.033-0.09,0.027c-0.498-0.102-0.779,0.166-0.672,0.639c0.008,0.025,0.006,0.051,0.008,0.078
		c-0.1-0.08-0.117-0.193-0.135-0.305c0.012-0.258,0.131-0.439,0.387-0.533C23.764,18.46,23.875,18.489,23.988,18.493z"/>
	<path fill-rule="evenodd" clip-rule="evenodd" fill="#727D83" d="M24.412,17.442c0.051,0.158,0.111,0.314,0.086,0.484
		c-0.096-0.029-0.191-0.059-0.289-0.088c-0.004-0.004-0.01-0.008-0.016-0.012c-0.053-0.045-0.162,0.004-0.178-0.074
		c-0.016-0.08,0.105-0.088,0.143-0.146C24.258,17.569,24.293,17.446,24.412,17.442z"/>
	<path fill-rule="evenodd" clip-rule="evenodd" fill="#727D83" d="M21.068,19.827c-0.057,0.002-0.115,0.004-0.172,0.006
		c-0.152-0.283-0.186-0.428-0.15-0.727C20.838,19.378,20.914,19.618,21.068,19.827z"/>
	<path fill-rule="evenodd" clip-rule="evenodd" fill="#727D83" d="M24.836,19.989c-0.002-0.057,0-0.111,0.08-0.121
		C24.922,19.929,24.893,19.97,24.836,19.989z"/>
	<path fill-rule="evenodd" clip-rule="evenodd" fill="#727D83" d="M24.453,17.444h-0.02l-0.021-0.002
		C24.428,17.411,24.441,17.413,24.453,17.444z"/>
	<path fill-rule="evenodd" clip-rule="evenodd" fill="#EA5B26" d="M23.93,25.665c0.537,0,0.557,0.025,0.449,0.41
		c-0.127,0.461-0.533,0.713-1.023,0.631c-0.195-0.033-0.363-0.117-0.416-0.32c-0.057-0.207,0.035-0.424,0.229-0.543
		C23.441,25.673,23.752,25.669,23.93,25.665z"/>
	<path fill-rule="evenodd" clip-rule="evenodd" fill="#EA5B26" d="M14.877,25.665c0.426,0,0.439,0.02,0.33,0.416
		c-0.121,0.434-0.492,0.676-0.971,0.631c-0.26-0.023-0.428-0.141-0.477-0.332c-0.055-0.219,0.051-0.439,0.273-0.564
		C14.213,25.714,14.488,25.665,14.877,25.665z"/>
	<path fill-rule="evenodd" clip-rule="evenodd" fill="#BDC5CB" d="M21.658,17.808c0.043-0.23,0.234-0.332,0.43-0.396
		c0.285-0.094,0.574-0.09,0.84,0.086c0.049,0.031,0.113,0.045,0.17,0.066c-0.002,0.006-0.004,0.014-0.008,0.02
		c-0.162,0.25-0.324,0.439-0.686,0.23C22.188,17.688,21.91,17.763,21.658,17.808z"/>
	<path fill-rule="evenodd" clip-rule="evenodd" fill="#BDC5CB" d="M22.41,18.644c0.086,0.113,0.166,0.227,0.137,0.377
		c-0.326,0.041-0.588-0.096-0.826-0.287c0.143-0.211,0.365-0.162,0.574-0.156l-0.002-0.002c0.016,0.035,0.053,0.035,0.084,0.041
		l0.002,0.002C22.389,18.626,22.4,18.634,22.41,18.644z"/>
	<path fill-rule="evenodd" clip-rule="evenodd" fill="#AEB9C0" d="M21.721,18.733c0.238,0.191,0.5,0.328,0.826,0.287
		c0.016,0.086-0.027,0.162-0.041,0.244c-0.016,0-0.033,0-0.047,0c-0.334,0.006-0.605-0.139-0.859-0.322
		C21.607,18.854,21.646,18.784,21.721,18.733z"/>
	<path fill-rule="evenodd" clip-rule="evenodd" fill="#727D83" d="M21.721,18.733c-0.074,0.051-0.113,0.121-0.121,0.207
		c-0.086,0.139,0.031,0.271,0.016,0.404c-0.15-0.119-0.117-0.289-0.129-0.445c0.07-0.363,0.535-0.557,0.809-0.322
		C22.086,18.571,21.863,18.522,21.721,18.733z"/>
	<path fill-rule="evenodd" clip-rule="evenodd" fill="#727D83" d="M22.377,18.616c-0.031-0.006-0.068-0.006-0.084-0.041
		C22.32,18.589,22.35,18.603,22.377,18.616z"/>
	<path fill-rule="evenodd" clip-rule="evenodd" fill="#727D83" d="M22.41,18.644c-0.01-0.01-0.021-0.018-0.031-0.025
		C22.391,18.624,22.402,18.632,22.41,18.644z"/>
	<path fill-rule="evenodd" clip-rule="evenodd" fill="#98A1A9" d="M24.961,19.585c-0.084,0.057-0.105,0.17-0.207,0.207
		c-0.014-0.092,0.047-0.166,0.08-0.246c0.133-0.326,0.15-0.664,0.146-1.01C25.18,18.89,25.08,19.237,24.961,19.585z"/>
	<path fill-rule="evenodd" clip-rule="evenodd" fill="#98A1A9" d="M24.711,19.831c0.004,0.035-0.01,0.062-0.043,0.078
		C24.67,19.878,24.678,19.847,24.711,19.831z"/>
	<path fill-rule="evenodd" clip-rule="evenodd" fill="#98A1A9" d="M24.754,19.79c-0.014,0.014-0.029,0.027-0.043,0.043
		C24.725,19.817,24.74,19.804,24.754,19.79z"/>
	<path fill-rule="evenodd" clip-rule="evenodd" fill="#98A1A9" d="M21.615,19.345c0.016-0.133-0.102-0.266-0.016-0.404
		c0.254,0.186,0.525,0.33,0.859,0.324c-0.193,0.291-0.494,0.336-0.803,0.115C21.643,19.368,21.629,19.356,21.615,19.345
		L21.615,19.345z"/>
	<path fill-rule="evenodd" clip-rule="evenodd" fill="#727D83" d="M21.615,19.345c0.014,0.012,0.027,0.023,0.041,0.035
		C21.643,19.368,21.629,19.356,21.615,19.345z"/>
</g>
</svg>
