<?xml version="1.0" encoding="utf-8"?>
<!-- Generator: Adobe Illustrator 16.0.0, SVG Export Plug-In . SVG Version: 6.00 Build 0)  -->
<!DOCTYPE svg PUBLIC "-//W3C//DTD SVG 1.1//EN" "http://www.w3.org/Graphics/SVG/1.1/DTD/svg11.dtd">
<svg version="1.1" id="Capa_1" xmlns="http://www.w3.org/2000/svg" xmlns:xlink="http://www.w3.org/1999/xlink" x="0px" y="0px"
	 width="64.137px" height="40px" viewBox="0 0 64.137 40" enable-background="new 0 0 64.137 40" xml:space="preserve">
<g>
	<path fill-rule="evenodd" clip-rule="evenodd" fill="#F6BF0E" d="M8.537,24.78c-0.302,0.225-0.559,0.498-0.835,0.749
		c-1.019,0.931-2.031,1.872-3.052,2.809c-0.042,0.039-0.088,0.079-0.147,0.104c0.13-0.268,0.295-0.511,0.448-0.76
		c0.155-0.249,0.315-0.496,0.475-0.743c0.157-0.258,0.318-0.511,0.48-0.764c0.157-0.249,0.315-0.496,0.472-0.745
		c0.16-0.256,0.321-0.511,0.482-0.764c0.156-0.245,0.309-0.49,0.481-0.763c-0.122,0.002-0.18,0.05-0.24,0.085
		c-1.484,0.79-2.972,1.581-4.458,2.367c-0.086,0.047-0.164,0.128-0.279,0.108l0.004,0.008c0.022-0.077,0.088-0.116,0.142-0.161
		c1.226-1.122,2.454-2.242,3.679-3.362c0.057-0.054,0.132-0.093,0.148-0.184c-0.072-0.024-0.134,0.004-0.197,0.021
		c-1.73,0.43-3.459,0.859-5.188,1.29c-0.028,0.006-0.06,0-0.088,0c0.002-0.012,0.002-0.024,0.002-0.034
		c1.022-0.542,2.048-1.086,3.071-1.627c0.548-0.286,1.095-0.575,1.641-0.862c0.068-0.038,0.144-0.06,0.212-0.142
		c-1.931,0-3.837,0-5.739,0c0.017-0.016-0.011,0.016-0.011-0.016c-0.005-0.004,0.003-0.017,0.003-0.017
		c1.842-0.452,3.68-0.905,5.525-1.399C3.712,19.53,1.855,19.073,0,18.623c0.002-0.011,0.004-0.021,0.006-0.029
		c1.922,0,3.842,0,5.763,0c0.004-0.013,0.008-0.022,0.015-0.037c-1.647-0.864-3.294-1.733-4.939-2.601
		c0.005-0.012,0.009-0.028,0.016-0.042c1.823,0.44,3.642,0.903,5.479,1.352c-0.019-0.117-0.094-0.156-0.15-0.208
		c-1.217-1.111-2.431-2.224-3.647-3.335c-0.062-0.06-0.145-0.101-0.173-0.191l-0.004,0.007c0.09-0.021,0.149,0.04,0.22,0.08
		c1.488,0.788,2.973,1.58,4.464,2.371c0.062,0.037,0.132,0.062,0.197,0.093c0.019,0.004,0.043,0.019,0.05,0.013
		c0.026-0.023,0.008-0.043-0.011-0.062c-0.311-0.498-0.62-1.001-0.935-1.499c-0.587-0.931-1.178-1.861-1.765-2.794
		c-0.037-0.062-0.095-0.115-0.099-0.195l-0.002,0.004c0.082,0.002,0.124,0.074,0.175,0.121c1.227,1.133,2.461,2.267,3.692,3.403
		c0.057,0.054,0.108,0.117,0.184,0.148c0.012,0.015,0.02,0.037,0.04,0.019c0.014-0.015,0.002-0.033-0.013-0.048
		c-0.093-0.422-0.232-0.829-0.354-1.243c-0.343-1.18-0.693-2.362-1.041-3.541c-0.023-0.077-0.062-0.15-0.031-0.232L7.132,10.18
		c0.088,0.052,0.117,0.146,0.167,0.224c0.855,1.365,1.711,2.73,2.565,4.096c0.045,0.067,0.076,0.144,0.172,0.225
		c0.014-1.796-0.022-3.558-0.014-5.329c0.067,0.042,0.065,0.111,0.085,0.171c0.456,1.573,0.909,3.15,1.369,4.722
		c0.03,0.11,0.034,0.214,0.01,0.325c-0.229,1.072-0.385,2.155-0.478,3.249c-0.113,1.329-0.115,2.659-0.024,3.99
		c0.08,1.182,0.249,2.354,0.496,3.512c0.026,0.117,0.032,0.226-0.004,0.346c-0.458,1.573-0.913,3.148-1.369,4.721
		c-0.02,0.062-0.016,0.132-0.079,0.174c0-1.766,0-3.525,0-5.302c-0.076,0.026-0.097,0.094-0.128,0.146
		c-0.862,1.378-1.725,2.755-2.587,4.132c-0.054,0.085-0.089,0.186-0.182,0.243l0.004,0.002c-0.034-0.107,0.022-0.197,0.052-0.297
		c0.438-1.5,0.883-3.003,1.328-4.506c0.018-0.07,0.031-0.145,0.047-0.212c0.015-0.015,0.026-0.033,0.013-0.05
		C8.555,24.746,8.547,24.766,8.537,24.78z"/>
	<path fill-rule="evenodd" clip-rule="evenodd" fill="#0A4680" d="M62.602,24.264c-0.069-0.004-0.088,0.056-0.116,0.091
		c-0.605,0.768-1.404,1.217-2.355,1.396c-0.699,0.134-1.401,0.145-2.103-0.028c-1.164-0.282-2.052-1.105-2.278-2.515
		c-0.087-0.532-0.076-1.068,0.03-1.599c0.186-0.917,0.691-1.59,1.512-2.035c0.489-0.265,1.02-0.418,1.563-0.522
		c0.678-0.134,1.368-0.177,2.058-0.217c0.458-0.02,0.91-0.034,1.367-0.053c0.043-0.003,0.089-0.005,0.134-0.009
		c0.079-0.004,0.117-0.038,0.117-0.123c-0.004-0.595,0.027-1.194-0.084-1.783c-0.182-0.933-0.684-1.438-1.622-1.626
		c-0.593-0.117-1.187-0.104-1.769,0.058c-0.215,0.058-0.416,0.144-0.605,0.264c-0.496,0.311-0.76,0.764-0.81,1.344
		c-0.016,0.208,0.017,0.208-0.229,0.208c-0.389-0.002-0.782,0-1.171-0.002c-0.193,0-0.191-0.002-0.167-0.199
		c0.155-1.315,0.916-2.118,2.137-2.539c0.525-0.179,1.068-0.261,1.626-0.275c0.653-0.02,1.306-0.009,1.95,0.142
		c0.229,0.054,0.453,0.126,0.667,0.222c0.886,0.396,1.363,1.086,1.501,2.031c0.035,0.232,0.046,0.467,0.046,0.701
		c0,2.201,0,4.399,0.008,6.602c0.002,0.521,0.05,1.041,0.109,1.561c0.004,0.042,0.004,0.088,0.015,0.132
		c0.018,0.111-0.026,0.14-0.132,0.138c-0.343-0.004-0.68,0.002-1.015-0.002c-0.118-0.002-0.262,0.054-0.341-0.036
		c-0.065-0.073-0.018-0.209-0.018-0.32c-0.007-0.282,0-0.561-0.005-0.84C62.621,24.373,62.646,24.312,62.602,24.264z M62.526,21.017
		h0.002c0.002-0.339,0-0.678,0.004-1.015c0-0.107-0.022-0.159-0.146-0.156c-0.844,0.022-1.69,0.019-2.53,0.136
		c-0.502,0.072-0.994,0.189-1.45,0.431c-0.532,0.283-0.901,0.704-1.051,1.292c-0.147,0.562-0.13,1.122,0.059,1.675
		c0.254,0.734,0.765,1.188,1.532,1.329c0.819,0.153,1.581-0.016,2.267-0.487c0.778-0.537,1.254-1.271,1.31-2.233
		C62.541,21.664,62.526,21.34,62.526,21.017z"/>
	<path fill-rule="evenodd" clip-rule="evenodd" fill="#0A4680" d="M34.771,24.258c-0.091,0.014-0.111,0.067-0.14,0.107
		c-0.612,0.768-1.411,1.21-2.364,1.387c-0.699,0.132-1.403,0.146-2.102-0.032c-1.213-0.313-1.952-1.094-2.228-2.308
		c-0.14-0.62-0.132-1.244,0.004-1.861c0.214-0.967,0.787-1.643,1.672-2.065c0.614-0.29,1.262-0.433,1.93-0.521
		c0.942-0.13,1.892-0.138,2.841-0.183c0.296-0.011,0.296-0.009,0.296-0.303c-0.004-0.418,0.013-0.836-0.035-1.256
		c-0.022-0.204-0.056-0.405-0.111-0.607c-0.199-0.725-0.672-1.176-1.399-1.347c-0.65-0.147-1.302-0.144-1.943,0.031
		c-0.142,0.041-0.278,0.097-0.412,0.162c-0.613,0.305-0.943,0.803-0.987,1.48c-0.016,0.197-0.05,0.171-0.178,0.171
		c-0.412-0.002-0.821,0-1.235-0.002c-0.163,0-0.167-0.002-0.147-0.173c0.098-1.038,0.606-1.806,1.524-2.304
		c0.457-0.247,0.949-0.397,1.462-0.465c0.908-0.126,1.817-0.126,2.72,0.069c0.256,0.056,0.494,0.14,0.729,0.249
		c0.825,0.39,1.284,1.051,1.43,1.938c0.042,0.235,0.05,0.467,0.05,0.704c0,2.133-0.004,4.268,0.004,6.4
		c0.002,0.62,0.054,1.233,0.12,1.852c0.029,0.273,0.031,0.241-0.216,0.241c-0.369,0.002-0.735,0.002-1.104,0
		c-0.175,0-0.177-0.002-0.179-0.184c0-0.319,0-0.634,0-0.951C34.771,24.419,34.771,24.344,34.771,24.258z M34.671,21.029
		c0,0,0.006,0,0.01,0c0-0.34,0-0.677,0-1.018c-0.004-0.157-0.004-0.164-0.154-0.159c-0.836,0.014-1.673,0.014-2.506,0.127
		c-0.55,0.078-1.082,0.208-1.566,0.492c-0.509,0.298-0.84,0.73-0.967,1.307c-0.114,0.503-0.105,1.012,0.044,1.504
		c0.241,0.786,0.758,1.286,1.576,1.428c1.019,0.178,1.903-0.112,2.657-0.811c0.521-0.483,0.841-1.081,0.899-1.791
		C34.695,21.75,34.671,21.388,34.671,21.029z"/>
	<path fill-rule="evenodd" clip-rule="evenodd" fill="#084780" d="M20.66,15.685c0.099-0.117,0.181-0.217,0.271-0.312
		c0.475-0.542,1.037-0.961,1.739-1.148c0.924-0.247,1.841-0.186,2.724,0.183c0.747,0.312,1.198,0.899,1.429,1.665
		c0.138,0.455,0.188,0.921,0.188,1.394c0,2.65,0,5.3,0,7.948c0,0.017,0,0.03,0,0.045c-0.004,0.154-0.004,0.158-0.158,0.163
		c-0.332,0-0.661,0-0.992,0c-0.068,0-0.134-0.007-0.198,0c-0.084,0.002-0.124-0.036-0.117-0.12c0.004-0.052,0-0.104,0-0.151
		c0-2.517,0-5.037,0-7.553c0-0.368-0.031-0.732-0.13-1.089c-0.262-0.927-0.916-1.464-1.878-1.531
		c-0.354-0.027-0.706-0.007-1.047,0.098c-0.698,0.209-1.188,0.655-1.495,1.31c-0.284,0.604-0.366,1.252-0.371,1.911
		c0,2.278,0,4.562,0,6.843c0,0.326,0.028,0.276-0.282,0.283c-0.346,0-0.691-0.007-1.037,0c-0.109,0.002-0.169-0.024-0.157-0.148
		c0.009-0.041,0.005-0.087,0.005-0.133c0-3.588,0-7.178,0-10.771c0-0.288-0.049-0.265,0.274-0.265c0.337-0.002,0.675-0.002,1.015,0
		c0.181,0.002,0.183,0.002,0.183,0.177c0.005,0.319,0,0.634,0.005,0.951C20.628,15.504,20.611,15.575,20.66,15.685z"/>
	<path fill-rule="evenodd" clip-rule="evenodd" fill="#084780" d="M55.574,14.338c-0.18,0.55-0.354,1.096-0.533,1.64
		c-1.016,3.138-2.03,6.274-3.045,9.414c-0.015,0.033-0.029,0.07-0.038,0.105c-0.014,0.102-0.073,0.126-0.171,0.124
		c-0.266-0.007-0.528,0-0.794,0c-0.191,0-0.383,0-0.572,0c-0.188-0.005-0.188-0.005-0.245-0.178
		c-0.186-0.566-0.368-1.132-0.552-1.698c-0.994-3.073-1.991-6.152-2.985-9.226c-0.021-0.064-0.052-0.124-0.048-0.186
		c0.05-0.049,0.104-0.028,0.153-0.03c0.402-0.002,0.807,0,1.212,0c0.208,0,0.211,0,0.271,0.199c0.359,1.168,0.714,2.332,1.074,3.498
		c0.587,1.901,1.171,3.805,1.756,5.709c0.021,0.062,0.033,0.127,0.072,0.181c0.078-0.04,0.074-0.123,0.098-0.191
		c0.638-2.037,1.273-4.08,1.909-6.123c0.321-1.022,0.643-2.049,0.965-3.069c0.062-0.203,0.062-0.203,0.263-0.203
		c0.357,0,0.721,0,1.081,0C55.479,14.304,55.519,14.297,55.574,14.338z"/>
	<path fill-rule="evenodd" clip-rule="evenodd" fill="#0A4680" d="M38.773,19.697c0-1.355,0-2.709,0-4.064
		c0-0.275,0.021-0.245-0.249-0.245c-0.521-0.002-1.043,0-1.566-0.002c-0.154,0-0.156-0.004-0.158-0.155c0-0.252,0-0.501,0-0.752
		c0-0.173,0.002-0.175,0.189-0.175c0.504-0.002,1.015,0,1.521,0c0.294-0.002,0.263,0.018,0.263-0.26
		c0.002-0.653,0-1.308,0.002-1.965c0-0.175,0-0.177,0.182-0.177c0.368-0.002,0.737-0.002,1.104,0c0.182,0,0.184,0.002,0.184,0.179
		c0,0.664,0,1.324,0,1.987c0,0.052,0,0.104,0.002,0.155c0,0.055,0.03,0.078,0.082,0.078c0.06,0,0.117,0.002,0.175,0.002
		c0.68,0,1.355,0,2.032,0c0.192,0,0.192,0.002,0.192,0.193c0.002,0.227,0.002,0.454,0.002,0.684c0,0.234,0.008,0.205-0.221,0.205
		c-0.664,0.002-1.326,0.002-1.987,0.002c-0.042,0-0.088,0.007-0.134-0.002c-0.121-0.014-0.149,0.044-0.144,0.155
		c0.006,0.121,0,0.249,0,0.375c0.002,2.324,0.002,4.648,0.004,6.973c0,0.294,0.019,0.587,0.082,0.877
		c0.085,0.387,0.315,0.619,0.711,0.682c0.455,0.067,0.909,0.047,1.364,0.008c0.324-0.026,0.324-0.034,0.324,0.276
		c0,0.243-0.002,0.485,0,0.73c0.002,0.085-0.018,0.137-0.113,0.141c-0.804,0.062-1.603,0.128-2.397-0.058
		c-0.259-0.06-0.504-0.159-0.722-0.313c-0.379-0.264-0.572-0.641-0.664-1.079c-0.054-0.264-0.058-0.526-0.058-0.792
		C38.773,22.137,38.773,20.919,38.773,19.697z"/>
	<path fill-rule="evenodd" clip-rule="evenodd" fill="#084780" d="M15.511,34c-2.776-4.258-4.173-8.934-4.171-14.012
		c0.002-5.071,1.398-9.739,4.167-13.988c-0.479,1.076-0.94,2.166-1.327,3.286c-0.632,1.838-1.101,3.718-1.405,5.639
		c-0.316,2.034-0.446,4.081-0.374,6.138c0.146,4.396,1.126,8.6,2.965,12.601C15.419,33.773,15.464,33.887,15.511,34z"/>
	<path fill-rule="evenodd" clip-rule="evenodd" fill="#0A4680" d="M43.91,19.961c0-1.795,0-3.591,0-5.384
		c0-0.052,0.002-0.103,0-0.154c-0.004-0.083,0.025-0.121,0.111-0.119c0.472,0.002,0.943,0.002,1.413-0.002
		c0.084,0,0.121,0.032,0.115,0.117c-0.002,0.051,0,0.104,0,0.151c0,3.6,0,7.196,0,10.791c0,0.299,0.03,0.262-0.253,0.262
		c-0.412,0.002-0.824-0.002-1.235,0.004c-0.118,0.002-0.163-0.038-0.151-0.152c0.005-0.043,0-0.089,0-0.133
		C43.91,23.55,43.91,21.754,43.91,19.961z"/>
	<path fill-rule="evenodd" clip-rule="evenodd" fill="#F6C113" d="M61.906,26.387c0.47,0.537,0.931,1.068,1.411,1.618
		c0.084-0.165,0.078-0.315,0.107-0.453c0.054-0.268,0.096-0.533,0.136-0.803c0.014-0.109,0.056-0.159,0.169-0.15
		c0.108,0.009,0.218,0.002,0.361,0.002c-0.146,0.848-0.287,1.674-0.438,2.54c-0.496-0.57-0.963-1.103-1.447-1.656
		c-0.063,0.168-0.069,0.325-0.101,0.471c-0.049,0.269-0.097,0.538-0.135,0.803c-0.016,0.102-0.058,0.134-0.157,0.138
		c-0.381,0.016-0.379,0.02-0.315-0.347c0.115-0.676,0.233-1.35,0.348-2.022C61.854,26.483,61.852,26.436,61.906,26.387z"/>
	<path fill-rule="evenodd" clip-rule="evenodd" fill="#F6C113" d="M47.018,26.362c0.5,0.554,0.942,1.103,1.455,1.654
		c0.06-0.327,0.109-0.606,0.161-0.887c0.012-0.078,0.024-0.161,0.039-0.239c0.022-0.094-0.011-0.241,0.095-0.271
		c0.117-0.039,0.259-0.021,0.391-0.008c0.075,0.004,0.052,0.078,0.046,0.123c-0.026,0.166-0.061,0.331-0.089,0.501
		c-0.101,0.601-0.206,1.202-0.311,1.804c-0.002,0.02-0.004,0.04-0.06,0.06c-0.458-0.528-0.923-1.061-1.402-1.612
		c-0.076,0.189-0.08,0.37-0.117,0.545c-0.047,0.245-0.091,0.492-0.128,0.739c-0.015,0.089-0.047,0.125-0.143,0.123
		c-0.458-0.008-0.389,0.066-0.316-0.357c0.107-0.637,0.217-1.272,0.325-1.913C46.977,26.554,46.993,26.481,47.018,26.362z"/>
	<path fill-rule="evenodd" clip-rule="evenodd" fill="#F6C113" d="M59.45,26.563c0.202-0.002,0.353,0.026,0.499,0.08
		c0.56,0.215,0.812,0.795,0.588,1.351c-0.27,0.666-1.066,1.068-1.756,0.892c-0.689-0.18-0.987-0.903-0.632-1.539
		C58.408,26.881,58.956,26.562,59.45,26.563z M59.162,28.486c0.397,0,0.805-0.301,0.923-0.673c0.111-0.365-0.07-0.686-0.437-0.778
		c-0.409-0.105-0.896,0.138-1.079,0.535C58.362,28.034,58.653,28.486,59.162,28.486z"/>
	<path fill-rule="evenodd" clip-rule="evenodd" fill="#084780" d="M45.55,12.745c0,0.234,0,0.471,0,0.708
		c0.002,0.075-0.021,0.119-0.111,0.117c-0.47-0.002-0.943,0-1.413,0c-0.084,0-0.117-0.03-0.115-0.115
		c0.002-0.479,0.002-0.957,0-1.436c-0.002-0.082,0.023-0.119,0.111-0.119c0.472,0.004,0.943,0.004,1.415,0
		c0.084,0,0.115,0.031,0.115,0.115C45.548,12.259,45.55,12.502,45.55,12.745z"/>
	<path fill-rule="evenodd" clip-rule="evenodd" fill="#F6C113" d="M52.076,28.869c-0.019,0.011-0.024,0.017-0.03,0.017
		c-0.149,0.012-0.313,0.052-0.435-0.008c-0.132-0.066-0.109-0.258-0.155-0.394c-0.058-0.175-0.052-0.177-0.241-0.179
		c-0.153,0-0.309,0.004-0.463-0.002c-0.099-0.002-0.165,0.028-0.217,0.117c-0.065,0.119-0.149,0.231-0.22,0.354
		c-0.047,0.087-0.109,0.13-0.209,0.121c-0.126-0.008-0.252-0.002-0.369-0.002c-0.01-0.012-0.015-0.016-0.018-0.024
		c-0.006-0.006-0.01-0.014-0.006-0.018c0.514-0.797,1.028-1.595,1.543-2.39c0.018-0.028,0.032-0.065,0.073-0.071
		C51.42,26.541,52.034,28.589,52.076,28.869z M51.161,27.47c-0.106,0.134-0.182,0.24-0.247,0.397c0.133,0,0.237,0.02,0.347-0.017
		C51.253,27.728,51.209,27.618,51.161,27.47z"/>
	<path fill-rule="evenodd" clip-rule="evenodd" fill="#F6C113" d="M55.123,28.044c-0.029,0.166-0.065,0.292-0.065,0.413
		c-0.002,0.195-0.12,0.283-0.283,0.347c-0.337,0.136-0.68,0.171-1.026,0.046c-0.546-0.201-0.806-0.729-0.622-1.281
		c0.235-0.708,1.072-1.159,1.792-0.957c0.069,0.018,0.14,0.05,0.201,0.082c0.21,0.107,0.222,0.123,0.175,0.358
		c-0.021,0.109-0.017,0.23-0.072,0.335c-0.091-0.026-0.121-0.096-0.168-0.147c-0.124-0.13-0.272-0.2-0.447-0.221
		c-0.426-0.056-0.904,0.266-1.014,0.684c-0.112,0.43,0.215,0.807,0.676,0.774c0.213-0.016,0.402-0.091,0.568-0.219
		C54.92,28.2,55,28.137,55.123,28.044z"/>
	<path fill-rule="evenodd" clip-rule="evenodd" fill="#F6C113" d="M57.146,26.601c-0.094,0.556-0.186,1.075-0.275,1.596
		c-0.033,0.193-0.072,0.387-0.104,0.582c-0.01,0.079-0.04,0.117-0.125,0.115c-0.48-0.008-0.401,0.07-0.327-0.366
		c0.096-0.589,0.203-1.171,0.301-1.758c0.026-0.175,0.058-0.171,0.191-0.169C56.907,26.605,57.009,26.601,57.146,26.601z"/>
	<path fill-rule="evenodd" clip-rule="evenodd" fill="#F6BF0E" d="M7.136,10.176c-0.026,0.01-0.032-0.004-0.034-0.027
		c0-0.009,0.008-0.017,0.014-0.022c0.009,0.019,0.013,0.035,0.017,0.054L7.136,10.176z"/>
	<path fill-rule="evenodd" clip-rule="evenodd" fill="#F6BF0E" d="M7.132,29.822c-0.004,0.019-0.008,0.038-0.017,0.054
		c-0.006-0.006-0.014-0.014-0.014-0.022c0.002-0.021,0.008-0.037,0.034-0.029L7.132,29.822z"/>
	<path fill-rule="evenodd" clip-rule="evenodd" fill="#FFFFFF" d="M8.537,24.78c0.01-0.015,0.018-0.034,0.038-0.021
		c0.014,0.017,0.002,0.035-0.013,0.05C8.555,24.797,8.547,24.791,8.537,24.78z"/>
	<path fill-rule="evenodd" clip-rule="evenodd" fill="#FFFFFF" d="M7.284,16.033c0.019,0.019,0.037,0.038,0.011,0.062
		c-0.007,0.006-0.031-0.009-0.05-0.013C7.26,16.065,7.271,16.047,7.284,16.033z"/>
	<path fill-rule="evenodd" clip-rule="evenodd" fill="#FFFFFF" d="M8.562,15.192c0.015,0.015,0.026,0.033,0.013,0.048
		c-0.021,0.019-0.028-0.004-0.04-0.019C8.547,15.211,8.555,15.203,8.562,15.192z"/>
</g>
</svg>
