<?xml version="1.0" encoding="utf-8"?>
<!-- Generator: Adobe Illustrator 16.0.0, SVG Export Plug-In . SVG Version: 6.00 Build 0)  -->
<!DOCTYPE svg PUBLIC "-//W3C//DTD SVG 1.1//EN" "http://www.w3.org/Graphics/SVG/1.1/DTD/svg11.dtd">
<svg version="1.1" id="Capa_1" xmlns="http://www.w3.org/2000/svg" xmlns:xlink="http://www.w3.org/1999/xlink" x="0px" y="0px"
	 width="50px" height="40px" viewBox="0 0 50 40" enable-background="new 0 0 50 40" xml:space="preserve">
<g>
	<path fill-rule="evenodd" clip-rule="evenodd" fill="#EFA516" d="M0,10.032c0-0.855,0.699-1.555,1.558-1.555h46.885
		c0.856,0,1.558,0.699,1.558,1.555v19.934c0,0.854-0.701,1.557-1.558,1.557H1.558C0.699,31.522,0,30.819,0,29.966V10.032L0,10.032z"
		/>
	<polygon fill-rule="evenodd" clip-rule="evenodd" fill="#FFFFFF" points="0,10.741 50,10.741 50,29.259 0,29.259 0,10.741 	"/>
	<path fill-rule="evenodd" clip-rule="evenodd" fill="#E10717" d="M42.373,15.849c-2.288,0-4.151,1.863-4.151,4.151
		c0,2.286,1.863,4.151,4.151,4.151c2.286,0,4.151-1.865,4.151-4.151C46.524,17.712,44.659,15.849,42.373,15.849L42.373,15.849z"/>
	<path fill-rule="evenodd" clip-rule="evenodd" fill="#E10717" d="M8.148,15.849c-2.287,0-4.153,1.863-4.153,4.151
		c0,2.286,1.866,4.151,4.153,4.151c2.286,0,4.15-1.865,4.15-4.151C12.299,17.712,10.435,15.849,8.148,15.849L8.148,15.849z"/>
	<path fill-rule="evenodd" clip-rule="evenodd" fill="#E10717" d="M42.047,11.898c-3.844-0.091-5.65,2.374-8.273,5.415l-2.476,2.866
		l3.919,4.691c0.934,1.441-0.848,2.872-1.954,1.553l-3.622-4.321l-3.529,4.091c-1.124,1.304-2.886-0.15-1.931-1.579l3.831-4.456
		l-2.511-2.993l1.615-2.002l2.553,3.067l2.201-2.561c1.078-1.255,2.182-2.92,3.606-3.771H0v16.207h8.293
		c3.846,0,5.592-2.297,8.144-5.398l2.406-2.924l-4.024-4.598c-0.967-1.42,0.781-2.891,1.917-1.599l3.722,4.238l3.436-4.175
		c1.091-1.328,2.888,0.088,1.967,1.537l-3.729,4.544l2.579,2.936l-1.625,1.924l-2.566-2.895l-2.141,2.609
		c-1.053,1.279-2.116,2.911-3.522,3.8H50V11.898H42.047L42.047,11.898z M14.707,19.703c0,3.614-2.946,6.562-6.559,6.562
		c-3.616,0-6.562-2.947-6.562-6.562s2.945-6.56,6.562-6.56C11.761,13.144,14.707,16.089,14.707,19.703L14.707,19.703z
		 M42.373,26.265c-3.614,0-6.561-2.947-6.561-6.562s2.946-6.56,6.561-6.56s6.561,2.945,6.561,6.56S45.987,26.265,42.373,26.265
		L42.373,26.265z"/>
</g>
</svg>
