<?xml version="1.0" encoding="utf-8"?>
<!-- Generator: Adobe Illustrator 16.0.0, SVG Export Plug-In . SVG Version: 6.00 Build 0)  -->
<!DOCTYPE svg PUBLIC "-//W3C//DTD SVG 1.1//EN" "http://www.w3.org/Graphics/SVG/1.1/DTD/svg11.dtd">
<svg version="1.1" id="Capa_1" xmlns="http://www.w3.org/2000/svg" xmlns:xlink="http://www.w3.org/1999/xlink" x="0px" y="0px"
	 width="32.668px" height="40px" viewBox="0 0 32.668 40" enable-background="new 0 0 32.668 40" xml:space="preserve">
<g>
	<circle fill="#F6E72E" cx="16.334" cy="20.001" r="16.334"/>
	<polygon fill-rule="evenodd" clip-rule="evenodd" fill="#FFFFFF" points="6.859,12.944 21.762,9.046 24.377,18.718 30.082,17.456 
		19.641,30.958 3.967,23.888 9.521,22.427 	"/>
	<path fill-rule="evenodd" clip-rule="evenodd" fill="#E03161" d="M6.859,12.944l14.902-3.898l2.615,9.672l5.725-1.48l-5.492,7.201
		l-0.055,0.016c0,0-0.502,0.135-0.658,0.045c-0.16-0.09,0.18-0.729,0.361-1.16s0.521-1.475,0.818-2.066
		c0.295-0.59,0.727-1.068,0.84-1.113s0.182-0.455,0.137-0.635c-0.045-0.184,0-0.387-0.182-0.387s-0.318,0.545-0.568,0.863
		s-0.816,1.395-1.295,2.381c-0.479,0.982-1.414,2.115-1.879,2.578c-0.502,0.395-0.098-0.371-0.051-0.598
		c0.043-0.225,0.338-0.861,0.338-0.861s0.41-0.455-0.111-0.297c-0.523,0.158-1,0.934-1,0.934s-1.297,1.611-1.75,1.93
		c-0.453,0.316-0.342-0.182-0.25-0.682c0.094-0.5,0.658-1.092,0.658-1.092l0.227-0.092c0,0-0.135,0.502-0.023,0.479
		c0.115-0.023,0.252-0.227,0.275-0.41c0.021-0.18,0-0.932-0.137-0.84c-0.139,0.092-0.865,0.75-1.092,1.023
		c-0.225,0.271-1.045,1.295-1.34,1.771c-0.293,0.479-0.092-0.25-0.092-0.25s0.115-0.408,0.137-0.59
		c0.023-0.182-0.227-0.092-0.227-0.092l-0.342,0.342c0,0-0.066,0.068-0.066,0.34c0,0.273-0.342,0.66-0.684,0.863
		c-0.34,0.205-0.203-0.182-0.203-0.182s0.115-0.477,0.455-1.045s0.703-0.613,0.908-0.703c0.203-0.092,0.113-0.229,0.047-0.344
		c-0.07-0.111-0.295-0.029-0.367,0.023c-0.154,0.125-2.684,2.238-2.793,2.615c-0.109,0.375,0.25,0.092,0.25,0.092l1-1.09
		l0.045-0.047l-0.021,0.248c0,0-0.297,0.523-0.229,0.889c0.076,0.293,0.297,0.227,0.455,0.219c0.16-0.023,0.477-0.471,0.682-0.631
		c0.203-0.156,0.229,0.023,0.295,0.16c0.068,0.137,0.363-0.045,0.363-0.045s0.682-0.932,0.84-1.137
		c0.16-0.205,0.365-0.205,0.365-0.205s-0.092,0.275,0.135,0.639c0.229,0.361,0.639,0.088,0.887-0.07
		c0.25-0.158,1.047-1.158,1.229-1.408c0.18-0.252,0.432-0.295,0.432-0.295s-0.139,0.795-0.092,0.998
		c0.045,0.205,0.389,0.25,0.797-0.135s1.264-1.646,1.264-1.646s-0.221,0.623-0.15,1.102c0.066,0.477,0.473,0.338,0.65,0.285
		c0.141-0.096,0.303-0.182,0.436-0.25l-4.637,6.082l-6.332-2.773c0.203-0.609,0.906-2.699,0.932-2.777
		c0.695-0.217,1.371-0.432,1.371-0.432c0.066-0.162,0.141-0.393,0.291-0.664c0.152-0.27-0.209-0.211-0.209-0.211
		s-0.615,0.453-0.889,0.545c-0.373,0.193-0.227-0.213-0.227-0.213s0.543-1.115,0.723-1.568c0.182-0.449,0.693-0.449,1.115-0.629
		c0.422-0.184,3.283-1.084,3.764-1.268c0.482-0.18,0.393-0.902,0.393-0.902s-0.514,0.271-0.906,0.391
		c-0.389,0.123-3.039,1.146-3.34,1.295c-0.301,0.152-0.15-0.119-0.15-0.33c0-0.213-0.15-0.121-0.15-0.121s-0.361,0.182-0.602,0.24
		c-0.244,0.062-0.393,0.482-0.393,0.482s-2.381,1.086-2.893,1.688s0.301,0.332,0.301,0.332s2.289-1.355,2.109-1.023
		c-0.182,0.33-0.963,2.166-0.963,2.166s-0.754,0.514-1.027,0.725c-0.268,0.209-0.148,0.631-0.148,0.631s1.084-0.871,0.965-0.602
		c-0.102,0.225-0.453,1.58-0.566,2.025L3.75,23.999l5.525-1.48L6.859,12.944L6.859,12.944z M18.301,23.837
		c0,0,0.607-0.723,0.695-0.955c0.084-0.232,0.463-0.262,0.434,0c-0.031,0.262-0.639,0.783-0.639,0.783s-0.289,0.346-0.434,0.346
		S18.301,23.837,18.301,23.837L18.301,23.837z M22.518,22.634c0,0-0.191,0.027-0.164-0.301s0.109-0.271,0.273-0.41
		c0.162-0.135,0.299-0.326,0.299-0.051c0,0.271-0.025,0.408-0.162,0.572S22.518,22.634,22.518,22.634L22.518,22.634z"/>
	<g>
		<path fill="#FFFFFF" d="M2.564,18.003l3.334-0.863c0.604-0.156,1.113-0.232,1.523-0.223c0.434-0.006,0.795,0.057,1.082,0.195
			c0.287,0.141,0.506,0.354,0.65,0.641c0.061,0.121,0.109,0.258,0.145,0.414c0.23,1.152-0.594,1.975-2.473,2.461l-1.172,0.303
			l0.379,1.594l-2.279,0.592L2.564,18.003L2.564,18.003z M15.859,14.712h0.02c0.074-0.051,0.15-0.102,0.23-0.15
			c0.418-0.25,0.922-0.451,1.506-0.604c0.314-0.08,0.592-0.139,0.832-0.168s0.504-0.035,0.789-0.02
			c0.49,0.023,0.92,0.137,1.285,0.342c0.363,0.201,0.639,0.486,0.824,0.855l0.014,0.025l-1.232,0.32v0.58l1.441-0.377l0.646,2.824
			l-1.449,0.377l-0.213-0.471c-0.121,0.162-0.264,0.311-0.426,0.443v0.01h-0.012c-0.385,0.312-0.885,0.551-1.5,0.711
			c-0.889,0.23-1.67,0.236-2.346,0.016c-0.674-0.223-1.152-0.611-1.436-1.17l-0.141-0.303l-0.061-0.273
			c-0.188-0.805-0.033-1.545,0.465-2.221c0.201-0.275,0.457-0.521,0.762-0.734V14.712L15.859,14.712z M5.127,18.603l0.246,1.139
			l0.984-0.256c0.285-0.072,0.498-0.197,0.639-0.371c0.141-0.176,0.164-0.355,0.072-0.541c-0.143-0.279-0.564-0.328-1.266-0.146
			L5.127,18.603L5.127,18.603z M9.924,16.097l2.328-0.605l3.678,4.467l-2.268,0.586l-0.438-0.605l-2.279,0.592l-0.094,0.744
			l-2.221,0.576L9.924,16.097L9.924,16.097z M11.139,19.353l1.439-0.375l-1.145-1.643L11.139,19.353L11.139,19.353z M24.965,12.054
			c1.023-0.268,1.879-0.279,2.57-0.037c0.326,0.115,0.623,0.279,0.891,0.49c0.125,0.104,0.236,0.217,0.334,0.34
			c0.098,0.121,0.188,0.262,0.27,0.42l0.127,0.254l0.064,0.217c0.127,0.473,0.104,0.957-0.07,1.455
			c-0.176,0.494-0.52,0.943-1.029,1.348c-0.512,0.402-1.148,0.705-1.916,0.902c-1.035,0.27-1.902,0.281-2.598,0.033
			c-0.697-0.248-1.186-0.652-1.467-1.211l-0.064-0.195l-0.082-0.225l-0.068-0.199c-0.1-0.502-0.064-0.977,0.104-1.424
			c0.168-0.445,0.506-0.869,1.016-1.27C23.553,12.552,24.193,12.251,24.965,12.054L24.965,12.054z M25.236,13.306
			c-0.992,0.256-1.277,1.006-0.857,2.244c0.309,0.615,0.822,0.83,1.537,0.646c0.564-0.146,0.91-0.449,1.029-0.902
			c0.121-0.455,0.072-0.902-0.15-1.342c-0.145-0.287-0.348-0.492-0.609-0.613C25.926,13.22,25.609,13.208,25.236,13.306
			L25.236,13.306z"/>
		<path fill="#FFFFFF" d="M3.451,23.616c-0.137-0.082-0.232-0.213-0.268-0.369l0,0l-1.189-5.109l0.57-0.135l0.146,0.566
			l-0.146-0.566l-0.57,0.135c-0.072-0.311,0.117-0.621,0.424-0.699l0,0l3.332-0.867c0.607-0.154,1.137-0.242,1.609-0.242l0,0
			c0.018,0,0.041,0,0.062,0l0,0c0.021,0,0.041,0,0.062,0l0,0c0.467,0,0.896,0.074,1.275,0.256l0,0
			c0.141,0.068,0.277,0.152,0.398,0.254l0,0l0.193-0.873c0.049-0.213,0.215-0.383,0.426-0.438l0,0l2.328-0.602
			c0.221-0.061,0.453,0.016,0.598,0.193l0,0l1.285,1.559c0.064-0.559,0.287-1.092,0.637-1.566l0,0
			c0.221-0.299,0.492-0.566,0.805-0.801l0,0c0.004-0.004,0.01-0.01,0.014-0.016l0,0c0.055-0.053,0.117-0.094,0.186-0.123l0,0
			c0.057-0.037,0.117-0.076,0.178-0.113l0,0c0.479-0.287,1.033-0.506,1.662-0.67l0,0c0.334-0.084,0.635-0.146,0.908-0.182l0,0
			c0.18-0.021,0.369-0.031,0.562-0.031l0,0c0.107,0,0.217,0.002,0.332,0.01l0,0l0,0c0.561,0.025,1.082,0.16,1.533,0.412l0,0
			c0.242,0.135,0.461,0.305,0.645,0.502l0,0c0.01-0.027,0.02-0.055,0.031-0.084l0,0c0.217-0.576,0.635-1.078,1.199-1.525l0,0
			c0.586-0.459,1.303-0.791,2.139-1.006l0,0l0,0c0.572-0.148,1.109-0.229,1.615-0.229l0,0c0.461,0,0.895,0.066,1.297,0.209l0,0
			c0.385,0.135,0.74,0.33,1.059,0.58l0,0l0.01,0.01c0.152,0.127,0.295,0.27,0.418,0.424l0,0c0.127,0.158,0.236,0.332,0.332,0.523
			l0,0l0.129,0.254l0.037,0.094l0.066,0.217l0.004,0.018c0.068,0.248,0.102,0.502,0.102,0.758l0,0c0,0.352-0.064,0.701-0.186,1.043
			l0,0c-0.219,0.621-0.643,1.16-1.219,1.613l0,0c-0.586,0.465-1.301,0.797-2.131,1.012l0,0c-0.576,0.148-1.117,0.227-1.627,0.227
			l0,0c-0.467,0-0.908-0.066-1.314-0.211l0,0c-0.27-0.094-0.521-0.215-0.748-0.359l0,0l0.123,0.545
			c0.072,0.309-0.117,0.619-0.422,0.697l0,0l-1.451,0.377c-0.168,0.043-0.344,0.008-0.48-0.086l0,0
			c-0.006,0.004-0.01,0.004-0.016,0.01l0,0c-0.455,0.352-1.012,0.602-1.652,0.77l0,0c-0.496,0.127-0.971,0.193-1.426,0.195l0,0
			c-0.287,0-0.566-0.027-0.836-0.082l0,0c-0.004,0.014-0.008,0.031-0.014,0.043l0,0c-0.062,0.191-0.217,0.34-0.41,0.389l0,0
			l-2.27,0.588c-0.232,0.061-0.482-0.027-0.621-0.225l0,0l-0.203-0.283l-1.508,0.391l-0.045,0.354
			c-0.027,0.238-0.199,0.432-0.432,0.494l0,0l-2.223,0.576c-0.197,0.051-0.408-0.004-0.555-0.146l0,0
			c-0.146-0.143-0.209-0.352-0.164-0.549l0,0l0.223-0.992c-0.381,0.184-0.816,0.334-1.311,0.465l0,0l-0.613,0.158l0.244,1.033
			c0.074,0.311-0.113,0.625-0.422,0.703l0,0L3.9,23.683c-0.047,0.012-0.1,0.018-0.146,0.018l0,0
			C3.646,23.7,3.543,23.673,3.451,23.616L3.451,23.616z M4.188,22.397l1.143-0.297l-0.244-1.035
			c-0.074-0.311,0.113-0.623,0.422-0.701l0,0l1.17-0.305c0.785-0.201,1.34-0.465,1.654-0.73l0,0c0.314-0.273,0.41-0.49,0.418-0.795
			l0,0c0-0.076-0.008-0.158-0.025-0.246l0,0c-0.025-0.115-0.059-0.203-0.094-0.271l0,0c-0.094-0.182-0.201-0.285-0.381-0.375l0,0
			c-0.17-0.082-0.422-0.141-0.766-0.141l0,0c-0.016,0-0.033,0-0.051,0l0,0H7.406c-0.012,0-0.029,0-0.047,0l0,0
			c-0.326,0-0.773,0.064-1.314,0.207l0,0l-2.779,0.719L4.188,22.397L4.188,22.397z M9.412,21.042l0.906-0.236l0.047-0.35
			c0.027-0.24,0.201-0.434,0.434-0.496l0,0l0.178-0.047c-0.084-0.023-0.164-0.066-0.229-0.125l0,0
			c-0.145-0.133-0.217-0.328-0.189-0.521l0,0l0.297-2.016c0.033-0.24,0.209-0.432,0.443-0.488l0,0
			c0.236-0.053,0.479,0.039,0.615,0.236l0,0l1.145,1.645c0.109,0.158,0.135,0.357,0.068,0.537l0,0
			c-0.031,0.082-0.078,0.152-0.135,0.213l0,0l0.086-0.023c0.232-0.061,0.48,0.029,0.623,0.227l0,0l0.203,0.281l0.988-0.258
			l-2.855-3.467l-1.619,0.418L9.412,21.042L9.412,21.042z M11.266,19.841l-0.127-0.488L11.266,19.841L11.266,19.841z M16.451,18.868
			c0.268,0.088,0.561,0.133,0.887,0.133l0,0c0.34,0,0.717-0.049,1.131-0.158l0,0c0.553-0.143,0.971-0.348,1.275-0.596l0,0
			c0.004-0.004,0.006-0.006,0.008-0.008l0,0c0.131-0.105,0.238-0.221,0.33-0.342l0,0c0.123-0.166,0.324-0.254,0.531-0.232l0,0
			c0.207,0.021,0.387,0.148,0.471,0.338l0,0l0.012,0.025l0.422-0.109l-0.387-1.684l-0.855,0.225
			c-0.178,0.045-0.363,0.008-0.508-0.105l0,0c-0.143-0.109-0.229-0.279-0.229-0.461l0,0v-0.58c0-0.268,0.182-0.5,0.439-0.568l0,0
			l0.326-0.082c-0.025-0.014-0.045-0.029-0.07-0.041l0,0c-0.275-0.152-0.607-0.246-1.027-0.266l0,0h-0.008
			c-0.088-0.006-0.174-0.01-0.26-0.01l0,0c-0.15,0-0.291,0.01-0.42,0.023l0,0c-0.205,0.027-0.461,0.078-0.756,0.154l0,0
			c-0.545,0.141-0.994,0.324-1.354,0.539l0,0c-0.068,0.043-0.137,0.084-0.199,0.129l0,0c0,0-0.004,0.004-0.006,0.004l0,0
			c-0.004,0.002-0.008,0.004-0.01,0.008l0,0c-0.258,0.182-0.465,0.383-0.625,0.605l0,0c-0.299,0.406-0.428,0.795-0.43,1.227l0,0
			c0,0.162,0.02,0.332,0.062,0.512l0,0l0.047,0.215l0.109,0.234C15.572,18.407,15.893,18.679,16.451,18.868L16.451,18.868z
			 M23.803,16.923c0.262,0.092,0.568,0.145,0.922,0.145l0,0c0.387,0,0.834-0.061,1.334-0.191l0,0
			c0.703-0.184,1.264-0.453,1.697-0.797l0,0c0.447-0.352,0.709-0.711,0.842-1.082l0,0c0.08-0.232,0.119-0.447,0.119-0.654l0,0
			c0-0.148-0.02-0.295-0.061-0.443l0,0l-0.049-0.16l-0.104-0.207c-0.064-0.129-0.133-0.234-0.203-0.32l0,0
			c-0.07-0.088-0.148-0.17-0.238-0.246l0,0c-0.217-0.17-0.455-0.301-0.725-0.396l0,0c-0.258-0.09-0.555-0.141-0.904-0.141l0,0
			c-0.383,0-0.824,0.061-1.322,0.189l0,0c-0.711,0.186-1.275,0.455-1.705,0.793l0,0c-0.451,0.357-0.711,0.701-0.83,1.02l0,0
			c-0.08,0.213-0.119,0.432-0.119,0.666l0,0c0,0.127,0.01,0.26,0.037,0.396l0,0l0.053,0.158l0.08,0.221l0.006,0.014l0.049,0.15
			C22.895,16.427,23.227,16.712,23.803,16.923L23.803,16.923z M5.066,20.239c-0.135-0.084-0.23-0.221-0.266-0.375l0,0l-0.246-1.139
			c-0.066-0.307,0.121-0.611,0.426-0.689l0,0l0.674-0.178c0.311-0.078,0.584-0.125,0.848-0.125l0,0c0.203,0,0.402,0.025,0.602,0.115
			l0,0c0.195,0.084,0.387,0.252,0.488,0.463l0,0c0.07,0.141,0.117,0.307,0.117,0.48l0,0c0,0.266-0.109,0.512-0.258,0.689l0,0
			c-0.24,0.297-0.58,0.477-0.945,0.572l0,0L5.521,20.31c-0.049,0.012-0.098,0.018-0.146,0.018l0,0
			C5.268,20.327,5.158,20.298,5.066,20.239L5.066,20.239z M24.502,16.569c-0.279-0.184-0.494-0.453-0.646-0.758l0,0l-0.031-0.074
			c-0.139-0.412-0.219-0.797-0.219-1.164l0,0c-0.004-0.432,0.119-0.859,0.393-1.189l0,0c0.273-0.33,0.66-0.535,1.09-0.648l0,0v0.002
			c0.209-0.053,0.412-0.084,0.613-0.084l0,0c0.252,0,0.502,0.051,0.729,0.154l0,0c0.391,0.178,0.697,0.498,0.889,0.881l0,0
			c0.18,0.355,0.279,0.74,0.277,1.127l0,0c0,0.211-0.027,0.422-0.082,0.627l0,0c-0.086,0.33-0.271,0.635-0.529,0.857l0,0
			c-0.258,0.225-0.572,0.373-0.922,0.461l0,0c-0.205,0.055-0.408,0.084-0.609,0.084l0,0c-0.004,0-0.008,0-0.01,0l0,0
			C25.111,16.845,24.779,16.755,24.502,16.569L24.502,16.569z M25.148,15.595c0.08,0.049,0.16,0.076,0.305,0.078l0,0
			c0.084,0,0.189-0.012,0.314-0.045l0,0c0.221-0.057,0.357-0.135,0.445-0.211l0,0c0.084-0.076,0.131-0.148,0.166-0.273l0,0
			c0.031-0.115,0.047-0.225,0.047-0.328l0,0c-0.004-0.195-0.049-0.387-0.154-0.6l0,0c-0.1-0.191-0.197-0.281-0.33-0.344l0,0
			c-0.061-0.029-0.133-0.045-0.24-0.045l0,0c-0.086,0-0.191,0.012-0.318,0.045l0,0l-0.146-0.566l0.146,0.566
			c-0.268,0.07-0.402,0.166-0.479,0.256l0,0c-0.076,0.094-0.125,0.211-0.129,0.445l0,0c0,0.186,0.043,0.438,0.143,0.744l0,0
			C24.996,15.464,25.076,15.546,25.148,15.595L25.148,15.595z"/>
	</g>
	<path fill="#0033A0" d="M2.645,18.003l3.33-0.863c0.605-0.156,1.113-0.232,1.525-0.223c0.434-0.006,0.795,0.057,1.082,0.195
		c0.289,0.141,0.506,0.354,0.648,0.641c0.061,0.121,0.109,0.258,0.145,0.414c0.23,1.152-0.592,1.975-2.473,2.461l-1.17,0.303
		l0.377,1.594L3.83,23.116L2.645,18.003L2.645,18.003z M5.205,18.603l0.246,1.139l0.986-0.256c0.281-0.072,0.494-0.197,0.635-0.371
		c0.141-0.176,0.166-0.355,0.072-0.541c-0.141-0.279-0.561-0.328-1.264-0.146L5.205,18.603L5.205,18.603z M10,16.097l2.328-0.605
		l3.68,4.467l-2.27,0.586l-0.438-0.605l-2.277,0.592l-0.094,0.744l-2.223,0.576L10,16.097L10,16.097z M11.217,19.353l1.438-0.375
		l-1.143-1.643L11.217,19.353L11.217,19.353z M18.789,17.431l-0.262-1.104l3.117-0.811l0.65,2.824l-1.451,0.377l-0.215-0.471
		c-0.408,0.547-1.055,0.938-1.936,1.164c-0.889,0.23-1.672,0.236-2.346,0.016c-0.676-0.223-1.154-0.611-1.436-1.17l-0.141-0.303
		l-0.062-0.273c-0.188-0.805-0.033-1.545,0.465-2.221c0.256-0.348,0.592-0.645,1.012-0.898c0.418-0.25,0.922-0.451,1.506-0.604
		c0.316-0.08,0.596-0.139,0.834-0.168c0.24-0.029,0.502-0.035,0.787-0.02c0.492,0.023,0.922,0.137,1.285,0.342
		c0.367,0.201,0.641,0.486,0.826,0.855l0.012,0.025l-2.162,0.562c-0.275-0.385-0.719-0.498-1.33-0.34
		c-1.004,0.262-1.279,1.02-0.826,2.281c0.297,0.59,0.84,0.781,1.633,0.576c0.246-0.062,0.475-0.182,0.689-0.355
		c0.213-0.174,0.328-0.355,0.342-0.543L18.789,17.431L18.789,17.431z M25.043,12.054c1.021-0.268,1.879-0.279,2.568-0.037
		c0.33,0.115,0.627,0.279,0.893,0.49c0.123,0.104,0.236,0.217,0.334,0.34c0.098,0.121,0.188,0.262,0.268,0.42l0.127,0.254
		l0.064,0.217c0.131,0.473,0.105,0.957-0.07,1.455c-0.176,0.494-0.52,0.943-1.027,1.348c-0.51,0.402-1.148,0.705-1.916,0.902
		c-1.037,0.27-1.902,0.281-2.598,0.033c-0.699-0.248-1.188-0.652-1.469-1.211l-0.064-0.195l-0.082-0.225l-0.068-0.199
		c-0.098-0.502-0.064-0.977,0.104-1.424c0.168-0.445,0.506-0.869,1.016-1.27C23.627,12.552,24.27,12.251,25.043,12.054
		L25.043,12.054z M25.312,13.306c-0.992,0.256-1.277,1.006-0.855,2.244c0.311,0.615,0.822,0.83,1.535,0.646
		c0.566-0.146,0.912-0.449,1.031-0.902c0.119-0.455,0.07-0.902-0.152-1.342c-0.143-0.287-0.348-0.492-0.607-0.613
		C26.004,13.22,25.686,13.208,25.312,13.306L25.312,13.306z"/>
	<path fill="#FFFFFF" d="M12.938,27.595c0,0-0.428,1.48-0.717,1.385c0,0,0.449-1.295-0.33-0.764c0,0-0.812,1.83-0.57,2.576
		c0,0,1.451,0.051,2.084-3.096L12.938,27.595z"/>
	<path fill="#FFFFFF" d="M24.588,24.448c0,0,0.938-0.322,1.445-0.883c0,0,0.883-0.939,0.805,0.105c0,0-0.322,0.51-2.945,1.34
		C23.893,25.011,24.588,24.743,24.588,24.448z"/>
</g>
</svg>
