<?xml version="1.0" encoding="utf-8"?>
<!-- Generator: Adobe Illustrator 16.0.0, SVG Export Plug-In . SVG Version: 6.00 Build 0)  -->
<!DOCTYPE svg PUBLIC "-//W3C//DTD SVG 1.1//EN" "http://www.w3.org/Graphics/SVG/1.1/DTD/svg11.dtd">
<svg version="1.1" id="Capa_1" xmlns="http://www.w3.org/2000/svg" xmlns:xlink="http://www.w3.org/1999/xlink" x="0px" y="0px"
	 width="55.002px" height="40px" viewBox="0 0 55.002 40" enable-background="new 0 0 55.002 40" xml:space="preserve">
<g>
	<g>
		<g>
			<rect y="9" fill="#FDC80A" width="55.002" height="22"/>
			<g>
				<path fill="#221916" d="M27.722,12.905c-0.478-0.288-1.147-0.436-2.013-0.436c-0.822,0-1.541,0.043-2.151,0.123
					c-0.116,0.016-0.204,0.043-0.27,0.085c-0.063,0.043-0.108,0.106-0.131,0.192l-0.169,0.825h2.361l0.122-0.756l1.539,1.859
					l-2.139,1.827l0.139-0.849h-2.445l-0.717,3.535v0.008v0.026c0,0.047,0.015,0.084,0.047,0.11
					c0.031,0.028,0.071,0.041,0.121,0.041h1.084c0.059,0,0.11-0.019,0.161-0.053c0.049-0.037,0.081-0.08,0.092-0.133l0.496-2.119
					c0.04,0,0.098,0.004,0.178,0.008c0.079,0.004,0.163,0.007,0.249,0.011c0.087,0.002,0.179,0.008,0.279,0.012
					c0.098,0.005,0.186,0.007,0.253,0.007c0.601,0,1.139-0.062,1.612-0.187c0.472-0.128,0.878-0.349,1.221-0.671
					c0.339-0.322,0.586-1.09,0.733-1.658l0.026-0.081c0.021-0.078,0.032-0.188,0.032-0.329v-0.146
					C28.434,13.615,28.195,13.197,27.722,12.905z"/>
				<g>
					<path fill="#221916" d="M30.259,15.477c-0.249,0-0.488,0.022-0.719,0.067c-0.232,0.045-0.478,0.101-0.737,0.168
						c-0.066,0.02-0.114,0.028-0.146,0.028c-0.058,0-0.082-0.029-0.082-0.088c0-0.041,0.009-0.114,0.024-0.221l0.084-0.461
						c0.004-0.039,0.011-0.073,0.028-0.101c0.011-0.028,0.035-0.053,0.067-0.071c0.029-0.019,0.076-0.041,0.14-0.065
						c0.54-0.178,1.092-0.267,1.655-0.267c0.524,0,0.927,0.116,1.204,0.341c0.279,0.227,0.418,0.559,0.418,1
						c0,0.143-0.01,0.281-0.036,0.41l-0.554,3.125c-0.014,0.065-0.028,0.11-0.047,0.137c-0.021,0.026-0.059,0.049-0.118,0.065
						c-0.221,0.057-0.398,0.1-0.533,0.126c-0.136,0.027-0.306,0.05-0.512,0.07c-0.206,0.022-0.443,0.032-0.717,0.032
						c-1.286,0-1.929-0.427-1.929-1.28c0-0.122,0.013-0.255,0.039-0.401c0.047-0.27,0.122-0.496,0.229-0.682
						c0.104-0.185,0.245-0.337,0.425-0.453c0.18-0.115,0.414-0.2,0.697-0.254c0.284-0.055,0.621-0.079,1.021-0.079h0.713
						c0.065-0.367,0.098-0.58,0.098-0.642c0-0.195-0.057-0.326-0.169-0.399C30.688,15.512,30.508,15.477,30.259,15.477z
						 M30.485,18.783l0.247-1.355h-0.686c-0.364,0-0.619,0.05-0.764,0.149c-0.147,0.098-0.241,0.277-0.286,0.541
						c-0.012,0.077-0.017,0.153-0.017,0.229c0,0.176,0.065,0.306,0.194,0.388c0.129,0.084,0.347,0.125,0.651,0.125
						C30.094,18.859,30.312,18.835,30.485,18.783z"/>
					<path fill="#221916" d="M34.251,21.537c-0.288,0-0.598-0.035-0.925-0.108c-0.322-0.075-0.596-0.163-0.816-0.266
						c-0.102-0.055-0.15-0.116-0.15-0.186v-0.059l0.077-0.431c0.015-0.103,0.06-0.155,0.137-0.155c0.035,0,0.067,0.004,0.084,0.01
						c0.234,0.058,0.498,0.112,0.792,0.155c0.294,0.045,0.584,0.067,0.871,0.067c0.346,0,0.597-0.06,0.749-0.18
						c0.151-0.118,0.245-0.331,0.28-0.641l0.012-0.071c-0.324,0.061-0.604,0.09-0.841,0.09c-0.573,0-1.035-0.14-1.384-0.427
						c-0.351-0.282-0.526-0.715-0.526-1.303c0-0.208,0.019-0.394,0.047-0.562l0.122-0.704c0.099-0.565,0.256-1.015,0.474-1.351
						c0.213-0.335,0.498-0.574,0.85-0.725c0.353-0.149,0.781-0.227,1.294-0.227c0.292,0,0.602,0.024,0.937,0.068
						c0.333,0.045,0.625,0.103,0.872,0.172c0.077,0.021,0.131,0.043,0.163,0.067c0.034,0.022,0.051,0.062,0.051,0.114
						c0,0.015-0.002,0.024-0.002,0.033c-0.004,0.006-0.006,0.021-0.01,0.032l-0.842,4.729c-0.085,0.457-0.208,0.816-0.373,1.082
						s-0.402,0.463-0.714,0.586C35.17,21.476,34.758,21.537,34.251,21.537z M36.088,15.538c-0.107-0.024-0.234-0.043-0.383-0.056
						c-0.146-0.018-0.309-0.022-0.484-0.022c-0.247,0-0.451,0.046-0.614,0.14c-0.167,0.094-0.296,0.236-0.392,0.426
						c-0.095,0.188-0.168,0.438-0.221,0.743l-0.122,0.704c-0.041,0.256-0.062,0.449-0.062,0.578c0,0.251,0.061,0.435,0.186,0.555
						c0.124,0.119,0.337,0.178,0.633,0.178c0.239,0,0.537-0.022,0.896-0.071L36.088,15.538z"/>
					<path fill="#221916" d="M42.24,16.274c0,0.146-0.016,0.305-0.047,0.478l-0.137,0.737c-0.288,1.524-1.153,2.284-2.604,2.284
						c-0.396,0-0.732-0.082-1.011-0.251c-0.281-0.167-0.491-0.388-0.626-0.668c-0.139-0.275-0.206-0.583-0.206-0.92
						c0-0.165,0.012-0.312,0.034-0.445l0.141-0.737c0.144-0.759,0.431-1.326,0.87-1.71c0.437-0.382,1.015-0.575,1.736-0.575
						c0.421,0,0.77,0.081,1.048,0.244c0.279,0.161,0.481,0.378,0.61,0.653C42.177,15.636,42.24,15.938,42.24,16.274z M41.014,16.347
						c0-0.278-0.067-0.486-0.2-0.627c-0.133-0.139-0.333-0.208-0.604-0.208c-0.304,0-0.561,0.098-0.77,0.292
						c-0.212,0.197-0.356,0.512-0.437,0.948l-0.141,0.737c-0.024,0.133-0.035,0.27-0.035,0.408c0,0.554,0.27,0.833,0.809,0.833
						c0.651,0,1.049-0.412,1.204-1.241l0.135-0.737C41.001,16.626,41.014,16.491,41.014,16.347z"/>
				</g>
				<g>
					<path fill="#221916" d="M25.494,20.712c0,0.011-0.002,0.022-0.006,0.029c0,0.01-0.002,0.022-0.006,0.038l-0.103,0.586
						c-0.012,0.047-0.036,0.09-0.083,0.127c-0.045,0.037-0.09,0.057-0.137,0.057h-1.883c-0.271,0-0.469,0.056-0.596,0.168
						c-0.126,0.11-0.216,0.318-0.271,0.62l-0.174,0.988h2.497c0.047,0,0.085,0.017,0.116,0.049c0.028,0.032,0.043,0.069,0.043,0.108
						v0.017v0.012l-0.119,0.655c-0.012,0.053-0.04,0.096-0.085,0.131c-0.041,0.036-0.09,0.053-0.137,0.053h-2.501l-0.202,1.186
						c-0.018,0.117-0.026,0.219-0.026,0.303c0,0.178,0.047,0.304,0.141,0.378c0.095,0.071,0.254,0.109,0.478,0.109h1.88
						c0.097,0,0.146,0.046,0.146,0.144v0.03v0.011l-0.1,0.585c-0.015,0.11-0.09,0.174-0.221,0.192
						c-0.069,0.012-0.153,0.022-0.256,0.039c-0.104,0.016-0.249,0.03-0.442,0.047c-0.192,0.014-0.352,0.024-0.476,0.03
						c-0.129,0.006-0.329,0.008-0.601,0.008c-0.553,0-0.996-0.114-1.33-0.351c-0.337-0.234-0.501-0.598-0.501-1.094
						c0-0.151,0.009-0.296,0.033-0.432l0.563-3.198c0.073-0.401,0.18-0.727,0.328-0.979c0.147-0.251,0.325-0.443,0.529-0.573
						c0.206-0.131,0.435-0.217,0.689-0.262s0.56-0.067,0.917-0.067c0.489,0,0.847,0.011,1.073,0.033
						c0.225,0.022,0.443,0.055,0.661,0.098C25.439,20.603,25.494,20.647,25.494,20.712z"/>
					<path fill="#221916" d="M29.179,20.455v0.019l-0.092,0.541c-0.006,0.049-0.03,0.088-0.062,0.114
						c-0.036,0.028-0.071,0.043-0.104,0.043h-0.414c-0.158,0-0.276,0.014-0.355,0.045c-0.078,0.024-0.143,0.081-0.186,0.159
						c-0.045,0.079-0.08,0.195-0.106,0.347l-0.082,0.447h0.882c0.104,0,0.159,0.051,0.159,0.157v0.028l-0.102,0.549
						c-0.007,0.051-0.031,0.094-0.074,0.125c-0.04,0.032-0.087,0.049-0.136,0.049h-0.887l-0.766,4.319
						c-0.073,0.406-0.191,0.719-0.356,0.935c-0.164,0.217-0.365,0.357-0.603,0.429c-0.24,0.067-0.535,0.103-0.896,0.103
						c-0.136,0-0.312-0.023-0.542-0.07c-0.035-0.006-0.065-0.021-0.095-0.045c-0.03-0.02-0.043-0.051-0.043-0.087v-0.017l0.09-0.541
						c0.019-0.104,0.072-0.157,0.164-0.157h0.414c0.225,0,0.378-0.037,0.465-0.112c0.086-0.073,0.147-0.217,0.187-0.437l0.766-4.319
						l-0.807-0.131c-0.096-0.016-0.146-0.065-0.146-0.146v-0.026l0.072-0.419c0.01-0.055,0.034-0.1,0.073-0.135
						c0.037-0.032,0.084-0.051,0.141-0.051h0.818l0.084-0.447c0.062-0.324,0.146-0.582,0.253-0.781
						c0.11-0.194,0.237-0.342,0.39-0.439c0.153-0.098,0.325-0.163,0.517-0.197c0.19-0.031,0.425-0.052,0.698-0.052
						c0.127,0,0.305,0.024,0.543,0.073c0.033,0.003,0.065,0.017,0.094,0.041C29.165,20.39,29.179,20.42,29.179,20.455z"/>
					<path fill="#221916" d="M30.358,27.411c-0.306,0-0.575-0.036-0.811-0.112c-0.236-0.075-0.44-0.193-0.614-0.354
						c-0.173-0.157-0.306-0.354-0.397-0.582c-0.09-0.227-0.135-0.49-0.135-0.788c0-0.208,0.016-0.39,0.045-0.551l0.105-0.569
						c0.146-0.833,0.438-1.433,0.876-1.797c0.437-0.365,1.019-0.549,1.751-0.549c0.589,0,1.039,0.172,1.346,0.517
						c0.309,0.345,0.465,0.798,0.465,1.359c0,0.155-0.016,0.329-0.047,0.522l-0.077,0.439c-0.026,0.154-0.1,0.232-0.221,0.232
						h-3.007c-0.03,0.21-0.045,0.333-0.045,0.377c0,0.268,0.076,0.474,0.229,0.612c0.156,0.14,0.426,0.211,0.812,0.211
						c0.471,0,1.014-0.098,1.631-0.286c0.02-0.008,0.045-0.01,0.089-0.01c0.058,0,0.09,0.03,0.09,0.094
						c0,0.024-0.004,0.045-0.01,0.063l-0.104,0.584c-0.01,0.061-0.03,0.107-0.059,0.135c-0.031,0.03-0.09,0.068-0.182,0.109
						c-0.161,0.067-0.323,0.121-0.486,0.168c-0.163,0.045-0.359,0.088-0.59,0.122C30.785,27.397,30.568,27.411,30.358,27.411z
						 M31.789,23.966c0-0.267-0.069-0.468-0.204-0.606s-0.336-0.208-0.592-0.208c-0.659,0-1.059,0.39-1.198,1.162h1.956
						C31.775,24.176,31.789,24.058,31.789,23.966z"/>
					<path fill="#221916" d="M35.071,27.411c-0.259,0-0.493-0.038-0.704-0.118c-0.212-0.083-0.401-0.202-0.563-0.365
						c-0.163-0.163-0.289-0.351-0.369-0.565c-0.084-0.212-0.124-0.449-0.124-0.71c0-0.125,0.014-0.28,0.043-0.464l0.159-0.855
						c0.107-0.551,0.275-0.995,0.512-1.322c0.235-0.328,0.517-0.56,0.844-0.696c0.326-0.139,0.693-0.206,1.1-0.206
						c0.404,0,0.8,0.097,1.18,0.29c0.112,0.06,0.165,0.122,0.165,0.186c0,0.011,0,0.021,0,0.028
						c-0.002,0.005-0.004,0.015-0.006,0.022l-0.114,0.552c-0.008,0.105-0.061,0.157-0.148,0.157c-0.029,0-0.054-0.006-0.071-0.009
						c-0.466-0.134-0.817-0.2-1.058-0.2c-0.322,0-0.584,0.088-0.776,0.264c-0.191,0.18-0.328,0.49-0.41,0.935l-0.157,0.855
						c-0.03,0.192-0.045,0.345-0.045,0.445c0,0.261,0.065,0.451,0.2,0.573c0.129,0.119,0.333,0.18,0.612,0.18
						c0.271,0,0.647-0.073,1.135-0.219c0.015-0.004,0.045-0.01,0.084-0.01c0.058,0,0.09,0.03,0.09,0.09
						c0,0.024-0.002,0.047-0.01,0.067l-0.106,0.623c-0.01,0.059-0.033,0.107-0.069,0.139c-0.033,0.034-0.096,0.063-0.174,0.098
						c-0.159,0.069-0.339,0.127-0.547,0.171C35.535,27.391,35.312,27.411,35.071,27.411z"/>
					<path fill="#221916" d="M40.824,22.327v0.028l-0.09,0.539c-0.009,0.049-0.035,0.092-0.08,0.127
						c-0.047,0.04-0.092,0.057-0.141,0.057h-0.827l-0.51,2.882c-0.03,0.147-0.045,0.253-0.045,0.314
						c0,0.078,0.021,0.129,0.067,0.155c0.045,0.026,0.127,0.039,0.243,0.039h0.491c0.108,0,0.166,0.036,0.166,0.11v0.028
						l-0.103,0.575c-0.019,0.093-0.086,0.151-0.204,0.166c-0.268,0.043-0.478,0.062-0.635,0.062c-0.421,0-0.734-0.077-0.943-0.236
						c-0.208-0.159-0.313-0.414-0.313-0.77c0-0.114,0.018-0.262,0.044-0.445l0.511-2.882l-0.847-0.131
						c-0.101-0.008-0.149-0.059-0.149-0.153v-0.028l0.073-0.41c0.009-0.055,0.031-0.1,0.069-0.135
						c0.041-0.032,0.09-0.051,0.142-0.051h0.869l0.141-0.751c0.017-0.103,0.088-0.163,0.21-0.185l0.884-0.148h0.041
						c0.086,0,0.127,0.037,0.127,0.114v0.024l-0.178,0.945h0.833c0.051,0,0.086,0.016,0.112,0.043
						C40.812,22.241,40.824,22.28,40.824,22.327z"/>
					<path fill="#221916" d="M42.561,22.327v0.028l-0.845,4.795c-0.01,0.047-0.039,0.094-0.082,0.133
						c-0.044,0.039-0.094,0.059-0.145,0.059h-0.847c-0.041,0-0.076-0.016-0.106-0.047c-0.028-0.032-0.041-0.069-0.041-0.112V27.15
						l0.852-4.795c0.01-0.055,0.032-0.1,0.075-0.135c0.039-0.032,0.084-0.051,0.133-0.051h0.85
						C42.506,22.17,42.561,22.221,42.561,22.327z M42.924,20.465v0.025l-0.15,0.808c-0.009,0.054-0.035,0.099-0.076,0.133
						c-0.043,0.033-0.09,0.049-0.137,0.049h-0.897c-0.037,0-0.08-0.014-0.114-0.042c-0.031-0.027-0.052-0.063-0.052-0.108v-0.031
						l0.149-0.808c0.01-0.047,0.037-0.09,0.082-0.125c0.045-0.037,0.092-0.057,0.139-0.057h0.897
						C42.869,20.309,42.924,20.359,42.924,20.465z"/>
					<path fill="#221916" d="M47.681,22.292c0,0.035-0.005,0.065-0.017,0.088l-1.902,4.171c-0.143,0.313-0.327,0.534-0.556,0.665
						c-0.232,0.131-0.479,0.195-0.747,0.195c-0.608,0-0.94-0.283-0.994-0.86l-0.424-4.171v-0.015c0-0.051,0.018-0.098,0.051-0.137
						c0.036-0.038,0.075-0.059,0.12-0.059H44.1c0.095,0,0.149,0.062,0.159,0.186l0.2,3.84c0.009,0.152,0.056,0.23,0.141,0.23
						c0.072,0,0.144-0.078,0.209-0.23l1.569-3.84c0.045-0.124,0.12-0.186,0.221-0.186h0.961
						C47.64,22.17,47.681,22.209,47.681,22.292z"/>
					<path fill="#221916" d="M51.842,23.911c0,0.146-0.018,0.308-0.047,0.479l-0.141,0.737c-0.285,1.524-1.153,2.283-2.601,2.283
						c-0.396,0-0.73-0.081-1.012-0.249c-0.28-0.169-0.49-0.392-0.625-0.667c-0.139-0.279-0.206-0.584-0.206-0.921
						c0-0.165,0.012-0.312,0.034-0.446l0.142-0.737c0.143-0.758,0.428-1.329,0.865-1.709c0.438-0.383,1.019-0.573,1.743-0.573
						c0.416,0,0.764,0.08,1.043,0.241s0.483,0.379,0.61,0.651C51.775,23.272,51.842,23.578,51.842,23.911z M50.615,23.984
						c0-0.279-0.067-0.486-0.2-0.625c-0.134-0.139-0.337-0.208-0.605-0.208c-0.305,0-0.562,0.097-0.771,0.294
						c-0.211,0.194-0.357,0.509-0.436,0.945l-0.141,0.737c-0.022,0.134-0.037,0.271-0.037,0.407c0,0.558,0.271,0.835,0.814,0.835
						c0.646,0,1.046-0.414,1.201-1.242l0.132-0.737C50.6,24.266,50.615,24.131,50.615,23.984z"/>
				</g>
			</g>
			<g>
				<path fill-rule="evenodd" clip-rule="evenodd" fill="#FFFFFF" d="M20.343,19.594c-0.09-0.29-0.337-0.602-0.606-0.88
					c0.013,0.007,0.028,0.017,0.041,0.026c0,0-4.801-4.75-12.159-7.305c0,0-1.295-0.565-2.254,0.461
					c-0.266,0.283-0.438,0.811-0.553,1.277c-0.021,0.074-0.037,0.149-0.05,0.215c-0.065,0.302-0.105,0.551-0.13,0.643l0.002-0.002
					c-0.423,2.127-1.168,7.212-0.104,12.986c0,0,0.243,1.529,1.594,1.686c0.79,0.092,1.381-0.167,2.154-0.475
					c2.129-0.741,6.909-2.688,11.336-6.463C19.613,21.764,20.755,20.935,20.343,19.594z"/>
				<g>
					<path fill-rule="evenodd" clip-rule="evenodd" fill="#FDC80A" d="M6.664,12.898c0,0,9.347,2.864,12.37,6.218
						c0,0-7.302,7.483-11.805,8.832c0,0-2.816-7.152-1.945-13.631C5.284,14.317,5.421,12.472,6.664,12.898z"/>
					<path fill-rule="evenodd" clip-rule="evenodd" fill="#E2AC00" d="M7.495,27.86c0,0,5.963-1.62,11.349-6.213
						c0,0,1.039-0.755,0.664-1.976c-0.192-0.621-1.192-1.362-1.359-1.527C18.148,18.145,18.285,21.998,7.495,27.86z"/>
					<path fill-rule="evenodd" clip-rule="evenodd" fill="#FFD980" d="M18.993,18.894c0,0-4.37-4.319-11.065-6.646
						c0,0-1.182-0.517-2.054,0.42c-0.444,0.478-0.609,1.719-0.667,1.941C5.207,14.609,8.478,12.563,18.993,18.894z"/>
					<path fill-rule="evenodd" clip-rule="evenodd" fill="#F1B801" d="M5.426,13.647c0,0-1.589,5.845-0.309,12.78
						c0,0,0.219,1.393,1.447,1.535c0.751,0.086,1.303-0.172,2.056-0.468C8.62,27.495,5.087,25.862,5.426,13.647z"/>
					<path fill="#1D1E1C" d="M14.112,16.54c-0.61-0.373-1.467-0.558-2.571-0.558c-1.054,0-1.97,0.05-2.75,0.157
						c-0.15,0.019-0.265,0.056-0.347,0.108c-0.081,0.051-0.137,0.133-0.169,0.247l-0.215,1.054h3.02l0.158-0.97l1.966,2.378
						l-2.735,2.335l0.178-1.084H7.521l-0.92,4.518v0.012v0.033c0,0.061,0.021,0.106,0.061,0.141
						c0.041,0.035,0.094,0.055,0.157,0.055h1.389c0.071,0,0.141-0.022,0.202-0.067c0.064-0.045,0.102-0.104,0.116-0.173l0.637-2.707
						c0.049,0,0.124,0.004,0.227,0.009c0.102,0.006,0.208,0.01,0.318,0.014s0.229,0.011,0.355,0.015
						c0.128,0.006,0.234,0.01,0.324,0.01c0.768,0,1.455-0.081,2.06-0.24s1.125-0.443,1.562-0.855
						c0.437-0.41,0.749-1.393,0.938-2.121l0.033-0.104c0.026-0.098,0.039-0.236,0.039-0.42v-0.188
						C15.02,17.444,14.719,16.91,14.112,16.54z"/>
				</g>
			</g>
		</g>
	</g>
</g>
</svg>
