<?xml version="1.0" encoding="utf-8"?>
<!-- Generator: Adobe Illustrator 16.0.0, SVG Export Plug-In . SVG Version: 6.00 Build 0)  -->
<!DOCTYPE svg PUBLIC "-//W3C//DTD SVG 1.1//EN" "http://www.w3.org/Graphics/SVG/1.1/DTD/svg11.dtd">
<svg version="1.1" id="Capa_1" xmlns="http://www.w3.org/2000/svg" xmlns:xlink="http://www.w3.org/1999/xlink" x="0px" y="0px"
	 width="42.127px" height="40px" viewBox="0 0 42.127 40" enable-background="new 0 0 42.127 40" xml:space="preserve">
<g>
	<path fill="#1E3663" d="M42.127,33.941c0,0.755-0.611,1.37-1.37,1.37H1.372C0.611,35.312,0,34.696,0,33.941v-23.26
		c0-0.757,0.611-1.37,1.372-1.37h39.385c0.759,0,1.37,0.613,1.37,1.37V33.941z"/>
	<path fill="#06579D" d="M3.112,9.312c0,0-2.344,0.555-1.789,3.144l6.043,16.656c0,0,0.741,1.171,3.147,1.417l22.208,3.087
		c0,0,4.009,1.354,5.117-3.024l3.642-12.15l0.061-5.985c0,0,0.493-3.081-3.33-3.144H3.112z"/>
	<path fill="#448FCC" d="M3.607,9.312l3.427,17.476c0,0,0.169,1.325,1.663,1.325l23.338,0.973c0,0,2.275,0.78,3.313-3.12
		l3.059-16.641L3.607,9.312z"/>
	<g>
		<path fill="#FFFFFF" d="M7.077,19.509H2.843l-1.06,6.299l2.233,0.048l0.59-2.318H5.55c3.046-0.153,3.339-1.979,3.339-1.979
			C8.86,19.918,7.077,19.509,7.077,19.509z M6.326,21.765c-0.179,0.732-1.675,0.597-1.675,0.597l0.297-1.714
			C7.022,20.397,6.326,21.765,6.326,21.765z"/>
		<path fill="#FFFFFF" d="M15.438,21.194c0,0-0.021-1.622-1.979-1.622L9.25,19.555l-0.924,6.237l2.352,0.018l0.303-2.512
			c0,0,1.745-0.126,1.551,2.441h2.373c0,0-0.234-2.121-1.215-2.957C13.689,22.782,15.473,22.458,15.438,21.194z M11.249,22.371
			l0.229-1.873c0,0,1.32-0.303,1.498,0.625C12.977,21.123,12.887,22.621,11.249,22.371z"/>
		<path fill="#FFFFFF" d="M38.626,21.674c-0.236-2.14-2.613-2.187-2.613-2.187c-2.424-0.045-3.328,0.667-3.328,0.667l-0.095-0.62
			h-5.801l-0.093-0.853c-4.756-0.24-5.371,0.95-5.371,0.95c-1.046,1.425-0.097,2.283-0.097,2.283
			c0.619,0.759,2.474,1.567,2.474,1.567c1.614,1.331-0.142,1.76-0.142,1.76h-2.615l0.048-0.761l-3.281-0.099l0.286-1.282h2.233
			l0.095-1.14l-2.139-0.144l0.19-1.094l1.854-0.096l0.142-1.127l-4.366,0.054l-0.813,6.255l5.395-0.262l0.023,0.811l3.564,0.023
			c2.971-0.146,2.923-1.951,2.923-1.951c0.024-1.617-2.638-2.613-2.638-2.613c-1.473-0.761-0.973-1.308-0.973-1.308
			c0.475-0.853,2.758-0.427,2.758-0.427l0.068,0.641l1.854-0.023l-0.69,5.062l2.164,0.023l0.929-4.987l1.353-0.024
			c-1.188,2.136-0.077,3.912-0.077,3.912l-0.018,0.03c1.282,1.713,3.85,0.999,3.85,0.999C39.197,25.144,38.626,21.674,38.626,21.674
			z M35.904,23.5c0,0-0.602,1.3-1.527,1.161c0,0-1.113,0-0.511-2.364c0,0,0.604-1.673,1.53-1.624
			C35.396,20.673,36.742,20.903,35.904,23.5z"/>
		<g>
			<path fill="#FFFFFF" d="M39.642,18.245c0.397,0,0.702,0.305,0.702,0.686c0,0.392-0.305,0.692-0.706,0.692
				c-0.393,0-0.707-0.301-0.707-0.692c0-0.381,0.314-0.686,0.707-0.686H39.642z M39.636,18.385c-0.304,0-0.53,0.245-0.53,0.546
				c0,0.307,0.227,0.551,0.536,0.551c0.301,0.002,0.527-0.244,0.527-0.551c0-0.301-0.227-0.546-0.531-0.546H39.636z M39.532,19.289
				h-0.161v-0.685c0.062-0.014,0.151-0.023,0.265-0.023c0.128,0,0.188,0.02,0.238,0.055c0.039,0.03,0.067,0.082,0.067,0.146
				c0,0.081-0.058,0.14-0.145,0.165v0.007c0.068,0.021,0.104,0.074,0.126,0.169c0.02,0.105,0.035,0.146,0.052,0.167h-0.172
				c-0.021-0.025-0.035-0.085-0.055-0.163c-0.012-0.078-0.055-0.11-0.142-0.11h-0.074V19.289z M39.535,18.901h0.076
				c0.086,0,0.156-0.029,0.156-0.1c0-0.062-0.045-0.106-0.146-0.106c-0.041,0-0.07,0.006-0.087,0.012V18.901z"/>
		</g>
	</g>
</g>
</svg>
