<?xml version="1.0" encoding="utf-8"?>
<!-- Generator: Adobe Illustrator 16.0.0, SVG Export Plug-In . SVG Version: 6.00 Build 0)  -->
<!DOCTYPE svg PUBLIC "-//W3C//DTD SVG 1.1//EN" "http://www.w3.org/Graphics/SVG/1.1/DTD/svg11.dtd">
<svg version="1.1" id="Capa_1" xmlns="http://www.w3.org/2000/svg" xmlns:xlink="http://www.w3.org/1999/xlink" x="0px" y="0px"
	 width="65.539px" height="40px" viewBox="0 0 65.539 40" enable-background="new 0 0 65.539 40" xml:space="preserve">
<g>
	<path fill-rule="evenodd" clip-rule="evenodd" fill="#636366" d="M0,10.659c0,0,0.01-0.002,0.012-0.004
		c0.09-0.172,0.252-0.217,0.426-0.238c0.33-0.045,0.662-0.08,0.992-0.104c0.523-0.035,1.051-0.049,1.574-0.027
		c0.543,0.023,1.078,0.1,1.58,0.326c0.588,0.266,1.014,0.689,1.25,1.297c0.096,0.242,0.141,0.494,0.156,0.754
		c0.027,0.396,0.023,0.791-0.074,1.178c-0.197,0.773-0.68,1.303-1.402,1.617c-0.367,0.16-0.754,0.23-1.148,0.279
		c-0.5,0.059-0.998,0.041-1.496,0.004c-0.074-0.004-0.166-0.037-0.219,0.006c-0.055,0.047-0.02,0.143-0.02,0.215
		c-0.002,0.896,0,1.791,0,2.688c0,0.027,0,0.059-0.002,0.088c-0.002,0.16-0.086,0.246-0.248,0.248
		c-0.256,0.004-0.514,0.002-0.773,0.002c-0.1,0-0.199-0.004-0.299,0c-0.109,0.004-0.197-0.025-0.258-0.119
		C0.039,18.851,0.025,18.835,0,18.837C0,16.11,0,13.386,0,10.659z M1.631,13.024c0,0.416,0,0.832,0,1.25c0,0.027,0,0.057,0,0.086
		s0.014,0.047,0.045,0.049c0.027,0.002,0.055,0.004,0.086,0.004c0.25,0.01,0.498,0.016,0.748,0.029
		c0.326,0.016,0.648-0.006,0.965-0.088c0.471-0.121,0.766-0.42,0.869-0.896C4.4,13.2,4.398,12.935,4.367,12.673
		c-0.059-0.484-0.324-0.805-0.799-0.949c-0.217-0.064-0.438-0.102-0.664-0.113c-0.387-0.016-0.771,0.012-1.16,0.027
		c-0.113,0.004-0.113,0.008-0.113,0.123C1.629,12.183,1.631,12.603,1.631,13.024z"/>
	<path fill-rule="evenodd" clip-rule="evenodd" fill="#636366" d="M10.377,15.714c0-0.199-0.004-0.4,0-0.6
		c0.012-0.486,0.107-0.951,0.33-1.385c0.332-0.656,0.867-1.068,1.568-1.26c0.576-0.156,1.164-0.16,1.74,0
		c0.945,0.262,1.527,0.891,1.787,1.83c0.082,0.295,0.117,0.596,0.119,0.9c0.004,0.387,0.012,0.775-0.004,1.162
		c-0.021,0.453-0.109,0.891-0.311,1.301c-0.328,0.672-0.859,1.105-1.578,1.301c-0.576,0.158-1.164,0.164-1.742,0.008
		c-0.928-0.252-1.516-0.863-1.781-1.783c-0.09-0.305-0.131-0.619-0.129-0.938C10.377,16.071,10.377,15.894,10.377,15.714z
		 M14.377,15.728c0.004,0,0.004,0,0.004,0c0-0.172,0-0.342,0.002-0.512c0.002-0.178-0.018-0.352-0.057-0.521
		c-0.053-0.236-0.143-0.453-0.301-0.639c-0.262-0.305-0.613-0.389-0.992-0.363c-0.482,0.031-0.805,0.287-0.984,0.73
		c-0.098,0.248-0.137,0.506-0.141,0.77c-0.006,0.35-0.006,0.701,0,1.051c0.006,0.322,0.059,0.639,0.215,0.928
		c0.162,0.301,0.406,0.49,0.744,0.555c0.141,0.025,0.283,0.025,0.424,0.014c0.402-0.031,0.697-0.227,0.885-0.582
		c0.131-0.244,0.191-0.508,0.199-0.779C14.385,16.161,14.377,15.944,14.377,15.728z"/>
	<path fill-rule="evenodd" clip-rule="evenodd" fill="#636366" d="M26.803,12.89c0.062-0.008,0.104-0.041,0.143-0.066
		c0.357-0.217,0.736-0.373,1.152-0.426c0.473-0.061,0.947-0.07,1.408,0.084c0.412,0.137,0.709,0.408,0.896,0.801
		c0.127,0.27,0.191,0.559,0.229,0.852c0.041,0.318,0.049,0.639,0.047,0.961c-0.002,1.184-0.002,2.367-0.002,3.549
		c0,0.029,0.004,0.059,0,0.088c-0.004,0.154-0.096,0.248-0.248,0.254c-0.092,0.004-0.184,0.002-0.275,0.002
		c-0.244,0-0.492-0.006-0.736,0c-0.158,0.006-0.27-0.109-0.273-0.262c0-0.037,0-0.074,0-0.113c0-1.258,0-2.516-0.002-3.773
		c0-0.18-0.002-0.359-0.029-0.537c-0.01-0.045-0.018-0.09-0.025-0.133c-0.059-0.256-0.217-0.408-0.471-0.461
		c-0.357-0.072-0.713-0.057-1.061,0.064c-0.215,0.074-0.424,0.17-0.627,0.273c-0.053,0.023-0.08,0.055-0.072,0.115
		c0.002,0.027,0,0.059,0,0.086c0,1.459,0,2.918,0,4.377c0,0.037,0.002,0.074,0,0.111c-0.006,0.145-0.1,0.248-0.242,0.25
		c-0.35,0.004-0.701,0.002-1.049,0c-0.127-0.002-0.213-0.078-0.236-0.201c-0.01-0.043-0.012-0.09-0.012-0.137
		c0-1.957,0-3.916,0-5.873c0-0.025-0.002-0.051,0-0.076c0.012-0.166,0.105-0.258,0.273-0.26c0.285,0,0.568,0,0.852,0
		c0.033,0,0.066,0,0.1,0c0.16,0.006,0.252,0.098,0.26,0.26C26.805,12.759,26.803,12.821,26.803,12.89z"/>
	<path fill-rule="evenodd" clip-rule="evenodd" fill="#636366" d="M42.713,18.579c-0.129,0.066-0.24,0.127-0.352,0.182
		c-0.428,0.211-0.879,0.33-1.361,0.314c-0.271-0.008-0.541-0.033-0.799-0.123c-0.623-0.221-0.979-0.674-1.086-1.316
		c-0.062-0.357-0.062-0.723,0.016-1.08c0.119-0.547,0.439-0.934,0.945-1.168c0.305-0.141,0.631-0.207,0.961-0.254
		c0.477-0.064,0.957-0.045,1.436-0.049c0.184-0.002,0.162,0.023,0.16-0.158c0-0.211,0.012-0.424-0.021-0.635
		c-0.012-0.084-0.031-0.164-0.062-0.242c-0.053-0.133-0.141-0.232-0.271-0.297c-0.168-0.08-0.348-0.113-0.531-0.117
		c-0.66-0.012-1.316,0.018-1.973,0.084c-0.066,0.006-0.131,0.01-0.197-0.008c-0.082-0.021-0.115-0.055-0.115-0.141
		c-0.004-0.27-0.004-0.541-0.002-0.812c0.002-0.109,0.072-0.176,0.174-0.199c0.113-0.027,0.229-0.049,0.344-0.068
		c0.613-0.094,1.232-0.152,1.854-0.127c0.447,0.02,0.885,0.094,1.295,0.293c0.549,0.27,0.865,0.711,0.984,1.305
		c0.037,0.191,0.055,0.387,0.055,0.584c-0.002,1.375,0,2.75,0,4.125c0,0.02,0,0.041,0,0.062c-0.006,0.158-0.088,0.248-0.248,0.252
		c-0.158,0.004-0.316,0.002-0.475,0.002c-0.15,0-0.301,0-0.451-0.002c-0.189-0.002-0.275-0.09-0.277-0.273
		C42.713,18.675,42.713,18.636,42.713,18.579z M42.635,16.823c0-0.207-0.002-0.416,0-0.623c0-0.061-0.012-0.092-0.08-0.092
		c-0.303,0.006-0.602-0.002-0.902,0.01c-0.193,0.006-0.389,0.039-0.572,0.115c-0.258,0.104-0.408,0.287-0.447,0.566
		c-0.02,0.141-0.029,0.281-0.021,0.422c0.02,0.398,0.184,0.568,0.58,0.615c0.488,0.062,0.939-0.061,1.373-0.271
		c0.053-0.025,0.072-0.059,0.07-0.115C42.633,17.241,42.635,17.032,42.635,16.823z"/>
	<path fill-rule="evenodd" clip-rule="evenodd" fill="#636366" d="M17.045,12.438c0.164,0,0.332,0,0.5,0
		c0.209,0,0.281,0.055,0.33,0.262c0.051,0.223,0.1,0.445,0.15,0.668c0.291,1.266,0.58,2.531,0.871,3.795
		c0.027,0.125,0.057,0.252,0.084,0.379c0.014,0.057,0.031,0.111,0.062,0.162c0.082,0.137,0.225,0.137,0.305-0.002
		c0.031-0.055,0.049-0.115,0.062-0.176c0.1-0.43,0.197-0.859,0.295-1.289c0.268-1.168,0.537-2.336,0.805-3.504
		c0.01-0.039,0.021-0.08,0.035-0.119c0.045-0.117,0.129-0.178,0.258-0.176c0.367,0.002,0.732,0,1.1,0
		c0.178,0.002,0.248,0.094,0.205,0.27c-0.045,0.178-0.098,0.354-0.145,0.529c-0.439,1.58-0.875,3.158-1.312,4.738
		c-0.066,0.244-0.162,0.473-0.336,0.66c-0.225,0.244-0.51,0.371-0.832,0.42c-0.24,0.037-0.48,0.029-0.719-0.027
		c-0.486-0.117-0.801-0.428-0.959-0.895c-0.119-0.346-0.201-0.703-0.301-1.057c-0.398-1.43-0.795-2.861-1.191-4.293
		c-0.012-0.039-0.025-0.08-0.029-0.121c-0.014-0.145,0.051-0.221,0.197-0.223c0.15-0.004,0.301-0.002,0.451-0.002
		C16.969,12.438,17.006,12.438,17.045,12.438z"/>
	<path fill-rule="evenodd" clip-rule="evenodd" fill="#0CA7DF" d="M30.002,23.403c0,0.045,0,0.088,0,0.133c0,1.793,0,3.584,0,5.375
		c0,0.037,0.002,0.076,0,0.113c-0.014,0.184-0.143,0.307-0.326,0.311c-0.033,0-0.066,0.002-0.1,0
		c-0.15-0.008-0.258-0.094-0.297-0.24c-0.016-0.057-0.02-0.115-0.02-0.174c0-2,0-4,0-6c0-0.033,0.004-0.066,0.004-0.1
		c0.025-0.543,0.562-0.664,0.893-0.527c0.143,0.059,0.229,0.176,0.297,0.307c0.113,0.219,0.221,0.439,0.33,0.66
		c0.576,1.154,1.15,2.311,1.727,3.465c0.232,0.467,0.465,0.932,0.697,1.396c0.018,0.035,0.029,0.076,0.08,0.119
		c0-0.062,0-0.104,0-0.146c0-1.793,0-3.584,0-5.375c0-0.072-0.002-0.143,0.02-0.211c0.043-0.135,0.145-0.213,0.287-0.221
		c0.012-0.002,0.023-0.002,0.037-0.002c0.275-0.004,0.396,0.117,0.396,0.393c0,2.021,0,4.043,0,6.062c0,0.186-0.041,0.355-0.18,0.49
		c-0.102,0.1-0.225,0.146-0.369,0.158c-0.322,0.027-0.523-0.123-0.662-0.402c-0.902-1.816-1.809-3.629-2.715-5.445
		c-0.023-0.047-0.049-0.094-0.072-0.143C30.02,23.401,30.012,23.403,30.002,23.403z"/>
	<path fill-rule="evenodd" clip-rule="evenodd" fill="#636366" d="M33.021,15.772c0.004,0.225-0.01,0.496,0.01,0.766
		c0.014,0.215,0.062,0.418,0.146,0.615c0.174,0.404,0.484,0.609,0.916,0.615c0.5,0.006,1,0.006,1.496-0.072
		c0.041-0.008,0.084-0.008,0.125,0c0.107,0.018,0.154,0.066,0.154,0.176c0.006,0.262,0.006,0.525,0,0.787
		c-0.004,0.16-0.049,0.209-0.203,0.258c-0.207,0.064-0.424,0.092-0.639,0.115c-0.326,0.037-0.656,0.049-0.984,0.043
		c-0.439-0.01-0.861-0.094-1.254-0.299c-0.518-0.27-0.863-0.693-1.08-1.23c-0.156-0.379-0.217-0.777-0.223-1.184
		c-0.004-0.428-0.004-0.859,0-1.287c0.008-0.51,0.104-1,0.348-1.455c0.35-0.646,0.891-1.029,1.604-1.188
		c0.406-0.088,0.818-0.082,1.23-0.059c0.32,0.018,0.639,0.057,0.949,0.137c0.033,0.008,0.064,0.018,0.096,0.027
		c0.088,0.029,0.141,0.086,0.148,0.18c0.004,0.037,0.01,0.076,0.01,0.111c0,0.23,0,0.459,0,0.688c0,0.178-0.07,0.244-0.244,0.229
		c-0.105-0.01-0.209-0.021-0.311-0.037c-0.203-0.027-0.406-0.023-0.611-0.031c-0.186-0.01-0.373-0.01-0.561-0.012
		c-0.098-0.002-0.193,0.012-0.285,0.033c-0.359,0.08-0.576,0.312-0.707,0.645c-0.094,0.244-0.129,0.498-0.131,0.758
		C33.02,15.31,33.021,15.519,33.021,15.772z"/>
	<path fill-rule="evenodd" clip-rule="evenodd" fill="#636366" d="M8.176,12.882c0.049,0,0.074-0.031,0.104-0.053
		c0.355-0.26,0.76-0.391,1.191-0.443c0.109-0.012,0.217-0.021,0.324-0.025c0.16-0.002,0.26,0.094,0.26,0.254
		c0.004,0.268,0.004,0.535,0,0.801c0,0.156-0.094,0.25-0.25,0.25c-0.521,0-1.01,0.131-1.477,0.361
		c-0.082,0.039-0.104,0.088-0.104,0.172c0.002,1.479,0.002,2.959,0.002,4.438c0,0.039,0.002,0.076-0.002,0.111
		c-0.012,0.139-0.104,0.236-0.244,0.238c-0.348,0.004-0.699,0.002-1.049,0c-0.131-0.002-0.215-0.082-0.236-0.215
		c-0.006-0.041-0.01-0.082-0.01-0.123c0-1.959,0-3.918,0-5.875c0-0.037,0-0.076,0.006-0.113c0.02-0.133,0.107-0.219,0.244-0.219
		c0.33-0.004,0.658-0.004,0.988,0c0.145,0.002,0.234,0.102,0.242,0.248C8.168,12.753,8.158,12.817,8.176,12.882z"/>
	<path fill-rule="evenodd" clip-rule="evenodd" fill="#0CA7DF" d="M34.961,25.806c0-0.777,0-1.559,0-2.338
		c0-0.113,0.012-0.225,0.029-0.336c0.076-0.436,0.344-0.689,0.764-0.791c0.146-0.037,0.295-0.055,0.445-0.055
		c0.771,0,1.543,0,2.312,0c0.029,0,0.059,0,0.088,0.006c0.041,0.008,0.082,0.016,0.119,0.033c0.137,0.064,0.191,0.203,0.166,0.408
		c-0.018,0.139-0.107,0.229-0.25,0.258c-0.055,0.012-0.107,0.012-0.162,0.012c-0.738,0-1.477-0.002-2.215,0
		c-0.078,0-0.158,0.002-0.234,0.01c-0.193,0.016-0.285,0.105-0.312,0.295c-0.006,0.051-0.006,0.1-0.006,0.15
		c-0.002,0.566-0.002,1.133-0.002,1.701c0,0.02,0.002,0.041,0,0.061c-0.002,0.047,0.016,0.07,0.064,0.068
		c0.033-0.002,0.066,0,0.102,0c0.883,0,1.766,0,2.648-0.002c0.076,0,0.15,0.004,0.219,0.043c0.166,0.092,0.16,0.25,0.148,0.404
		c-0.01,0.129-0.08,0.215-0.203,0.26c-0.061,0.021-0.123,0.02-0.186,0.02c-0.879,0-1.758,0-2.637,0c-0.029,0-0.059,0.002-0.088,0
		c-0.047-0.002-0.07,0.014-0.068,0.064c0.002,0.02,0,0.041,0,0.062c0,0.678,0,1.357,0,2.037c0,0.076,0.006,0.15,0.027,0.223
		c0.033,0.107,0.102,0.178,0.217,0.201c0.107,0.02,0.215,0.023,0.324,0.023c0.736,0,1.473,0,2.211,0c0.059,0,0.117,0,0.176,0.014
		c0.129,0.029,0.213,0.129,0.227,0.264c0.002,0.012,0.002,0.025,0.004,0.037c0.008,0.279-0.104,0.396-0.389,0.396
		c-0.777,0-1.557,0-2.338,0c-0.17,0-0.338-0.027-0.502-0.078c-0.4-0.125-0.619-0.402-0.678-0.814
		c-0.016-0.111-0.021-0.223-0.021-0.334C34.961,27.341,34.961,26.573,34.961,25.806z"/>
	<path fill-rule="evenodd" clip-rule="evenodd" fill="#636366" d="M22.717,15.696c0-0.965,0-1.932,0-2.898
		c0-0.029-0.002-0.059,0-0.086c0.004-0.182,0.088-0.271,0.268-0.273c0.166-0.002,0.334,0,0.5,0s0.332-0.002,0.5,0
		c0.166,0.002,0.262,0.1,0.268,0.264c0,0.025,0,0.051,0,0.076c0,1.951,0,3.906,0,5.859c0,0.037,0.002,0.074-0.002,0.113
		c-0.014,0.135-0.109,0.232-0.246,0.234c-0.35,0.004-0.699,0.004-1.049,0c-0.139-0.002-0.23-0.1-0.238-0.238
		c-0.004-0.035,0-0.068,0-0.102C22.717,17.663,22.717,16.681,22.717,15.696z"/>
	<path fill-rule="evenodd" clip-rule="evenodd" fill="#636366" d="M38.242,15.714c0,0.975,0,1.949,0,2.924
		c0,0.037,0.002,0.074,0,0.113C38.23,18.89,38.141,18.983,38,18.985c-0.344,0.004-0.691,0.004-1.037,0
		c-0.15-0.002-0.244-0.1-0.254-0.252c-0.004-0.037,0-0.074,0-0.111c0-1.941,0-3.883-0.004-5.824c0-0.266,0.104-0.371,0.361-0.361
		c0.297,0.012,0.592,0.002,0.889,0.002c0.203,0.002,0.287,0.086,0.287,0.289C38.242,13.724,38.242,14.718,38.242,15.714z"/>
	<path fill-rule="evenodd" clip-rule="evenodd" fill="#10A6DF" d="M41.258,26.056c0-0.963,0-1.926,0-2.889c0-0.031,0-0.064,0-0.1
		c0.004-0.047-0.018-0.066-0.064-0.066c-0.043,0.002-0.084,0-0.127,0c-0.453,0-0.908-0.002-1.361,0.002
		c-0.326,0.002-0.432-0.135-0.4-0.453c0.016-0.133,0.111-0.229,0.256-0.256c0.043-0.008,0.092-0.006,0.137-0.006
		c1.33-0.002,2.658-0.002,3.988-0.002c0.074,0,0.15,0,0.221,0.031c0.109,0.047,0.17,0.131,0.182,0.248c0.002,0.033,0,0.068,0,0.1
		c0,0.209-0.098,0.316-0.305,0.336c-0.037,0.002-0.074,0-0.113,0c-0.5,0-1,0-1.5,0c-0.016,0-0.031,0-0.049,0
		c-0.123,0.002-0.123,0.002-0.123,0.125c0,1.023,0,2.049,0,3.076c0,0.895,0,1.791,0,2.686c0,0.062-0.002,0.125-0.014,0.188
		c-0.006,0.047-0.025,0.088-0.051,0.125c-0.094,0.137-0.252,0.166-0.453,0.117c-0.141-0.033-0.223-0.16-0.223-0.324
		c0-0.77,0-1.541,0-2.312C41.258,26.474,41.258,26.265,41.258,26.056z"/>
	<path fill-rule="evenodd" clip-rule="evenodd" fill="#636366" d="M23.482,11.581c-0.176,0-0.352-0.006-0.525,0.002
		c-0.146,0.008-0.287-0.113-0.281-0.279c0.012-0.311,0.004-0.623,0.004-0.936c0-0.178,0.098-0.277,0.275-0.279
		c0.354-0.002,0.709-0.002,1.062,0c0.176,0.002,0.266,0.092,0.266,0.271c0,0.316,0,0.633,0,0.949c0,0.18-0.086,0.27-0.266,0.271
		C23.84,11.583,23.66,11.581,23.482,11.581z"/>
	<path fill-rule="evenodd" clip-rule="evenodd" fill="#636366" d="M37.482,10.089c0.174,0,0.35-0.002,0.525,0
		c0.178,0.002,0.27,0.092,0.27,0.27c0.002,0.318,0.002,0.641,0,0.961c0,0.17-0.09,0.26-0.264,0.26c-0.354,0.002-0.707,0.002-1.062,0
		c-0.184,0-0.271-0.094-0.273-0.279c0-0.307,0-0.615,0-0.924c0-0.195,0.094-0.285,0.293-0.287
		C37.143,10.087,37.312,10.089,37.482,10.089z"/>
	<path fill-rule="evenodd" clip-rule="evenodd" fill="#10A6DF" d="M55.857,30.015c-0.279,0.01-0.555-0.023-0.832-0.057
		c-0.594-0.066-1.176-0.184-1.744-0.369c-1.719-0.559-3.008-1.623-3.824-3.246c-0.369-0.734-0.605-1.512-0.748-2.32
		c-0.102-0.566-0.148-1.139-0.162-1.713c-0.006-0.256-0.008-0.51-0.008-0.764c0-3.438,0-6.875,0-10.311
		c0-0.305,0.068-0.586,0.262-0.828c0.188-0.234,0.443-0.346,0.73-0.396c0.027-0.006,0.059,0.004,0.08-0.025c2.766,0,5.533,0,8.301,0
		c0.059,0.088,0.059,0.105-0.002,0.184c-0.014,0.016-0.025,0.033-0.041,0.049c-0.463,0.502-0.928,1.002-1.389,1.506
		c-0.223,0.244-0.488,0.369-0.826,0.363c-0.617-0.01-1.234-0.002-1.85-0.002c-0.047,0-0.092-0.002-0.139,0.004
		c-0.162,0.02-0.252,0.117-0.26,0.281c0,0.039,0,0.076,0,0.113c0.016,3.195-0.029,6.391,0.025,9.586
		c0.006,0.408,0.059,0.807,0.18,1.195c0.324,1.037,0.98,1.773,2,2.17c0.629,0.244,1.289,0.316,1.963,0.301
		c0.281-0.006,0.359-0.09,0.359-0.373c0-1.088,0-2.174,0-3.262c0-0.033-0.002-0.068,0-0.102c0.006-0.135,0.08-0.229,0.211-0.258
		c0.061-0.014,0.121-0.02,0.186-0.012c0.111,0.014,0.223,0.023,0.336,0.027c0.777,0.037,1.547-0.023,2.307-0.197
		c0.781-0.18,1.52-0.469,2.191-0.91c1.021-0.666,1.746-1.582,2.223-2.697c0.014-0.031,0.025-0.062,0.041-0.092
		c0.025-0.051,0.064-0.061,0.111-0.023c0,3.643,0,7.283,0,10.926c-0.035,0.057-0.02,0.123-0.035,0.182
		c-0.164,0.664-0.707,1.039-1.336,1.072c-0.045-0.002-0.092-0.004-0.139-0.004c-2.469,0-4.938,0-7.408,0
		C56.367,30.013,56.113,30.015,55.857,30.015z"/>
	<path fill-rule="evenodd" clip-rule="evenodd" fill="#FFFFFF" d="M57.914,9.985c0.057,0.088,0.057,0.105-0.004,0.184
		c-0.014,0.016-0.025,0.033-0.041,0.049c-0.463,0.502-0.928,1.002-1.389,1.506c-0.223,0.244-0.488,0.369-0.826,0.363
		c-0.617-0.01-1.234-0.002-1.85-0.002c-0.047,0-0.092-0.002-0.139,0.004c-0.162,0.02-0.252,0.117-0.26,0.281
		c0,0.039,0,0.076,0,0.113c0.016,3.195-0.029,6.391,0.025,9.586c0.006,0.408,0.059,0.807,0.18,1.195c0.324,1.037,0.98,1.773,2,2.17
		c0.629,0.244,1.289,0.316,1.963,0.301c0.281-0.006,0.359-0.09,0.359-0.373c0-1.088,0-2.174,0-3.262c0-0.033-0.002-0.068,0-0.102
		c0.006-0.135,0.08-0.229,0.211-0.258c0.061-0.014,0.121-0.02,0.186-0.012c0.111,0.014,0.223,0.023,0.336,0.027
		c0.777,0.037,1.547-0.023,2.307-0.197c0.781-0.18,1.52-0.469,2.191-0.91c1.021-0.666,1.746-1.582,2.223-2.697
		c0.014-0.031,0.025-0.062,0.041-0.092c0.025-0.051,0.062-0.061,0.105-0.027c-0.002-0.047-0.002-0.094-0.002-0.141
		c-0.014-0.576-0.062-1.146-0.162-1.713c-0.145-0.809-0.379-1.586-0.748-2.32c-0.816-1.625-2.105-2.688-3.824-3.248
		c-0.568-0.186-1.15-0.303-1.744-0.369c-0.277-0.031-0.555-0.064-0.834-0.057C58.117,9.985,58.016,9.985,57.914,9.985z
		 M58.471,13.935c0.252,0,0.5,0,0.75,0c0.961,0,1.799,0.646,2.045,1.572c0.312,1.188-0.424,2.389-1.625,2.645
		c-0.123,0.025-0.248,0.039-0.373,0.039c-0.262-0.002-0.525-0.008-0.787,0c-0.303,0.012-0.523-0.24-0.518-0.518
		c0.01-0.533,0.004-1.066,0.004-1.6c0-0.547,0-1.092,0-1.639c0-0.238,0.135-0.418,0.355-0.484
		C58.373,13.935,58.422,13.935,58.471,13.935z"/>
	<path fill-rule="evenodd" clip-rule="evenodd" fill="#10A6DF" d="M57.967,16.073c0-0.547,0-1.092,0-1.639
		c0-0.238,0.135-0.418,0.355-0.484c0.051-0.016,0.1-0.016,0.148-0.016c0.252,0,0.5,0,0.75,0c0.961,0,1.799,0.646,2.045,1.572
		c0.312,1.188-0.424,2.389-1.625,2.645c-0.123,0.025-0.248,0.039-0.373,0.039c-0.262-0.002-0.525-0.008-0.787,0
		c-0.303,0.012-0.523-0.24-0.518-0.518C57.973,17.14,57.967,16.606,57.967,16.073z"/>
</g>
</svg>
