<?xml version="1.0" encoding="utf-8"?>
<!-- Generator: Adobe Illustrator 16.0.0, SVG Export Plug-In . SVG Version: 6.00 Build 0)  -->
<!DOCTYPE svg PUBLIC "-//W3C//DTD SVG 1.1//EN" "http://www.w3.org/Graphics/SVG/1.1/DTD/svg11.dtd">
<svg version="1.1" id="Capa_1" xmlns="http://www.w3.org/2000/svg" xmlns:xlink="http://www.w3.org/1999/xlink" x="0px" y="0px"
	 width="72.559px" height="40px" viewBox="0 0 72.559 40" enable-background="new 0 0 72.559 40" xml:space="preserve">
<g>
	<path fill="#343379" d="M41.302,16.5l-7.626,0.033l-0.784,1.977h0.847c0,0,0.471,0.156,0.282,0.658l-2.916,7.279h2.885l1.13-2.73
		h3.483c0,0,1.694-0.029,2.636-1.662l1.568-3.891C42.807,18.164,43.308,16.846,41.302,16.5z M39.513,19.293l-0.816,1.852
		c0,0-0.157,0.502-0.941,0.502l-1.851-0.062l1.192-2.98h2.007C39.104,18.604,39.67,18.604,39.513,19.293z"/>
	<path fill="#343379" d="M51.09,20.549l1.631-4.016h-6.023c0,0-2.416,0.25-3.074,1.82l-1.286,3.072c0,0-0.63,2.01,1.096,2.166h7.782
		l0.816-1.945C52.031,21.646,50.558,21.834,51.09,20.549z M47.859,21.646h-2.104c0,0-0.439-0.062-0.22-0.816
		c0,0,0.659-2.258,1.601-2.32l1.854,0.062L47.859,21.646z"/>
	<path fill="#343379" d="M61.525,18.623l-1.068-1.146c-0.446-0.406,0.039-0.814,0.039-0.814l0.523-0.369l-1.339-1.436
		c-4.017,2.018-7.296,4.25-7.296,4.25c-0.623,0.756-0.041,1.629-0.041,1.629l2.544,2.641c0.253,0.719-0.485,0.873-0.485,0.873
		l-1.806-0.02l-0.893,1.961c0.466,0,3.223-0.039,3.223-0.039c2.503-1.262,3.202-2.271,3.202-2.271
		c0.446-0.621-0.02-1.262-0.02-1.262c-0.33-0.408,0.214-0.582,0.214-0.582c2.076-1.145,3.046-2.074,3.046-2.074
		C61.894,19.32,61.525,18.623,61.525,18.623z M58.497,19.67l-2.174,1.379c-0.329,0.174-0.524-0.059-0.524-0.059L54.927,20
		c-0.233-0.291,0.136-0.719,0.136-0.719l1.669-1.066c0.736-0.311,1.028,0.02,1.028,0.02l0.737,0.717
		C58.75,19.34,58.497,19.67,58.497,19.67z"/>
	<path fill="#343379" d="M72.313,18.867c0,0-2.173-2.156-2.698-2.367c0,0-1.164-0.525-2.289,0.02c0,0-3.414,1.707-5.008,2.773
		c0,0-0.988,0.758-0.619,1.729c0,0,2.017,2.35,2.637,2.639c0,0,0.777,0.543,2.135,0.137c0,0,3.882-1.496,5.824-3.338
		C72.295,20.459,72.877,19.799,72.313,18.867z M69.092,20.303c-0.019,0.096-1.959,1.125-1.959,1.125
		c-0.621,0.33-1.067,0.041-1.067,0.041c-0.312-0.176-0.934-0.932-0.934-0.932c-0.231-0.254,0.019-0.623,0.019-0.623
		c0.389-0.389,2.04-1.223,2.04-1.223c0.388-0.252,1.009,0.059,1.009,0.059l0.893,0.816C69.461,19.914,69.092,20.303,69.092,20.303z"
		/>
	<path fill="#E52633" d="M32.469,16.539h-2.871c0,0-1.824,4.443-2,5.045c0,0-0.35,1.086,0.176,1.514c0,0,0.562,0.562,1.184,0.562
		l1.999-0.02l0.854-1.98h-0.639c0,0-0.739-0.154-0.429-0.854L32.469,16.539z"/>
	<path fill="#E52633" d="M31.15,13.666c0,0,1.067-0.35,1.669,0.057c0,0,0.777,0.467,0.154,1.301c0,0-0.485,0.814-1.823,0.834
		c0,0-1.126,0.137-1.205-0.795C29.945,15.062,29.888,14.111,31.15,13.666z"/>
	<path fill="#E52633" d="M27.424,16.984c0,0-0.39-0.428-1.357-0.506L18.748,16.5l-0.757,2.02h0.622c0,0,0.679,0,0.29,0.988
		l-2.718,6.947l2.854,0.02l1.048-2.854l3.708,0.02c0,0,1.066,0.117,2.035-1.066c0,0,1.477-2.348,1.864-4.115
		C27.694,18.459,28.064,17.488,27.424,16.984z M24.454,19.334c0,0.387-0.737,1.783-0.737,1.783
		c-0.368,0.506-0.972,0.506-0.972,0.506h-1.843l1.243-3.01h1.921C24.726,18.635,24.454,19.334,24.454,19.334z"/>
	<path fill="#E52633" d="M16.304,20.479l1.61-3.979l-5.784-0.021c-0.874,0-1.845,0.447-1.845,0.447
		c-1.124,0.543-1.377,1.32-1.377,1.32c-0.427,0.641-1.3,3.105-1.3,3.105c-0.505,1.223,0,1.648,0,1.648
		c0.484,0.68,1.416,0.66,1.416,0.66l7.414,0.02l0.815-1.959l-0.912-0.156C15.895,21.352,16.304,20.479,16.304,20.479z
		 M13.043,21.584l-1.922,0.039c0,0-0.699-0.039-0.389-0.951c0,0,0.352-1.223,0.737-1.629c0,0,0.253-0.467,1.01-0.467l1.688,0.037
		L13.043,21.584z"/>
	<path fill="#E52633" d="M8.733,16.52l-0.854,2.057H5.608c0,0-0.62-0.117-1.009,0.758l-1.688,4.307L0,23.68l2.833-7.18L8.733,16.52z
		"/>
</g>
</svg>
