<?xml version="1.0" encoding="utf-8"?>
<!-- Generator: Adobe Illustrator 16.0.0, SVG Export Plug-In . SVG Version: 6.00 Build 0)  -->
<!DOCTYPE svg PUBLIC "-//W3C//DTD SVG 1.1//EN" "http://www.w3.org/Graphics/SVG/1.1/DTD/svg11.dtd">
<svg version="1.1" id="Capa_1" xmlns="http://www.w3.org/2000/svg" xmlns:xlink="http://www.w3.org/1999/xlink" x="0px" y="0px"
	 width="96px" height="40px" viewBox="0 0 96 40" enable-background="new 0 0 96 40" xml:space="preserve">
<g>
	<path fill="#E51E36" d="M9.848,12.072c0,2.153,3.61,4.544,3.61,7.004c0,0,0,0.236-0.099,0.49c3.376,0.712,5.767,2.393,5.767,4.359
		c0,2.646-4.265,4.836-9.545,4.836C4.182,28.762,0,26.608,0,24.028c0-1.967,2.59-3.563,5.719-4.41c0,1.085,3.558,4.53,3.646,5.92
		c0.009,0.157,0.04,0.295,0,0.457c0.769-0.406,0.769-1.678,0.769-1.678c0-3.021-3.462-4.36-3.462-7.328
		c0-1.155,0.536-2.001,1.019-2.239v0.832c0,2.153,3.748,4.562,3.748,6.528v0.648c0.869-0.341,0.869-1.953,0.869-1.953
		c0-2.715-3.478-4.225-3.478-7.325c0-1.154,0.535-2.002,1.019-2.242V12.072z"/>
	<path fill="#E51E36" d="M26.717,27.926c-1.821,0-3.141-0.523-3.141-0.523v-3.205h0.45c0.232,1.693,1.506,2.982,2.958,2.982
		c1.455,0,2.474-0.812,2.474-2.1c0-1.375-1.354-2-2.255-2.459l-1.305-0.66c-1.237-0.627-2.238-1.646-2.238-3.068
		c0-1.779,1.305-3.305,3.791-3.305c1.705,0,3.108,0.575,3.108,0.575v2.863h-0.451c-0.265-1.523-1.102-2.728-2.807-2.728
		c-1.271,0-2.023,0.883-2.023,1.779c0,1.171,0.804,1.695,1.738,2.17l1.306,0.66c1.185,0.613,2.655,1.63,2.655,3.356
		C30.978,26.47,29.474,27.926,26.717,27.926"/>
	<path fill="#E51E36" d="M35.138,24.436c-0.35,0.152-0.968,0.441-0.968,1.252c0,0.443,0.25,1.156,1.119,1.156
		c0.416,0,1.001-0.238,1.419-0.577v-2.511L35.138,24.436z M34.451,27.857c-1.133,0-1.87-0.763-1.87-1.896
		c0-0.813,0.584-1.44,1.87-1.917l2.257-0.828v-0.715c0-1.064-0.482-1.727-1.22-1.727c-0.501,0-1.003,0.254-1.252,0.662
		c-0.1,0.151-0.116,0.372-0.116,0.54c0,0.288,0.184,0.627,0.184,0.627l-1.104,0.51c-0.136-0.238-0.3-0.595-0.3-0.949
		c0-0.067,0.016-0.136,0.016-0.188c0.083-0.609,0.602-1.017,1.303-1.44c0.686-0.422,1.27-0.542,1.688-0.542
		c2.107,0,2.473,1.694,2.473,2.255v3.508c0,0.56,0.052,0.916,0.501,0.916c0.136,0,0.217,0,0.403-0.067l0.4-0.136v0.509l-2.341,0.879
		c-0.351-0.251-0.519-0.71-0.582-1.1C36.209,27.232,35.256,27.857,34.451,27.857"/>
	<path fill="#E51E36" d="M40.2,27.689v-0.406l0.552-0.104c0.335-0.069,0.567-0.321,0.567-0.661v-4.524
		c0-0.39-0.182-0.595-0.519-0.595c-0.114,0-0.25,0.02-0.384,0.068L40.2,21.553v-0.508l2.406-1.051h0.353v1.255
		c0.731-0.831,1.603-1.255,2.369-1.255c1.706,0,2.524,1.239,2.524,2.678v3.847c0,0.34,0.252,0.611,0.585,0.661l0.567,0.104v0.406
		H45.03v-0.406l0.552-0.104c0.331-0.069,0.601-0.321,0.601-0.661v-3.83c0-0.509-0.134-1.644-1.472-1.644
		c-0.733,0-1.352,0.457-1.721,0.796v4.678c0,0.34,0.267,0.592,0.602,0.661l0.552,0.104v0.406H40.2z"/>
	<path fill="#E51E36" d="M54.771,21.028h-2.34v4.204c0,0.932,0.485,1.44,1.185,1.44c0.284,0,0.735-0.085,1.155-0.323l0.185,0.408
		l-1.507,0.967c0,0-0.3,0.05-0.449,0.05c-1.455,0-2.239-0.865-2.239-2.694v-4.052h-1.22v-0.423c0,0,1.837-0.712,2.556-2.458h0.335
		V20.3h2.64L54.771,21.028z"/>
	<path fill="#E51E36" d="M58.273,24.436c-0.351,0.152-0.968,0.441-0.968,1.252c0,0.443,0.248,1.156,1.121,1.156
		c0.416,0,1.001-0.238,1.417-0.577v-2.511L58.273,24.436z M57.588,27.857c-1.136,0-1.869-0.763-1.869-1.896
		c0-0.813,0.582-1.44,1.869-1.917l2.256-0.828v-0.715c0-1.064-0.482-1.727-1.22-1.727c-0.499,0-1.003,0.254-1.253,0.662
		c-0.099,0.151-0.117,0.372-0.117,0.54c0,0.288,0.186,0.627,0.186,0.627l-1.104,0.51c-0.133-0.238-0.3-0.595-0.3-0.949
		c0-0.067,0.017-0.136,0.017-0.188c0.082-0.609,0.601-1.017,1.302-1.44c0.687-0.422,1.27-0.542,1.688-0.542
		c2.108,0,2.477,1.694,2.477,2.255v3.508c0,0.56,0.048,0.916,0.497,0.916c0.136,0,0.219,0,0.4-0.067l0.403-0.136v0.509l-2.337,0.879
		c-0.353-0.251-0.521-0.71-0.587-1.1C59.344,27.232,58.392,27.857,57.588,27.857"/>
	<path fill="#E51E36" d="M63.336,27.689v-0.406l0.553-0.104c0.334-0.069,0.566-0.321,0.566-0.661v-4.524
		c0-0.39-0.184-0.595-0.517-0.595c-0.116,0-0.25,0.02-0.384,0.068l-0.219,0.085v-0.508l2.406-1.051h0.353v1.255
		c0.735-0.831,1.603-1.255,2.373-1.255c1.704,0,2.522,1.239,2.522,2.678v3.847c0,0.34,0.248,0.611,0.585,0.661l0.565,0.104v0.406
		h-3.975v-0.406l0.552-0.104c0.331-0.069,0.602-0.321,0.602-0.661v-3.83c0-0.509-0.135-1.644-1.471-1.644
		c-0.737,0-1.354,0.457-1.721,0.796v4.678c0,0.34,0.267,0.592,0.6,0.661l0.552,0.104v0.406H63.336z"/>
	<path fill="#E51E36" d="M77.137,20.707c-1.202,0-2.439,0.777-2.439,3.049c0,1.9,0.938,3.051,2.408,3.051
		c0.883,0,1.437-0.524,1.57-0.794v-4.408C78.457,21.045,77.84,20.707,77.137,20.707 M76.384,27.857
		c-1.568,0-3.457-1.185-3.457-3.761c0-2.256,1.721-4.103,4.026-4.103c0.771,0,1.322,0.153,1.723,0.323v-3.881
		c0-0.409-0.219-0.525-0.486-0.525c-0.15,0-0.317,0.031-0.466,0.084l-0.337,0.117v-0.509l2.609-1.117h0.351v11.17
		c0,0.646,0.099,1.017,0.55,1.017c0.136,0,0.217,0,0.4-0.067l0.4-0.136v0.509l-2.336,0.879c-0.37-0.251-0.554-0.728-0.635-1.117
		C78.291,27.215,77.505,27.857,76.384,27.857"/>
	<path fill="#E51E36" d="M87.563,22.621v-0.033c0-1.27-0.7-1.883-1.539-1.883c-0.935,0-1.636,0.629-1.835,1.916H87.563z
		 M84.137,23.318v0.083c-0.016,2.255,1.255,3.39,2.84,3.39c0.804,0,1.539-0.306,2.126-0.761v0.674
		c-0.67,0.631-1.688,1.153-2.942,1.153c-2.605,0-3.758-1.982-3.758-3.863c0-2.203,1.653-4,3.791-4c1.756,0,3.124,1.255,3.124,3.102
		v0.223H84.137z"/>
	<path fill="#E51E36" d="M90.303,27.689v-0.406l0.552-0.104c0.319-0.069,0.569-0.321,0.569-0.661v-4.524
		c0-0.39-0.185-0.595-0.52-0.595c-0.113,0-0.249,0.02-0.385,0.068l-0.217,0.085v-0.508l2.373-1.051h0.353v1.646
		c0.601-1.188,1.32-1.681,2.138-1.681c0.668,0,0.834,0.173,0.834,0.173v1.794h-0.332c-0.086-0.474-0.401-0.71-0.903-0.71
		c-0.534,0-1.202,0.151-1.671,1.135v4.168c0,0.34,0.334,0.611,0.651,0.661l0.804,0.104v0.406H90.303z"/>
</g>
</svg>
