<?xml version="1.0" encoding="utf-8"?>
<!-- Generator: Adobe Illustrator 16.0.0, SVG Export Plug-In . SVG Version: 6.00 Build 0)  -->
<!DOCTYPE svg PUBLIC "-//W3C//DTD SVG 1.1//EN" "http://www.w3.org/Graphics/SVG/1.1/DTD/svg11.dtd">
<svg version="1.1" id="Capa_1" xmlns="http://www.w3.org/2000/svg" xmlns:xlink="http://www.w3.org/1999/xlink" x="0px" y="0px"
	 width="73.156px" height="40px" viewBox="0 0 73.156 40" enable-background="new 0 0 73.156 40" xml:space="preserve">
<g>
	<path fill="#F8DC05" d="M54.89,9.316c7.178,0,13.001,5.822,13.001,13.001S62.067,35.316,54.89,35.316
		c-7.181,0-12.999-5.82-12.999-12.999S47.709,9.316,54.89,9.316"/>
	<g>
		<path fill-rule="evenodd" clip-rule="evenodd" fill="#7D858E" d="M71.942,16.028h-4.855c1.131,2,1.782,4.479,1.782,6.952
			c0,2.513-0.675,5.048-1.842,7.048h4.915c0,0,1.214-3.202,1.214-7S71.942,16.028,71.942,16.028z"/>
		<path fill-rule="evenodd" clip-rule="evenodd" fill="#7D858E" d="M40.91,22.98c0-2.474,0.65-4.952,1.781-6.952H1.214
			c0,0-1.214,3.202-1.214,7s1.214,7,1.214,7h41.535C41.584,28.028,40.91,25.493,40.91,22.98z"/>
	</g>
	<path fill="#FFFFFF" d="M4.328,24.438c0.587,0.267,1.868,0.453,2.872,0.453c0.82,0,1.161-0.364,1.161-0.776
		c0-0.349-0.404-0.578-1.472-0.857c-1.496-0.385-2.906-1.109-2.906-2.521c0-1.474,1.604-2.553,3.883-2.553
		c1.196,0,2.038,0.02,2.716,0.287l-0.117,1.733c-0.416-0.157-1.555-0.343-2.557-0.343c-0.728,0-1.227,0.364-1.227,0.715
		c0,0.436,0.561,0.58,1.706,0.917c1.703,0.507,2.755,1.213,2.755,2.446c0,1.363-1.402,2.675-4.201,2.675
		c-1.159,0-2.29-0.131-2.851-0.396L4.328,24.438z"/>
	<path fill="#FFFFFF" d="M18.306,23.157h-4.047v1.702h4.463v1.61h-7.021v-8.14h6.826v1.578h-4.269v1.609h4.047V23.157z"/>
	<path fill="#FFFFFF" d="M19.639,18.33c0.689-0.098,2.207-0.073,3.534-0.073c1.472,0,2.552,0.126,3.229,0.572
		c0.559,0.376,0.889,1.022,0.889,1.844c0,1.086-1.798,1.797-1.798,1.797c0.588,0.229,1.063,0.98,1.312,1.658
		c0.298,0.832,0.599,2.028,0.767,2.342h-2.5c-0.141-0.242-0.265-0.844-0.677-1.858c-0.315-0.788-0.624-1.331-1.444-1.331h-0.757
		v3.189h-2.556V18.33z M22.212,21.672h1.026c0.963,0,1.535-0.202,1.535-0.818c0-0.614-0.493-0.929-1.327-0.929
		c-0.547,0-1.105,0.023-1.234,0.047V21.672z"/>
	<path fill="#FFFFFF" d="M30.574,26.47l-3.184-8.14h2.722c0,0,1.814,5.13,2.144,6.233l2.084-6.233h2.591l-3.163,8.14H30.574z"/>
	<path fill="#FFFFFF" d="M40.082,18.33v8.14h-2.46v-8.14H40.082z"/>
	<path fill="#7D858E" d="M42.78,18.44c0.678-0.097,1.666-0.184,3.215-0.184c1.315,0,2.239,0.243,2.853,0.653
		c0.612,0.398,1.068,1.121,1.068,2.003c0,0.786-0.287,1.523-0.86,1.982c-0.756,0.616-1.822,0.894-3.177,0.894
		c-0.273,0-0.508-0.023-0.664-0.037v2.718H42.78V18.44z M45.215,22.024c0.143,0.025,0.325,0.037,0.638,0.037
		c0.951,0,1.627-0.399,1.627-1.135c0-0.594-0.481-0.979-1.458-0.979c-0.416,0-0.676,0.023-0.807,0.048V22.024z"/>
	<path fill="#7D858E" d="M51.752,24.663l-0.751,1.807H48.41l3.625-8.14h3.081l3.65,8.14h-2.733l-0.713-1.807H51.752z M54.69,23.126
		c0,0-1.062-2.793-1.219-3.263h-0.027c-0.143,0.47-1.105,3.263-1.105,3.263H54.69z"/>
	<path fill="#7D858E" d="M67.11,26.027c-0.736,0.229-2.044,0.52-3.312,0.52c-1.876,0-5.593-0.462-5.597-4.01
		c-0.01-5.812,8.126-4.218,8.633-3.987l-0.198,1.67c-0.559-0.218-1.816-0.402-2.983-0.402c-1.497,0-2.924,0.982-2.924,2.538
		c0,3.203,3.885,2.502,4.012,2.454l0.023-1.614h-1.485v-1.611h3.831V26.027z"/>
</g>
</svg>
