<?xml version="1.0" encoding="utf-8"?>
<!-- Generator: Adobe Illustrator 16.0.0, SVG Export Plug-In . SVG Version: 6.00 Build 0)  -->
<!DOCTYPE svg PUBLIC "-//W3C//DTD SVG 1.1//EN" "http://www.w3.org/Graphics/SVG/1.1/DTD/svg11.dtd">
<svg version="1.1" id="Capa_1" xmlns="http://www.w3.org/2000/svg" xmlns:xlink="http://www.w3.org/1999/xlink" x="0px" y="0px"
	 width="29.867px" height="40px" viewBox="0 0 29.867 40" enable-background="new 0 0 29.867 40" xml:space="preserve">
<g>
	<g>
		<g>
			<g>
				<g>
					<g>
						<rect y="4.5" fill="#006546" width="29.867" height="31"/>
						<path fill="#FFFFFF" d="M18.648,32.449v1.163h-7.165v-1.165H6.061c-0.53,0-0.96-0.553-0.96-1.236L2.832,8.271
							c0-0.684,0.53-1.236,1.182-1.236H25.92c0.649,0,1.18,0.553,1.18,1.236l-2.242,22.939c0,0.684-0.43,1.236-0.962,1.236
							L18.648,32.449z"/>
						<path fill="#EB661C" d="M6.818,10.393h14.671c-1.445,0.543-5.842,3.518-6.942,5.518h-7.71L6.818,10.393z"/>
						<path fill="#E42323" d="M18.509,26.205c-0.209,1.997-0.218,4.431-0.218,6.988h-6.356c0-2.558,0.104-4.991,0.312-6.988H18.509z
							"/>
						<polygon fill="#006546" points="6.353,21.623 8.674,21.623 8.674,22.543 7.659,22.543 7.659,23.317 8.674,23.317 
							8.674,24.092 7.659,24.092 7.659,24.866 8.674,24.866 8.674,25.754 6.353,25.754 						"/>
						<polygon fill="#006546" points="11.758,21.623 14.08,21.623 14.08,22.543 13.062,22.543 13.062,23.317 14.08,23.317 
							14.08,24.092 13.062,24.092 13.062,24.866 14.08,24.866 14.08,25.754 11.758,25.754 						"/>
						<polygon fill="#006546" points="17.711,21.623 20.036,21.623 20.036,22.543 19.018,22.543 19.018,23.317 20.036,23.317 
							20.036,24.092 19.018,24.092 19.018,24.866 20.036,24.866 20.036,25.754 17.711,25.754 						"/>
						<polygon fill="#006546" points="10.418,24.866 11.433,24.866 11.433,25.754 9.111,25.754 9.111,21.623 10.418,21.623 						
							"/>
						<polygon fill="#006546" points="14.318,21.623 14.966,25.754 16.647,25.754 17.435,21.623 16.46,21.623 15.954,24.414 
							15.458,21.623 						"/>
						<rect x="20.584" y="21.623" fill="#006546" width="1.257" height="4.131"/>
						<path fill="#006546" d="M21.841,22.85c0.066-0.452,0.712-0.331,0.712-0.072v2.977h1.258v-3.503
							c0-0.742-1.046-1.041-1.962-0.386"/>
						<path fill="#E42323" d="M19.1,21.041c0.13-1.581,2.289-4.161,4.391-4.839v-6.102c-5.77,2.583-9.522,6.487-10.333,10.926
							L19.1,21.041z"/>
						<path fill="#006546" d="M20.771,27.962c-0.163,0.161-0.358,0.244-0.591,0.244c-0.229,0-0.428-0.083-0.589-0.244
							c-0.161-0.163-0.242-0.361-0.242-0.593c0-0.229,0.081-0.426,0.244-0.587c0.162-0.161,0.359-0.244,0.587-0.244
							c0.232,0,0.428,0.083,0.591,0.244c0.164,0.161,0.246,0.358,0.246,0.587C21.018,27.601,20.936,27.799,20.771,27.962
							 M19.673,26.864c-0.14,0.14-0.21,0.309-0.21,0.509c0,0.197,0.07,0.369,0.21,0.506c0.139,0.144,0.309,0.212,0.508,0.212
							c0.2,0,0.367-0.068,0.511-0.212c0.139-0.137,0.209-0.309,0.209-0.506c0-0.2-0.07-0.369-0.209-0.509
							c-0.144-0.141-0.311-0.209-0.511-0.209C19.983,26.655,19.813,26.724,19.673,26.864 M20.167,26.909
							c0.114,0,0.197,0.012,0.25,0.032c0.095,0.04,0.141,0.117,0.141,0.233c0,0.081-0.027,0.142-0.088,0.18
							c-0.03,0.022-0.075,0.036-0.13,0.045c0.069,0.012,0.121,0.042,0.153,0.089c0.034,0.048,0.049,0.097,0.049,0.143v0.066
							c0,0.022,0,0.045,0.002,0.066c0,0.024,0.004,0.043,0.01,0.049l0.004,0.012h-0.148c0-0.004-0.002-0.006-0.002-0.008
							c0-0.004,0-0.008-0.003-0.012l-0.002-0.028v-0.07c0-0.109-0.03-0.178-0.088-0.21c-0.035-0.021-0.093-0.03-0.18-0.03h-0.129
							v0.358h-0.16v-0.915H20.167z M20.342,27.059c-0.04-0.024-0.106-0.036-0.197-0.036h-0.139v0.328h0.146
							c0.071,0,0.119-0.006,0.157-0.018c0.062-0.028,0.095-0.073,0.095-0.142S20.383,27.08,20.342,27.059"/>
					</g>
				</g>
			</g>
		</g>
	</g>
</g>
</svg>
