<?xml version="1.0" encoding="utf-8"?>
<!-- Generator: Adobe Illustrator 16.0.0, SVG Export Plug-In . SVG Version: 6.00 Build 0)  -->
<!DOCTYPE svg PUBLIC "-//W3C//DTD SVG 1.1//EN" "http://www.w3.org/Graphics/SVG/1.1/DTD/svg11.dtd">
<svg version="1.1" id="Capa_1" xmlns="http://www.w3.org/2000/svg" xmlns:xlink="http://www.w3.org/1999/xlink" x="0px" y="0px"
	 width="95.371px" height="40px" viewBox="0 0 95.371 40" enable-background="new 0 0 95.371 40" xml:space="preserve">
<g>
	<g>
		<g>
			<path fill-rule="evenodd" clip-rule="evenodd" fill="#E6E6E6" d="M32.851,10.98c0-1.238-0.988-2.254-2.193-2.254H2.418
				c-1.205,0-2.191,1.016-2.191,2.254V29.02c0,1.24,0.986,2.254,2.191,2.254h20.954c5.359,0,9.633-4.701,9.479-11.576
				C32.851,16.793,32.851,13.885,32.851,10.98z"/>
			<path fill="#B3B3B3" d="M23.373,31.5H2.418C1.086,31.5,0,30.389,0,29.02V10.98C0,9.611,1.086,8.5,2.418,8.5h28.239
				c1.336,0,2.418,1.111,2.418,2.48v8.717c0.082,3.631-1.057,6.844-3.207,9.045C28.13,30.521,25.824,31.5,23.373,31.5z M2.418,8.951
				c-1.084,0-1.967,0.908-1.967,2.029V29.02c0,1.119,0.883,2.031,1.967,2.031h20.954c2.328,0,4.521-0.932,6.174-2.623
				c2.064-2.113,3.158-5.211,3.078-8.727V10.98c0-1.121-0.881-2.029-1.967-2.029H2.418z"/>
		</g>
		<g>
			<g>
				<path fill="#2B3375" d="M29.275,19.135c0-4.555-5.654-8.266-12.628-8.266c-6.975,0-12.629,3.711-12.629,8.266
					c0,0.113-0.002,0.439-0.002,0.48c0,4.828,4.941,8.738,12.629,8.738c7.735,0,12.63-3.908,12.63-8.738
					C29.275,19.449,29.275,19.352,29.275,19.135z"/>
				<path fill="#2B3375" d="M16.645,28.604c-7.463,0-12.879-3.781-12.879-8.988l0.002-0.48c0-4.695,5.775-8.514,12.879-8.514
					c7.101,0,12.878,3.818,12.878,8.514v0.48C29.525,24.824,24.109,28.604,16.645,28.604z M16.647,11.119
					c-6.826,0-12.379,3.596-12.379,8.016v0.48c0,4.918,5.205,8.486,12.377,8.486c7.173,0,12.38-3.568,12.38-8.486v-0.48
					C29.025,14.715,23.472,11.119,16.647,11.119z"/>
			</g>
			<g>
				<ellipse fill="#199BD8" cx="16.648" cy="19.129" rx="12.144" ry="7.766"/>
			</g>
			<g>
				<g>
					<path fill="#FFFFFF" d="M12.616,16.676c-0.004,0.012-0.125,0.139-0.047,0.238c0.191,0.246,0.783,0.387,1.381,0.252
						c0.357-0.078,0.814-0.443,1.256-0.793c0.48-0.383,0.955-0.764,1.434-0.916c0.508-0.162,0.83-0.094,1.045-0.027
						c0.236,0.07,0.512,0.225,0.951,0.557c0.834,0.625,4.173,3.541,4.751,4.045c0.463-0.211,2.531-1.1,5.336-1.719
						c-0.242-1.498-1.152-2.865-2.531-3.988c-1.926,0.809-4.278,1.23-6.577,0.107c-0.014-0.006-1.258-0.594-2.486-0.566
						c-1.822,0.043-2.613,0.834-3.451,1.67L12.616,16.676z"/>
				</g>
				<g>
					<path fill="#FFFFFF" d="M23.25,20.348c-0.037-0.035-3.927-3.436-4.81-4.1c-0.508-0.385-0.791-0.48-1.09-0.518
						c-0.156-0.021-0.369,0.008-0.518,0.051c-0.41,0.109-0.945,0.469-1.424,0.844c-0.492,0.395-0.957,0.764-1.387,0.859
						c-0.551,0.123-1.227-0.02-1.529-0.229c-0.127-0.084-0.215-0.182-0.256-0.277c-0.115-0.264,0.096-0.475,0.129-0.512l1.076-1.16
						c0.125-0.123,0.248-0.248,0.377-0.371c-0.346,0.045-0.666,0.135-0.979,0.221c-0.387,0.109-0.762,0.213-1.141,0.213
						c-0.158,0-1.004-0.139-1.166-0.182c-0.971-0.266-1.822-0.525-3.096-1.119c-1.525,1.135-2.547,2.557-2.842,4.121
						c0.221,0.057,0.572,0.162,0.721,0.195c3.453,0.768,4.529,1.559,4.725,1.723c0.211-0.234,0.516-0.383,0.855-0.383
						c0.383,0,0.727,0.191,0.936,0.488c0.197-0.156,0.469-0.289,0.824-0.289c0.16,0,0.324,0.029,0.492,0.088
						c0.391,0.135,0.592,0.393,0.695,0.627c0.131-0.061,0.291-0.104,0.48-0.104c0.188,0,0.379,0.043,0.576,0.127
						c0.635,0.273,0.734,0.9,0.676,1.371c0.047-0.004,0.09-0.008,0.139-0.008c0.754,0,1.367,0.613,1.367,1.369
						c0,0.234-0.061,0.455-0.162,0.648c0.205,0.115,0.729,0.375,1.189,0.316c0.365-0.045,0.506-0.17,0.553-0.24
						c0.035-0.051,0.074-0.107,0.037-0.148l-0.971-1.082c0,0-0.162-0.152-0.109-0.209c0.055-0.061,0.154,0.025,0.225,0.084
						c0.496,0.414,1.102,1.039,1.102,1.039c0.008,0.006,0.049,0.086,0.275,0.125c0.189,0.037,0.533,0.014,0.77-0.178
						c0.059-0.051,0.119-0.111,0.168-0.174c-0.004,0.004-0.008,0.006-0.012,0.008c0.25-0.318-0.027-0.639-0.027-0.639l-1.137-1.279
						c0,0-0.162-0.15-0.107-0.211c0.049-0.051,0.152,0.027,0.227,0.086c0.359,0.301,0.867,0.812,1.357,1.289
						c0.094,0.072,0.521,0.336,1.09-0.037c0.342-0.227,0.412-0.504,0.402-0.713c-0.021-0.277-0.24-0.475-0.24-0.475l-1.553-1.562
						c0,0-0.162-0.139-0.107-0.211c0.049-0.061,0.154,0.025,0.225,0.084c0.494,0.416,1.835,1.645,1.835,1.645
						c0.02,0.012,0.482,0.342,1.055-0.021c0.203-0.133,0.334-0.33,0.346-0.559C23.529,20.584,23.25,20.348,23.25,20.348z"/>
				</g>
				<g>
					<path fill="#FFFFFF" d="M15.715,22.328c-0.24-0.004-0.504,0.141-0.541,0.119c-0.018-0.012,0.016-0.109,0.039-0.166
						c0.023-0.053,0.34-1.01-0.432-1.342c-0.594-0.254-0.957,0.033-1.08,0.162c-0.033,0.033-0.047,0.033-0.051-0.012
						c-0.01-0.172-0.088-0.637-0.6-0.793c-0.73-0.223-1.199,0.287-1.318,0.471c-0.055-0.416-0.404-0.738-0.836-0.74
						c-0.467,0-0.846,0.379-0.848,0.848c0,0.467,0.379,0.846,0.848,0.846c0.227,0,0.434-0.09,0.586-0.234
						c0.006,0.004,0.006,0.01,0.004,0.027c-0.037,0.209-0.102,0.969,0.695,1.283c0.32,0.121,0.592,0.031,0.816-0.129
						c0.068-0.047,0.08-0.027,0.07,0.037c-0.029,0.197,0.01,0.613,0.596,0.854c0.447,0.182,0.711-0.004,0.885-0.164
						c0.076-0.068,0.096-0.059,0.102,0.049c0.02,0.566,0.49,1.016,1.061,1.016c0.59,0.002,1.07-0.475,1.07-1.064
						C16.782,22.807,16.303,22.336,15.715,22.328z"/>
				</g>
			</g>
			<g>
				<path fill="#2B3375" d="M23.4,19.941c-1.197-1.047-3.966-3.455-4.716-4.018c-0.428-0.322-0.719-0.492-0.977-0.568
					c-0.115-0.033-0.275-0.074-0.48-0.074c-0.189,0-0.395,0.035-0.609,0.104c-0.484,0.152-0.967,0.539-1.434,0.908l-0.025,0.018
					c-0.434,0.346-0.885,0.703-1.223,0.779c-0.15,0.035-0.303,0.051-0.455,0.051c-0.381,0-0.725-0.109-0.852-0.273
					c-0.02-0.025-0.01-0.07,0.041-0.135l0.008-0.006l1.055-1.139c0.824-0.824,1.604-1.604,3.398-1.643
					c0.031-0.002,0.062-0.002,0.09-0.002c1.119,0,2.234,0.5,2.359,0.557c1.047,0.512,2.129,0.771,3.214,0.771
					c1.135,0,2.303-0.279,3.531-0.846c-0.137-0.115-0.283-0.229-0.426-0.338c-1.082,0.469-2.109,0.705-3.104,0.705
					c-1.013-0.002-2.022-0.246-3.007-0.725c-0.053-0.025-1.285-0.605-2.568-0.607c-0.031,0-0.068,0.002-0.102,0.002
					c-1.508,0.035-2.355,0.572-2.928,1.041c-0.555,0.01-1.035,0.146-1.461,0.266c-0.381,0.105-0.709,0.197-1.029,0.197
					c-0.131,0-0.369-0.012-0.391-0.012c-0.367-0.012-2.225-0.469-3.703-1.027c-0.148,0.107-0.295,0.219-0.436,0.33
					c1.543,0.633,3.42,1.121,4.012,1.158c0.166,0.012,0.342,0.031,0.518,0.031c0.393,0,0.781-0.109,1.162-0.217
					c0.223-0.062,0.469-0.131,0.729-0.182c-0.068,0.07-0.137,0.137-0.207,0.205l-1.07,1.162c-0.086,0.084-0.268,0.312-0.148,0.59
					c0.049,0.113,0.146,0.221,0.283,0.314c0.254,0.17,0.713,0.287,1.137,0.287c0.16,0,0.312-0.016,0.451-0.047
					c0.451-0.102,0.92-0.477,1.42-0.873c0.398-0.314,0.963-0.719,1.396-0.832c0.119-0.035,0.268-0.055,0.385-0.055
					c0.037,0,0.07,0,0.104,0.006c0.285,0.033,0.561,0.133,1.055,0.504c0.879,0.658,4.767,4.061,4.806,4.096
					c0.002,0.004,0.25,0.215,0.232,0.57c-0.01,0.199-0.119,0.375-0.311,0.498c-0.166,0.107-0.338,0.158-0.51,0.158
					c-0.258,0-0.438-0.121-0.453-0.129c-0.012-0.014-1.345-1.236-1.835-1.646c-0.078-0.062-0.154-0.121-0.232-0.121
					c-0.039-0.002-0.074,0.016-0.098,0.049c-0.08,0.092,0.006,0.227,0.109,0.311l1.557,1.566c0.002,0.002,0.195,0.182,0.215,0.42
					c0.012,0.262-0.111,0.477-0.371,0.646c-0.182,0.121-0.367,0.182-0.549,0.182c-0.24,0-0.408-0.107-0.445-0.133l-0.223-0.221
					c-0.408-0.402-0.83-0.816-1.141-1.074c-0.074-0.061-0.154-0.123-0.23-0.123c-0.039,0-0.07,0.018-0.098,0.045
					c-0.033,0.037-0.061,0.109,0.027,0.225c0.035,0.049,0.078,0.088,0.078,0.088l1.137,1.275c0.008,0.012,0.234,0.279,0.027,0.545
					l-0.043,0.049c-0.031,0.041-0.068,0.074-0.105,0.104c-0.191,0.16-0.451,0.178-0.553,0.178c-0.057,0-0.109-0.006-0.154-0.014
					c-0.111-0.02-0.188-0.051-0.225-0.094l-0.014-0.016c-0.061-0.064-0.635-0.648-1.107-1.043c-0.064-0.053-0.141-0.119-0.221-0.119
					c-0.041,0-0.076,0.016-0.104,0.047c-0.094,0.1,0.049,0.256,0.105,0.311l0.969,1.07c0,0.008-0.012,0.029-0.035,0.064
					c-0.035,0.047-0.152,0.164-0.506,0.209c-0.041,0.006-0.082,0.01-0.127,0.01c-0.363,0-0.748-0.176-0.949-0.283
					c0.092-0.191,0.139-0.404,0.139-0.615c0.002-0.797-0.646-1.445-1.445-1.445c-0.018,0-0.033,0-0.053,0.002
					c0.027-0.365-0.023-1.055-0.732-1.357c-0.203-0.088-0.408-0.133-0.604-0.133c-0.154,0-0.303,0.023-0.443,0.078
					c-0.146-0.283-0.391-0.49-0.709-0.6c-0.174-0.062-0.348-0.092-0.518-0.092c-0.293,0-0.562,0.086-0.809,0.258
					c-0.229-0.287-0.58-0.457-0.949-0.457c-0.322,0-0.635,0.129-0.865,0.355c-0.299-0.229-1.496-0.988-4.699-1.717
					c-0.156-0.035-0.512-0.137-0.729-0.201c-0.035,0.174-0.064,0.35-0.08,0.527c0,0,0.59,0.141,0.705,0.164
					c3.271,0.729,4.352,1.484,4.535,1.627c-0.062,0.146-0.094,0.307-0.096,0.471c0,0.676,0.551,1.225,1.227,1.225
					c0.074,0,0.152-0.006,0.227-0.02c0.1,0.498,0.426,0.873,0.924,1.07c0.143,0.053,0.291,0.082,0.436,0.082
					c0.094,0,0.188-0.01,0.281-0.033c0.09,0.23,0.297,0.521,0.758,0.711c0.164,0.064,0.324,0.1,0.482,0.1
					c0.129,0,0.254-0.023,0.375-0.068c0.221,0.539,0.748,0.898,1.334,0.898c0.391,0,0.764-0.156,1.035-0.439
					c0.234,0.129,0.727,0.365,1.225,0.365c0.066,0,0.125-0.006,0.186-0.012c0.494-0.062,0.725-0.256,0.832-0.406
					c0.018-0.025,0.033-0.053,0.049-0.082c0.117,0.033,0.244,0.059,0.393,0.059c0.271,0,0.527-0.09,0.791-0.279
					c0.256-0.188,0.439-0.453,0.467-0.68c0-0.006,0-0.008,0-0.008c0.086,0.016,0.176,0.023,0.264,0.023
					c0.279,0,0.553-0.086,0.814-0.256c0.501-0.33,0.591-0.764,0.581-1.045c0.088,0.02,0.18,0.027,0.268,0.027
					c0.262,0,0.518-0.076,0.762-0.232c0.314-0.201,0.502-0.506,0.529-0.861c0.02-0.242-0.041-0.486-0.168-0.697
					c0.844-0.363,2.773-1.068,5.045-1.58c-0.012-0.176-0.039-0.348-0.068-0.521C25.966,18.824,23.914,19.711,23.4,19.941z
					 M15.715,24.383c-0.533,0-0.969-0.414-0.988-0.943c-0.002-0.045-0.006-0.166-0.107-0.166c-0.041,0-0.078,0.025-0.121,0.064
					c-0.117,0.109-0.266,0.219-0.484,0.219c-0.1,0-0.207-0.023-0.32-0.068c-0.564-0.229-0.57-0.617-0.549-0.771
					c0.006-0.043,0.008-0.086-0.02-0.119l-0.035-0.031h-0.035c-0.029,0-0.061,0.012-0.098,0.041c-0.164,0.113-0.32,0.17-0.48,0.17
					c-0.084,0-0.176-0.018-0.266-0.051c-0.742-0.291-0.684-0.99-0.648-1.203c0.008-0.043-0.006-0.074-0.031-0.098l-0.053-0.043
					L11.43,21.43c-0.145,0.139-0.334,0.215-0.533,0.215c-0.424,0-0.77-0.344-0.77-0.77s0.346-0.771,0.771-0.771
					c0.383,0,0.711,0.289,0.76,0.674l0.025,0.207l0.115-0.174c0.014-0.021,0.322-0.494,0.896-0.492c0.109,0,0.223,0.018,0.334,0.053
					c0.457,0.139,0.535,0.555,0.547,0.725c0.006,0.104,0.078,0.105,0.092,0.105c0.041,0,0.07-0.023,0.092-0.045
					c0.084-0.09,0.273-0.242,0.564-0.242c0.135,0,0.277,0.035,0.426,0.096c0.727,0.312,0.398,1.232,0.393,1.246
					c-0.061,0.15-0.064,0.219-0.006,0.258l0.029,0.014h0.021c0.031,0,0.074-0.014,0.141-0.037c0.098-0.033,0.248-0.086,0.387-0.086
					l0,0c0.545,0.006,0.99,0.451,0.99,0.99C16.706,23.941,16.26,24.383,15.715,24.383z"/>
			</g>
		</g>
	</g>
	<g>
		<g>
			<path fill="#676767" d="M42.011,16.366v-4.42h-1.65v-0.591h3.971v0.591h-1.656v4.42H42.011z"/>
			<path fill="#676767" d="M43.943,16.366l1.924-5.011h0.715l2.051,5.011h-0.756l-0.584-1.518h-2.096l-0.551,1.518H43.943z
				 M45.388,14.309h1.699l-0.523-1.388c-0.16-0.422-0.279-0.768-0.355-1.039c-0.064,0.321-0.154,0.641-0.27,0.957L45.388,14.309z"/>
			<path fill="#676767" d="M49.173,16.366v-5.011h2.221c0.447,0,0.787,0.045,1.02,0.135s0.418,0.249,0.557,0.478
				c0.139,0.228,0.209,0.479,0.209,0.755c0,0.355-0.115,0.655-0.346,0.899c-0.23,0.243-0.586,0.398-1.066,0.465
				c0.176,0.084,0.309,0.167,0.4,0.249c0.193,0.178,0.377,0.399,0.549,0.667l0.873,1.363h-0.834l-0.664-1.043
				c-0.193-0.301-0.354-0.53-0.479-0.689c-0.125-0.16-0.238-0.271-0.336-0.336c-0.1-0.063-0.201-0.107-0.303-0.133
				c-0.076-0.016-0.199-0.023-0.369-0.023h-0.77v2.225H49.173z M49.835,13.567h1.426c0.303,0,0.539-0.032,0.711-0.095
				c0.17-0.062,0.301-0.163,0.389-0.301c0.09-0.138,0.135-0.287,0.135-0.449c0-0.237-0.088-0.432-0.26-0.585
				c-0.172-0.152-0.443-0.229-0.814-0.229h-1.586V13.567z"/>
			<path fill="#676767" d="M53.878,14.944l0.598-0.082c0.016,0.383,0.088,0.645,0.217,0.786c0.127,0.142,0.303,0.212,0.529,0.212
				c0.166,0,0.309-0.038,0.43-0.114s0.205-0.181,0.25-0.312s0.068-0.34,0.068-0.627v-3.452h0.664v3.415
				c0,0.419-0.051,0.743-0.152,0.974S56.218,16.149,56,16.271c-0.221,0.121-0.479,0.182-0.773,0.182
				c-0.441,0-0.777-0.127-1.012-0.38C53.982,15.819,53.869,15.443,53.878,14.944z"/>
			<path fill="#676767" d="M57.73,16.366v-5.011h3.623v0.591h-2.959v1.535h2.771v0.588h-2.771v1.705h3.076v0.592H57.73z"/>
			<path fill="#676767" d="M63.66,16.366v-4.42h-1.65v-0.591h3.973v0.591h-1.658v4.42H63.66z"/>
			<path fill="#676767" d="M65.593,16.366l1.924-5.011h0.715l2.051,5.011h-0.756l-0.584-1.518h-2.096l-0.551,1.518H65.593z
				 M67.039,14.309h1.699l-0.523-1.388c-0.16-0.422-0.279-0.768-0.355-1.039c-0.064,0.321-0.154,0.641-0.27,0.957L67.039,14.309z"/>
			<path fill="#676767" d="M40.716,27.366v-5.011h0.998l1.186,3.548c0.109,0.33,0.189,0.578,0.24,0.742
				c0.057-0.183,0.145-0.45,0.266-0.804l1.199-3.486h0.893v5.011h-0.639v-4.193l-1.457,4.193h-0.598l-1.449-4.266v4.266H40.716z"/>
			<path fill="#676767" d="M46.582,27.366v-5.011h3.623v0.591h-2.961v1.535h2.771v0.588h-2.771v1.705h3.076v0.592H46.582z"/>
			<path fill="#676767" d="M51.248,27.366v-5.011h2.221c0.447,0,0.787,0.045,1.02,0.135s0.418,0.249,0.557,0.478
				c0.139,0.228,0.209,0.479,0.209,0.755c0,0.355-0.115,0.655-0.346,0.899c-0.23,0.243-0.586,0.398-1.066,0.465
				c0.176,0.084,0.309,0.167,0.4,0.249c0.193,0.178,0.377,0.399,0.549,0.667l0.873,1.363H54.83l-0.664-1.043
				c-0.193-0.301-0.354-0.53-0.479-0.689c-0.125-0.16-0.238-0.271-0.336-0.336c-0.1-0.063-0.201-0.107-0.303-0.133
				c-0.076-0.016-0.199-0.023-0.369-0.023h-0.77v2.225H51.248z M51.91,24.567h1.426c0.303,0,0.539-0.032,0.711-0.095
				c0.17-0.062,0.301-0.163,0.389-0.301c0.09-0.138,0.135-0.287,0.135-0.449c0-0.237-0.088-0.432-0.26-0.585
				c-0.172-0.152-0.443-0.229-0.814-0.229H51.91V24.567z"/>
			<path fill="#676767" d="M59.867,25.609l0.662,0.167c-0.139,0.545-0.389,0.96-0.75,1.246s-0.803,0.43-1.324,0.43
				c-0.539,0-0.979-0.11-1.318-0.33c-0.338-0.22-0.596-0.539-0.771-0.955c-0.178-0.418-0.266-0.865-0.266-1.344
				c0-0.521,0.1-0.977,0.299-1.365s0.484-0.684,0.852-0.886c0.369-0.201,0.773-0.302,1.215-0.302c0.502,0,0.924,0.127,1.266,0.383
				c0.342,0.255,0.58,0.613,0.715,1.076l-0.654,0.154c-0.115-0.365-0.285-0.631-0.506-0.797s-0.498-0.25-0.834-0.25
				c-0.385,0-0.707,0.093-0.965,0.277c-0.26,0.185-0.441,0.433-0.545,0.743c-0.105,0.312-0.158,0.632-0.158,0.962
				c0,0.427,0.062,0.799,0.188,1.116c0.123,0.318,0.316,0.556,0.578,0.713s0.547,0.235,0.852,0.235c0.371,0,0.686-0.106,0.943-0.32
				C59.601,26.349,59.775,26.031,59.867,25.609z"/>
			<path fill="#676767" d="M60.796,27.366l1.924-5.011h0.715l2.051,5.011H64.73l-0.584-1.518H62.05L61.5,27.366H60.796z
				 M62.242,25.309h1.699l-0.523-1.388c-0.158-0.422-0.277-0.768-0.355-1.039c-0.062,0.321-0.154,0.641-0.27,0.957L62.242,25.309z"
				/>
			<path fill="#676767" d="M66.015,27.366v-5.011h1.727c0.391,0,0.688,0.024,0.893,0.071c0.287,0.066,0.531,0.187,0.734,0.359
				c0.264,0.224,0.463,0.509,0.594,0.856s0.195,0.744,0.195,1.19c0,0.381-0.043,0.719-0.133,1.012
				c-0.088,0.295-0.203,0.538-0.342,0.73s-0.291,0.344-0.457,0.454c-0.164,0.11-0.363,0.194-0.598,0.251
				c-0.232,0.058-0.502,0.086-0.805,0.086H66.015z M66.679,26.774h1.07c0.33,0,0.588-0.03,0.777-0.092
				c0.188-0.062,0.338-0.148,0.449-0.26c0.156-0.157,0.279-0.368,0.367-0.634s0.131-0.588,0.131-0.966
				c0-0.524-0.086-0.927-0.258-1.208s-0.381-0.47-0.627-0.565c-0.178-0.068-0.463-0.104-0.857-0.104h-1.053V26.774z"/>
			<path fill="#676767" d="M70.869,24.926c0-0.832,0.223-1.482,0.67-1.953s1.023-0.706,1.73-0.706c0.461,0,0.879,0.11,1.25,0.332
				c0.371,0.221,0.654,0.528,0.85,0.924s0.293,0.844,0.293,1.346c0,0.508-0.104,0.962-0.309,1.363s-0.496,0.705-0.871,0.911
				c-0.377,0.206-0.781,0.31-1.217,0.31c-0.473,0-0.895-0.114-1.266-0.342c-0.371-0.229-0.652-0.539-0.844-0.934
				S70.869,25.365,70.869,24.926z M71.552,24.937c0,0.604,0.162,1.079,0.486,1.427c0.326,0.348,0.732,0.521,1.223,0.521
				c0.5,0,0.91-0.175,1.232-0.525c0.322-0.352,0.484-0.85,0.484-1.494c0-0.408-0.07-0.764-0.207-1.068
				c-0.139-0.304-0.34-0.54-0.605-0.707c-0.266-0.168-0.564-0.252-0.895-0.252c-0.469,0-0.873,0.162-1.211,0.484
				S71.552,24.182,71.552,24.937z"/>
			<path fill="#676767" d="M76.515,27.366v-5.011h1.891c0.332,0,0.586,0.016,0.762,0.048c0.246,0.041,0.453,0.119,0.619,0.234
				s0.301,0.276,0.402,0.483s0.152,0.436,0.152,0.684c0,0.426-0.137,0.787-0.408,1.082s-0.76,0.442-1.469,0.442h-1.285v2.037H76.515
				z M77.179,24.737h1.295c0.428,0,0.732-0.079,0.912-0.238c0.18-0.16,0.271-0.385,0.271-0.674c0-0.21-0.055-0.389-0.16-0.538
				s-0.246-0.248-0.418-0.296c-0.111-0.029-0.318-0.045-0.619-0.045h-1.281V24.737z"/>
			<path fill="#676767" d="M80.115,27.366l1.924-5.011h0.715l2.051,5.011h-0.756l-0.584-1.518h-2.096l-0.551,1.518H80.115z
				 M81.56,25.309h1.699l-0.523-1.388c-0.158-0.422-0.277-0.768-0.355-1.039c-0.062,0.321-0.154,0.641-0.27,0.957L81.56,25.309z"/>
			<path fill="#676767" d="M87.679,25.401v-0.588l2.123-0.004v1.859c-0.326,0.26-0.662,0.455-1.01,0.586
				c-0.346,0.131-0.701,0.197-1.066,0.197c-0.492,0-0.939-0.105-1.342-0.316s-0.705-0.516-0.91-0.914
				c-0.205-0.399-0.307-0.845-0.307-1.337c0-0.487,0.102-0.942,0.305-1.365c0.205-0.423,0.498-0.737,0.881-0.942
				s0.824-0.307,1.322-0.307c0.363,0,0.689,0.059,0.982,0.176s0.523,0.28,0.689,0.49s0.293,0.483,0.379,0.82l-0.598,0.164
				c-0.076-0.255-0.17-0.456-0.281-0.602s-0.271-0.263-0.479-0.351s-0.438-0.132-0.689-0.132c-0.303,0-0.566,0.047-0.787,0.139
				c-0.221,0.093-0.398,0.214-0.535,0.364c-0.135,0.15-0.24,0.315-0.314,0.495c-0.129,0.311-0.191,0.646-0.191,1.009
				c0,0.446,0.076,0.82,0.23,1.121c0.152,0.301,0.377,0.524,0.672,0.67c0.293,0.146,0.605,0.219,0.936,0.219
				c0.287,0,0.568-0.056,0.842-0.166s0.48-0.229,0.621-0.354v-0.933H87.679z"/>
			<path fill="#676767" d="M90.578,24.926c0-0.832,0.223-1.482,0.67-1.953s1.023-0.706,1.73-0.706c0.461,0,0.879,0.11,1.25,0.332
				c0.371,0.221,0.654,0.528,0.85,0.924s0.293,0.844,0.293,1.346c0,0.508-0.104,0.962-0.309,1.363s-0.496,0.705-0.871,0.911
				c-0.377,0.206-0.781,0.31-1.217,0.31c-0.473,0-0.895-0.114-1.266-0.342c-0.371-0.229-0.652-0.539-0.844-0.934
				S90.578,25.365,90.578,24.926z M91.261,24.937c0,0.604,0.162,1.079,0.486,1.427c0.326,0.348,0.732,0.521,1.223,0.521
				c0.5,0,0.91-0.175,1.232-0.525c0.322-0.352,0.484-0.85,0.484-1.494c0-0.408-0.07-0.764-0.207-1.068
				c-0.139-0.304-0.34-0.54-0.605-0.707c-0.266-0.168-0.564-0.252-0.895-0.252c-0.469,0-0.873,0.162-1.211,0.484
				S91.261,24.182,91.261,24.937z"/>
		</g>
	</g>
</g>
</svg>
