<?xml version="1.0" encoding="utf-8"?>
<!-- Generator: Adobe Illustrator 16.0.0, SVG Export Plug-In . SVG Version: 6.00 Build 0)  -->
<!DOCTYPE svg PUBLIC "-//W3C//DTD SVG 1.1//EN" "http://www.w3.org/Graphics/SVG/1.1/DTD/svg11.dtd">
<svg version="1.1" id="Capa_1" xmlns="http://www.w3.org/2000/svg" xmlns:xlink="http://www.w3.org/1999/xlink" x="0px" y="0px"
	 width="41px" height="40px" viewBox="0 0 41 40" enable-background="new 0 0 41 40" xml:space="preserve">
<g>
	<path fill-rule="evenodd" clip-rule="evenodd" fill="#0033A0" d="M0,20.251V30.81c0,0.827,1.044,1.441,1.872,1.441h36.772
		c0.828,0,2.356-0.614,2.356-1.441V20.251H0z"/>
	<path fill-rule="evenodd" clip-rule="evenodd" fill="#FADF65" d="M41,20.251H0V9.897c0-0.828,1.044-1.646,1.872-1.646h36.772
		C39.472,8.251,41,9.069,41,9.897V20.251z"/>
	<g>
		<path fill-rule="evenodd" clip-rule="evenodd" fill="#FADF65" d="M30.723,23.811c0.174-0.851,0.341-1.666,0.503-2.483
			c0.021-0.11,0.066-0.138,0.174-0.137c0.414,0.008,0.825,0.003,1.253,0.003c-0.077,0.364-0.151,0.718-0.225,1.07
			c-0.251,1.192-0.503,2.385-0.75,3.579c-0.022,0.107-0.065,0.124-0.16,0.123c-0.386-0.004-0.774-0.008-1.162,0.001
			c-0.117,0.003-0.162-0.034-0.197-0.143c-0.258-0.811-0.524-1.619-0.788-2.429c-0.009-0.027-0.023-0.054-0.047-0.113
			c-0.088,0.425-0.17,0.818-0.252,1.214c-0.093,0.45-0.187,0.903-0.28,1.353c-0.014,0.076-0.033,0.119-0.13,0.118
			c-0.394-0.008-0.786-0.005-1.179-0.001c-0.083,0.001-0.115-0.012-0.096-0.106c0.319-1.518,0.637-3.035,0.947-4.554
			c0.02-0.098,0.058-0.115,0.145-0.113c0.407,0.004,0.815,0.006,1.222-0.002c0.094-0.001,0.125,0.038,0.154,0.116
			c0.269,0.793,0.542,1.581,0.814,2.372C30.683,23.711,30.696,23.742,30.723,23.811z"/>
		<path fill-rule="evenodd" clip-rule="evenodd" fill="#FADF65" d="M6.935,25.963c0.225-1.083,0.449-2.152,0.672-3.223
			c0.096-0.467,0.198-0.933,0.289-1.401c0.022-0.113,0.062-0.15,0.183-0.149c0.438,0.009,0.875,0.004,1.32,0.004
			c-0.107,0.511-0.212,1.011-0.32,1.51c-0.023,0.104-0.023,0.156,0.115,0.153c0.362-0.013,0.725-0.009,1.087-0.002
			c0.085,0.001,0.119-0.021,0.137-0.109c0.093-0.468,0.196-0.933,0.289-1.4c0.022-0.109,0.053-0.156,0.177-0.155
			c0.438,0.011,0.876,0.004,1.325,0.004c-0.1,0.488-0.198,0.967-0.298,1.447c-0.219,1.051-0.441,2.102-0.656,3.154
			c-0.026,0.129-0.066,0.177-0.208,0.172c-0.427-0.011-0.855-0.004-1.299-0.004c0.085-0.408,0.167-0.808,0.251-1.209
			c0.039-0.191,0.075-0.384,0.123-0.575c0.025-0.093-0.006-0.109-0.092-0.108c-0.373,0.004-0.745,0.004-1.117-0.001
			c-0.089,0-0.122,0.029-0.139,0.115c-0.108,0.54-0.226,1.079-0.332,1.62c-0.023,0.124-0.071,0.165-0.201,0.162
			C7.807,25.958,7.374,25.963,6.935,25.963z"/>
		<path fill-rule="evenodd" clip-rule="evenodd" fill="#FADF65" d="M14.894,21.081c0.443,0.012,0.869,0.081,1.258,0.309
			c0.481,0.283,0.724,0.729,0.802,1.263c0.12,0.807,0,1.576-0.458,2.264c-0.577,0.864-1.408,1.216-2.429,1.147
			c-0.455-0.029-0.878-0.147-1.242-0.437c-0.364-0.292-0.562-0.682-0.63-1.131c-0.125-0.829,0.011-1.612,0.495-2.312
			c0.465-0.672,1.117-1.031,1.936-1.088C14.713,21.091,14.804,21.086,14.894,21.081z M15.528,23.134
			c-0.002-0.079-0.009-0.226-0.051-0.365c-0.083-0.268-0.252-0.445-0.535-0.485c-0.371-0.05-0.693,0.061-0.917,0.368
			c-0.364,0.496-0.462,1.062-0.374,1.658c0.047,0.32,0.255,0.522,0.53,0.562c0.389,0.056,0.717-0.06,0.955-0.379
			C15.42,24.109,15.506,23.666,15.528,23.134z"/>
		<path fill-rule="evenodd" clip-rule="evenodd" fill="#FADF65" d="M35.489,24.361c-0.187,0-0.372-0.001-0.557,0.001
			c-0.071,0.002-0.096-0.008-0.077-0.092c0.062-0.277,0.117-0.557,0.174-0.837c0.011-0.05,0.016-0.098,0.089-0.098
			c0.623,0.003,1.246,0.002,1.881,0.002c-0.077,0.382-0.153,0.752-0.229,1.116c-0.096,0.464-0.198,0.923-0.29,1.387
			c-0.018,0.088-0.04,0.129-0.142,0.126c-0.235-0.008-0.473-0.005-0.708-0.001c-0.078,0.001-0.107-0.018-0.096-0.099
			c0.016-0.118,0.02-0.236,0.032-0.395c-0.255,0.326-0.563,0.515-0.929,0.569c-1.057,0.154-2.042-0.25-2.258-1.529
			c-0.167-0.981,0.064-1.888,0.744-2.645c0.431-0.479,0.988-0.711,1.62-0.768c0.519-0.047,1.024-0.002,1.487,0.27
			c0.533,0.314,0.761,0.803,0.792,1.404c0.003,0.074-0.022,0.092-0.092,0.092c-0.403-0.003-0.806-0.003-1.208-0.003
			c-0.045,0-0.085,0.005-0.094-0.063c-0.064-0.498-0.485-0.575-0.861-0.507c-0.373,0.067-0.608,0.318-0.759,0.646
			c-0.187,0.402-0.249,0.826-0.189,1.265c0.058,0.426,0.318,0.658,0.748,0.677c0.343,0.016,0.652-0.051,0.857-0.36
			C35.454,24.474,35.485,24.429,35.489,24.361z"/>
		<path fill-rule="evenodd" clip-rule="evenodd" fill="#FADF65" d="M16.631,25.963c0.277-1.323,0.55-2.635,0.825-3.943
			c0.048-0.238,0.098-0.472,0.144-0.71c0.017-0.084,0.05-0.12,0.146-0.119c0.75,0.006,1.5-0.001,2.249,0.006
			c0.496,0.004,0.95,0.134,1.211,0.594c0.408,0.721,0.336,1.864-0.675,2.442c-0.319,0.181-0.666,0.273-1.034,0.282
			c-0.333,0.006-0.664,0.007-0.996,0.002c-0.098-0.002-0.13,0.033-0.147,0.119c-0.081,0.402-0.165,0.807-0.248,1.207
			c-0.012,0.054-0.001,0.123-0.097,0.123C17.553,25.962,17.096,25.963,16.631,25.963z M18.622,23.391
			c0.331-0.012,0.654,0.029,0.968-0.056c0.264-0.072,0.391-0.267,0.365-0.543c-0.02-0.215-0.172-0.345-0.441-0.36
			c-0.2-0.013-0.402-0.008-0.603-0.011c-0.05-0.001-0.089,0.007-0.101,0.064C18.749,22.783,18.687,23.082,18.622,23.391z"/>
		<path fill-rule="evenodd" clip-rule="evenodd" fill="#FADF65" d="M21.043,25.963c0.323-1.557,0.644-3.093,0.963-4.632
			c0.02-0.099,0.056-0.142,0.172-0.142c0.725,0.008,1.45,0.004,2.174,0.004c0.223,0,0.444,0.021,0.653,0.1
			c0.483,0.177,0.721,0.549,0.806,1.036c0.221,1.299-0.749,2.133-1.865,2.182c-0.348,0.015-0.695,0.011-1.042,0.006
			c-0.092-0.002-0.122,0.032-0.138,0.111c-0.081,0.401-0.168,0.805-0.247,1.209c-0.018,0.096-0.049,0.13-0.153,0.13
			C21.929,25.96,21.491,25.963,21.043,25.963z M23.619,22.415c0,0.001,0,0.004,0,0.006c-0.095,0-0.19,0.004-0.285-0.001
			c-0.077-0.004-0.105,0.025-0.12,0.099c-0.051,0.26-0.105,0.518-0.166,0.779c-0.018,0.076-0.004,0.094,0.072,0.093
			c0.176-0.005,0.352,0.003,0.527-0.005c0.15-0.006,0.301-0.02,0.441-0.082c0.204-0.09,0.3-0.27,0.275-0.516
			c-0.018-0.189-0.127-0.303-0.355-0.345C23.882,22.42,23.749,22.423,23.619,22.415z"/>
		<path fill-rule="evenodd" clip-rule="evenodd" fill="#FADF65" d="M3.653,24.361c0.201,0,0.403,0,0.604,0
			c0.046,0.001,0.093-0.016,0.106,0.067c0.08,0.513,0.319,0.68,0.837,0.585c0.143-0.024,0.283-0.067,0.392-0.173
			c0.192-0.185,0.167-0.436-0.065-0.566c-0.246-0.14-0.526-0.189-0.793-0.275c-0.278-0.088-0.554-0.181-0.794-0.35
			c-0.545-0.387-0.679-1.148-0.312-1.731c0.229-0.361,0.565-0.577,0.965-0.701c0.619-0.194,1.239-0.188,1.847,0.034
			c0.572,0.21,0.879,0.669,0.89,1.269c0.003,0.104-0.029,0.123-0.124,0.121c-0.374-0.005-0.745-0.004-1.118,0
			c-0.074,0-0.118-0.005-0.122-0.101c-0.007-0.186-0.116-0.303-0.292-0.359c-0.207-0.065-0.417-0.061-0.62,0.013
			c-0.144,0.054-0.233,0.158-0.237,0.318c-0.005,0.149,0.094,0.224,0.213,0.28c0.223,0.11,0.468,0.144,0.706,0.206
			c0.224,0.058,0.438,0.134,0.644,0.244c0.729,0.388,0.954,1.226,0.512,1.929C6.592,25.648,6.132,25.887,5.6,26
			c-0.652,0.143-1.29,0.106-1.89-0.206c-0.53-0.279-0.775-0.736-0.773-1.332c0-0.078,0.018-0.104,0.099-0.102
			C3.24,24.365,3.447,24.361,3.653,24.361z"/>
		<path fill-rule="evenodd" clip-rule="evenodd" fill="#FADF65" d="M25.453,25.963c0.276-1.335,0.55-2.655,0.824-3.975
			c0.045-0.223,0.096-0.44,0.136-0.664c0.017-0.091,0.044-0.135,0.15-0.134c0.407,0.008,0.816,0.008,1.223,0
			c0.11-0.001,0.121,0.036,0.103,0.128c-0.313,1.502-0.625,3.004-0.935,4.507c-0.022,0.104-0.058,0.143-0.172,0.142
			C26.345,25.959,25.908,25.963,25.453,25.963z"/>
	</g>
	<g>
		<path fill-rule="evenodd" clip-rule="evenodd" fill="#0033A0" d="M22.516,19.431c0.357-1.715,0.709-3.403,1.059-5.093
			c0.02-0.1,0.057-0.142,0.169-0.142c1.346,0.007,2.692,0.007,4.039,0.002c0.13-0.002,0.142,0.04,0.117,0.149
			c-0.077,0.348-0.155,0.698-0.215,1.051c-0.022,0.134-0.08,0.149-0.194,0.149c-0.795-0.004-1.589,0.002-2.383-0.006
			c-0.135-0.001-0.185,0.04-0.202,0.163c-0.018,0.119-0.043,0.239-0.076,0.354c-0.033,0.118,0.013,0.134,0.118,0.134
			c0.723-0.004,1.445-0.002,2.168-0.002c0.2,0,0.202,0,0.16,0.2c-0.064,0.307-0.134,0.611-0.188,0.92
			c-0.02,0.106-0.058,0.132-0.161,0.131c-0.739-0.004-1.479,0.002-2.217-0.007c-0.141,0-0.191,0.044-0.21,0.172
			c-0.022,0.158-0.061,0.312-0.096,0.485c0.262,0,0.518,0,0.773,0c0.613,0,1.226,0.002,1.837-0.003c0.115,0,0.157,0.02,0.129,0.144
			c-0.082,0.364-0.161,0.731-0.229,1.098c-0.021,0.118-0.093,0.1-0.167,0.1c-0.867,0-1.733,0-2.599,0
			C23.61,19.431,23.069,19.431,22.516,19.431z"/>
		<path fill-rule="evenodd" clip-rule="evenodd" fill="#0033A0" d="M12.613,19.431c0.355-1.711,0.705-3.395,1.053-5.081
			c0.022-0.107,0.052-0.153,0.176-0.153c0.845,0.008,1.689,0.004,2.533,0.004c0.298,0.003,0.594,0.03,0.88,0.127
			c0.422,0.144,0.679,0.431,0.761,0.871c0.173,0.938-0.303,1.637-1.102,1.797c-0.025,0.006-0.049,0.018-0.087,0.033
			c0.459,0.147,0.519,0.522,0.543,0.913c0.022,0.38-0.036,0.761,0,1.143c0.011,0.115,0.04,0.225,0.066,0.347
			c-0.487,0-0.966-0.004-1.446,0.002c-0.122,0.002-0.117-0.086-0.125-0.153c-0.032-0.231-0.026-0.462,0.005-0.693
			c0.017-0.118,0.037-0.239,0.045-0.36c0.026-0.387-0.13-0.58-0.518-0.611c-0.247-0.019-0.497,0-0.745-0.009
			c-0.094-0.003-0.087,0.06-0.098,0.114c-0.109,0.513-0.219,1.022-0.32,1.536c-0.023,0.12-0.05,0.184-0.203,0.181
			C13.563,19.421,13.094,19.431,12.613,19.431z M15.349,16.484v-0.003c0.138,0,0.276,0.006,0.414-0.001
			c0.162-0.007,0.315-0.048,0.449-0.142c0.188-0.133,0.27-0.359,0.208-0.565c-0.057-0.197-0.219-0.312-0.466-0.319
			c-0.275-0.006-0.552,0-0.828-0.006c-0.077,0-0.106,0.028-0.121,0.097c-0.056,0.275-0.113,0.549-0.174,0.823
			c-0.022,0.096,0.007,0.123,0.103,0.119C15.072,16.48,15.211,16.484,15.349,16.484z"/>
		<path fill-rule="evenodd" clip-rule="evenodd" fill="#0033A0" d="M6.824,19.431c0.482-0.836,0.947-1.637,1.411-2.439
			c0.519-0.894,1.036-1.786,1.549-2.682c0.042-0.073,0.081-0.113,0.174-0.111c0.447,0.006,0.895,0.006,1.34,0
			c0.108-0.002,0.137,0.033,0.153,0.137c0.169,1.11,0.345,2.22,0.517,3.327c0.086,0.553,0.167,1.111,0.255,1.665
			c0.012,0.077,0.012,0.105-0.078,0.104c-0.462-0.004-0.927-0.004-1.39,0c-0.078,0.001-0.101-0.021-0.107-0.101
			c-0.015-0.18-0.045-0.359-0.06-0.542c-0.007-0.083-0.036-0.111-0.122-0.108c-0.501,0.002-1.003,0.002-1.505-0.003
			c-0.083,0-0.117,0.039-0.149,0.103c-0.096,0.185-0.197,0.367-0.294,0.551c-0.029,0.054-0.049,0.102-0.129,0.101
			C7.877,19.428,7.366,19.431,6.824,19.431z M10.277,15.973c-0.288,0.558-0.554,1.067-0.826,1.593c0.316,0,0.603-0.003,0.89,0.004
			c0.098,0.001,0.116-0.022,0.104-0.121C10.384,16.973,10.335,16.499,10.277,15.973z"/>
		<path fill-rule="evenodd" clip-rule="evenodd" fill="#0033A0" d="M31.198,19.431c0.116-0.201,0.218-0.379,0.32-0.559
			c0.881-1.521,1.763-3.042,2.64-4.562c0.043-0.075,0.082-0.113,0.175-0.111c0.446,0.006,0.894,0.006,1.34,0
			c0.108-0.002,0.136,0.035,0.151,0.137c0.167,1.104,0.342,2.208,0.513,3.312c0.088,0.562,0.168,1.12,0.258,1.681
			c0.013,0.08,0.01,0.105-0.079,0.104c-0.463-0.004-0.927-0.004-1.39,0c-0.08,0.001-0.1-0.023-0.106-0.101
			c-0.014-0.182-0.045-0.361-0.061-0.542c-0.007-0.084-0.038-0.111-0.123-0.108c-0.502,0.002-1.004,0.002-1.505-0.003
			c-0.084,0-0.117,0.04-0.148,0.103c-0.098,0.185-0.196,0.368-0.295,0.551c-0.024,0.046-0.038,0.101-0.112,0.1
			C32.261,19.429,31.745,19.431,31.198,19.431z M34.649,15.973c-0.287,0.558-0.552,1.067-0.824,1.593
			c0.32,0,0.605-0.002,0.893,0.004c0.082,0,0.116-0.014,0.104-0.109C34.761,16.98,34.709,16.503,34.649,15.973z"/>
		<path fill-rule="evenodd" clip-rule="evenodd" fill="#0033A0" d="M6.287,14.2c0.706,0,1.412,0.003,2.118-0.002
			c0.124-0.002,0.144,0.027,0.115,0.147c-0.081,0.348-0.149,0.699-0.216,1.051c-0.022,0.114-0.069,0.156-0.192,0.153
			c-0.385-0.009-0.772,0-1.159-0.006c-0.1-0.002-0.143,0.025-0.163,0.126c-0.245,1.196-0.495,2.389-0.735,3.586
			c-0.028,0.142-0.078,0.181-0.22,0.179c-0.419-0.011-0.838-0.014-1.258,0c-0.143,0.002-0.173-0.031-0.146-0.168
			c0.176-0.813,0.345-1.625,0.515-2.438c0.08-0.383,0.158-0.764,0.24-1.146c0.023-0.109-0.004-0.142-0.12-0.139
			c-0.375,0.006-0.749-0.003-1.124,0.004c-0.138,0.004-0.194-0.006-0.15-0.172c0.089-0.347,0.154-0.698,0.22-1.05
			c0.018-0.104,0.057-0.128,0.157-0.128C4.875,14.203,5.582,14.2,6.287,14.2z"/>
		<path fill-rule="evenodd" clip-rule="evenodd" fill="#0033A0" d="M30.663,14.2c0.695,0,1.39,0.003,2.084-0.002
			c0.131-0.002,0.183,0.006,0.143,0.165c-0.087,0.342-0.149,0.688-0.212,1.035c-0.022,0.118-0.073,0.154-0.195,0.151
			c-0.381-0.009-0.76,0.002-1.142-0.008c-0.116-0.001-0.158,0.032-0.181,0.145c-0.221,1.089-0.446,2.175-0.67,3.263
			c-0.032,0.158-0.02,0.371-0.116,0.452c-0.098,0.079-0.305,0.026-0.463,0.027c-0.325,0.002-0.651-0.008-0.977,0.006
			c-0.134,0.005-0.152-0.037-0.128-0.155c0.174-0.811,0.341-1.624,0.511-2.437c0.08-0.382,0.156-0.766,0.242-1.146
			c0.03-0.132-0.011-0.156-0.136-0.153c-0.385,0.008-0.772,0-1.158,0.004c-0.099,0-0.134-0.008-0.106-0.126
			c0.085-0.364,0.161-0.73,0.229-1.099c0.02-0.104,0.063-0.125,0.158-0.123C29.252,14.203,29.956,14.2,30.663,14.2z"/>
		<path fill-rule="evenodd" clip-rule="evenodd" fill="#0033A0" d="M22.771,14.2c-0.266,1.261-0.519,2.506-0.793,3.746
			c-0.271,1.215-1.076,1.665-2.324,1.598c-0.204-0.009-0.403-0.043-0.598-0.108c-0.57-0.195-0.896-0.62-0.907-1.223
			c-0.007-0.299,0.039-0.593,0.109-0.882c0.018-0.075,0.043-0.096,0.119-0.096c0.414,0.004,0.828,0.004,1.241,0
			c0.086,0,0.102,0.024,0.083,0.104c-0.035,0.155-0.066,0.311-0.093,0.47c-0.045,0.265,0.05,0.452,0.241,0.491
			c0.26,0.053,0.449-0.065,0.51-0.343c0.203-0.928,0.399-1.858,0.597-2.789c0.062-0.29,0.13-0.578,0.188-0.87
			c0.015-0.071,0.029-0.101,0.11-0.099C21.755,14.203,22.256,14.2,22.771,14.2z"/>
	</g>
</g>
</svg>
