<?xml version="1.0" encoding="utf-8"?>
<!-- Generator: Adobe Illustrator 16.0.0, SVG Export Plug-In . SVG Version: 6.00 Build 0)  -->
<!DOCTYPE svg PUBLIC "-//W3C//DTD SVG 1.1//EN" "http://www.w3.org/Graphics/SVG/1.1/DTD/svg11.dtd">
<svg version="1.1" id="Capa_1" xmlns="http://www.w3.org/2000/svg" xmlns:xlink="http://www.w3.org/1999/xlink" x="0px" y="0px"
	 width="71.955px" height="40px" viewBox="0 0 71.955 40" enable-background="new 0 0 71.955 40" xml:space="preserve">
<path fill-rule="evenodd" clip-rule="evenodd" fill="#212044" d="M7.092,12.887h1.034c-0.074,0.472-0.465,0.794-0.963,0.794
	c-0.383,0-0.55-0.185-0.55-0.393C6.613,13.104,6.782,12.887,7.092,12.887L7.092,12.887z M11.399,11.5L11.399,11.5H1.438
	c-0.537,0-0.894,0.352-0.963,0.803C0.352,13.112,0,15.482,0,15.482h1.731l-0.17,1.149c0.37-0.726,0.933-1.33,1.626-1.758H1.14
	c0.48-1.374,1.675-2.502,4.165-2.502h2.901c0,0-0.03,0.231-0.08,0.515l0,0h2.405c0.702,0,0.968,0.25,0.854,1.016
	c-0.103,0.645-0.257,1.707-0.257,1.707c0.13,0.081,0.359,0.252,0.5,0.371c0.071,0.063,0.213,0.048,0.23-0.092
	c0.031-0.18,0.362-2.371,0.5-3.298C12.491,11.705,12.026,11.5,11.399,11.5z"/>
<path fill-rule="evenodd" clip-rule="evenodd" fill="#048C41" d="M16.21,26.074l1.729-11.442c0,0,1.292-0.655,1.507-0.776
	c0.248-0.123,0.452-0.072,0.395,0.309c-0.107,0.667-1.812,11.91-1.812,11.91H16.21L16.21,26.074z"/>
<path fill-rule="evenodd" clip-rule="evenodd" fill="#048C41" d="M9.212,15.111L9.212,15.111c-2.213,0-4.086,0.871-4.626,4.517
	c-0.604,4.031-0.963,6.446-0.963,6.446h1.821c0,0,0.359-2.415,0.964-6.446c0.428-2.87,1.891-4,4.723-4.02
	C10.545,15.25,9.959,15.111,9.212,15.111L9.212,15.111z"/>
<path fill-rule="evenodd" clip-rule="evenodd" fill="#048C41" d="M25.11,17.341c-2.923,0-4.303,1.488-4.697,3.996
	c-0.491,3.129-0.184,4.882,3.194,4.882c1.737,0,2.795-0.663,3.142-0.909l-0.265-1.025c-1.226,0.457-1.646,0.579-2.54,0.579
	c-1.236,0-2.112-0.29-1.798-1.914c0,0,1.693-0.244,2.999-0.446c1.862-0.281,2.627-0.921,2.809-2.302
	C28.281,17.793,26.68,17.341,25.11,17.341z M26.386,19.899c-0.096,0.62-0.306,1.099-1.764,1.316c-1.61,0.234-2.42,0.365-2.42,0.365
	c0.154-1.587,0.99-2.951,2.837-2.951C26.228,18.63,26.456,19.427,26.386,19.899z"/>
<path fill-rule="evenodd" clip-rule="evenodd" fill="#048C41" d="M12.804,17.341c-2.923,0-4.304,1.488-4.691,3.996
	c-0.489,3.129-0.19,4.882,3.188,4.882c1.738,0,2.795-0.663,3.142-0.909l-0.265-1.025c-1.226,0.457-1.635,0.579-2.538,0.579
	c-1.238,0-2.114-0.29-1.799-1.914c0,0,1.692-0.244,3-0.446c1.86-0.281,2.626-0.921,2.809-2.302
	C15.976,17.793,14.371,17.341,12.804,17.341z M14.083,19.899c-0.099,0.62-0.311,1.099-1.767,1.316
	c-1.604,0.234-2.422,0.365-2.422,0.365c0.158-1.587,0.992-2.951,2.837-2.951C13.922,18.63,14.156,19.427,14.083,19.899z"/>
<path fill-rule="evenodd" clip-rule="evenodd" fill="#048C41" d="M36.014,18.272L36.014,18.272c-0.555-0.54-1.251-0.932-2.614-0.932
	c-2.177,0-3.925,1.308-4.355,4.095c-0.422,2.729-0.197,4.783,3.008,4.783c1.735,0,2.557-0.663,2.904-0.909l-0.275-1.025
	c-0.819,0.324-1.29,0.579-2.183,0.579c-1.456,0-1.923-0.702-1.506-3.403c0.376-2.395,1.828-2.808,2.491-2.808
	c0.843,0,1.292,0.41,1.534,1.023L36.014,18.272L36.014,18.272z"/>
<path fill-rule="evenodd" clip-rule="evenodd" fill="#048C41" d="M40.879,17.338c-2.549,0-4.163,1.218-4.619,4.194
	c-0.489,3.175,0.091,4.702,3.163,4.702c2.959,0,4.021-2.103,4.416-4.702C44.236,18.911,43.596,17.338,40.879,17.338z M42.041,21.532
	c-0.342,2.37-1.065,3.318-2.569,3.318c-1.421,0-1.658-0.821-1.281-3.318c0.355-2.363,1.252-2.904,2.566-2.904
	C41.776,18.628,42.407,18.979,42.041,21.532z"/>
<path fill-rule="evenodd" clip-rule="evenodd" fill="#048C41" d="M54.073,17.349L54.073,17.349c-1.137,0-1.84,0.438-2.481,1.282
	c-0.26-0.826-1.176-1.282-1.827-1.282c-1.149,0-1.748,0.354-2.353,1.037h-0.031c0.03-0.349,0.041-0.435,0.08-0.764
	c0.037-0.381-0.115-0.424-0.345-0.309c-0.34,0.181-1.266,0.649-1.266,0.649l-1.218,8.112h1.763c0.282-1.884,0.564-3.757,0.82-5.473
	c0.303-1.093,1.07-1.724,1.865-1.724c0.778,0,1.109,0.684,0.947,1.718c-0.241,1.545-0.822,5.479-0.822,5.479h1.785
	c0.285-1.884,0.566-3.757,0.832-5.473c0.224-0.841,1.018-1.724,1.758-1.724c0.948,0,1.199,0.684,1.052,1.718
	c-0.235,1.545-0.83,5.479-0.83,5.479h1.76c0.285-1.884,0.594-3.913,0.849-5.618C56.609,19.121,56.323,17.349,54.073,17.349
	L54.073,17.349z"/>
<path fill-rule="evenodd" clip-rule="evenodd" fill="#048C41" d="M66.948,17.349L66.948,17.349c-1.142,0-1.844,0.438-2.481,1.282
	c-0.271-0.826-1.175-1.282-1.829-1.282c-1.148,0-1.75,0.354-2.349,1.037h-0.034c0.032-0.349,0.039-0.435,0.071-0.764
	c0.048-0.381-0.106-0.424-0.342-0.309c-0.335,0.181-1.268,0.649-1.268,0.649l-1.211,8.112h1.764
	c0.282-1.884,0.563-3.757,0.821-5.473c0.3-1.093,1.07-1.724,1.854-1.724c0.786,0,1.118,0.684,0.957,1.718
	c-0.241,1.545-0.82,5.479-0.82,5.479h1.784c0.282-1.884,0.565-3.757,0.823-5.473c0.233-0.841,1.028-1.724,1.763-1.724
	c0.952,0,1.202,0.684,1.045,1.718c-0.223,1.545-0.82,5.479-0.82,5.479h1.761c0.285-1.884,0.591-3.913,0.85-5.618
	C69.484,19.121,69.196,17.349,66.948,17.349L66.948,17.349z"/>
<path fill-rule="evenodd" clip-rule="evenodd" fill="#048C41" d="M70.849,24.357c-0.615,0-1.109,0.3-1.109,1.107
	c0,0.821,0.494,1.105,1.109,1.105c0.613,0,1.106-0.284,1.106-1.105C71.955,24.657,71.462,24.357,70.849,24.357z M70.849,26.327
	c-0.469,0-0.849-0.234-0.849-0.862c0-0.629,0.38-0.862,0.849-0.862c0.456,0,0.848,0.233,0.848,0.862
	C71.696,26.093,71.305,26.327,70.849,26.327z"/>
<path fill-rule="evenodd" clip-rule="evenodd" fill="#048C41" d="M71.086,25.606c0.158-0.054,0.241-0.168,0.241-0.363
	c0-0.229-0.111-0.402-0.454-0.402H70.38v1.233h0.274v-0.438c0.072,0.006,0.111,0.006,0.179,0.006
	c0.083,0.143,0.173,0.288,0.253,0.432h0.3C71.288,25.923,71.189,25.772,71.086,25.606z M71.06,25.258
	c0,0.125-0.069,0.181-0.22,0.181c-0.062,0-0.138-0.008-0.186-0.015v-0.369h0.212c0.142,0,0.193,0.075,0.193,0.181V25.258z"/>
<path fill-rule="evenodd" clip-rule="evenodd" fill="#CE1619" d="M49.397,28.047L49.397,28.047H22.239
	c-3.867,0.001-6.323,0.227-6.323,0.227s3.604,0.221,6.323,0.227h27.075c3.843-0.008,6.265-0.227,6.265-0.227
	S52.096,28.06,49.397,28.047z"/>
</svg>
