<?xml version="1.0" encoding="utf-8"?>
<!-- Generator: Adobe Illustrator 16.0.0, SVG Export Plug-In . SVG Version: 6.00 Build 0)  -->
<!DOCTYPE svg PUBLIC "-//W3C//DTD SVG 1.1//EN" "http://www.w3.org/Graphics/SVG/1.1/DTD/svg11.dtd">
<svg version="1.1" id="Capa_1" xmlns="http://www.w3.org/2000/svg" xmlns:xlink="http://www.w3.org/1999/xlink" x="0px" y="0px"
	 width="54.184px" height="40px" viewBox="0 0 54.184 40" enable-background="new 0 0 54.184 40" xml:space="preserve">
<g>
	<linearGradient id="SVGID_1_" gradientUnits="userSpaceOnUse" x1="8.0518" y1="20" x2="35.4148" y2="20">
		<stop  offset="0" style="stop-color:#22264E"/>
		<stop  offset="1" style="stop-color:#204891"/>
	</linearGradient>
	<path fill-rule="evenodd" clip-rule="evenodd" fill="url(#SVGID_1_)" d="M20.574,11.322l-7.096,17.405H8.853L5.361,14.837
		c-0.211-0.857-0.397-1.172-1.041-1.531C3.268,12.717,1.528,12.167,0,11.824l0.105-0.502h7.447c0.951,0,1.806,0.647,2.021,1.773
		l1.842,10.071l4.557-11.845H20.574z M38.706,23.043c0.018-4.594-6.177-4.847-6.135-6.9c0.015-0.622,0.592-1.287,1.857-1.46
		c0.627-0.082,2.357-0.147,4.316,0.782l0.769-3.692C38.46,11.379,37.106,11,35.419,11c-4.33,0-7.373,2.365-7.399,5.756
		c-0.025,2.508,2.175,3.904,3.835,4.738c1.704,0.853,2.275,1.398,2.271,2.164c-0.014,1.167-1.36,1.681-2.62,1.701
		c-2.204,0.034-3.478-0.609-4.497-1.099l-0.791,3.815c1.02,0.481,2.91,0.902,4.867,0.924C35.684,29,38.691,26.665,38.706,23.043z
		 M50.134,28.728h4.05l-3.536-17.405h-3.736c-0.842,0-1.549,0.498-1.863,1.272l-6.569,16.133h4.596l0.915-2.602h5.615L50.134,28.728
		z M45.249,22.56l2.303-6.539l1.326,6.539H45.249z M26.828,11.322l-3.62,17.405h-4.379l3.624-17.405H26.828z"/>
	<linearGradient id="SVGID_2_" gradientUnits="userSpaceOnUse" x1="8.0518" y1="20" x2="35.4148" y2="20">
		<stop  offset="0" style="stop-color:#22264E"/>
		<stop  offset="1" style="stop-color:#204891"/>
	</linearGradient>
	<path fill-rule="evenodd" clip-rule="evenodd" fill="url(#SVGID_2_)" d="M20.574,11.322l-7.096,17.405H8.853L5.361,14.837
		c-0.211-0.857-0.397-1.172-1.041-1.531C3.268,12.717,1.528,12.167,0,11.824l0.105-0.502h7.447c0.951,0,1.806,0.647,2.021,1.773
		l1.842,10.071l4.557-11.845H20.574z M38.706,23.043c0.018-4.594-6.177-4.847-6.135-6.9c0.015-0.622,0.592-1.287,1.857-1.46
		c0.627-0.082,2.357-0.147,4.316,0.782l0.769-3.692C38.46,11.379,37.106,11,35.419,11c-4.33,0-7.373,2.365-7.399,5.756
		c-0.025,2.508,2.175,3.904,3.835,4.738c1.704,0.853,2.275,1.398,2.271,2.164c-0.014,1.167-1.36,1.681-2.62,1.701
		c-2.204,0.034-3.478-0.609-4.497-1.099l-0.791,3.815c1.02,0.481,2.91,0.902,4.867,0.924C35.684,29,38.691,26.665,38.706,23.043z
		 M50.134,28.728h4.05l-3.536-17.405h-3.736c-0.842,0-1.549,0.498-1.863,1.272l-6.569,16.133h4.596l0.915-2.602h5.615L50.134,28.728
		z M45.249,22.56l2.303-6.539l1.326,6.539H45.249z M26.828,11.322l-3.62,17.405h-4.379l3.624-17.405H26.828z"/>
</g>
</svg>
