<?xml version="1.0" encoding="utf-8"?>
<!-- Generator: Adobe Illustrator 16.0.0, SVG Export Plug-In . SVG Version: 6.00 Build 0)  -->
<!DOCTYPE svg PUBLIC "-//W3C//DTD SVG 1.1//EN" "http://www.w3.org/Graphics/SVG/1.1/DTD/svg11.dtd">
<svg version="1.1" id="Capa_1" xmlns="http://www.w3.org/2000/svg" xmlns:xlink="http://www.w3.org/1999/xlink" x="0px" y="0px"
	 width="82.337px" height="40px" viewBox="0 0 82.337 40" enable-background="new 0 0 82.337 40" xml:space="preserve">
<g>
	<g>
		<linearGradient id="SVGID_1_" gradientUnits="userSpaceOnUse" x1="8.0518" y1="20" x2="35.4148" y2="20">
			<stop  offset="0" style="stop-color:#22264E"/>
			<stop  offset="1" style="stop-color:#204891"/>
		</linearGradient>
		<path fill-rule="evenodd" clip-rule="evenodd" fill="url(#SVGID_1_)" d="M20.574,11.322l-7.096,17.405H8.854L5.361,14.837
			c-0.211-0.857-0.396-1.172-1.041-1.531C3.268,12.717,1.529,12.167,0,11.824l0.105-0.502h7.447c0.951,0,1.807,0.647,2.021,1.773
			l1.842,10.071l4.557-11.845H20.574z M38.707,23.043c0.018-4.594-6.178-4.847-6.135-6.9c0.014-0.622,0.592-1.287,1.857-1.46
			c0.627-0.082,2.357-0.147,4.316,0.782l0.768-3.692C38.461,11.379,37.107,11,35.42,11c-4.33,0-7.373,2.365-7.4,5.756
			c-0.025,2.508,2.176,3.904,3.836,4.738c1.703,0.853,2.275,1.398,2.27,2.164c-0.014,1.167-1.359,1.681-2.619,1.701
			c-2.205,0.034-3.479-0.609-4.498-1.099l-0.791,3.815c1.02,0.481,2.91,0.902,4.867,0.924C35.684,29,38.691,26.665,38.707,23.043z
			 M50.135,28.728h4.049l-3.535-17.405h-3.736c-0.842,0-1.549,0.498-1.863,1.272l-6.57,16.133h4.596l0.916-2.602h5.615
			L50.135,28.728z M45.25,22.56l2.303-6.539l1.326,6.539H45.25z M26.828,11.322l-3.619,17.405H18.83l3.623-17.405H26.828z"/>
		<linearGradient id="SVGID_2_" gradientUnits="userSpaceOnUse" x1="8.0518" y1="20" x2="35.4148" y2="20">
			<stop  offset="0" style="stop-color:#22264E"/>
			<stop  offset="1" style="stop-color:#204891"/>
		</linearGradient>
		<path fill-rule="evenodd" clip-rule="evenodd" fill="url(#SVGID_2_)" d="M20.574,11.322l-7.096,17.405H8.854L5.361,14.837
			c-0.211-0.857-0.396-1.172-1.041-1.531C3.268,12.717,1.529,12.167,0,11.824l0.105-0.502h7.447c0.951,0,1.807,0.647,2.021,1.773
			l1.842,10.071l4.557-11.845H20.574z M38.707,23.043c0.018-4.594-6.178-4.847-6.135-6.9c0.014-0.622,0.592-1.287,1.857-1.46
			c0.627-0.082,2.357-0.147,4.316,0.782l0.768-3.692C38.461,11.379,37.107,11,35.42,11c-4.33,0-7.373,2.365-7.4,5.756
			c-0.025,2.508,2.176,3.904,3.836,4.738c1.703,0.853,2.275,1.398,2.27,2.164c-0.014,1.167-1.359,1.681-2.619,1.701
			c-2.205,0.034-3.479-0.609-4.498-1.099l-0.791,3.815c1.02,0.481,2.91,0.902,4.867,0.924C35.684,29,38.691,26.665,38.707,23.043z
			 M50.135,28.728h4.049l-3.535-17.405h-3.736c-0.842,0-1.549,0.498-1.863,1.272l-6.57,16.133h4.596l0.916-2.602h5.615
			L50.135,28.728z M45.25,22.56l2.303-6.539l1.326,6.539H45.25z M26.828,11.322l-3.619,17.405H18.83l3.623-17.405H26.828z"/>
	</g>
	<g>
		<g>
			<path fill="#676767" d="M57.259,22.003v-5.012h1.726c0.391,0,0.688,0.025,0.893,0.072c0.287,0.066,0.532,0.186,0.734,0.359
				c0.265,0.223,0.463,0.508,0.594,0.855s0.196,0.744,0.196,1.191c0,0.381-0.044,0.719-0.134,1.012
				c-0.088,0.295-0.202,0.537-0.342,0.73c-0.139,0.191-0.291,0.344-0.456,0.453c-0.165,0.111-0.364,0.195-0.598,0.252
				s-0.502,0.086-0.806,0.086H57.259z M57.922,21.411h1.07c0.33,0,0.589-0.031,0.777-0.092c0.188-0.062,0.338-0.148,0.449-0.26
				c0.157-0.158,0.279-0.369,0.367-0.635s0.132-0.588,0.132-0.965c0-0.525-0.086-0.928-0.258-1.209s-0.382-0.469-0.628-0.564
				c-0.178-0.068-0.463-0.104-0.857-0.104h-1.053V21.411z"/>
			<path fill="#676767" d="M62.327,22.003v-5.012h3.623v0.592h-2.96v1.535h2.771v0.588H62.99v1.705h3.076v0.592H62.327z
				 M63.694,16.685l0.454-0.957h0.807l-0.752,0.957H63.694z"/>
			<path fill="#676767" d="M66.956,22.003v-5.012h1.88c0.383,0,0.689,0.051,0.921,0.152s0.413,0.258,0.544,0.469
				s0.196,0.432,0.196,0.662c0,0.213-0.058,0.414-0.175,0.604c-0.115,0.189-0.291,0.342-0.525,0.459
				c0.303,0.088,0.535,0.24,0.698,0.455c0.163,0.213,0.245,0.467,0.245,0.758c0,0.234-0.05,0.453-0.149,0.654
				c-0.099,0.201-0.222,0.357-0.367,0.467s-0.329,0.191-0.549,0.248c-0.22,0.055-0.489,0.084-0.808,0.084H66.956z M67.619,19.097
				h1.084c0.293,0,0.504-0.02,0.632-0.057c0.169-0.051,0.296-0.135,0.381-0.25c0.086-0.117,0.128-0.262,0.128-0.438
				c0-0.166-0.039-0.312-0.119-0.439s-0.193-0.213-0.342-0.26s-0.402-0.07-0.762-0.07h-1.002V19.097z M67.619,21.411h1.248
				c0.214,0,0.364-0.008,0.451-0.023c0.152-0.027,0.279-0.074,0.383-0.137c0.102-0.064,0.187-0.156,0.252-0.279
				c0.066-0.121,0.1-0.262,0.1-0.422c0-0.188-0.048-0.35-0.144-0.486c-0.096-0.139-0.229-0.236-0.398-0.291
				c-0.17-0.057-0.414-0.084-0.733-0.084h-1.158V21.411z"/>
			<path fill="#676767" d="M71.764,22.003v-5.012h0.664v5.012H71.764z"/>
			<path fill="#676767" d="M74.871,22.003v-4.42h-1.65v-0.592h3.972v0.592h-1.657v4.42H74.871z"/>
			<path fill="#676767" d="M77.544,19.562c0-0.832,0.224-1.482,0.67-1.953c0.447-0.471,1.023-0.705,1.73-0.705
				c0.462,0,0.879,0.109,1.25,0.332c0.372,0.221,0.655,0.527,0.85,0.924c0.195,0.395,0.293,0.844,0.293,1.346
				c0,0.508-0.104,0.961-0.309,1.363c-0.205,0.4-0.495,0.705-0.871,0.91c-0.376,0.207-0.781,0.311-1.217,0.311
				c-0.472,0-0.894-0.115-1.265-0.342c-0.371-0.229-0.653-0.539-0.845-0.934S77.544,20.001,77.544,19.562z M78.228,19.573
				c0,0.604,0.163,1.078,0.487,1.426c0.325,0.348,0.732,0.521,1.222,0.521c0.5,0,0.91-0.176,1.232-0.525
				c0.322-0.352,0.484-0.85,0.484-1.494c0-0.408-0.069-0.764-0.207-1.068s-0.34-0.541-0.605-0.707
				c-0.266-0.168-0.563-0.252-0.894-0.252c-0.47,0-0.873,0.162-1.212,0.484C78.397,18.28,78.228,18.817,78.228,19.573z"/>
		</g>
	</g>
</g>
</svg>
