<?xml version="1.0" encoding="utf-8"?>
<!-- Generator: Adobe Illustrator 16.0.0, SVG Export Plug-In . SVG Version: 6.00 Build 0)  -->
<!DOCTYPE svg PUBLIC "-//W3C//DTD SVG 1.1//EN" "http://www.w3.org/Graphics/SVG/1.1/DTD/svg11.dtd">
<svg version="1.1" id="Capa_1" xmlns="http://www.w3.org/2000/svg" xmlns:xlink="http://www.w3.org/1999/xlink" x="0px" y="0px"
	 width="37.214px" height="40px" viewBox="0 0 37.214 40" enable-background="new 0 0 37.214 40" xml:space="preserve">
<g>
	<path fill="#000100" d="M0,5.529h1.76l1.412,5.377l1.359-5.123h1.438l1.385,5.123l1.385-5.377H10.5l-2.279,7.727H6.629L5.23,8.035
		l-1.359,5.221H2.277L0,5.529z"/>
	<path fill="#000100" d="M11.342,10.006c0.086,1.238,1.184,1.928,2.238,1.914c0.902,0,1.506-0.408,1.857-1.041h1.9
		c-0.365,0.857-0.914,1.506-1.562,1.941c-0.646,0.451-1.406,0.676-2.209,0.676c-2.379,0-4.08-1.928-4.08-4.082
		c0-2.195,1.715-4.123,4.053-4.123c1.152,0,2.168,0.436,2.885,1.182c0.943,0.971,1.295,2.182,1.141,3.533H11.342z M15.748,8.598
		c-0.07-0.73-0.844-1.758-2.195-1.744c-1.365,0-2.111,0.984-2.182,1.744H15.748z"/>
	<path fill="#000100" d="M17.295,2.842h1.846v2.717v0.928c0.76-0.941,1.871-1.195,2.574-1.195c1.83,0,3.857,1.338,3.857,4.066
		c0,2.619-1.83,4.139-3.941,4.139c-1.211,0-2.152-0.59-2.561-1.352v1.111h-1.775V2.842z M23.729,9.373
		c0-1.268-0.971-2.365-2.322-2.365c-1.436,0-2.336,1.127-2.336,2.379c0,1.295,0.9,2.393,2.293,2.393
		c1.506,0,2.365-1.197,2.365-2.393V9.373z"/>
	<path fill="#F6A521" d="M2.275,13.107h1.73v1.127c0.549-0.775,1.451-1.365,2.73-1.365c2.703,0,3.842,2.293,3.842,4.166
		c0,2.195-1.561,4.039-3.828,4.039c-1.504,0-2.32-0.773-2.631-1.268v1.027v2.703H2.275V13.107z M8.736,16.965
		c0-1.111-0.803-2.379-2.365-2.379c-0.676,0-1.252,0.268-1.674,0.705c-0.408,0.42-0.662,1.025-0.662,1.701
		c0,0.662,0.254,1.252,0.676,1.676c0.422,0.422,1.012,0.689,1.674,0.689c1.408,0,2.352-1.113,2.352-2.379V16.965z"/>
	<path fill="#F6A521" d="M18.545,20.834h-1.844v-1.111c-0.492,0.9-1.521,1.352-2.604,1.352c-2.477,0-3.928-1.93-3.928-4.109
		c0-2.436,1.76-4.096,3.928-4.096c1.406,0,2.266,0.746,2.604,1.365v-1.127h1.844V20.834z M12.014,17.006
		c0,0.957,0.691,2.352,2.352,2.352c1.027,0,1.703-0.535,2.055-1.238c0.182-0.338,0.268-0.705,0.295-1.084
		c0.014-0.367-0.055-0.746-0.211-1.084c-0.324-0.732-1.041-1.365-2.154-1.365c-1.49,0-2.336,1.209-2.336,2.406V17.006z"/>
	<path fill="#F6A521" d="M20.781,20.539l-2.912-7.432h1.971l1.887,5.137l1.857-5.137h1.969l-4.066,10.43h-1.971L20.781,20.539z"/>
	<path fill="#E42622" d="M31.547,8.236c-0.09-0.088-0.232-0.088-0.322,0l-4.752,4.754c-0.088,0.088-0.162,0.16-0.162,0.16
		s0,0.102,0,0.227v5.471c0,0.123,0.102,0.227,0.229,0.227h5.469c0.123,0,0.299-0.072,0.387-0.16l4.754-4.754
		c0.088-0.088,0.088-0.232,0-0.32L31.547,8.236z"/>
	<path fill="#FFFFFF" d="M27.072,13.566h0.455v0.438c0.188-0.301,0.51-0.51,0.955-0.51c0.857,0,1.264,0.717,1.264,1.336
		c0,0.707-0.512,1.309-1.26,1.309c-0.52,0-0.826-0.283-0.938-0.486v0.414v0.908h-0.477V13.566z M29.264,14.811
		c0-0.408-0.289-0.871-0.873-0.871c-0.248,0-0.463,0.096-0.619,0.258c-0.152,0.156-0.244,0.375-0.244,0.623s0.092,0.465,0.248,0.621
		s0.377,0.252,0.619,0.252c0.506,0,0.869-0.391,0.869-0.877V14.811z"/>
	<path fill="#FFFFFF" d="M29.889,12.666h0.477v3.4h-0.477V12.666z"/>
	<path fill="#FFFFFF" d="M32.947,16.066h-0.451V15.68c-0.119,0.258-0.398,0.463-0.846,0.459c-0.803-0.004-1.01-0.588-1.01-1.105
		v-1.467h0.479v1.355c0,0.449,0.174,0.771,0.666,0.771c0.469-0.004,0.684-0.303,0.684-0.73v-1.396h0.479V16.066z"/>
	<path fill="#FFFFFF" d="M34.33,14.219c0-0.193-0.121-0.34-0.365-0.336c-0.232,0-0.361,0.156-0.355,0.322
		c0.008,0.197,0.188,0.289,0.453,0.363c0.381,0.105,0.799,0.215,0.812,0.752c0.01,0.488-0.395,0.818-0.891,0.818
		c-0.395,0-0.887-0.225-0.908-0.795h0.471c0.02,0.305,0.262,0.404,0.441,0.404c0.23,0,0.41-0.16,0.41-0.371
		c-0.006-0.248-0.193-0.332-0.639-0.479c-0.35-0.105-0.625-0.27-0.629-0.646c0-0.475,0.385-0.758,0.84-0.758
		c0.344,0,0.795,0.17,0.832,0.725H34.33z"/>
	<polygon fill-rule="evenodd" clip-rule="evenodd" fill="#E42328" points="2.342,30.906 15.482,30.906 13.949,36.404 2.342,36.404 
		2.342,30.906 	"/>
	<polygon fill-rule="evenodd" clip-rule="evenodd" fill="#30358B" points="29.59,30.906 28.039,36.404 13.949,36.404 15.482,30.906 
		29.59,30.906 	"/>
	<path fill="#FFFFFF" d="M17.453,33.518c0.029-0.182,0.041-0.336,0.035-0.463c-0.008-0.127-0.027-0.234-0.062-0.316
		c-0.033-0.084-0.078-0.15-0.135-0.197c-0.053-0.049-0.113-0.082-0.18-0.102s-0.133-0.031-0.205-0.027
		c-0.135-0.004-0.266,0.027-0.391,0.082c-0.125,0.057-0.244,0.143-0.355,0.262c-0.113,0.117-0.215,0.268-0.309,0.453
		s-0.174,0.406-0.246,0.666c-0.07,0.26-0.113,0.484-0.123,0.672c-0.01,0.189,0.008,0.346,0.053,0.465
		c0.045,0.123,0.113,0.213,0.205,0.271c0.092,0.057,0.203,0.086,0.336,0.086c0.113,0.002,0.225-0.016,0.332-0.051
		c0.109-0.035,0.213-0.098,0.316-0.186c0.1-0.088,0.197-0.213,0.291-0.369c0.096-0.16,0.184-0.361,0.27-0.605
		c-0.158,0-0.312,0-0.469,0c-0.039,0.117-0.088,0.217-0.145,0.301s-0.117,0.148-0.184,0.195c-0.066,0.045-0.133,0.068-0.201,0.068
		c-0.094,0-0.166-0.033-0.213-0.1c-0.049-0.064-0.072-0.162-0.074-0.287c0-0.127,0.023-0.279,0.072-0.461
		c0.049-0.18,0.107-0.332,0.176-0.455c0.068-0.125,0.143-0.221,0.227-0.283c0.082-0.066,0.17-0.098,0.264-0.098
		c0.062-0.002,0.113,0.012,0.156,0.041c0.039,0.031,0.068,0.082,0.088,0.15c0.016,0.07,0.018,0.166,0.004,0.287
		C17.141,33.518,17.297,33.518,17.453,33.518L17.453,33.518z M17.512,33.875c-0.068,0.26-0.104,0.484-0.111,0.672
		c-0.006,0.189,0.016,0.346,0.066,0.465c0.049,0.123,0.123,0.213,0.219,0.271c0.098,0.057,0.217,0.086,0.355,0.086
		c0.137,0,0.271-0.029,0.396-0.086c0.127-0.059,0.248-0.148,0.357-0.271c0.113-0.119,0.215-0.275,0.305-0.465
		c0.092-0.188,0.168-0.412,0.232-0.672c0.064-0.258,0.098-0.48,0.102-0.666c0.002-0.186-0.021-0.336-0.07-0.453
		c-0.051-0.119-0.125-0.205-0.221-0.262c-0.096-0.055-0.211-0.086-0.348-0.082c-0.135-0.004-0.266,0.027-0.391,0.082
		c-0.125,0.057-0.24,0.143-0.352,0.262c-0.111,0.117-0.213,0.268-0.303,0.453C17.658,33.395,17.578,33.615,17.512,33.875
		L17.512,33.875z M17.979,33.875c0.047-0.18,0.104-0.332,0.17-0.455c0.066-0.125,0.143-0.221,0.225-0.283
		c0.08-0.066,0.168-0.098,0.262-0.098s0.164,0.031,0.213,0.098c0.051,0.062,0.076,0.158,0.078,0.283
		c0.006,0.123-0.016,0.275-0.062,0.455c-0.045,0.182-0.102,0.334-0.168,0.461c-0.066,0.125-0.141,0.223-0.225,0.287
		c-0.082,0.066-0.17,0.1-0.266,0.1c-0.094,0-0.166-0.033-0.215-0.1c-0.049-0.064-0.074-0.162-0.078-0.287
		C17.91,34.209,17.934,34.057,17.979,33.875L17.979,33.875z M21.398,35.264c0.154,0,0.307,0,0.457,0
		c0.074-0.314,0.146-0.629,0.217-0.941c0.072-0.312,0.145-0.623,0.215-0.934c0.043-0.18,0.062-0.328,0.059-0.451
		c0-0.121-0.02-0.219-0.055-0.291c-0.035-0.074-0.08-0.125-0.139-0.158c-0.057-0.031-0.119-0.049-0.189-0.047
		c-0.125,0-0.244,0.045-0.359,0.133s-0.223,0.215-0.326,0.377c0.004-0.104-0.008-0.193-0.031-0.27
		c-0.021-0.076-0.059-0.135-0.109-0.176c-0.053-0.043-0.121-0.064-0.209-0.064c-0.066,0-0.129,0.014-0.195,0.039
		c-0.064,0.027-0.127,0.062-0.188,0.107c-0.059,0.045-0.111,0.096-0.162,0.148c-0.049,0.057-0.09,0.111-0.127,0.17
		c-0.002,0-0.002,0-0.002,0c0.031-0.131,0.062-0.262,0.094-0.395c-0.145,0-0.289,0-0.434,0c-0.111,0.451-0.225,0.908-0.336,1.363
		c-0.115,0.461-0.23,0.924-0.346,1.389c0.152,0,0.305,0,0.459,0c0.061-0.252,0.123-0.504,0.184-0.754
		c0.062-0.25,0.123-0.498,0.184-0.746c0.025-0.107,0.059-0.203,0.094-0.281c0.037-0.08,0.078-0.146,0.123-0.197
		c0.045-0.053,0.092-0.09,0.139-0.117c0.047-0.025,0.096-0.039,0.145-0.039c0.031,0,0.062,0.008,0.09,0.021
		c0.029,0.016,0.051,0.041,0.07,0.076c0.018,0.033,0.027,0.082,0.029,0.145c0.002,0.061-0.01,0.135-0.031,0.229
		c-0.066,0.273-0.131,0.551-0.199,0.828c-0.066,0.277-0.133,0.557-0.201,0.836c0.152,0,0.305,0,0.457,0
		c0.061-0.252,0.119-0.504,0.18-0.754c0.059-0.25,0.117-0.498,0.178-0.746c0.025-0.107,0.057-0.203,0.094-0.281
		c0.037-0.08,0.076-0.146,0.119-0.197c0.043-0.053,0.09-0.09,0.137-0.117c0.047-0.025,0.094-0.039,0.141-0.039
		c0.033,0,0.064,0.008,0.094,0.021c0.027,0.016,0.051,0.041,0.07,0.076c0.02,0.033,0.029,0.082,0.031,0.145
		c0.002,0.061-0.008,0.135-0.027,0.229c-0.064,0.273-0.129,0.551-0.195,0.828C21.529,34.705,21.465,34.984,21.398,35.264
		L21.398,35.264z M22.92,33.891c0.029-0.131,0.068-0.246,0.111-0.346c0.045-0.098,0.096-0.182,0.148-0.246
		c0.055-0.066,0.109-0.117,0.168-0.15c0.059-0.031,0.115-0.049,0.172-0.049c0.059,0,0.107,0.018,0.152,0.049
		c0.043,0.033,0.078,0.084,0.102,0.15c0.025,0.064,0.037,0.148,0.041,0.246c0,0.1-0.016,0.215-0.043,0.346
		c-0.029,0.131-0.066,0.246-0.109,0.346c-0.045,0.1-0.096,0.184-0.15,0.252s-0.109,0.119-0.17,0.152
		c-0.059,0.033-0.117,0.051-0.176,0.051s-0.107-0.018-0.15-0.051c-0.045-0.033-0.078-0.084-0.102-0.152
		c-0.025-0.068-0.037-0.152-0.037-0.252C22.875,34.137,22.891,34.021,22.92,33.891L22.92,33.891z M21.93,36.312
		c0.152,0,0.305,0,0.459,0c0.053-0.227,0.104-0.457,0.154-0.684s0.104-0.451,0.152-0.678h0.006c0.012,0.084,0.033,0.158,0.072,0.219
		c0.037,0.064,0.086,0.113,0.148,0.148c0.061,0.033,0.135,0.051,0.221,0.051c0.111,0,0.221-0.037,0.33-0.107
		s0.215-0.172,0.312-0.305c0.1-0.131,0.189-0.287,0.266-0.471c0.078-0.182,0.143-0.385,0.191-0.611
		c0.053-0.24,0.076-0.451,0.076-0.629c-0.002-0.18-0.025-0.33-0.072-0.447c-0.047-0.119-0.111-0.209-0.193-0.27
		c-0.082-0.059-0.18-0.088-0.293-0.088c-0.061-0.002-0.123,0.01-0.186,0.033c-0.061,0.023-0.127,0.068-0.193,0.131
		c-0.068,0.062-0.145,0.154-0.229,0.275h-0.004c0.027-0.123,0.055-0.246,0.082-0.369c-0.145,0-0.289,0-0.434,0
		c-0.143,0.621-0.285,1.246-0.43,1.877C22.223,35.025,22.076,35.666,21.93,36.312L21.93,36.312z M24.189,35.264
		c0.152,0,0.305,0,0.457,0c0.043-0.199,0.084-0.402,0.127-0.6c0.041-0.199,0.084-0.4,0.127-0.598
		c0.037-0.18,0.086-0.332,0.146-0.457c0.059-0.125,0.129-0.221,0.211-0.287c0.08-0.066,0.172-0.1,0.275-0.102
		c0.041,0,0.082,0.01,0.119,0.025c0.037,0.014,0.076,0.033,0.111,0.057c0.059-0.279,0.115-0.559,0.174-0.836
		c-0.023-0.01-0.049-0.018-0.078-0.021c-0.027-0.002-0.055-0.004-0.08-0.004c-0.064,0-0.121,0.012-0.176,0.035
		c-0.057,0.023-0.109,0.061-0.162,0.109c-0.051,0.049-0.105,0.111-0.16,0.188s-0.111,0.166-0.174,0.27c-0.004,0-0.006,0-0.006,0
		c0.037-0.178,0.074-0.355,0.111-0.531c-0.145,0-0.287,0-0.432,0c-0.098,0.453-0.195,0.908-0.293,1.363
		C24.389,34.336,24.289,34.799,24.189,35.264L24.189,35.264z M26.941,34.137c-0.018,0.094-0.045,0.178-0.076,0.25
		c-0.035,0.074-0.072,0.141-0.115,0.195c-0.045,0.055-0.09,0.1-0.139,0.137c-0.049,0.035-0.098,0.062-0.148,0.08
		c-0.051,0.02-0.098,0.027-0.145,0.027c-0.057,0-0.104-0.016-0.141-0.047c-0.035-0.029-0.061-0.072-0.074-0.131
		c-0.012-0.057-0.01-0.127,0.006-0.211c0.018-0.082,0.041-0.148,0.068-0.199c0.027-0.049,0.062-0.086,0.104-0.111
		s0.086-0.043,0.143-0.051c0.09-0.016,0.182-0.031,0.271-0.047c0.047-0.006,0.096-0.018,0.145-0.033
		c0.047-0.018,0.096-0.045,0.146-0.084C26.973,33.988,26.957,34.062,26.941,34.137L26.941,34.137z M26.375,33.344
		c0.033-0.094,0.066-0.168,0.1-0.223s0.066-0.096,0.1-0.123c0.033-0.025,0.07-0.043,0.109-0.051c0.037-0.008,0.08-0.012,0.129-0.01
		c0.086,0,0.152,0.012,0.199,0.035s0.076,0.061,0.09,0.107s0.014,0.109,0,0.182c-0.016,0.072-0.031,0.127-0.053,0.168
		c-0.018,0.037-0.043,0.066-0.074,0.084c-0.029,0.018-0.068,0.027-0.115,0.035c-0.166,0.021-0.33,0.043-0.494,0.064
		c-0.057,0.008-0.113,0.02-0.172,0.039c-0.061,0.018-0.117,0.047-0.174,0.084c-0.055,0.035-0.107,0.086-0.158,0.148
		s-0.098,0.141-0.139,0.236c-0.039,0.094-0.076,0.209-0.104,0.342c-0.033,0.162-0.045,0.301-0.039,0.416
		c0.006,0.113,0.029,0.207,0.068,0.279c0.041,0.074,0.094,0.127,0.162,0.16c0.068,0.035,0.15,0.051,0.24,0.051
		c0.053,0,0.109-0.006,0.172-0.02c0.061-0.012,0.123-0.033,0.189-0.062c0.066-0.031,0.129-0.072,0.195-0.125
		c0.062-0.053,0.121-0.117,0.174-0.195c-0.006,0.049-0.014,0.098-0.018,0.148s-0.006,0.1-0.01,0.148c0.152,0,0.305,0,0.461,0
		c-0.006-0.068-0.002-0.15,0.006-0.24c0.01-0.094,0.027-0.201,0.049-0.322c0.045-0.23,0.09-0.459,0.135-0.686
		c0.043-0.229,0.088-0.455,0.133-0.682c0.021-0.104,0.033-0.199,0.039-0.293c0.002-0.092-0.004-0.176-0.021-0.254
		c-0.018-0.076-0.053-0.143-0.1-0.197c-0.049-0.057-0.113-0.102-0.199-0.133c-0.084-0.031-0.189-0.045-0.32-0.045
		c-0.072-0.004-0.146,0.004-0.221,0.016c-0.076,0.012-0.15,0.035-0.223,0.07s-0.141,0.086-0.211,0.154
		c-0.066,0.07-0.129,0.16-0.188,0.271c-0.059,0.113-0.111,0.252-0.156,0.42C26.082,33.344,26.229,33.344,26.375,33.344
		L26.375,33.344z"/>
	<path fill="#FFFFFF" d="M7.914,32.242c0.258,0,0.516,0.002,0.773,0c0.039,0,0.072,0.006,0.105,0.02s0.061,0.039,0.082,0.074
		c0.02,0.035,0.031,0.082,0.033,0.143c0,0.061-0.014,0.137-0.041,0.23c-0.027,0.086-0.061,0.16-0.096,0.223
		c-0.037,0.061-0.074,0.109-0.113,0.146c-0.041,0.039-0.08,0.066-0.119,0.082c-0.039,0.018-0.076,0.025-0.111,0.025
		c-0.268,0-0.535,0-0.803,0C7.723,32.871,7.818,32.557,7.914,32.242L7.914,32.242z M7.182,32.658h-4.84v0.455h4.699l-0.078,0.25
		H2.342v0.455h4.48L6.744,34.07H2.342v0.455h4.262L6.51,34.828H2.344l-0.002,0.453h4.027h0.012h0.008h0.01h0.004h0.006h0.01h0.01
		h0.01h0.008h0.012h0.008h0.008h0.002h0.01h0.01h0.01h0.01h0.008h0.012h0.008h0.004h0.006h0.01h0.01h0.008H6.59h0.008h0.01h0.01
		h0.002h0.008h0.01h0.01h0.008h0.012h0.008h0.01h0.008h0.287L7.432,33.9c0.242,0,0.484,0,0.729,0c0.045,0,0.086,0.01,0.121,0.029
		c0.031,0.02,0.055,0.053,0.07,0.102c0.014,0.049,0.016,0.117,0.004,0.203c-0.01,0.084-0.035,0.193-0.076,0.324
		c-0.029,0.098-0.055,0.182-0.076,0.256c-0.02,0.07-0.037,0.135-0.051,0.188c-0.012,0.055-0.021,0.105-0.027,0.148
		c-0.004,0.045-0.008,0.088-0.008,0.131c0.223,0,0.445,0,0.666,0C8.771,35.232,8.77,35.17,8.775,35.1
		c0.008-0.072,0.02-0.148,0.035-0.229c0.018-0.08,0.035-0.156,0.057-0.229c0.02-0.072,0.035-0.131,0.051-0.178
		c0.023-0.076,0.045-0.156,0.066-0.24c0.021-0.086,0.039-0.17,0.053-0.254s0.02-0.162,0.02-0.234
		c-0.002-0.072-0.012-0.133-0.033-0.182s-0.057-0.08-0.105-0.096c0.002-0.004,0.002-0.008,0.004-0.01
		c0.148-0.076,0.275-0.189,0.379-0.338c0.105-0.148,0.189-0.338,0.26-0.564c0.023-0.078,0.045-0.162,0.061-0.254
		c0.018-0.09,0.023-0.18,0.021-0.27s-0.018-0.17-0.049-0.246c-0.031-0.074-0.082-0.133-0.154-0.178s-0.166-0.066-0.291-0.068
		c-0.539-0.002-1.08,0-1.619,0L7.182,32.658L7.182,32.658z M10.752,34.438c-0.076,0.121-0.162,0.213-0.26,0.275
		c-0.096,0.062-0.199,0.094-0.311,0.094c-0.094,0-0.168-0.025-0.223-0.068c-0.055-0.045-0.094-0.102-0.117-0.172
		c-0.021-0.07-0.033-0.143-0.029-0.221s0.016-0.15,0.037-0.219c0-0.004,0-0.008,0.002-0.012c0.539,0,1.078,0,1.617,0
		c0.008-0.027,0.018-0.055,0.025-0.084c0.107-0.354,0.16-0.656,0.156-0.906c-0.004-0.248-0.064-0.438-0.184-0.568
		c-0.121-0.131-0.301-0.197-0.541-0.199c-0.168,0-0.328,0.029-0.48,0.088c-0.152,0.057-0.297,0.148-0.432,0.27
		s-0.258,0.279-0.369,0.469c-0.109,0.191-0.207,0.42-0.287,0.686c-0.082,0.264-0.125,0.494-0.129,0.684
		c-0.006,0.193,0.021,0.352,0.08,0.473c0.061,0.125,0.15,0.215,0.268,0.273c0.119,0.059,0.262,0.088,0.43,0.088
		s0.332-0.033,0.488-0.098c0.158-0.064,0.309-0.168,0.451-0.309c0.143-0.139,0.275-0.32,0.396-0.543
		C11.145,34.438,10.947,34.438,10.752,34.438L10.752,34.438z M10.02,33.568c0-0.002,0.002-0.006,0.002-0.01
		c0.004-0.016,0.018-0.045,0.041-0.092c0.021-0.045,0.053-0.098,0.094-0.158c0.039-0.061,0.09-0.117,0.146-0.174
		c0.059-0.057,0.121-0.104,0.195-0.143c0.072-0.037,0.15-0.059,0.238-0.059c0.08,0,0.145,0.016,0.195,0.051
		c0.049,0.033,0.084,0.074,0.109,0.127c0.023,0.051,0.039,0.105,0.045,0.162c0.008,0.057,0.008,0.111,0.004,0.162
		c-0.006,0.051-0.012,0.092-0.023,0.123c0,0.004-0.002,0.008-0.004,0.01C10.715,33.568,10.365,33.568,10.02,33.568L10.02,33.568z
		 M12.312,33.885c0.041-0.135,0.09-0.252,0.148-0.354s0.121-0.186,0.189-0.256c0.068-0.068,0.139-0.119,0.213-0.152
		c0.072-0.035,0.143-0.053,0.213-0.053s0.131,0.018,0.182,0.053c0.053,0.033,0.092,0.084,0.119,0.152
		c0.027,0.07,0.039,0.154,0.037,0.256s-0.025,0.219-0.064,0.354s-0.09,0.252-0.146,0.354c-0.059,0.102-0.123,0.186-0.191,0.256
		c-0.068,0.068-0.139,0.121-0.211,0.154c-0.072,0.035-0.143,0.053-0.213,0.053s-0.131-0.018-0.184-0.053
		c-0.053-0.033-0.094-0.086-0.121-0.154c-0.025-0.07-0.037-0.154-0.035-0.256C12.252,34.137,12.271,34.02,12.312,33.885
		L12.312,33.885z M12.932,35.281c0.178,0,0.355,0,0.535,0c0.189-0.639,0.381-1.275,0.57-1.91c0.188-0.637,0.379-1.27,0.566-1.902
		c-0.184,0-0.367,0-0.551,0c-0.066,0.223-0.133,0.445-0.199,0.668c-0.068,0.225-0.135,0.449-0.201,0.672h-0.006
		c-0.01-0.084-0.037-0.158-0.08-0.223c-0.043-0.061-0.1-0.109-0.174-0.145s-0.162-0.053-0.266-0.053c-0.133,0-0.266,0.037-0.4,0.107
		c-0.135,0.072-0.264,0.174-0.389,0.305c-0.125,0.133-0.238,0.293-0.342,0.477c-0.104,0.186-0.189,0.393-0.26,0.623
		c-0.074,0.246-0.113,0.461-0.121,0.648c-0.008,0.184,0.012,0.338,0.061,0.463c0.047,0.125,0.119,0.219,0.213,0.281
		c0.096,0.062,0.209,0.094,0.34,0.094c0.084,0,0.168-0.012,0.256-0.039c0.086-0.025,0.176-0.072,0.268-0.139
		c0.092-0.068,0.184-0.16,0.279-0.281c0,0,0.004,0,0.006,0C13.002,35.047,12.969,35.164,12.932,35.281L12.932,35.281z"/>
	<g>
		<g>
			<polygon fill="#0C67AF" points="5.215,28.945 4.752,28.945 5.041,27.172 5.504,27.172 			"/>
		</g>
		<g>
			<path fill="#0C67AF" d="M4.363,27.172l-0.439,1.221l-0.053-0.264l0,0l-0.154-0.797c0,0-0.02-0.16-0.221-0.16H2.768L2.76,27.201
				c0,0,0.223,0.047,0.482,0.203l0.402,1.541h0.48l0.736-1.773H4.363z"/>
		</g>
		<g>
			<path fill="#0C67AF" d="M7.998,28.945h0.426l-0.371-1.773H7.682c-0.174,0-0.213,0.133-0.213,0.133l-0.689,1.641h0.48l0.098-0.264
				h0.586L7.998,28.945z M7.49,28.318l0.242-0.664l0.137,0.664H7.49z"/>
		</g>
		<g>
			<path fill="#0C67AF" d="M6.814,27.598l0.066-0.381c0,0-0.203-0.076-0.416-0.076c-0.23,0-0.773,0.098-0.773,0.586
				c0,0.459,0.639,0.465,0.639,0.707c0,0.24-0.572,0.195-0.762,0.043l-0.068,0.4c0,0,0.205,0.1,0.521,0.1
				c0.314,0,0.789-0.164,0.789-0.607c0-0.461-0.645-0.504-0.645-0.705S6.617,27.488,6.814,27.598z"/>
		</g>
	</g>
	<g>
		<path fill="#F6A334" d="M3.871,28.129l-0.154-0.797c0,0-0.02-0.16-0.221-0.16H2.768L2.76,27.201c0,0,0.35,0.072,0.686,0.344
			C3.766,27.805,3.871,28.129,3.871,28.129z"/>
	</g>
	<g>
		<path fill="#004A97" d="M34.475,28.291c0.535,0.004,1.023-0.436,1.023-0.969c0-0.584-0.488-0.986-1.023-0.986h-0.459
			c-0.541,0-0.986,0.402-0.986,0.986c0,0.533,0.445,0.973,0.986,0.969H34.475z"/>
	</g>
	<g>
		<path fill="#FFFFFF" d="M34.221,27.842v-1.059c0.213,0.082,0.363,0.287,0.363,0.529S34.434,27.76,34.221,27.842 M33.449,27.312
			c0-0.242,0.152-0.447,0.365-0.529v1.059C33.602,27.76,33.449,27.555,33.449,27.312 M34.016,26.418c-0.492,0-0.893,0.4-0.893,0.895
			s0.4,0.895,0.893,0.895c0.496,0,0.896-0.4,0.896-0.895S34.512,26.418,34.016,26.418"/>
	</g>
	<g>
		<path fill="#221E20" d="M32.047,28.965c0,0.078,0.057,0.088,0.107,0.088c0.223,0,0.295-0.168,0.295-0.32
			c0-0.193-0.123-0.332-0.322-0.332c-0.041,0-0.061,0.004-0.08,0.006V28.965z M31.945,28.482c0-0.094-0.047-0.086-0.094-0.088
			v-0.027c0.039,0.004,0.082,0.004,0.121,0.004c0.043,0,0.102-0.004,0.178-0.004c0.268,0,0.412,0.18,0.412,0.361
			c0,0.102-0.061,0.357-0.424,0.357c-0.053,0-0.102-0.002-0.148-0.002s-0.092,0.002-0.139,0.002v-0.027
			c0.061-0.006,0.092-0.008,0.094-0.078V28.482z"/>
	</g>
	<g>
		<path fill="#221E20" d="M32.709,28.459c-0.027,0-0.051-0.025-0.051-0.053c0-0.025,0.025-0.049,0.051-0.049
			s0.051,0.021,0.051,0.049S32.736,28.459,32.709,28.459 M32.6,29.059h0.018c0.029,0,0.049,0,0.049-0.033v-0.279
			c0-0.045-0.014-0.051-0.053-0.072v-0.016c0.049-0.014,0.105-0.033,0.109-0.037c0.008-0.004,0.014-0.006,0.014-0.006
			c0.01,0,0.014,0.008,0.014,0.016v0.395c0,0.033,0.021,0.033,0.051,0.033h0.018v0.027c-0.035,0-0.072-0.002-0.107-0.002
			c-0.039,0-0.074,0.002-0.111,0.002V29.059z"/>
	</g>
	<g>
		<path fill="#221E20" d="M32.916,28.752c0-0.037-0.012-0.049-0.059-0.066v-0.02c0.043-0.016,0.086-0.029,0.135-0.051
			c0.004,0,0.006,0.004,0.006,0.012v0.066c0.059-0.043,0.109-0.078,0.178-0.078c0.088,0,0.117,0.064,0.117,0.145v0.266
			c0,0.033,0.023,0.033,0.053,0.033h0.018v0.027c-0.035,0-0.07-0.002-0.107-0.002c-0.039,0-0.074,0.002-0.111,0.002v-0.027h0.018
			c0.029,0,0.051,0,0.051-0.033v-0.268c0-0.059-0.037-0.086-0.096-0.086c-0.033,0-0.086,0.027-0.119,0.049v0.305
			c0,0.033,0.023,0.033,0.051,0.033h0.02v0.027c-0.037,0-0.072-0.002-0.109-0.002s-0.074,0.002-0.111,0.002v-0.027h0.02
			c0.027,0,0.049,0,0.049-0.033V28.752z"/>
	</g>
	<g>
		<path fill="#221E20" d="M33.625,28.77c0.025,0,0.027-0.014,0.027-0.025c0-0.053-0.031-0.096-0.088-0.096
			c-0.062,0-0.107,0.047-0.119,0.121H33.625z M33.441,28.803c-0.002,0.008-0.002,0.025,0,0.059c0.006,0.098,0.07,0.178,0.152,0.178
			c0.057,0,0.1-0.029,0.139-0.068l0.014,0.014c-0.047,0.062-0.105,0.117-0.189,0.117c-0.164,0-0.197-0.158-0.197-0.225
			c0-0.201,0.137-0.262,0.209-0.262c0.082,0,0.174,0.053,0.174,0.162c0,0.006,0,0.012,0,0.02l-0.012,0.006H33.441z"/>
	</g>
	<g>
		<path fill="#221E20" d="M33.766,29.059h0.027c0.029,0,0.051,0,0.051-0.033v-0.289c0-0.033-0.039-0.037-0.055-0.045v-0.018
			c0.076-0.031,0.117-0.059,0.117-0.059c0.014,0,0.018,0.004,0.018,0.014v0.094h0.002c0.025-0.041,0.068-0.107,0.131-0.107
			c0.027,0,0.059,0.018,0.059,0.055c0,0.029-0.018,0.053-0.049,0.053S34.035,28.699,34,28.699c-0.018,0-0.076,0.023-0.076,0.084
			v0.242c0,0.033,0.021,0.033,0.051,0.033h0.057v0.027c-0.057,0-0.1-0.002-0.145-0.002c-0.041,0-0.084,0.002-0.121,0.002V29.059z"/>
	</g>
	<g>
		<path fill="#221E20" d="M34.162,28.943c0.014,0.066,0.053,0.125,0.129,0.125c0.061,0,0.082-0.037,0.082-0.072
			c0-0.121-0.223-0.084-0.223-0.248c0-0.057,0.045-0.133,0.16-0.133c0.031,0,0.076,0.01,0.115,0.031l0.008,0.104H34.41
			c-0.012-0.064-0.047-0.102-0.113-0.102c-0.039,0-0.08,0.025-0.08,0.068c0,0.121,0.24,0.084,0.24,0.244
			c0,0.068-0.055,0.141-0.178,0.141c-0.041,0-0.09-0.016-0.125-0.035l-0.012-0.117L34.162,28.943z"/>
	</g>
	<g>
		<path fill="#221E20" d="M35.385,28.555h-0.025c-0.02-0.121-0.105-0.168-0.221-0.168c-0.117,0-0.289,0.078-0.289,0.324
			c0,0.209,0.148,0.357,0.305,0.357c0.102,0,0.188-0.07,0.209-0.178l0.021,0.006l-0.021,0.15c-0.045,0.025-0.16,0.055-0.229,0.055
			c-0.24,0-0.393-0.156-0.393-0.387c0-0.211,0.189-0.363,0.391-0.363c0.082,0,0.164,0.029,0.242,0.057L35.385,28.555z"/>
	</g>
	<g>
		<path fill="#221E20" d="M35.422,29.059h0.02c0.029,0,0.049,0,0.049-0.033v-0.574c0-0.064-0.016-0.066-0.055-0.08v-0.016
			c0.043-0.014,0.086-0.031,0.105-0.043c0.014-0.008,0.021-0.014,0.021-0.014c0.01,0,0.012,0.008,0.012,0.016v0.711
			c0,0.033,0.021,0.033,0.051,0.033h0.018v0.027c-0.035,0-0.07-0.002-0.109-0.002c-0.035,0-0.072,0.002-0.111,0.002V29.059z"/>
	</g>
	<g>
		<path fill="#221E20" d="M36.082,29.029c0,0.018,0.012,0.02,0.029,0.02c0.012,0,0.027-0.002,0.041-0.002v0.021
			c-0.045,0.004-0.129,0.027-0.148,0.033l-0.006-0.004v-0.084c-0.061,0.051-0.107,0.088-0.182,0.088
			c-0.055,0-0.111-0.037-0.111-0.121v-0.264c0-0.027-0.004-0.053-0.062-0.059v-0.02c0.037-0.002,0.119-0.008,0.133-0.008
			c0,0,0.01,0.008,0.01,0.029v0.266c0,0.031,0,0.119,0.09,0.119c0.035,0,0.082-0.025,0.125-0.061v-0.277
			c0-0.021-0.051-0.033-0.086-0.043v-0.018c0.092-0.006,0.15-0.016,0.16-0.016c0.008,0,0.008,0.008,0.008,0.02V29.029z"/>
	</g>
	<g>
		<path fill="#221E20" d="M36.287,28.971c0,0.039,0.037,0.104,0.105,0.104c0.111,0,0.156-0.107,0.156-0.199
			c0-0.111-0.084-0.203-0.164-0.203c-0.037,0-0.07,0.025-0.098,0.049V28.971z M36.287,28.691c0.041-0.037,0.096-0.076,0.152-0.076
			c0.119,0,0.193,0.105,0.193,0.217c0,0.135-0.1,0.27-0.248,0.27c-0.076,0-0.115-0.023-0.143-0.037l-0.031,0.025l-0.02-0.012
			c0.008-0.061,0.014-0.121,0.014-0.184v-0.443c0-0.064-0.018-0.066-0.055-0.08v-0.016c0.041-0.014,0.084-0.031,0.105-0.043
			c0.012-0.008,0.02-0.014,0.02-0.014s0.012,0.008,0.012,0.016V28.691z"/>
	</g>
	<g>
		<path fill="#221E20" d="M31.852,29.684h0.008c0.02,0,0.039-0.002,0.039-0.031v-0.295c0-0.027-0.02-0.031-0.039-0.031h-0.008
			v-0.016c0.02,0,0.055,0.002,0.082,0.002s0.061-0.002,0.088-0.002v0.016h-0.008c-0.021,0-0.043,0.004-0.043,0.031v0.295
			c0,0.029,0.021,0.031,0.043,0.031h0.008v0.018c-0.027,0-0.061-0.002-0.088-0.002s-0.062,0.002-0.082,0.002V29.684z"/>
	</g>
	<g>
		<path fill="#221E20" d="M32.018,29.699v-0.014h-0.004c-0.021,0-0.045-0.002-0.045-0.033v-0.295c0-0.029,0.023-0.033,0.045-0.033
			h0.004v-0.012c-0.025,0-0.057,0.002-0.084,0.002c-0.025,0-0.059-0.002-0.08-0.002v0.012h0.006c0.02,0,0.043,0.004,0.043,0.033
			v0.295c0,0.031-0.023,0.033-0.043,0.033h-0.006v0.014c0.021,0,0.053-0.004,0.08-0.004S31.992,29.699,32.018,29.699 M32.021,29.703
			c-0.027,0-0.061-0.002-0.088-0.002s-0.062,0.002-0.082,0.002h-0.004v-0.002v-0.018v-0.002h0.004h0.008
			c0.02,0,0.037-0.002,0.037-0.029v-0.295c0-0.027-0.018-0.027-0.037-0.027h-0.012v-0.004v-0.02h0.004
			c0.02,0,0.055,0.004,0.082,0.004s0.061-0.004,0.088-0.004h0.002v0.004v0.02h-0.002h-0.008c-0.021,0-0.039,0-0.039,0.027v0.295
			c0,0.027,0.018,0.029,0.039,0.029h0.01v0.002v0.02H32.021z"/>
	</g>
	<g>
		<path fill="#221E20" d="M32.404,29.59l0.002-0.002v-0.209c0-0.045-0.031-0.053-0.049-0.053h-0.012v-0.016
			c0.027,0,0.053,0.002,0.078,0.002c0.023,0,0.047-0.002,0.068-0.002v0.016h-0.008c-0.023,0-0.051,0.004-0.051,0.072v0.254
			c0,0.02,0.002,0.039,0.004,0.057h-0.02l-0.289-0.32v0.23c0,0.049,0.01,0.064,0.053,0.064h0.01v0.018
			c-0.025,0-0.049-0.002-0.072-0.002c-0.025,0-0.053,0.002-0.076,0.002v-0.018h0.006c0.041,0,0.051-0.025,0.051-0.07v-0.236
			c0-0.031-0.025-0.051-0.051-0.051h-0.006v-0.016c0.02,0,0.043,0.002,0.062,0.002c0.018,0,0.033-0.002,0.051-0.002L32.404,29.59z"
			/>
	</g>
	<g>
		<path fill="#221E20" d="M32.404,29.588L32.404,29.588L32.404,29.588L32.404,29.588z M32.404,29.59l0.002-0.002L32.404,29.59z
			 M32.418,29.707h0.018c-0.004-0.018-0.004-0.035-0.004-0.055v-0.254c0-0.068,0.029-0.074,0.053-0.074h0.006v-0.012
			c-0.023,0-0.043,0.002-0.066,0.002c-0.025,0-0.051-0.002-0.076-0.002v0.012h0.01c0.018,0,0.051,0.008,0.051,0.055v0.213h-0.002
			l-0.002,0.002l-0.248-0.281c-0.016,0-0.033,0.002-0.051,0.002c-0.02,0-0.041-0.002-0.061-0.002v0.012h0.004
			c0.027,0,0.053,0.02,0.053,0.053v0.236c0,0.045-0.012,0.072-0.053,0.072h-0.004v0.014c0.023,0,0.049-0.004,0.074-0.004
			c0.023,0,0.047,0.004,0.068,0.004v-0.014h-0.006c-0.045,0-0.057-0.018-0.057-0.066v-0.238L32.418,29.707z M32.438,29.711h-0.023
			l-0.283-0.316v0.225c0,0.049,0.008,0.062,0.051,0.062h0.012v0.002v0.02h-0.002c-0.025,0-0.049-0.002-0.072-0.002
			c-0.025,0-0.053,0.002-0.076,0.002h-0.002v-0.002v-0.02h0.002h0.006c0.039,0,0.049-0.023,0.049-0.068v-0.236
			c0-0.029-0.023-0.047-0.049-0.047h-0.008v-0.004v-0.02h0.002c0.02,0,0.043,0.004,0.062,0.004c0.018,0,0.033-0.004,0.053-0.002
			l0.246,0.277v-0.207c0-0.045-0.031-0.049-0.047-0.049h-0.014v-0.004v-0.02h0.002c0.027,0,0.053,0.004,0.078,0.004
			c0.023,0,0.047-0.004,0.068-0.004h0.004v0.004v0.02h-0.004h-0.008c-0.023,0-0.047,0.002-0.049,0.068v0.254
			c0,0.02,0.002,0.039,0.004,0.057v0.002H32.438z"/>
	</g>
	<g>
		<path fill="#221E20" d="M32.576,29.338c-0.041,0-0.043,0.01-0.051,0.051h-0.018c0.002-0.016,0.004-0.031,0.006-0.047
			s0.004-0.031,0.004-0.047h0.014c0.004,0.016,0.02,0.016,0.033,0.016h0.289c0.016,0,0.029,0,0.031-0.018l0.012,0.002
			c-0.002,0.016-0.004,0.031-0.006,0.045c0,0.016,0,0.031,0,0.045l-0.018,0.008c-0.002-0.021-0.004-0.055-0.041-0.055H32.74v0.299
			c0,0.043,0.02,0.047,0.047,0.047h0.01v0.018c-0.021,0-0.061-0.002-0.09-0.002c-0.035,0-0.074,0.002-0.096,0.002v-0.018h0.01
			c0.031,0,0.047-0.002,0.047-0.047v-0.299H32.576z"/>
	</g>
	<g>
		<path fill="#221E20" d="M32.797,29.703c-0.021,0-0.061-0.002-0.09-0.002c-0.035,0-0.074,0.002-0.096,0.002h-0.002v-0.002v-0.02
			h0.002h0.01c0.031,0,0.045,0,0.045-0.045V29.34h-0.09v-0.002v-0.004h0.094v0.303c0,0.045-0.018,0.049-0.049,0.049h-0.008v0.014
			c0.023,0,0.061-0.004,0.094-0.004c0.027,0,0.064,0.004,0.088,0.004v-0.014h-0.008c-0.027,0-0.049-0.006-0.049-0.049v-0.303h0.094
			c0.037,0.002,0.043,0.033,0.043,0.055l0.014-0.006c0-0.014,0-0.029,0-0.043c0.002-0.014,0.004-0.027,0.006-0.043l-0.008-0.002
			c-0.002,0.018-0.02,0.018-0.033,0.018h-0.289h-0.002c-0.014,0-0.029,0-0.033-0.016h-0.008c0,0.016-0.002,0.029-0.006,0.045
			c0,0.016-0.004,0.029-0.004,0.045h0.012c0.006-0.039,0.012-0.053,0.053-0.053v0.004v0.002c-0.041,0.002-0.041,0.008-0.049,0.051
			v0.002h-0.002h-0.02v-0.004c0.002-0.016,0.004-0.031,0.006-0.047s0.004-0.031,0.004-0.047v-0.004h0.002h0.016v0.002
			c0.004,0.014,0.014,0.014,0.029,0.014h0.002h0.289c0.016,0,0.025,0,0.027-0.014v-0.002h0.004l0.016,0.002l-0.002,0.002
			c0,0.016-0.004,0.031-0.006,0.045c0,0.016,0,0.031,0,0.045v0.004h-0.002l-0.02,0.008v-0.004c-0.002-0.021-0.004-0.053-0.039-0.053
			h-0.09v0.297c0,0.041,0.018,0.045,0.045,0.045h0.012v0.002v0.02H32.797z"/>
	</g>
	<g>
		<path fill="#221E20" d="M32.916,29.684h0.008c0.02,0,0.041-0.002,0.041-0.031v-0.295c0-0.027-0.021-0.031-0.041-0.031h-0.008
			v-0.016c0.033,0,0.092,0.002,0.139,0.002s0.105-0.002,0.143-0.002c0,0.023,0,0.061,0.002,0.086L33.182,29.4
			c-0.002-0.035-0.008-0.066-0.068-0.066h-0.078v0.146h0.066c0.035,0,0.041-0.018,0.045-0.049h0.018
			c-0.002,0.023-0.002,0.045-0.002,0.066s0,0.041,0.002,0.062l-0.018,0.004c-0.004-0.033-0.004-0.055-0.043-0.055h-0.068v0.129
			c0,0.037,0.033,0.037,0.068,0.037c0.068,0,0.098-0.004,0.113-0.068l0.016,0.004c-0.006,0.029-0.012,0.059-0.02,0.09
			c-0.035,0-0.1-0.002-0.148-0.002c-0.051,0-0.117,0.002-0.148,0.002V29.684z"/>
	</g>
	<g>
		<path fill="#221E20" d="M33.213,29.699c0.004-0.029,0.012-0.059,0.018-0.086l-0.01-0.004c-0.018,0.064-0.051,0.07-0.117,0.068
			c-0.035,0-0.07,0-0.07-0.039v-0.131h0.07c0.039-0.002,0.043,0.021,0.045,0.053l0.012-0.002c0-0.02,0-0.041,0-0.061
			c0-0.021,0-0.043,0-0.064h-0.012c-0.002,0.029-0.012,0.051-0.047,0.051h-0.068v-0.152h0.08c0.059,0,0.068,0.029,0.07,0.064
			l0.012-0.002c0-0.016,0-0.037,0-0.055c0-0.01,0-0.02,0-0.027c-0.039,0-0.096,0.002-0.141,0.002c-0.047,0-0.104-0.002-0.137-0.002
			v0.012h0.006c0.02,0,0.043,0.004,0.043,0.033v0.295c0,0.031-0.023,0.033-0.043,0.033h-0.006v0.014
			c0.033,0,0.098-0.004,0.146-0.004S33.176,29.699,33.213,29.699 M33.213,29.703c-0.035,0-0.1-0.002-0.148-0.002
			c-0.051,0-0.117,0.002-0.148,0.002h-0.004v-0.002v-0.018v-0.002h0.004h0.008c0.02,0,0.039-0.002,0.039-0.029v-0.295
			c0-0.027-0.02-0.027-0.039-0.027h-0.012v-0.004v-0.02h0.004c0.033,0,0.092,0.004,0.139,0.004s0.105-0.004,0.143-0.004h0.002v0.004
			c0,0.008,0,0.018,0,0.029c0,0.018,0,0.039,0.002,0.057l0,0l-0.002,0.002l-0.02,0.004V29.4c-0.004-0.035-0.008-0.062-0.066-0.062
			h-0.074v0.141h0.062c0.033,0,0.039-0.018,0.043-0.047V29.43h0.002h0.02v0.002c-0.002,0.023-0.002,0.045-0.002,0.066
			s0,0.041,0.002,0.062v0.002h-0.002l-0.02,0.004v-0.002c-0.004-0.033-0.004-0.053-0.041-0.053h-0.064v0.127
			c0,0.035,0.029,0.035,0.064,0.035c0.068,0,0.096-0.004,0.111-0.066v-0.002h0.002l0.02,0.004l-0.002,0.002
			c-0.006,0.029-0.012,0.061-0.018,0.09v0.002H33.213z"/>
	</g>
	<g>
		<path fill="#221E20" d="M33.381,29.5h0.027c0.057,0,0.086-0.021,0.086-0.088c0-0.049-0.031-0.082-0.082-0.082
			c-0.018,0-0.023,0.002-0.031,0.002V29.5z M33.309,29.369c0-0.041-0.021-0.043-0.039-0.043h-0.01v-0.016
			c0.018,0,0.051,0.002,0.086,0.002c0.033,0,0.061-0.002,0.09-0.002c0.07,0,0.133,0.02,0.133,0.098c0,0.051-0.033,0.082-0.076,0.1
			l0.096,0.143c0.014,0.023,0.025,0.031,0.053,0.033v0.018c-0.018,0-0.037-0.002-0.055-0.002s-0.035,0.002-0.053,0.002
			c-0.043-0.057-0.08-0.117-0.115-0.182h-0.037v0.119c0,0.043,0.02,0.045,0.045,0.045h0.01v0.018c-0.031,0-0.062-0.002-0.096-0.002
			c-0.027,0-0.053,0.002-0.08,0.002v-0.018h0.01c0.02,0,0.039-0.01,0.039-0.029V29.369z"/>
	</g>
	<g>
		<path fill="#221E20" d="M33.408,29.496c0.055,0,0.084-0.02,0.084-0.084c0-0.049-0.031-0.08-0.08-0.08
			c-0.016,0-0.021,0.002-0.029,0.002v0.162H33.408z M33.381,29.502h-0.002V29.33h0.002c0.008,0,0.014-0.002,0.031-0.002
			c0.051,0,0.084,0.033,0.084,0.084c0,0.066-0.031,0.09-0.088,0.09H33.381z M33.381,29.518h0.037h0.002
			c0.037,0.064,0.072,0.125,0.113,0.182c0.018,0,0.035-0.004,0.053-0.004s0.035,0.004,0.053,0.004v-0.014
			c-0.025-0.002-0.039-0.01-0.053-0.033l-0.098-0.146l0.002-0.002c0.045-0.018,0.076-0.047,0.076-0.096
			c0-0.078-0.061-0.096-0.131-0.096c-0.029,0-0.057,0.002-0.09,0.002s-0.066-0.002-0.084-0.002v0.012h0.008
			c0.018,0,0.041,0.002,0.041,0.045v0.285c0,0.021-0.021,0.031-0.041,0.031h-0.008v0.014c0.027,0,0.053-0.004,0.078-0.004
			c0.031,0,0.064,0.004,0.094,0.004v-0.014h-0.008c-0.025,0-0.047-0.002-0.047-0.047v-0.121H33.381z M33.641,29.703
			c-0.02,0-0.037-0.002-0.055-0.002s-0.035,0.002-0.053,0.002c-0.045-0.057-0.08-0.117-0.117-0.182h-0.033v0.117
			c0,0.043,0.018,0.043,0.043,0.043h0.014v0.002v0.02h-0.004c-0.031,0-0.064-0.002-0.096-0.002c-0.027,0-0.053,0.002-0.08,0.002
			h-0.002v-0.002v-0.02h0.002h0.01c0.02,0,0.037-0.01,0.037-0.027v-0.285c0-0.039-0.02-0.039-0.037-0.039h-0.012v-0.004v-0.02h0.002
			c0.018,0,0.051,0.004,0.086,0.004c0.033,0,0.061-0.004,0.09-0.004c0.07,0.002,0.137,0.02,0.137,0.102
			c0,0.051-0.035,0.082-0.078,0.1l0.096,0.143c0.014,0.021,0.025,0.027,0.053,0.031h0.002v0.002v0.02H33.641z"/>
	</g>
	<g>
		<path fill="#221E20" d="M34.021,29.59v-0.002v-0.209c0-0.045-0.031-0.053-0.049-0.053h-0.012v-0.016
			c0.025,0,0.053,0.002,0.078,0.002c0.023,0,0.047-0.002,0.07-0.002v0.016h-0.008c-0.025,0-0.051,0.004-0.051,0.072v0.254
			c0,0.02,0,0.039,0.002,0.057h-0.02l-0.289-0.32v0.23c0,0.049,0.01,0.064,0.053,0.064h0.01v0.018c-0.025,0-0.049-0.002-0.072-0.002
			c-0.025,0-0.051,0.002-0.076,0.002v-0.018h0.008c0.039,0,0.051-0.025,0.051-0.07v-0.236c0-0.031-0.025-0.051-0.051-0.051h-0.008
			v-0.016c0.021,0,0.043,0.002,0.064,0.002c0.018,0,0.031-0.002,0.051-0.002L34.021,29.59z"/>
	</g>
	<g>
		<path fill="#221E20" d="M34.02,29.588L34.02,29.588L34.02,29.588L34.02,29.588z M34.021,29.59l0.002-0.002L34.021,29.59z
			 M34.033,29.707h0.018c-0.002-0.018-0.002-0.035-0.002-0.055v-0.254c0-0.068,0.027-0.074,0.053-0.074h0.004v-0.012
			c-0.021,0-0.045,0.002-0.066,0.002c-0.025,0-0.051-0.002-0.076-0.002v0.012h0.01c0.018,0,0.053,0.008,0.053,0.055l-0.002,0.213
			l0,0l-0.002,0.002l-0.248-0.281c-0.018,0-0.033,0.002-0.051,0.002c-0.021,0-0.043-0.002-0.062-0.002v0.012h0.006
			c0.025,0,0.053,0.02,0.053,0.053v0.236c0,0.045-0.014,0.072-0.053,0.072H33.66v0.014c0.025,0,0.051-0.004,0.072-0.004
			c0.025,0,0.049,0.004,0.07,0.004v-0.014h-0.006c-0.045,0-0.055-0.018-0.055-0.066v-0.238L34.033,29.707z M34.053,29.711h-0.021
			l-0.285-0.316v0.225c0.002,0.049,0.008,0.062,0.051,0.062h0.012v0.002v0.02h-0.002c-0.025,0-0.049-0.002-0.074-0.002
			c-0.023,0-0.049,0.002-0.074,0.002h-0.004v-0.002v-0.02h0.004h0.008c0.037,0,0.047-0.023,0.049-0.068v-0.236
			c0-0.029-0.025-0.047-0.049-0.047h-0.012v-0.004v-0.02h0.004c0.021,0,0.043,0.004,0.064,0.004c0.016,0,0.031-0.004,0.051-0.002
			l0.246,0.277v-0.207c0-0.045-0.029-0.049-0.047-0.049h-0.014v-0.004v-0.02h0.002c0.025,0,0.053,0.004,0.078,0.004
			c0.023,0,0.047-0.004,0.07-0.004h0.002v0.004v0.02h-0.002h-0.008c-0.023,0-0.049,0.002-0.049,0.068v0.254
			c0,0.02,0,0.039,0.004,0.057v0.002H34.053z"/>
	</g>
	<g>
		<path fill="#221E20" d="M34.279,29.373L34.279,29.373l-0.053,0.158h0.105L34.279,29.373z M34.199,29.621
			c-0.006,0.018-0.014,0.033-0.014,0.043c0,0.018,0.023,0.02,0.043,0.02h0.006v0.018c-0.021-0.002-0.045-0.002-0.068-0.002
			c-0.02,0-0.039,0-0.061,0.002v-0.018h0.004c0.021,0,0.041-0.014,0.049-0.035l0.09-0.258c0.008-0.02,0.018-0.049,0.02-0.07
			c0.02-0.004,0.041-0.018,0.051-0.023h0.004c0,0,0.004,0,0.006,0.002c0.002,0.004,0.004,0.008,0.004,0.014l0.104,0.293
			c0.008,0.02,0.014,0.041,0.021,0.057c0.006,0.016,0.018,0.021,0.037,0.021h0.002v0.018c-0.025-0.002-0.049-0.002-0.076-0.002
			s-0.057,0-0.084,0.002v-0.018h0.006c0.012,0,0.035-0.002,0.035-0.016c0-0.008-0.006-0.021-0.012-0.041l-0.021-0.064h-0.127
			L34.199,29.621z"/>
	</g>
	<g>
		<path fill="#221E20" d="M34.279,29.373L34.279,29.373L34.279,29.373z M34.23,29.529h0.098l-0.049-0.15L34.23,29.529z
			 M34.223,29.533l0.055-0.162h0.002l0,0v0.002l0,0l0,0v-0.002h0.004l0.053,0.162H34.223z M34.338,29.699
			c0.027-0.002,0.055-0.004,0.082-0.004c0.025,0,0.051,0.002,0.074,0.004v-0.014l0,0c-0.02,0-0.033-0.006-0.041-0.023
			c-0.006-0.016-0.014-0.037-0.02-0.057l-0.104-0.293c-0.002-0.004-0.004-0.01-0.004-0.014c-0.002,0-0.002,0-0.002,0h-0.002H34.32
			c-0.01,0.008-0.033,0.018-0.051,0.023c-0.002,0.021-0.012,0.049-0.02,0.07l-0.09,0.256c-0.008,0.023-0.027,0.037-0.051,0.037l0,0
			v0.014c0.02-0.002,0.037-0.004,0.057-0.004c0.021,0,0.045,0.002,0.066,0.004v-0.014h-0.004c-0.02,0-0.043-0.002-0.045-0.021
			c0-0.01,0.006-0.025,0.012-0.043h0.004h-0.004l0.02-0.061h0.131l0.021,0.066c0.006,0.018,0.012,0.031,0.012,0.041
			c-0.002,0.018-0.025,0.018-0.037,0.018h-0.004V29.699z M34.496,29.703c-0.025,0-0.049-0.002-0.076-0.002s-0.057,0.002-0.084,0.002
			h-0.002v-0.002v-0.02h0.002h0.006c0.012,0,0.031-0.004,0.031-0.014c0-0.006-0.004-0.021-0.01-0.039l-0.021-0.064h-0.123
			l-0.018,0.057c-0.006,0.02-0.014,0.033-0.012,0.043c0,0.014,0.02,0.018,0.039,0.018h0.008v0.002v0.02h-0.002
			c-0.021,0-0.045-0.002-0.068-0.002c-0.02,0-0.039,0.002-0.061,0.002h-0.002v-0.002v-0.02h0.002h0.004
			c0.021,0,0.037-0.012,0.047-0.035l0.088-0.256c0.008-0.021,0.02-0.049,0.023-0.072c0.018-0.006,0.041-0.018,0.051-0.023h0.004
			c0.002-0.002,0.006,0,0.008,0.002c0.002,0.004,0.004,0.01,0.006,0.016l0.104,0.291c0.006,0.02,0.012,0.041,0.02,0.057
			c0.006,0.016,0.016,0.021,0.035,0.021H34.5v0.002v0.02H34.496z"/>
	</g>
	<g>
		<path fill="#221E20" d="M34.521,29.338c-0.043,0-0.043,0.01-0.053,0.051h-0.016c0.002-0.016,0.004-0.031,0.008-0.047
			c0-0.016,0.002-0.031,0.002-0.047h0.014c0.004,0.016,0.018,0.016,0.033,0.016h0.289c0.014,0,0.029,0,0.029-0.018l0.014,0.002
			c-0.002,0.016-0.004,0.031-0.006,0.045c-0.002,0.016-0.002,0.031-0.002,0.045l-0.018,0.008c0-0.021-0.002-0.055-0.039-0.055
			h-0.094v0.299c0,0.043,0.021,0.047,0.047,0.047h0.01v0.018c-0.02,0-0.059-0.002-0.09-0.002c-0.033,0-0.072,0.002-0.096,0.002
			v-0.018h0.012c0.031,0,0.047-0.002,0.047-0.047v-0.299H34.521z"/>
	</g>
	<g>
		<path fill="#221E20" d="M34.74,29.703c-0.02,0-0.061-0.002-0.09-0.002c-0.033,0-0.072,0.002-0.096,0.002l0,0v-0.002v-0.02l0,0
			h0.012c0.031,0,0.043,0,0.043-0.045V29.34h-0.088v-0.002v-0.004h0.094v0.303c0,0.045-0.018,0.049-0.049,0.049h-0.008v0.014
			c0.021,0,0.061-0.004,0.092-0.004c0.029,0,0.068,0.004,0.088,0.004v-0.014H34.73c-0.025,0-0.049-0.006-0.049-0.049v-0.303h0.096
			c0.037,0.002,0.041,0.033,0.043,0.055l0.012-0.006c0-0.014,0-0.029,0.002-0.043c0-0.014,0.002-0.027,0.004-0.043l-0.008-0.002
			c-0.002,0.018-0.018,0.018-0.031,0.018H34.51h-0.004c-0.012,0-0.027,0-0.031-0.016h-0.01c0,0.016,0,0.029-0.004,0.045
			c0,0.016-0.004,0.029-0.006,0.045h0.012c0.008-0.039,0.012-0.053,0.055-0.053v0.004v0.002c-0.043,0.002-0.041,0.008-0.051,0.051
			v0.002h-0.002h-0.02v-0.004c0.004-0.016,0.006-0.031,0.008-0.047s0.004-0.031,0.004-0.047v-0.004h0.002h0.016v0.002
			c0.004,0.014,0.014,0.014,0.027,0.014h0.004h0.289c0.014,0,0.027,0,0.027-0.014v-0.002h0.004l0.014,0.002v0.002
			c-0.002,0.016-0.004,0.031-0.006,0.045c-0.002,0.016-0.002,0.031-0.002,0.045v0.004l0,0l-0.02,0.008l-0.002-0.004
			c0-0.021-0.002-0.053-0.037-0.053h-0.09v0.297c0,0.041,0.018,0.045,0.043,0.045h0.014v0.002v0.02H34.74z"/>
	</g>
	<g>
		<path fill="#221E20" d="M34.861,29.684h0.008c0.021,0,0.043-0.002,0.043-0.031v-0.295c0-0.027-0.021-0.031-0.043-0.031h-0.008
			v-0.016c0.023,0,0.057,0.002,0.084,0.002s0.062-0.002,0.088-0.002v0.016h-0.008c-0.02,0-0.041,0.004-0.041,0.031v0.295
			c0,0.029,0.021,0.031,0.041,0.031h0.008v0.018c-0.025,0-0.061-0.002-0.088-0.002s-0.061,0.002-0.084,0.002V29.684z"/>
	</g>
	<g>
		<path fill="#221E20" d="M35.031,29.699v-0.014h-0.006c-0.02,0-0.043-0.002-0.043-0.033v-0.295c0-0.029,0.023-0.033,0.043-0.033
			h0.006v-0.012c-0.025,0-0.059,0.002-0.086,0.002s-0.059-0.002-0.08-0.002v0.012h0.004c0.021,0,0.045,0.004,0.045,0.033v0.295
			c0,0.031-0.023,0.033-0.045,0.033h-0.004v0.014c0.021,0,0.053-0.004,0.08-0.004S35.004,29.699,35.031,29.699 M35.033,29.703
			c-0.027,0-0.061-0.002-0.088-0.002s-0.061,0.002-0.084,0.002l0,0v-0.002v-0.018v-0.002l0,0h0.008c0.021,0,0.041-0.002,0.041-0.029
			v-0.295c0-0.027-0.02-0.027-0.041-0.027h-0.008v-0.004v-0.02l0,0c0.023,0,0.057,0.004,0.084,0.004s0.062-0.004,0.088-0.004h0.002
			v0.004v0.02h-0.002h-0.008c-0.02,0-0.039,0-0.039,0.027v0.295c0,0.027,0.02,0.029,0.039,0.029h0.01v0.002v0.02H35.033z"/>
	</g>
	<g>
		<path fill="#221E20" d="M35.266,29.686c0.107,0,0.127-0.098,0.127-0.178c0-0.082-0.045-0.182-0.137-0.182
			c-0.098,0-0.129,0.088-0.129,0.162C35.127,29.588,35.174,29.686,35.266,29.686 M35.256,29.301c0.121,0,0.215,0.074,0.215,0.193
			c0,0.129-0.092,0.215-0.211,0.215s-0.211-0.08-0.211-0.201C35.049,29.393,35.141,29.301,35.256,29.301"/>
	</g>
	<g>
		<path fill="#221E20" d="M35.125,29.488c0-0.074,0.029-0.164,0.131-0.164c0.094,0,0.139,0.1,0.139,0.184
			c0,0.08-0.02,0.178-0.129,0.178l0,0v-0.004c0.105,0,0.125-0.094,0.125-0.174c0-0.082-0.045-0.18-0.135-0.18
			c-0.096,0-0.125,0.086-0.125,0.16c0,0.1,0.045,0.193,0.135,0.193v0.004l0,0C35.172,29.686,35.125,29.588,35.125,29.488
			 M35.047,29.508c0-0.117,0.092-0.209,0.209-0.209v0.002v0.002c-0.115,0-0.205,0.09-0.205,0.205c0,0.119,0.09,0.199,0.209,0.199
			c0.117,0,0.209-0.084,0.209-0.213c0-0.117-0.094-0.191-0.213-0.191v-0.002v-0.002c0.121,0,0.217,0.076,0.219,0.195
			c-0.002,0.131-0.096,0.217-0.215,0.217S35.047,29.631,35.047,29.508"/>
	</g>
	<g>
		<path fill="#221E20" d="M35.848,29.59v-0.002v-0.209c0-0.045-0.031-0.053-0.049-0.053h-0.01v-0.016
			c0.025,0,0.051,0.002,0.076,0.002c0.023,0,0.047-0.002,0.07-0.002v0.016h-0.01c-0.023,0-0.049,0.004-0.049,0.072v0.254
			c0,0.02,0,0.039,0.004,0.057h-0.021l-0.287-0.32v0.23c0,0.049,0.008,0.064,0.051,0.064h0.01v0.018
			c-0.023,0-0.047-0.002-0.072-0.002s-0.051,0.002-0.076,0.002v-0.018h0.008c0.039,0,0.051-0.025,0.051-0.07v-0.236
			c0-0.031-0.025-0.051-0.051-0.051h-0.008v-0.016c0.021,0,0.043,0.002,0.064,0.002c0.016,0,0.033-0.002,0.051-0.002L35.848,29.59z"
			/>
	</g>
	<g>
		<path fill="#221E20" d="M35.846,29.588L35.846,29.588L35.846,29.588L35.846,29.588z M35.848,29.59l0.002-0.002L35.848,29.59z
			 M35.859,29.707h0.018c-0.002-0.018-0.004-0.035-0.004-0.055v-0.254c0-0.068,0.029-0.074,0.053-0.074h0.008v-0.012
			c-0.023,0-0.045,0.002-0.068,0.002c-0.025,0-0.049-0.002-0.076-0.002v0.012h0.01c0.018,0,0.053,0.008,0.053,0.055v0.213H35.85
			l-0.002,0.002L35.6,29.312c-0.018,0-0.033,0.002-0.051,0.002c-0.021,0-0.041-0.002-0.062-0.002v0.012h0.006
			c0.027,0,0.053,0.02,0.053,0.053v0.236c0,0.045-0.012,0.072-0.053,0.072h-0.006v0.014c0.025,0,0.049-0.004,0.074-0.004
			c0.023,0,0.047,0.004,0.07,0.004v-0.014h-0.008c-0.043,0-0.055-0.018-0.055-0.066v-0.238L35.859,29.707z M35.881,29.711h-0.023
			l-0.283-0.316v0.225c0,0.049,0.006,0.062,0.049,0.062h0.012v0.002v0.02h-0.002c-0.023,0-0.047-0.002-0.072-0.002
			s-0.051,0.002-0.076,0.002h-0.002v-0.002v-0.02h0.002h0.008c0.037,0,0.049-0.023,0.049-0.068v-0.236
			c0-0.029-0.025-0.047-0.049-0.047h-0.01v-0.004v-0.02h0.002c0.021,0,0.043,0.004,0.064,0.004c0.016,0,0.033-0.004,0.053-0.002
			l0.244,0.277v-0.207c0-0.045-0.029-0.049-0.047-0.049h-0.014v-0.004v-0.02h0.004c0.025,0,0.051,0.004,0.076,0.004
			c0.023,0,0.047-0.004,0.07-0.004h0.002v0.004v0.02h-0.002h-0.01c-0.021,0-0.045,0.002-0.047,0.068v0.254
			c0,0.02,0.002,0.039,0.004,0.057v0.002H35.881z"/>
	</g>
	<g>
		<path fill="#221E20" d="M36.107,29.373h-0.002l-0.053,0.158h0.105L36.107,29.373z M36.025,29.621
			c-0.006,0.018-0.012,0.033-0.012,0.043c0,0.018,0.023,0.02,0.041,0.02h0.006v0.018c-0.021-0.002-0.045-0.002-0.066-0.002
			s-0.041,0-0.061,0.002v-0.018h0.002c0.023,0,0.041-0.014,0.049-0.035l0.09-0.258c0.008-0.02,0.018-0.049,0.021-0.07
			c0.018-0.004,0.039-0.018,0.051-0.023h0.002c0,0,0.006,0,0.006,0.002c0.002,0.004,0.004,0.008,0.004,0.014l0.104,0.293
			c0.008,0.02,0.014,0.041,0.021,0.057c0.006,0.016,0.018,0.021,0.037,0.021h0.004v0.018c-0.025-0.002-0.051-0.002-0.078-0.002
			s-0.055,0-0.084,0.002v-0.018h0.006c0.014,0,0.035-0.002,0.035-0.016c0-0.008-0.006-0.021-0.012-0.041l-0.021-0.064h-0.127
			L36.025,29.621z"/>
	</g>
	<g>
		<path fill="#221E20" d="M36.105,29.373L36.105,29.373L36.105,29.373z M36.057,29.529h0.098l-0.049-0.15L36.057,29.529z
			 M36.051,29.533l0.053-0.162h0.002h0.002v0.002h-0.002h0.002v-0.002h0.002l0.053,0.162H36.051z M36.164,29.699
			c0.029-0.002,0.057-0.004,0.082-0.004c0.027,0,0.051,0.002,0.076,0.004v-0.014H36.32c-0.02,0-0.033-0.006-0.039-0.023
			c-0.008-0.016-0.014-0.037-0.021-0.057l-0.104-0.293c-0.002-0.004-0.002-0.01-0.004-0.014l0,0H36.15h-0.002
			c-0.012,0.008-0.035,0.018-0.051,0.023c-0.004,0.021-0.014,0.049-0.021,0.07l-0.09,0.256c-0.008,0.023-0.027,0.037-0.051,0.037
			l0,0v0.014c0.018-0.002,0.037-0.004,0.059-0.004s0.043,0.002,0.064,0.004v-0.014h-0.004c-0.018,0-0.043-0.002-0.043-0.021
			c0-0.01,0.006-0.025,0.012-0.043h0.002h-0.002l0.018-0.061h0.131l0.021,0.066c0.008,0.018,0.012,0.031,0.012,0.041
			c0,0.018-0.025,0.018-0.037,0.018h-0.004V29.699z M36.324,29.703c-0.025,0-0.051-0.002-0.078-0.002s-0.055,0.002-0.084,0.002
			H36.16v-0.002v-0.02h0.002h0.006c0.014,0,0.033-0.004,0.033-0.014c0-0.006-0.006-0.021-0.012-0.039l-0.021-0.064h-0.123
			l-0.018,0.057c-0.006,0.02-0.012,0.033-0.012,0.043c0,0.014,0.021,0.018,0.039,0.018h0.01v0.002v0.02h-0.004
			c-0.021,0-0.045-0.002-0.066-0.002s-0.041,0.002-0.061,0.002h-0.002v-0.002v-0.02h0.002h0.002c0.021,0,0.039-0.012,0.047-0.035
			l0.09-0.256c0.006-0.021,0.018-0.049,0.021-0.072c0.02-0.006,0.041-0.018,0.051-0.023c0.002,0,0.004,0,0.004,0
			c0.004-0.002,0.006,0,0.008,0.002c0.002,0.004,0.004,0.01,0.006,0.016l0.102,0.291c0.008,0.02,0.014,0.041,0.021,0.057
			c0.006,0.016,0.018,0.021,0.035,0.021h0.006v0.002v0.02H36.324z"/>
	</g>
	<g>
		<path fill="#221E20" d="M36.465,29.646c0,0.021,0.016,0.029,0.033,0.031c0.023,0.002,0.047,0.002,0.072-0.002
			c0.025-0.002,0.045-0.016,0.055-0.029s0.014-0.029,0.018-0.041h0.018c-0.008,0.031-0.016,0.062-0.021,0.096
			c-0.051,0-0.1-0.002-0.148-0.002s-0.098,0.002-0.148,0.002v-0.018h0.01c0.02,0,0.041-0.002,0.041-0.037v-0.289
			c0-0.027-0.021-0.031-0.041-0.031h-0.01v-0.016c0.031,0,0.061,0.002,0.09,0.002s0.057-0.002,0.084-0.002v0.016h-0.014
			c-0.021,0-0.037,0.002-0.037,0.031V29.646z"/>
	</g>
	<g>
		<path fill="#221E20" d="M36.637,29.699c0.006-0.031,0.014-0.061,0.02-0.092h-0.012c-0.004,0.014-0.008,0.027-0.018,0.041
			s-0.031,0.027-0.057,0.029c-0.012,0.002-0.027,0.004-0.041,0.004c-0.012,0-0.021-0.002-0.033-0.002
			c-0.018-0.002-0.035-0.01-0.035-0.033v-0.289c0-0.031,0.021-0.033,0.041-0.033h0.012v-0.012c-0.027,0-0.055,0.002-0.082,0.002
			c-0.029,0-0.057-0.002-0.086-0.002v0.012h0.006c0.02,0,0.043,0.004,0.043,0.033v0.289c0,0.035-0.023,0.039-0.043,0.039h-0.006
			v0.014c0.047,0,0.096-0.004,0.145-0.004S36.588,29.699,36.637,29.699 M36.639,29.703c-0.051,0-0.1-0.002-0.148-0.002
			s-0.098,0.002-0.148,0.002H36.34v-0.002v-0.02h0.002h0.01c0.02,0,0.037-0.002,0.039-0.035v-0.289
			c-0.002-0.027-0.02-0.027-0.039-0.027H36.34v-0.004v-0.02h0.002c0.031,0,0.061,0.004,0.09,0.004s0.055-0.004,0.084-0.004h0.002
			v0.004v0.02h-0.002h-0.014c-0.021,0-0.035-0.002-0.035,0.027v0.289c0,0.02,0.014,0.025,0.031,0.029c0.01,0,0.02,0,0.031,0
			c0.014,0,0.029,0,0.041-0.002c0.023-0.004,0.043-0.016,0.053-0.029c0.01-0.012,0.014-0.027,0.018-0.039v-0.002h0.002h0.02v0.002
			c-0.006,0.033-0.016,0.062-0.021,0.096v0.002H36.639z"/>
	</g>
	<g>
		<path fill="#221E20" d="M36.643,29.354h0.008c0.008,0,0.01-0.006,0.01-0.014c0-0.012-0.004-0.014-0.012-0.014h-0.006V29.354z
			 M36.623,29.383v-0.002c0.008,0,0.01,0,0.01-0.004v-0.045c0-0.006-0.002-0.008-0.01-0.008v-0.002h0.029
			c0.012,0,0.021,0.004,0.021,0.016c0,0.008-0.006,0.014-0.014,0.018l0.008,0.014c0.006,0.006,0.01,0.012,0.014,0.014l0,0H36.67
			c-0.006,0-0.01-0.01-0.021-0.025h-0.006v0.02c0,0.004,0.002,0.004,0.008,0.004v0.002H36.623z M36.652,29.4
			c0.025,0,0.047-0.021,0.047-0.047s-0.021-0.049-0.047-0.049c-0.027,0-0.047,0.023-0.047,0.049S36.625,29.4,36.652,29.4
			 M36.652,29.295c0.035,0,0.059,0.025,0.059,0.059s-0.023,0.059-0.059,0.059c-0.033,0-0.059-0.025-0.059-0.059
			S36.619,29.295,36.652,29.295"/>
	</g>
	<g>
		<path fill-rule="evenodd" clip-rule="evenodd" fill="#0073A5" d="M24.922,30.053h-0.014c0-0.006-0.002-0.016-0.002-0.018
			c0-0.006,0-0.012-0.01-0.012h-0.021v0.029h-0.01v-0.07h0.031c0.012,0,0.023,0.004,0.023,0.016s-0.004,0.014-0.008,0.018
			c0.004,0.004,0.008,0.008,0.008,0.014v0.014c0,0.004,0,0.004,0,0.004L24.922,30.053L24.922,30.053z M24.908,30
			c0-0.008-0.006-0.008-0.006-0.008h-0.027v0.02h0.021C24.896,30.012,24.908,30.01,24.908,30L24.908,30L24.908,30z M24.969,30.016
			c0-0.041-0.035-0.076-0.08-0.076c-0.043,0-0.076,0.035-0.076,0.076c0,0.047,0.033,0.08,0.076,0.08
			C24.934,30.096,24.969,30.062,24.969,30.016L24.969,30.016L24.969,30.016z M24.957,30.016c0,0.037-0.029,0.064-0.068,0.064
			c-0.037,0-0.064-0.027-0.064-0.064c0-0.033,0.027-0.064,0.064-0.064C24.928,29.951,24.957,29.982,24.957,30.016L24.957,30.016z"/>
	</g>
	<g>
		<path fill-rule="evenodd" clip-rule="evenodd" fill="#0073A5" d="M29.242,28.705c0,0.104-0.068,0.152-0.188,0.152h-0.223v-0.104
			h0.223c0.023,0,0.039-0.004,0.047-0.01c0.006-0.01,0.014-0.02,0.014-0.031c0-0.016-0.008-0.029-0.014-0.035
			c-0.008-0.008-0.02-0.01-0.041-0.01c-0.107-0.006-0.244,0.002-0.244-0.15c0-0.07,0.045-0.146,0.168-0.146h0.232v0.104h-0.215
			c-0.021,0-0.037,0-0.045,0.008c-0.012,0.01-0.02,0.021-0.02,0.037c0,0.02,0.012,0.029,0.025,0.035
			c0.012,0.002,0.027,0.008,0.045,0.008h0.062c0.066,0,0.107,0.014,0.137,0.037C29.227,28.625,29.242,28.656,29.242,28.705
			L29.242,28.705L29.242,28.705z M28.752,28.6c-0.029-0.023-0.072-0.037-0.137-0.037h-0.064c-0.016,0-0.029-0.006-0.045-0.008
			c-0.012-0.006-0.023-0.016-0.023-0.035c0-0.016,0.004-0.027,0.018-0.037c0.01-0.008,0.023-0.008,0.047-0.008h0.213v-0.104h-0.232
			c-0.125,0-0.166,0.076-0.166,0.146c0,0.152,0.135,0.145,0.242,0.15c0.021,0,0.035,0.002,0.043,0.01
			c0.008,0.006,0.014,0.02,0.014,0.035c0,0.012-0.006,0.021-0.014,0.031c-0.012,0.006-0.023,0.01-0.045,0.01h-0.227v0.104h0.227
			c0.117,0,0.184-0.049,0.184-0.152C28.785,28.656,28.771,28.625,28.752,28.6L28.752,28.6L28.752,28.6z M28.305,28.758h-0.273v-0.1
			h0.268v-0.096h-0.268v-0.09h0.273v-0.102h-0.389v0.486h0.389V28.758L28.305,28.758z M27.791,28.395
			c-0.037-0.02-0.084-0.023-0.143-0.023h-0.268v0.486H27.5V28.68h0.125c0.041,0,0.064,0.004,0.082,0.021
			c0.021,0.023,0.021,0.064,0.021,0.098v0.059h0.115v-0.096c0-0.041-0.004-0.064-0.018-0.088c-0.012-0.016-0.031-0.031-0.059-0.041
			c0.031-0.012,0.082-0.053,0.082-0.129C27.85,28.447,27.83,28.416,27.791,28.395L27.791,28.395L27.791,28.395z M27.131,28.371
			H26.76l-0.15,0.16l-0.143-0.16h-0.471v0.486h0.463l0.15-0.16l0.143,0.16h0.225v-0.162h0.146c0.1,0,0.201-0.027,0.201-0.164
			C27.324,28.398,27.221,28.371,27.131,28.371L27.131,28.371L27.131,28.371z M27.697,28.572c-0.018,0.008-0.035,0.008-0.057,0.008
			L27.5,28.584v-0.111h0.141c0.021,0,0.041,0,0.057,0.01c0.014,0.006,0.023,0.021,0.023,0.041
			C27.721,28.545,27.711,28.562,27.697,28.572L27.697,28.572L27.697,28.572z M27.131,28.596h-0.154v-0.123h0.154
			c0.043,0,0.07,0.016,0.07,0.059C27.201,28.572,27.174,28.596,27.131,28.596L27.131,28.596L27.131,28.596z M26.684,28.615
			l0.18-0.191v0.391L26.684,28.615L26.684,28.615z M26.4,28.758h-0.289v-0.1h0.258v-0.096h-0.258v-0.09h0.293l0.129,0.143
			L26.4,28.758L26.4,28.758z M28.918,28.02h-0.166l-0.221-0.365v0.365h-0.234l-0.047-0.107h-0.242l-0.045,0.107h-0.137
			c-0.057,0-0.129-0.014-0.17-0.055c-0.039-0.043-0.061-0.098-0.061-0.186c0.002-0.072,0.01-0.137,0.062-0.189
			c0.035-0.039,0.1-0.057,0.178-0.057h0.111v0.105h-0.111c-0.041,0-0.066,0.006-0.09,0.027c-0.021,0.021-0.031,0.059-0.031,0.109
			c0,0.053,0.01,0.092,0.031,0.117c0.016,0.016,0.049,0.023,0.08,0.023h0.053l0.166-0.383h0.172l0.197,0.459v-0.459h0.18
			l0.203,0.338v-0.338h0.121V28.02L28.918,28.02z M27.537,27.533H27.42v0.486h0.117V27.533L27.537,27.533z M27.291,27.555
			c-0.039-0.021-0.08-0.021-0.141-0.021h-0.268v0.486H27v-0.176h0.123c0.043,0,0.07,0.004,0.088,0.02
			c0.02,0.025,0.016,0.066,0.016,0.094v0.062h0.119v-0.098c0-0.041-0.002-0.062-0.021-0.086c-0.01-0.016-0.029-0.031-0.055-0.041
			c0.033-0.016,0.082-0.053,0.082-0.129C27.352,27.609,27.328,27.578,27.291,27.555L27.291,27.555L27.291,27.555z M26.801,27.92
			h-0.271v-0.1h0.268v-0.098h-0.268v-0.088h0.271v-0.102H26.41v0.486h0.391V27.92L26.801,27.92z M26.324,27.533h-0.191l-0.143,0.33
			l-0.152-0.33H25.65v0.459l-0.199-0.459h-0.172L25.07,28.02h0.125l0.043-0.107h0.246l0.043,0.107h0.236v-0.381l0.172,0.381h0.1
			l0.17-0.381v0.381h0.119V27.533L26.324,27.533z M28.209,27.809l-0.08-0.193l-0.08,0.193H28.209L28.209,27.809z M27.201,27.73
			c-0.02,0.012-0.035,0.012-0.061,0.012H27v-0.107h0.141c0.021,0,0.045,0,0.061,0.008c0.014,0.008,0.02,0.023,0.02,0.045
			C27.221,27.707,27.215,27.725,27.201,27.73L27.201,27.73L27.201,27.73z M25.279,27.809l0.082-0.193l0.082,0.193H25.279
			L25.279,27.809z M29.211,26.008h-4.145v1.752l0.141-0.322h0.305l0.041,0.08v-0.08h0.354l0.08,0.172l0.078-0.172h1.129
			c0.051,0,0.098,0.008,0.131,0.037v-0.037h0.311v0.037c0.051-0.029,0.119-0.037,0.195-0.037h0.447l0.041,0.08v-0.08h0.332
			l0.049,0.08v-0.08h0.322v0.68h-0.326l-0.064-0.104v0.104h-0.406l-0.045-0.111h-0.1l-0.045,0.111h-0.213
			c-0.084,0-0.145-0.02-0.188-0.041v0.041h-0.504v-0.156c0-0.021-0.002-0.025-0.018-0.025h-0.016v0.182h-0.975v-0.088l-0.035,0.088
			h-0.205l-0.035-0.084v0.084h-0.393l-0.043-0.111h-0.098l-0.047,0.111h-0.201v2.053h4.145v-1.244
			c-0.043,0.018-0.107,0.029-0.168,0.029H28.74v-0.043c-0.035,0.027-0.098,0.043-0.156,0.043h-0.953v-0.156
			c0-0.021-0.002-0.021-0.021-0.021h-0.016v0.178h-0.314v-0.184c-0.053,0.025-0.111,0.025-0.162,0.025h-0.035v0.158h-0.383
			l-0.09-0.105l-0.1,0.105h-0.617v-0.682h0.627l0.09,0.105l0.096-0.105h0.424c0.049,0,0.127,0.008,0.162,0.041v-0.041h0.375
			c0.039,0,0.111,0.008,0.16,0.041v-0.041h0.566v0.041c0.031-0.027,0.09-0.041,0.143-0.041h0.316v0.041
			c0.033-0.023,0.084-0.041,0.146-0.041h0.213V26.008L29.211,26.008z"/>
	</g>
	<g>
		<polygon fill-rule="evenodd" clip-rule="evenodd" fill="#06326E" points="9.494,30.16 16.104,30.16 16.104,25.98 9.494,25.98 
			9.494,30.16 		"/>
	</g>
	<g>
		<path fill-rule="evenodd" clip-rule="evenodd" fill="#FAB31E" d="M12.803,29.406c0.32,0.291,0.748,0.467,1.213,0.467
			c1,0,1.807-0.807,1.807-1.807c0-0.996-0.807-1.807-1.807-1.807c-0.465,0-0.893,0.176-1.213,0.469
			c-0.363,0.332-0.596,0.807-0.596,1.338S12.439,29.078,12.803,29.406L12.803,29.406z"/>
	</g>
	<g>
		<path fill-rule="evenodd" clip-rule="evenodd" fill="#FAB31E" d="M15.582,29.072c0-0.031,0.023-0.057,0.061-0.057
			c0.031,0,0.057,0.025,0.057,0.057c0,0.033-0.025,0.062-0.057,0.062C15.605,29.135,15.582,29.105,15.582,29.072L15.582,29.072z
			 M15.643,29.119c0.021,0,0.043-0.021,0.043-0.047c0-0.023-0.021-0.041-0.043-0.041c-0.025,0-0.047,0.018-0.047,0.041
			C15.596,29.098,15.617,29.119,15.643,29.119L15.643,29.119z M15.631,29.102h-0.01v-0.053h0.021c0.004,0,0.01,0,0.014,0.004
			c0.004,0.002,0.008,0.006,0.008,0.01c0,0.008-0.004,0.016-0.012,0.016l0.012,0.023H15.65l-0.008-0.021h-0.012V29.102
			L15.631,29.102z M15.631,29.07h0.008h0.008c0,0,0.004-0.004,0.004-0.008l-0.004-0.004h-0.008h-0.008V29.07L15.631,29.07z"/>
	</g>
	<g>
		<path fill-rule="evenodd" clip-rule="evenodd" fill="#E40520" d="M13.389,27.875c-0.008-0.062-0.018-0.127-0.031-0.191H12.25
			c0.016-0.064,0.033-0.127,0.055-0.191h0.998c-0.021-0.062-0.047-0.127-0.074-0.191h-0.85c0.031-0.062,0.066-0.127,0.105-0.191
			h0.639c-0.041-0.066-0.086-0.131-0.139-0.191h-0.361c0.053-0.066,0.117-0.131,0.18-0.189c-0.318-0.293-0.742-0.469-1.213-0.469
			c-0.998,0-1.805,0.811-1.805,1.807c0,1,0.807,1.807,1.805,1.807c0.471,0,0.895-0.176,1.213-0.467l0,0
			c0.064-0.061,0.129-0.125,0.184-0.191h-0.363c-0.051-0.061-0.096-0.125-0.139-0.191h0.639c0.039-0.061,0.074-0.123,0.105-0.191
			h-0.85c-0.029-0.061-0.055-0.125-0.074-0.191h0.998c0.021-0.064,0.039-0.127,0.055-0.191c0.014-0.062,0.023-0.127,0.031-0.191
			c0.006-0.064,0.01-0.127,0.01-0.191S13.395,27.939,13.389,27.875L13.389,27.875z"/>
	</g>
	<g>
		<path fill-rule="evenodd" clip-rule="evenodd" fill="#FFFFFF" d="M15.582,28.486c0-0.033,0.023-0.059,0.061-0.059
			c0.031,0,0.057,0.025,0.057,0.059c0,0.031-0.025,0.059-0.057,0.059C15.605,28.545,15.582,28.518,15.582,28.486L15.582,28.486z
			 M15.643,28.531c0.021,0,0.043-0.021,0.043-0.045c0-0.025-0.021-0.045-0.043-0.045c-0.025,0-0.047,0.02-0.047,0.045
			C15.596,28.51,15.617,28.531,15.643,28.531L15.643,28.531z M15.631,28.514h-0.01v-0.053h0.021c0.004,0,0.01,0,0.014,0.004
			c0.004,0.002,0.008,0.006,0.008,0.01c0,0.006-0.004,0.014-0.012,0.014l0.012,0.025H15.65l-0.008-0.021h-0.012V28.514
			L15.631,28.514z M15.631,28.48h0.008h0.008c0,0,0.004-0.004,0.004-0.006l-0.004-0.004h-0.008h-0.008V28.48L15.631,28.48z"/>
	</g>
	<g>
		<path fill-rule="evenodd" clip-rule="evenodd" fill="#06326E" d="M12.191,28.588c-0.062,0.018-0.104,0.025-0.15,0.025
			c-0.092,0-0.148-0.057-0.148-0.164c0-0.021,0.004-0.043,0.008-0.066l0.01-0.07l0.01-0.061l0.086-0.512h0.188l-0.02,0.113h0.115
			l-0.027,0.188h-0.117l-0.053,0.305c0,0.012-0.004,0.021-0.004,0.029c0,0.039,0.021,0.057,0.066,0.057
			c0.025,0,0.039-0.004,0.061-0.008L12.191,28.588L12.191,28.588z"/>
	</g>
	<g>
		<path fill-rule="evenodd" clip-rule="evenodd" fill="#06326E" d="M12.797,28.58c-0.068,0.021-0.135,0.033-0.203,0.033
			c-0.209,0-0.332-0.113-0.332-0.334c0-0.256,0.145-0.447,0.344-0.447c0.158,0,0.262,0.107,0.262,0.273
			c0,0.053-0.006,0.105-0.023,0.186h-0.391c0,0.01,0,0.014,0,0.021c0,0.088,0.057,0.129,0.17,0.129c0.07,0,0.135-0.014,0.205-0.045
			L12.797,28.58L12.797,28.58z M12.68,28.137c0-0.014,0-0.027,0-0.035c0-0.061-0.037-0.096-0.092-0.096
			c-0.064,0-0.107,0.047-0.125,0.131H12.68L12.68,28.137z"/>
	</g>
	<g>
		<polygon fill-rule="evenodd" clip-rule="evenodd" fill="#06326E" points="10.691,28.598 10.496,28.598 10.609,27.893 
			10.357,28.598 10.223,28.598 10.209,27.896 10.088,28.598 9.9,28.598 10.055,27.68 10.334,27.68 10.344,28.246 10.531,27.68 
			10.844,27.68 10.691,28.598 		"/>
	</g>
	<g>
		<path fill-rule="evenodd" clip-rule="evenodd" fill="#06326E" d="M11.162,28.266c-0.02,0-0.023-0.004-0.039-0.004
			c-0.109,0-0.166,0.043-0.166,0.113c0,0.049,0.029,0.078,0.07,0.078C11.123,28.453,11.16,28.375,11.162,28.266L11.162,28.266z
			 M11.318,28.598h-0.17l0.002-0.076c-0.041,0.059-0.098,0.092-0.205,0.092c-0.094,0-0.172-0.086-0.172-0.207
			c0-0.035,0.006-0.066,0.014-0.094c0.031-0.119,0.148-0.189,0.326-0.193c0.021,0,0.057,0,0.084,0.004
			c0.008-0.023,0.008-0.035,0.008-0.049c0-0.051-0.039-0.064-0.131-0.064c-0.057,0-0.117,0.012-0.164,0.021l-0.023,0.01h-0.016
			l0.029-0.166c0.092-0.027,0.156-0.037,0.227-0.037c0.17,0,0.258,0.072,0.258,0.219c0,0.035,0.006,0.062-0.01,0.146l-0.039,0.264
			l-0.008,0.047l-0.006,0.039v0.023L11.318,28.598L11.318,28.598z"/>
	</g>
	<g>
		<path fill-rule="evenodd" clip-rule="evenodd" fill="#06326E" d="M13.74,27.861c0.053,0,0.102,0.014,0.172,0.049l0.033-0.201
			c-0.018-0.008-0.021-0.008-0.047-0.018l-0.082-0.018c-0.023-0.008-0.053-0.01-0.088-0.01c-0.096,0-0.152,0-0.213,0.037
			c-0.031,0.018-0.07,0.047-0.117,0.098l-0.021-0.008l-0.201,0.141l0.01-0.078h-0.209l-0.115,0.744h0.193l0.07-0.4
			c0,0,0.029-0.057,0.043-0.074c0.035-0.045,0.066-0.045,0.107-0.045h0.014c-0.004,0.041-0.008,0.092-0.008,0.141
			c0,0.246,0.139,0.396,0.352,0.396c0.053,0,0.1-0.006,0.17-0.027l0.035-0.209c-0.062,0.031-0.117,0.045-0.166,0.045
			c-0.113,0-0.182-0.08-0.182-0.221C13.49,28.002,13.59,27.861,13.74,27.861L13.74,27.861z"/>
	</g>
	<g>
		<path fill-rule="evenodd" clip-rule="evenodd" fill="#06326E" d="M15.395,27.68l-0.043,0.264c-0.047-0.07-0.104-0.104-0.178-0.104
			c-0.102,0-0.199,0.057-0.258,0.166l0,0l-0.125-0.074l0.012-0.078h-0.209l-0.121,0.744h0.199l0.062-0.4
			c0,0,0.051-0.057,0.064-0.074c0.029-0.035,0.061-0.045,0.084-0.045c-0.02,0.062-0.035,0.137-0.035,0.219
			c0,0.189,0.1,0.312,0.242,0.312c0.07,0,0.127-0.025,0.18-0.086l-0.01,0.074h0.188l0.148-0.918H15.395L15.395,27.68z M15.156,28.42
			c-0.066,0-0.1-0.045-0.1-0.143c0-0.146,0.061-0.254,0.154-0.254c0.066,0,0.102,0.055,0.102,0.15
			C15.312,28.318,15.248,28.42,15.156,28.42L15.156,28.42z"/>
	</g>
	<g>
		<path fill-rule="evenodd" clip-rule="evenodd" fill="#06326E" d="M14.252,28.266c-0.02,0-0.023-0.004-0.039-0.004
			c-0.107,0-0.166,0.043-0.166,0.113c0,0.049,0.029,0.078,0.07,0.078C14.213,28.453,14.248,28.375,14.252,28.266L14.252,28.266z
			 M14.408,28.598h-0.17l0.004-0.076c-0.043,0.059-0.1,0.092-0.205,0.092c-0.098,0-0.182-0.082-0.182-0.207
			c0.004-0.176,0.135-0.287,0.348-0.287c0.021,0,0.057,0,0.086,0.004c0.006-0.023,0.006-0.035,0.006-0.049
			c0-0.051-0.039-0.064-0.131-0.064c-0.057,0-0.121,0.012-0.162,0.021l-0.029,0.01h-0.01l0.027-0.166
			c0.092-0.027,0.156-0.037,0.227-0.037c0.172,0,0.26,0.072,0.26,0.219c0,0.035,0.002,0.062-0.012,0.146l-0.039,0.264l-0.006,0.047
			l-0.008,0.039l-0.004,0.023V28.598L14.408,28.598z"/>
	</g>
	<g>
		<path fill-rule="evenodd" clip-rule="evenodd" fill="#06326E" d="M11.727,28.014c0.037,0,0.092,0.004,0.148,0.01l0.029-0.172
			c-0.059-0.008-0.133-0.014-0.178-0.014c-0.217,0-0.291,0.115-0.291,0.254c0,0.088,0.043,0.154,0.145,0.201
			c0.082,0.039,0.096,0.047,0.096,0.078c0,0.047-0.041,0.074-0.121,0.074c-0.055,0-0.107-0.01-0.174-0.027l-0.02,0.17h0.004
			l0.035,0.008c0.01,0.002,0.027,0.006,0.049,0.006c0.051,0.008,0.088,0.008,0.113,0.008c0.217,0,0.309-0.082,0.309-0.248
			c0-0.104-0.049-0.164-0.148-0.205c-0.082-0.039-0.092-0.043-0.092-0.078C11.631,28.041,11.666,28.014,11.727,28.014L11.727,28.014
			z"/>
	</g>
	<g>
		<path fill-rule="evenodd" clip-rule="evenodd" fill="#FFFFFF" d="M13.998,27.652l-0.033,0.199
			c-0.068-0.035-0.119-0.051-0.172-0.051c-0.15,0-0.252,0.143-0.252,0.344c0,0.139,0.07,0.223,0.184,0.223
			c0.051,0,0.104-0.014,0.166-0.045l-0.035,0.209c-0.07,0.018-0.115,0.025-0.174,0.025c-0.209,0-0.34-0.15-0.34-0.395
			c0-0.33,0.182-0.555,0.439-0.555c0.035,0,0.064,0.002,0.09,0.006l0.08,0.021C13.977,27.645,13.98,27.645,13.998,27.652
			L13.998,27.652z"/>
	</g>
	<g>
		<path fill-rule="evenodd" clip-rule="evenodd" fill="#FFFFFF" d="M13.371,27.791c-0.008-0.004-0.014-0.004-0.021-0.004
			c-0.064,0-0.1,0.031-0.16,0.119l0.018-0.113h-0.182l-0.115,0.748h0.195c0.07-0.457,0.088-0.535,0.184-0.535c0,0,0.002,0,0.014,0
			c0.018-0.088,0.039-0.154,0.074-0.215H13.371L13.371,27.791z"/>
	</g>
	<g>
		<path fill-rule="evenodd" clip-rule="evenodd" fill="#FFFFFF" d="M12.24,28.531c-0.055,0.018-0.096,0.025-0.143,0.025
			c-0.098,0-0.156-0.057-0.156-0.164c0-0.021,0.004-0.043,0.008-0.066l0.012-0.074l0.01-0.059l0.084-0.51h0.195l-0.02,0.109h0.098
			l-0.027,0.186h-0.1l-0.053,0.309c0,0.014-0.004,0.025-0.004,0.031c0,0.039,0.021,0.057,0.066,0.057
			c0.025,0,0.039-0.004,0.055-0.008L12.24,28.531L12.24,28.531z"/>
	</g>
	<g>
		<path fill-rule="evenodd" clip-rule="evenodd" fill="#FFFFFF" d="M11.484,28.031c0,0.092,0.047,0.16,0.15,0.205
			c0.08,0.041,0.092,0.051,0.092,0.086c0,0.045-0.035,0.066-0.113,0.066c-0.059,0-0.111-0.01-0.174-0.031l-0.029,0.174h0.012
			l0.035,0.008c0.01,0.002,0.027,0.006,0.049,0.006c0.047,0.004,0.084,0.008,0.109,0.008c0.207,0,0.303-0.078,0.303-0.248
			c0-0.102-0.039-0.164-0.139-0.209c-0.082-0.035-0.092-0.047-0.092-0.078c0-0.043,0.031-0.064,0.096-0.064
			c0.039,0,0.092,0.008,0.141,0.014l0.029-0.174c-0.049-0.006-0.129-0.014-0.174-0.014C11.561,27.779,11.484,27.893,11.484,28.031
			L11.484,28.031z"/>
	</g>
	<g>
		<path fill-rule="evenodd" clip-rule="evenodd" fill="#FFFFFF" d="M15.496,28.541h-0.188l0.012-0.074
			c-0.053,0.057-0.109,0.082-0.182,0.082c-0.141,0-0.236-0.121-0.236-0.309c0-0.248,0.145-0.457,0.318-0.457
			c0.078,0,0.135,0.033,0.188,0.104l0.043-0.264h0.195L15.496,28.541L15.496,28.541z M15.205,28.365
			c0.094,0,0.156-0.104,0.156-0.252c0-0.092-0.035-0.146-0.102-0.146c-0.088,0-0.152,0.104-0.152,0.252
			C15.107,28.314,15.139,28.365,15.205,28.365L15.205,28.365z"/>
	</g>
	<g>
		<path fill-rule="evenodd" clip-rule="evenodd" fill="#FFFFFF" d="M12.84,28.523c-0.068,0.021-0.133,0.033-0.203,0.033
			c-0.221,0-0.332-0.117-0.332-0.334c0-0.26,0.145-0.447,0.344-0.447c0.158,0,0.262,0.105,0.262,0.273
			c0,0.053-0.008,0.107-0.021,0.184h-0.391c-0.004,0.012-0.004,0.014-0.004,0.023c0,0.084,0.059,0.131,0.174,0.131
			c0.068,0,0.131-0.016,0.203-0.047L12.84,28.523L12.84,28.523z M12.729,28.082c0-0.016,0-0.029,0-0.041
			c0-0.059-0.031-0.094-0.092-0.094c-0.059,0-0.105,0.049-0.123,0.135H12.729L12.729,28.082z"/>
	</g>
	<g>
		<polygon fill-rule="evenodd" clip-rule="evenodd" fill="#FFFFFF" points="10.742,28.541 10.547,28.541 10.658,27.838 
			10.408,28.541 10.273,28.541 10.258,27.84 10.139,28.541 9.957,28.541 10.109,27.623 10.391,27.623 10.4,28.191 10.588,27.623 
			10.893,27.623 10.742,28.541 		"/>
	</g>
	<g>
		<path fill-rule="evenodd" clip-rule="evenodd" fill="#FFFFFF" d="M11.227,28.209c-0.021-0.004-0.031-0.004-0.045-0.004
			c-0.111,0-0.168,0.039-0.168,0.113c0,0.047,0.027,0.078,0.07,0.078C11.166,28.396,11.223,28.318,11.227,28.209L11.227,28.209z
			 M11.369,28.541h-0.164l0.004-0.076c-0.049,0.059-0.115,0.088-0.205,0.088c-0.107,0-0.178-0.082-0.178-0.203
			c0-0.18,0.125-0.287,0.344-0.287c0.021,0,0.049,0,0.078,0.004c0.006-0.02,0.006-0.031,0.006-0.045
			c0-0.051-0.031-0.068-0.123-0.068c-0.057,0-0.121,0.008-0.164,0.021l-0.027,0.008l-0.02,0.002l0.031-0.166
			c0.098-0.027,0.162-0.039,0.232-0.039c0.17,0,0.26,0.074,0.26,0.217c0,0.039-0.004,0.066-0.018,0.148l-0.041,0.266l-0.006,0.045
			l-0.004,0.039l-0.004,0.027L11.369,28.541L11.369,28.541z"/>
	</g>
	<g>
		<path fill-rule="evenodd" clip-rule="evenodd" fill="#FFFFFF" d="M14.316,28.209c-0.021-0.004-0.031-0.004-0.047-0.004
			c-0.109,0-0.164,0.039-0.164,0.113c0,0.047,0.027,0.078,0.068,0.078C14.252,28.396,14.314,28.318,14.316,28.209L14.316,28.209z
			 M14.457,28.541h-0.162l0.004-0.076c-0.051,0.059-0.117,0.088-0.205,0.088c-0.107,0-0.182-0.082-0.182-0.203
			c0-0.18,0.127-0.287,0.348-0.287c0.021,0,0.049,0,0.078,0.004c0.008-0.02,0.008-0.031,0.008-0.045
			c0-0.051-0.031-0.068-0.125-0.068c-0.057,0-0.119,0.008-0.162,0.021l-0.029,0.008l-0.018,0.002l0.027-0.166
			c0.1-0.027,0.164-0.039,0.234-0.039c0.17,0,0.26,0.074,0.26,0.217c0,0.039-0.004,0.066-0.018,0.148l-0.039,0.266l-0.008,0.045
			l-0.006,0.039l-0.006,0.027V28.541L14.457,28.541z"/>
	</g>
	<g>
		<path fill-rule="evenodd" clip-rule="evenodd" fill="#FFFFFF" d="M14.982,27.791c-0.002-0.004-0.01-0.004-0.018-0.004
			c-0.062,0-0.102,0.031-0.162,0.119l0.018-0.113h-0.178l-0.121,0.748h0.199c0.068-0.457,0.088-0.535,0.182-0.535
			c0.006,0,0.006,0,0.014,0c0.018-0.088,0.043-0.154,0.074-0.215H14.982L14.982,27.791z"/>
	</g>
	<polygon fill-rule="evenodd" clip-rule="evenodd" fill="#A5A7AA" points="16.695,25.982 23.328,25.982 23.328,30.16 16.695,30.16 
		16.695,25.982 	"/>
	<polygon fill-rule="evenodd" clip-rule="evenodd" fill="#004779" points="17.037,28.506 17.736,27.4 22.988,27.4 22.258,28.506 
		17.037,28.506 	"/>
	<polygon fill-rule="evenodd" clip-rule="evenodd" fill="#004779" points="18.596,25.982 17.781,27.309 23.047,27.309 
		23.328,26.852 23.328,26.803 23.033,27.275 17.846,27.275 18.635,25.982 18.596,25.982 	"/>
	<g>
		<polygon fill="#FFFFFF" points="18.004,28.092 18.004,27.516 17.818,27.516 17.246,28.416 17.432,28.416 17.818,27.779 
			17.818,28.416 18.004,28.416 18.379,27.781 18.379,28.416 18.562,28.416 18.562,27.516 18.379,27.516 		"/>
		<path fill="#FFFFFF" d="M18.996,27.516l-0.381,0.9h0.207l0.092-0.229h0.311l0.094,0.229h0.193l-0.381-0.9H18.996z M18.977,28.021
			l0.088-0.244l0.092,0.244H18.977z"/>
		<path fill="#FFFFFF" d="M19.85,28.123c0.115,0,0.23,0,0.348,0c-0.117,0.244-0.553,0.152-0.551-0.15
			c0.002-0.305,0.396-0.398,0.533-0.168c0.068,0,0.139,0,0.211,0c-0.049-0.16-0.189-0.295-0.445-0.293
			c-0.281-0.002-0.473,0.195-0.473,0.441c0,0.287,0.234,0.484,0.484,0.479c0.217,0.006,0.473-0.176,0.469-0.479
			c-0.197,0-0.396,0-0.594,0C19.838,28.008,19.842,28.064,19.85,28.123z"/>
		<polygon fill="#FFFFFF" points="21.045,28.152 20.668,27.516 20.488,27.516 20.488,28.416 20.668,28.416 20.668,27.805 
			21.045,28.416 21.225,28.416 21.225,27.516 21.045,27.516 		"/>
		<path fill="#FFFFFF" d="M21.686,27.516l-0.398,0.9h0.189l0.105-0.229h0.301l0.098,0.229h0.193l-0.361-0.9H21.686z M21.646,28.021
			c0,0,0.096-0.217,0.096-0.24l0.088,0.24H21.646z"/>
		<path fill="#FFFFFF" d="M22.512,27.516c-0.07,0-0.125,0.057-0.125,0.125s0.055,0.125,0.125,0.125c0.066,0,0.123-0.057,0.123-0.125
			S22.578,27.516,22.512,27.516z M22.512,27.74c-0.057,0-0.102-0.043-0.102-0.1s0.045-0.102,0.102-0.102
			c0.053,0,0.1,0.045,0.1,0.102S22.564,27.74,22.512,27.74z"/>
		<path fill="#FFFFFF" d="M22.535,27.652c-0.002-0.002-0.004-0.004-0.008-0.006c0.01-0.002,0.02-0.006,0.023-0.012
			c0.008-0.006,0.01-0.016,0.01-0.021c0-0.008-0.002-0.014-0.006-0.018c-0.004-0.008-0.008-0.012-0.014-0.012
			c-0.004-0.004-0.014-0.004-0.023-0.004h-0.055v0.121h0.018v-0.055h0.018c0,0,0.008,0,0.01,0.002c0,0,0.004,0,0.008,0.004
			c0,0,0.004,0.004,0.008,0.008c0.002,0.002,0.006,0.008,0.01,0.016l0.018,0.025h0.02l-0.02-0.033
			C22.545,27.662,22.541,27.656,22.535,27.652z M22.514,27.633H22.48v-0.041h0.037c0.01,0,0.016,0.004,0.02,0.008
			s0.006,0.008,0.006,0.014c0,0.004,0,0.006-0.002,0.012c-0.002,0.002-0.006,0.004-0.01,0.006S22.521,27.633,22.514,27.633z"/>
	</g>
</g>
</svg>
