<svg xmlns="http://www.w3.org/2000/svg" xmlns:xlink="http://www.w3.org/1999/xlink" width="95.696" height="240" viewBox="0 0 95.696 240"><svg width="88.771" height="40" viewBox="0 0 88.771 40"><path fill="#004A97" d="M17.01 31.5c6.287.031 12.023-5.125 12.023-11.398 0-6.861-5.736-11.607-12.023-11.602H11.6C5.236 8.494 0 13.24 0 20.102c0 6.275 5.236 11.43 11.6 11.398h5.41z"/><path fill="#FFF" d="M14.014 26.209v-12.46a6.686 6.686 0 0 1 4.283 6.231 6.684 6.684 0 0 1-4.283 6.229M4.953 19.98a6.692 6.692 0 0 1 4.283-6.231v12.454a6.675 6.675 0 0 1-4.283-6.223m6.672-10.531C5.809 9.451 1.1 14.164 1.1 19.98c0 5.812 4.709 10.521 10.525 10.525 5.812-.004 10.525-4.713 10.527-10.525-.002-5.816-4.714-10.529-10.527-10.531"/><path fill="#1D1E1C" d="M33.904 19.12c0 .933.668 1.042 1.258 1.042 2.619 0 3.475-1.973 3.475-3.774 0-2.263-1.453-3.895-3.787-3.895-.496 0-.723.034-.945.048v6.579zm-1.183-5.673c0-1.086-.566-1.017-1.107-1.027v-.313c.467.024.955.024 1.426.024.506 0 1.195-.024 2.092-.024 3.131 0 4.836 2.091 4.836 4.235 0 1.195-.699 4.205-4.982 4.205-.615 0-1.182-.021-1.754-.021-.545 0-1.076.011-1.617.021v-.312c.721-.073 1.072-.097 1.107-.922v-5.866zm8.967-.293a.619.619 0 0 1-.594-.602c0-.301.289-.584.594-.584.314 0 .592.258.592.584s-.268.602-.592.602m-1.293 7.081h.227c.336 0 .58 0 .58-.401v-3.278c0-.53-.18-.606-.631-.845v-.197c.57-.17 1.252-.398 1.301-.43.08-.054.152-.064.213-.064s.086.074.086.172v4.643c0 .401.268.401.604.401h.209v.312c-.414 0-.838-.021-1.271-.021-.436 0-.871.011-1.316.021v-.313zm3.732-3.606c0-.445-.131-.566-.701-.799v-.229a15.163 15.163 0 0 0 1.596-.582c.039 0 .078.026.078.121v.787c.685-.493 1.284-.908 2.093-.908 1.027 0 1.387.75 1.387 1.693v3.121c0 .401.268.401.609.401h.215v.312c-.424 0-.846-.021-1.283-.021-.434 0-.873.011-1.303.021v-.312h.219c.338 0 .578 0 .578-.401v-3.131c0-.691-.422-1.029-1.115-1.029-.385 0-1.003.314-1.399.58v3.58c0 .401.262.401.604.401h.216v.312c-.423 0-.845-.021-1.284-.021-.432 0-.869.011-1.305.021v-.312h.223c.336 0 .574 0 .574-.401v-3.204zm8.337.194c.303 0 .34-.155.34-.302 0-.617-.377-1.114-1.051-1.114-.74 0-1.248.542-1.393 1.416h2.104zm-2.139.384c-.031.113-.031.294 0 .706.068 1.147.811 2.091 1.777 2.091.664 0 1.184-.359 1.629-.809l.17.168c-.555.74-1.246 1.367-2.236 1.367-1.924 0-2.311-1.862-2.311-2.637 0-2.373 1.596-3.074 2.443-3.074.98 0 2.035.616 2.045 1.897 0 .077 0 .147-.01.223l-.111.067h-3.396zm3.793 3.028h.33c.338 0 .58 0 .58-.401v-3.398c0-.373-.447-.447-.629-.543v-.182c.881-.377 1.367-.691 1.479-.691.066 0 .105.037.105.158v1.086h.025c.303-.468.812-1.244 1.549-1.244.303 0 .688.205.688.64 0 .329-.227.618-.564.618-.377 0-.377-.289-.799-.289-.207 0-.885.275-.885 1.006v2.84c0 .401.24.401.578.401h.68v.312c-.67-.011-1.176-.021-1.693-.021-.496 0-1.004.011-1.443.021v-.313zm4.662-1.367c.154.796.641 1.474 1.521 1.474.713 0 .977-.432.977-.855 0-1.43-2.631-.971-2.631-2.918 0-.676.539-1.549 1.873-1.549.387 0 .906.111 1.377.354l.088 1.23h-.283c-.115-.76-.539-1.196-1.311-1.196-.486 0-.947.28-.947.8 0 1.416 2.807.979 2.807 2.877 0 .798-.645 1.646-2.082 1.646-.486 0-1.055-.17-1.475-.412l-.135-1.391.221-.06zm14.393-4.573h-.305c-.229-1.416-1.232-1.983-2.588-1.983-1.391 0-3.412.931-3.412 3.833 0 2.445 1.744 4.197 3.605 4.197 1.197 0 2.188-.821 2.434-2.09l.273.07-.273 1.764c-.512.317-1.879.645-2.674.645-2.832 0-4.623-1.826-4.623-4.547 0-2.48 2.217-4.262 4.586-4.262.979 0 1.926.316 2.852.642l.125 1.731zm.433 5.94h.23c.338 0 .58 0 .58-.401v-6.735c0-.787-.182-.81-.639-.942v-.193c.482-.158.988-.377 1.242-.523.133-.068.23-.131.268-.131.072 0 .096.072.096.169v8.356c0 .401.266.401.607.401h.203v.312c-.41 0-.834-.021-1.27-.021s-.871.011-1.318.021v-.313zm7.768-.353c0 .222.133.231.338.231.145 0 .33-.01.486-.01v.25c-.521.05-1.516.303-1.744.377l-.061-.037v-.979c-.727.592-1.285 1.016-2.141 1.016-.654 0-1.332-.424-1.332-1.437v-3.1c0-.312-.047-.618-.727-.681v-.227c.438-.012 1.404-.086 1.564-.086.135 0 .135.086.135.352v3.121c0 .363 0 1.402 1.049 1.402.41 0 .955-.314 1.465-.736v-3.256c0-.24-.582-.373-1.016-.494v-.217c1.086-.075 1.762-.172 1.887-.172.096 0 .096.086.096.221v4.462zm2.404-.7c0 .463.438 1.234 1.25 1.234 1.293 0 1.836-1.271 1.836-2.346 0-1.307-.99-2.396-1.936-2.396-.449 0-.824.29-1.15.568v2.94zm0-3.289c.488-.414 1.143-.873 1.807-.873 1.404 0 2.248 1.223 2.248 2.541 0 1.584-1.162 3.17-2.889 3.17-.896 0-1.369-.29-1.684-.424l-.363.279-.254-.133c.107-.715.168-1.416.168-2.154v-5.2c0-.787-.18-.81-.641-.942v-.193c.484-.158.994-.377 1.248-.523.135-.068.225-.131.266-.131.072 0 .094.072.094.169v4.414zM31.596 27.582h.098c.234 0 .48-.033.48-.373v-3.451c0-.342-.246-.375-.48-.375h-.098v-.199c.256 0 .65.027.975.027.328 0 .723-.027 1.035-.027v.199h-.092c-.238 0-.488.033-.488.375v3.451c0 .34.25.373.488.373h.092v.197c-.316 0-.713-.021-1.037-.021-.326 0-.717.021-.973.021v-.197z"/><path fill="#1D1E1C" d="M33.58 27.75v-.143h-.066c-.238 0-.516-.037-.518-.398v-3.451c.002-.361.279-.406.518-.406h.066v-.137c-.311 0-.691.025-1.01.025-.312 0-.689-.025-.943-.025v.137h.066c.229 0 .508.045.508.406v3.451c0 .361-.279.398-.508.398h-.066v.143c.254 0 .627-.023.941-.023.317 0 .698.023 1.012.023m.025.057c-.32 0-.713-.022-1.037-.022-.326 0-.713.022-.973.022h-.027v-.257h.125c.234-.001.451-.019.453-.341v-3.451c-.002-.32-.219-.342-.453-.349h-.125v-.253h.027c.26 0 .658.025.975.025.326 0 .721-.025 1.035-.025h.029v.253h-.121c-.244.007-.461.028-.463.349v3.451c.002.322.219.34.463.341h.121v.257h-.029zm4.52-1.327l.016-.01V24c0-.539-.379-.617-.576-.617h-.143v-.199c.312 0 .611.027.922.027.27 0 .539-.027.809-.027v.199h-.1c-.273 0-.584.055-.584.838v2.992c0 .232.006.459.037.662h-.25l-3.389-3.773v2.711c0 .573.109.77.621.77h.112v.197c-.285 0-.57-.021-.85-.021-.295 0-.602.021-.896.021v-.197h.092c.455 0 .592-.311.592-.836v-2.77a.59.59 0 0 0-.596-.594h-.088v-.199c.25 0 .506.027.758.027.195 0 .389-.027.586-.027l2.927 3.296z"/><path fill="#1D1E1C" d="M38.107 26.471v-.005l-.002-.007.002.012zm.018.009l.023-.021-.023.021zm.131 1.37h.219a4.215 4.215 0 0 1-.033-.637v-2.992c0-.791.33-.869.611-.869h.07v-.137c-.26 0-.52.025-.779.025-.303 0-.598-.025-.893-.025v.137h.113c.203 0 .604.092.604.648l-.01 2.49-.014.013-.02.022-2.928-3.311c-.197 0-.389.025-.586.025-.242 0-.49-.025-.73-.025v.137h.061c.312 0 .627.24.627.625v2.77c0 .525-.15.861-.623.863l-.064-.002v.143c.289 0 .58-.023.869-.023.271 0 .545.023.818.023v-.141h-.08c-.518-.002-.648-.224-.648-.797v-2.787l3.416 3.825zm.25.058l-.27-.012-3.342-3.725v2.641c.012.573.096.736.594.737h.139v.257H35.6c-.287 0-.572-.022-.85-.022-.295 0-.598.022-.896.022h-.027v-.256h.119c.432 0 .561-.282.564-.804v-2.77a.564.564 0 0 0-.568-.567h-.115v-.253h.027c.25 0 .512.025.758.025.193 0 .387-.025.607-.015l2.889 3.257V24c-.002-.52-.348-.584-.543-.591h-.172v-.253h.029c.312 0 .613.025.922.025.268 0 .537-.025.809-.025h.031v.253h-.131c-.273.009-.549.03-.555.812v2.992c0 .229.004.459.035.661l.01.034h-.037zm1.635-4.39c-.494 0-.516.116-.613.596h-.198c.025-.185.055-.369.076-.559.031-.184.041-.371.041-.559h.158c.053.197.217.188.396.188h3.393c.18 0 .344-.003.359-.202l.154.028c-.021.174-.053.354-.068.531-.016.179-.016.358-.016.533l-.199.072c-.012-.243-.045-.629-.484-.629h-1.08v3.498c0 .509.236.566.547.566h.125v.197c-.256 0-.719-.021-1.072-.021-.396 0-.857.021-1.115.021v-.197h.127c.361 0 .547-.033.547-.551v-3.514h-1.078z"/><path fill="#1D1E1C" d="M42.732 27.807c-.256 0-.721-.022-1.072-.022-.396 0-.855.022-1.115.022h-.023v-.257h.15c.361-.003.51-.009.516-.519v-3.49h-1.047v-.056h1.105v3.547c0 .528-.213.576-.574.578h-.098v.141c.262 0 .705-.023 1.086-.023.346 0 .783.023 1.041.023v-.141h-.094c-.318-.002-.576-.076-.576-.594v-3.531h1.109c.439 0 .5.381.514.62l.143-.048c0-.174 0-.346.012-.519.018-.167.045-.339.068-.505l-.1-.018c-.031.193-.217.199-.383.199h-3.428c-.154 0-.322-.006-.383-.191h-.109a4.164 4.164 0 0 1-.037.537c-.018.177-.053.352-.078.525h.145c.086-.459.145-.605.637-.602v.056c-.488.012-.48.095-.586.582l-.006.02h-.253l.006-.037c.027-.182.059-.363.078-.555.027-.182.041-.369.041-.555v-.031h.207l.004.023c.045.164.166.166.336.168h3.428c.184-.002.318-.004.33-.177l.002-.034.029.008.184.028-.002.03c-.023.176-.049.357-.068.529-.016.179-.016.355-.016.533v.02l-.016.008-.239.089v-.042c-.02-.245-.045-.605-.459-.605H42.09v3.475c.006.498.207.533.518.534h.154v.257h-.03zm1.387-.225h.092c.24 0 .49-.033.49-.373v-3.451c0-.342-.25-.375-.49-.375h-.092v-.199c.402 0 1.088.027 1.638.027.559 0 1.238-.027 1.686-.027-.012.286-.004.72.014 1.008l-.193.055c-.037-.428-.113-.771-.807-.771h-.915v1.726h.782c.398 0 .484-.224.521-.583h.195a18.705 18.705 0 0 0 0 1.522l-.195.039c-.037-.395-.057-.65-.512-.65h-.792v1.536c0 .426.382.426.804.426.787 0 1.141-.056 1.336-.802l.186.039a14.55 14.55 0 0 0-.225 1.051c-.424 0-1.182-.021-1.771-.021-.593 0-1.374.021-1.751.021v-.198z"/><path fill="#1D1E1C" d="M47.616 27.75c.059-.335.135-.662.213-.998l-.129-.029c-.197.736-.576.802-1.355.798-.414 0-.831 0-.833-.455v-1.563h.821c.457-.008.504.27.537.644l.145-.028a9.797 9.797 0 0 1-.021-.725c0-.249.004-.494.021-.742h-.145c-.035.34-.145.584-.547.576h-.812v-1.781h.944c.686-.006.801.352.828.764l.143-.039a10.595 10.595 0 0 1-.012-.955c-.447 0-1.115.025-1.658.025-.542 0-1.206-.025-1.61-.025v.137h.064c.236 0 .516.045.518.406v3.451c-.002.361-.281.398-.518.4h-.064v.141c.385 0 1.145-.023 1.724-.023.582-.002 1.322.021 1.746.021m.026.057c-.424 0-1.182-.022-1.771-.022-.593 0-1.374.022-1.751.022h-.027v-.257h.119c.242-.001.455-.019.463-.341v-3.451c-.008-.32-.221-.342-.463-.349h-.119v-.253h.027c.402 0 1.088.025 1.638.025.559 0 1.238-.025 1.686-.025h.029v.031c-.008.098-.008.218-.008.342 0 .225.008.472.023.662v.021l-.023.012-.23.057-.002-.033c-.039-.428-.1-.736-.775-.745h-.888v1.669h.753c.381-.004.447-.199.494-.554l.002-.025h.254v.025c-.014.259-.023.515-.023.774 0 .249.01.498.023.748v.024l-.025.003-.229.045-.002-.029c-.047-.399-.049-.622-.484-.629h-.763v1.511c0 .396.345.394.774.396.793-.002 1.109-.046 1.309-.783l.006-.023.027.004.211.053-.006.029c-.086.348-.164.695-.223 1.045l-.004.021h-.022zm1.953-2.398h.32c.664 0 1.016-.249 1.016-1.026 0-.586-.375-.961-.959-.961-.195 0-.285.018-.377.029v1.958zm-.844-1.526c0-.478-.262-.5-.465-.5h-.121v-.199c.213 0 .621.031 1.023.031.391 0 .711-.031 1.061-.031.828 0 1.564.223 1.564 1.162 0 .587-.396.951-.914 1.158l1.123 1.683c.186.278.316.358.639.396v.197c-.217 0-.426-.021-.641-.021-.207 0-.422.021-.623.021-.504-.664-.941-1.375-1.369-2.132h-.434v1.407c0 .506.238.527.541.527h.113v.197c-.371 0-.754-.021-1.127-.021-.318 0-.625.021-.957.021v-.197h.121c.246 0 .465-.111.465-.354v-3.345z"/><path fill="#1D1E1C" d="M49.915 25.381c.656-.003.984-.23.986-.998-.002-.573-.359-.93-.93-.932-.18 0-.262.016-.352.024v1.905h.296zm-.32.057h-.027v-2.017l.021-.004c.096-.006.184-.021.383-.021.6 0 .988.391.988.986 0 .789-.377 1.055-1.045 1.056h-.32zm0 .179h.451l.01.016c.426.758.859 1.467 1.342 2.117.201 0 .416-.023.621-.023.207 0 .41.023.611.023v-.145c-.307-.035-.451-.129-.629-.404l-1.146-1.713.033-.011c.514-.203.898-.556.898-1.134 0-.913-.709-1.129-1.537-1.129-.348 0-.664.025-1.061.025-.389 0-.779-.025-.992-.025v.137h.09c.203 0 .496.039.496.531v3.345c0 .264-.248.382-.496.382h-.09v.141c.314 0 .615-.023.926-.023.367 0 .736.023 1.104.023v-.141h-.09c-.299 0-.568-.037-.568-.555v-1.438h.027zm3.066 2.19c-.219 0-.43-.022-.643-.022-.205 0-.412.022-.646.013-.5-.663-.936-1.37-1.361-2.122h-.391v1.38c.01.495.207.494.516.495h.145v.257h-.031c-.371 0-.756-.022-1.127-.022-.314 0-.625.022-.957.022h-.027v-.258h.148c.236 0 .436-.103.436-.322v-3.345c-.004-.467-.232-.465-.436-.474h-.148v-.253h.027c.217 0 .623.025 1.023.025.389 0 .709-.025 1.061-.025.83.002 1.594.234 1.594 1.188 0 .594-.393.964-.9 1.172l1.104 1.651c.184.278.301.347.621.383l.025.008v.249h-.033zm4.471-1.327l.012-.01V24c0-.539-.375-.617-.572-.617h-.145v-.199c.312 0 .605.027.92.027.271 0 .537-.027.809-.027v.199h-.098c-.271 0-.586.055-.586.838v2.992c0 .232.01.459.041.662h-.248l-3.393-3.773v2.711c0 .573.109.77.621.77h.111v.197c-.281 0-.564-.021-.852-.021-.293 0-.596.021-.896.021v-.197h.094c.455 0 .592-.311.592-.836v-2.77a.592.592 0 0 0-.598-.594h-.088v-.199c.252 0 .514.027.76.027.195 0 .385-.027.586-.027l2.93 3.296z"/><path fill="#1D1E1C" d="M57.112 26.471v-.012.012zm.02.009l.018-.021-.018.021zm.133 1.37h.215a4.475 4.475 0 0 1-.037-.637v-2.992c0-.791.332-.867.615-.869h.072v-.137c-.26 0-.521.025-.783.025-.301 0-.594-.025-.893-.025v.137h.117c.205.002.598.092.598.648l-.004 2.49-.016.013-.021.022-2.926-3.311c-.193 0-.387.025-.586.025-.244 0-.492-.025-.73-.025v.137h.059a.621.621 0 0 1 .627.625v2.77c0 .525-.148.861-.625.863l-.061-.002v.143c.285 0 .576-.023.867-.023.279 0 .553.023.822.023v-.141h-.082c-.518-.002-.648-.224-.65-.797v-2.787l3.422 3.825zm.248.056l-.268-.01-3.346-3.725v2.641c.01.573.098.736.594.737h.137v.257h-.025c-.289 0-.568-.022-.852-.022-.293 0-.596.022-.896.022h-.025v-.256h.115c.439 0 .561-.282.568-.804v-2.77a.564.564 0 0 0-.57-.567h-.113v-.253h.025c.254 0 .514.025.76.025.193 0 .385-.025.605-.016l2.891 3.258V24c0-.52-.348-.588-.541-.591h-.176v-.253h.031c.312 0 .613.025.92.025.268 0 .537-.025.809-.025h.029v.253h-.127c-.271.009-.547.03-.555.812v2.992c0 .229.008.459.037.662l.008.031h-.035zm2.664-3.984h-.012l-.617 1.863h1.234l-.605-1.863zm-.965 2.918c-.061.226-.145.395-.145.512 0 .197.279.23.5.23h.068v.197c-.26-.01-.531-.021-.793-.021-.238 0-.475.011-.711.021v-.197h.037c.256 0 .473-.148.572-.43l1.053-3.02c.088-.244.203-.57.246-.816.205-.068.475-.202.6-.281.02-.008.029-.016.051-.016s.031 0 .047.021c.021.051.037.111.059.164l1.213 3.445c.076.227.156.472.242.669.08.187.215.263.434.263h.041v.197c-.303-.01-.596-.021-.91-.021-.322 0-.652.011-.988.021v-.197h.07c.154 0 .414-.024.414-.191 0-.089-.064-.262-.133-.471l-.262-.766h-1.49l-.215.687z"/><path fill="#1D1E1C" d="M60.147 23.934l.018-.007-.018.007zm-.556 1.822h1.146l-.568-1.761-.578 1.761zm-.08.059l.633-1.923h.033v.029l-.008.002.008-.002v-.029h.021l.623 1.923h-1.31zm1.345 1.935c.324-.011.645-.023.959-.023.307 0 .594.013.877.023v-.141h-.008c-.227 0-.381-.085-.463-.275-.084-.205-.16-.447-.24-.678l-1.211-3.441a2.604 2.604 0 0 1-.057-.158c-.008-.01-.008-.01-.012-.01h-.011c-.01 0-.021.008-.041.012a2.216 2.216 0 0 1-.586.262c-.037.247-.158.579-.242.822l-1.051 3.023a.63.63 0 0 1-.602.443h-.012v.141c.223-.011.455-.023.686-.023.252 0 .516.013.762.023v-.141h-.037c-.221-.002-.516-.022-.523-.258 0-.13.078-.297.143-.521l.025.009-.025-.01.219-.703h1.535l.262.781c.074.212.135.386.135.483-.006.202-.287.216-.439.218h-.041v.142zm1.87.057a22.524 22.524 0 0 0-.91-.022c-.322 0-.652.011-.988.022h-.029v-.257h.099c.154 0 .381-.034.381-.158 0-.079-.057-.258-.129-.468l-.256-.744h-1.445l-.203.668c-.068.225-.148.398-.148.504.002.162.248.198.471.198h.098v.257h-.029a17.987 17.987 0 0 0-.793-.022c-.238 0-.475.011-.711.022h-.031v-.257h.068c.246 0 .449-.136.547-.403l1.053-3.022c.084-.243.205-.571.26-.833.205-.076.471-.205.596-.284.021-.006.039-.017.066-.017.016 0 .047.006.068.041.023.053.045.113.062.162l1.213 3.445c.074.231.154.473.242.668.078.175.199.243.408.243h.068v.257h-.028zm.291-4.289c-.492 0-.514.116-.615.596H62.2c.029-.185.062-.369.086-.559a4.51 4.51 0 0 0 .037-.559h.156c.053.197.215.188.393.188h3.4c.174 0 .342-.003.354-.202l.154.028c-.023.174-.047.354-.068.531-.014.179-.014.358-.014.533l-.197.072c-.014-.243-.045-.629-.486-.629h-1.078v3.498c0 .509.227.566.543.566h.125v.197c-.252 0-.713-.021-1.072-.021-.393 0-.854.021-1.109.021v-.197h.121c.363 0 .547-.033.547-.551v-3.514h-1.075z"/><path fill="#1D1E1C" d="M65.604 27.807c-.258 0-.717-.022-1.072-.022-.391 0-.852.022-1.109.022h-.033v-.257h.154c.363-.003.508-.009.518-.519v-3.49h-1.045v-.056h1.104v3.547c0 .528-.215.576-.576.576h-.096v.143c.266 0 .703-.023 1.084-.023.348 0 .787.023 1.047.023v-.143h-.1c-.318 0-.572-.074-.572-.592v-3.531h1.107c.443 0 .496.381.512.62l.141-.048c0-.174.002-.346.02-.517.016-.169.039-.341.064-.505l-.1-.02c-.031.193-.215.199-.379.199h-3.431c-.154 0-.318-.006-.383-.195h-.105c-.004.186-.02.363-.043.541-.021.179-.047.352-.076.525h.143c.09-.459.148-.607.641-.602v.056c-.492.01-.482.095-.594.582l-.002.02h-.252l.004-.033c.027-.186.061-.367.082-.559.023-.182.033-.369.033-.555v-.031h.215l.008.023c.045.164.158.166.33.168h3.431c.182-.002.316-.004.326-.177v-.034l.035.008.184.028-.004.03c-.031.176-.055.357-.076.529-.012.179-.012.358-.012.533v.02l-.018.008-.232.087-.002-.042c-.016-.245-.041-.605-.459-.605H64.96v3.475c.01.498.203.533.52.534h.152v.257h-.028zm1.422-.225h.09c.242 0 .492-.033.492-.373v-3.451c0-.342-.25-.375-.492-.375h-.09v-.199c.26 0 .65.027.977.027s.723-.027 1.033-.027v.199h-.092c-.236 0-.488.033-.488.375v3.451c0 .34.252.373.488.373h.092v.197c-.316 0-.711-.021-1.045-.021-.318 0-.705.021-.965.021v-.197z"/><path fill="#1D1E1C" d="M69.005 27.75v-.143h-.061c-.236 0-.516-.037-.516-.398v-3.451c0-.361.279-.406.516-.406h.061v-.137c-.305 0-.684.025-1.002.025-.314 0-.691-.025-.951-.025v.137h.064c.236 0 .518.045.518.406v3.451c0 .361-.281.398-.518.398h-.064v.143c.26 0 .629-.023.939-.023.324 0 .707.023 1.014.023m.031.057c-.324 0-.713-.022-1.045-.022-.318 0-.705.022-.965.022h-.027v-.257h.117c.242-.001.461-.019.461-.341v-3.451c0-.32-.219-.342-.461-.349h-.117v-.253h.027c.26 0 .65.025.977.025.324 0 .721-.025 1.033-.025h.027v.253h-.119c-.242.007-.459.028-.461.349v3.451c.002.322.219.34.461.341h.119v.257h-.027zm2.723-.216c1.279 0 1.5-1.132 1.5-2.087 0-.961-.518-2.129-1.613-2.129-1.148 0-1.494 1.029-1.494 1.91-.001 1.174.538 2.306 1.607 2.306m-.1-4.505c1.4 0 2.521.87 2.521 2.271 0 1.516-1.088 2.518-2.486 2.518-1.396 0-2.467-.943-2.467-2.359a2.396 2.396 0 0 1 2.432-2.43"/><path fill="#1D1E1C" d="M70.124 25.285c0-.885.348-1.936 1.521-1.936 1.119 0 1.643 1.188 1.645 2.154-.002.955-.23 2.112-1.531 2.112v-.055c1.252-.001 1.469-1.102 1.469-2.057s-.512-2.098-1.582-2.098c-1.129 0-1.463 1.002-1.465 1.879 0 1.174.533 2.274 1.578 2.275v.055c-1.094.001-1.635-1.143-1.635-2.329m-.922.231a2.426 2.426 0 0 1 2.457-2.457v.055c-1.354 0-2.396 1.048-2.4 2.401.004 1.4 1.049 2.332 2.436 2.334 1.389-.002 2.457-.992 2.461-2.492-.004-1.384-1.107-2.241-2.496-2.243v-.055c1.412.002 2.547.882 2.551 2.299-.002 1.529-1.102 2.547-2.516 2.549-1.411-.003-2.491-.964-2.493-2.391m9.41.964l.018-.01V24c0-.539-.377-.617-.574-.617h-.143v-.199c.311 0 .611.027.922.027.271 0 .539-.027.809-.027v.199h-.098c-.279 0-.588.055-.588.838v2.992c0 .232.008.459.039.662h-.25l-3.391-3.773v2.711c0 .573.113.77.621.77h.113v.197c-.285 0-.57-.021-.852-.021-.293 0-.6.021-.895.021v-.197h.092c.453 0 .596-.311.596-.836v-2.77a.593.593 0 0 0-.602-.594h-.086v-.199c.248 0 .508.027.758.027.193 0 .387-.027.586-.027l2.925 3.296z"/><path fill="#1D1E1C" d="M78.601 26.471v-.005l-.008-.007.008.012zm.011.009l.021-.021-.021.021zm.135 1.37h.219a4.2 4.2 0 0 1-.037-.637v-2.992c0-.793.334-.867.613-.869h.074v-.137c-.262 0-.52.025-.781.025-.303 0-.594-.025-.896-.025v.137h.117c.205.002.602.094.602.648l-.006 2.49-.018.013-.021.022-2.924-3.311c-.197 0-.387.025-.586.025-.246 0-.49-.025-.734-.025v.137h.062a.623.623 0 0 1 .625.625v2.77c0 .525-.148.861-.619.863l-.068-.002v.143c.291 0 .582-.023.871-.023.273 0 .547.023.822.023v-.141h-.086c-.516-.002-.643-.224-.643-.797v-2.787l3.414 3.825zm.25.056l-.273-.01-3.34-3.725v2.641c.012.573.1.736.592.737h.143v.257h-.027c-.285 0-.57-.022-.852-.022-.293 0-.6.022-.895.022h-.029v-.256h.121c.434 0 .561-.282.561-.804v-2.77a.561.561 0 0 0-.566-.567h-.115v-.253h.029c.248 0 .508.025.758.025.191 0 .383-.025.605-.015l2.893 3.257V24c-.002-.52-.352-.584-.545-.591h-.174v-.253h.031c.311 0 .611.025.922.025.271 0 .537-.025.809-.025h.027v.253h-.129c-.27.009-.549.034-.555.812v2.992c0 .229.006.459.035.662l.004.031h-.03zm2.668-3.984h-.018l-.611 1.863h1.232l-.603-1.863zM80.7 26.84c-.064.226-.143.395-.143.512 0 .197.275.23.49.23h.076v.197c-.266-.01-.535-.021-.797-.021-.238 0-.475.011-.711.021v-.197h.039c.256 0 .475-.148.574-.43l1.053-3.02c.086-.244.203-.57.244-.816a3.15 3.15 0 0 0 .596-.281c.018-.008.035-.016.053-.016.023 0 .033 0 .047.021.023.051.039.111.059.164l1.209 3.445c.08.227.16.472.246.669.08.187.219.263.436.263h.039v.197c-.297-.01-.594-.021-.908-.021-.322 0-.648.011-.984.021v-.197h.068c.15 0 .408-.024.408-.191 0-.089-.059-.262-.137-.471l-.25-.766h-1.496l-.211.687z"/><path fill="#1D1E1C" d="M81.638 23.934l.01-.007-.01.007zm-.559 1.822h1.148l-.57-1.761-.578 1.761zm-.086.056l.635-1.919h.038v.029l-.008.002.008-.002v-.029h.018l.623 1.919h-1.314zm1.348 1.938c.326-.011.65-.023.961-.023.305 0 .592.013.881.023v-.141h-.014c-.223 0-.381-.085-.459-.275-.09-.205-.168-.447-.244-.676l-1.215-3.443c-.018-.051-.035-.113-.051-.158-.006-.01-.006-.01-.014-.01h-.012c-.014 0-.02.01-.037.012a2.45 2.45 0 0 1-.586.262c-.039.247-.158.579-.244.822l-1.057 3.023c-.098.281-.328.443-.596.443h-.012v.141c.227-.011.453-.023.684-.023.254 0 .512.013.766.023v-.141h-.045c-.213-.002-.51-.022-.523-.258.002-.13.086-.297.148-.521l.028.01-.027-.01.219-.703h1.533l.264.781c.076.214.135.386.135.483-.012.202-.287.216-.438.218h-.045v.141zm1.865.057c-.293-.01-.59-.022-.904-.022-.322 0-.648.013-.984.022h-.031v-.257h.099c.152 0 .381-.034.381-.158 0-.079-.061-.255-.133-.468l-.248-.744h-1.455l-.205.668c-.068.225-.141.398-.141.504 0 .162.248.198.463.198h.102v.257h-.027c-.264-.01-.533-.022-.795-.022-.234 0-.475.013-.711.022h-.029v-.257h.068c.244 0 .447-.136.545-.403l1.055-3.022c.082-.243.203-.571.26-.833a4.29 4.29 0 0 0 .602-.284c.016-.006.031-.013.059-.013.02-.004.053.002.076.039.018.051.039.111.062.16l1.207 3.445c.078.231.154.473.24.668.08.175.197.243.408.243h.07v.257h-.034zm1.66-.673c0 .265.184.347.396.372.271.019.566.019.871-.015a.92.92 0 0 0 .629-.357c.104-.146.164-.326.207-.472h.188c-.07.375-.162.74-.244 1.117-.578 0-1.16-.021-1.734-.021-.582 0-1.16.021-1.738.021v-.197h.09c.234 0 .498-.033.498-.438v-3.387c0-.342-.264-.375-.498-.375h-.09v-.199c.348 0 .691.027 1.039.027.34 0 .664-.027.998-.027v.199h-.162c-.248 0-.449.008-.449.356v3.396z"/><path fill="#1D1E1C" d="M87.892 27.75c.074-.354.162-.707.23-1.061h-.133a1.48 1.48 0 0 1-.205.463.995.995 0 0 1-.65.368 5.19 5.19 0 0 1-.504.026c-.129 0-.252-.01-.371-.014-.213-.023-.42-.118-.418-.399v-3.395c0-.368.229-.388.475-.388h.133v-.137c-.322 0-.643.025-.967.025-.344 0-.676-.025-1.014-.025v.137h.062c.234 0 .527.045.527.406v3.387c0 .424-.293.463-.527.463h-.062v.143c.566 0 1.139-.023 1.711-.023.568.001 1.142.024 1.713.024m.021.057c-.58 0-1.16-.022-1.734-.022-.582 0-1.16.022-1.74.022h-.027v-.257h.119c.234-.001.463-.017.467-.405v-3.387c-.004-.32-.23-.342-.467-.349h-.119v-.253h.027c.35 0 .693.025 1.043.025.336 0 .66-.025.996-.025h.027v.253h-.189c-.26.009-.418-.003-.42.33v3.395c.002.247.16.313.367.343.119.005.238.01.367.01.16 0 .324-.005.494-.025a.896.896 0 0 0 .617-.341c.1-.144.156-.322.197-.466l.01-.025h.245l-.006.04c-.074.374-.164.745-.244 1.116l-.01.021h-.02zm.053-4.116h.084c.088 0 .129-.066.129-.174 0-.111-.066-.146-.135-.146h-.078v.32zm-.235.368v-.035c.088-.012.102-.006.102-.061v-.512c0-.074-.008-.1-.096-.096v-.031h.352c.125 0 .234.055.234.182 0 .102-.068.18-.166.207l.117.162a.727.727 0 0 0 .152.161v.022h-.135c-.066 0-.123-.137-.248-.319h-.078v.232c0 .046.018.04.102.052v.035h-.336zm.346.198a.56.56 0 0 0 .549-.565.563.563 0 0 0-.549-.566.564.564 0 0 0-.549.566c0 .3.239.565.549.565m0-1.256a.68.68 0 0 1 .693.69c0 .388-.299.693-.693.693s-.695-.306-.695-.693c0-.386.301-.69.695-.69"/><path fill="#004A97" d="M17.01 31.5c6.287.031 12.023-5.125 12.023-11.398 0-6.861-5.736-11.607-12.023-11.602H11.6C5.236 8.494 0 13.24 0 20.102c0 6.275 5.236 11.43 11.6 11.398h5.41z"/><path fill="#FFF" d="M14.014 26.209v-12.46a6.686 6.686 0 0 1 4.283 6.231 6.684 6.684 0 0 1-4.283 6.229M4.953 19.98a6.692 6.692 0 0 1 4.283-6.231v12.454a6.675 6.675 0 0 1-4.283-6.223m6.672-10.531C5.809 9.451 1.1 14.164 1.1 19.98c0 5.812 4.709 10.521 10.525 10.525 5.812-.004 10.525-4.713 10.527-10.525-.002-5.816-4.714-10.529-10.527-10.531"/><path fill="#1D1E1C" d="M33.904 19.12c0 .933.668 1.042 1.258 1.042 2.619 0 3.475-1.973 3.475-3.774 0-2.263-1.453-3.895-3.787-3.895-.496 0-.723.034-.945.048v6.579zm-1.183-5.673c0-1.086-.566-1.017-1.107-1.027v-.313c.467.024.955.024 1.426.024.506 0 1.195-.024 2.092-.024 3.131 0 4.836 2.091 4.836 4.235 0 1.195-.699 4.205-4.982 4.205-.615 0-1.182-.021-1.754-.021-.545 0-1.076.011-1.617.021v-.312c.721-.073 1.072-.097 1.107-.922v-5.866zm8.967-.293a.619.619 0 0 1-.594-.602c0-.301.289-.584.594-.584.314 0 .592.258.592.584s-.268.602-.592.602m-1.293 7.081h.227c.336 0 .58 0 .58-.401v-3.278c0-.53-.18-.606-.631-.845v-.197c.57-.17 1.252-.398 1.301-.43.08-.054.152-.064.213-.064s.086.074.086.172v4.643c0 .401.268.401.604.401h.209v.312c-.414 0-.838-.021-1.271-.021-.436 0-.871.011-1.316.021v-.313zm3.732-3.606c0-.445-.131-.566-.701-.799v-.229a15.163 15.163 0 0 0 1.596-.582c.039 0 .078.026.078.121v.787c.685-.493 1.284-.908 2.093-.908 1.027 0 1.387.75 1.387 1.693v3.121c0 .401.268.401.609.401h.215v.312c-.424 0-.846-.021-1.283-.021-.434 0-.873.011-1.303.021v-.312h.219c.338 0 .578 0 .578-.401v-3.131c0-.691-.422-1.029-1.115-1.029-.385 0-1.003.314-1.399.58v3.58c0 .401.262.401.604.401h.216v.312c-.423 0-.845-.021-1.284-.021-.432 0-.869.011-1.305.021v-.312h.223c.336 0 .574 0 .574-.401v-3.204zm8.337.194c.303 0 .34-.155.34-.302 0-.617-.377-1.114-1.051-1.114-.74 0-1.248.542-1.393 1.416h2.104zm-2.139.384c-.031.113-.031.294 0 .706.068 1.147.811 2.091 1.777 2.091.664 0 1.184-.359 1.629-.809l.17.168c-.555.74-1.246 1.367-2.236 1.367-1.924 0-2.311-1.862-2.311-2.637 0-2.373 1.596-3.074 2.443-3.074.98 0 2.035.616 2.045 1.897 0 .077 0 .147-.01.223l-.111.067h-3.396zm3.793 3.028h.33c.338 0 .58 0 .58-.401v-3.398c0-.373-.447-.447-.629-.543v-.182c.881-.377 1.367-.691 1.479-.691.066 0 .105.037.105.158v1.086h.025c.303-.468.812-1.244 1.549-1.244.303 0 .688.205.688.64 0 .329-.227.618-.564.618-.377 0-.377-.289-.799-.289-.207 0-.885.275-.885 1.006v2.84c0 .401.24.401.578.401h.68v.312c-.67-.011-1.176-.021-1.693-.021-.496 0-1.004.011-1.443.021v-.313zm4.662-1.367c.154.796.641 1.474 1.521 1.474.713 0 .977-.432.977-.855 0-1.43-2.631-.971-2.631-2.918 0-.676.539-1.549 1.873-1.549.387 0 .906.111 1.377.354l.088 1.23h-.283c-.115-.76-.539-1.196-1.311-1.196-.486 0-.947.28-.947.8 0 1.416 2.807.979 2.807 2.877 0 .798-.645 1.646-2.082 1.646-.486 0-1.055-.17-1.475-.412l-.135-1.391.221-.06zm14.393-4.573h-.305c-.229-1.416-1.232-1.983-2.588-1.983-1.391 0-3.412.931-3.412 3.833 0 2.445 1.744 4.197 3.605 4.197 1.197 0 2.188-.821 2.434-2.09l.273.07-.273 1.764c-.512.317-1.879.645-2.674.645-2.832 0-4.623-1.826-4.623-4.547 0-2.48 2.217-4.262 4.586-4.262.979 0 1.926.316 2.852.642l.125 1.731zm.433 5.94h.23c.338 0 .58 0 .58-.401v-6.735c0-.787-.182-.81-.639-.942v-.193c.482-.158.988-.377 1.242-.523.133-.068.23-.131.268-.131.072 0 .096.072.096.169v8.356c0 .401.266.401.607.401h.203v.312c-.41 0-.834-.021-1.27-.021s-.871.011-1.318.021v-.313zm7.768-.353c0 .222.133.231.338.231.145 0 .33-.01.486-.01v.25c-.521.05-1.516.303-1.744.377l-.061-.037v-.979c-.727.592-1.285 1.016-2.141 1.016-.654 0-1.332-.424-1.332-1.437v-3.1c0-.312-.047-.618-.727-.681v-.227c.438-.012 1.404-.086 1.564-.086.135 0 .135.086.135.352v3.121c0 .363 0 1.402 1.049 1.402.41 0 .955-.314 1.465-.736v-3.256c0-.24-.582-.373-1.016-.494v-.217c1.086-.075 1.762-.172 1.887-.172.096 0 .096.086.096.221v4.462zm2.404-.7c0 .463.438 1.234 1.25 1.234 1.293 0 1.836-1.271 1.836-2.346 0-1.307-.99-2.396-1.936-2.396-.449 0-.824.29-1.15.568v2.94zm0-3.289c.488-.414 1.143-.873 1.807-.873 1.404 0 2.248 1.223 2.248 2.541 0 1.584-1.162 3.17-2.889 3.17-.896 0-1.369-.29-1.684-.424l-.363.279-.254-.133c.107-.715.168-1.416.168-2.154v-5.2c0-.787-.18-.81-.641-.942v-.193c.484-.158.994-.377 1.248-.523.135-.068.225-.131.266-.131.072 0 .094.072.094.169v4.414zM31.596 27.582h.098c.234 0 .48-.033.48-.373v-3.451c0-.342-.246-.375-.48-.375h-.098v-.199c.256 0 .65.027.975.027.328 0 .723-.027 1.035-.027v.199h-.092c-.238 0-.488.033-.488.375v3.451c0 .34.25.373.488.373h.092v.197c-.316 0-.713-.021-1.037-.021-.326 0-.717.021-.973.021v-.197z"/><path fill="#1D1E1C" d="M33.58 27.75v-.143h-.066c-.238 0-.516-.037-.518-.398v-3.451c.002-.361.279-.406.518-.406h.066v-.137c-.311 0-.691.025-1.01.025-.312 0-.689-.025-.943-.025v.137h.066c.229 0 .508.045.508.406v3.451c0 .361-.279.398-.508.398h-.066v.143c.254 0 .627-.023.941-.023.317 0 .698.023 1.012.023m.025.057c-.32 0-.713-.022-1.037-.022-.326 0-.713.022-.973.022h-.027v-.257h.125c.234-.001.451-.019.453-.341v-3.451c-.002-.32-.219-.342-.453-.349h-.125v-.253h.027c.26 0 .658.025.975.025.326 0 .721-.025 1.035-.025h.029v.253h-.121c-.244.007-.461.028-.463.349v3.451c.002.322.219.34.463.341h.121v.257h-.029zm4.52-1.327l.016-.01V24c0-.539-.379-.617-.576-.617h-.143v-.199c.312 0 .611.027.922.027.27 0 .539-.027.809-.027v.199h-.1c-.273 0-.584.055-.584.838v2.992c0 .232.006.459.037.662h-.25l-3.389-3.773v2.711c0 .573.109.77.621.77h.112v.197c-.285 0-.57-.021-.85-.021-.295 0-.602.021-.896.021v-.197h.092c.455 0 .592-.311.592-.836v-2.77a.59.59 0 0 0-.596-.594h-.088v-.199c.25 0 .506.027.758.027.195 0 .389-.027.586-.027l2.927 3.296z"/><path fill="#1D1E1C" d="M38.107 26.471v-.005l-.002-.007.002.012zm.018.009l.023-.021-.023.021zm.131 1.37h.219a4.215 4.215 0 0 1-.033-.637v-2.992c0-.791.33-.869.611-.869h.07v-.137c-.26 0-.52.025-.779.025-.303 0-.598-.025-.893-.025v.137h.113c.203 0 .604.092.604.648l-.01 2.49-.014.013-.02.022-2.928-3.311c-.197 0-.389.025-.586.025-.242 0-.49-.025-.73-.025v.137h.061c.312 0 .627.24.627.625v2.77c0 .525-.15.861-.623.863l-.064-.002v.143c.289 0 .58-.023.869-.023.271 0 .545.023.818.023v-.141h-.08c-.518-.002-.648-.224-.648-.797v-2.787l3.416 3.825zm.25.058l-.27-.012-3.342-3.725v2.641c.012.573.096.736.594.737h.139v.257H35.6c-.287 0-.572-.022-.85-.022-.295 0-.598.022-.896.022h-.027v-.256h.119c.432 0 .561-.282.564-.804v-2.77a.564.564 0 0 0-.568-.567h-.115v-.253h.027c.25 0 .512.025.758.025.193 0 .387-.025.607-.015l2.889 3.257V24c-.002-.52-.348-.584-.543-.591h-.172v-.253h.029c.312 0 .613.025.922.025.268 0 .537-.025.809-.025h.031v.253h-.131c-.273.009-.549.03-.555.812v2.992c0 .229.004.459.035.661l.01.034h-.037zm1.635-4.39c-.494 0-.516.116-.613.596h-.198c.025-.185.055-.369.076-.559.031-.184.041-.371.041-.559h.158c.053.197.217.188.396.188h3.393c.18 0 .344-.003.359-.202l.154.028c-.021.174-.053.354-.068.531-.016.179-.016.358-.016.533l-.199.072c-.012-.243-.045-.629-.484-.629h-1.08v3.498c0 .509.236.566.547.566h.125v.197c-.256 0-.719-.021-1.072-.021-.396 0-.857.021-1.115.021v-.197h.127c.361 0 .547-.033.547-.551v-3.514h-1.078z"/><path fill="#1D1E1C" d="M42.732 27.807c-.256 0-.721-.022-1.072-.022-.396 0-.855.022-1.115.022h-.023v-.257h.15c.361-.003.51-.009.516-.519v-3.49h-1.047v-.056h1.105v3.547c0 .528-.213.576-.574.578h-.098v.141c.262 0 .705-.023 1.086-.023.346 0 .783.023 1.041.023v-.141h-.094c-.318-.002-.576-.076-.576-.594v-3.531h1.109c.439 0 .5.381.514.62l.143-.048c0-.174 0-.346.012-.519.018-.167.045-.339.068-.505l-.1-.018c-.031.193-.217.199-.383.199h-3.428c-.154 0-.322-.006-.383-.191h-.109a4.164 4.164 0 0 1-.037.537c-.018.177-.053.352-.078.525h.145c.086-.459.145-.605.637-.602v.056c-.488.012-.48.095-.586.582l-.006.02h-.253l.006-.037c.027-.182.059-.363.078-.555.027-.182.041-.369.041-.555v-.031h.207l.004.023c.045.164.166.166.336.168h3.428c.184-.002.318-.004.33-.177l.002-.034.029.008.184.028-.002.03c-.023.176-.049.357-.068.529-.016.179-.016.355-.016.533v.02l-.016.008-.239.089v-.042c-.02-.245-.045-.605-.459-.605H42.09v3.475c.006.498.207.533.518.534h.154v.257h-.03zm1.387-.225h.092c.24 0 .49-.033.49-.373v-3.451c0-.342-.25-.375-.49-.375h-.092v-.199c.402 0 1.088.027 1.638.027.559 0 1.238-.027 1.686-.027-.012.286-.004.72.014 1.008l-.193.055c-.037-.428-.113-.771-.807-.771h-.915v1.726h.782c.398 0 .484-.224.521-.583h.195a18.705 18.705 0 0 0 0 1.522l-.195.039c-.037-.395-.057-.65-.512-.65h-.792v1.536c0 .426.382.426.804.426.787 0 1.141-.056 1.336-.802l.186.039a14.55 14.55 0 0 0-.225 1.051c-.424 0-1.182-.021-1.771-.021-.593 0-1.374.021-1.751.021v-.198z"/><path fill="#1D1E1C" d="M47.616 27.75c.059-.335.135-.662.213-.998l-.129-.029c-.197.736-.576.802-1.355.798-.414 0-.831 0-.833-.455v-1.563h.821c.457-.008.504.27.537.644l.145-.028a9.797 9.797 0 0 1-.021-.725c0-.249.004-.494.021-.742h-.145c-.035.34-.145.584-.547.576h-.812v-1.781h.944c.686-.006.801.352.828.764l.143-.039a10.595 10.595 0 0 1-.012-.955c-.447 0-1.115.025-1.658.025-.542 0-1.206-.025-1.61-.025v.137h.064c.236 0 .516.045.518.406v3.451c-.002.361-.281.398-.518.4h-.064v.141c.385 0 1.145-.023 1.724-.023.582-.002 1.322.021 1.746.021m.026.057c-.424 0-1.182-.022-1.771-.022-.593 0-1.374.022-1.751.022h-.027v-.257h.119c.242-.001.455-.019.463-.341v-3.451c-.008-.32-.221-.342-.463-.349h-.119v-.253h.027c.402 0 1.088.025 1.638.025.559 0 1.238-.025 1.686-.025h.029v.031c-.008.098-.008.218-.008.342 0 .225.008.472.023.662v.021l-.023.012-.23.057-.002-.033c-.039-.428-.1-.736-.775-.745h-.888v1.669h.753c.381-.004.447-.199.494-.554l.002-.025h.254v.025c-.014.259-.023.515-.023.774 0 .249.01.498.023.748v.024l-.025.003-.229.045-.002-.029c-.047-.399-.049-.622-.484-.629h-.763v1.511c0 .396.345.394.774.396.793-.002 1.109-.046 1.309-.783l.006-.023.027.004.211.053-.006.029c-.086.348-.164.695-.223 1.045l-.004.021h-.022zm1.953-2.398h.32c.664 0 1.016-.249 1.016-1.026 0-.586-.375-.961-.959-.961-.195 0-.285.018-.377.029v1.958zm-.844-1.526c0-.478-.262-.5-.465-.5h-.121v-.199c.213 0 .621.031 1.023.031.391 0 .711-.031 1.061-.031.828 0 1.564.223 1.564 1.162 0 .587-.396.951-.914 1.158l1.123 1.683c.186.278.316.358.639.396v.197c-.217 0-.426-.021-.641-.021-.207 0-.422.021-.623.021-.504-.664-.941-1.375-1.369-2.132h-.434v1.407c0 .506.238.527.541.527h.113v.197c-.371 0-.754-.021-1.127-.021-.318 0-.625.021-.957.021v-.197h.121c.246 0 .465-.111.465-.354v-3.345z"/><path fill="#1D1E1C" d="M49.915 25.381c.656-.003.984-.23.986-.998-.002-.573-.359-.93-.93-.932-.18 0-.262.016-.352.024v1.905h.296zm-.32.057h-.027v-2.017l.021-.004c.096-.006.184-.021.383-.021.6 0 .988.391.988.986 0 .789-.377 1.055-1.045 1.056h-.32zm0 .179h.451l.01.016c.426.758.859 1.467 1.342 2.117.201 0 .416-.023.621-.023.207 0 .41.023.611.023v-.145c-.307-.035-.451-.129-.629-.404l-1.146-1.713.033-.011c.514-.203.898-.556.898-1.134 0-.913-.709-1.129-1.537-1.129-.348 0-.664.025-1.061.025-.389 0-.779-.025-.992-.025v.137h.09c.203 0 .496.039.496.531v3.345c0 .264-.248.382-.496.382h-.09v.141c.314 0 .615-.023.926-.023.367 0 .736.023 1.104.023v-.141h-.09c-.299 0-.568-.037-.568-.555v-1.438h.027zm3.066 2.19c-.219 0-.43-.022-.643-.022-.205 0-.412.022-.646.013-.5-.663-.936-1.37-1.361-2.122h-.391v1.38c.01.495.207.494.516.495h.145v.257h-.031c-.371 0-.756-.022-1.127-.022-.314 0-.625.022-.957.022h-.027v-.258h.148c.236 0 .436-.103.436-.322v-3.345c-.004-.467-.232-.465-.436-.474h-.148v-.253h.027c.217 0 .623.025 1.023.025.389 0 .709-.025 1.061-.025.83.002 1.594.234 1.594 1.188 0 .594-.393.964-.9 1.172l1.104 1.651c.184.278.301.347.621.383l.025.008v.249h-.033zm4.471-1.327l.012-.01V24c0-.539-.375-.617-.572-.617h-.145v-.199c.312 0 .605.027.92.027.271 0 .537-.027.809-.027v.199h-.098c-.271 0-.586.055-.586.838v2.992c0 .232.01.459.041.662h-.248l-3.393-3.773v2.711c0 .573.109.77.621.77h.111v.197c-.281 0-.564-.021-.852-.021-.293 0-.596.021-.896.021v-.197h.094c.455 0 .592-.311.592-.836v-2.77a.592.592 0 0 0-.598-.594h-.088v-.199c.252 0 .514.027.76.027.195 0 .385-.027.586-.027l2.93 3.296z"/><path fill="#1D1E1C" d="M57.112 26.471v-.012.012zm.02.009l.018-.021-.018.021zm.133 1.37h.215a4.475 4.475 0 0 1-.037-.637v-2.992c0-.791.332-.867.615-.869h.072v-.137c-.26 0-.521.025-.783.025-.301 0-.594-.025-.893-.025v.137h.117c.205.002.598.092.598.648l-.004 2.49-.016.013-.021.022-2.926-3.311c-.193 0-.387.025-.586.025-.244 0-.492-.025-.73-.025v.137h.059a.621.621 0 0 1 .627.625v2.77c0 .525-.148.861-.625.863l-.061-.002v.143c.285 0 .576-.023.867-.023.279 0 .553.023.822.023v-.141h-.082c-.518-.002-.648-.224-.65-.797v-2.787l3.422 3.825zm.248.056l-.268-.01-3.346-3.725v2.641c.01.573.098.736.594.737h.137v.257h-.025c-.289 0-.568-.022-.852-.022-.293 0-.596.022-.896.022h-.025v-.256h.115c.439 0 .561-.282.568-.804v-2.77a.564.564 0 0 0-.57-.567h-.113v-.253h.025c.254 0 .514.025.76.025.193 0 .385-.025.605-.016l2.891 3.258V24c0-.52-.348-.588-.541-.591h-.176v-.253h.031c.312 0 .613.025.92.025.268 0 .537-.025.809-.025h.029v.253h-.127c-.271.009-.547.03-.555.812v2.992c0 .229.008.459.037.662l.008.031h-.035zm2.664-3.984h-.012l-.617 1.863h1.234l-.605-1.863zm-.965 2.918c-.061.226-.145.395-.145.512 0 .197.279.23.5.23h.068v.197c-.26-.01-.531-.021-.793-.021-.238 0-.475.011-.711.021v-.197h.037c.256 0 .473-.148.572-.43l1.053-3.02c.088-.244.203-.57.246-.816.205-.068.475-.202.6-.281.02-.008.029-.016.051-.016s.031 0 .047.021c.021.051.037.111.059.164l1.213 3.445c.076.227.156.472.242.669.08.187.215.263.434.263h.041v.197c-.303-.01-.596-.021-.91-.021-.322 0-.652.011-.988.021v-.197h.07c.154 0 .414-.024.414-.191 0-.089-.064-.262-.133-.471l-.262-.766h-1.49l-.215.687z"/><path fill="#1D1E1C" d="M60.147 23.934l.018-.007-.018.007zm-.556 1.822h1.146l-.568-1.761-.578 1.761zm-.08.059l.633-1.923h.033v.029l-.008.002.008-.002v-.029h.021l.623 1.923h-1.31zm1.345 1.935c.324-.011.645-.023.959-.023.307 0 .594.013.877.023v-.141h-.008c-.227 0-.381-.085-.463-.275-.084-.205-.16-.447-.24-.678l-1.211-3.441a2.604 2.604 0 0 1-.057-.158c-.008-.01-.008-.01-.012-.01h-.011c-.01 0-.021.008-.041.012a2.216 2.216 0 0 1-.586.262c-.037.247-.158.579-.242.822l-1.051 3.023a.63.63 0 0 1-.602.443h-.012v.141c.223-.011.455-.023.686-.023.252 0 .516.013.762.023v-.141h-.037c-.221-.002-.516-.022-.523-.258 0-.13.078-.297.143-.521l.025.009-.025-.01.219-.703h1.535l.262.781c.074.212.135.386.135.483-.006.202-.287.216-.439.218h-.041v.142zm1.87.057a22.524 22.524 0 0 0-.91-.022c-.322 0-.652.011-.988.022h-.029v-.257h.099c.154 0 .381-.034.381-.158 0-.079-.057-.258-.129-.468l-.256-.744h-1.445l-.203.668c-.068.225-.148.398-.148.504.002.162.248.198.471.198h.098v.257h-.029a17.987 17.987 0 0 0-.793-.022c-.238 0-.475.011-.711.022h-.031v-.257h.068c.246 0 .449-.136.547-.403l1.053-3.022c.084-.243.205-.571.26-.833.205-.076.471-.205.596-.284.021-.006.039-.017.066-.017.016 0 .047.006.068.041.023.053.045.113.062.162l1.213 3.445c.074.231.154.473.242.668.078.175.199.243.408.243h.068v.257h-.028zm.291-4.289c-.492 0-.514.116-.615.596H62.2c.029-.185.062-.369.086-.559a4.51 4.51 0 0 0 .037-.559h.156c.053.197.215.188.393.188h3.4c.174 0 .342-.003.354-.202l.154.028c-.023.174-.047.354-.068.531-.014.179-.014.358-.014.533l-.197.072c-.014-.243-.045-.629-.486-.629h-1.078v3.498c0 .509.227.566.543.566h.125v.197c-.252 0-.713-.021-1.072-.021-.393 0-.854.021-1.109.021v-.197h.121c.363 0 .547-.033.547-.551v-3.514h-1.075z"/><path fill="#1D1E1C" d="M65.604 27.807c-.258 0-.717-.022-1.072-.022-.391 0-.852.022-1.109.022h-.033v-.257h.154c.363-.003.508-.009.518-.519v-3.49h-1.045v-.056h1.104v3.547c0 .528-.215.576-.576.576h-.096v.143c.266 0 .703-.023 1.084-.023.348 0 .787.023 1.047.023v-.143h-.1c-.318 0-.572-.074-.572-.592v-3.531h1.107c.443 0 .496.381.512.62l.141-.048c0-.174.002-.346.02-.517.016-.169.039-.341.064-.505l-.1-.02c-.031.193-.215.199-.379.199h-3.431c-.154 0-.318-.006-.383-.195h-.105c-.004.186-.02.363-.043.541-.021.179-.047.352-.076.525h.143c.09-.459.148-.607.641-.602v.056c-.492.01-.482.095-.594.582l-.002.02h-.252l.004-.033c.027-.186.061-.367.082-.559.023-.182.033-.369.033-.555v-.031h.215l.008.023c.045.164.158.166.33.168h3.431c.182-.002.316-.004.326-.177v-.034l.035.008.184.028-.004.03c-.031.176-.055.357-.076.529-.012.179-.012.358-.012.533v.02l-.018.008-.232.087-.002-.042c-.016-.245-.041-.605-.459-.605H64.96v3.475c.01.498.203.533.52.534h.152v.257h-.028zm1.422-.225h.09c.242 0 .492-.033.492-.373v-3.451c0-.342-.25-.375-.492-.375h-.09v-.199c.26 0 .65.027.977.027s.723-.027 1.033-.027v.199h-.092c-.236 0-.488.033-.488.375v3.451c0 .34.252.373.488.373h.092v.197c-.316 0-.711-.021-1.045-.021-.318 0-.705.021-.965.021v-.197z"/><path fill="#1D1E1C" d="M69.005 27.75v-.143h-.061c-.236 0-.516-.037-.516-.398v-3.451c0-.361.279-.406.516-.406h.061v-.137c-.305 0-.684.025-1.002.025-.314 0-.691-.025-.951-.025v.137h.064c.236 0 .518.045.518.406v3.451c0 .361-.281.398-.518.398h-.064v.143c.26 0 .629-.023.939-.023.324 0 .707.023 1.014.023m.031.057c-.324 0-.713-.022-1.045-.022-.318 0-.705.022-.965.022h-.027v-.257h.117c.242-.001.461-.019.461-.341v-3.451c0-.32-.219-.342-.461-.349h-.117v-.253h.027c.26 0 .65.025.977.025.324 0 .721-.025 1.033-.025h.027v.253h-.119c-.242.007-.459.028-.461.349v3.451c.002.322.219.34.461.341h.119v.257h-.027zm2.723-.216c1.279 0 1.5-1.132 1.5-2.087 0-.961-.518-2.129-1.613-2.129-1.148 0-1.494 1.029-1.494 1.91-.001 1.174.538 2.306 1.607 2.306m-.1-4.505c1.4 0 2.521.87 2.521 2.271 0 1.516-1.088 2.518-2.486 2.518-1.396 0-2.467-.943-2.467-2.359a2.396 2.396 0 0 1 2.432-2.43"/><path fill="#1D1E1C" d="M70.124 25.285c0-.885.348-1.936 1.521-1.936 1.119 0 1.643 1.188 1.645 2.154-.002.955-.23 2.112-1.531 2.112v-.055c1.252-.001 1.469-1.102 1.469-2.057s-.512-2.098-1.582-2.098c-1.129 0-1.463 1.002-1.465 1.879 0 1.174.533 2.274 1.578 2.275v.055c-1.094.001-1.635-1.143-1.635-2.329m-.922.231a2.426 2.426 0 0 1 2.457-2.457v.055c-1.354 0-2.396 1.048-2.4 2.401.004 1.4 1.049 2.332 2.436 2.334 1.389-.002 2.457-.992 2.461-2.492-.004-1.384-1.107-2.241-2.496-2.243v-.055c1.412.002 2.547.882 2.551 2.299-.002 1.529-1.102 2.547-2.516 2.549-1.411-.003-2.491-.964-2.493-2.391m9.41.964l.018-.01V24c0-.539-.377-.617-.574-.617h-.143v-.199c.311 0 .611.027.922.027.271 0 .539-.027.809-.027v.199h-.098c-.279 0-.588.055-.588.838v2.992c0 .232.008.459.039.662h-.25l-3.391-3.773v2.711c0 .573.113.77.621.77h.113v.197c-.285 0-.57-.021-.852-.021-.293 0-.6.021-.895.021v-.197h.092c.453 0 .596-.311.596-.836v-2.77a.593.593 0 0 0-.602-.594h-.086v-.199c.248 0 .508.027.758.027.193 0 .387-.027.586-.027l2.925 3.296z"/><path fill="#1D1E1C" d="M78.601 26.471v-.005l-.008-.007.008.012zm.011.009l.021-.021-.021.021zm.135 1.37h.219a4.2 4.2 0 0 1-.037-.637v-2.992c0-.793.334-.867.613-.869h.074v-.137c-.262 0-.52.025-.781.025-.303 0-.594-.025-.896-.025v.137h.117c.205.002.602.094.602.648l-.006 2.49-.018.013-.021.022-2.924-3.311c-.197 0-.387.025-.586.025-.246 0-.49-.025-.734-.025v.137h.062a.623.623 0 0 1 .625.625v2.77c0 .525-.148.861-.619.863l-.068-.002v.143c.291 0 .582-.023.871-.023.273 0 .547.023.822.023v-.141h-.086c-.516-.002-.643-.224-.643-.797v-2.787l3.414 3.825zm.25.056l-.273-.01-3.34-3.725v2.641c.012.573.1.736.592.737h.143v.257h-.027c-.285 0-.57-.022-.852-.022-.293 0-.6.022-.895.022h-.029v-.256h.121c.434 0 .561-.282.561-.804v-2.77a.561.561 0 0 0-.566-.567h-.115v-.253h.029c.248 0 .508.025.758.025.191 0 .383-.025.605-.015l2.893 3.257V24c-.002-.52-.352-.584-.545-.591h-.174v-.253h.031c.311 0 .611.025.922.025.271 0 .537-.025.809-.025h.027v.253h-.129c-.27.009-.549.034-.555.812v2.992c0 .229.006.459.035.662l.004.031h-.03zm2.668-3.984h-.018l-.611 1.863h1.232l-.603-1.863zM80.7 26.84c-.064.226-.143.395-.143.512 0 .197.275.23.49.23h.076v.197c-.266-.01-.535-.021-.797-.021-.238 0-.475.011-.711.021v-.197h.039c.256 0 .475-.148.574-.43l1.053-3.02c.086-.244.203-.57.244-.816a3.15 3.15 0 0 0 .596-.281c.018-.008.035-.016.053-.016.023 0 .033 0 .047.021.023.051.039.111.059.164l1.209 3.445c.08.227.16.472.246.669.08.187.219.263.436.263h.039v.197c-.297-.01-.594-.021-.908-.021-.322 0-.648.011-.984.021v-.197h.068c.15 0 .408-.024.408-.191 0-.089-.059-.262-.137-.471l-.25-.766h-1.496l-.211.687z"/><path fill="#1D1E1C" d="M81.638 23.934l.01-.007-.01.007zm-.559 1.822h1.148l-.57-1.761-.578 1.761zm-.086.056l.635-1.919h.038v.029l-.008.002.008-.002v-.029h.018l.623 1.919h-1.314zm1.348 1.938c.326-.011.65-.023.961-.023.305 0 .592.013.881.023v-.141h-.014c-.223 0-.381-.085-.459-.275-.09-.205-.168-.447-.244-.676l-1.215-3.443c-.018-.051-.035-.113-.051-.158-.006-.01-.006-.01-.014-.01h-.012c-.014 0-.02.01-.037.012a2.45 2.45 0 0 1-.586.262c-.039.247-.158.579-.244.822l-1.057 3.023c-.098.281-.328.443-.596.443h-.012v.141c.227-.011.453-.023.684-.023.254 0 .512.013.766.023v-.141h-.045c-.213-.002-.51-.022-.523-.258.002-.13.086-.297.148-.521l.028.01-.027-.01.219-.703h1.533l.264.781c.076.214.135.386.135.483-.012.202-.287.216-.438.218h-.045v.141zm1.865.057c-.293-.01-.59-.022-.904-.022-.322 0-.648.013-.984.022h-.031v-.257h.099c.152 0 .381-.034.381-.158 0-.079-.061-.255-.133-.468l-.248-.744h-1.455l-.205.668c-.068.225-.141.398-.141.504 0 .162.248.198.463.198h.102v.257h-.027c-.264-.01-.533-.022-.795-.022-.234 0-.475.013-.711.022h-.029v-.257h.068c.244 0 .447-.136.545-.403l1.055-3.022c.082-.243.203-.571.26-.833a4.29 4.29 0 0 0 .602-.284c.016-.006.031-.013.059-.013.02-.004.053.002.076.039.018.051.039.111.062.16l1.207 3.445c.078.231.154.473.24.668.08.175.197.243.408.243h.07v.257h-.034zm1.66-.673c0 .265.184.347.396.372.271.019.566.019.871-.015a.92.92 0 0 0 .629-.357c.104-.146.164-.326.207-.472h.188c-.07.375-.162.74-.244 1.117-.578 0-1.16-.021-1.734-.021-.582 0-1.16.021-1.738.021v-.197h.09c.234 0 .498-.033.498-.438v-3.387c0-.342-.264-.375-.498-.375h-.09v-.199c.348 0 .691.027 1.039.027.34 0 .664-.027.998-.027v.199h-.162c-.248 0-.449.008-.449.356v3.396z"/><path fill="#1D1E1C" d="M87.892 27.75c.074-.354.162-.707.23-1.061h-.133a1.48 1.48 0 0 1-.205.463.995.995 0 0 1-.65.368 5.19 5.19 0 0 1-.504.026c-.129 0-.252-.01-.371-.014-.213-.023-.42-.118-.418-.399v-3.395c0-.368.229-.388.475-.388h.133v-.137c-.322 0-.643.025-.967.025-.344 0-.676-.025-1.014-.025v.137h.062c.234 0 .527.045.527.406v3.387c0 .424-.293.463-.527.463h-.062v.143c.566 0 1.139-.023 1.711-.023.568.001 1.142.024 1.713.024m.021.057c-.58 0-1.16-.022-1.734-.022-.582 0-1.16.022-1.74.022h-.027v-.257h.119c.234-.001.463-.017.467-.405v-3.387c-.004-.32-.23-.342-.467-.349h-.119v-.253h.027c.35 0 .693.025 1.043.025.336 0 .66-.025.996-.025h.027v.253h-.189c-.26.009-.418-.003-.42.33v3.395c.002.247.16.313.367.343.119.005.238.01.367.01.16 0 .324-.005.494-.025a.896.896 0 0 0 .617-.341c.1-.144.156-.322.197-.466l.01-.025h.245l-.006.04c-.074.374-.164.745-.244 1.116l-.01.021h-.02zm.053-4.116h.084c.088 0 .129-.066.129-.174 0-.111-.066-.146-.135-.146h-.078v.32zm-.235.368v-.035c.088-.012.102-.006.102-.061v-.512c0-.074-.008-.1-.096-.096v-.031h.352c.125 0 .234.055.234.182 0 .102-.068.18-.166.207l.117.162a.727.727 0 0 0 .152.161v.022h-.135c-.066 0-.123-.137-.248-.319h-.078v.232c0 .046.018.04.102.052v.035h-.336zm.346.198a.56.56 0 0 0 .549-.565.563.563 0 0 0-.549-.566.564.564 0 0 0-.549.566c0 .3.239.565.549.565m0-1.256a.68.68 0 0 1 .693.69c0 .388-.299.693-.693.693s-.695-.306-.695-.693c0-.386.301-.69.695-.69"/></svg><svg width="38.945" height="40" viewBox="0 0 38.945 40" y="40"><path d="M0 8h38.945v24H0z"/><path d="M12.35 24.395a3.996 3.996 0 0 1-2.861 1.146 4.008 4.008 0 0 1-2.072-.619l-1.488 2.37a6.784 6.784 0 0 0 8.375-.89l-1.954-2.007zm-2.694-9.667a6.8 6.8 0 0 0-6.908 6.699 6.772 6.772 0 0 0 1.1 3.821l12.326-5.269a6.81 6.81 0 0 0-6.518-5.251m-4.088 7.226a3.819 3.819 0 0 1-.027-.482 4.012 4.012 0 0 1 4.072-3.945 3.987 3.987 0 0 1 2.996 1.422l-7.041 3.005zm14.473-10.292v13.14l2.279.944-1.076 2.594-2.256-.938a2.599 2.599 0 0 1-1.115-.933c-.246-.389-.432-.917-.432-1.631V11.662h2.6zm8.221 6.071a4.003 4.003 0 0 1 5.192 2.999l2.748-.561a6.813 6.813 0 0 0-8.828-5.096l.888 2.658zm-3.242 8.898l1.855-2.098a3.999 3.999 0 0 1-1.348-3.002c0-1.193.52-2.262 1.348-2.997l-1.857-2.098a6.779 6.779 0 0 0-2.295 5.094c0 2.032.888 3.853 2.297 5.101zm8.433-4.295a4.005 4.005 0 0 1-5.195 2.994l-.887 2.657a6.811 6.811 0 0 0 8.828-5.09l-2.746-.561z" fill="#FFF"/></svg><svg width="95.696" height="40" viewBox="0 0 95.696 40" y="80"><path fill="#FFD201" d="M35.055 31.925H1.514C.676 31.925 0 31.233 0 30.382V9.617c0-.852.676-1.542 1.514-1.542h33.541c.836 0 1.516.69 1.516 1.542v20.765c-.001.851-.68 1.543-1.516 1.543"/><path fill="#FFF" d="M12.918 31.925h.994v-4.969h-.994zM20.867 20h15.901v-.994H20.867zM0 20h5.961v-.994H0zm12.918-7.949h.994V8.075h-.994zm5.463 7.468c1.125-.632 1.895-1.822 1.895-3.2a3.692 3.692 0 0 0-3.688-3.688c-1.354 0-2.525.74-3.168 1.829a3.674 3.674 0 0 0-3.16-1.819 3.691 3.691 0 0 0-3.688 3.687c0 1.371.762 2.556 1.875 3.19-1.131.631-1.906 1.824-1.906 3.207a3.692 3.692 0 0 0 3.689 3.688c1.365 0 2.545-.754 3.184-1.859a3.675 3.675 0 0 0 3.184 1.859 3.691 3.691 0 0 0 3.688-3.686c-.001-1.383-.774-2.577-1.905-3.208zm-1.793-5.894a2.695 2.695 0 0 1 2.693 2.693 2.694 2.694 0 0 1-2.693 2.691h-2.641v-2.683c0-.091-.021-.176-.027-.266a2.688 2.688 0 0 1 2.668-2.435zm-9.022 2.702a2.696 2.696 0 0 1 2.693-2.692 2.685 2.685 0 0 1 2.666 2.427c-.005.086-.025.168-.025.256v2.701h-2.64a2.695 2.695 0 0 1-2.694-2.692zm2.664 9.091a2.697 2.697 0 0 1-2.695-2.693 2.696 2.696 0 0 1 2.695-2.691h2.68v2.693c0 .023.006.044.006.066a2.693 2.693 0 0 1-2.686 2.625zm6.368 0a2.694 2.694 0 0 1-2.688-2.625c0-.023.008-.045.008-.068v-2.691h2.68a2.695 2.695 0 0 1 2.693 2.693 2.694 2.694 0 0 1-2.693 2.691z"/><path d="M44.945 28.612l2.274-6.385h-.885l-1.844 5.535h-.017l-1.825-5.535h-.912l2.244 6.385zm6.02-.563c-.119 0-.188-.042-.209-.125a1.864 1.864 0 0 1-.031-.395v-2.378c0-.27-.051-.487-.152-.653a1.07 1.07 0 0 0-.404-.389 1.623 1.623 0 0 0-.559-.185 4.428 4.428 0 0 0-.621-.044c-.262 0-.508.026-.736.081-.23.052-.434.142-.613.265-.18.121-.32.281-.43.477a1.652 1.652 0 0 0-.18.725h.762c.018-.34.133-.57.348-.693s.484-.183.805-.183c.121 0 .24.008.363.027a.962.962 0 0 1 .33.106c.1.055.18.133.244.233a.768.768 0 0 1 .092.401c0 .145-.041.252-.123.326-.084.076-.199.132-.342.171s-.309.067-.496.089a7.428 7.428 0 0 0-.596.094 7.1 7.1 0 0 0-.576.133 1.621 1.621 0 0 0-.5.24 1.145 1.145 0 0 0-.354.404c-.09.168-.135.383-.135.645 0 .234.041.432.121.594.08.166.189.297.326.398.137.104.301.177.486.226.188.046.387.071.596.071.322 0 .621-.057.898-.166.277-.111.521-.29.73-.54 0 .25.057.429.172.54a.663.663 0 0 0 .471.166c.232 0 .414-.039.545-.116v-.59a.788.788 0 0 1-.232.045zm-1.002-1.047a.865.865 0 0 1-.078.345 1.062 1.062 0 0 1-.252.34c-.111.104-.26.19-.439.26a1.806 1.806 0 0 1-.643.103c-.119 0-.232-.014-.34-.036a.824.824 0 0 1-.283-.116.655.655 0 0 1-.195-.21.636.636 0 0 1-.074-.318c0-.19.043-.341.127-.45a.86.86 0 0 1 .336-.256c.139-.059.293-.104.467-.131.172-.025.342-.05.514-.069.168-.021.332-.049.486-.081a.953.953 0 0 0 .375-.156v.775zm1.807-4.775h.762v6.386h-.762zm4.548 5.597c-.207.149-.469.225-.791.225-.25 0-.467-.042-.654-.125a1.302 1.302 0 0 1-.455-.336 1.275 1.275 0 0 1-.258-.483 1.79 1.79 0 0 1-.072-.577h3.461c.012-.279-.014-.574-.076-.885s-.178-.596-.34-.857a2.015 2.015 0 0 0-.654-.648c-.27-.171-.611-.256-1.023-.256-.316 0-.607.06-.871.178a2.09 2.09 0 0 0-.689.501 2.31 2.31 0 0 0-.451.761 2.799 2.799 0 0 0-.162.967c.012.352.064.676.158.975.09.299.23.555.414.768.186.217.414.383.684.502.271.119.592.18.963.18.523 0 .959-.132 1.307-.395.346-.262.568-.653.67-1.172h-.752c-.067.302-.204.53-.409.677zm-2.115-2.472a1.32 1.32 0 0 1 .27-.416c.111-.117.248-.213.406-.281a1.31 1.31 0 0 1 .531-.103c.191 0 .365.033.523.103.158.068.295.162.412.278.115.116.209.254.277.415.068.16.107.33.119.511h-2.654c.013-.181.052-.349.116-.507zm3.828.418h2.586v.714h-2.586zm7.813-3.048c-.332-.33-.82-.495-1.463-.495H61.58v6.386h.852V26h1.949c.643.006 1.131-.157 1.463-.492.33-.333.496-.799.496-1.395s-.166-1.059-.496-1.391zm-.69 2.268c-.223.202-.576.301-1.061.295h-1.662v-2.344h1.662c.484 0 .838.101 1.061.301.223.199.336.488.336.871s-.113.674-.336.877zm1.893-1.002v4.624h.758v-2.058c0-.299.031-.562.092-.791.059-.23.152-.426.285-.587s.305-.283.518-.366c.217-.084.475-.125.779-.125v-.805c-.412-.012-.752.071-1.02.25s-.494.456-.678.832h-.02v-.975h-.714zm5.449 3.836c-.205.149-.469.225-.789.225-.252 0-.471-.042-.654-.125a1.31 1.31 0 0 1-.457-.336 1.333 1.333 0 0 1-.258-.483 1.79 1.79 0 0 1-.072-.577h3.461a3.714 3.714 0 0 0-.076-.885 2.503 2.503 0 0 0-.34-.857 1.99 1.99 0 0 0-.652-.648c-.271-.171-.611-.256-1.023-.256-.316 0-.607.06-.873.178a2.076 2.076 0 0 0-.688.501 2.31 2.31 0 0 0-.451.761 2.799 2.799 0 0 0-.162.967c.012.352.064.676.158.975.09.299.23.555.414.768.184.217.414.383.684.502.271.119.592.18.963.18.523 0 .959-.132 1.305-.395.346-.262.57-.653.67-1.172h-.75c-.068.302-.203.53-.41.677zm-2.113-2.472c.064-.157.154-.297.268-.416.113-.117.248-.213.406-.281a1.32 1.32 0 0 1 .533-.103 1.275 1.275 0 0 1 .933.381c.117.116.209.254.277.415.068.16.109.33.121.511h-2.656c.012-.181.051-.349.118-.507zm4.418 1.802h-.762c.012.285.072.528.18.729.107.199.25.361.43.482.18.123.385.21.617.265.23.054.477.081.732.081.232 0 .469-.023.701-.067.236-.045.449-.124.637-.237s.338-.262.455-.448c.117-.185.174-.417.174-.696a1.1 1.1 0 0 0-.129-.556 1.19 1.19 0 0 0-.34-.37c-.139-.1-.301-.178-.482-.237s-.367-.11-.559-.151c-.18-.043-.357-.084-.537-.122a3.159 3.159 0 0 1-.484-.142c-.143-.057-.258-.129-.352-.215s-.139-.195-.139-.327c0-.118.029-.215.09-.29.059-.074.137-.135.232-.18s.199-.075.316-.093c.117-.02.23-.027.346-.027.125 0 .248.014.371.041.123.024.232.069.336.128.1.061.184.141.25.236a.79.79 0 0 1 .115.373h.76a1.696 1.696 0 0 0-.18-.703 1.15 1.15 0 0 0-.406-.445 1.638 1.638 0 0 0-.584-.233 3.662 3.662 0 0 0-.727-.067c-.201 0-.406.024-.611.075a1.877 1.877 0 0 0-.555.233c-.166.104-.299.24-.4.407a1.102 1.102 0 0 0-.158.6c0 .297.074.53.223.696a1.5 1.5 0 0 0 .559.389c.225.094.467.165.73.215.262.051.504.107.729.172.223.062.408.143.559.244.148.104.223.25.223.448a.558.558 0 0 1-.107.353.69.69 0 0 1-.271.211c-.111.048-.23.081-.361.098a2.395 2.395 0 0 1-.828-.017 1.24 1.24 0 0 1-.393-.149.81.81 0 0 1-.283-.275.88.88 0 0 1-.117-.429zm6.613.67c-.205.149-.469.225-.791.225a1.59 1.59 0 0 1-.654-.125 1.284 1.284 0 0 1-.715-.819 1.79 1.79 0 0 1-.072-.577h3.461a3.815 3.815 0 0 0-.074-.885 2.564 2.564 0 0 0-.34-.857 2.015 2.015 0 0 0-.654-.648c-.27-.171-.611-.256-1.023-.256-.316 0-.607.06-.871.178a2.07 2.07 0 0 0-.689.501 2.31 2.31 0 0 0-.451.761 2.799 2.799 0 0 0-.162.967c.012.352.064.676.158.975.092.299.23.555.414.768.186.217.414.383.686.502.27.119.59.18.961.18.523 0 .959-.132 1.305-.395.346-.262.57-.653.672-1.172h-.755c-.066.302-.199.53-.406.677zm-2.115-2.472c.066-.157.156-.297.268-.416.113-.117.248-.213.408-.281.156-.069.334-.103.531-.103a1.275 1.275 0 0 1 .933.381c.117.116.211.254.277.415.07.16.109.33.121.511h-2.656c.012-.181.051-.349.118-.507zm4.174-1.364v4.624h.76V26c0-.208.027-.4.086-.576.057-.178.141-.33.254-.461s.254-.232.426-.305c.168-.071.371-.106.604-.106.291 0 .521.083.689.251.166.166.25.394.25.679v3.131h.758V25.57c0-.25-.025-.477-.074-.683a1.293 1.293 0 0 0-.266-.534 1.274 1.274 0 0 0-.49-.348 2.024 2.024 0 0 0-.762-.125c-.684 0-1.186.281-1.502.84h-.018v-.732h-.715zm5.627 0v-1.387h-.76v1.387h-.785v.67h.785v2.943c0 .215.021.388.064.518.041.132.105.232.191.305s.199.121.34.147c.139.027.309.041.504.041h.582v-.672h-.348a2.3 2.3 0 0 1-.291-.014.346.346 0 0 1-.176-.058.212.212 0 0 1-.084-.125.782.782 0 0 1-.023-.215v-2.871h.922v-.67H89.1zm4.369 3.836c-.205.149-.469.225-.791.225-.25 0-.469-.042-.652-.125a1.284 1.284 0 0 1-.717-.819 1.847 1.847 0 0 1-.072-.577H94.7a3.815 3.815 0 0 0-.074-.885 2.568 2.568 0 0 0-.342-.857 1.99 1.99 0 0 0-.652-.648c-.271-.171-.615-.256-1.025-.256-.314 0-.605.06-.871.178a2.07 2.07 0 0 0-.689.501c-.193.216-.344.47-.449.761a2.752 2.752 0 0 0-.162.967c.012.352.064.676.156.975s.23.555.416.768c.186.217.412.383.684.502s.592.18.961.18c.525 0 .961-.132 1.307-.395.346-.262.57-.653.67-1.172h-.75c-.069.302-.204.53-.411.677zm-2.115-2.472a1.267 1.267 0 0 1 .676-.697c.158-.069.336-.103.531-.103.193 0 .367.033.523.103a1.274 1.274 0 0 1 .689.693c.068.16.109.33.121.511h-2.658c.014-.181.053-.349.118-.507zm-39.643-9.465c-.205.149-.469.225-.791.225-.25 0-.469-.042-.652-.126a1.241 1.241 0 0 1-.455-.335 1.32 1.32 0 0 1-.262-.483 1.851 1.851 0 0 1-.07-.576h3.459c.014-.28-.01-.575-.074-.886a2.536 2.536 0 0 0-.34-.858c-.164-.264-.381-.479-.652-.648s-.613-.255-1.025-.255c-.316 0-.605.06-.871.178a2.104 2.104 0 0 0-.689.501 2.374 2.374 0 0 0-.453.761c-.105.292-.16.614-.16.967.014.352.064.676.156.974.094.299.232.556.416.77.188.215.414.382.686.5.271.121.592.18.961.18.525 0 .961-.131 1.307-.393.346-.263.568-.654.672-1.172h-.752c-.069.301-.204.527-.411.676zm-2.115-2.473a1.34 1.34 0 0 1 .27-.415c.113-.119.248-.214.406-.282a1.31 1.31 0 0 1 .531-.103 1.316 1.316 0 0 1 .935.38c.117.116.209.255.279.416.066.161.107.33.119.51H49.48c.012-.18.049-.348.116-.506zm3.925-1.363v4.624h.762v-2.058c0-.299.029-.562.09-.792.059-.229.156-.425.285-.586.131-.161.305-.283.518-.366.215-.084.475-.125.779-.125v-.805c-.412-.012-.752.071-1.02.25s-.494.456-.68.833h-.018v-.976h-.716zm5.807 1.483h.785c-.029-.273-.102-.51-.215-.71s-.256-.365-.434-.497a1.824 1.824 0 0 0-.605-.29 2.846 2.846 0 0 0-.74-.094c-.363 0-.682.063-.957.191-.273.129-.5.306-.684.528a2.258 2.258 0 0 0-.408.787 3.447 3.447 0 0 0-.133.971c0 .346.047.662.139.951.092.29.23.539.412.748.182.208.406.369.68.482.27.113.582.17.934.17.59 0 1.057-.155 1.398-.465.344-.311.557-.751.641-1.323h-.777c-.049.356-.178.635-.389.831-.213.197-.506.296-.881.296-.24 0-.445-.048-.617-.144a1.218 1.218 0 0 1-.422-.38c-.107-.158-.186-.339-.236-.541s-.076-.412-.076-.626c0-.232.023-.457.072-.675.047-.219.125-.41.236-.578.111-.166.258-.301.443-.402.184-.101.412-.151.688-.151.324 0 .58.08.77.241s.316.389.376.68zm5.346 2.577c-.117 0-.188-.042-.209-.126a1.777 1.777 0 0 1-.031-.394v-2.379c0-.269-.051-.486-.154-.653a1.05 1.05 0 0 0-.4-.388c-.166-.093-.354-.154-.559-.184s-.414-.045-.621-.045c-.262 0-.51.027-.738.08-.23.054-.434.142-.613.264a1.355 1.355 0 0 0-.428.479 1.621 1.621 0 0 0-.18.725h.76c.02-.34.133-.571.35-.693.215-.122.482-.183.805-.183.119 0 .238.008.361.026s.232.054.332.107a.645.645 0 0 1 .24.233.74.74 0 0 1 .096.401c0 .144-.043.253-.127.326a.817.817 0 0 1-.34.171 3.438 3.438 0 0 1-.496.09c-.188.02-.387.052-.596.093a6.683 6.683 0 0 0-.574.134 1.661 1.661 0 0 0-.502.237c-.146.104-.264.24-.354.407s-.135.383-.135.645c0 .232.041.431.121.594.08.165.189.297.328.397.137.102.297.177.486.225.188.048.387.071.594.071a2.4 2.4 0 0 0 .9-.166c.275-.11.52-.29.729-.54 0 .25.057.43.174.54a.65.65 0 0 0 .469.166c.234 0 .414-.038.547-.116v-.59a.717.717 0 0 1-.235.046zm-1-1.048a.874.874 0 0 1-.08.346 1.085 1.085 0 0 1-.25.34 1.39 1.39 0 0 1-.439.259 1.794 1.794 0 0 1-.645.104c-.119 0-.232-.013-.338-.036a.79.79 0 0 1-.283-.117.637.637 0 0 1-.197-.209.616.616 0 0 1-.076-.318c0-.19.043-.342.131-.451a.847.847 0 0 1 .336-.255c.135-.06.289-.104.463-.13.172-.026.346-.051.516-.071s.334-.048.488-.081a.962.962 0 0 0 .375-.156v.775zm5.133-4.774v2.378h-.018a1.245 1.245 0 0 0-.309-.344 1.839 1.839 0 0 0-.801-.344 2.226 2.226 0 0 0-.385-.036c-.352 0-.66.063-.926.191a1.923 1.923 0 0 0-.662.52 2.182 2.182 0 0 0-.391.765c-.088.292-.131.603-.131.931s.045.637.135.93c.088.292.221.549.396.769.176.222.396.396.662.528s.576.196.934.196c.322 0 .617-.057.887-.17.268-.113.463-.298.59-.555h.018v.627h.762v-6.386h-.761zm-.049 4.713a1.715 1.715 0 0 1-.246.559 1.29 1.29 0 0 1-.439.397 1.289 1.289 0 0 1-.65.153c-.246 0-.459-.048-.643-.144a1.276 1.276 0 0 1-.445-.385 1.734 1.734 0 0 1-.26-.55 2.352 2.352 0 0 1-.084-.631c0-.227.023-.446.07-.662.049-.214.127-.404.232-.572.107-.166.25-.301.43-.402.18-.101.398-.151.654-.151.262 0 .484.049.668.147.188.099.338.228.453.389.117.161.201.348.254.559a2.665 2.665 0 0 1 .006 1.293zm5.898-1.588a2.053 2.053 0 0 0-1.131-1.284 2.337 2.337 0 0 0-.971-.188c-.365 0-.686.062-.967.188a2.057 2.057 0 0 0-.707.515c-.189.218-.332.474-.428.769s-.145.613-.145.953.049.656.145.947c.096.293.238.547.428.765.191.219.428.388.707.51.281.123.602.184.967.184.369 0 .691-.061.971-.184.277-.122.51-.291.701-.51.191-.218.334-.472.43-.765.096-.291.143-.607.143-.947s-.047-.658-.143-.953zm-.773 1.7a1.583 1.583 0 0 1-.309.546 1.367 1.367 0 0 1-1.02.451 1.35 1.35 0 0 1-.559-.117 1.336 1.336 0 0 1-.463-.334 1.658 1.658 0 0 1-.309-.546 2.328 2.328 0 0 1-.111-.747c0-.28.037-.53.111-.747.076-.218.18-.401.309-.549.133-.15.285-.264.463-.341.174-.077.359-.116.559-.116.195 0 .383.039.559.116.174.077.33.19.461.341.131.147.234.331.309.549.074.217.111.467.111.747 0 .279-.037.529-.111.747zm3.627-4.825v6.386h3.974v-.717h-3.177v-5.669zm5.15 0h.762v.93h-.762zm0 1.762h.762v4.624h-.762zm3.846 4.624l1.689-4.624H87.4l-1.261 3.854h-.018l-1.297-3.854h-.849l1.716 4.624zm2.183-4.624v4.624h.758v-2.058c0-.299.031-.562.09-.792.061-.229.156-.425.287-.586s.305-.283.518-.366c.217-.084.475-.125.779-.125v-.805c-.412-.012-.752.071-1.02.25-.27.179-.494.456-.682.833h-.016v-.976h-.714zm5.774 3.836c-.205.149-.469.225-.791.225-.252 0-.469-.042-.654-.126a1.275 1.275 0 0 1-.715-.818 1.852 1.852 0 0 1-.072-.576h3.463a3.718 3.718 0 0 0-.076-.886 2.54 2.54 0 0 0-.342-.858 1.974 1.974 0 0 0-.65-.648c-.273-.17-.613-.255-1.025-.255-.314 0-.605.06-.871.178a2.084 2.084 0 0 0-.689.501c-.193.216-.344.469-.451.761s-.16.614-.16.967c.012.352.064.676.154.974.094.299.232.556.418.77.184.215.412.382.684.5.271.121.592.18.961.18.525 0 .961-.131 1.307-.393.344-.263.57-.654.67-1.172h-.75c-.069.301-.206.527-.411.676zm-2.115-2.473a1.305 1.305 0 0 1 .674-.697c.16-.069.338-.103.533-.103a1.285 1.285 0 0 1 .935.38c.117.116.207.255.277.416.068.161.109.33.121.51H92.23c.014-.18.053-.348.118-.506zm-50.612-3.076v6.386h.754v-5.313h.018l1.869 5.313h.68l1.871-5.313h.015v5.313h.756v-6.386h-1.092l-1.894 5.365-1.887-5.365z" fill="#18418B"/></svg><svg width="52.842" height="40" viewBox="0 0 52.842 40" y="120"><g fill-rule="evenodd" clip-rule="evenodd"><path fill="#961C20" d="M14.504 8.5H9.027c-2.418.115-4.4 1.09-4.971 3.097-.295 1.05-.459 2.199-.693 3.288C2.178 20.408 1.131 26.086 0 31.5h42.633c3.299 0 5.559-.699 6.172-3.312.285-1.215.559-2.59.83-3.927A23786.57 23786.57 0 0 1 52.842 8.5H14.504z"/><path fill="#FFF" d="M14.076 16.676c.23-.158.523-.878.186-1.178-.105-.095-.283-.122-.531-.079-.23.039-.367.118-.453.24-.146.196-.281.793-.057 1.017.22.214.713.095.855 0zm-3.262-1.178c-.162 1.067-.35 2.111-.531 3.153-1.189.015-2.402.059-3.553-.027.215-1.021.371-2.1.588-3.126H6.035c-.459 2.606-.877 5.25-1.391 7.8h1.309c.205-1.307.4-2.629.67-3.872 1.117-.027 2.453-.077 3.527.027-.223 1.292-.492 2.54-.695 3.844h1.309c.42-2.64.867-5.259 1.391-7.8h-1.341zm18.516 2.247c-1.018-.412-1.816.284-2.188.935.08-.29.119-.631.188-.935h-1.016c-.252 1.923-.615 3.73-.965 5.553h1.152c.156-1.081.227-2.542.586-3.579.283-.826 1.031-1.533 2.111-1.147.015-.307.103-.538.132-.827zm.643 4.246c-.105-.271-.133-.726-.109-1.069.061-.771.34-1.713.775-2.136.602-.588 1.779-.491 2.725-.163.031-.316.094-.6.137-.908-1.549-.25-3.016-.094-3.795.723-.764.799-1.258 2.636-.908 3.792.414 1.353 2.266 1.426 3.766.908.068-.271.1-.576.16-.854-.822.428-2.388.651-2.751-.293zm12.902-4.221c-1.014-.506-1.859.347-2.191.854.096-.259.104-.613.188-.879h-1.018a82.003 82.003 0 0 1-.984 5.553h1.176c.006-.735.15-1.278.266-2.001.246-1.541.607-3.234 2.404-2.725.059-.263.085-.559.159-.802zm-29.971-.025c-.035.003-.035.039-.031.081-.252 1.89-.596 3.696-.961 5.473h1.148c.279-1.906.594-3.77.988-5.553h-1.144zM23 17.635c-.832.066-1.533.306-2.031.831-.609.642-1.107 2.067-.959 3.368.205 1.848 2.508 1.778 4.35 1.331.033-.321.115-.602.164-.906-.76.285-2.08.681-2.859.184-.59-.37-.594-1.314-.402-2.135a66.67 66.67 0 0 1 3.768 0c.082-.584.307-1.213.105-1.79-.257-.759-1.193-.951-2.136-.883zm1.092 2.033h-2.695a1.592 1.592 0 0 1 1.521-1.336c.828-.032 1.424.304 1.174 1.336zm-5.447-1.923c-.971-.367-2.16.071-2.67.487.002.015-.016.017-.027.019.01-.008.018-.017.027-.019-.002-.001-.002-.007-.002-.007.01-.177.074-.304.082-.48h-.99c-.41 2.74-.9 5.403-1.414 8.039h1.146c.168-1.026.279-2.113.512-3.072.26 1.011 1.975.82 2.693.427 1.492-.806 2.644-4.646.643-5.394zm-.911 4.514c-.613.648-2.125.644-2.242-.456-.053-.474.125-.977.215-1.47.088-.498.15-.98.24-1.417.604-.738 2.383-.827 2.564.404.157 1.068-.267 2.4-.777 2.939zm29.418-6.919c-.1.861-.232 1.689-.404 2.485-2.814-.894-4.543 1.178-4.516 3.735.008.498.092.989.4 1.343.535.597 2.062.745 2.832.236.15-.098.305-.277.404-.401.072-.093.189-.339.211-.268-.035.27-.1.523-.105.828h1.043c.199-2.877.82-5.337 1.277-7.958h-1.142zm-2.568 7.347c-.773.015-1.156-.465-1.176-1.255-.025-1.391.58-2.933 1.818-3.076.574-.062.992.07 1.416.216-.39 1.56-.249 4.075-2.058 4.115zm-9.91-4.942c-.055.316-.143.604-.215.906.682-.172 2.791-.69 2.992.213.07.302-.049.622-.131.856-1.91-.18-3.467.138-3.875 1.497-.273.913.031 1.807.615 2.059 1.121.481 2.492-.069 2.965-.831a3.226 3.226 0 0 0-.078.854h.984c.012-.945.152-1.712.297-2.562.123-.726.357-1.448.316-2.086-.081-1.466-2.509-.946-3.87-.906zm1.871 4.485c-.594.582-2.256.744-2.086-.642.143-1.149 1.395-1.393 2.754-1.228-.102.632-.217 1.43-.668 1.87z"/></g></svg><svg width="91.951" height="40" viewBox="0 0 91.951 40" y="160"><path fill="#2A3375" d="M33.673 19.042c0-6.085-7.536-11.03-16.837-11.03-9.299 0-16.834 4.945-16.834 11.03L0 19.685c0 6.435 6.587 11.648 16.836 11.648 10.308 0 16.837-5.212 16.837-11.648v-.643z"/><path fill="#1A97D5" d="M33.023 19.035c0 5.709-7.238 10.348-16.184 10.348-8.941 0-16.188-4.639-16.188-10.348 0-5.727 7.246-10.367 16.188-10.367 8.946-.001 16.184 4.64 16.184 10.367z"/><g fill="#FFF"><path d="M11.468 15.755c-.013.022-.174.186-.07.336.255.313 1.048.506 1.847.323.466-.111 1.081-.589 1.677-1.05.64-.529 1.266-1.026 1.906-1.24.672-.193 1.104-.102 1.392-.016.313.097.684.279 1.271.727 1.106.833 5.562 4.728 6.33 5.389.621-.271 3.38-1.447 7.114-2.278-.313-2.005-1.534-3.829-3.366-5.323-2.576 1.078-5.711 1.648-8.779.148-.013 0-1.676-.809-3.306-.751-2.438.041-3.497 1.108-4.605 2.217l-1.411 1.518z"/><path d="M25.641 20.666c-.053-.062-5.233-4.584-6.404-5.473-.686-.52-1.063-.63-1.461-.701a2.11 2.11 0 0 0-.689.075c-.546.152-1.255.626-1.895 1.13-.663.52-1.281 1.023-1.855 1.135-.736.16-1.631-.02-2.042-.29a1.043 1.043 0 0 1-.333-.368c-.154-.348.126-.634.168-.696l1.433-1.54c.16-.179.337-.34.507-.496-.465.049-.887.175-1.305.301-.515.135-1.015.287-1.52.287-.215 0-1.333-.183-1.562-.26-1.29-.357-2.423-.694-4.124-1.48-2.024 1.506-3.392 3.4-3.781 5.496.285.074.764.198.952.26 4.607 1.012 6.042 2.079 6.303 2.283a1.59 1.59 0 0 1 1.146-.502c.5.004.961.252 1.244.664.26-.221.624-.398 1.098-.398.213 0 .438.043.656.127.518.174.784.517.925.815.171-.078.394-.122.645-.12.241 0 .504.042.76.162.852.367.985 1.207.909 1.838.056-.008.117-.012.184-.012a1.823 1.823 0 0 1 1.601 2.685c.277.141.974.486 1.592.412.488-.051.667-.215.736-.309.046-.08.095-.158.052-.201l-1.305-1.445s-.205-.21-.144-.283c.07-.078.212.048.305.12.659.558 1.468 1.37 1.468 1.37.011.008.066.12.361.181.257.044.718.007 1.033-.247.074-.059.15-.135.225-.219-.008.006-.015.014-.017.016.336-.447-.036-.873-.036-.873l-1.515-1.7s-.229-.21-.146-.285c.061-.061.201.048.296.126.485.4 1.154 1.082 1.817 1.723.121.095.688.445 1.452-.066.455-.281.547-.657.537-.943-.036-.371-.323-.633-.323-.633l-2.065-2.088s-.215-.189-.142-.288c.053-.075.2.052.295.124.656.561 2.448 2.203 2.448 2.203.021.009.638.455 1.403-.039.269-.172.449-.432.461-.75a1.05 1.05 0 0 0-.348-.828z"/><path d="M15.598 23.289c-.322-.014-.665.188-.72.168-.028-.009.017-.154.055-.219.024-.071.447-1.35-.587-1.788-.784-.331-1.265.031-1.438.21-.041.045-.057.043-.063-.004-.02-.246-.122-.864-.796-1.073-.979-.285-1.606.382-1.762.629-.079-.541-.54-.987-1.108-.987-.622 0-1.137.516-1.137 1.139 0 .619.515 1.115 1.135 1.115.297 0 .573-.1.772-.299.008.008.01.02.006.02-.046.283-.13 1.309.937 1.707.42.178.785.059 1.082-.163.089-.054.105-.02.093.065-.036.259.013.815.801 1.125.585.234.94-.007 1.175-.219.102-.091.127-.084.13.074.042.73.664 1.357 1.423 1.357.782 0 1.423-.633 1.423-1.432a1.431 1.431 0 0 0-1.421-1.425z"/></g><path fill="#2A3375" d="M25.842 20.123c-1.597-1.416-5.292-4.613-6.295-5.375-.563-.422-.952-.633-1.294-.738a1.7 1.7 0 0 0-.638-.105c-.258 0-.529.033-.816.125-.65.21-1.293.719-1.921 1.223l-.025.033c-.577.447-1.178.924-1.626 1.027a2.607 2.607 0 0 1-.609.061c-.513 0-.973-.137-1.14-.371-.023-.014-.01-.088.061-.176h.008l1.41-1.527c1.097-1.08 2.139-2.133 4.527-2.173l.12-.002c1.488.002 2.986.647 3.146.736 1.396.687 2.839 1.024 4.283 1.026 1.514 0 3.071-.377 4.715-1.115a4.41 4.41 0 0 0-.58-.451c-1.438.626-2.805.923-4.133.923a8.994 8.994 0 0 1-3.999-.954c-.075-.048-1.721-.811-3.432-.811-.047 0-.089 0-.136.002-2.005.033-3.142.751-3.901 1.38-.744.013-1.383.192-1.947.358-.513.143-.951.271-1.37.271-.176 0-.495-.018-.525-.018-.497-.019-2.963-.619-4.937-1.377-.194.136-.393.297-.585.438 2.058.858 4.564 1.496 5.353 1.554.219.019.456.03.692.03.517 0 1.04-.143 1.543-.271.306-.088.628-.178.987-.268-.099.09-.19.18-.285.28l-1.423 1.551c-.123.121-.358.416-.202.784.06.167.198.304.382.437.331.212.935.361 1.511.361.213 0 .412 0 .598-.056.605-.124 1.232-.635 1.891-1.16.528-.411 1.291-.945 1.862-1.121.16-.028.362-.067.515-.067.047 0 .094 0 .133.01.388.058.759.176 1.413.686 1.168.874 6.356 5.395 6.4 5.457.007.004.339.294.315.741a.81.81 0 0 1-.413.673c-.216.136-.449.225-.677.225-.346 0-.588-.18-.604-.18-.012-.01-1.796-1.643-2.442-2.193-.111-.084-.216-.159-.316-.159-.049 0-.101.018-.126.054-.108.142 0 .316.133.414l2.083 2.09c.002.001.253.246.295.566.004.34-.158.641-.5.846-.247.179-.484.268-.734.268-.324 0-.544-.164-.598-.18l-.295-.299c-.543-.535-1.102-1.096-1.516-1.434-.1-.08-.209-.15-.307-.15-.053 0-.094 0-.143.042-.036.048-.074.136.053.311.037.056.098.095.098.095l1.519 1.707c.004.014.308.369.029.718l-.053.089c-.048.041-.095.092-.142.129-.258.223-.604.231-.732.231l-.215-.001a.713.713 0 0 1-.295-.14l-.019-.028A23.566 23.566 0 0 0 18.49 23.8c-.08-.072-.189-.16-.287-.16-.054 0-.105.007-.136.059-.135.125.05.34.136.41l1.297 1.412a.204.204 0 0 1-.055.092c-.045.087-.201.237-.665.281a.99.99 0 0 1-.169.014c-.494 0-1.002-.221-1.268-.379.119-.251.186-.535.186-.812 0-1.068-.87-1.92-1.93-1.923-.026 0-.043.003-.074.003.037-.495-.031-1.403-.972-1.814a1.85 1.85 0 0 0-.806-.176c-.215 0-.406.045-.591.115a1.551 1.551 0 0 0-.948-.798 2.15 2.15 0 0 0-.688-.136c-.396 0-.76.125-1.078.342a1.656 1.656 0 0 0-1.262-.605c-.436 0-.851.168-1.159.484-.404-.322-1.989-1.33-6.261-2.311-.207-.029-.679-.187-.979-.266-.04.253-.086.472-.107.709 0 0 .789.178.949.225 4.358.961 5.8 1.979 6.041 2.171a1.647 1.647 0 0 0-.129.628c0 .902.739 1.641 1.643 1.641.096 0 .194-.01.295-.037.136.672.562 1.163 1.238 1.418.185.072.381.123.576.123.128 0 .251-.02.367-.062.135.324.403.719 1.022.965.209.086.425.109.64.109.178 0 .339-.002.49-.087.308.72 1.002 1.21 1.791 1.21.516 0 1.014-.223 1.378-.583.312.18.963.481 1.638.483.085 0 .159-.008.241-.021.657-.085.962-.334 1.106-.542.022-.018.043-.064.066-.1.148.041.328.09.519.09.36 0 .707-.133 1.06-.383.341-.245.588-.605.62-.91l.002-.014c.112.029.24.048.354.048.37 0 .736-.126 1.08-.356.674-.449.789-1.006.789-1.393.106.037.222.044.352.044.344 0 .679-.099 1.01-.318.42-.267.662-.667.703-1.139a1.529 1.529 0 0 0-.229-.939c1.13-.476 3.703-1.417 6.73-2.093a6.273 6.273 0 0 0-.086-.721c-3.672.815-6.406 2.006-7.088 2.325zm-10.244 5.921a1.31 1.31 0 0 1-1.317-1.261c-.005-.069-.015-.235-.147-.235-.062 0-.1.043-.156.082-.16.167-.355.299-.648.299-.136 0-.279-.036-.426-.091-.756-.304-.756-.826-.735-1.022.012-.062.015-.112-.021-.171l-.051-.022h-.038a.338.338 0 0 0-.143.039c-.217.154-.423.242-.633.242a.813.813 0 0 1-.355-.088c-.989-.368-.914-1.314-.862-1.6.009-.045-.012-.105-.045-.115l-.073-.075-.063.085a1.024 1.024 0 0 1-.705.268 1.017 1.017 0 0 1-1.033-1.016c0-.576.459-1.041 1.035-1.041.504 0 .939.396 1.01.895l.027.279.154-.223c.018-.035.435-.661 1.193-.661.152 0 .307.034.447.062.612.189.71.744.729.986.016.123.112.135.125.135.052 0 .09-.045.122-.054a1 1 0 0 1 .757-.337c.18 0 .374.059.563.144.973.401.533 1.64.533 1.64-.09.207-.09.295-.014.357h.058c.046 0 .1 0 .191-.029.13-.059.332-.124.52-.123a1.335 1.335 0 0 1 1.316 1.322c-.001.717-.599 1.329-1.315 1.329zm75.435-14.022c-.598-.779-1.527-1.136-2.759-1.136-1.237 0-2.161.356-2.765 1.136-.611.749-.915 1.646-.915 2.701 0 1.049.304 1.953.915 2.716.604.727 1.527 1.109 2.765 1.109 1.231 0 2.161-.383 2.759-1.109.617-.763.918-1.667.918-2.716 0-1.055-.301-1.952-.918-2.701zm-1.495 4.353c-.302.404-.716.608-1.271.608-.554 0-.972-.204-1.274-.608-.293-.374-.448-.929-.448-1.652s.155-1.286.448-1.683c.303-.367.721-.569 1.274-.569.556 0 .97.202 1.271.569.288.396.44.959.44 1.683s-.152 1.278-.44 1.652zm-14.03-4.992c-.612-.319-1.312-.479-2.115-.479-1.217 0-2.073.336-2.58.968-.312.398-.489.912-.531 1.541h1.817c.047-.285.138-.484.269-.643.191-.234.512-.354.965-.354.404 0 .705.076.912.173.216.114.31.329.31.628 0 .238-.134.416-.403.54-.145.06-.404.101-.752.163l-.641.074c-.739.094-1.302.243-1.674.471-.693.379-1.034 1.026-1.034 1.909 0 .706.215 1.231.644 1.604.427.36.973.531 1.629.538 4.118.188 4.073-2.156 4.118-2.647v-2.718c-.002-.859-.317-1.457-.934-1.768zm-.954 4.11c-.01.634-.192 1.063-.538 1.319-.355.23-.729.358-1.146.358-.259 0-.474-.089-.657-.226-.184-.133-.272-.381-.272-.692 0-.36.146-.632.441-.798.177-.108.465-.193.872-.262l.426-.086c.213-.038.381-.09.514-.127a5.19 5.19 0 0 0 .36-.186v.7zm-8.442-2.971c.47 0 .81.159 1.033.429.157.232.255.461.291.73h2.037c-.115-1.006-.474-1.721-1.075-2.145-.613-.385-1.387-.602-2.343-.602-1.117 0-2.006.339-2.635 1.027-.633.699-.952 1.646-.952 2.873 0 1.1.281 1.988.862 2.696.576.679 1.478 1.017 2.692 1.017 1.224 0 2.154-.398 2.775-1.225.388-.512.602-1.051.649-1.635h-2.03c-.039.389-.15.68-.354.939-.188.225-.522.355-.993.355-.652 0-1.098-.31-1.338-.9-.126-.34-.189-.754-.189-1.277 0-.557.063-.997.189-1.326.254-.625.708-.956 1.381-.956zm-4.194-1.587c-4.174 0-3.938 3.705-3.938 3.705v3.752h1.903V14.86c0-.562.079-1.013.217-1.281.268-.487.771-.726 1.526-.726.061 0 .132.005.225.007.09 0 .204 0 .321.009v-1.912c-.081-.01-.143-.012-.164-.016a.545.545 0 0 0-.09-.006zm-6.961 5.5a1.706 1.706 0 0 1-.254.285c-.268.207-.634.271-1.068.271-.408 0-.721-.056-1.002-.238-.481-.303-.748-.772-.771-1.494h5.245a10.225 10.225 0 0 0-.062-1.426 3.6 3.6 0 0 0-.578-1.514 3.215 3.215 0 0 0-1.239-1.059 4.43 4.43 0 0 0-1.687-.326c-1.063 0-1.925.325-2.582 1.002-.655.653-.995 1.628-.995 2.867 0 1.328.367 2.277 1.103 2.885a3.97 3.97 0 0 0 2.533.885c1.157 0 2.062-.347 2.716-1.042.343-.372.561-.737.651-1.097h-2.01zm-2.546-3.541c.269-.275.631-.395 1.13-.395.442 0 .81.108 1.111.36.298.269.463.646.509 1.163H51.91c.061-.476.234-.85.501-1.128zm-3.206 5.498h-1.73v-4.363c0-.395-.126-1.348-1.273-1.348-.763 0-1.317.537-1.317 1.348v4.363h-1.729v-4.363c0-.395-.116-1.348-1.26-1.348-.775 0-1.315.537-1.315 1.348v4.363h-1.73V14.07c0-1.799 1.194-3.165 3.046-3.165.911 0 1.668.394 2.151 1.009a2.785 2.785 0 0 1 2.154-1.009c1.889 0 3.004 1.32 3.004 3.165v4.322zM84.03 8.65s-1.911-.189-1.911 1.337v2.035a2.299 2.299 0 0 0-1.992-1.087c-.946 0-1.698.352-2.265 1.05-.569.696-.841 1.728-.841 2.946 0 1.07.274 1.959.855 2.625.579.693 1.707.975 2.697.975 3.498 0 3.456-2.977 3.456-2.977V8.65zm-2.271 7.748c-.28.409-.691.594-1.221.594-.53 0-.929-.185-1.183-.598-.264-.393-.4-.978-.4-1.646 0-.619.137-1.129.389-1.532.256-.433.657-.625 1.212-.625.363 0 .678.091.954.341.443.377.666 1.051.666 1.922 0 .634-.143 1.147-.417 1.544z"/><path d="M40.677 30.42a.929.929 0 0 1-.937.94h-.95v-6.59c0-1.291.431-2.089 1.138-2.633.473-.355 1.169-.693 2.483-.693.879 0 1.919.338 2.479 1.023.629.77.889 1.615.889 2.738 0 1.156-.276 2.1-.829 2.816-.562.689-1.275 1.029-2.152 1.029-.455 0-.868-.08-1.225-.238-.372-.183-.667-.475-.896-.867v2.475zm3.185-5.131c0-.713-.142-1.264-.422-1.65-.278-.373-.679-.568-1.195-.568-.504 0-.888.195-1.171.568-.256.356-.397.896-.397 1.65 0 .691.142 1.221.426 1.579.274.36.675.562 1.189.562.493 0 .87-.201 1.148-.562.281-.394.422-.906.422-1.579m14.479 3.163v-.47c-.331.502-.778.84-1.326.953a2.63 2.63 0 0 1-1.653-.126c-.548-.235-1.025-.624-1.416-1.223-.388-.603-.588-1.376-.588-2.342 0-1.154.256-2.058.781-2.776.521-.706 1.357-1.012 2.503-1.057 1.14-.021 1.793.242 2.439.712.702.533 1.124 1.358 1.124 2.651v3.879c.004 1.226-.86 3.514-3.563 3.322-1.673-.135-2.6-.805-3.121-2.369h2.002c.145.252.373.452.669.582.294.146.607.181.902.107.296-.051.572-.234.828-.531.24-.292.381-.739.419-1.312m-3.116-3.161c0 1.264.36 1.959 1.087 2.115.731.119 1.271-.047 1.612-.538.174-.18.286-.503.355-.925.078-.426.09-.869.018-1.286a2.462 2.462 0 0 0-.451-1.112c-.239-.348-.585-.51-1.047-.51-.609 0-1.034.24-1.257.691-.219.449-.317.988-.317 1.565m-3.491-3.362c-.615-.295-1.312-.448-2.116-.448-1.212 0-2.07.306-2.578.946-.313.399-.489.933-.532 1.565h1.823c.047-.281.134-.519.263-.674.193-.221.514-.321.965-.321.407 0 .706.042.912.168.216.109.313.298.313.604 0 .234-.135.413-.406.536a2.601 2.601 0 0 1-.753.16l-.635.069c-.743.104-1.305.27-1.68.479-.69.411-1.033 1.046-1.033 1.941 0 .672.21 1.198.647 1.574.424.382.966.527 1.624.57 4.121.186 4.076-2.18 4.119-2.68v-2.693c.001-.888-.311-1.464-.933-1.796m-.95 4.13c-.014.629-.193 1.075-.538 1.302a2.098 2.098 0 0 1-1.147.355c-.259 0-.475-.062-.657-.219-.182-.139-.271-.359-.271-.701 0-.364.143-.629.443-.799.174-.105.466-.191.869-.25l.424-.082c.214-.055.383-.078.514-.146a.99.99 0 0 0 .364-.177v.717zm16.585-3.512c-.603-.78-1.534-1.156-2.765-1.156-1.243 0-2.157.376-2.777 1.156-.599.743-.899 1.642-.899 2.697 0 1.052.301 1.956.899 2.702.62.743 1.534 1.124 2.777 1.124 1.23 0 2.162-.381 2.765-1.124.61-.746.914-1.65.914-2.702 0-1.055-.304-1.953-.914-2.697m-1.5 4.353c-.303.406-.719.598-1.27.598-.558 0-.977-.191-1.278-.598-.29-.391-.443-.932-.443-1.655 0-.721.153-1.28.443-1.681.302-.377.721-.566 1.278-.566.551 0 .967.189 1.27.566.291.4.443.96.443 1.681 0 .723-.152 1.264-.443 1.655" fill="#1A97D5"/></svg><svg width="54.18" height="40" viewBox="0 0 54.18 40" y="200"><linearGradient id="a" gradientUnits="userSpaceOnUse" x1="8.051" y1="20" x2="35.412" y2="20"><stop offset="0" stop-color="#22274d"/><stop offset="1" stop-color="#204991"/></linearGradient><path fill-rule="evenodd" clip-rule="evenodd" fill="url(#a)" d="M20.572 11.321l-7.095 17.403H8.852L5.36 14.835c-.211-.856-.396-1.17-1.042-1.529-1.052-.588-2.79-1.141-4.318-1.483l.104-.501h7.447c.951 0 1.809.649 2.022 1.773l1.842 10.072 4.557-11.845h4.6zm18.131 11.72c.019-4.592-6.176-4.846-6.134-6.899.015-.622.594-1.288 1.858-1.46.627-.082 2.358-.148 4.318.783l.766-3.693c-1.052-.393-2.407-.772-4.094-.772-4.329 0-7.373 2.365-7.399 5.754-.025 2.511 2.176 3.904 3.836 4.738 1.702.854 2.275 1.399 2.269 2.166-.013 1.164-1.358 1.68-2.618 1.699-2.206.034-3.479-.607-4.498-1.1l-.79 3.816c1.02.481 2.908.903 4.866.926 4.597.001 7.605-2.333 7.62-5.958zm11.43 5.684h4.047l-3.534-17.403H46.91c-.842 0-1.548.498-1.861 1.273l-6.572 16.13h4.595l.916-2.601h5.615l.53 2.601zm-4.885-6.166l2.302-6.539 1.325 6.539h-3.627zM26.826 11.321l-3.617 17.403h-4.38l3.621-17.403h4.376z"/></svg></svg>